%TF.GenerationSoftware,KiCad,Pcbnew,10.0.3*%
%TF.CreationDate,2026-05-22T12:26:46+10:00*%
%TF.ProjectId,screen-hopper-tht,73637265-656e-42d6-986f-707065722d74,rev?*%
%TF.SameCoordinates,Original*%
%TF.FileFunction,Paste,Top*%
%TF.FilePolarity,Positive*%
%FSLAX46Y46*%
G04 Gerber Fmt 4.6, Leading zero omitted, Abs format (unit mm)*
G04 Created by KiCad (PCBNEW 10.0.3) date 2026-05-22 12:26:46*
%MOMM*%
%LPD*%
G01*
G04 APERTURE LIST*
G04 Aperture macros list*
%AMRoundRect*
0 Rectangle with rounded corners*
0 $1 Rounding radius*
0 $2 $3 $4 $5 $6 $7 $8 $9 X,Y pos of 4 corners*
0 Add a 4 corners polygon primitive as box body*
4,1,4,$2,$3,$4,$5,$6,$7,$8,$9,$2,$3,0*
0 Add four circle primitives for the rounded corners*
1,1,$1+$1,$2,$3*
1,1,$1+$1,$4,$5*
1,1,$1+$1,$6,$7*
1,1,$1+$1,$8,$9*
0 Add four rect primitives between the rounded corners*
20,1,$1+$1,$2,$3,$4,$5,0*
20,1,$1+$1,$4,$5,$6,$7,0*
20,1,$1+$1,$6,$7,$8,$9,0*
20,1,$1+$1,$8,$9,$2,$3,0*%
G04 Aperture macros list end*
%ADD10R,3.800000X2.200000*%
%ADD11O,1.100000X1.800000*%
%ADD12R,2.200000X3.800000*%
%ADD13O,1.050000X1.450000*%
%ADD14RoundRect,0.300000X0.450000X0.450000X-0.450000X0.450000X-0.450000X-0.450000X0.450000X-0.450000X0*%
G04 APERTURE END LIST*
D10*
%TO.C,A2*%
X33690000Y-54045000D03*
X33690000Y-51505000D03*
X33690000Y-48965000D03*
X33690000Y-46425000D03*
X33690000Y-43885000D03*
X33690000Y-41345000D03*
X33690000Y-38805000D03*
X33690000Y-36265000D03*
X33690000Y-33725000D03*
X33690000Y-31185000D03*
X33690000Y-28645000D03*
X33690000Y-26105000D03*
X33690000Y-23565000D03*
X33690000Y-21025000D03*
X33690000Y-18485000D03*
X33690000Y-15945000D03*
X33690000Y-13405000D03*
X33690000Y-10865000D03*
X33690000Y-8325000D03*
X33690000Y-5785000D03*
D11*
X26725000Y-53915000D03*
D12*
X26540000Y-5215000D03*
D13*
X26425000Y-50885000D03*
D12*
X24000000Y-5215000D03*
D13*
X21575000Y-50885000D03*
D12*
X21460000Y-5215000D03*
D11*
X21275000Y-53915000D03*
D10*
X14310000Y-54045000D03*
X14310000Y-51505000D03*
X14310000Y-48965000D03*
X14310000Y-46425000D03*
X14310000Y-43885000D03*
X14310000Y-41345000D03*
X14310000Y-38805000D03*
X14310000Y-36265000D03*
X14310000Y-33725000D03*
X14310000Y-31185000D03*
X14310000Y-28645000D03*
X14310000Y-26105000D03*
X14310000Y-23565000D03*
X14310000Y-21025000D03*
X14310000Y-18485000D03*
X14310000Y-15945000D03*
X14310000Y-13405000D03*
X14310000Y-10865000D03*
X14310000Y-8325000D03*
X14310000Y-5785000D03*
D14*
X24000000Y-50915000D03*
X23000000Y-54215000D03*
X25000000Y-54215000D03*
X26500000Y-47415000D03*
X26500000Y-44915000D03*
X26500000Y-42415000D03*
%TD*%
M02*
