%TF.GenerationSoftware,KiCad,Pcbnew,10.0.3*%
%TF.CreationDate,2026-05-22T11:35:36+10:00*%
%TF.ProjectId,screen-hopper-tht,73637265-656e-42d6-986f-707065722d74,rev?*%
%TF.SameCoordinates,Original*%
%TF.FileFunction,Copper,L2,Bot*%
%TF.FilePolarity,Positive*%
%FSLAX46Y46*%
G04 Gerber Fmt 4.6, Leading zero omitted, Abs format (unit mm)*
G04 Created by KiCad (PCBNEW 10.0.3) date 2026-05-22 11:35:36*
%MOMM*%
%LPD*%
G01*
G04 APERTURE LIST*
G04 Aperture macros list*
%AMRoundRect*
0 Rectangle with rounded corners*
0 $1 Rounding radius*
0 $2 $3 $4 $5 $6 $7 $8 $9 X,Y pos of 4 corners*
0 Add a 4 corners polygon primitive as box body*
4,1,4,$2,$3,$4,$5,$6,$7,$8,$9,$2,$3,0*
0 Add four circle primitives for the rounded corners*
1,1,$1+$1,$2,$3*
1,1,$1+$1,$4,$5*
1,1,$1+$1,$6,$7*
1,1,$1+$1,$8,$9*
0 Add four rect primitives between the rounded corners*
20,1,$1+$1,$2,$3,$4,$5,0*
20,1,$1+$1,$4,$5,$6,$7,0*
20,1,$1+$1,$6,$7,$8,$9,0*
20,1,$1+$1,$8,$9,$2,$3,0*%
%AMFreePoly0*
4,1,37,0.603843,0.796157,0.639018,0.796157,0.711114,0.766294,0.766294,0.711114,0.796157,0.639018,0.796157,0.603843,0.800000,0.600000,0.800000,-0.600000,0.796157,-0.603843,0.796157,-0.639018,0.766294,-0.711114,0.711114,-0.766294,0.639018,-0.796157,0.603843,-0.796157,0.600000,-0.800000,0.000000,-0.800000,0.000000,-0.796148,-0.078414,-0.796148,-0.232228,-0.765552,-0.377117,-0.705537,
-0.507515,-0.618408,-0.618408,-0.507515,-0.705537,-0.377117,-0.765552,-0.232228,-0.796148,-0.078414,-0.796148,0.078414,-0.765552,0.232228,-0.705537,0.377117,-0.618408,0.507515,-0.507515,0.618408,-0.377117,0.705537,-0.232228,0.765552,-0.078414,0.796148,0.000000,0.796148,0.000000,0.800000,0.600000,0.800000,0.603843,0.796157,0.603843,0.796157,$1*%
%AMFreePoly1*
4,1,37,0.000000,0.796148,0.078414,0.796148,0.232228,0.765552,0.377117,0.705537,0.507515,0.618408,0.618408,0.507515,0.705537,0.377117,0.765552,0.232228,0.796148,0.078414,0.796148,-0.078414,0.765552,-0.232228,0.705537,-0.377117,0.618408,-0.507515,0.507515,-0.618408,0.377117,-0.705537,0.232228,-0.765552,0.078414,-0.796148,0.000000,-0.796148,0.000000,-0.800000,-0.600000,-0.800000,
-0.603843,-0.796157,-0.639018,-0.796157,-0.711114,-0.766294,-0.766294,-0.711114,-0.796157,-0.639018,-0.796157,-0.603843,-0.800000,-0.600000,-0.800000,0.600000,-0.796157,0.603843,-0.796157,0.639018,-0.766294,0.711114,-0.711114,0.766294,-0.639018,0.796157,-0.603843,0.796157,-0.600000,0.800000,0.000000,0.800000,0.000000,0.796148,0.000000,0.796148,$1*%
G04 Aperture macros list end*
%TA.AperFunction,ComponentPad*%
%ADD10C,1.600000*%
%TD*%
%TA.AperFunction,ComponentPad*%
%ADD11RoundRect,0.200000X-0.600000X-0.600000X0.600000X-0.600000X0.600000X0.600000X-0.600000X0.600000X0*%
%TD*%
%TA.AperFunction,ComponentPad*%
%ADD12FreePoly0,0.000000*%
%TD*%
%TA.AperFunction,ComponentPad*%
%ADD13FreePoly1,0.000000*%
%TD*%
%TA.AperFunction,ComponentPad*%
%ADD14RoundRect,0.250000X-0.550000X-0.550000X0.550000X-0.550000X0.550000X0.550000X-0.550000X0.550000X0*%
%TD*%
%TA.AperFunction,ComponentPad*%
%ADD15RoundRect,0.250000X-0.512000X-0.512000X0.512000X-0.512000X0.512000X0.512000X-0.512000X0.512000X0*%
%TD*%
%TA.AperFunction,ComponentPad*%
%ADD16C,1.524000*%
%TD*%
%TA.AperFunction,ComponentPad*%
%ADD17C,3.500000*%
%TD*%
%TA.AperFunction,ViaPad*%
%ADD18C,0.700000*%
%TD*%
%TA.AperFunction,Conductor*%
%ADD19C,0.350000*%
%TD*%
G04 APERTURE END LIST*
D10*
%TO.P,R1,1*%
%TO.N,OPTO_3V3*%
X57190000Y-12000000D03*
%TO.P,R1,2*%
%TO.N,OPTO_ANODE*%
X64810000Y-12000000D03*
%TD*%
%TO.P,C1,1*%
%TO.N,VBUS2*%
X82500000Y-48000000D03*
%TO.P,C1,2*%
%TO.N,GND2*%
X87500000Y-48000000D03*
%TD*%
D11*
%TO.P,A1,1*%
%TO.N,SER_A0_B1*%
X41110000Y-5870000D03*
D10*
%TO.P,A1,2*%
%TO.N,SER_A1_B0*%
X41110000Y-8410000D03*
D12*
%TO.P,A1,3*%
%TO.N,GND1*%
X41110000Y-10950000D03*
D10*
%TO.P,A1,4*%
%TO.N,SER_A2_B3*%
X41110000Y-13490000D03*
%TO.P,A1,5*%
%TO.N,SER_A3_B2*%
X41110000Y-16030000D03*
%TO.P,A1,6*%
%TO.N,N/C*%
X41110000Y-18570000D03*
%TO.P,A1,7*%
X41110000Y-21110000D03*
D12*
%TO.P,A1,8*%
%TO.N,GND1*%
X41110000Y-23650000D03*
D10*
%TO.P,A1,9*%
%TO.N,N/C*%
X41110000Y-26190000D03*
%TO.P,A1,10*%
X41110000Y-28730000D03*
%TO.P,A1,11*%
X41110000Y-31270000D03*
%TO.P,A1,12*%
X41110000Y-33810000D03*
D12*
%TO.P,A1,13*%
%TO.N,GND1*%
X41110000Y-36350000D03*
D10*
%TO.P,A1,14*%
%TO.N,N/C*%
X41110000Y-38890000D03*
%TO.P,A1,15*%
X41110000Y-41430000D03*
%TO.P,A1,16*%
X41110000Y-43970000D03*
%TO.P,A1,17*%
X41110000Y-46510000D03*
D12*
%TO.P,A1,18*%
%TO.N,GND1*%
X41110000Y-49050000D03*
D10*
%TO.P,A1,19*%
%TO.N,N/C*%
X41110000Y-51590000D03*
%TO.P,A1,20*%
X41110000Y-54130000D03*
%TO.P,A1,21*%
X58890000Y-54130000D03*
%TO.P,A1,22*%
X58890000Y-51590000D03*
D13*
%TO.P,A1,23*%
%TO.N,GND1*%
X58890000Y-49050000D03*
D10*
%TO.P,A1,24*%
%TO.N,N/C*%
X58890000Y-46510000D03*
%TO.P,A1,25*%
X58890000Y-43970000D03*
%TO.P,A1,26*%
%TO.N,OPTO_CATH*%
X58890000Y-41430000D03*
%TO.P,A1,27*%
%TO.N,N/C*%
X58890000Y-38890000D03*
D13*
%TO.P,A1,28*%
%TO.N,GND1*%
X58890000Y-36350000D03*
D10*
%TO.P,A1,29*%
%TO.N,N/C*%
X58890000Y-33810000D03*
%TO.P,A1,30*%
X58890000Y-31270000D03*
%TO.P,A1,31*%
X58890000Y-28730000D03*
%TO.P,A1,32*%
X58890000Y-26190000D03*
D13*
%TO.P,A1,33*%
%TO.N,GND1*%
X58890000Y-23650000D03*
D10*
%TO.P,A1,34*%
%TO.N,N/C*%
X58890000Y-21110000D03*
%TO.P,A1,35*%
X58890000Y-18570000D03*
%TO.P,A1,36*%
%TO.N,OPTO_3V3*%
X58890000Y-16030000D03*
%TO.P,A1,37*%
%TO.N,N/C*%
X58890000Y-13490000D03*
D13*
%TO.P,A1,38*%
%TO.N,GND1*%
X58890000Y-10950000D03*
D10*
%TO.P,A1,39*%
%TO.N,N/C*%
X58890000Y-8410000D03*
%TO.P,A1,40*%
%TO.N,VBUS1*%
X58890000Y-5870000D03*
%TD*%
D14*
%TO.P,U1,1*%
%TO.N,N/C*%
X68190000Y-26190000D03*
D10*
%TO.P,U1,2*%
%TO.N,OPTO_ANODE*%
X68190000Y-28730000D03*
%TO.P,U1,3*%
%TO.N,OPTO_CATH*%
X68190000Y-31270000D03*
%TO.P,U1,4*%
%TO.N,N/C*%
X68190000Y-33810000D03*
%TO.P,U1,5*%
%TO.N,GND2*%
X75810000Y-33810000D03*
%TO.P,U1,6*%
%TO.N,OPTO_VO*%
X75810000Y-31270000D03*
%TO.P,U1,7*%
%TO.N,N/C*%
X75810000Y-28730000D03*
%TO.P,U1,8*%
%TO.N,VBUS2*%
X75810000Y-26190000D03*
%TD*%
%TO.P,R2,1*%
%TO.N,FWD_3V3*%
X81190000Y-12000000D03*
%TO.P,R2,2*%
%TO.N,OPTO_VO*%
X88810000Y-12000000D03*
%TD*%
D15*
%TO.P,J1,1*%
%TO.N,VBUS1*%
X20500000Y-65645000D03*
D16*
%TO.P,J1,2*%
%TO.N,USB_DM*%
X23000000Y-65645000D03*
%TO.P,J1,3*%
%TO.N,USB_DP*%
X25000000Y-65645000D03*
%TO.P,J1,4*%
%TO.N,GND1*%
X27500000Y-65645000D03*
D17*
%TO.P,J1,SH*%
X17430000Y-68355000D03*
X30570000Y-68355000D03*
%TD*%
D11*
%TO.P,A3,1*%
%TO.N,N/C*%
X91110000Y-5870000D03*
D10*
%TO.P,A3,2*%
X91110000Y-8410000D03*
D12*
%TO.P,A3,3*%
%TO.N,GND2*%
X91110000Y-10950000D03*
D10*
%TO.P,A3,4*%
%TO.N,N/C*%
X91110000Y-13490000D03*
%TO.P,A3,5*%
X91110000Y-16030000D03*
%TO.P,A3,6*%
X91110000Y-18570000D03*
%TO.P,A3,7*%
X91110000Y-21110000D03*
D12*
%TO.P,A3,8*%
%TO.N,GND2*%
X91110000Y-23650000D03*
D10*
%TO.P,A3,9*%
%TO.N,N/C*%
X91110000Y-26190000D03*
%TO.P,A3,10*%
X91110000Y-28730000D03*
%TO.P,A3,11*%
X91110000Y-31270000D03*
%TO.P,A3,12*%
%TO.N,OPTO_VO*%
X91110000Y-33810000D03*
D12*
%TO.P,A3,13*%
%TO.N,GND2*%
X91110000Y-36350000D03*
D10*
%TO.P,A3,14*%
%TO.N,N/C*%
X91110000Y-38890000D03*
%TO.P,A3,15*%
X91110000Y-41430000D03*
%TO.P,A3,16*%
X91110000Y-43970000D03*
%TO.P,A3,17*%
X91110000Y-46510000D03*
D12*
%TO.P,A3,18*%
%TO.N,GND2*%
X91110000Y-49050000D03*
D10*
%TO.P,A3,19*%
%TO.N,N/C*%
X91110000Y-51590000D03*
%TO.P,A3,20*%
X91110000Y-54130000D03*
%TO.P,A3,21*%
X108890000Y-54130000D03*
%TO.P,A3,22*%
X108890000Y-51590000D03*
D13*
%TO.P,A3,23*%
%TO.N,GND2*%
X108890000Y-49050000D03*
D10*
%TO.P,A3,24*%
%TO.N,N/C*%
X108890000Y-46510000D03*
%TO.P,A3,25*%
X108890000Y-43970000D03*
%TO.P,A3,26*%
X108890000Y-41430000D03*
%TO.P,A3,27*%
X108890000Y-38890000D03*
D13*
%TO.P,A3,28*%
%TO.N,GND2*%
X108890000Y-36350000D03*
D10*
%TO.P,A3,29*%
%TO.N,N/C*%
X108890000Y-33810000D03*
%TO.P,A3,30*%
X108890000Y-31270000D03*
%TO.P,A3,31*%
X108890000Y-28730000D03*
%TO.P,A3,32*%
X108890000Y-26190000D03*
D13*
%TO.P,A3,33*%
%TO.N,GND2*%
X108890000Y-23650000D03*
D10*
%TO.P,A3,34*%
%TO.N,N/C*%
X108890000Y-21110000D03*
%TO.P,A3,35*%
X108890000Y-18570000D03*
%TO.P,A3,36*%
%TO.N,FWD_3V3*%
X108890000Y-16030000D03*
%TO.P,A3,37*%
%TO.N,N/C*%
X108890000Y-13490000D03*
D13*
%TO.P,A3,38*%
%TO.N,GND2*%
X108890000Y-10950000D03*
D10*
%TO.P,A3,39*%
%TO.N,N/C*%
X108890000Y-8410000D03*
%TO.P,A3,40*%
%TO.N,VBUS2*%
X108890000Y-5870000D03*
%TD*%
D18*
%TO.N,SER_A0_B1*%
X31523300Y-51505000D03*
%TO.N,SER_A1_B0*%
X35863000Y-54045000D03*
%TO.N,SER_A3_B2*%
X35173600Y-45155000D03*
%TD*%
%TO.N,OPTO_3V3*%
D19*
X57190000Y-14330000D02*
X57190000Y-12000000D01*
X58890000Y-16030000D02*
X57190000Y-14330000D01*
%TO.N,OPTO_ANODE*%
X64810000Y-25350000D02*
X64810000Y-12000000D01*
X68190000Y-28730000D02*
X64810000Y-25350000D01*
%TO.N,VBUS2*%
X75810000Y-26190000D02*
X82500000Y-32880000D01*
X82500000Y-32880000D02*
X82500000Y-48000000D01*
%TO.N,GND2*%
X110084200Y-23650000D02*
X110084200Y-35155800D01*
X110066700Y-47873300D02*
X110066700Y-37526700D01*
X91110000Y-11401300D02*
X91110000Y-10950000D01*
X110066700Y-37526700D02*
X108890000Y-36350000D01*
X110084200Y-23650000D02*
X108890000Y-23650000D01*
X108890000Y-49050000D02*
X110066700Y-47873300D01*
X110084200Y-12144200D02*
X110084200Y-23650000D01*
X92349500Y-47810500D02*
X92349500Y-37589500D01*
X92349500Y-37589500D02*
X91110000Y-36350000D01*
X108890000Y-10950000D02*
X110084200Y-12144200D01*
X89919000Y-12592300D02*
X91110000Y-11401300D01*
X89919000Y-22459000D02*
X89919000Y-12592300D01*
X91110000Y-49050000D02*
X92349500Y-47810500D01*
X110084200Y-35155800D02*
X108890000Y-36350000D01*
X91110000Y-23650000D02*
X89919000Y-22459000D01*
%TO.N,SER_A0_B1*%
X31523300Y-51505000D02*
X31523300Y-15456700D01*
X31523300Y-15456700D02*
X41110000Y-5870000D01*
%TO.N,SER_A1_B0*%
X34440500Y-15079500D02*
X34440500Y-52622500D01*
X41110000Y-8410000D02*
X34440500Y-15079500D01*
X34440500Y-52622500D02*
X35863000Y-54045000D01*
%TO.N,GND1*%
X60084200Y-23650000D02*
X58890000Y-23650000D01*
X60084200Y-23650000D02*
X60084200Y-35155800D01*
X60084200Y-12144200D02*
X60084200Y-23650000D01*
X41110000Y-49050000D02*
X42304200Y-47855800D01*
X58890000Y-49050000D02*
X57695800Y-47855800D01*
X42304200Y-24844200D02*
X41110000Y-23650000D01*
X42286700Y-12126700D02*
X41110000Y-10950000D01*
X39745200Y-50414800D02*
X41110000Y-49050000D01*
X42304200Y-36350000D02*
X42304200Y-24844200D01*
X39745200Y-59179800D02*
X39745200Y-50414800D01*
X60084200Y-35155800D02*
X58890000Y-36350000D01*
X42304200Y-47855800D02*
X42304200Y-36350000D01*
X41110000Y-23650000D02*
X42286700Y-22473300D01*
X30570000Y-68355000D02*
X39745200Y-59179800D01*
X58890000Y-10950000D02*
X60084200Y-12144200D01*
X57695800Y-37544200D02*
X58890000Y-36350000D01*
X42304200Y-36350000D02*
X41110000Y-36350000D01*
X57695800Y-47855800D02*
X57695800Y-37544200D01*
X42286700Y-22473300D02*
X42286700Y-12126700D01*
%TO.N,SER_A3_B2*%
X35173600Y-45155000D02*
X35173600Y-21966400D01*
X35173600Y-21966400D02*
X41110000Y-16030000D01*
%TO.N,OPTO_CATH*%
X58890000Y-40570000D02*
X58890000Y-41430000D01*
X68190000Y-31270000D02*
X58890000Y-40570000D01*
%TO.N,VBUS1*%
X20500000Y-24394800D02*
X40214500Y-4680300D01*
X57700300Y-4680300D02*
X58890000Y-5870000D01*
X20500000Y-65645000D02*
X20500000Y-24394800D01*
X40214500Y-4680300D02*
X57700300Y-4680300D01*
%TO.N,OPTO_VO*%
X88810000Y-31510000D02*
X88810000Y-12000000D01*
X91110000Y-33810000D02*
X88810000Y-31510000D01*
%TD*%
M02*
