%TF.GenerationSoftware,KiCad,Pcbnew,10.0.3*%
%TF.CreationDate,2026-05-22T11:35:37+10:00*%
%TF.ProjectId,screen-hopper-tht,73637265-656e-42d6-986f-707065722d74,rev?*%
%TF.SameCoordinates,Original*%
%TF.FileFunction,Drillmap*%
%TF.FilePolarity,Positive*%
%FSLAX45Y45*%
G04 Gerber Fmt 4.5, Leading zero omitted, Abs format (unit mm)*
G04 Created by KiCad (PCBNEW 10.0.3) date 2026-05-22 11:35:37*
%MOMM*%
%LPD*%
G01*
G04 APERTURE LIST*
%ADD10C,0.150000*%
%ADD11C,0.200000*%
%ADD12C,0.100000*%
%ADD13C,0.230000*%
G04 APERTURE END LIST*
D10*
X619298Y2120000D02*
X11780702Y2120000D01*
X619298Y-8499325D02*
X619298Y2120000D01*
X11780702Y2120000D02*
X11780702Y-8499325D01*
X11780702Y-8499325D02*
X619298Y-8499325D01*
D11*
D12*
X3134830Y-5133000D02*
X3169830Y-5168000D01*
X3169830Y-5133000D02*
X3134830Y-5168000D01*
X3499860Y-4498000D02*
X3534860Y-4533000D01*
X3534860Y-4498000D02*
X3499860Y-4533000D01*
X3568800Y-5387000D02*
X3603800Y-5422000D01*
X3603800Y-5387000D02*
X3568800Y-5422000D01*
X5759000Y-1200000D02*
G75*
G02*
X5679000Y-1200000I-40000J0D01*
G01*
X5679000Y-1200000D02*
G75*
G02*
X5759000Y-1200000I40000J0D01*
G01*
X6521000Y-1200000D02*
G75*
G02*
X6441000Y-1200000I-40000J0D01*
G01*
X6441000Y-1200000D02*
G75*
G02*
X6521000Y-1200000I40000J0D01*
G01*
X6859000Y-2619000D02*
G75*
G02*
X6779000Y-2619000I-40000J0D01*
G01*
X6779000Y-2619000D02*
G75*
G02*
X6859000Y-2619000I40000J0D01*
G01*
X6859000Y-2873000D02*
G75*
G02*
X6779000Y-2873000I-40000J0D01*
G01*
X6779000Y-2873000D02*
G75*
G02*
X6859000Y-2873000I40000J0D01*
G01*
X6859000Y-3127000D02*
G75*
G02*
X6779000Y-3127000I-40000J0D01*
G01*
X6779000Y-3127000D02*
G75*
G02*
X6859000Y-3127000I40000J0D01*
G01*
X6859000Y-3381000D02*
G75*
G02*
X6779000Y-3381000I-40000J0D01*
G01*
X6779000Y-3381000D02*
G75*
G02*
X6859000Y-3381000I40000J0D01*
G01*
X7621000Y-2619000D02*
G75*
G02*
X7541000Y-2619000I-40000J0D01*
G01*
X7541000Y-2619000D02*
G75*
G02*
X7621000Y-2619000I40000J0D01*
G01*
X7621000Y-2873000D02*
G75*
G02*
X7541000Y-2873000I-40000J0D01*
G01*
X7541000Y-2873000D02*
G75*
G02*
X7621000Y-2873000I40000J0D01*
G01*
X7621000Y-3127000D02*
G75*
G02*
X7541000Y-3127000I-40000J0D01*
G01*
X7541000Y-3127000D02*
G75*
G02*
X7621000Y-3127000I40000J0D01*
G01*
X7621000Y-3381000D02*
G75*
G02*
X7541000Y-3381000I-40000J0D01*
G01*
X7541000Y-3381000D02*
G75*
G02*
X7621000Y-3381000I40000J0D01*
G01*
X8159000Y-1200000D02*
G75*
G02*
X8079000Y-1200000I-40000J0D01*
G01*
X8079000Y-1200000D02*
G75*
G02*
X8159000Y-1200000I40000J0D01*
G01*
X8290000Y-4800000D02*
G75*
G02*
X8210000Y-4800000I-40000J0D01*
G01*
X8210000Y-4800000D02*
G75*
G02*
X8290000Y-4800000I40000J0D01*
G01*
X8790000Y-4800000D02*
G75*
G02*
X8710000Y-4800000I-40000J0D01*
G01*
X8710000Y-4800000D02*
G75*
G02*
X8790000Y-4800000I40000J0D01*
G01*
X8921000Y-1200000D02*
G75*
G02*
X8841000Y-1200000I-40000J0D01*
G01*
X8841000Y-1200000D02*
G75*
G02*
X8921000Y-1200000I40000J0D01*
G01*
X2050000Y-6518500D02*
X2050000Y-6610500D01*
X2004000Y-6564500D02*
X2096000Y-6564500D01*
X2300000Y-6518500D02*
X2300000Y-6610500D01*
X2254000Y-6564500D02*
X2346000Y-6564500D01*
X2500000Y-6518500D02*
X2500000Y-6610500D01*
X2454000Y-6564500D02*
X2546000Y-6564500D01*
X2750000Y-6518500D02*
X2750000Y-6610500D01*
X2704000Y-6564500D02*
X2796000Y-6564500D01*
X4146356Y-622356D02*
X4146356Y-551644D01*
X4075644Y-551644D01*
X4075644Y-622356D01*
X4146356Y-622356D01*
X4146356Y-876356D02*
X4146356Y-805644D01*
X4075644Y-805644D01*
X4075644Y-876356D01*
X4146356Y-876356D01*
X4146356Y-1130356D02*
X4146356Y-1059644D01*
X4075644Y-1059644D01*
X4075644Y-1130356D01*
X4146356Y-1130356D01*
X4146356Y-1384356D02*
X4146356Y-1313644D01*
X4075644Y-1313644D01*
X4075644Y-1384356D01*
X4146356Y-1384356D01*
X4146356Y-1638356D02*
X4146356Y-1567644D01*
X4075644Y-1567644D01*
X4075644Y-1638356D01*
X4146356Y-1638356D01*
X4146356Y-1892356D02*
X4146356Y-1821644D01*
X4075644Y-1821644D01*
X4075644Y-1892356D01*
X4146356Y-1892356D01*
X4146356Y-2146356D02*
X4146356Y-2075644D01*
X4075644Y-2075644D01*
X4075644Y-2146356D01*
X4146356Y-2146356D01*
X4146356Y-2400356D02*
X4146356Y-2329644D01*
X4075644Y-2329644D01*
X4075644Y-2400356D01*
X4146356Y-2400356D01*
X4146356Y-2654356D02*
X4146356Y-2583644D01*
X4075644Y-2583644D01*
X4075644Y-2654356D01*
X4146356Y-2654356D01*
X4146356Y-2908356D02*
X4146356Y-2837644D01*
X4075644Y-2837644D01*
X4075644Y-2908356D01*
X4146356Y-2908356D01*
X4146356Y-3162356D02*
X4146356Y-3091644D01*
X4075644Y-3091644D01*
X4075644Y-3162356D01*
X4146356Y-3162356D01*
X4146356Y-3416356D02*
X4146356Y-3345644D01*
X4075644Y-3345644D01*
X4075644Y-3416356D01*
X4146356Y-3416356D01*
X4146356Y-3670356D02*
X4146356Y-3599644D01*
X4075644Y-3599644D01*
X4075644Y-3670356D01*
X4146356Y-3670356D01*
X4146356Y-3924356D02*
X4146356Y-3853644D01*
X4075644Y-3853644D01*
X4075644Y-3924356D01*
X4146356Y-3924356D01*
X4146356Y-4178356D02*
X4146356Y-4107644D01*
X4075644Y-4107644D01*
X4075644Y-4178356D01*
X4146356Y-4178356D01*
X4146356Y-4432356D02*
X4146356Y-4361644D01*
X4075644Y-4361644D01*
X4075644Y-4432356D01*
X4146356Y-4432356D01*
X4146356Y-4686356D02*
X4146356Y-4615644D01*
X4075644Y-4615644D01*
X4075644Y-4686356D01*
X4146356Y-4686356D01*
X4146356Y-4940356D02*
X4146356Y-4869644D01*
X4075644Y-4869644D01*
X4075644Y-4940356D01*
X4146356Y-4940356D01*
X4146356Y-5194356D02*
X4146356Y-5123644D01*
X4075644Y-5123644D01*
X4075644Y-5194356D01*
X4146356Y-5194356D01*
X4146356Y-5448356D02*
X4146356Y-5377644D01*
X4075644Y-5377644D01*
X4075644Y-5448356D01*
X4146356Y-5448356D01*
X5924356Y-622356D02*
X5924356Y-551644D01*
X5853644Y-551644D01*
X5853644Y-622356D01*
X5924356Y-622356D01*
X5924356Y-876356D02*
X5924356Y-805644D01*
X5853644Y-805644D01*
X5853644Y-876356D01*
X5924356Y-876356D01*
X5924356Y-1130356D02*
X5924356Y-1059644D01*
X5853644Y-1059644D01*
X5853644Y-1130356D01*
X5924356Y-1130356D01*
X5924356Y-1384356D02*
X5924356Y-1313644D01*
X5853644Y-1313644D01*
X5853644Y-1384356D01*
X5924356Y-1384356D01*
X5924356Y-1638356D02*
X5924356Y-1567644D01*
X5853644Y-1567644D01*
X5853644Y-1638356D01*
X5924356Y-1638356D01*
X5924356Y-1892356D02*
X5924356Y-1821644D01*
X5853644Y-1821644D01*
X5853644Y-1892356D01*
X5924356Y-1892356D01*
X5924356Y-2146356D02*
X5924356Y-2075644D01*
X5853644Y-2075644D01*
X5853644Y-2146356D01*
X5924356Y-2146356D01*
X5924356Y-2400356D02*
X5924356Y-2329644D01*
X5853644Y-2329644D01*
X5853644Y-2400356D01*
X5924356Y-2400356D01*
X5924356Y-2654356D02*
X5924356Y-2583644D01*
X5853644Y-2583644D01*
X5853644Y-2654356D01*
X5924356Y-2654356D01*
X5924356Y-2908356D02*
X5924356Y-2837644D01*
X5853644Y-2837644D01*
X5853644Y-2908356D01*
X5924356Y-2908356D01*
X5924356Y-3162356D02*
X5924356Y-3091644D01*
X5853644Y-3091644D01*
X5853644Y-3162356D01*
X5924356Y-3162356D01*
X5924356Y-3416356D02*
X5924356Y-3345644D01*
X5853644Y-3345644D01*
X5853644Y-3416356D01*
X5924356Y-3416356D01*
X5924356Y-3670356D02*
X5924356Y-3599644D01*
X5853644Y-3599644D01*
X5853644Y-3670356D01*
X5924356Y-3670356D01*
X5924356Y-3924356D02*
X5924356Y-3853644D01*
X5853644Y-3853644D01*
X5853644Y-3924356D01*
X5924356Y-3924356D01*
X5924356Y-4178356D02*
X5924356Y-4107644D01*
X5853644Y-4107644D01*
X5853644Y-4178356D01*
X5924356Y-4178356D01*
X5924356Y-4432356D02*
X5924356Y-4361644D01*
X5853644Y-4361644D01*
X5853644Y-4432356D01*
X5924356Y-4432356D01*
X5924356Y-4686356D02*
X5924356Y-4615644D01*
X5853644Y-4615644D01*
X5853644Y-4686356D01*
X5924356Y-4686356D01*
X5924356Y-4940356D02*
X5924356Y-4869644D01*
X5853644Y-4869644D01*
X5853644Y-4940356D01*
X5924356Y-4940356D01*
X5924356Y-5194356D02*
X5924356Y-5123644D01*
X5853644Y-5123644D01*
X5853644Y-5194356D01*
X5924356Y-5194356D01*
X5924356Y-5448356D02*
X5924356Y-5377644D01*
X5853644Y-5377644D01*
X5853644Y-5448356D01*
X5924356Y-5448356D01*
X9146356Y-622356D02*
X9146356Y-551644D01*
X9075644Y-551644D01*
X9075644Y-622356D01*
X9146356Y-622356D01*
X9146356Y-876356D02*
X9146356Y-805644D01*
X9075644Y-805644D01*
X9075644Y-876356D01*
X9146356Y-876356D01*
X9146356Y-1130356D02*
X9146356Y-1059644D01*
X9075644Y-1059644D01*
X9075644Y-1130356D01*
X9146356Y-1130356D01*
X9146356Y-1384356D02*
X9146356Y-1313644D01*
X9075644Y-1313644D01*
X9075644Y-1384356D01*
X9146356Y-1384356D01*
X9146356Y-1638356D02*
X9146356Y-1567644D01*
X9075644Y-1567644D01*
X9075644Y-1638356D01*
X9146356Y-1638356D01*
X9146356Y-1892356D02*
X9146356Y-1821644D01*
X9075644Y-1821644D01*
X9075644Y-1892356D01*
X9146356Y-1892356D01*
X9146356Y-2146356D02*
X9146356Y-2075644D01*
X9075644Y-2075644D01*
X9075644Y-2146356D01*
X9146356Y-2146356D01*
X9146356Y-2400356D02*
X9146356Y-2329644D01*
X9075644Y-2329644D01*
X9075644Y-2400356D01*
X9146356Y-2400356D01*
X9146356Y-2654356D02*
X9146356Y-2583644D01*
X9075644Y-2583644D01*
X9075644Y-2654356D01*
X9146356Y-2654356D01*
X9146356Y-2908356D02*
X9146356Y-2837644D01*
X9075644Y-2837644D01*
X9075644Y-2908356D01*
X9146356Y-2908356D01*
X9146356Y-3162356D02*
X9146356Y-3091644D01*
X9075644Y-3091644D01*
X9075644Y-3162356D01*
X9146356Y-3162356D01*
X9146356Y-3416356D02*
X9146356Y-3345644D01*
X9075644Y-3345644D01*
X9075644Y-3416356D01*
X9146356Y-3416356D01*
X9146356Y-3670356D02*
X9146356Y-3599644D01*
X9075644Y-3599644D01*
X9075644Y-3670356D01*
X9146356Y-3670356D01*
X9146356Y-3924356D02*
X9146356Y-3853644D01*
X9075644Y-3853644D01*
X9075644Y-3924356D01*
X9146356Y-3924356D01*
X9146356Y-4178356D02*
X9146356Y-4107644D01*
X9075644Y-4107644D01*
X9075644Y-4178356D01*
X9146356Y-4178356D01*
X9146356Y-4432356D02*
X9146356Y-4361644D01*
X9075644Y-4361644D01*
X9075644Y-4432356D01*
X9146356Y-4432356D01*
X9146356Y-4686356D02*
X9146356Y-4615644D01*
X9075644Y-4615644D01*
X9075644Y-4686356D01*
X9146356Y-4686356D01*
X9146356Y-4940356D02*
X9146356Y-4869644D01*
X9075644Y-4869644D01*
X9075644Y-4940356D01*
X9146356Y-4940356D01*
X9146356Y-5194356D02*
X9146356Y-5123644D01*
X9075644Y-5123644D01*
X9075644Y-5194356D01*
X9146356Y-5194356D01*
X9146356Y-5448356D02*
X9146356Y-5377644D01*
X9075644Y-5377644D01*
X9075644Y-5448356D01*
X9146356Y-5448356D01*
X10924356Y-622356D02*
X10924356Y-551644D01*
X10853644Y-551644D01*
X10853644Y-622356D01*
X10924356Y-622356D01*
X10924356Y-876356D02*
X10924356Y-805644D01*
X10853644Y-805644D01*
X10853644Y-876356D01*
X10924356Y-876356D01*
X10924356Y-1130356D02*
X10924356Y-1059644D01*
X10853644Y-1059644D01*
X10853644Y-1130356D01*
X10924356Y-1130356D01*
X10924356Y-1384356D02*
X10924356Y-1313644D01*
X10853644Y-1313644D01*
X10853644Y-1384356D01*
X10924356Y-1384356D01*
X10924356Y-1638356D02*
X10924356Y-1567644D01*
X10853644Y-1567644D01*
X10853644Y-1638356D01*
X10924356Y-1638356D01*
X10924356Y-1892356D02*
X10924356Y-1821644D01*
X10853644Y-1821644D01*
X10853644Y-1892356D01*
X10924356Y-1892356D01*
X10924356Y-2146356D02*
X10924356Y-2075644D01*
X10853644Y-2075644D01*
X10853644Y-2146356D01*
X10924356Y-2146356D01*
X10924356Y-2400356D02*
X10924356Y-2329644D01*
X10853644Y-2329644D01*
X10853644Y-2400356D01*
X10924356Y-2400356D01*
X10924356Y-2654356D02*
X10924356Y-2583644D01*
X10853644Y-2583644D01*
X10853644Y-2654356D01*
X10924356Y-2654356D01*
X10924356Y-2908356D02*
X10924356Y-2837644D01*
X10853644Y-2837644D01*
X10853644Y-2908356D01*
X10924356Y-2908356D01*
X10924356Y-3162356D02*
X10924356Y-3091644D01*
X10853644Y-3091644D01*
X10853644Y-3162356D01*
X10924356Y-3162356D01*
X10924356Y-3416356D02*
X10924356Y-3345644D01*
X10853644Y-3345644D01*
X10853644Y-3416356D01*
X10924356Y-3416356D01*
X10924356Y-3670356D02*
X10924356Y-3599644D01*
X10853644Y-3599644D01*
X10853644Y-3670356D01*
X10924356Y-3670356D01*
X10924356Y-3924356D02*
X10924356Y-3853644D01*
X10853644Y-3853644D01*
X10853644Y-3924356D01*
X10924356Y-3924356D01*
X10924356Y-4178356D02*
X10924356Y-4107644D01*
X10853644Y-4107644D01*
X10853644Y-4178356D01*
X10924356Y-4178356D01*
X10924356Y-4432356D02*
X10924356Y-4361644D01*
X10853644Y-4361644D01*
X10853644Y-4432356D01*
X10924356Y-4432356D01*
X10924356Y-4686356D02*
X10924356Y-4615644D01*
X10853644Y-4615644D01*
X10853644Y-4686356D01*
X10924356Y-4686356D01*
X10924356Y-4940356D02*
X10924356Y-4869644D01*
X10853644Y-4869644D01*
X10853644Y-4940356D01*
X10924356Y-4940356D01*
X10924356Y-5194356D02*
X10924356Y-5123644D01*
X10853644Y-5123644D01*
X10853644Y-5194356D01*
X10924356Y-5194356D01*
X10924356Y-5448356D02*
X10924356Y-5377644D01*
X10853644Y-5377644D01*
X10853644Y-5448356D01*
X10924356Y-5448356D01*
D13*
X1743000Y-6950500D02*
X1858000Y-6835500D01*
X1743000Y-6720500D01*
X1628000Y-6835500D01*
X1743000Y-6950500D01*
X3057000Y-6950500D02*
X3172000Y-6835500D01*
X3057000Y-6720500D01*
X2942000Y-6835500D01*
X3057000Y-6950500D01*
D11*
X872574Y-8818309D02*
X872574Y-8618309D01*
X872574Y-8618309D02*
X920193Y-8618309D01*
X920193Y-8618309D02*
X948765Y-8627833D01*
X948765Y-8627833D02*
X967812Y-8646880D01*
X967812Y-8646880D02*
X977336Y-8665928D01*
X977336Y-8665928D02*
X986860Y-8704023D01*
X986860Y-8704023D02*
X986860Y-8732595D01*
X986860Y-8732595D02*
X977336Y-8770690D01*
X977336Y-8770690D02*
X967812Y-8789737D01*
X967812Y-8789737D02*
X948765Y-8808785D01*
X948765Y-8808785D02*
X920193Y-8818309D01*
X920193Y-8818309D02*
X872574Y-8818309D01*
X1072574Y-8818309D02*
X1072574Y-8684975D01*
X1072574Y-8723071D02*
X1082098Y-8704023D01*
X1082098Y-8704023D02*
X1091622Y-8694499D01*
X1091622Y-8694499D02*
X1110670Y-8684975D01*
X1110670Y-8684975D02*
X1129717Y-8684975D01*
X1196384Y-8818309D02*
X1196384Y-8684975D01*
X1196384Y-8618309D02*
X1186860Y-8627833D01*
X1186860Y-8627833D02*
X1196384Y-8637356D01*
X1196384Y-8637356D02*
X1205908Y-8627833D01*
X1205908Y-8627833D02*
X1196384Y-8618309D01*
X1196384Y-8618309D02*
X1196384Y-8637356D01*
X1320193Y-8818309D02*
X1301146Y-8808785D01*
X1301146Y-8808785D02*
X1291622Y-8789737D01*
X1291622Y-8789737D02*
X1291622Y-8618309D01*
X1424955Y-8818309D02*
X1405908Y-8808785D01*
X1405908Y-8808785D02*
X1396384Y-8789737D01*
X1396384Y-8789737D02*
X1396384Y-8618309D01*
X1653527Y-8818309D02*
X1653527Y-8618309D01*
X1653527Y-8618309D02*
X1720193Y-8761166D01*
X1720193Y-8761166D02*
X1786860Y-8618309D01*
X1786860Y-8618309D02*
X1786860Y-8818309D01*
X1967812Y-8818309D02*
X1967812Y-8713547D01*
X1967812Y-8713547D02*
X1958289Y-8694499D01*
X1958289Y-8694499D02*
X1939241Y-8684975D01*
X1939241Y-8684975D02*
X1901146Y-8684975D01*
X1901146Y-8684975D02*
X1882098Y-8694499D01*
X1967812Y-8808785D02*
X1948765Y-8818309D01*
X1948765Y-8818309D02*
X1901146Y-8818309D01*
X1901146Y-8818309D02*
X1882098Y-8808785D01*
X1882098Y-8808785D02*
X1872574Y-8789737D01*
X1872574Y-8789737D02*
X1872574Y-8770690D01*
X1872574Y-8770690D02*
X1882098Y-8751642D01*
X1882098Y-8751642D02*
X1901146Y-8742118D01*
X1901146Y-8742118D02*
X1948765Y-8742118D01*
X1948765Y-8742118D02*
X1967812Y-8732595D01*
X2063051Y-8684975D02*
X2063051Y-8884975D01*
X2063051Y-8694499D02*
X2082098Y-8684975D01*
X2082098Y-8684975D02*
X2120194Y-8684975D01*
X2120194Y-8684975D02*
X2139241Y-8694499D01*
X2139241Y-8694499D02*
X2148765Y-8704023D01*
X2148765Y-8704023D02*
X2158289Y-8723071D01*
X2158289Y-8723071D02*
X2158289Y-8780214D01*
X2158289Y-8780214D02*
X2148765Y-8799261D01*
X2148765Y-8799261D02*
X2139241Y-8808785D01*
X2139241Y-8808785D02*
X2120194Y-8818309D01*
X2120194Y-8818309D02*
X2082098Y-8818309D01*
X2082098Y-8818309D02*
X2063051Y-8808785D01*
X2244003Y-8799261D02*
X2253527Y-8808785D01*
X2253527Y-8808785D02*
X2244003Y-8818309D01*
X2244003Y-8818309D02*
X2234479Y-8808785D01*
X2234479Y-8808785D02*
X2244003Y-8799261D01*
X2244003Y-8799261D02*
X2244003Y-8818309D01*
X2244003Y-8694499D02*
X2253527Y-8704023D01*
X2253527Y-8704023D02*
X2244003Y-8713547D01*
X2244003Y-8713547D02*
X2234479Y-8704023D01*
X2234479Y-8704023D02*
X2244003Y-8694499D01*
X2244003Y-8694499D02*
X2244003Y-8713547D01*
D12*
X576798Y-9129325D02*
X611798Y-9164325D01*
X611798Y-9129325D02*
X576798Y-9164325D01*
D11*
X910670Y-9038309D02*
X929717Y-9038309D01*
X929717Y-9038309D02*
X948765Y-9047833D01*
X948765Y-9047833D02*
X958289Y-9057356D01*
X958289Y-9057356D02*
X967812Y-9076404D01*
X967812Y-9076404D02*
X977336Y-9114499D01*
X977336Y-9114499D02*
X977336Y-9162118D01*
X977336Y-9162118D02*
X967812Y-9200214D01*
X967812Y-9200214D02*
X958289Y-9219261D01*
X958289Y-9219261D02*
X948765Y-9228785D01*
X948765Y-9228785D02*
X929717Y-9238309D01*
X929717Y-9238309D02*
X910670Y-9238309D01*
X910670Y-9238309D02*
X891622Y-9228785D01*
X891622Y-9228785D02*
X882098Y-9219261D01*
X882098Y-9219261D02*
X872574Y-9200214D01*
X872574Y-9200214D02*
X863051Y-9162118D01*
X863051Y-9162118D02*
X863051Y-9114499D01*
X863051Y-9114499D02*
X872574Y-9076404D01*
X872574Y-9076404D02*
X882098Y-9057356D01*
X882098Y-9057356D02*
X891622Y-9047833D01*
X891622Y-9047833D02*
X910670Y-9038309D01*
X1063051Y-9219261D02*
X1072574Y-9228785D01*
X1072574Y-9228785D02*
X1063051Y-9238309D01*
X1063051Y-9238309D02*
X1053527Y-9228785D01*
X1053527Y-9228785D02*
X1063051Y-9219261D01*
X1063051Y-9219261D02*
X1063051Y-9238309D01*
X1139241Y-9038309D02*
X1263051Y-9038309D01*
X1263051Y-9038309D02*
X1196384Y-9114499D01*
X1196384Y-9114499D02*
X1224955Y-9114499D01*
X1224955Y-9114499D02*
X1244003Y-9124023D01*
X1244003Y-9124023D02*
X1253527Y-9133547D01*
X1253527Y-9133547D02*
X1263051Y-9152595D01*
X1263051Y-9152595D02*
X1263051Y-9200214D01*
X1263051Y-9200214D02*
X1253527Y-9219261D01*
X1253527Y-9219261D02*
X1244003Y-9228785D01*
X1244003Y-9228785D02*
X1224955Y-9238309D01*
X1224955Y-9238309D02*
X1167813Y-9238309D01*
X1167813Y-9238309D02*
X1148765Y-9228785D01*
X1148765Y-9228785D02*
X1139241Y-9219261D01*
X1444003Y-9038309D02*
X1348765Y-9038309D01*
X1348765Y-9038309D02*
X1339241Y-9133547D01*
X1339241Y-9133547D02*
X1348765Y-9124023D01*
X1348765Y-9124023D02*
X1367813Y-9114499D01*
X1367813Y-9114499D02*
X1415432Y-9114499D01*
X1415432Y-9114499D02*
X1434479Y-9124023D01*
X1434479Y-9124023D02*
X1444003Y-9133547D01*
X1444003Y-9133547D02*
X1453527Y-9152595D01*
X1453527Y-9152595D02*
X1453527Y-9200214D01*
X1453527Y-9200214D02*
X1444003Y-9219261D01*
X1444003Y-9219261D02*
X1434479Y-9228785D01*
X1434479Y-9228785D02*
X1415432Y-9238309D01*
X1415432Y-9238309D02*
X1367813Y-9238309D01*
X1367813Y-9238309D02*
X1348765Y-9228785D01*
X1348765Y-9228785D02*
X1339241Y-9219261D01*
X1577336Y-9038309D02*
X1596384Y-9038309D01*
X1596384Y-9038309D02*
X1615432Y-9047833D01*
X1615432Y-9047833D02*
X1624955Y-9057356D01*
X1624955Y-9057356D02*
X1634479Y-9076404D01*
X1634479Y-9076404D02*
X1644003Y-9114499D01*
X1644003Y-9114499D02*
X1644003Y-9162118D01*
X1644003Y-9162118D02*
X1634479Y-9200214D01*
X1634479Y-9200214D02*
X1624955Y-9219261D01*
X1624955Y-9219261D02*
X1615432Y-9228785D01*
X1615432Y-9228785D02*
X1596384Y-9238309D01*
X1596384Y-9238309D02*
X1577336Y-9238309D01*
X1577336Y-9238309D02*
X1558289Y-9228785D01*
X1558289Y-9228785D02*
X1548765Y-9219261D01*
X1548765Y-9219261D02*
X1539241Y-9200214D01*
X1539241Y-9200214D02*
X1529717Y-9162118D01*
X1529717Y-9162118D02*
X1529717Y-9114499D01*
X1529717Y-9114499D02*
X1539241Y-9076404D01*
X1539241Y-9076404D02*
X1548765Y-9057356D01*
X1548765Y-9057356D02*
X1558289Y-9047833D01*
X1558289Y-9047833D02*
X1577336Y-9038309D01*
X1729717Y-9238309D02*
X1729717Y-9104975D01*
X1729717Y-9124023D02*
X1739241Y-9114499D01*
X1739241Y-9114499D02*
X1758289Y-9104975D01*
X1758289Y-9104975D02*
X1786860Y-9104975D01*
X1786860Y-9104975D02*
X1805908Y-9114499D01*
X1805908Y-9114499D02*
X1815432Y-9133547D01*
X1815432Y-9133547D02*
X1815432Y-9238309D01*
X1815432Y-9133547D02*
X1824955Y-9114499D01*
X1824955Y-9114499D02*
X1844003Y-9104975D01*
X1844003Y-9104975D02*
X1872574Y-9104975D01*
X1872574Y-9104975D02*
X1891622Y-9114499D01*
X1891622Y-9114499D02*
X1901146Y-9133547D01*
X1901146Y-9133547D02*
X1901146Y-9238309D01*
X1996384Y-9238309D02*
X1996384Y-9104975D01*
X1996384Y-9124023D02*
X2005908Y-9114499D01*
X2005908Y-9114499D02*
X2024955Y-9104975D01*
X2024955Y-9104975D02*
X2053527Y-9104975D01*
X2053527Y-9104975D02*
X2072574Y-9114499D01*
X2072574Y-9114499D02*
X2082098Y-9133547D01*
X2082098Y-9133547D02*
X2082098Y-9238309D01*
X2082098Y-9133547D02*
X2091622Y-9114499D01*
X2091622Y-9114499D02*
X2110670Y-9104975D01*
X2110670Y-9104975D02*
X2139241Y-9104975D01*
X2139241Y-9104975D02*
X2158289Y-9114499D01*
X2158289Y-9114499D02*
X2167813Y-9133547D01*
X2167813Y-9133547D02*
X2167813Y-9238309D01*
X2558289Y-9028785D02*
X2386860Y-9285928D01*
X2815432Y-9038309D02*
X2834479Y-9038309D01*
X2834479Y-9038309D02*
X2853527Y-9047833D01*
X2853527Y-9047833D02*
X2863051Y-9057356D01*
X2863051Y-9057356D02*
X2872575Y-9076404D01*
X2872575Y-9076404D02*
X2882098Y-9114499D01*
X2882098Y-9114499D02*
X2882098Y-9162118D01*
X2882098Y-9162118D02*
X2872575Y-9200214D01*
X2872575Y-9200214D02*
X2863051Y-9219261D01*
X2863051Y-9219261D02*
X2853527Y-9228785D01*
X2853527Y-9228785D02*
X2834479Y-9238309D01*
X2834479Y-9238309D02*
X2815432Y-9238309D01*
X2815432Y-9238309D02*
X2796384Y-9228785D01*
X2796384Y-9228785D02*
X2786860Y-9219261D01*
X2786860Y-9219261D02*
X2777337Y-9200214D01*
X2777337Y-9200214D02*
X2767813Y-9162118D01*
X2767813Y-9162118D02*
X2767813Y-9114499D01*
X2767813Y-9114499D02*
X2777337Y-9076404D01*
X2777337Y-9076404D02*
X2786860Y-9057356D01*
X2786860Y-9057356D02*
X2796384Y-9047833D01*
X2796384Y-9047833D02*
X2815432Y-9038309D01*
X2967813Y-9219261D02*
X2977336Y-9228785D01*
X2977336Y-9228785D02*
X2967813Y-9238309D01*
X2967813Y-9238309D02*
X2958289Y-9228785D01*
X2958289Y-9228785D02*
X2967813Y-9219261D01*
X2967813Y-9219261D02*
X2967813Y-9238309D01*
X3101146Y-9038309D02*
X3120194Y-9038309D01*
X3120194Y-9038309D02*
X3139241Y-9047833D01*
X3139241Y-9047833D02*
X3148765Y-9057356D01*
X3148765Y-9057356D02*
X3158289Y-9076404D01*
X3158289Y-9076404D02*
X3167813Y-9114499D01*
X3167813Y-9114499D02*
X3167813Y-9162118D01*
X3167813Y-9162118D02*
X3158289Y-9200214D01*
X3158289Y-9200214D02*
X3148765Y-9219261D01*
X3148765Y-9219261D02*
X3139241Y-9228785D01*
X3139241Y-9228785D02*
X3120194Y-9238309D01*
X3120194Y-9238309D02*
X3101146Y-9238309D01*
X3101146Y-9238309D02*
X3082098Y-9228785D01*
X3082098Y-9228785D02*
X3072575Y-9219261D01*
X3072575Y-9219261D02*
X3063051Y-9200214D01*
X3063051Y-9200214D02*
X3053527Y-9162118D01*
X3053527Y-9162118D02*
X3053527Y-9114499D01*
X3053527Y-9114499D02*
X3063051Y-9076404D01*
X3063051Y-9076404D02*
X3072575Y-9057356D01*
X3072575Y-9057356D02*
X3082098Y-9047833D01*
X3082098Y-9047833D02*
X3101146Y-9038309D01*
X3358289Y-9238309D02*
X3244003Y-9238309D01*
X3301146Y-9238309D02*
X3301146Y-9038309D01*
X3301146Y-9038309D02*
X3282098Y-9066880D01*
X3282098Y-9066880D02*
X3263051Y-9085928D01*
X3263051Y-9085928D02*
X3244003Y-9095452D01*
X3424956Y-9038309D02*
X3548765Y-9038309D01*
X3548765Y-9038309D02*
X3482098Y-9114499D01*
X3482098Y-9114499D02*
X3510670Y-9114499D01*
X3510670Y-9114499D02*
X3529717Y-9124023D01*
X3529717Y-9124023D02*
X3539241Y-9133547D01*
X3539241Y-9133547D02*
X3548765Y-9152595D01*
X3548765Y-9152595D02*
X3548765Y-9200214D01*
X3548765Y-9200214D02*
X3539241Y-9219261D01*
X3539241Y-9219261D02*
X3529717Y-9228785D01*
X3529717Y-9228785D02*
X3510670Y-9238309D01*
X3510670Y-9238309D02*
X3453527Y-9238309D01*
X3453527Y-9238309D02*
X3434479Y-9228785D01*
X3434479Y-9228785D02*
X3424956Y-9219261D01*
X3663051Y-9124023D02*
X3644003Y-9114499D01*
X3644003Y-9114499D02*
X3634479Y-9104975D01*
X3634479Y-9104975D02*
X3624956Y-9085928D01*
X3624956Y-9085928D02*
X3624956Y-9076404D01*
X3624956Y-9076404D02*
X3634479Y-9057356D01*
X3634479Y-9057356D02*
X3644003Y-9047833D01*
X3644003Y-9047833D02*
X3663051Y-9038309D01*
X3663051Y-9038309D02*
X3701146Y-9038309D01*
X3701146Y-9038309D02*
X3720194Y-9047833D01*
X3720194Y-9047833D02*
X3729717Y-9057356D01*
X3729717Y-9057356D02*
X3739241Y-9076404D01*
X3739241Y-9076404D02*
X3739241Y-9085928D01*
X3739241Y-9085928D02*
X3729717Y-9104975D01*
X3729717Y-9104975D02*
X3720194Y-9114499D01*
X3720194Y-9114499D02*
X3701146Y-9124023D01*
X3701146Y-9124023D02*
X3663051Y-9124023D01*
X3663051Y-9124023D02*
X3644003Y-9133547D01*
X3644003Y-9133547D02*
X3634479Y-9143071D01*
X3634479Y-9143071D02*
X3624956Y-9162118D01*
X3624956Y-9162118D02*
X3624956Y-9200214D01*
X3624956Y-9200214D02*
X3634479Y-9219261D01*
X3634479Y-9219261D02*
X3644003Y-9228785D01*
X3644003Y-9228785D02*
X3663051Y-9238309D01*
X3663051Y-9238309D02*
X3701146Y-9238309D01*
X3701146Y-9238309D02*
X3720194Y-9228785D01*
X3720194Y-9228785D02*
X3729717Y-9219261D01*
X3729717Y-9219261D02*
X3739241Y-9200214D01*
X3739241Y-9200214D02*
X3739241Y-9162118D01*
X3739241Y-9162118D02*
X3729717Y-9143071D01*
X3729717Y-9143071D02*
X3720194Y-9133547D01*
X3720194Y-9133547D02*
X3701146Y-9124023D01*
X3815432Y-9038309D02*
X3815432Y-9076404D01*
X3891622Y-9038309D02*
X3891622Y-9076404D01*
X4186860Y-9314499D02*
X4177337Y-9304975D01*
X4177337Y-9304975D02*
X4158289Y-9276404D01*
X4158289Y-9276404D02*
X4148765Y-9257356D01*
X4148765Y-9257356D02*
X4139241Y-9228785D01*
X4139241Y-9228785D02*
X4129718Y-9181166D01*
X4129718Y-9181166D02*
X4129718Y-9143071D01*
X4129718Y-9143071D02*
X4139241Y-9095452D01*
X4139241Y-9095452D02*
X4148765Y-9066880D01*
X4148765Y-9066880D02*
X4158289Y-9047833D01*
X4158289Y-9047833D02*
X4177337Y-9019261D01*
X4177337Y-9019261D02*
X4186860Y-9009737D01*
X4244003Y-9038309D02*
X4367813Y-9038309D01*
X4367813Y-9038309D02*
X4301146Y-9114499D01*
X4301146Y-9114499D02*
X4329718Y-9114499D01*
X4329718Y-9114499D02*
X4348765Y-9124023D01*
X4348765Y-9124023D02*
X4358289Y-9133547D01*
X4358289Y-9133547D02*
X4367813Y-9152595D01*
X4367813Y-9152595D02*
X4367813Y-9200214D01*
X4367813Y-9200214D02*
X4358289Y-9219261D01*
X4358289Y-9219261D02*
X4348765Y-9228785D01*
X4348765Y-9228785D02*
X4329718Y-9238309D01*
X4329718Y-9238309D02*
X4272575Y-9238309D01*
X4272575Y-9238309D02*
X4253527Y-9228785D01*
X4253527Y-9228785D02*
X4244003Y-9219261D01*
X4605908Y-9238309D02*
X4605908Y-9038309D01*
X4691622Y-9238309D02*
X4691622Y-9133547D01*
X4691622Y-9133547D02*
X4682099Y-9114499D01*
X4682099Y-9114499D02*
X4663051Y-9104975D01*
X4663051Y-9104975D02*
X4634480Y-9104975D01*
X4634480Y-9104975D02*
X4615432Y-9114499D01*
X4615432Y-9114499D02*
X4605908Y-9124023D01*
X4815432Y-9238309D02*
X4796384Y-9228785D01*
X4796384Y-9228785D02*
X4786861Y-9219261D01*
X4786861Y-9219261D02*
X4777337Y-9200214D01*
X4777337Y-9200214D02*
X4777337Y-9143071D01*
X4777337Y-9143071D02*
X4786861Y-9124023D01*
X4786861Y-9124023D02*
X4796384Y-9114499D01*
X4796384Y-9114499D02*
X4815432Y-9104975D01*
X4815432Y-9104975D02*
X4844003Y-9104975D01*
X4844003Y-9104975D02*
X4863051Y-9114499D01*
X4863051Y-9114499D02*
X4872575Y-9124023D01*
X4872575Y-9124023D02*
X4882099Y-9143071D01*
X4882099Y-9143071D02*
X4882099Y-9200214D01*
X4882099Y-9200214D02*
X4872575Y-9219261D01*
X4872575Y-9219261D02*
X4863051Y-9228785D01*
X4863051Y-9228785D02*
X4844003Y-9238309D01*
X4844003Y-9238309D02*
X4815432Y-9238309D01*
X4996384Y-9238309D02*
X4977337Y-9228785D01*
X4977337Y-9228785D02*
X4967813Y-9209737D01*
X4967813Y-9209737D02*
X4967813Y-9038309D01*
X5148765Y-9228785D02*
X5129718Y-9238309D01*
X5129718Y-9238309D02*
X5091622Y-9238309D01*
X5091622Y-9238309D02*
X5072575Y-9228785D01*
X5072575Y-9228785D02*
X5063051Y-9209737D01*
X5063051Y-9209737D02*
X5063051Y-9133547D01*
X5063051Y-9133547D02*
X5072575Y-9114499D01*
X5072575Y-9114499D02*
X5091622Y-9104975D01*
X5091622Y-9104975D02*
X5129718Y-9104975D01*
X5129718Y-9104975D02*
X5148765Y-9114499D01*
X5148765Y-9114499D02*
X5158289Y-9133547D01*
X5158289Y-9133547D02*
X5158289Y-9152595D01*
X5158289Y-9152595D02*
X5063051Y-9171642D01*
X5234480Y-9228785D02*
X5253527Y-9238309D01*
X5253527Y-9238309D02*
X5291622Y-9238309D01*
X5291622Y-9238309D02*
X5310670Y-9228785D01*
X5310670Y-9228785D02*
X5320194Y-9209737D01*
X5320194Y-9209737D02*
X5320194Y-9200214D01*
X5320194Y-9200214D02*
X5310670Y-9181166D01*
X5310670Y-9181166D02*
X5291622Y-9171642D01*
X5291622Y-9171642D02*
X5263051Y-9171642D01*
X5263051Y-9171642D02*
X5244003Y-9162118D01*
X5244003Y-9162118D02*
X5234480Y-9143071D01*
X5234480Y-9143071D02*
X5234480Y-9133547D01*
X5234480Y-9133547D02*
X5244003Y-9114499D01*
X5244003Y-9114499D02*
X5263051Y-9104975D01*
X5263051Y-9104975D02*
X5291622Y-9104975D01*
X5291622Y-9104975D02*
X5310670Y-9114499D01*
X5386861Y-9314499D02*
X5396384Y-9304975D01*
X5396384Y-9304975D02*
X5415432Y-9276404D01*
X5415432Y-9276404D02*
X5424956Y-9257356D01*
X5424956Y-9257356D02*
X5434480Y-9228785D01*
X5434480Y-9228785D02*
X5444003Y-9181166D01*
X5444003Y-9181166D02*
X5444003Y-9143071D01*
X5444003Y-9143071D02*
X5434480Y-9095452D01*
X5434480Y-9095452D02*
X5424956Y-9066880D01*
X5424956Y-9066880D02*
X5415432Y-9047833D01*
X5415432Y-9047833D02*
X5396384Y-9019261D01*
X5396384Y-9019261D02*
X5386861Y-9009737D01*
D12*
X611798Y-9410825D02*
G75*
G02*
X531798Y-9410825I-40000J0D01*
G01*
X531798Y-9410825D02*
G75*
G02*
X611798Y-9410825I40000J0D01*
G01*
D11*
X910670Y-9302309D02*
X929717Y-9302309D01*
X929717Y-9302309D02*
X948765Y-9311833D01*
X948765Y-9311833D02*
X958289Y-9321356D01*
X958289Y-9321356D02*
X967812Y-9340404D01*
X967812Y-9340404D02*
X977336Y-9378499D01*
X977336Y-9378499D02*
X977336Y-9426118D01*
X977336Y-9426118D02*
X967812Y-9464214D01*
X967812Y-9464214D02*
X958289Y-9483261D01*
X958289Y-9483261D02*
X948765Y-9492785D01*
X948765Y-9492785D02*
X929717Y-9502309D01*
X929717Y-9502309D02*
X910670Y-9502309D01*
X910670Y-9502309D02*
X891622Y-9492785D01*
X891622Y-9492785D02*
X882098Y-9483261D01*
X882098Y-9483261D02*
X872574Y-9464214D01*
X872574Y-9464214D02*
X863051Y-9426118D01*
X863051Y-9426118D02*
X863051Y-9378499D01*
X863051Y-9378499D02*
X872574Y-9340404D01*
X872574Y-9340404D02*
X882098Y-9321356D01*
X882098Y-9321356D02*
X891622Y-9311833D01*
X891622Y-9311833D02*
X910670Y-9302309D01*
X1063051Y-9483261D02*
X1072574Y-9492785D01*
X1072574Y-9492785D02*
X1063051Y-9502309D01*
X1063051Y-9502309D02*
X1053527Y-9492785D01*
X1053527Y-9492785D02*
X1063051Y-9483261D01*
X1063051Y-9483261D02*
X1063051Y-9502309D01*
X1186860Y-9388023D02*
X1167813Y-9378499D01*
X1167813Y-9378499D02*
X1158289Y-9368975D01*
X1158289Y-9368975D02*
X1148765Y-9349928D01*
X1148765Y-9349928D02*
X1148765Y-9340404D01*
X1148765Y-9340404D02*
X1158289Y-9321356D01*
X1158289Y-9321356D02*
X1167813Y-9311833D01*
X1167813Y-9311833D02*
X1186860Y-9302309D01*
X1186860Y-9302309D02*
X1224955Y-9302309D01*
X1224955Y-9302309D02*
X1244003Y-9311833D01*
X1244003Y-9311833D02*
X1253527Y-9321356D01*
X1253527Y-9321356D02*
X1263051Y-9340404D01*
X1263051Y-9340404D02*
X1263051Y-9349928D01*
X1263051Y-9349928D02*
X1253527Y-9368975D01*
X1253527Y-9368975D02*
X1244003Y-9378499D01*
X1244003Y-9378499D02*
X1224955Y-9388023D01*
X1224955Y-9388023D02*
X1186860Y-9388023D01*
X1186860Y-9388023D02*
X1167813Y-9397547D01*
X1167813Y-9397547D02*
X1158289Y-9407071D01*
X1158289Y-9407071D02*
X1148765Y-9426118D01*
X1148765Y-9426118D02*
X1148765Y-9464214D01*
X1148765Y-9464214D02*
X1158289Y-9483261D01*
X1158289Y-9483261D02*
X1167813Y-9492785D01*
X1167813Y-9492785D02*
X1186860Y-9502309D01*
X1186860Y-9502309D02*
X1224955Y-9502309D01*
X1224955Y-9502309D02*
X1244003Y-9492785D01*
X1244003Y-9492785D02*
X1253527Y-9483261D01*
X1253527Y-9483261D02*
X1263051Y-9464214D01*
X1263051Y-9464214D02*
X1263051Y-9426118D01*
X1263051Y-9426118D02*
X1253527Y-9407071D01*
X1253527Y-9407071D02*
X1244003Y-9397547D01*
X1244003Y-9397547D02*
X1224955Y-9388023D01*
X1386860Y-9302309D02*
X1405908Y-9302309D01*
X1405908Y-9302309D02*
X1424955Y-9311833D01*
X1424955Y-9311833D02*
X1434479Y-9321356D01*
X1434479Y-9321356D02*
X1444003Y-9340404D01*
X1444003Y-9340404D02*
X1453527Y-9378499D01*
X1453527Y-9378499D02*
X1453527Y-9426118D01*
X1453527Y-9426118D02*
X1444003Y-9464214D01*
X1444003Y-9464214D02*
X1434479Y-9483261D01*
X1434479Y-9483261D02*
X1424955Y-9492785D01*
X1424955Y-9492785D02*
X1405908Y-9502309D01*
X1405908Y-9502309D02*
X1386860Y-9502309D01*
X1386860Y-9502309D02*
X1367813Y-9492785D01*
X1367813Y-9492785D02*
X1358289Y-9483261D01*
X1358289Y-9483261D02*
X1348765Y-9464214D01*
X1348765Y-9464214D02*
X1339241Y-9426118D01*
X1339241Y-9426118D02*
X1339241Y-9378499D01*
X1339241Y-9378499D02*
X1348765Y-9340404D01*
X1348765Y-9340404D02*
X1358289Y-9321356D01*
X1358289Y-9321356D02*
X1367813Y-9311833D01*
X1367813Y-9311833D02*
X1386860Y-9302309D01*
X1577336Y-9302309D02*
X1596384Y-9302309D01*
X1596384Y-9302309D02*
X1615432Y-9311833D01*
X1615432Y-9311833D02*
X1624955Y-9321356D01*
X1624955Y-9321356D02*
X1634479Y-9340404D01*
X1634479Y-9340404D02*
X1644003Y-9378499D01*
X1644003Y-9378499D02*
X1644003Y-9426118D01*
X1644003Y-9426118D02*
X1634479Y-9464214D01*
X1634479Y-9464214D02*
X1624955Y-9483261D01*
X1624955Y-9483261D02*
X1615432Y-9492785D01*
X1615432Y-9492785D02*
X1596384Y-9502309D01*
X1596384Y-9502309D02*
X1577336Y-9502309D01*
X1577336Y-9502309D02*
X1558289Y-9492785D01*
X1558289Y-9492785D02*
X1548765Y-9483261D01*
X1548765Y-9483261D02*
X1539241Y-9464214D01*
X1539241Y-9464214D02*
X1529717Y-9426118D01*
X1529717Y-9426118D02*
X1529717Y-9378499D01*
X1529717Y-9378499D02*
X1539241Y-9340404D01*
X1539241Y-9340404D02*
X1548765Y-9321356D01*
X1548765Y-9321356D02*
X1558289Y-9311833D01*
X1558289Y-9311833D02*
X1577336Y-9302309D01*
X1729717Y-9502309D02*
X1729717Y-9368975D01*
X1729717Y-9388023D02*
X1739241Y-9378499D01*
X1739241Y-9378499D02*
X1758289Y-9368975D01*
X1758289Y-9368975D02*
X1786860Y-9368975D01*
X1786860Y-9368975D02*
X1805908Y-9378499D01*
X1805908Y-9378499D02*
X1815432Y-9397547D01*
X1815432Y-9397547D02*
X1815432Y-9502309D01*
X1815432Y-9397547D02*
X1824955Y-9378499D01*
X1824955Y-9378499D02*
X1844003Y-9368975D01*
X1844003Y-9368975D02*
X1872574Y-9368975D01*
X1872574Y-9368975D02*
X1891622Y-9378499D01*
X1891622Y-9378499D02*
X1901146Y-9397547D01*
X1901146Y-9397547D02*
X1901146Y-9502309D01*
X1996384Y-9502309D02*
X1996384Y-9368975D01*
X1996384Y-9388023D02*
X2005908Y-9378499D01*
X2005908Y-9378499D02*
X2024955Y-9368975D01*
X2024955Y-9368975D02*
X2053527Y-9368975D01*
X2053527Y-9368975D02*
X2072574Y-9378499D01*
X2072574Y-9378499D02*
X2082098Y-9397547D01*
X2082098Y-9397547D02*
X2082098Y-9502309D01*
X2082098Y-9397547D02*
X2091622Y-9378499D01*
X2091622Y-9378499D02*
X2110670Y-9368975D01*
X2110670Y-9368975D02*
X2139241Y-9368975D01*
X2139241Y-9368975D02*
X2158289Y-9378499D01*
X2158289Y-9378499D02*
X2167813Y-9397547D01*
X2167813Y-9397547D02*
X2167813Y-9502309D01*
X2558289Y-9292785D02*
X2386860Y-9549928D01*
X2815432Y-9302309D02*
X2834479Y-9302309D01*
X2834479Y-9302309D02*
X2853527Y-9311833D01*
X2853527Y-9311833D02*
X2863051Y-9321356D01*
X2863051Y-9321356D02*
X2872575Y-9340404D01*
X2872575Y-9340404D02*
X2882098Y-9378499D01*
X2882098Y-9378499D02*
X2882098Y-9426118D01*
X2882098Y-9426118D02*
X2872575Y-9464214D01*
X2872575Y-9464214D02*
X2863051Y-9483261D01*
X2863051Y-9483261D02*
X2853527Y-9492785D01*
X2853527Y-9492785D02*
X2834479Y-9502309D01*
X2834479Y-9502309D02*
X2815432Y-9502309D01*
X2815432Y-9502309D02*
X2796384Y-9492785D01*
X2796384Y-9492785D02*
X2786860Y-9483261D01*
X2786860Y-9483261D02*
X2777337Y-9464214D01*
X2777337Y-9464214D02*
X2767813Y-9426118D01*
X2767813Y-9426118D02*
X2767813Y-9378499D01*
X2767813Y-9378499D02*
X2777337Y-9340404D01*
X2777337Y-9340404D02*
X2786860Y-9321356D01*
X2786860Y-9321356D02*
X2796384Y-9311833D01*
X2796384Y-9311833D02*
X2815432Y-9302309D01*
X2967813Y-9483261D02*
X2977336Y-9492785D01*
X2977336Y-9492785D02*
X2967813Y-9502309D01*
X2967813Y-9502309D02*
X2958289Y-9492785D01*
X2958289Y-9492785D02*
X2967813Y-9483261D01*
X2967813Y-9483261D02*
X2967813Y-9502309D01*
X3101146Y-9302309D02*
X3120194Y-9302309D01*
X3120194Y-9302309D02*
X3139241Y-9311833D01*
X3139241Y-9311833D02*
X3148765Y-9321356D01*
X3148765Y-9321356D02*
X3158289Y-9340404D01*
X3158289Y-9340404D02*
X3167813Y-9378499D01*
X3167813Y-9378499D02*
X3167813Y-9426118D01*
X3167813Y-9426118D02*
X3158289Y-9464214D01*
X3158289Y-9464214D02*
X3148765Y-9483261D01*
X3148765Y-9483261D02*
X3139241Y-9492785D01*
X3139241Y-9492785D02*
X3120194Y-9502309D01*
X3120194Y-9502309D02*
X3101146Y-9502309D01*
X3101146Y-9502309D02*
X3082098Y-9492785D01*
X3082098Y-9492785D02*
X3072575Y-9483261D01*
X3072575Y-9483261D02*
X3063051Y-9464214D01*
X3063051Y-9464214D02*
X3053527Y-9426118D01*
X3053527Y-9426118D02*
X3053527Y-9378499D01*
X3053527Y-9378499D02*
X3063051Y-9340404D01*
X3063051Y-9340404D02*
X3072575Y-9321356D01*
X3072575Y-9321356D02*
X3082098Y-9311833D01*
X3082098Y-9311833D02*
X3101146Y-9302309D01*
X3234479Y-9302309D02*
X3358289Y-9302309D01*
X3358289Y-9302309D02*
X3291622Y-9378499D01*
X3291622Y-9378499D02*
X3320194Y-9378499D01*
X3320194Y-9378499D02*
X3339241Y-9388023D01*
X3339241Y-9388023D02*
X3348765Y-9397547D01*
X3348765Y-9397547D02*
X3358289Y-9416595D01*
X3358289Y-9416595D02*
X3358289Y-9464214D01*
X3358289Y-9464214D02*
X3348765Y-9483261D01*
X3348765Y-9483261D02*
X3339241Y-9492785D01*
X3339241Y-9492785D02*
X3320194Y-9502309D01*
X3320194Y-9502309D02*
X3263051Y-9502309D01*
X3263051Y-9502309D02*
X3244003Y-9492785D01*
X3244003Y-9492785D02*
X3234479Y-9483261D01*
X3548765Y-9502309D02*
X3434479Y-9502309D01*
X3491622Y-9502309D02*
X3491622Y-9302309D01*
X3491622Y-9302309D02*
X3472575Y-9330880D01*
X3472575Y-9330880D02*
X3453527Y-9349928D01*
X3453527Y-9349928D02*
X3434479Y-9359452D01*
X3729717Y-9302309D02*
X3634479Y-9302309D01*
X3634479Y-9302309D02*
X3624956Y-9397547D01*
X3624956Y-9397547D02*
X3634479Y-9388023D01*
X3634479Y-9388023D02*
X3653527Y-9378499D01*
X3653527Y-9378499D02*
X3701146Y-9378499D01*
X3701146Y-9378499D02*
X3720194Y-9388023D01*
X3720194Y-9388023D02*
X3729717Y-9397547D01*
X3729717Y-9397547D02*
X3739241Y-9416595D01*
X3739241Y-9416595D02*
X3739241Y-9464214D01*
X3739241Y-9464214D02*
X3729717Y-9483261D01*
X3729717Y-9483261D02*
X3720194Y-9492785D01*
X3720194Y-9492785D02*
X3701146Y-9502309D01*
X3701146Y-9502309D02*
X3653527Y-9502309D01*
X3653527Y-9502309D02*
X3634479Y-9492785D01*
X3634479Y-9492785D02*
X3624956Y-9483261D01*
X3815432Y-9302309D02*
X3815432Y-9340404D01*
X3891622Y-9302309D02*
X3891622Y-9340404D01*
X4186860Y-9578499D02*
X4177337Y-9568975D01*
X4177337Y-9568975D02*
X4158289Y-9540404D01*
X4158289Y-9540404D02*
X4148765Y-9521356D01*
X4148765Y-9521356D02*
X4139241Y-9492785D01*
X4139241Y-9492785D02*
X4129718Y-9445166D01*
X4129718Y-9445166D02*
X4129718Y-9407071D01*
X4129718Y-9407071D02*
X4139241Y-9359452D01*
X4139241Y-9359452D02*
X4148765Y-9330880D01*
X4148765Y-9330880D02*
X4158289Y-9311833D01*
X4158289Y-9311833D02*
X4177337Y-9283261D01*
X4177337Y-9283261D02*
X4186860Y-9273737D01*
X4367813Y-9502309D02*
X4253527Y-9502309D01*
X4310670Y-9502309D02*
X4310670Y-9302309D01*
X4310670Y-9302309D02*
X4291622Y-9330880D01*
X4291622Y-9330880D02*
X4272575Y-9349928D01*
X4272575Y-9349928D02*
X4253527Y-9359452D01*
X4539241Y-9368975D02*
X4539241Y-9502309D01*
X4491622Y-9292785D02*
X4444003Y-9435642D01*
X4444003Y-9435642D02*
X4567813Y-9435642D01*
X4796384Y-9502309D02*
X4796384Y-9302309D01*
X4882099Y-9502309D02*
X4882099Y-9397547D01*
X4882099Y-9397547D02*
X4872575Y-9378499D01*
X4872575Y-9378499D02*
X4853527Y-9368975D01*
X4853527Y-9368975D02*
X4824956Y-9368975D01*
X4824956Y-9368975D02*
X4805908Y-9378499D01*
X4805908Y-9378499D02*
X4796384Y-9388023D01*
X5005908Y-9502309D02*
X4986861Y-9492785D01*
X4986861Y-9492785D02*
X4977337Y-9483261D01*
X4977337Y-9483261D02*
X4967813Y-9464214D01*
X4967813Y-9464214D02*
X4967813Y-9407071D01*
X4967813Y-9407071D02*
X4977337Y-9388023D01*
X4977337Y-9388023D02*
X4986861Y-9378499D01*
X4986861Y-9378499D02*
X5005908Y-9368975D01*
X5005908Y-9368975D02*
X5034480Y-9368975D01*
X5034480Y-9368975D02*
X5053527Y-9378499D01*
X5053527Y-9378499D02*
X5063051Y-9388023D01*
X5063051Y-9388023D02*
X5072575Y-9407071D01*
X5072575Y-9407071D02*
X5072575Y-9464214D01*
X5072575Y-9464214D02*
X5063051Y-9483261D01*
X5063051Y-9483261D02*
X5053527Y-9492785D01*
X5053527Y-9492785D02*
X5034480Y-9502309D01*
X5034480Y-9502309D02*
X5005908Y-9502309D01*
X5186861Y-9502309D02*
X5167813Y-9492785D01*
X5167813Y-9492785D02*
X5158289Y-9473737D01*
X5158289Y-9473737D02*
X5158289Y-9302309D01*
X5339242Y-9492785D02*
X5320194Y-9502309D01*
X5320194Y-9502309D02*
X5282099Y-9502309D01*
X5282099Y-9502309D02*
X5263051Y-9492785D01*
X5263051Y-9492785D02*
X5253527Y-9473737D01*
X5253527Y-9473737D02*
X5253527Y-9397547D01*
X5253527Y-9397547D02*
X5263051Y-9378499D01*
X5263051Y-9378499D02*
X5282099Y-9368975D01*
X5282099Y-9368975D02*
X5320194Y-9368975D01*
X5320194Y-9368975D02*
X5339242Y-9378499D01*
X5339242Y-9378499D02*
X5348765Y-9397547D01*
X5348765Y-9397547D02*
X5348765Y-9416595D01*
X5348765Y-9416595D02*
X5253527Y-9435642D01*
X5424956Y-9492785D02*
X5444003Y-9502309D01*
X5444003Y-9502309D02*
X5482099Y-9502309D01*
X5482099Y-9502309D02*
X5501146Y-9492785D01*
X5501146Y-9492785D02*
X5510670Y-9473737D01*
X5510670Y-9473737D02*
X5510670Y-9464214D01*
X5510670Y-9464214D02*
X5501146Y-9445166D01*
X5501146Y-9445166D02*
X5482099Y-9435642D01*
X5482099Y-9435642D02*
X5453527Y-9435642D01*
X5453527Y-9435642D02*
X5434480Y-9426118D01*
X5434480Y-9426118D02*
X5424956Y-9407071D01*
X5424956Y-9407071D02*
X5424956Y-9397547D01*
X5424956Y-9397547D02*
X5434480Y-9378499D01*
X5434480Y-9378499D02*
X5453527Y-9368975D01*
X5453527Y-9368975D02*
X5482099Y-9368975D01*
X5482099Y-9368975D02*
X5501146Y-9378499D01*
X5577337Y-9578499D02*
X5586861Y-9568975D01*
X5586861Y-9568975D02*
X5605908Y-9540404D01*
X5605908Y-9540404D02*
X5615432Y-9521356D01*
X5615432Y-9521356D02*
X5624956Y-9492785D01*
X5624956Y-9492785D02*
X5634480Y-9445166D01*
X5634480Y-9445166D02*
X5634480Y-9407071D01*
X5634480Y-9407071D02*
X5624956Y-9359452D01*
X5624956Y-9359452D02*
X5615432Y-9330880D01*
X5615432Y-9330880D02*
X5605908Y-9311833D01*
X5605908Y-9311833D02*
X5586861Y-9283261D01*
X5586861Y-9283261D02*
X5577337Y-9273737D01*
D12*
X565798Y-9628825D02*
X565798Y-9720825D01*
X519798Y-9674825D02*
X611798Y-9674825D01*
D11*
X910670Y-9566309D02*
X929717Y-9566309D01*
X929717Y-9566309D02*
X948765Y-9575833D01*
X948765Y-9575833D02*
X958289Y-9585356D01*
X958289Y-9585356D02*
X967812Y-9604404D01*
X967812Y-9604404D02*
X977336Y-9642499D01*
X977336Y-9642499D02*
X977336Y-9690118D01*
X977336Y-9690118D02*
X967812Y-9728214D01*
X967812Y-9728214D02*
X958289Y-9747261D01*
X958289Y-9747261D02*
X948765Y-9756785D01*
X948765Y-9756785D02*
X929717Y-9766309D01*
X929717Y-9766309D02*
X910670Y-9766309D01*
X910670Y-9766309D02*
X891622Y-9756785D01*
X891622Y-9756785D02*
X882098Y-9747261D01*
X882098Y-9747261D02*
X872574Y-9728214D01*
X872574Y-9728214D02*
X863051Y-9690118D01*
X863051Y-9690118D02*
X863051Y-9642499D01*
X863051Y-9642499D02*
X872574Y-9604404D01*
X872574Y-9604404D02*
X882098Y-9585356D01*
X882098Y-9585356D02*
X891622Y-9575833D01*
X891622Y-9575833D02*
X910670Y-9566309D01*
X1063051Y-9747261D02*
X1072574Y-9756785D01*
X1072574Y-9756785D02*
X1063051Y-9766309D01*
X1063051Y-9766309D02*
X1053527Y-9756785D01*
X1053527Y-9756785D02*
X1063051Y-9747261D01*
X1063051Y-9747261D02*
X1063051Y-9766309D01*
X1167813Y-9766309D02*
X1205908Y-9766309D01*
X1205908Y-9766309D02*
X1224955Y-9756785D01*
X1224955Y-9756785D02*
X1234479Y-9747261D01*
X1234479Y-9747261D02*
X1253527Y-9718690D01*
X1253527Y-9718690D02*
X1263051Y-9680595D01*
X1263051Y-9680595D02*
X1263051Y-9604404D01*
X1263051Y-9604404D02*
X1253527Y-9585356D01*
X1253527Y-9585356D02*
X1244003Y-9575833D01*
X1244003Y-9575833D02*
X1224955Y-9566309D01*
X1224955Y-9566309D02*
X1186860Y-9566309D01*
X1186860Y-9566309D02*
X1167813Y-9575833D01*
X1167813Y-9575833D02*
X1158289Y-9585356D01*
X1158289Y-9585356D02*
X1148765Y-9604404D01*
X1148765Y-9604404D02*
X1148765Y-9652023D01*
X1148765Y-9652023D02*
X1158289Y-9671071D01*
X1158289Y-9671071D02*
X1167813Y-9680595D01*
X1167813Y-9680595D02*
X1186860Y-9690118D01*
X1186860Y-9690118D02*
X1224955Y-9690118D01*
X1224955Y-9690118D02*
X1244003Y-9680595D01*
X1244003Y-9680595D02*
X1253527Y-9671071D01*
X1253527Y-9671071D02*
X1263051Y-9652023D01*
X1339241Y-9585356D02*
X1348765Y-9575833D01*
X1348765Y-9575833D02*
X1367813Y-9566309D01*
X1367813Y-9566309D02*
X1415432Y-9566309D01*
X1415432Y-9566309D02*
X1434479Y-9575833D01*
X1434479Y-9575833D02*
X1444003Y-9585356D01*
X1444003Y-9585356D02*
X1453527Y-9604404D01*
X1453527Y-9604404D02*
X1453527Y-9623452D01*
X1453527Y-9623452D02*
X1444003Y-9652023D01*
X1444003Y-9652023D02*
X1329717Y-9766309D01*
X1329717Y-9766309D02*
X1453527Y-9766309D01*
X1577336Y-9566309D02*
X1596384Y-9566309D01*
X1596384Y-9566309D02*
X1615432Y-9575833D01*
X1615432Y-9575833D02*
X1624955Y-9585356D01*
X1624955Y-9585356D02*
X1634479Y-9604404D01*
X1634479Y-9604404D02*
X1644003Y-9642499D01*
X1644003Y-9642499D02*
X1644003Y-9690118D01*
X1644003Y-9690118D02*
X1634479Y-9728214D01*
X1634479Y-9728214D02*
X1624955Y-9747261D01*
X1624955Y-9747261D02*
X1615432Y-9756785D01*
X1615432Y-9756785D02*
X1596384Y-9766309D01*
X1596384Y-9766309D02*
X1577336Y-9766309D01*
X1577336Y-9766309D02*
X1558289Y-9756785D01*
X1558289Y-9756785D02*
X1548765Y-9747261D01*
X1548765Y-9747261D02*
X1539241Y-9728214D01*
X1539241Y-9728214D02*
X1529717Y-9690118D01*
X1529717Y-9690118D02*
X1529717Y-9642499D01*
X1529717Y-9642499D02*
X1539241Y-9604404D01*
X1539241Y-9604404D02*
X1548765Y-9585356D01*
X1548765Y-9585356D02*
X1558289Y-9575833D01*
X1558289Y-9575833D02*
X1577336Y-9566309D01*
X1729717Y-9766309D02*
X1729717Y-9632975D01*
X1729717Y-9652023D02*
X1739241Y-9642499D01*
X1739241Y-9642499D02*
X1758289Y-9632975D01*
X1758289Y-9632975D02*
X1786860Y-9632975D01*
X1786860Y-9632975D02*
X1805908Y-9642499D01*
X1805908Y-9642499D02*
X1815432Y-9661547D01*
X1815432Y-9661547D02*
X1815432Y-9766309D01*
X1815432Y-9661547D02*
X1824955Y-9642499D01*
X1824955Y-9642499D02*
X1844003Y-9632975D01*
X1844003Y-9632975D02*
X1872574Y-9632975D01*
X1872574Y-9632975D02*
X1891622Y-9642499D01*
X1891622Y-9642499D02*
X1901146Y-9661547D01*
X1901146Y-9661547D02*
X1901146Y-9766309D01*
X1996384Y-9766309D02*
X1996384Y-9632975D01*
X1996384Y-9652023D02*
X2005908Y-9642499D01*
X2005908Y-9642499D02*
X2024955Y-9632975D01*
X2024955Y-9632975D02*
X2053527Y-9632975D01*
X2053527Y-9632975D02*
X2072574Y-9642499D01*
X2072574Y-9642499D02*
X2082098Y-9661547D01*
X2082098Y-9661547D02*
X2082098Y-9766309D01*
X2082098Y-9661547D02*
X2091622Y-9642499D01*
X2091622Y-9642499D02*
X2110670Y-9632975D01*
X2110670Y-9632975D02*
X2139241Y-9632975D01*
X2139241Y-9632975D02*
X2158289Y-9642499D01*
X2158289Y-9642499D02*
X2167813Y-9661547D01*
X2167813Y-9661547D02*
X2167813Y-9766309D01*
X2558289Y-9556785D02*
X2386860Y-9813928D01*
X2815432Y-9566309D02*
X2834479Y-9566309D01*
X2834479Y-9566309D02*
X2853527Y-9575833D01*
X2853527Y-9575833D02*
X2863051Y-9585356D01*
X2863051Y-9585356D02*
X2872575Y-9604404D01*
X2872575Y-9604404D02*
X2882098Y-9642499D01*
X2882098Y-9642499D02*
X2882098Y-9690118D01*
X2882098Y-9690118D02*
X2872575Y-9728214D01*
X2872575Y-9728214D02*
X2863051Y-9747261D01*
X2863051Y-9747261D02*
X2853527Y-9756785D01*
X2853527Y-9756785D02*
X2834479Y-9766309D01*
X2834479Y-9766309D02*
X2815432Y-9766309D01*
X2815432Y-9766309D02*
X2796384Y-9756785D01*
X2796384Y-9756785D02*
X2786860Y-9747261D01*
X2786860Y-9747261D02*
X2777337Y-9728214D01*
X2777337Y-9728214D02*
X2767813Y-9690118D01*
X2767813Y-9690118D02*
X2767813Y-9642499D01*
X2767813Y-9642499D02*
X2777337Y-9604404D01*
X2777337Y-9604404D02*
X2786860Y-9585356D01*
X2786860Y-9585356D02*
X2796384Y-9575833D01*
X2796384Y-9575833D02*
X2815432Y-9566309D01*
X2967813Y-9747261D02*
X2977336Y-9756785D01*
X2977336Y-9756785D02*
X2967813Y-9766309D01*
X2967813Y-9766309D02*
X2958289Y-9756785D01*
X2958289Y-9756785D02*
X2967813Y-9747261D01*
X2967813Y-9747261D02*
X2967813Y-9766309D01*
X3101146Y-9566309D02*
X3120194Y-9566309D01*
X3120194Y-9566309D02*
X3139241Y-9575833D01*
X3139241Y-9575833D02*
X3148765Y-9585356D01*
X3148765Y-9585356D02*
X3158289Y-9604404D01*
X3158289Y-9604404D02*
X3167813Y-9642499D01*
X3167813Y-9642499D02*
X3167813Y-9690118D01*
X3167813Y-9690118D02*
X3158289Y-9728214D01*
X3158289Y-9728214D02*
X3148765Y-9747261D01*
X3148765Y-9747261D02*
X3139241Y-9756785D01*
X3139241Y-9756785D02*
X3120194Y-9766309D01*
X3120194Y-9766309D02*
X3101146Y-9766309D01*
X3101146Y-9766309D02*
X3082098Y-9756785D01*
X3082098Y-9756785D02*
X3072575Y-9747261D01*
X3072575Y-9747261D02*
X3063051Y-9728214D01*
X3063051Y-9728214D02*
X3053527Y-9690118D01*
X3053527Y-9690118D02*
X3053527Y-9642499D01*
X3053527Y-9642499D02*
X3063051Y-9604404D01*
X3063051Y-9604404D02*
X3072575Y-9585356D01*
X3072575Y-9585356D02*
X3082098Y-9575833D01*
X3082098Y-9575833D02*
X3101146Y-9566309D01*
X3234479Y-9566309D02*
X3358289Y-9566309D01*
X3358289Y-9566309D02*
X3291622Y-9642499D01*
X3291622Y-9642499D02*
X3320194Y-9642499D01*
X3320194Y-9642499D02*
X3339241Y-9652023D01*
X3339241Y-9652023D02*
X3348765Y-9661547D01*
X3348765Y-9661547D02*
X3358289Y-9680595D01*
X3358289Y-9680595D02*
X3358289Y-9728214D01*
X3358289Y-9728214D02*
X3348765Y-9747261D01*
X3348765Y-9747261D02*
X3339241Y-9756785D01*
X3339241Y-9756785D02*
X3320194Y-9766309D01*
X3320194Y-9766309D02*
X3263051Y-9766309D01*
X3263051Y-9766309D02*
X3244003Y-9756785D01*
X3244003Y-9756785D02*
X3234479Y-9747261D01*
X3529717Y-9566309D02*
X3491622Y-9566309D01*
X3491622Y-9566309D02*
X3472575Y-9575833D01*
X3472575Y-9575833D02*
X3463051Y-9585356D01*
X3463051Y-9585356D02*
X3444003Y-9613928D01*
X3444003Y-9613928D02*
X3434479Y-9652023D01*
X3434479Y-9652023D02*
X3434479Y-9728214D01*
X3434479Y-9728214D02*
X3444003Y-9747261D01*
X3444003Y-9747261D02*
X3453527Y-9756785D01*
X3453527Y-9756785D02*
X3472575Y-9766309D01*
X3472575Y-9766309D02*
X3510670Y-9766309D01*
X3510670Y-9766309D02*
X3529717Y-9756785D01*
X3529717Y-9756785D02*
X3539241Y-9747261D01*
X3539241Y-9747261D02*
X3548765Y-9728214D01*
X3548765Y-9728214D02*
X3548765Y-9680595D01*
X3548765Y-9680595D02*
X3539241Y-9661547D01*
X3539241Y-9661547D02*
X3529717Y-9652023D01*
X3529717Y-9652023D02*
X3510670Y-9642499D01*
X3510670Y-9642499D02*
X3472575Y-9642499D01*
X3472575Y-9642499D02*
X3453527Y-9652023D01*
X3453527Y-9652023D02*
X3444003Y-9661547D01*
X3444003Y-9661547D02*
X3434479Y-9680595D01*
X3624956Y-9585356D02*
X3634479Y-9575833D01*
X3634479Y-9575833D02*
X3653527Y-9566309D01*
X3653527Y-9566309D02*
X3701146Y-9566309D01*
X3701146Y-9566309D02*
X3720194Y-9575833D01*
X3720194Y-9575833D02*
X3729717Y-9585356D01*
X3729717Y-9585356D02*
X3739241Y-9604404D01*
X3739241Y-9604404D02*
X3739241Y-9623452D01*
X3739241Y-9623452D02*
X3729717Y-9652023D01*
X3729717Y-9652023D02*
X3615432Y-9766309D01*
X3615432Y-9766309D02*
X3739241Y-9766309D01*
X3815432Y-9566309D02*
X3815432Y-9604404D01*
X3891622Y-9566309D02*
X3891622Y-9604404D01*
X4186860Y-9842499D02*
X4177337Y-9832975D01*
X4177337Y-9832975D02*
X4158289Y-9804404D01*
X4158289Y-9804404D02*
X4148765Y-9785356D01*
X4148765Y-9785356D02*
X4139241Y-9756785D01*
X4139241Y-9756785D02*
X4129718Y-9709166D01*
X4129718Y-9709166D02*
X4129718Y-9671071D01*
X4129718Y-9671071D02*
X4139241Y-9623452D01*
X4139241Y-9623452D02*
X4148765Y-9594880D01*
X4148765Y-9594880D02*
X4158289Y-9575833D01*
X4158289Y-9575833D02*
X4177337Y-9547261D01*
X4177337Y-9547261D02*
X4186860Y-9537737D01*
X4348765Y-9632975D02*
X4348765Y-9766309D01*
X4301146Y-9556785D02*
X4253527Y-9699642D01*
X4253527Y-9699642D02*
X4377337Y-9699642D01*
X4605908Y-9766309D02*
X4605908Y-9566309D01*
X4691622Y-9766309D02*
X4691622Y-9661547D01*
X4691622Y-9661547D02*
X4682099Y-9642499D01*
X4682099Y-9642499D02*
X4663051Y-9632975D01*
X4663051Y-9632975D02*
X4634480Y-9632975D01*
X4634480Y-9632975D02*
X4615432Y-9642499D01*
X4615432Y-9642499D02*
X4605908Y-9652023D01*
X4815432Y-9766309D02*
X4796384Y-9756785D01*
X4796384Y-9756785D02*
X4786861Y-9747261D01*
X4786861Y-9747261D02*
X4777337Y-9728214D01*
X4777337Y-9728214D02*
X4777337Y-9671071D01*
X4777337Y-9671071D02*
X4786861Y-9652023D01*
X4786861Y-9652023D02*
X4796384Y-9642499D01*
X4796384Y-9642499D02*
X4815432Y-9632975D01*
X4815432Y-9632975D02*
X4844003Y-9632975D01*
X4844003Y-9632975D02*
X4863051Y-9642499D01*
X4863051Y-9642499D02*
X4872575Y-9652023D01*
X4872575Y-9652023D02*
X4882099Y-9671071D01*
X4882099Y-9671071D02*
X4882099Y-9728214D01*
X4882099Y-9728214D02*
X4872575Y-9747261D01*
X4872575Y-9747261D02*
X4863051Y-9756785D01*
X4863051Y-9756785D02*
X4844003Y-9766309D01*
X4844003Y-9766309D02*
X4815432Y-9766309D01*
X4996384Y-9766309D02*
X4977337Y-9756785D01*
X4977337Y-9756785D02*
X4967813Y-9737737D01*
X4967813Y-9737737D02*
X4967813Y-9566309D01*
X5148765Y-9756785D02*
X5129718Y-9766309D01*
X5129718Y-9766309D02*
X5091622Y-9766309D01*
X5091622Y-9766309D02*
X5072575Y-9756785D01*
X5072575Y-9756785D02*
X5063051Y-9737737D01*
X5063051Y-9737737D02*
X5063051Y-9661547D01*
X5063051Y-9661547D02*
X5072575Y-9642499D01*
X5072575Y-9642499D02*
X5091622Y-9632975D01*
X5091622Y-9632975D02*
X5129718Y-9632975D01*
X5129718Y-9632975D02*
X5148765Y-9642499D01*
X5148765Y-9642499D02*
X5158289Y-9661547D01*
X5158289Y-9661547D02*
X5158289Y-9680595D01*
X5158289Y-9680595D02*
X5063051Y-9699642D01*
X5234480Y-9756785D02*
X5253527Y-9766309D01*
X5253527Y-9766309D02*
X5291622Y-9766309D01*
X5291622Y-9766309D02*
X5310670Y-9756785D01*
X5310670Y-9756785D02*
X5320194Y-9737737D01*
X5320194Y-9737737D02*
X5320194Y-9728214D01*
X5320194Y-9728214D02*
X5310670Y-9709166D01*
X5310670Y-9709166D02*
X5291622Y-9699642D01*
X5291622Y-9699642D02*
X5263051Y-9699642D01*
X5263051Y-9699642D02*
X5244003Y-9690118D01*
X5244003Y-9690118D02*
X5234480Y-9671071D01*
X5234480Y-9671071D02*
X5234480Y-9661547D01*
X5234480Y-9661547D02*
X5244003Y-9642499D01*
X5244003Y-9642499D02*
X5263051Y-9632975D01*
X5263051Y-9632975D02*
X5291622Y-9632975D01*
X5291622Y-9632975D02*
X5310670Y-9642499D01*
X5386861Y-9842499D02*
X5396384Y-9832975D01*
X5396384Y-9832975D02*
X5415432Y-9804404D01*
X5415432Y-9804404D02*
X5424956Y-9785356D01*
X5424956Y-9785356D02*
X5434480Y-9756785D01*
X5434480Y-9756785D02*
X5444003Y-9709166D01*
X5444003Y-9709166D02*
X5444003Y-9671071D01*
X5444003Y-9671071D02*
X5434480Y-9623452D01*
X5434480Y-9623452D02*
X5424956Y-9594880D01*
X5424956Y-9594880D02*
X5415432Y-9575833D01*
X5415432Y-9575833D02*
X5396384Y-9547261D01*
X5396384Y-9547261D02*
X5386861Y-9537737D01*
D12*
X597153Y-9974181D02*
X597153Y-9903469D01*
X526442Y-9903469D01*
X526442Y-9974181D01*
X597153Y-9974181D01*
D11*
X977336Y-10030309D02*
X863051Y-10030309D01*
X920193Y-10030309D02*
X920193Y-9830309D01*
X920193Y-9830309D02*
X901146Y-9858880D01*
X901146Y-9858880D02*
X882098Y-9877928D01*
X882098Y-9877928D02*
X863051Y-9887452D01*
X1063051Y-10011261D02*
X1072574Y-10020785D01*
X1072574Y-10020785D02*
X1063051Y-10030309D01*
X1063051Y-10030309D02*
X1053527Y-10020785D01*
X1053527Y-10020785D02*
X1063051Y-10011261D01*
X1063051Y-10011261D02*
X1063051Y-10030309D01*
X1196384Y-9830309D02*
X1215432Y-9830309D01*
X1215432Y-9830309D02*
X1234479Y-9839833D01*
X1234479Y-9839833D02*
X1244003Y-9849356D01*
X1244003Y-9849356D02*
X1253527Y-9868404D01*
X1253527Y-9868404D02*
X1263051Y-9906499D01*
X1263051Y-9906499D02*
X1263051Y-9954118D01*
X1263051Y-9954118D02*
X1253527Y-9992214D01*
X1253527Y-9992214D02*
X1244003Y-10011261D01*
X1244003Y-10011261D02*
X1234479Y-10020785D01*
X1234479Y-10020785D02*
X1215432Y-10030309D01*
X1215432Y-10030309D02*
X1196384Y-10030309D01*
X1196384Y-10030309D02*
X1177336Y-10020785D01*
X1177336Y-10020785D02*
X1167813Y-10011261D01*
X1167813Y-10011261D02*
X1158289Y-9992214D01*
X1158289Y-9992214D02*
X1148765Y-9954118D01*
X1148765Y-9954118D02*
X1148765Y-9906499D01*
X1148765Y-9906499D02*
X1158289Y-9868404D01*
X1158289Y-9868404D02*
X1167813Y-9849356D01*
X1167813Y-9849356D02*
X1177336Y-9839833D01*
X1177336Y-9839833D02*
X1196384Y-9830309D01*
X1386860Y-9830309D02*
X1405908Y-9830309D01*
X1405908Y-9830309D02*
X1424955Y-9839833D01*
X1424955Y-9839833D02*
X1434479Y-9849356D01*
X1434479Y-9849356D02*
X1444003Y-9868404D01*
X1444003Y-9868404D02*
X1453527Y-9906499D01*
X1453527Y-9906499D02*
X1453527Y-9954118D01*
X1453527Y-9954118D02*
X1444003Y-9992214D01*
X1444003Y-9992214D02*
X1434479Y-10011261D01*
X1434479Y-10011261D02*
X1424955Y-10020785D01*
X1424955Y-10020785D02*
X1405908Y-10030309D01*
X1405908Y-10030309D02*
X1386860Y-10030309D01*
X1386860Y-10030309D02*
X1367813Y-10020785D01*
X1367813Y-10020785D02*
X1358289Y-10011261D01*
X1358289Y-10011261D02*
X1348765Y-9992214D01*
X1348765Y-9992214D02*
X1339241Y-9954118D01*
X1339241Y-9954118D02*
X1339241Y-9906499D01*
X1339241Y-9906499D02*
X1348765Y-9868404D01*
X1348765Y-9868404D02*
X1358289Y-9849356D01*
X1358289Y-9849356D02*
X1367813Y-9839833D01*
X1367813Y-9839833D02*
X1386860Y-9830309D01*
X1577336Y-9830309D02*
X1596384Y-9830309D01*
X1596384Y-9830309D02*
X1615432Y-9839833D01*
X1615432Y-9839833D02*
X1624955Y-9849356D01*
X1624955Y-9849356D02*
X1634479Y-9868404D01*
X1634479Y-9868404D02*
X1644003Y-9906499D01*
X1644003Y-9906499D02*
X1644003Y-9954118D01*
X1644003Y-9954118D02*
X1634479Y-9992214D01*
X1634479Y-9992214D02*
X1624955Y-10011261D01*
X1624955Y-10011261D02*
X1615432Y-10020785D01*
X1615432Y-10020785D02*
X1596384Y-10030309D01*
X1596384Y-10030309D02*
X1577336Y-10030309D01*
X1577336Y-10030309D02*
X1558289Y-10020785D01*
X1558289Y-10020785D02*
X1548765Y-10011261D01*
X1548765Y-10011261D02*
X1539241Y-9992214D01*
X1539241Y-9992214D02*
X1529717Y-9954118D01*
X1529717Y-9954118D02*
X1529717Y-9906499D01*
X1529717Y-9906499D02*
X1539241Y-9868404D01*
X1539241Y-9868404D02*
X1548765Y-9849356D01*
X1548765Y-9849356D02*
X1558289Y-9839833D01*
X1558289Y-9839833D02*
X1577336Y-9830309D01*
X1729717Y-10030309D02*
X1729717Y-9896975D01*
X1729717Y-9916023D02*
X1739241Y-9906499D01*
X1739241Y-9906499D02*
X1758289Y-9896975D01*
X1758289Y-9896975D02*
X1786860Y-9896975D01*
X1786860Y-9896975D02*
X1805908Y-9906499D01*
X1805908Y-9906499D02*
X1815432Y-9925547D01*
X1815432Y-9925547D02*
X1815432Y-10030309D01*
X1815432Y-9925547D02*
X1824955Y-9906499D01*
X1824955Y-9906499D02*
X1844003Y-9896975D01*
X1844003Y-9896975D02*
X1872574Y-9896975D01*
X1872574Y-9896975D02*
X1891622Y-9906499D01*
X1891622Y-9906499D02*
X1901146Y-9925547D01*
X1901146Y-9925547D02*
X1901146Y-10030309D01*
X1996384Y-10030309D02*
X1996384Y-9896975D01*
X1996384Y-9916023D02*
X2005908Y-9906499D01*
X2005908Y-9906499D02*
X2024955Y-9896975D01*
X2024955Y-9896975D02*
X2053527Y-9896975D01*
X2053527Y-9896975D02*
X2072574Y-9906499D01*
X2072574Y-9906499D02*
X2082098Y-9925547D01*
X2082098Y-9925547D02*
X2082098Y-10030309D01*
X2082098Y-9925547D02*
X2091622Y-9906499D01*
X2091622Y-9906499D02*
X2110670Y-9896975D01*
X2110670Y-9896975D02*
X2139241Y-9896975D01*
X2139241Y-9896975D02*
X2158289Y-9906499D01*
X2158289Y-9906499D02*
X2167813Y-9925547D01*
X2167813Y-9925547D02*
X2167813Y-10030309D01*
X2558289Y-9820785D02*
X2386860Y-10077928D01*
X2815432Y-9830309D02*
X2834479Y-9830309D01*
X2834479Y-9830309D02*
X2853527Y-9839833D01*
X2853527Y-9839833D02*
X2863051Y-9849356D01*
X2863051Y-9849356D02*
X2872575Y-9868404D01*
X2872575Y-9868404D02*
X2882098Y-9906499D01*
X2882098Y-9906499D02*
X2882098Y-9954118D01*
X2882098Y-9954118D02*
X2872575Y-9992214D01*
X2872575Y-9992214D02*
X2863051Y-10011261D01*
X2863051Y-10011261D02*
X2853527Y-10020785D01*
X2853527Y-10020785D02*
X2834479Y-10030309D01*
X2834479Y-10030309D02*
X2815432Y-10030309D01*
X2815432Y-10030309D02*
X2796384Y-10020785D01*
X2796384Y-10020785D02*
X2786860Y-10011261D01*
X2786860Y-10011261D02*
X2777337Y-9992214D01*
X2777337Y-9992214D02*
X2767813Y-9954118D01*
X2767813Y-9954118D02*
X2767813Y-9906499D01*
X2767813Y-9906499D02*
X2777337Y-9868404D01*
X2777337Y-9868404D02*
X2786860Y-9849356D01*
X2786860Y-9849356D02*
X2796384Y-9839833D01*
X2796384Y-9839833D02*
X2815432Y-9830309D01*
X2967813Y-10011261D02*
X2977336Y-10020785D01*
X2977336Y-10020785D02*
X2967813Y-10030309D01*
X2967813Y-10030309D02*
X2958289Y-10020785D01*
X2958289Y-10020785D02*
X2967813Y-10011261D01*
X2967813Y-10011261D02*
X2967813Y-10030309D01*
X3101146Y-9830309D02*
X3120194Y-9830309D01*
X3120194Y-9830309D02*
X3139241Y-9839833D01*
X3139241Y-9839833D02*
X3148765Y-9849356D01*
X3148765Y-9849356D02*
X3158289Y-9868404D01*
X3158289Y-9868404D02*
X3167813Y-9906499D01*
X3167813Y-9906499D02*
X3167813Y-9954118D01*
X3167813Y-9954118D02*
X3158289Y-9992214D01*
X3158289Y-9992214D02*
X3148765Y-10011261D01*
X3148765Y-10011261D02*
X3139241Y-10020785D01*
X3139241Y-10020785D02*
X3120194Y-10030309D01*
X3120194Y-10030309D02*
X3101146Y-10030309D01*
X3101146Y-10030309D02*
X3082098Y-10020785D01*
X3082098Y-10020785D02*
X3072575Y-10011261D01*
X3072575Y-10011261D02*
X3063051Y-9992214D01*
X3063051Y-9992214D02*
X3053527Y-9954118D01*
X3053527Y-9954118D02*
X3053527Y-9906499D01*
X3053527Y-9906499D02*
X3063051Y-9868404D01*
X3063051Y-9868404D02*
X3072575Y-9849356D01*
X3072575Y-9849356D02*
X3082098Y-9839833D01*
X3082098Y-9839833D02*
X3101146Y-9830309D01*
X3234479Y-9830309D02*
X3358289Y-9830309D01*
X3358289Y-9830309D02*
X3291622Y-9906499D01*
X3291622Y-9906499D02*
X3320194Y-9906499D01*
X3320194Y-9906499D02*
X3339241Y-9916023D01*
X3339241Y-9916023D02*
X3348765Y-9925547D01*
X3348765Y-9925547D02*
X3358289Y-9944595D01*
X3358289Y-9944595D02*
X3358289Y-9992214D01*
X3358289Y-9992214D02*
X3348765Y-10011261D01*
X3348765Y-10011261D02*
X3339241Y-10020785D01*
X3339241Y-10020785D02*
X3320194Y-10030309D01*
X3320194Y-10030309D02*
X3263051Y-10030309D01*
X3263051Y-10030309D02*
X3244003Y-10020785D01*
X3244003Y-10020785D02*
X3234479Y-10011261D01*
X3453527Y-10030309D02*
X3491622Y-10030309D01*
X3491622Y-10030309D02*
X3510670Y-10020785D01*
X3510670Y-10020785D02*
X3520194Y-10011261D01*
X3520194Y-10011261D02*
X3539241Y-9982690D01*
X3539241Y-9982690D02*
X3548765Y-9944595D01*
X3548765Y-9944595D02*
X3548765Y-9868404D01*
X3548765Y-9868404D02*
X3539241Y-9849356D01*
X3539241Y-9849356D02*
X3529717Y-9839833D01*
X3529717Y-9839833D02*
X3510670Y-9830309D01*
X3510670Y-9830309D02*
X3472575Y-9830309D01*
X3472575Y-9830309D02*
X3453527Y-9839833D01*
X3453527Y-9839833D02*
X3444003Y-9849356D01*
X3444003Y-9849356D02*
X3434479Y-9868404D01*
X3434479Y-9868404D02*
X3434479Y-9916023D01*
X3434479Y-9916023D02*
X3444003Y-9935071D01*
X3444003Y-9935071D02*
X3453527Y-9944595D01*
X3453527Y-9944595D02*
X3472575Y-9954118D01*
X3472575Y-9954118D02*
X3510670Y-9954118D01*
X3510670Y-9954118D02*
X3529717Y-9944595D01*
X3529717Y-9944595D02*
X3539241Y-9935071D01*
X3539241Y-9935071D02*
X3548765Y-9916023D01*
X3720194Y-9896975D02*
X3720194Y-10030309D01*
X3672575Y-9820785D02*
X3624956Y-9963642D01*
X3624956Y-9963642D02*
X3748765Y-9963642D01*
X3815432Y-9830309D02*
X3815432Y-9868404D01*
X3891622Y-9830309D02*
X3891622Y-9868404D01*
X4186860Y-10106499D02*
X4177337Y-10096975D01*
X4177337Y-10096975D02*
X4158289Y-10068404D01*
X4158289Y-10068404D02*
X4148765Y-10049356D01*
X4148765Y-10049356D02*
X4139241Y-10020785D01*
X4139241Y-10020785D02*
X4129718Y-9973166D01*
X4129718Y-9973166D02*
X4129718Y-9935071D01*
X4129718Y-9935071D02*
X4139241Y-9887452D01*
X4139241Y-9887452D02*
X4148765Y-9858880D01*
X4148765Y-9858880D02*
X4158289Y-9839833D01*
X4158289Y-9839833D02*
X4177337Y-9811261D01*
X4177337Y-9811261D02*
X4186860Y-9801737D01*
X4291622Y-9916023D02*
X4272575Y-9906499D01*
X4272575Y-9906499D02*
X4263051Y-9896975D01*
X4263051Y-9896975D02*
X4253527Y-9877928D01*
X4253527Y-9877928D02*
X4253527Y-9868404D01*
X4253527Y-9868404D02*
X4263051Y-9849356D01*
X4263051Y-9849356D02*
X4272575Y-9839833D01*
X4272575Y-9839833D02*
X4291622Y-9830309D01*
X4291622Y-9830309D02*
X4329718Y-9830309D01*
X4329718Y-9830309D02*
X4348765Y-9839833D01*
X4348765Y-9839833D02*
X4358289Y-9849356D01*
X4358289Y-9849356D02*
X4367813Y-9868404D01*
X4367813Y-9868404D02*
X4367813Y-9877928D01*
X4367813Y-9877928D02*
X4358289Y-9896975D01*
X4358289Y-9896975D02*
X4348765Y-9906499D01*
X4348765Y-9906499D02*
X4329718Y-9916023D01*
X4329718Y-9916023D02*
X4291622Y-9916023D01*
X4291622Y-9916023D02*
X4272575Y-9925547D01*
X4272575Y-9925547D02*
X4263051Y-9935071D01*
X4263051Y-9935071D02*
X4253527Y-9954118D01*
X4253527Y-9954118D02*
X4253527Y-9992214D01*
X4253527Y-9992214D02*
X4263051Y-10011261D01*
X4263051Y-10011261D02*
X4272575Y-10020785D01*
X4272575Y-10020785D02*
X4291622Y-10030309D01*
X4291622Y-10030309D02*
X4329718Y-10030309D01*
X4329718Y-10030309D02*
X4348765Y-10020785D01*
X4348765Y-10020785D02*
X4358289Y-10011261D01*
X4358289Y-10011261D02*
X4367813Y-9992214D01*
X4367813Y-9992214D02*
X4367813Y-9954118D01*
X4367813Y-9954118D02*
X4358289Y-9935071D01*
X4358289Y-9935071D02*
X4348765Y-9925547D01*
X4348765Y-9925547D02*
X4329718Y-9916023D01*
X4491622Y-9830309D02*
X4510670Y-9830309D01*
X4510670Y-9830309D02*
X4529718Y-9839833D01*
X4529718Y-9839833D02*
X4539241Y-9849356D01*
X4539241Y-9849356D02*
X4548765Y-9868404D01*
X4548765Y-9868404D02*
X4558289Y-9906499D01*
X4558289Y-9906499D02*
X4558289Y-9954118D01*
X4558289Y-9954118D02*
X4548765Y-9992214D01*
X4548765Y-9992214D02*
X4539241Y-10011261D01*
X4539241Y-10011261D02*
X4529718Y-10020785D01*
X4529718Y-10020785D02*
X4510670Y-10030309D01*
X4510670Y-10030309D02*
X4491622Y-10030309D01*
X4491622Y-10030309D02*
X4472575Y-10020785D01*
X4472575Y-10020785D02*
X4463051Y-10011261D01*
X4463051Y-10011261D02*
X4453527Y-9992214D01*
X4453527Y-9992214D02*
X4444003Y-9954118D01*
X4444003Y-9954118D02*
X4444003Y-9906499D01*
X4444003Y-9906499D02*
X4453527Y-9868404D01*
X4453527Y-9868404D02*
X4463051Y-9849356D01*
X4463051Y-9849356D02*
X4472575Y-9839833D01*
X4472575Y-9839833D02*
X4491622Y-9830309D01*
X4796384Y-10030309D02*
X4796384Y-9830309D01*
X4882099Y-10030309D02*
X4882099Y-9925547D01*
X4882099Y-9925547D02*
X4872575Y-9906499D01*
X4872575Y-9906499D02*
X4853527Y-9896975D01*
X4853527Y-9896975D02*
X4824956Y-9896975D01*
X4824956Y-9896975D02*
X4805908Y-9906499D01*
X4805908Y-9906499D02*
X4796384Y-9916023D01*
X5005908Y-10030309D02*
X4986861Y-10020785D01*
X4986861Y-10020785D02*
X4977337Y-10011261D01*
X4977337Y-10011261D02*
X4967813Y-9992214D01*
X4967813Y-9992214D02*
X4967813Y-9935071D01*
X4967813Y-9935071D02*
X4977337Y-9916023D01*
X4977337Y-9916023D02*
X4986861Y-9906499D01*
X4986861Y-9906499D02*
X5005908Y-9896975D01*
X5005908Y-9896975D02*
X5034480Y-9896975D01*
X5034480Y-9896975D02*
X5053527Y-9906499D01*
X5053527Y-9906499D02*
X5063051Y-9916023D01*
X5063051Y-9916023D02*
X5072575Y-9935071D01*
X5072575Y-9935071D02*
X5072575Y-9992214D01*
X5072575Y-9992214D02*
X5063051Y-10011261D01*
X5063051Y-10011261D02*
X5053527Y-10020785D01*
X5053527Y-10020785D02*
X5034480Y-10030309D01*
X5034480Y-10030309D02*
X5005908Y-10030309D01*
X5186861Y-10030309D02*
X5167813Y-10020785D01*
X5167813Y-10020785D02*
X5158289Y-10001737D01*
X5158289Y-10001737D02*
X5158289Y-9830309D01*
X5339242Y-10020785D02*
X5320194Y-10030309D01*
X5320194Y-10030309D02*
X5282099Y-10030309D01*
X5282099Y-10030309D02*
X5263051Y-10020785D01*
X5263051Y-10020785D02*
X5253527Y-10001737D01*
X5253527Y-10001737D02*
X5253527Y-9925547D01*
X5253527Y-9925547D02*
X5263051Y-9906499D01*
X5263051Y-9906499D02*
X5282099Y-9896975D01*
X5282099Y-9896975D02*
X5320194Y-9896975D01*
X5320194Y-9896975D02*
X5339242Y-9906499D01*
X5339242Y-9906499D02*
X5348765Y-9925547D01*
X5348765Y-9925547D02*
X5348765Y-9944595D01*
X5348765Y-9944595D02*
X5253527Y-9963642D01*
X5424956Y-10020785D02*
X5444003Y-10030309D01*
X5444003Y-10030309D02*
X5482099Y-10030309D01*
X5482099Y-10030309D02*
X5501146Y-10020785D01*
X5501146Y-10020785D02*
X5510670Y-10001737D01*
X5510670Y-10001737D02*
X5510670Y-9992214D01*
X5510670Y-9992214D02*
X5501146Y-9973166D01*
X5501146Y-9973166D02*
X5482099Y-9963642D01*
X5482099Y-9963642D02*
X5453527Y-9963642D01*
X5453527Y-9963642D02*
X5434480Y-9954118D01*
X5434480Y-9954118D02*
X5424956Y-9935071D01*
X5424956Y-9935071D02*
X5424956Y-9925547D01*
X5424956Y-9925547D02*
X5434480Y-9906499D01*
X5434480Y-9906499D02*
X5453527Y-9896975D01*
X5453527Y-9896975D02*
X5482099Y-9896975D01*
X5482099Y-9896975D02*
X5501146Y-9906499D01*
X5577337Y-10106499D02*
X5586861Y-10096975D01*
X5586861Y-10096975D02*
X5605908Y-10068404D01*
X5605908Y-10068404D02*
X5615432Y-10049356D01*
X5615432Y-10049356D02*
X5624956Y-10020785D01*
X5624956Y-10020785D02*
X5634480Y-9973166D01*
X5634480Y-9973166D02*
X5634480Y-9935071D01*
X5634480Y-9935071D02*
X5624956Y-9887452D01*
X5624956Y-9887452D02*
X5615432Y-9858880D01*
X5615432Y-9858880D02*
X5605908Y-9839833D01*
X5605908Y-9839833D02*
X5586861Y-9811261D01*
X5586861Y-9811261D02*
X5577337Y-9801737D01*
X511798Y-10302825D02*
X611798Y-10202825D01*
X511798Y-10102825D01*
X411798Y-10202825D01*
X511798Y-10302825D01*
X863051Y-10113356D02*
X872574Y-10103833D01*
X872574Y-10103833D02*
X891622Y-10094309D01*
X891622Y-10094309D02*
X939241Y-10094309D01*
X939241Y-10094309D02*
X958289Y-10103833D01*
X958289Y-10103833D02*
X967812Y-10113356D01*
X967812Y-10113356D02*
X977336Y-10132404D01*
X977336Y-10132404D02*
X977336Y-10151452D01*
X977336Y-10151452D02*
X967812Y-10180023D01*
X967812Y-10180023D02*
X853527Y-10294309D01*
X853527Y-10294309D02*
X977336Y-10294309D01*
X1063051Y-10275261D02*
X1072574Y-10284785D01*
X1072574Y-10284785D02*
X1063051Y-10294309D01*
X1063051Y-10294309D02*
X1053527Y-10284785D01*
X1053527Y-10284785D02*
X1063051Y-10275261D01*
X1063051Y-10275261D02*
X1063051Y-10294309D01*
X1139241Y-10094309D02*
X1263051Y-10094309D01*
X1263051Y-10094309D02*
X1196384Y-10170499D01*
X1196384Y-10170499D02*
X1224955Y-10170499D01*
X1224955Y-10170499D02*
X1244003Y-10180023D01*
X1244003Y-10180023D02*
X1253527Y-10189547D01*
X1253527Y-10189547D02*
X1263051Y-10208595D01*
X1263051Y-10208595D02*
X1263051Y-10256214D01*
X1263051Y-10256214D02*
X1253527Y-10275261D01*
X1253527Y-10275261D02*
X1244003Y-10284785D01*
X1244003Y-10284785D02*
X1224955Y-10294309D01*
X1224955Y-10294309D02*
X1167813Y-10294309D01*
X1167813Y-10294309D02*
X1148765Y-10284785D01*
X1148765Y-10284785D02*
X1139241Y-10275261D01*
X1386860Y-10094309D02*
X1405908Y-10094309D01*
X1405908Y-10094309D02*
X1424955Y-10103833D01*
X1424955Y-10103833D02*
X1434479Y-10113356D01*
X1434479Y-10113356D02*
X1444003Y-10132404D01*
X1444003Y-10132404D02*
X1453527Y-10170499D01*
X1453527Y-10170499D02*
X1453527Y-10218118D01*
X1453527Y-10218118D02*
X1444003Y-10256214D01*
X1444003Y-10256214D02*
X1434479Y-10275261D01*
X1434479Y-10275261D02*
X1424955Y-10284785D01*
X1424955Y-10284785D02*
X1405908Y-10294309D01*
X1405908Y-10294309D02*
X1386860Y-10294309D01*
X1386860Y-10294309D02*
X1367813Y-10284785D01*
X1367813Y-10284785D02*
X1358289Y-10275261D01*
X1358289Y-10275261D02*
X1348765Y-10256214D01*
X1348765Y-10256214D02*
X1339241Y-10218118D01*
X1339241Y-10218118D02*
X1339241Y-10170499D01*
X1339241Y-10170499D02*
X1348765Y-10132404D01*
X1348765Y-10132404D02*
X1358289Y-10113356D01*
X1358289Y-10113356D02*
X1367813Y-10103833D01*
X1367813Y-10103833D02*
X1386860Y-10094309D01*
X1577336Y-10094309D02*
X1596384Y-10094309D01*
X1596384Y-10094309D02*
X1615432Y-10103833D01*
X1615432Y-10103833D02*
X1624955Y-10113356D01*
X1624955Y-10113356D02*
X1634479Y-10132404D01*
X1634479Y-10132404D02*
X1644003Y-10170499D01*
X1644003Y-10170499D02*
X1644003Y-10218118D01*
X1644003Y-10218118D02*
X1634479Y-10256214D01*
X1634479Y-10256214D02*
X1624955Y-10275261D01*
X1624955Y-10275261D02*
X1615432Y-10284785D01*
X1615432Y-10284785D02*
X1596384Y-10294309D01*
X1596384Y-10294309D02*
X1577336Y-10294309D01*
X1577336Y-10294309D02*
X1558289Y-10284785D01*
X1558289Y-10284785D02*
X1548765Y-10275261D01*
X1548765Y-10275261D02*
X1539241Y-10256214D01*
X1539241Y-10256214D02*
X1529717Y-10218118D01*
X1529717Y-10218118D02*
X1529717Y-10170499D01*
X1529717Y-10170499D02*
X1539241Y-10132404D01*
X1539241Y-10132404D02*
X1548765Y-10113356D01*
X1548765Y-10113356D02*
X1558289Y-10103833D01*
X1558289Y-10103833D02*
X1577336Y-10094309D01*
X1729717Y-10294309D02*
X1729717Y-10160975D01*
X1729717Y-10180023D02*
X1739241Y-10170499D01*
X1739241Y-10170499D02*
X1758289Y-10160975D01*
X1758289Y-10160975D02*
X1786860Y-10160975D01*
X1786860Y-10160975D02*
X1805908Y-10170499D01*
X1805908Y-10170499D02*
X1815432Y-10189547D01*
X1815432Y-10189547D02*
X1815432Y-10294309D01*
X1815432Y-10189547D02*
X1824955Y-10170499D01*
X1824955Y-10170499D02*
X1844003Y-10160975D01*
X1844003Y-10160975D02*
X1872574Y-10160975D01*
X1872574Y-10160975D02*
X1891622Y-10170499D01*
X1891622Y-10170499D02*
X1901146Y-10189547D01*
X1901146Y-10189547D02*
X1901146Y-10294309D01*
X1996384Y-10294309D02*
X1996384Y-10160975D01*
X1996384Y-10180023D02*
X2005908Y-10170499D01*
X2005908Y-10170499D02*
X2024955Y-10160975D01*
X2024955Y-10160975D02*
X2053527Y-10160975D01*
X2053527Y-10160975D02*
X2072574Y-10170499D01*
X2072574Y-10170499D02*
X2082098Y-10189547D01*
X2082098Y-10189547D02*
X2082098Y-10294309D01*
X2082098Y-10189547D02*
X2091622Y-10170499D01*
X2091622Y-10170499D02*
X2110670Y-10160975D01*
X2110670Y-10160975D02*
X2139241Y-10160975D01*
X2139241Y-10160975D02*
X2158289Y-10170499D01*
X2158289Y-10170499D02*
X2167813Y-10189547D01*
X2167813Y-10189547D02*
X2167813Y-10294309D01*
X2558289Y-10084785D02*
X2386860Y-10341928D01*
X2815432Y-10094309D02*
X2834479Y-10094309D01*
X2834479Y-10094309D02*
X2853527Y-10103833D01*
X2853527Y-10103833D02*
X2863051Y-10113356D01*
X2863051Y-10113356D02*
X2872575Y-10132404D01*
X2872575Y-10132404D02*
X2882098Y-10170499D01*
X2882098Y-10170499D02*
X2882098Y-10218118D01*
X2882098Y-10218118D02*
X2872575Y-10256214D01*
X2872575Y-10256214D02*
X2863051Y-10275261D01*
X2863051Y-10275261D02*
X2853527Y-10284785D01*
X2853527Y-10284785D02*
X2834479Y-10294309D01*
X2834479Y-10294309D02*
X2815432Y-10294309D01*
X2815432Y-10294309D02*
X2796384Y-10284785D01*
X2796384Y-10284785D02*
X2786860Y-10275261D01*
X2786860Y-10275261D02*
X2777337Y-10256214D01*
X2777337Y-10256214D02*
X2767813Y-10218118D01*
X2767813Y-10218118D02*
X2767813Y-10170499D01*
X2767813Y-10170499D02*
X2777337Y-10132404D01*
X2777337Y-10132404D02*
X2786860Y-10113356D01*
X2786860Y-10113356D02*
X2796384Y-10103833D01*
X2796384Y-10103833D02*
X2815432Y-10094309D01*
X2967813Y-10275261D02*
X2977336Y-10284785D01*
X2977336Y-10284785D02*
X2967813Y-10294309D01*
X2967813Y-10294309D02*
X2958289Y-10284785D01*
X2958289Y-10284785D02*
X2967813Y-10275261D01*
X2967813Y-10275261D02*
X2967813Y-10294309D01*
X3101146Y-10094309D02*
X3120194Y-10094309D01*
X3120194Y-10094309D02*
X3139241Y-10103833D01*
X3139241Y-10103833D02*
X3148765Y-10113356D01*
X3148765Y-10113356D02*
X3158289Y-10132404D01*
X3158289Y-10132404D02*
X3167813Y-10170499D01*
X3167813Y-10170499D02*
X3167813Y-10218118D01*
X3167813Y-10218118D02*
X3158289Y-10256214D01*
X3158289Y-10256214D02*
X3148765Y-10275261D01*
X3148765Y-10275261D02*
X3139241Y-10284785D01*
X3139241Y-10284785D02*
X3120194Y-10294309D01*
X3120194Y-10294309D02*
X3101146Y-10294309D01*
X3101146Y-10294309D02*
X3082098Y-10284785D01*
X3082098Y-10284785D02*
X3072575Y-10275261D01*
X3072575Y-10275261D02*
X3063051Y-10256214D01*
X3063051Y-10256214D02*
X3053527Y-10218118D01*
X3053527Y-10218118D02*
X3053527Y-10170499D01*
X3053527Y-10170499D02*
X3063051Y-10132404D01*
X3063051Y-10132404D02*
X3072575Y-10113356D01*
X3072575Y-10113356D02*
X3082098Y-10103833D01*
X3082098Y-10103833D02*
X3101146Y-10094309D01*
X3263051Y-10294309D02*
X3301146Y-10294309D01*
X3301146Y-10294309D02*
X3320194Y-10284785D01*
X3320194Y-10284785D02*
X3329717Y-10275261D01*
X3329717Y-10275261D02*
X3348765Y-10246690D01*
X3348765Y-10246690D02*
X3358289Y-10208595D01*
X3358289Y-10208595D02*
X3358289Y-10132404D01*
X3358289Y-10132404D02*
X3348765Y-10113356D01*
X3348765Y-10113356D02*
X3339241Y-10103833D01*
X3339241Y-10103833D02*
X3320194Y-10094309D01*
X3320194Y-10094309D02*
X3282098Y-10094309D01*
X3282098Y-10094309D02*
X3263051Y-10103833D01*
X3263051Y-10103833D02*
X3253527Y-10113356D01*
X3253527Y-10113356D02*
X3244003Y-10132404D01*
X3244003Y-10132404D02*
X3244003Y-10180023D01*
X3244003Y-10180023D02*
X3253527Y-10199071D01*
X3253527Y-10199071D02*
X3263051Y-10208595D01*
X3263051Y-10208595D02*
X3282098Y-10218118D01*
X3282098Y-10218118D02*
X3320194Y-10218118D01*
X3320194Y-10218118D02*
X3339241Y-10208595D01*
X3339241Y-10208595D02*
X3348765Y-10199071D01*
X3348765Y-10199071D02*
X3358289Y-10180023D01*
X3482098Y-10094309D02*
X3501146Y-10094309D01*
X3501146Y-10094309D02*
X3520194Y-10103833D01*
X3520194Y-10103833D02*
X3529717Y-10113356D01*
X3529717Y-10113356D02*
X3539241Y-10132404D01*
X3539241Y-10132404D02*
X3548765Y-10170499D01*
X3548765Y-10170499D02*
X3548765Y-10218118D01*
X3548765Y-10218118D02*
X3539241Y-10256214D01*
X3539241Y-10256214D02*
X3529717Y-10275261D01*
X3529717Y-10275261D02*
X3520194Y-10284785D01*
X3520194Y-10284785D02*
X3501146Y-10294309D01*
X3501146Y-10294309D02*
X3482098Y-10294309D01*
X3482098Y-10294309D02*
X3463051Y-10284785D01*
X3463051Y-10284785D02*
X3453527Y-10275261D01*
X3453527Y-10275261D02*
X3444003Y-10256214D01*
X3444003Y-10256214D02*
X3434479Y-10218118D01*
X3434479Y-10218118D02*
X3434479Y-10170499D01*
X3434479Y-10170499D02*
X3444003Y-10132404D01*
X3444003Y-10132404D02*
X3453527Y-10113356D01*
X3453527Y-10113356D02*
X3463051Y-10103833D01*
X3463051Y-10103833D02*
X3482098Y-10094309D01*
X3720194Y-10094309D02*
X3682098Y-10094309D01*
X3682098Y-10094309D02*
X3663051Y-10103833D01*
X3663051Y-10103833D02*
X3653527Y-10113356D01*
X3653527Y-10113356D02*
X3634479Y-10141928D01*
X3634479Y-10141928D02*
X3624956Y-10180023D01*
X3624956Y-10180023D02*
X3624956Y-10256214D01*
X3624956Y-10256214D02*
X3634479Y-10275261D01*
X3634479Y-10275261D02*
X3644003Y-10284785D01*
X3644003Y-10284785D02*
X3663051Y-10294309D01*
X3663051Y-10294309D02*
X3701146Y-10294309D01*
X3701146Y-10294309D02*
X3720194Y-10284785D01*
X3720194Y-10284785D02*
X3729717Y-10275261D01*
X3729717Y-10275261D02*
X3739241Y-10256214D01*
X3739241Y-10256214D02*
X3739241Y-10208595D01*
X3739241Y-10208595D02*
X3729717Y-10189547D01*
X3729717Y-10189547D02*
X3720194Y-10180023D01*
X3720194Y-10180023D02*
X3701146Y-10170499D01*
X3701146Y-10170499D02*
X3663051Y-10170499D01*
X3663051Y-10170499D02*
X3644003Y-10180023D01*
X3644003Y-10180023D02*
X3634479Y-10189547D01*
X3634479Y-10189547D02*
X3624956Y-10208595D01*
X3815432Y-10094309D02*
X3815432Y-10132404D01*
X3891622Y-10094309D02*
X3891622Y-10132404D01*
X4186860Y-10370499D02*
X4177337Y-10360975D01*
X4177337Y-10360975D02*
X4158289Y-10332404D01*
X4158289Y-10332404D02*
X4148765Y-10313356D01*
X4148765Y-10313356D02*
X4139241Y-10284785D01*
X4139241Y-10284785D02*
X4129718Y-10237166D01*
X4129718Y-10237166D02*
X4129718Y-10199071D01*
X4129718Y-10199071D02*
X4139241Y-10151452D01*
X4139241Y-10151452D02*
X4148765Y-10122880D01*
X4148765Y-10122880D02*
X4158289Y-10103833D01*
X4158289Y-10103833D02*
X4177337Y-10075261D01*
X4177337Y-10075261D02*
X4186860Y-10065737D01*
X4253527Y-10113356D02*
X4263051Y-10103833D01*
X4263051Y-10103833D02*
X4282099Y-10094309D01*
X4282099Y-10094309D02*
X4329718Y-10094309D01*
X4329718Y-10094309D02*
X4348765Y-10103833D01*
X4348765Y-10103833D02*
X4358289Y-10113356D01*
X4358289Y-10113356D02*
X4367813Y-10132404D01*
X4367813Y-10132404D02*
X4367813Y-10151452D01*
X4367813Y-10151452D02*
X4358289Y-10180023D01*
X4358289Y-10180023D02*
X4244003Y-10294309D01*
X4244003Y-10294309D02*
X4367813Y-10294309D01*
X4605908Y-10294309D02*
X4605908Y-10094309D01*
X4691622Y-10294309D02*
X4691622Y-10189547D01*
X4691622Y-10189547D02*
X4682099Y-10170499D01*
X4682099Y-10170499D02*
X4663051Y-10160975D01*
X4663051Y-10160975D02*
X4634480Y-10160975D01*
X4634480Y-10160975D02*
X4615432Y-10170499D01*
X4615432Y-10170499D02*
X4605908Y-10180023D01*
X4815432Y-10294309D02*
X4796384Y-10284785D01*
X4796384Y-10284785D02*
X4786861Y-10275261D01*
X4786861Y-10275261D02*
X4777337Y-10256214D01*
X4777337Y-10256214D02*
X4777337Y-10199071D01*
X4777337Y-10199071D02*
X4786861Y-10180023D01*
X4786861Y-10180023D02*
X4796384Y-10170499D01*
X4796384Y-10170499D02*
X4815432Y-10160975D01*
X4815432Y-10160975D02*
X4844003Y-10160975D01*
X4844003Y-10160975D02*
X4863051Y-10170499D01*
X4863051Y-10170499D02*
X4872575Y-10180023D01*
X4872575Y-10180023D02*
X4882099Y-10199071D01*
X4882099Y-10199071D02*
X4882099Y-10256214D01*
X4882099Y-10256214D02*
X4872575Y-10275261D01*
X4872575Y-10275261D02*
X4863051Y-10284785D01*
X4863051Y-10284785D02*
X4844003Y-10294309D01*
X4844003Y-10294309D02*
X4815432Y-10294309D01*
X4996384Y-10294309D02*
X4977337Y-10284785D01*
X4977337Y-10284785D02*
X4967813Y-10265737D01*
X4967813Y-10265737D02*
X4967813Y-10094309D01*
X5148765Y-10284785D02*
X5129718Y-10294309D01*
X5129718Y-10294309D02*
X5091622Y-10294309D01*
X5091622Y-10294309D02*
X5072575Y-10284785D01*
X5072575Y-10284785D02*
X5063051Y-10265737D01*
X5063051Y-10265737D02*
X5063051Y-10189547D01*
X5063051Y-10189547D02*
X5072575Y-10170499D01*
X5072575Y-10170499D02*
X5091622Y-10160975D01*
X5091622Y-10160975D02*
X5129718Y-10160975D01*
X5129718Y-10160975D02*
X5148765Y-10170499D01*
X5148765Y-10170499D02*
X5158289Y-10189547D01*
X5158289Y-10189547D02*
X5158289Y-10208595D01*
X5158289Y-10208595D02*
X5063051Y-10227642D01*
X5234480Y-10284785D02*
X5253527Y-10294309D01*
X5253527Y-10294309D02*
X5291622Y-10294309D01*
X5291622Y-10294309D02*
X5310670Y-10284785D01*
X5310670Y-10284785D02*
X5320194Y-10265737D01*
X5320194Y-10265737D02*
X5320194Y-10256214D01*
X5320194Y-10256214D02*
X5310670Y-10237166D01*
X5310670Y-10237166D02*
X5291622Y-10227642D01*
X5291622Y-10227642D02*
X5263051Y-10227642D01*
X5263051Y-10227642D02*
X5244003Y-10218118D01*
X5244003Y-10218118D02*
X5234480Y-10199071D01*
X5234480Y-10199071D02*
X5234480Y-10189547D01*
X5234480Y-10189547D02*
X5244003Y-10170499D01*
X5244003Y-10170499D02*
X5263051Y-10160975D01*
X5263051Y-10160975D02*
X5291622Y-10160975D01*
X5291622Y-10160975D02*
X5310670Y-10170499D01*
X5386861Y-10370499D02*
X5396384Y-10360975D01*
X5396384Y-10360975D02*
X5415432Y-10332404D01*
X5415432Y-10332404D02*
X5424956Y-10313356D01*
X5424956Y-10313356D02*
X5434480Y-10284785D01*
X5434480Y-10284785D02*
X5444003Y-10237166D01*
X5444003Y-10237166D02*
X5444003Y-10199071D01*
X5444003Y-10199071D02*
X5434480Y-10151452D01*
X5434480Y-10151452D02*
X5424956Y-10122880D01*
X5424956Y-10122880D02*
X5415432Y-10103833D01*
X5415432Y-10103833D02*
X5396384Y-10075261D01*
X5396384Y-10075261D02*
X5386861Y-10065737D01*
M02*
