M48
; DRILL file KiCad 10.0.3 date 2026-05-22T11:35:37
; FORMAT={-:-/ absolute / metric / decimal}
; #@! TF.CreationDate,2026-05-22T11:35:37+10:00
; #@! TF.GenerationSoftware,Kicad,Pcbnew,10.0.3
; #@! TF.FileFunction,MixedPlating,1,2
FMAT,2
METRIC
; #@! TA.AperFunction,Plated,PTH,ViaDrill
T1C0.350
; #@! TA.AperFunction,Plated,PTH,ComponentDrill
T2C0.800
; #@! TA.AperFunction,Plated,PTH,ComponentDrill
T3C0.920
; #@! TA.AperFunction,Plated,PTH,ComponentDrill
T4C1.000
; #@! TA.AperFunction,Plated,PTH,ComponentDrill
T5C2.300
%
G90
G05
T1
X31.523Y-51.505
X35.174Y-45.155
X35.863Y-54.045
T2
X57.19Y-12.0
X64.81Y-12.0
X68.19Y-26.19
X68.19Y-28.73
X68.19Y-31.27
X68.19Y-33.81
X75.81Y-26.19
X75.81Y-28.73
X75.81Y-31.27
X75.81Y-33.81
X81.19Y-12.0
X82.5Y-48.0
X87.5Y-48.0
X88.81Y-12.0
T3
X20.5Y-65.645
X23.0Y-65.645
X25.0Y-65.645
X27.5Y-65.645
T4
X41.11Y-5.87
X41.11Y-8.41
X41.11Y-10.95
X41.11Y-13.49
X41.11Y-16.03
X41.11Y-18.57
X41.11Y-21.11
X41.11Y-23.65
X41.11Y-26.19
X41.11Y-28.73
X41.11Y-31.27
X41.11Y-33.81
X41.11Y-36.35
X41.11Y-38.89
X41.11Y-41.43
X41.11Y-43.97
X41.11Y-46.51
X41.11Y-49.05
X41.11Y-51.59
X41.11Y-54.13
X58.89Y-5.87
X58.89Y-8.41
X58.89Y-10.95
X58.89Y-13.49
X58.89Y-16.03
X58.89Y-18.57
X58.89Y-21.11
X58.89Y-23.65
X58.89Y-26.19
X58.89Y-28.73
X58.89Y-31.27
X58.89Y-33.81
X58.89Y-36.35
X58.89Y-38.89
X58.89Y-41.43
X58.89Y-43.97
X58.89Y-46.51
X58.89Y-49.05
X58.89Y-51.59
X58.89Y-54.13
X91.11Y-5.87
X91.11Y-8.41
X91.11Y-10.95
X91.11Y-13.49
X91.11Y-16.03
X91.11Y-18.57
X91.11Y-21.11
X91.11Y-23.65
X91.11Y-26.19
X91.11Y-28.73
X91.11Y-31.27
X91.11Y-33.81
X91.11Y-36.35
X91.11Y-38.89
X91.11Y-41.43
X91.11Y-43.97
X91.11Y-46.51
X91.11Y-49.05
X91.11Y-51.59
X91.11Y-54.13
X108.89Y-5.87
X108.89Y-8.41
X108.89Y-10.95
X108.89Y-13.49
X108.89Y-16.03
X108.89Y-18.57
X108.89Y-21.11
X108.89Y-23.65
X108.89Y-26.19
X108.89Y-28.73
X108.89Y-31.27
X108.89Y-33.81
X108.89Y-36.35
X108.89Y-38.89
X108.89Y-41.43
X108.89Y-43.97
X108.89Y-46.51
X108.89Y-49.05
X108.89Y-51.59
X108.89Y-54.13
T5
X17.43Y-68.355
X30.57Y-68.355
M30
