%TF.GenerationSoftware,KiCad,Pcbnew,10.0.3*%
%TF.CreationDate,2026-05-22T11:35:42+10:00*%
%TF.ProjectId,screen-hopper-compact,73637265-656e-42d6-986f-707065722d63,rev?*%
%TF.SameCoordinates,Original*%
%TF.FileFunction,Copper,L1,Top*%
%TF.FilePolarity,Positive*%
%FSLAX46Y46*%
G04 Gerber Fmt 4.6, Leading zero omitted, Abs format (unit mm)*
G04 Created by KiCad (PCBNEW 10.0.3) date 2026-05-22 11:35:42*
%MOMM*%
%LPD*%
G01*
G04 APERTURE LIST*
G04 Aperture macros list*
%AMRoundRect*
0 Rectangle with rounded corners*
0 $1 Rounding radius*
0 $2 $3 $4 $5 $6 $7 $8 $9 X,Y pos of 4 corners*
0 Add a 4 corners polygon primitive as box body*
4,1,4,$2,$3,$4,$5,$6,$7,$8,$9,$2,$3,0*
0 Add four circle primitives for the rounded corners*
1,1,$1+$1,$2,$3*
1,1,$1+$1,$4,$5*
1,1,$1+$1,$6,$7*
1,1,$1+$1,$8,$9*
0 Add four rect primitives between the rounded corners*
20,1,$1+$1,$2,$3,$4,$5,0*
20,1,$1+$1,$4,$5,$6,$7,0*
20,1,$1+$1,$6,$7,$8,$9,0*
20,1,$1+$1,$8,$9,$2,$3,0*%
%AMFreePoly0*
4,1,37,0.800000,0.796148,0.878414,0.796148,1.032228,0.765552,1.177117,0.705537,1.307515,0.618408,1.418408,0.507515,1.505537,0.377117,1.565552,0.232228,1.596148,0.078414,1.596148,-0.078414,1.565552,-0.232228,1.505537,-0.377117,1.418408,-0.507515,1.307515,-0.618408,1.177117,-0.705537,1.032228,-0.765552,0.878414,-0.796148,0.800000,-0.796148,0.800000,-0.800000,-1.400000,-0.800000,
-1.403843,-0.796157,-1.439018,-0.796157,-1.511114,-0.766294,-1.566294,-0.711114,-1.596157,-0.639018,-1.596157,-0.603843,-1.600000,-0.600000,-1.600000,0.600000,-1.596157,0.603843,-1.596157,0.639018,-1.566294,0.711114,-1.511114,0.766294,-1.439018,0.796157,-1.403843,0.796157,-1.400000,0.800000,0.800000,0.800000,0.800000,0.796148,0.800000,0.796148,$1*%
%AMFreePoly1*
4,1,37,1.403843,0.796157,1.439018,0.796157,1.511114,0.766294,1.566294,0.711114,1.596157,0.639018,1.596157,0.603843,1.600000,0.600000,1.600000,-0.600000,1.596157,-0.603843,1.596157,-0.639018,1.566294,-0.711114,1.511114,-0.766294,1.439018,-0.796157,1.403843,-0.796157,1.400000,-0.800000,-0.800000,-0.800000,-0.800000,-0.796148,-0.878414,-0.796148,-1.032228,-0.765552,-1.177117,-0.705537,
-1.307515,-0.618408,-1.418408,-0.507515,-1.505537,-0.377117,-1.565552,-0.232228,-1.596148,-0.078414,-1.596148,0.078414,-1.565552,0.232228,-1.505537,0.377117,-1.418408,0.507515,-1.307515,0.618408,-1.177117,0.705537,-1.032228,0.765552,-0.878414,0.796148,-0.800000,0.796148,-0.800000,0.800000,1.400000,0.800000,1.403843,0.796157,1.403843,0.796157,$1*%
%AMFreePoly2*
4,1,37,1.600000,0.796148,1.678414,0.796148,1.832228,0.765552,1.977117,0.705537,2.107515,0.618408,2.218408,0.507515,2.305537,0.377117,2.365552,0.232228,2.396148,0.078414,2.396148,-0.078414,2.365552,-0.232228,2.305537,-0.377117,2.218408,-0.507515,2.107515,-0.618408,1.977117,-0.705537,1.832228,-0.765552,1.678414,-0.796148,1.600000,-0.796148,1.600000,-0.800000,-0.600000,-0.800000,
-0.603843,-0.796157,-0.639018,-0.796157,-0.711114,-0.766294,-0.766294,-0.711114,-0.796157,-0.639018,-0.796157,-0.603843,-0.800000,-0.600000,-0.800000,0.600000,-0.796157,0.603843,-0.796157,0.639018,-0.766294,0.711114,-0.711114,0.766294,-0.639018,0.796157,-0.603843,0.796157,-0.600000,0.800000,1.600000,0.800000,1.600000,0.796148,1.600000,0.796148,$1*%
G04 Aperture macros list end*
%TA.AperFunction,SMDPad,CuDef*%
%ADD10O,1.100000X1.800000*%
%TD*%
%TA.AperFunction,SMDPad,CuDef*%
%ADD11O,1.050000X1.450000*%
%TD*%
%TA.AperFunction,SMDPad,CuDef*%
%ADD12FreePoly0,0.000000*%
%TD*%
%TA.AperFunction,SMDPad,CuDef*%
%ADD13RoundRect,0.800000X-0.800000X-0.000010X0.800000X-0.000010X0.800000X0.000010X-0.800000X0.000010X0*%
%TD*%
%TA.AperFunction,SMDPad,CuDef*%
%ADD14FreePoly1,0.000000*%
%TD*%
%TA.AperFunction,SMDPad,CuDef*%
%ADD15RoundRect,0.800000X0.000010X-0.800000X0.000010X0.800000X-0.000010X0.800000X-0.000010X-0.800000X0*%
%TD*%
%TA.AperFunction,SMDPad,CuDef*%
%ADD16FreePoly2,270.000000*%
%TD*%
%TA.AperFunction,SMDPad,CuDef*%
%ADD17RoundRect,0.300000X-0.450000X-0.450000X0.450000X-0.450000X0.450000X0.450000X-0.450000X0.450000X0*%
%TD*%
%TA.AperFunction,SMDPad,CuDef*%
%ADD18RoundRect,0.250000X-0.262500X-0.450000X0.262500X-0.450000X0.262500X0.450000X-0.262500X0.450000X0*%
%TD*%
%TA.AperFunction,SMDPad,CuDef*%
%ADD19RoundRect,0.150000X-0.825000X-0.150000X0.825000X-0.150000X0.825000X0.150000X-0.825000X0.150000X0*%
%TD*%
%TA.AperFunction,SMDPad,CuDef*%
%ADD20RoundRect,0.250000X-0.250000X-0.475000X0.250000X-0.475000X0.250000X0.475000X-0.250000X0.475000X0*%
%TD*%
%TA.AperFunction,SMDPad,CuDef*%
%ADD21RoundRect,0.150000X-0.512500X-0.150000X0.512500X-0.150000X0.512500X0.150000X-0.512500X0.150000X0*%
%TD*%
%TA.AperFunction,SMDPad,CuDef*%
%ADD22RoundRect,0.150000X-0.575000X0.150000X-0.575000X-0.150000X0.575000X-0.150000X0.575000X0.150000X0*%
%TD*%
%TA.AperFunction,SMDPad,CuDef*%
%ADD23RoundRect,0.075000X-0.650000X0.075000X-0.650000X-0.075000X0.650000X-0.075000X0.650000X0.075000X0*%
%TD*%
%TA.AperFunction,ComponentPad*%
%ADD24O,2.100000X1.000000*%
%TD*%
%TA.AperFunction,ComponentPad*%
%ADD25O,1.600000X1.000000*%
%TD*%
%TA.AperFunction,SMDPad,CuDef*%
%ADD26RoundRect,0.250000X-1.250000X0.375000X-1.250000X-0.375000X1.250000X-0.375000X1.250000X0.375000X0*%
%TD*%
%TA.AperFunction,ComponentPad*%
%ADD27C,3.000000*%
%TD*%
%TA.AperFunction,ViaPad*%
%ADD28C,0.500000*%
%TD*%
%TA.AperFunction,Conductor*%
%ADD29C,0.200000*%
%TD*%
G04 APERTURE END LIST*
D10*
%TO.P,A3,*%
%TO.N,*%
X74275000Y-6085000D03*
D11*
X74575000Y-9115000D03*
X79425000Y-9115000D03*
D10*
X79725000Y-6085000D03*
D12*
%TO.P,A3,1*%
%TO.N,N/C*%
X67310000Y-5955000D03*
D13*
%TO.P,A3,2*%
X67310000Y-8495000D03*
D14*
%TO.P,A3,3*%
%TO.N,GND2*%
X67310000Y-11035000D03*
D13*
%TO.P,A3,4*%
%TO.N,N/C*%
X67310000Y-13575000D03*
%TO.P,A3,5*%
X67310000Y-16115000D03*
%TO.P,A3,6*%
X67310000Y-18655000D03*
%TO.P,A3,7*%
X67310000Y-21195000D03*
D14*
%TO.P,A3,8*%
%TO.N,GND2*%
X67310000Y-23735000D03*
D13*
%TO.P,A3,9*%
%TO.N,N/C*%
X67310000Y-26275000D03*
%TO.P,A3,10*%
X67310000Y-28815000D03*
%TO.P,A3,11*%
X67310000Y-31355000D03*
%TO.P,A3,12*%
%TO.N,OPTO_VO*%
X67310000Y-33895000D03*
D14*
%TO.P,A3,13*%
%TO.N,GND2*%
X67310000Y-36435000D03*
D13*
%TO.P,A3,14*%
%TO.N,N/C*%
X67310000Y-38975000D03*
%TO.P,A3,15*%
X67310000Y-41515000D03*
%TO.P,A3,16*%
X67310000Y-44055000D03*
%TO.P,A3,17*%
X67310000Y-46595000D03*
D14*
%TO.P,A3,18*%
%TO.N,GND2*%
X67310000Y-49135000D03*
D13*
%TO.P,A3,19*%
%TO.N,N/C*%
X67310000Y-51675000D03*
%TO.P,A3,20*%
X67310000Y-54215000D03*
%TO.P,A3,21*%
X86690000Y-54215000D03*
%TO.P,A3,22*%
X86690000Y-51675000D03*
D12*
%TO.P,A3,23*%
%TO.N,GND2*%
X86690000Y-49135000D03*
D13*
%TO.P,A3,24*%
%TO.N,N/C*%
X86690000Y-46595000D03*
%TO.P,A3,25*%
X86690000Y-44055000D03*
%TO.P,A3,26*%
X86690000Y-41515000D03*
%TO.P,A3,27*%
X86690000Y-38975000D03*
D12*
%TO.P,A3,28*%
%TO.N,GND2*%
X86690000Y-36435000D03*
D13*
%TO.P,A3,29*%
%TO.N,N/C*%
X86690000Y-33895000D03*
%TO.P,A3,30*%
X86690000Y-31355000D03*
%TO.P,A3,31*%
X86690000Y-28815000D03*
%TO.P,A3,32*%
X86690000Y-26275000D03*
D12*
%TO.P,A3,33*%
%TO.N,GND2*%
X86690000Y-23735000D03*
D13*
%TO.P,A3,34*%
%TO.N,N/C*%
X86690000Y-21195000D03*
%TO.P,A3,35*%
X86690000Y-18655000D03*
%TO.P,A3,36*%
%TO.N,FWD_3V3*%
X86690000Y-16115000D03*
%TO.P,A3,37*%
%TO.N,N/C*%
X86690000Y-13575000D03*
D12*
%TO.P,A3,38*%
%TO.N,GND2*%
X86690000Y-11035000D03*
D13*
%TO.P,A3,39*%
%TO.N,N/C*%
X86690000Y-8495000D03*
%TO.P,A3,40*%
%TO.N,VBUS2*%
X86690000Y-5955000D03*
D15*
%TO.P,A3,D1*%
%TO.N,N/C*%
X74460000Y-54785000D03*
D16*
%TO.P,A3,D2*%
X77000000Y-53985000D03*
D15*
%TO.P,A3,D3*%
X79540000Y-54785000D03*
D17*
%TO.P,A3,TP1*%
X77000000Y-9085000D03*
%TO.P,A3,TP2*%
X78000000Y-5785000D03*
%TO.P,A3,TP3*%
X76000000Y-5785000D03*
%TO.P,A3,TP4*%
X74500000Y-12585000D03*
%TO.P,A3,TP5*%
X74500000Y-15085000D03*
%TO.P,A3,TP6*%
X74500000Y-17585000D03*
%TD*%
D10*
%TO.P,A1,*%
%TO.N,*%
X37275000Y-6085000D03*
D11*
X37575000Y-9115000D03*
X42425000Y-9115000D03*
D10*
X42725000Y-6085000D03*
D12*
%TO.P,A1,1*%
%TO.N,SER_A0_B1*%
X30310000Y-5955000D03*
D13*
%TO.P,A1,2*%
%TO.N,SER_A1_B0*%
X30310000Y-8495000D03*
D14*
%TO.P,A1,3*%
%TO.N,GND1*%
X30310000Y-11035000D03*
D13*
%TO.P,A1,4*%
%TO.N,SER_A2_B3*%
X30310000Y-13575000D03*
%TO.P,A1,5*%
%TO.N,SER_A3_B2*%
X30310000Y-16115000D03*
%TO.P,A1,6*%
%TO.N,N/C*%
X30310000Y-18655000D03*
%TO.P,A1,7*%
X30310000Y-21195000D03*
D14*
%TO.P,A1,8*%
%TO.N,GND1*%
X30310000Y-23735000D03*
D13*
%TO.P,A1,9*%
%TO.N,N/C*%
X30310000Y-26275000D03*
%TO.P,A1,10*%
X30310000Y-28815000D03*
%TO.P,A1,11*%
X30310000Y-31355000D03*
%TO.P,A1,12*%
X30310000Y-33895000D03*
D14*
%TO.P,A1,13*%
%TO.N,GND1*%
X30310000Y-36435000D03*
D13*
%TO.P,A1,14*%
%TO.N,N/C*%
X30310000Y-38975000D03*
%TO.P,A1,15*%
X30310000Y-41515000D03*
%TO.P,A1,16*%
X30310000Y-44055000D03*
%TO.P,A1,17*%
X30310000Y-46595000D03*
D14*
%TO.P,A1,18*%
%TO.N,GND1*%
X30310000Y-49135000D03*
D13*
%TO.P,A1,19*%
%TO.N,N/C*%
X30310000Y-51675000D03*
%TO.P,A1,20*%
X30310000Y-54215000D03*
%TO.P,A1,21*%
X49690000Y-54215000D03*
%TO.P,A1,22*%
X49690000Y-51675000D03*
D12*
%TO.P,A1,23*%
%TO.N,GND1*%
X49690000Y-49135000D03*
D13*
%TO.P,A1,24*%
%TO.N,N/C*%
X49690000Y-46595000D03*
%TO.P,A1,25*%
X49690000Y-44055000D03*
%TO.P,A1,26*%
%TO.N,OPTO_CATH*%
X49690000Y-41515000D03*
%TO.P,A1,27*%
%TO.N,N/C*%
X49690000Y-38975000D03*
D12*
%TO.P,A1,28*%
%TO.N,GND1*%
X49690000Y-36435000D03*
D13*
%TO.P,A1,29*%
%TO.N,N/C*%
X49690000Y-33895000D03*
%TO.P,A1,30*%
X49690000Y-31355000D03*
%TO.P,A1,31*%
X49690000Y-28815000D03*
%TO.P,A1,32*%
X49690000Y-26275000D03*
D12*
%TO.P,A1,33*%
%TO.N,GND1*%
X49690000Y-23735000D03*
D13*
%TO.P,A1,34*%
%TO.N,N/C*%
X49690000Y-21195000D03*
%TO.P,A1,35*%
X49690000Y-18655000D03*
%TO.P,A1,36*%
%TO.N,OPTO_3V3*%
X49690000Y-16115000D03*
%TO.P,A1,37*%
%TO.N,N/C*%
X49690000Y-13575000D03*
D12*
%TO.P,A1,38*%
%TO.N,GND1*%
X49690000Y-11035000D03*
D13*
%TO.P,A1,39*%
%TO.N,N/C*%
X49690000Y-8495000D03*
%TO.P,A1,40*%
%TO.N,VBUS1*%
X49690000Y-5955000D03*
D15*
%TO.P,A1,D1*%
%TO.N,N/C*%
X37460000Y-54785000D03*
D16*
%TO.P,A1,D2*%
X40000000Y-53985000D03*
D15*
%TO.P,A1,D3*%
X42540000Y-54785000D03*
D17*
%TO.P,A1,TP1*%
X40000000Y-9085000D03*
%TO.P,A1,TP2*%
X41000000Y-5785000D03*
%TO.P,A1,TP3*%
X39000000Y-5785000D03*
%TO.P,A1,TP4*%
X37500000Y-12585000D03*
%TO.P,A1,TP5*%
X37500000Y-15085000D03*
%TO.P,A1,TP6*%
X37500000Y-17585000D03*
%TD*%
D18*
%TO.P,R3,1*%
%TO.N,CC1*%
X25087500Y-40000000D03*
%TO.P,R3,2*%
%TO.N,VBUS1*%
X26912500Y-40000000D03*
%TD*%
D19*
%TO.P,U1,1*%
%TO.N,N/C*%
X56525000Y-24095000D03*
%TO.P,U1,2*%
%TO.N,OPTO_ANODE*%
X56525000Y-25365000D03*
%TO.P,U1,3*%
%TO.N,OPTO_CATH*%
X56525000Y-26635000D03*
%TO.P,U1,4*%
%TO.N,N/C*%
X56525000Y-27905000D03*
%TO.P,U1,5*%
%TO.N,GND2*%
X61475000Y-27905000D03*
%TO.P,U1,6*%
%TO.N,OPTO_VO*%
X61475000Y-26635000D03*
%TO.P,U1,7*%
%TO.N,N/C*%
X61475000Y-25365000D03*
%TO.P,U1,8*%
%TO.N,VBUS2*%
X61475000Y-24095000D03*
%TD*%
D20*
%TO.P,C1,1*%
%TO.N,VBUS2*%
X62050000Y-40000000D03*
%TO.P,C1,2*%
%TO.N,GND2*%
X63950000Y-40000000D03*
%TD*%
D21*
%TO.P,U2,1*%
%TO.N,USB_DP*%
X22862500Y-27050000D03*
%TO.P,U2,2*%
%TO.N,GND1*%
X22862500Y-28000000D03*
%TO.P,U2,3*%
%TO.N,USB_DM*%
X22862500Y-28950000D03*
%TO.P,U2,4*%
X25137500Y-28950000D03*
%TO.P,U2,5*%
%TO.N,VBUS1*%
X25137500Y-28000000D03*
%TO.P,U2,6*%
%TO.N,USB_DP*%
X25137500Y-27050000D03*
%TD*%
D22*
%TO.P,J2,A1*%
%TO.N,GND1*%
X10547500Y-37750000D03*
%TO.P,J2,A4*%
%TO.N,VBUS1*%
X10547500Y-38550000D03*
D23*
%TO.P,J2,A5*%
%TO.N,CC1*%
X10547500Y-39750000D03*
%TO.P,J2,A6*%
%TO.N,USB_DP*%
X10547500Y-40750000D03*
%TO.P,J2,A7*%
%TO.N,USB_DM*%
X10547500Y-41250000D03*
%TO.P,J2,A8*%
%TO.N,N/C*%
X10547500Y-42250000D03*
D22*
%TO.P,J2,A9*%
%TO.N,VBUS1*%
X10547500Y-43450000D03*
%TO.P,J2,A12*%
%TO.N,GND1*%
X10547500Y-44250000D03*
%TO.P,J2,B1*%
X10547500Y-44250000D03*
%TO.P,J2,B4*%
%TO.N,VBUS1*%
X10547500Y-43450000D03*
D23*
%TO.P,J2,B5*%
%TO.N,CC2*%
X10547500Y-42750000D03*
%TO.P,J2,B6*%
%TO.N,USB_DP*%
X10547500Y-41750000D03*
%TO.P,J2,B7*%
%TO.N,USB_DM*%
X10547500Y-40250000D03*
%TO.P,J2,B8*%
%TO.N,N/C*%
X10547500Y-39250000D03*
D22*
%TO.P,J2,B9*%
%TO.N,VBUS1*%
X10547500Y-38550000D03*
%TO.P,J2,B12*%
%TO.N,GND1*%
X10547500Y-37750000D03*
D24*
%TO.P,J2,SH*%
X9632500Y-36680000D03*
D25*
X5452500Y-36680000D03*
D24*
X9632500Y-45320000D03*
D25*
X5452500Y-45320000D03*
%TD*%
D18*
%TO.P,R2,1*%
%TO.N,FWD_3V3*%
X63087500Y-22000000D03*
%TO.P,R2,2*%
%TO.N,OPTO_VO*%
X64912500Y-22000000D03*
%TD*%
%TO.P,R4,1*%
%TO.N,CC2*%
X25087500Y-44000000D03*
%TO.P,R4,2*%
%TO.N,VBUS1*%
X26912500Y-44000000D03*
%TD*%
%TO.P,R1,1*%
%TO.N,OPTO_3V3*%
X53087500Y-22000000D03*
%TO.P,R1,2*%
%TO.N,OPTO_ANODE*%
X54912500Y-22000000D03*
%TD*%
D26*
%TO.P,J1,1*%
%TO.N,VBUS1*%
X16840000Y-12500000D03*
%TO.P,J1,2*%
%TO.N,USB_DM*%
X16840000Y-15000000D03*
%TO.P,J1,3*%
%TO.N,USB_DP*%
X16840000Y-17000000D03*
%TO.P,J1,4*%
%TO.N,GND1*%
X16840000Y-19500000D03*
D27*
%TO.P,J1,SH*%
X13160000Y-9430000D03*
X13160000Y-22570000D03*
%TD*%
D28*
%TO.N,SER_A0_B1*%
X48084500Y-7602500D03*
%TO.N,SER_A1_B0*%
X47090200Y-7952700D03*
%TO.N,GND1*%
X51286500Y-22802300D03*
X40914300Y-11065300D03*
X23988800Y-27991500D03*
%TO.N,SER_A2_B3*%
X39700300Y-13101900D03*
%TO.N,SER_A3_B2*%
X45486300Y-15597700D03*
%TO.N,VBUS1*%
X26592800Y-27773800D03*
X26592800Y-10562000D03*
X27815300Y-8763900D03*
%TO.N,USB_DP*%
X37408200Y-13863900D03*
%TO.N,USB_DM*%
X27818700Y-11228100D03*
X26362100Y-29005100D03*
%TD*%
%TO.N,GND2*%
D29*
X76394000Y-36435000D02*
X67310000Y-36435000D01*
X88560900Y-12905900D02*
X88560900Y-19993300D01*
X61475000Y-30600000D02*
X67310000Y-36435000D01*
X63950000Y-45775000D02*
X63950000Y-40000000D01*
X88562400Y-19994800D02*
X88562400Y-21862600D01*
X86690000Y-36435000D02*
X76394000Y-36435000D01*
X86690000Y-23735000D02*
X76394000Y-23735000D01*
X76394000Y-23735000D02*
X76394000Y-36435000D01*
X86690000Y-11035000D02*
X67310000Y-11035000D01*
X67310000Y-36435000D02*
X63950000Y-39795000D01*
X88560900Y-19993300D02*
X88562400Y-19994800D01*
X88562400Y-21862600D02*
X86690000Y-23735000D01*
X61475000Y-27905000D02*
X61475000Y-30600000D01*
X63950000Y-39795000D02*
X63950000Y-40000000D01*
X86690000Y-11035000D02*
X88560900Y-12905900D01*
X86690000Y-49135000D02*
X67310000Y-49135000D01*
X76394000Y-23735000D02*
X67310000Y-23735000D01*
X67310000Y-49135000D02*
X63950000Y-45775000D01*
%TO.N,OPTO_VO*%
X63102500Y-29687500D02*
X67310000Y-33895000D01*
X64912500Y-22000000D02*
X64912500Y-23541700D01*
X61819200Y-26635000D02*
X63102500Y-27918300D01*
X64912500Y-23541700D02*
X61819200Y-26635000D01*
X61475000Y-26635000D02*
X61819200Y-26635000D01*
X63102500Y-27918300D02*
X63102500Y-29687500D01*
%TO.N,FWD_3V3*%
X82880000Y-19925000D02*
X65162500Y-19925000D01*
X86690000Y-16115000D02*
X82880000Y-19925000D01*
X65162500Y-19925000D02*
X63087500Y-22000000D01*
%TO.N,VBUS2*%
X71402400Y-8077200D02*
X84802400Y-8077200D01*
X69715000Y-9764600D02*
X71402400Y-8077200D01*
X88918900Y-49238800D02*
X87937300Y-50220400D01*
X86690000Y-5955000D02*
X84802400Y-7842600D01*
X84802400Y-8077200D02*
X84802400Y-8921900D01*
X66090300Y-50220400D02*
X62050000Y-46180100D01*
X62050000Y-46180100D02*
X62050000Y-40000000D01*
X84802400Y-7842600D02*
X84802400Y-8077200D01*
X61475000Y-24095000D02*
X61475000Y-14543600D01*
X87732700Y-9766500D02*
X88918900Y-10952700D01*
X87937300Y-50220400D02*
X66090300Y-50220400D01*
X88918900Y-10952700D02*
X88918900Y-49238800D01*
X61475000Y-14543600D02*
X66254000Y-9764600D01*
X84802400Y-8921900D02*
X85647000Y-9766500D01*
X66254000Y-9764600D02*
X69715000Y-9764600D01*
X85647000Y-9766500D02*
X87732700Y-9766500D01*
%TO.N,SER_A0_B1*%
X31605800Y-7250800D02*
X30310000Y-5955000D01*
X48084500Y-7602500D02*
X47732800Y-7250800D01*
X47732800Y-7250800D02*
X31605800Y-7250800D01*
%TO.N,SER_A1_B0*%
X47090200Y-7952700D02*
X30852300Y-7952700D01*
X30852300Y-7952700D02*
X30310000Y-8495000D01*
%TO.N,GND1*%
X9632500Y-45320000D02*
X10343400Y-45320000D01*
X49690000Y-36435000D02*
X30310000Y-36435000D01*
X30310000Y-49135000D02*
X14749200Y-49135000D01*
X13160000Y-22570000D02*
X13770000Y-22570000D01*
X40914300Y-11035000D02*
X30310000Y-11035000D01*
X51286500Y-22802300D02*
X50622700Y-22802300D01*
X5452500Y-45320000D02*
X9632500Y-45320000D01*
X13160000Y-9430000D02*
X28705000Y-9430000D01*
X22871000Y-27991500D02*
X22862500Y-28000000D01*
X10343400Y-45320000D02*
X10934200Y-45320000D01*
X23988800Y-27991500D02*
X22871000Y-27991500D01*
X49690000Y-49135000D02*
X30310000Y-49135000D01*
X11179200Y-36435000D02*
X10934200Y-36680000D01*
X10343400Y-45320000D02*
X10547500Y-45115900D01*
X49690000Y-11035000D02*
X40914300Y-11035000D01*
X10547500Y-45115900D02*
X10547500Y-44250000D01*
X50622700Y-22802300D02*
X49690000Y-23735000D01*
X30310000Y-36435000D02*
X11179200Y-36435000D01*
X10934200Y-37363300D02*
X10547500Y-37750000D01*
X40914300Y-11035000D02*
X40914300Y-11065300D01*
X28705000Y-9430000D02*
X30310000Y-11035000D01*
X10934200Y-36680000D02*
X10934200Y-37363300D01*
X13770000Y-22570000D02*
X16840000Y-19500000D01*
X49690000Y-23735000D02*
X30310000Y-23735000D01*
X9632500Y-36680000D02*
X10934200Y-36680000D01*
X14749200Y-49135000D02*
X10934200Y-45320000D01*
%TO.N,SER_A2_B3*%
X30310000Y-13575000D02*
X32450000Y-13575000D01*
X34475300Y-11549700D02*
X38148100Y-11549700D01*
X38148100Y-11549700D02*
X39700300Y-13101900D01*
X32450000Y-13575000D02*
X34475300Y-11549700D01*
%TO.N,SER_A3_B2*%
X45486300Y-15597700D02*
X44969000Y-16115000D01*
X44969000Y-16115000D02*
X30310000Y-16115000D01*
%TO.N,OPTO_CATH*%
X56215200Y-26635000D02*
X52458900Y-30391300D01*
X56525000Y-26635000D02*
X56215200Y-26635000D01*
X52458900Y-30391300D02*
X52458900Y-38746100D01*
X52458900Y-38746100D02*
X49690000Y-41515000D01*
%TO.N,OPTO_3V3*%
X53087500Y-19512500D02*
X53087500Y-22000000D01*
X49690000Y-16115000D02*
X53087500Y-19512500D01*
%TO.N,VBUS1*%
X28829900Y-4770400D02*
X27815300Y-5785000D01*
X25363700Y-27773800D02*
X25137500Y-28000000D01*
X48505400Y-4770400D02*
X28829900Y-4770400D01*
X9957200Y-38550000D02*
X9568300Y-38938900D01*
X26592800Y-27773800D02*
X25363700Y-27773800D01*
X26905500Y-29207200D02*
X26905500Y-28086500D01*
X10547500Y-38550000D02*
X25462500Y-38550000D01*
X22997800Y-43450000D02*
X24554200Y-45006400D01*
X20279600Y-35833100D02*
X26905500Y-29207200D01*
X16840000Y-12500000D02*
X18778000Y-10562000D01*
X24554200Y-45006400D02*
X25906100Y-45006400D01*
X26912500Y-40000000D02*
X26912500Y-44000000D01*
X10547500Y-43450000D02*
X22997800Y-43450000D01*
X10547500Y-38550000D02*
X9957200Y-38550000D01*
X18778000Y-10562000D02*
X26592800Y-10562000D01*
X9568300Y-38938900D02*
X8674600Y-38938900D01*
X27815300Y-5785000D02*
X27815300Y-8763900D01*
X26905500Y-28086500D02*
X26592800Y-27773800D01*
X8241600Y-36453600D02*
X8862100Y-35833100D01*
X49690000Y-5955000D02*
X48505400Y-4770400D01*
X8862100Y-35833100D02*
X20279600Y-35833100D01*
X8241600Y-38505900D02*
X8241600Y-36453600D01*
X25462500Y-38550000D02*
X26912500Y-40000000D01*
X8674600Y-38938900D02*
X8241600Y-38505900D01*
X25906100Y-45006400D02*
X26912500Y-44000000D01*
%TO.N,CC1*%
X24837500Y-39750000D02*
X10547500Y-39750000D01*
X25087500Y-40000000D02*
X24837500Y-39750000D01*
%TO.N,OPTO_ANODE*%
X56525000Y-25365000D02*
X56198500Y-25365000D01*
X56198500Y-25365000D02*
X54912500Y-24079000D01*
X54912500Y-24079000D02*
X54912500Y-22000000D01*
%TO.N,USB_DP*%
X27803700Y-14845000D02*
X33857700Y-14845000D01*
X9553200Y-40750000D02*
X10547500Y-40750000D01*
X7538200Y-36162400D02*
X7538200Y-38924800D01*
X22862500Y-27050000D02*
X16650600Y-27050000D01*
X25137500Y-27050000D02*
X22862500Y-27050000D01*
X20076300Y-17000000D02*
X16840000Y-17000000D01*
X10547500Y-41750000D02*
X9849900Y-41750000D01*
X7538200Y-38924800D02*
X9363400Y-40750000D01*
X9553200Y-41453300D02*
X9553200Y-40750000D01*
X34838800Y-13863900D02*
X37408200Y-13863900D01*
X22862500Y-19786200D02*
X27803700Y-14845000D01*
X22862500Y-27050000D02*
X22862500Y-19786200D01*
X22862500Y-19786200D02*
X20076300Y-17000000D01*
X33857700Y-14845000D02*
X34838800Y-13863900D01*
X16650600Y-27050000D02*
X7538200Y-36162400D01*
X9363400Y-40750000D02*
X9553200Y-40750000D01*
X9849900Y-41750000D02*
X9553200Y-41453300D01*
%TO.N,USB_DM*%
X10547500Y-40250000D02*
X11265900Y-40250000D01*
X11266500Y-41250000D02*
X10547500Y-41250000D01*
X25192600Y-29005100D02*
X25137500Y-28950000D01*
X22862500Y-28950000D02*
X15247900Y-28950000D01*
X11578800Y-40937700D02*
X11266500Y-41250000D01*
X7889900Y-38706400D02*
X9433500Y-40250000D01*
X11578800Y-40562900D02*
X11578800Y-40937700D01*
X16840000Y-15000000D02*
X20611900Y-11228100D01*
X20611900Y-11228100D02*
X27818700Y-11228100D01*
X9433500Y-40250000D02*
X10547500Y-40250000D01*
X25137500Y-28950000D02*
X22862500Y-28950000D01*
X26362100Y-29005100D02*
X25192600Y-29005100D01*
X15247900Y-28950000D02*
X7889900Y-36308000D01*
X7889900Y-36308000D02*
X7889900Y-38706400D01*
X11265900Y-40250000D02*
X11578800Y-40562900D01*
%TO.N,CC2*%
X25087500Y-44000000D02*
X23837500Y-42750000D01*
X23837500Y-42750000D02*
X10547500Y-42750000D01*
%TD*%
M02*
