%TF.GenerationSoftware,KiCad,Pcbnew,10.0.3*%
%TF.CreationDate,2026-05-22T10:14:43+10:00*%
%TF.ProjectId,screen-hopper-compact,73637265-656e-42d6-986f-707065722d63,rev?*%
%TF.SameCoordinates,Original*%
%TF.FileFunction,Paste,Top*%
%TF.FilePolarity,Positive*%
%FSLAX46Y46*%
G04 Gerber Fmt 4.6, Leading zero omitted, Abs format (unit mm)*
G04 Created by KiCad (PCBNEW 10.0.3) date 2026-05-22 10:14:43*
%MOMM*%
%LPD*%
G01*
G04 APERTURE LIST*
G04 Aperture macros list*
%AMRoundRect*
0 Rectangle with rounded corners*
0 $1 Rounding radius*
0 $2 $3 $4 $5 $6 $7 $8 $9 X,Y pos of 4 corners*
0 Add a 4 corners polygon primitive as box body*
4,1,4,$2,$3,$4,$5,$6,$7,$8,$9,$2,$3,0*
0 Add four circle primitives for the rounded corners*
1,1,$1+$1,$2,$3*
1,1,$1+$1,$4,$5*
1,1,$1+$1,$6,$7*
1,1,$1+$1,$8,$9*
0 Add four rect primitives between the rounded corners*
20,1,$1+$1,$2,$3,$4,$5,0*
20,1,$1+$1,$4,$5,$6,$7,0*
20,1,$1+$1,$6,$7,$8,$9,0*
20,1,$1+$1,$8,$9,$2,$3,0*%
G04 Aperture macros list end*
%ADD10RoundRect,0.250000X-0.262500X-0.450000X0.262500X-0.450000X0.262500X0.450000X-0.262500X0.450000X0*%
%ADD11R,3.800000X2.200000*%
%ADD12O,1.100000X1.800000*%
%ADD13R,2.200000X3.800000*%
%ADD14O,1.050000X1.450000*%
%ADD15RoundRect,0.300000X-0.450000X-0.450000X0.450000X-0.450000X0.450000X0.450000X-0.450000X0.450000X0*%
%ADD16RoundRect,0.250000X-0.250000X-0.475000X0.250000X-0.475000X0.250000X0.475000X-0.250000X0.475000X0*%
%ADD17RoundRect,0.150000X0.575000X-0.150000X0.575000X0.150000X-0.575000X0.150000X-0.575000X-0.150000X0*%
%ADD18RoundRect,0.075000X0.650000X-0.075000X0.650000X0.075000X-0.650000X0.075000X-0.650000X-0.075000X0*%
%ADD19RoundRect,0.150000X-0.825000X-0.150000X0.825000X-0.150000X0.825000X0.150000X-0.825000X0.150000X0*%
G04 APERTURE END LIST*
D10*
%TO.C,R1*%
X53087500Y-22000000D03*
X54912500Y-22000000D03*
%TD*%
D11*
%TO.C,A1*%
X30310000Y-5955000D03*
X30310000Y-8495000D03*
X30310000Y-11035000D03*
X30310000Y-13575000D03*
X30310000Y-16115000D03*
X30310000Y-18655000D03*
X30310000Y-21195000D03*
X30310000Y-23735000D03*
X30310000Y-26275000D03*
X30310000Y-28815000D03*
X30310000Y-31355000D03*
X30310000Y-33895000D03*
X30310000Y-36435000D03*
X30310000Y-38975000D03*
X30310000Y-41515000D03*
X30310000Y-44055000D03*
X30310000Y-46595000D03*
X30310000Y-49135000D03*
X30310000Y-51675000D03*
X30310000Y-54215000D03*
D12*
X37275000Y-6085000D03*
D13*
X37460000Y-54785000D03*
D14*
X37575000Y-9115000D03*
D13*
X40000000Y-54785000D03*
D14*
X42425000Y-9115000D03*
D13*
X42540000Y-54785000D03*
D12*
X42725000Y-6085000D03*
D11*
X49690000Y-5955000D03*
X49690000Y-8495000D03*
X49690000Y-11035000D03*
X49690000Y-13575000D03*
X49690000Y-16115000D03*
X49690000Y-18655000D03*
X49690000Y-21195000D03*
X49690000Y-23735000D03*
X49690000Y-26275000D03*
X49690000Y-28815000D03*
X49690000Y-31355000D03*
X49690000Y-33895000D03*
X49690000Y-36435000D03*
X49690000Y-38975000D03*
X49690000Y-41515000D03*
X49690000Y-44055000D03*
X49690000Y-46595000D03*
X49690000Y-49135000D03*
X49690000Y-51675000D03*
X49690000Y-54215000D03*
D15*
X40000000Y-9085000D03*
X41000000Y-5785000D03*
X39000000Y-5785000D03*
X37500000Y-12585000D03*
X37500000Y-15085000D03*
X37500000Y-17585000D03*
%TD*%
D16*
%TO.C,C1*%
X62050000Y-40000000D03*
X63950000Y-40000000D03*
%TD*%
D10*
%TO.C,R4*%
X25087500Y-44000000D03*
X26912500Y-44000000D03*
%TD*%
%TO.C,R3*%
X25087500Y-40000000D03*
X26912500Y-40000000D03*
%TD*%
%TO.C,R2*%
X63087500Y-22000000D03*
X64912500Y-22000000D03*
%TD*%
D11*
%TO.C,A3*%
X67310000Y-5955000D03*
X67310000Y-8495000D03*
X67310000Y-11035000D03*
X67310000Y-13575000D03*
X67310000Y-16115000D03*
X67310000Y-18655000D03*
X67310000Y-21195000D03*
X67310000Y-23735000D03*
X67310000Y-26275000D03*
X67310000Y-28815000D03*
X67310000Y-31355000D03*
X67310000Y-33895000D03*
X67310000Y-36435000D03*
X67310000Y-38975000D03*
X67310000Y-41515000D03*
X67310000Y-44055000D03*
X67310000Y-46595000D03*
X67310000Y-49135000D03*
X67310000Y-51675000D03*
X67310000Y-54215000D03*
D12*
X74275000Y-6085000D03*
D13*
X74460000Y-54785000D03*
D14*
X74575000Y-9115000D03*
D13*
X77000000Y-54785000D03*
D14*
X79425000Y-9115000D03*
D13*
X79540000Y-54785000D03*
D12*
X79725000Y-6085000D03*
D11*
X86690000Y-5955000D03*
X86690000Y-8495000D03*
X86690000Y-11035000D03*
X86690000Y-13575000D03*
X86690000Y-16115000D03*
X86690000Y-18655000D03*
X86690000Y-21195000D03*
X86690000Y-23735000D03*
X86690000Y-26275000D03*
X86690000Y-28815000D03*
X86690000Y-31355000D03*
X86690000Y-33895000D03*
X86690000Y-36435000D03*
X86690000Y-38975000D03*
X86690000Y-41515000D03*
X86690000Y-44055000D03*
X86690000Y-46595000D03*
X86690000Y-49135000D03*
X86690000Y-51675000D03*
X86690000Y-54215000D03*
D15*
X77000000Y-9085000D03*
X78000000Y-5785000D03*
X76000000Y-5785000D03*
X74500000Y-12585000D03*
X74500000Y-15085000D03*
X74500000Y-17585000D03*
%TD*%
D17*
%TO.C,J2*%
X12452500Y-44250000D03*
X12452500Y-43450000D03*
D18*
X12452500Y-42250000D03*
X12452500Y-41250000D03*
X12452500Y-40750000D03*
X12452500Y-39750000D03*
D17*
X12452500Y-38550000D03*
X12452500Y-37750000D03*
X12452500Y-37750000D03*
X12452500Y-38550000D03*
D18*
X12452500Y-39250000D03*
X12452500Y-40250000D03*
X12452500Y-41750000D03*
X12452500Y-42750000D03*
D17*
X12452500Y-43450000D03*
X12452500Y-44250000D03*
%TD*%
D19*
%TO.C,U1*%
X56525000Y-24095000D03*
X56525000Y-25365000D03*
X56525000Y-26635000D03*
X56525000Y-27905000D03*
X61475000Y-27905000D03*
X61475000Y-26635000D03*
X61475000Y-25365000D03*
X61475000Y-24095000D03*
%TD*%
M02*
