%TF.GenerationSoftware,KiCad,Pcbnew,10.0.3*%
%TF.CreationDate,2026-05-22T10:14:43+10:00*%
%TF.ProjectId,screen-hopper-compact,73637265-656e-42d6-986f-707065722d63,rev?*%
%TF.SameCoordinates,Original*%
%TF.FileFunction,Legend,Top*%
%TF.FilePolarity,Positive*%
%FSLAX46Y46*%
G04 Gerber Fmt 4.6, Leading zero omitted, Abs format (unit mm)*
G04 Created by KiCad (PCBNEW 10.0.3) date 2026-05-22 10:14:43*
%MOMM*%
%LPD*%
G01*
G04 APERTURE LIST*
%ADD10C,0.150000*%
%ADD11C,0.120000*%
G04 APERTURE END LIST*
D10*
X53833333Y-20804819D02*
X53500000Y-20328628D01*
X53261905Y-20804819D02*
X53261905Y-19804819D01*
X53261905Y-19804819D02*
X53642857Y-19804819D01*
X53642857Y-19804819D02*
X53738095Y-19852438D01*
X53738095Y-19852438D02*
X53785714Y-19900057D01*
X53785714Y-19900057D02*
X53833333Y-19995295D01*
X53833333Y-19995295D02*
X53833333Y-20138152D01*
X53833333Y-20138152D02*
X53785714Y-20233390D01*
X53785714Y-20233390D02*
X53738095Y-20281009D01*
X53738095Y-20281009D02*
X53642857Y-20328628D01*
X53642857Y-20328628D02*
X53261905Y-20328628D01*
X54785714Y-20804819D02*
X54214286Y-20804819D01*
X54500000Y-20804819D02*
X54500000Y-19804819D01*
X54500000Y-19804819D02*
X54404762Y-19947676D01*
X54404762Y-19947676D02*
X54309524Y-20042914D01*
X54309524Y-20042914D02*
X54214286Y-20090533D01*
X52036660Y-55019104D02*
X52512850Y-55019104D01*
X51941422Y-55304819D02*
X52274755Y-54304819D01*
X52274755Y-54304819D02*
X52608088Y-55304819D01*
X53465231Y-55304819D02*
X52893803Y-55304819D01*
X53179517Y-55304819D02*
X53179517Y-54304819D01*
X53179517Y-54304819D02*
X53084279Y-54447676D01*
X53084279Y-54447676D02*
X52989041Y-54542914D01*
X52989041Y-54542914D02*
X52893803Y-54590533D01*
X62833333Y-38679580D02*
X62785714Y-38727200D01*
X62785714Y-38727200D02*
X62642857Y-38774819D01*
X62642857Y-38774819D02*
X62547619Y-38774819D01*
X62547619Y-38774819D02*
X62404762Y-38727200D01*
X62404762Y-38727200D02*
X62309524Y-38631961D01*
X62309524Y-38631961D02*
X62261905Y-38536723D01*
X62261905Y-38536723D02*
X62214286Y-38346247D01*
X62214286Y-38346247D02*
X62214286Y-38203390D01*
X62214286Y-38203390D02*
X62261905Y-38012914D01*
X62261905Y-38012914D02*
X62309524Y-37917676D01*
X62309524Y-37917676D02*
X62404762Y-37822438D01*
X62404762Y-37822438D02*
X62547619Y-37774819D01*
X62547619Y-37774819D02*
X62642857Y-37774819D01*
X62642857Y-37774819D02*
X62785714Y-37822438D01*
X62785714Y-37822438D02*
X62833333Y-37870057D01*
X63785714Y-38774819D02*
X63214286Y-38774819D01*
X63500000Y-38774819D02*
X63500000Y-37774819D01*
X63500000Y-37774819D02*
X63404762Y-37917676D01*
X63404762Y-37917676D02*
X63309524Y-38012914D01*
X63309524Y-38012914D02*
X63214286Y-38060533D01*
X25833333Y-42804819D02*
X25500000Y-42328628D01*
X25261905Y-42804819D02*
X25261905Y-41804819D01*
X25261905Y-41804819D02*
X25642857Y-41804819D01*
X25642857Y-41804819D02*
X25738095Y-41852438D01*
X25738095Y-41852438D02*
X25785714Y-41900057D01*
X25785714Y-41900057D02*
X25833333Y-41995295D01*
X25833333Y-41995295D02*
X25833333Y-42138152D01*
X25833333Y-42138152D02*
X25785714Y-42233390D01*
X25785714Y-42233390D02*
X25738095Y-42281009D01*
X25738095Y-42281009D02*
X25642857Y-42328628D01*
X25642857Y-42328628D02*
X25261905Y-42328628D01*
X26690476Y-42138152D02*
X26690476Y-42804819D01*
X26452381Y-41757200D02*
X26214286Y-42471485D01*
X26214286Y-42471485D02*
X26833333Y-42471485D01*
X25833333Y-38804819D02*
X25500000Y-38328628D01*
X25261905Y-38804819D02*
X25261905Y-37804819D01*
X25261905Y-37804819D02*
X25642857Y-37804819D01*
X25642857Y-37804819D02*
X25738095Y-37852438D01*
X25738095Y-37852438D02*
X25785714Y-37900057D01*
X25785714Y-37900057D02*
X25833333Y-37995295D01*
X25833333Y-37995295D02*
X25833333Y-38138152D01*
X25833333Y-38138152D02*
X25785714Y-38233390D01*
X25785714Y-38233390D02*
X25738095Y-38281009D01*
X25738095Y-38281009D02*
X25642857Y-38328628D01*
X25642857Y-38328628D02*
X25261905Y-38328628D01*
X26166667Y-37804819D02*
X26785714Y-37804819D01*
X26785714Y-37804819D02*
X26452381Y-38185771D01*
X26452381Y-38185771D02*
X26595238Y-38185771D01*
X26595238Y-38185771D02*
X26690476Y-38233390D01*
X26690476Y-38233390D02*
X26738095Y-38281009D01*
X26738095Y-38281009D02*
X26785714Y-38376247D01*
X26785714Y-38376247D02*
X26785714Y-38614342D01*
X26785714Y-38614342D02*
X26738095Y-38709580D01*
X26738095Y-38709580D02*
X26690476Y-38757200D01*
X26690476Y-38757200D02*
X26595238Y-38804819D01*
X26595238Y-38804819D02*
X26309524Y-38804819D01*
X26309524Y-38804819D02*
X26214286Y-38757200D01*
X26214286Y-38757200D02*
X26166667Y-38709580D01*
X63833333Y-20804819D02*
X63500000Y-20328628D01*
X63261905Y-20804819D02*
X63261905Y-19804819D01*
X63261905Y-19804819D02*
X63642857Y-19804819D01*
X63642857Y-19804819D02*
X63738095Y-19852438D01*
X63738095Y-19852438D02*
X63785714Y-19900057D01*
X63785714Y-19900057D02*
X63833333Y-19995295D01*
X63833333Y-19995295D02*
X63833333Y-20138152D01*
X63833333Y-20138152D02*
X63785714Y-20233390D01*
X63785714Y-20233390D02*
X63738095Y-20281009D01*
X63738095Y-20281009D02*
X63642857Y-20328628D01*
X63642857Y-20328628D02*
X63261905Y-20328628D01*
X64214286Y-19900057D02*
X64261905Y-19852438D01*
X64261905Y-19852438D02*
X64357143Y-19804819D01*
X64357143Y-19804819D02*
X64595238Y-19804819D01*
X64595238Y-19804819D02*
X64690476Y-19852438D01*
X64690476Y-19852438D02*
X64738095Y-19900057D01*
X64738095Y-19900057D02*
X64785714Y-19995295D01*
X64785714Y-19995295D02*
X64785714Y-20090533D01*
X64785714Y-20090533D02*
X64738095Y-20233390D01*
X64738095Y-20233390D02*
X64166667Y-20804819D01*
X64166667Y-20804819D02*
X64785714Y-20804819D01*
X89036660Y-55019104D02*
X89512850Y-55019104D01*
X88941422Y-55304819D02*
X89274755Y-54304819D01*
X89274755Y-54304819D02*
X89608088Y-55304819D01*
X89846184Y-54304819D02*
X90465231Y-54304819D01*
X90465231Y-54304819D02*
X90131898Y-54685771D01*
X90131898Y-54685771D02*
X90274755Y-54685771D01*
X90274755Y-54685771D02*
X90369993Y-54733390D01*
X90369993Y-54733390D02*
X90417612Y-54781009D01*
X90417612Y-54781009D02*
X90465231Y-54876247D01*
X90465231Y-54876247D02*
X90465231Y-55114342D01*
X90465231Y-55114342D02*
X90417612Y-55209580D01*
X90417612Y-55209580D02*
X90369993Y-55257200D01*
X90369993Y-55257200D02*
X90274755Y-55304819D01*
X90274755Y-55304819D02*
X89989041Y-55304819D01*
X89989041Y-55304819D02*
X89893803Y-55257200D01*
X89893803Y-55257200D02*
X89846184Y-55209580D01*
X10749819Y-21783333D02*
X11464104Y-21783333D01*
X11464104Y-21783333D02*
X11606961Y-21830952D01*
X11606961Y-21830952D02*
X11702200Y-21926190D01*
X11702200Y-21926190D02*
X11749819Y-22069047D01*
X11749819Y-22069047D02*
X11749819Y-22164285D01*
X11749819Y-20783333D02*
X11749819Y-21354761D01*
X11749819Y-21069047D02*
X10749819Y-21069047D01*
X10749819Y-21069047D02*
X10892676Y-21164285D01*
X10892676Y-21164285D02*
X10987914Y-21259523D01*
X10987914Y-21259523D02*
X11035533Y-21354761D01*
X10307319Y-41333333D02*
X11021604Y-41333333D01*
X11021604Y-41333333D02*
X11164461Y-41380952D01*
X11164461Y-41380952D02*
X11259700Y-41476190D01*
X11259700Y-41476190D02*
X11307319Y-41619047D01*
X11307319Y-41619047D02*
X11307319Y-41714285D01*
X10402557Y-40904761D02*
X10354938Y-40857142D01*
X10354938Y-40857142D02*
X10307319Y-40761904D01*
X10307319Y-40761904D02*
X10307319Y-40523809D01*
X10307319Y-40523809D02*
X10354938Y-40428571D01*
X10354938Y-40428571D02*
X10402557Y-40380952D01*
X10402557Y-40380952D02*
X10497795Y-40333333D01*
X10497795Y-40333333D02*
X10593033Y-40333333D01*
X10593033Y-40333333D02*
X10735890Y-40380952D01*
X10735890Y-40380952D02*
X11307319Y-40952380D01*
X11307319Y-40952380D02*
X11307319Y-40333333D01*
X58238095Y-22054819D02*
X58238095Y-22864342D01*
X58238095Y-22864342D02*
X58285714Y-22959580D01*
X58285714Y-22959580D02*
X58333333Y-23007200D01*
X58333333Y-23007200D02*
X58428571Y-23054819D01*
X58428571Y-23054819D02*
X58619047Y-23054819D01*
X58619047Y-23054819D02*
X58714285Y-23007200D01*
X58714285Y-23007200D02*
X58761904Y-22959580D01*
X58761904Y-22959580D02*
X58809523Y-22864342D01*
X58809523Y-22864342D02*
X58809523Y-22054819D01*
X59809523Y-23054819D02*
X59238095Y-23054819D01*
X59523809Y-23054819D02*
X59523809Y-22054819D01*
X59523809Y-22054819D02*
X59428571Y-22197676D01*
X59428571Y-22197676D02*
X59333333Y-22292914D01*
X59333333Y-22292914D02*
X59238095Y-22340533D01*
%TO.C,R1*%
D11*
X53772936Y-21265000D02*
X54227064Y-21265000D01*
X53772936Y-22735000D02*
X54227064Y-22735000D01*
%TO.C,A1*%
X29390000Y-7015000D02*
X28910000Y-7015000D01*
X29390000Y-7015000D02*
X29390000Y-7435000D01*
X29390000Y-9555000D02*
X29390000Y-9975000D01*
X29390000Y-12095000D02*
X29390000Y-12515000D01*
X29390000Y-14635000D02*
X29390000Y-15055000D01*
X29390000Y-17175000D02*
X29390000Y-17595000D01*
X29390000Y-19715000D02*
X29390000Y-20135000D01*
X29390000Y-22255000D02*
X29390000Y-22675000D01*
X29390000Y-24795000D02*
X29390000Y-25215000D01*
X29390000Y-27335000D02*
X29390000Y-27755000D01*
X29390000Y-29875000D02*
X29390000Y-30295000D01*
X29390000Y-32415000D02*
X29390000Y-32835000D01*
X29390000Y-34955000D02*
X29390000Y-35375000D01*
X29390000Y-37495000D02*
X29390000Y-37915000D01*
X29390000Y-40035000D02*
X29390000Y-40455000D01*
X29390000Y-42575000D02*
X29390000Y-42995000D01*
X29390000Y-45115000D02*
X29390000Y-45535000D01*
X29390000Y-47655000D02*
X29390000Y-48075000D01*
X29390000Y-50195000D02*
X29390000Y-50615000D01*
X29390000Y-52735000D02*
X29390000Y-53155000D01*
X29420324Y-4895000D02*
X28910000Y-4895000D01*
X30000000Y-4475000D02*
X32490000Y-4475000D01*
X30000000Y-55695000D02*
X33837939Y-55695000D01*
X32490000Y-4475000D02*
X33837940Y-4475000D01*
X34762061Y-4475000D02*
X35765000Y-4475000D01*
X35765000Y-4475000D02*
X44235000Y-4475000D01*
X36400000Y-55695000D02*
X34762061Y-55695000D01*
X38520000Y-55695000D02*
X38940000Y-55695000D01*
X41060000Y-55695000D02*
X41480000Y-55695000D01*
X44235000Y-4475000D02*
X45237939Y-4475000D01*
X45237939Y-55695000D02*
X43600000Y-55695000D01*
X46162061Y-4475000D02*
X47510000Y-4475000D01*
X46162061Y-55695000D02*
X50000000Y-55695000D01*
X50000000Y-4475000D02*
X47510000Y-4475000D01*
X50610000Y-7015000D02*
X50610000Y-7435000D01*
X50610000Y-9555000D02*
X50610000Y-9975000D01*
X50610000Y-12095000D02*
X50610000Y-12515000D01*
X50610000Y-14635000D02*
X50610000Y-15055000D01*
X50610000Y-17175000D02*
X50610000Y-17595000D01*
X50610000Y-19715000D02*
X50610000Y-20135000D01*
X50610000Y-22255000D02*
X50610000Y-22675000D01*
X50610000Y-24795000D02*
X50610000Y-25215000D01*
X50610000Y-27335000D02*
X50610000Y-27755000D01*
X50610000Y-29875000D02*
X50610000Y-30295000D01*
X50610000Y-32415000D02*
X50610000Y-32835000D01*
X50610000Y-34955000D02*
X50610000Y-35375000D01*
X50610000Y-37495000D02*
X50610000Y-37915000D01*
X50610000Y-40035000D02*
X50610000Y-40455000D01*
X50610000Y-42575000D02*
X50610000Y-42995000D01*
X50610000Y-45115000D02*
X50610000Y-45535000D01*
X50610000Y-47655000D02*
X50610000Y-48075000D01*
X50610000Y-50195000D02*
X50610000Y-50615000D01*
X50610000Y-52735000D02*
X50610000Y-53155000D01*
X29420324Y-4895000D02*
G75*
G02*
X30000000Y-4475000I579692J-190051D01*
G01*
X30000000Y-55695000D02*
G75*
G02*
X29420324Y-55274937I1J610002D01*
G01*
X50000000Y-4475000D02*
G75*
G02*
X50579676Y-4895063I0J-610000D01*
G01*
X50579676Y-55274937D02*
G75*
G02*
X50000000Y-55694948I-579476J189737D01*
G01*
%TO.C,C1*%
X62738748Y-39265000D02*
X63261252Y-39265000D01*
X62738748Y-40735000D02*
X63261252Y-40735000D01*
%TO.C,R4*%
X25772936Y-43265000D02*
X26227064Y-43265000D01*
X25772936Y-44735000D02*
X26227064Y-44735000D01*
%TO.C,R3*%
X25772936Y-39265000D02*
X26227064Y-39265000D01*
X25772936Y-40735000D02*
X26227064Y-40735000D01*
%TO.C,R2*%
X63772936Y-21265000D02*
X64227064Y-21265000D01*
X63772936Y-22735000D02*
X64227064Y-22735000D01*
%TO.C,A3*%
X66390000Y-7015000D02*
X65910000Y-7015000D01*
X66390000Y-7015000D02*
X66390000Y-7435000D01*
X66390000Y-9555000D02*
X66390000Y-9975000D01*
X66390000Y-12095000D02*
X66390000Y-12515000D01*
X66390000Y-14635000D02*
X66390000Y-15055000D01*
X66390000Y-17175000D02*
X66390000Y-17595000D01*
X66390000Y-19715000D02*
X66390000Y-20135000D01*
X66390000Y-22255000D02*
X66390000Y-22675000D01*
X66390000Y-24795000D02*
X66390000Y-25215000D01*
X66390000Y-27335000D02*
X66390000Y-27755000D01*
X66390000Y-29875000D02*
X66390000Y-30295000D01*
X66390000Y-32415000D02*
X66390000Y-32835000D01*
X66390000Y-34955000D02*
X66390000Y-35375000D01*
X66390000Y-37495000D02*
X66390000Y-37915000D01*
X66390000Y-40035000D02*
X66390000Y-40455000D01*
X66390000Y-42575000D02*
X66390000Y-42995000D01*
X66390000Y-45115000D02*
X66390000Y-45535000D01*
X66390000Y-47655000D02*
X66390000Y-48075000D01*
X66390000Y-50195000D02*
X66390000Y-50615000D01*
X66390000Y-52735000D02*
X66390000Y-53155000D01*
X66420324Y-4895000D02*
X65910000Y-4895000D01*
X67000000Y-4475000D02*
X69490000Y-4475000D01*
X67000000Y-55695000D02*
X70837939Y-55695000D01*
X69490000Y-4475000D02*
X70837940Y-4475000D01*
X71762061Y-4475000D02*
X72765000Y-4475000D01*
X72765000Y-4475000D02*
X81235000Y-4475000D01*
X73400000Y-55695000D02*
X71762061Y-55695000D01*
X75520000Y-55695000D02*
X75940000Y-55695000D01*
X78060000Y-55695000D02*
X78480000Y-55695000D01*
X81235000Y-4475000D02*
X82237939Y-4475000D01*
X82237939Y-55695000D02*
X80600000Y-55695000D01*
X83162061Y-4475000D02*
X84510000Y-4475000D01*
X83162061Y-55695000D02*
X87000000Y-55695000D01*
X87000000Y-4475000D02*
X84510000Y-4475000D01*
X87610000Y-7015000D02*
X87610000Y-7435000D01*
X87610000Y-9555000D02*
X87610000Y-9975000D01*
X87610000Y-12095000D02*
X87610000Y-12515000D01*
X87610000Y-14635000D02*
X87610000Y-15055000D01*
X87610000Y-17175000D02*
X87610000Y-17595000D01*
X87610000Y-19715000D02*
X87610000Y-20135000D01*
X87610000Y-22255000D02*
X87610000Y-22675000D01*
X87610000Y-24795000D02*
X87610000Y-25215000D01*
X87610000Y-27335000D02*
X87610000Y-27755000D01*
X87610000Y-29875000D02*
X87610000Y-30295000D01*
X87610000Y-32415000D02*
X87610000Y-32835000D01*
X87610000Y-34955000D02*
X87610000Y-35375000D01*
X87610000Y-37495000D02*
X87610000Y-37915000D01*
X87610000Y-40035000D02*
X87610000Y-40455000D01*
X87610000Y-42575000D02*
X87610000Y-42995000D01*
X87610000Y-45115000D02*
X87610000Y-45535000D01*
X87610000Y-47655000D02*
X87610000Y-48075000D01*
X87610000Y-50195000D02*
X87610000Y-50615000D01*
X87610000Y-52735000D02*
X87610000Y-53155000D01*
X66420324Y-4895000D02*
G75*
G02*
X67000000Y-4475000I579692J-190051D01*
G01*
X67000000Y-55695000D02*
G75*
G02*
X66420324Y-55274937I1J610002D01*
G01*
X87000000Y-4475000D02*
G75*
G02*
X87579676Y-4895063I0J-610000D01*
G01*
X87579676Y-55274937D02*
G75*
G02*
X87000000Y-55694948I-579476J189737D01*
G01*
%TO.C,J1*%
X12525000Y-19200000D02*
X12525000Y-9240000D01*
X12525000Y-22760000D02*
X12525000Y-19800000D01*
X14345000Y-9240000D02*
X12525000Y-9240000D01*
X14345000Y-22760000D02*
X12525000Y-22760000D01*
X12525000Y-19500000D02*
X12055000Y-19840000D01*
X12055000Y-19160000D01*
X12525000Y-19500000D01*
G36*
X12525000Y-19500000D02*
G01*
X12055000Y-19840000D01*
X12055000Y-19160000D01*
X12525000Y-19500000D01*
G37*
%TO.C,J2*%
X14597500Y-36300000D02*
X16597500Y-36300000D01*
X14597500Y-45700000D02*
X16597500Y-45700000D01*
X18497500Y-36300000D02*
X20397500Y-36300000D01*
X18497500Y-45700000D02*
X20397500Y-45700000D01*
X20397500Y-45700000D02*
X20397500Y-36300000D01*
%TO.C,U1*%
X56940000Y-23440000D02*
X61060000Y-23440000D01*
X56940000Y-23535000D02*
X56940000Y-23440000D01*
X56940000Y-28560000D02*
X56940000Y-28465000D01*
X61060000Y-23440000D02*
X61060000Y-23535000D01*
X61060000Y-28465000D02*
X61060000Y-28560000D01*
X61060000Y-28560000D02*
X56940000Y-28560000D01*
X56400000Y-23530000D02*
X56160000Y-23200000D01*
X56640000Y-23200000D01*
X56400000Y-23530000D01*
G36*
X56400000Y-23530000D02*
G01*
X56160000Y-23200000D01*
X56640000Y-23200000D01*
X56400000Y-23530000D01*
G37*
%TD*%
M02*
