%TF.GenerationSoftware,KiCad,Pcbnew,10.0.3*%
%TF.CreationDate,2026-05-22T10:14:43+10:00*%
%TF.ProjectId,screen-hopper-compact,73637265-656e-42d6-986f-707065722d63,rev?*%
%TF.SameCoordinates,Original*%
%TF.FileFunction,Soldermask,Bot*%
%TF.FilePolarity,Negative*%
%FSLAX46Y46*%
G04 Gerber Fmt 4.6, Leading zero omitted, Abs format (unit mm)*
G04 Created by KiCad (PCBNEW 10.0.3) date 2026-05-22 10:14:43*
%MOMM*%
%LPD*%
G01*
G04 APERTURE LIST*
G04 Aperture macros list*
%AMRoundRect*
0 Rectangle with rounded corners*
0 $1 Rounding radius*
0 $2 $3 $4 $5 $6 $7 $8 $9 X,Y pos of 4 corners*
0 Add a 4 corners polygon primitive as box body*
4,1,4,$2,$3,$4,$5,$6,$7,$8,$9,$2,$3,0*
0 Add four circle primitives for the rounded corners*
1,1,$1+$1,$2,$3*
1,1,$1+$1,$4,$5*
1,1,$1+$1,$6,$7*
1,1,$1+$1,$8,$9*
0 Add four rect primitives between the rounded corners*
20,1,$1+$1,$2,$3,$4,$5,0*
20,1,$1+$1,$4,$5,$6,$7,0*
20,1,$1+$1,$6,$7,$8,$9,0*
20,1,$1+$1,$8,$9,$2,$3,0*%
%AMFreePoly0*
4,1,37,0.800000,0.796148,0.878414,0.796148,1.032228,0.765552,1.177117,0.705537,1.307515,0.618408,1.418408,0.507515,1.505537,0.377117,1.565552,0.232228,1.596148,0.078414,1.596148,-0.078414,1.565552,-0.232228,1.505537,-0.377117,1.418408,-0.507515,1.307515,-0.618408,1.177117,-0.705537,1.032228,-0.765552,0.878414,-0.796148,0.800000,-0.796148,0.800000,-0.800000,-1.400000,-0.800000,
-1.403843,-0.796157,-1.439018,-0.796157,-1.511114,-0.766294,-1.566294,-0.711114,-1.596157,-0.639018,-1.596157,-0.603843,-1.600000,-0.600000,-1.600000,0.600000,-1.596157,0.603843,-1.596157,0.639018,-1.566294,0.711114,-1.511114,0.766294,-1.439018,0.796157,-1.403843,0.796157,-1.400000,0.800000,0.800000,0.800000,0.800000,0.796148,0.800000,0.796148,$1*%
%AMFreePoly1*
4,1,37,1.403843,0.796157,1.439018,0.796157,1.511114,0.766294,1.566294,0.711114,1.596157,0.639018,1.596157,0.603843,1.600000,0.600000,1.600000,-0.600000,1.596157,-0.603843,1.596157,-0.639018,1.566294,-0.711114,1.511114,-0.766294,1.439018,-0.796157,1.403843,-0.796157,1.400000,-0.800000,-0.800000,-0.800000,-0.800000,-0.796148,-0.878414,-0.796148,-1.032228,-0.765552,-1.177117,-0.705537,
-1.307515,-0.618408,-1.418408,-0.507515,-1.505537,-0.377117,-1.565552,-0.232228,-1.596148,-0.078414,-1.596148,0.078414,-1.565552,0.232228,-1.505537,0.377117,-1.418408,0.507515,-1.307515,0.618408,-1.177117,0.705537,-1.032228,0.765552,-0.878414,0.796148,-0.800000,0.796148,-0.800000,0.800000,1.400000,0.800000,1.403843,0.796157,1.403843,0.796157,$1*%
%AMFreePoly2*
4,1,37,1.600000,0.796148,1.678414,0.796148,1.832228,0.765552,1.977117,0.705537,2.107515,0.618408,2.218408,0.507515,2.305537,0.377117,2.365552,0.232228,2.396148,0.078414,2.396148,-0.078414,2.365552,-0.232228,2.305537,-0.377117,2.218408,-0.507515,2.107515,-0.618408,1.977117,-0.705537,1.832228,-0.765552,1.678414,-0.796148,1.600000,-0.796148,1.600000,-0.800000,-0.600000,-0.800000,
-0.603843,-0.796157,-0.639018,-0.796157,-0.711114,-0.766294,-0.766294,-0.711114,-0.796157,-0.639018,-0.796157,-0.603843,-0.800000,-0.600000,-0.800000,0.600000,-0.796157,0.603843,-0.796157,0.639018,-0.766294,0.711114,-0.711114,0.766294,-0.639018,0.796157,-0.603843,0.796157,-0.600000,0.800000,1.600000,0.800000,1.600000,0.796148,1.600000,0.796148,$1*%
G04 Aperture macros list end*
%ADD10RoundRect,0.250000X0.512000X-0.512000X0.512000X0.512000X-0.512000X0.512000X-0.512000X-0.512000X0*%
%ADD11C,1.524000*%
%ADD12C,3.500000*%
%ADD13C,0.650000*%
%ADD14O,2.100000X1.000000*%
%ADD15O,1.600000X1.000000*%
%ADD16O,1.100000X1.800000*%
%ADD17O,1.050000X1.450000*%
%ADD18FreePoly0,180.000000*%
%ADD19RoundRect,0.800000X0.800000X0.000010X-0.800000X0.000010X-0.800000X-0.000010X0.800000X-0.000010X0*%
%ADD20FreePoly1,180.000000*%
%ADD21RoundRect,0.800000X0.000010X-0.800000X0.000010X0.800000X-0.000010X0.800000X-0.000010X-0.800000X0*%
%ADD22FreePoly2,270.000000*%
%ADD23RoundRect,0.300000X0.450000X0.450000X-0.450000X0.450000X-0.450000X-0.450000X0.450000X-0.450000X0*%
G04 APERTURE END LIST*
D10*
%TO.C,J1*%
X13645000Y-19500000D03*
D11*
X13645000Y-17000000D03*
X13645000Y-15000000D03*
X13645000Y-12500000D03*
D12*
X16355000Y-22570000D03*
X16355000Y-9430000D03*
%TD*%
D13*
%TO.C,J2*%
X13897500Y-43890000D03*
X13897500Y-38110000D03*
D14*
X13367500Y-45320000D03*
D15*
X17547500Y-45320000D03*
D14*
X13367500Y-36680000D03*
D15*
X17547500Y-36680000D03*
%TD*%
D16*
%TO.C,A2*%
X42725000Y-6085000D03*
D17*
X42425000Y-9115000D03*
X37575000Y-9115000D03*
D16*
X37275000Y-6085000D03*
D18*
X49690000Y-5955000D03*
D19*
X49690000Y-8495000D03*
D20*
X49690000Y-11035000D03*
D19*
X49690000Y-13575000D03*
X49690000Y-16115000D03*
X49690000Y-18655000D03*
X49690000Y-21195000D03*
D20*
X49690000Y-23735000D03*
D19*
X49690000Y-26275000D03*
X49690000Y-28815000D03*
X49690000Y-31355000D03*
X49690000Y-33895000D03*
D20*
X49690000Y-36435000D03*
D19*
X49690000Y-38975000D03*
X49690000Y-41515000D03*
X49690000Y-44055000D03*
X49690000Y-46595000D03*
D20*
X49690000Y-49135000D03*
D19*
X49690000Y-51675000D03*
X49690000Y-54215000D03*
X30310000Y-54215000D03*
X30310000Y-51675000D03*
D18*
X30310000Y-49135000D03*
D19*
X30310000Y-46595000D03*
X30310000Y-44055000D03*
X30310000Y-41515000D03*
X30310000Y-38975000D03*
D18*
X30310000Y-36435000D03*
D19*
X30310000Y-33895000D03*
X30310000Y-31355000D03*
X30310000Y-28815000D03*
X30310000Y-26275000D03*
D18*
X30310000Y-23735000D03*
D19*
X30310000Y-21195000D03*
X30310000Y-18655000D03*
X30310000Y-16115000D03*
X30310000Y-13575000D03*
D18*
X30310000Y-11035000D03*
D19*
X30310000Y-8495000D03*
X30310000Y-5955000D03*
D21*
X42540000Y-54785000D03*
D22*
X40000000Y-53985000D03*
D21*
X37460000Y-54785000D03*
D23*
X40000000Y-9085000D03*
X39000000Y-5785000D03*
X41000000Y-5785000D03*
X42500000Y-12585000D03*
X42500000Y-15085000D03*
X42500000Y-17585000D03*
%TD*%
M02*
