%TF.GenerationSoftware,KiCad,Pcbnew,10.0.3*%
%TF.CreationDate,2026-05-22T10:14:43+10:00*%
%TF.ProjectId,screen-hopper-compact,73637265-656e-42d6-986f-707065722d63,rev?*%
%TF.SameCoordinates,Original*%
%TF.FileFunction,Soldermask,Top*%
%TF.FilePolarity,Negative*%
%FSLAX46Y46*%
G04 Gerber Fmt 4.6, Leading zero omitted, Abs format (unit mm)*
G04 Created by KiCad (PCBNEW 10.0.3) date 2026-05-22 10:14:43*
%MOMM*%
%LPD*%
G01*
G04 APERTURE LIST*
G04 Aperture macros list*
%AMRoundRect*
0 Rectangle with rounded corners*
0 $1 Rounding radius*
0 $2 $3 $4 $5 $6 $7 $8 $9 X,Y pos of 4 corners*
0 Add a 4 corners polygon primitive as box body*
4,1,4,$2,$3,$4,$5,$6,$7,$8,$9,$2,$3,0*
0 Add four circle primitives for the rounded corners*
1,1,$1+$1,$2,$3*
1,1,$1+$1,$4,$5*
1,1,$1+$1,$6,$7*
1,1,$1+$1,$8,$9*
0 Add four rect primitives between the rounded corners*
20,1,$1+$1,$2,$3,$4,$5,0*
20,1,$1+$1,$4,$5,$6,$7,0*
20,1,$1+$1,$6,$7,$8,$9,0*
20,1,$1+$1,$8,$9,$2,$3,0*%
%AMFreePoly0*
4,1,37,0.800000,0.796148,0.878414,0.796148,1.032228,0.765552,1.177117,0.705537,1.307515,0.618408,1.418408,0.507515,1.505537,0.377117,1.565552,0.232228,1.596148,0.078414,1.596148,-0.078414,1.565552,-0.232228,1.505537,-0.377117,1.418408,-0.507515,1.307515,-0.618408,1.177117,-0.705537,1.032228,-0.765552,0.878414,-0.796148,0.800000,-0.796148,0.800000,-0.800000,-1.400000,-0.800000,
-1.403843,-0.796157,-1.439018,-0.796157,-1.511114,-0.766294,-1.566294,-0.711114,-1.596157,-0.639018,-1.596157,-0.603843,-1.600000,-0.600000,-1.600000,0.600000,-1.596157,0.603843,-1.596157,0.639018,-1.566294,0.711114,-1.511114,0.766294,-1.439018,0.796157,-1.403843,0.796157,-1.400000,0.800000,0.800000,0.800000,0.800000,0.796148,0.800000,0.796148,$1*%
%AMFreePoly1*
4,1,37,1.403843,0.796157,1.439018,0.796157,1.511114,0.766294,1.566294,0.711114,1.596157,0.639018,1.596157,0.603843,1.600000,0.600000,1.600000,-0.600000,1.596157,-0.603843,1.596157,-0.639018,1.566294,-0.711114,1.511114,-0.766294,1.439018,-0.796157,1.403843,-0.796157,1.400000,-0.800000,-0.800000,-0.800000,-0.800000,-0.796148,-0.878414,-0.796148,-1.032228,-0.765552,-1.177117,-0.705537,
-1.307515,-0.618408,-1.418408,-0.507515,-1.505537,-0.377117,-1.565552,-0.232228,-1.596148,-0.078414,-1.596148,0.078414,-1.565552,0.232228,-1.505537,0.377117,-1.418408,0.507515,-1.307515,0.618408,-1.177117,0.705537,-1.032228,0.765552,-0.878414,0.796148,-0.800000,0.796148,-0.800000,0.800000,1.400000,0.800000,1.403843,0.796157,1.403843,0.796157,$1*%
%AMFreePoly2*
4,1,37,1.600000,0.796148,1.678414,0.796148,1.832228,0.765552,1.977117,0.705537,2.107515,0.618408,2.218408,0.507515,2.305537,0.377117,2.365552,0.232228,2.396148,0.078414,2.396148,-0.078414,2.365552,-0.232228,2.305537,-0.377117,2.218408,-0.507515,2.107515,-0.618408,1.977117,-0.705537,1.832228,-0.765552,1.678414,-0.796148,1.600000,-0.796148,1.600000,-0.800000,-0.600000,-0.800000,
-0.603843,-0.796157,-0.639018,-0.796157,-0.711114,-0.766294,-0.766294,-0.711114,-0.796157,-0.639018,-0.796157,-0.603843,-0.800000,-0.600000,-0.800000,0.600000,-0.796157,0.603843,-0.796157,0.639018,-0.766294,0.711114,-0.711114,0.766294,-0.639018,0.796157,-0.603843,0.796157,-0.600000,0.800000,1.600000,0.800000,1.600000,0.796148,1.600000,0.796148,$1*%
G04 Aperture macros list end*
%ADD10RoundRect,0.250000X-0.262500X-0.450000X0.262500X-0.450000X0.262500X0.450000X-0.262500X0.450000X0*%
%ADD11O,1.100000X1.800000*%
%ADD12O,1.050000X1.450000*%
%ADD13FreePoly0,0.000000*%
%ADD14RoundRect,0.800000X-0.800000X-0.000010X0.800000X-0.000010X0.800000X0.000010X-0.800000X0.000010X0*%
%ADD15FreePoly1,0.000000*%
%ADD16RoundRect,0.800000X0.000010X-0.800000X0.000010X0.800000X-0.000010X0.800000X-0.000010X-0.800000X0*%
%ADD17FreePoly2,270.000000*%
%ADD18RoundRect,0.300000X-0.450000X-0.450000X0.450000X-0.450000X0.450000X0.450000X-0.450000X0.450000X0*%
%ADD19RoundRect,0.250000X-0.250000X-0.475000X0.250000X-0.475000X0.250000X0.475000X-0.250000X0.475000X0*%
%ADD20RoundRect,0.250000X0.512000X-0.512000X0.512000X0.512000X-0.512000X0.512000X-0.512000X-0.512000X0*%
%ADD21C,1.524000*%
%ADD22C,3.500000*%
%ADD23C,0.650000*%
%ADD24RoundRect,0.150000X0.575000X-0.150000X0.575000X0.150000X-0.575000X0.150000X-0.575000X-0.150000X0*%
%ADD25RoundRect,0.075000X0.650000X-0.075000X0.650000X0.075000X-0.650000X0.075000X-0.650000X-0.075000X0*%
%ADD26O,2.100000X1.000000*%
%ADD27O,1.600000X1.000000*%
%ADD28RoundRect,0.150000X-0.825000X-0.150000X0.825000X-0.150000X0.825000X0.150000X-0.825000X0.150000X0*%
G04 APERTURE END LIST*
D10*
%TO.C,R1*%
X53087500Y-22000000D03*
X54912500Y-22000000D03*
%TD*%
D11*
%TO.C,A1*%
X37275000Y-6085000D03*
D12*
X37575000Y-9115000D03*
X42425000Y-9115000D03*
D11*
X42725000Y-6085000D03*
D13*
X30310000Y-5955000D03*
D14*
X30310000Y-8495000D03*
D15*
X30310000Y-11035000D03*
D14*
X30310000Y-13575000D03*
X30310000Y-16115000D03*
X30310000Y-18655000D03*
X30310000Y-21195000D03*
D15*
X30310000Y-23735000D03*
D14*
X30310000Y-26275000D03*
X30310000Y-28815000D03*
X30310000Y-31355000D03*
X30310000Y-33895000D03*
D15*
X30310000Y-36435000D03*
D14*
X30310000Y-38975000D03*
X30310000Y-41515000D03*
X30310000Y-44055000D03*
X30310000Y-46595000D03*
D15*
X30310000Y-49135000D03*
D14*
X30310000Y-51675000D03*
X30310000Y-54215000D03*
X49690000Y-54215000D03*
X49690000Y-51675000D03*
D13*
X49690000Y-49135000D03*
D14*
X49690000Y-46595000D03*
X49690000Y-44055000D03*
X49690000Y-41515000D03*
X49690000Y-38975000D03*
D13*
X49690000Y-36435000D03*
D14*
X49690000Y-33895000D03*
X49690000Y-31355000D03*
X49690000Y-28815000D03*
X49690000Y-26275000D03*
D13*
X49690000Y-23735000D03*
D14*
X49690000Y-21195000D03*
X49690000Y-18655000D03*
X49690000Y-16115000D03*
X49690000Y-13575000D03*
D13*
X49690000Y-11035000D03*
D14*
X49690000Y-8495000D03*
X49690000Y-5955000D03*
D16*
X37460000Y-54785000D03*
D17*
X40000000Y-53985000D03*
D16*
X42540000Y-54785000D03*
D18*
X40000000Y-9085000D03*
X41000000Y-5785000D03*
X39000000Y-5785000D03*
X37500000Y-12585000D03*
X37500000Y-15085000D03*
X37500000Y-17585000D03*
%TD*%
D19*
%TO.C,C1*%
X62050000Y-40000000D03*
X63950000Y-40000000D03*
%TD*%
D10*
%TO.C,R4*%
X25087500Y-44000000D03*
X26912500Y-44000000D03*
%TD*%
%TO.C,R3*%
X25087500Y-40000000D03*
X26912500Y-40000000D03*
%TD*%
%TO.C,R2*%
X63087500Y-22000000D03*
X64912500Y-22000000D03*
%TD*%
D11*
%TO.C,A3*%
X74275000Y-6085000D03*
D12*
X74575000Y-9115000D03*
X79425000Y-9115000D03*
D11*
X79725000Y-6085000D03*
D13*
X67310000Y-5955000D03*
D14*
X67310000Y-8495000D03*
D15*
X67310000Y-11035000D03*
D14*
X67310000Y-13575000D03*
X67310000Y-16115000D03*
X67310000Y-18655000D03*
X67310000Y-21195000D03*
D15*
X67310000Y-23735000D03*
D14*
X67310000Y-26275000D03*
X67310000Y-28815000D03*
X67310000Y-31355000D03*
X67310000Y-33895000D03*
D15*
X67310000Y-36435000D03*
D14*
X67310000Y-38975000D03*
X67310000Y-41515000D03*
X67310000Y-44055000D03*
X67310000Y-46595000D03*
D15*
X67310000Y-49135000D03*
D14*
X67310000Y-51675000D03*
X67310000Y-54215000D03*
X86690000Y-54215000D03*
X86690000Y-51675000D03*
D13*
X86690000Y-49135000D03*
D14*
X86690000Y-46595000D03*
X86690000Y-44055000D03*
X86690000Y-41515000D03*
X86690000Y-38975000D03*
D13*
X86690000Y-36435000D03*
D14*
X86690000Y-33895000D03*
X86690000Y-31355000D03*
X86690000Y-28815000D03*
X86690000Y-26275000D03*
D13*
X86690000Y-23735000D03*
D14*
X86690000Y-21195000D03*
X86690000Y-18655000D03*
X86690000Y-16115000D03*
X86690000Y-13575000D03*
D13*
X86690000Y-11035000D03*
D14*
X86690000Y-8495000D03*
X86690000Y-5955000D03*
D16*
X74460000Y-54785000D03*
D17*
X77000000Y-53985000D03*
D16*
X79540000Y-54785000D03*
D18*
X77000000Y-9085000D03*
X78000000Y-5785000D03*
X76000000Y-5785000D03*
X74500000Y-12585000D03*
X74500000Y-15085000D03*
X74500000Y-17585000D03*
%TD*%
D20*
%TO.C,J1*%
X13645000Y-19500000D03*
D21*
X13645000Y-17000000D03*
X13645000Y-15000000D03*
X13645000Y-12500000D03*
D22*
X16355000Y-22570000D03*
X16355000Y-9430000D03*
%TD*%
D23*
%TO.C,J2*%
X13897500Y-43890000D03*
X13897500Y-38110000D03*
D24*
X12452500Y-44250000D03*
X12452500Y-43450000D03*
D25*
X12452500Y-42250000D03*
X12452500Y-41250000D03*
X12452500Y-40750000D03*
X12452500Y-39750000D03*
D24*
X12452500Y-38550000D03*
X12452500Y-37750000D03*
X12452500Y-37750000D03*
X12452500Y-38550000D03*
D25*
X12452500Y-39250000D03*
X12452500Y-40250000D03*
X12452500Y-41750000D03*
X12452500Y-42750000D03*
D24*
X12452500Y-43450000D03*
X12452500Y-44250000D03*
D26*
X13367500Y-45320000D03*
D27*
X17547500Y-45320000D03*
D26*
X13367500Y-36680000D03*
D27*
X17547500Y-36680000D03*
%TD*%
D28*
%TO.C,U1*%
X56525000Y-24095000D03*
X56525000Y-25365000D03*
X56525000Y-26635000D03*
X56525000Y-27905000D03*
X61475000Y-27905000D03*
X61475000Y-26635000D03*
X61475000Y-25365000D03*
X61475000Y-24095000D03*
%TD*%
M02*
