%TF.GenerationSoftware,KiCad,Pcbnew,10.0.3*%
%TF.CreationDate,2026-05-22T15:42:16+10:00*%
%TF.ProjectId,screen-hopper-compact,73637265-656e-42d6-986f-707065722d63,rev?*%
%TF.SameCoordinates,Original*%
%TF.FileFunction,Drillmap*%
%TF.FilePolarity,Positive*%
%FSLAX45Y45*%
G04 Gerber Fmt 4.5, Leading zero omitted, Abs format (unit mm)*
G04 Created by KiCad (PCBNEW 10.0.3) date 2026-05-22 15:42:16*
%MOMM*%
%LPD*%
G01*
G04 APERTURE LIST*
%ADD10C,0.150000*%
%ADD11C,0.200000*%
%ADD12C,0.100000*%
%ADD13C,0.230000*%
G04 APERTURE END LIST*
D10*
X230750Y-24000D02*
X8308500Y-24000D01*
X230750Y-5918000D02*
X230750Y-24000D01*
X8308500Y-24000D02*
X8308500Y-5918000D01*
X8308500Y-5918000D02*
X230750Y-5918000D01*
D11*
D12*
X926660Y-4086580D02*
X956660Y-4116580D01*
X956660Y-4086580D02*
X926660Y-4116580D01*
X1577800Y-2640000D02*
X1607800Y-2670000D01*
X1607800Y-2640000D02*
X1577800Y-2670000D01*
X1871290Y-1209060D02*
X1901290Y-1239060D01*
X1901290Y-1209060D02*
X1871290Y-1239060D01*
X1989590Y-1339060D02*
X2019590Y-1369060D01*
X2019590Y-1339060D02*
X1989590Y-1369060D01*
X2070040Y-2466480D02*
X2100040Y-2496480D01*
X2100040Y-2466480D02*
X2070040Y-2496480D01*
X2141120Y-3506640D02*
X2171120Y-3536640D01*
X2171120Y-3506640D02*
X2141120Y-3536640D01*
X2536960Y-861890D02*
X2566960Y-891890D01*
X2566960Y-861890D02*
X2536960Y-891890D01*
X2636540Y-1457110D02*
X2666540Y-1487110D01*
X2666540Y-1457110D02*
X2636540Y-1487110D01*
X2745360Y-1596500D02*
X2775360Y-1626500D01*
X2775360Y-1596500D02*
X2745360Y-1626500D01*
X3774140Y-1419630D02*
X3804140Y-1449630D01*
X3804140Y-1419630D02*
X3774140Y-1449630D01*
X4080900Y-709160D02*
X4110900Y-739160D01*
X4110900Y-709160D02*
X4080900Y-739160D01*
X4330010Y-1264510D02*
X4360010Y-1294510D01*
X4360010Y-1264510D02*
X4330010Y-1294510D01*
X575250Y-3668000D02*
G75*
G02*
X515250Y-3668000I-30000J0D01*
G01*
X515250Y-3668000D02*
G75*
G02*
X575250Y-3668000I30000J0D01*
G01*
X575250Y-3638000D02*
X515250Y-3638000D01*
X515250Y-3698000D02*
G75*
G02*
X515250Y-3638000I0J30000D01*
G01*
X515250Y-3698000D02*
X575250Y-3698000D01*
X575250Y-3698000D02*
G75*
G03*
X575250Y-3638000I0J30000D01*
G01*
X575250Y-4532000D02*
G75*
G02*
X515250Y-4532000I-30000J0D01*
G01*
X515250Y-4532000D02*
G75*
G02*
X575250Y-4532000I30000J0D01*
G01*
X575250Y-4502000D02*
X515250Y-4502000D01*
X515250Y-4562000D02*
G75*
G02*
X515250Y-4502000I0J30000D01*
G01*
X515250Y-4562000D02*
X575250Y-4562000D01*
X575250Y-4562000D02*
G75*
G03*
X575250Y-4502000I0J30000D01*
G01*
X993250Y-3668000D02*
G75*
G02*
X933250Y-3668000I-30000J0D01*
G01*
X933250Y-3668000D02*
G75*
G02*
X993250Y-3668000I30000J0D01*
G01*
X1018250Y-3638000D02*
X908250Y-3638000D01*
X908250Y-3698000D02*
G75*
G02*
X908250Y-3638000I0J30000D01*
G01*
X908250Y-3698000D02*
X1018250Y-3698000D01*
X1018250Y-3698000D02*
G75*
G03*
X1018250Y-3638000I0J30000D01*
G01*
X993250Y-4532000D02*
G75*
G02*
X933250Y-4532000I-30000J0D01*
G01*
X933250Y-4532000D02*
G75*
G02*
X993250Y-4532000I30000J0D01*
G01*
X1018250Y-4502000D02*
X908250Y-4502000D01*
X908250Y-4562000D02*
G75*
G02*
X908250Y-4502000I0J30000D01*
G01*
X908250Y-4562000D02*
X1018250Y-4562000D01*
X1018250Y-4562000D02*
G75*
G03*
X1018250Y-4502000I0J30000D01*
G01*
D13*
X1316000Y-828000D02*
X1316000Y-1058000D01*
X1201000Y-943000D02*
X1431000Y-943000D01*
X1316000Y-2142000D02*
X1316000Y-2372000D01*
X1201000Y-2257000D02*
X1431000Y-2257000D01*
D12*
X933231Y-3833981D02*
X933231Y-3788019D01*
X887269Y-3788019D01*
X887269Y-3833981D01*
X933231Y-3833981D01*
X933231Y-4411981D02*
X933231Y-4366019D01*
X887269Y-4366019D01*
X887269Y-4411981D01*
X933231Y-4411981D01*
D11*
X484027Y-6236984D02*
X484027Y-6036984D01*
X484027Y-6036984D02*
X531646Y-6036984D01*
X531646Y-6036984D02*
X560217Y-6046508D01*
X560217Y-6046508D02*
X579265Y-6065555D01*
X579265Y-6065555D02*
X588789Y-6084603D01*
X588789Y-6084603D02*
X598313Y-6122698D01*
X598313Y-6122698D02*
X598313Y-6151269D01*
X598313Y-6151269D02*
X588789Y-6189365D01*
X588789Y-6189365D02*
X579265Y-6208412D01*
X579265Y-6208412D02*
X560217Y-6227460D01*
X560217Y-6227460D02*
X531646Y-6236984D01*
X531646Y-6236984D02*
X484027Y-6236984D01*
X684027Y-6236984D02*
X684027Y-6103650D01*
X684027Y-6141746D02*
X693551Y-6122698D01*
X693551Y-6122698D02*
X703074Y-6113174D01*
X703074Y-6113174D02*
X722122Y-6103650D01*
X722122Y-6103650D02*
X741170Y-6103650D01*
X807836Y-6236984D02*
X807836Y-6103650D01*
X807836Y-6036984D02*
X798312Y-6046508D01*
X798312Y-6046508D02*
X807836Y-6056031D01*
X807836Y-6056031D02*
X817360Y-6046508D01*
X817360Y-6046508D02*
X807836Y-6036984D01*
X807836Y-6036984D02*
X807836Y-6056031D01*
X931646Y-6236984D02*
X912598Y-6227460D01*
X912598Y-6227460D02*
X903074Y-6208412D01*
X903074Y-6208412D02*
X903074Y-6036984D01*
X1036408Y-6236984D02*
X1017360Y-6227460D01*
X1017360Y-6227460D02*
X1007836Y-6208412D01*
X1007836Y-6208412D02*
X1007836Y-6036984D01*
X1264979Y-6236984D02*
X1264979Y-6036984D01*
X1264979Y-6036984D02*
X1331646Y-6179841D01*
X1331646Y-6179841D02*
X1398312Y-6036984D01*
X1398312Y-6036984D02*
X1398312Y-6236984D01*
X1579265Y-6236984D02*
X1579265Y-6132222D01*
X1579265Y-6132222D02*
X1569741Y-6113174D01*
X1569741Y-6113174D02*
X1550693Y-6103650D01*
X1550693Y-6103650D02*
X1512598Y-6103650D01*
X1512598Y-6103650D02*
X1493551Y-6113174D01*
X1579265Y-6227460D02*
X1560217Y-6236984D01*
X1560217Y-6236984D02*
X1512598Y-6236984D01*
X1512598Y-6236984D02*
X1493551Y-6227460D01*
X1493551Y-6227460D02*
X1484027Y-6208412D01*
X1484027Y-6208412D02*
X1484027Y-6189365D01*
X1484027Y-6189365D02*
X1493551Y-6170317D01*
X1493551Y-6170317D02*
X1512598Y-6160793D01*
X1512598Y-6160793D02*
X1560217Y-6160793D01*
X1560217Y-6160793D02*
X1579265Y-6151269D01*
X1674503Y-6103650D02*
X1674503Y-6303650D01*
X1674503Y-6113174D02*
X1693551Y-6103650D01*
X1693551Y-6103650D02*
X1731646Y-6103650D01*
X1731646Y-6103650D02*
X1750693Y-6113174D01*
X1750693Y-6113174D02*
X1760217Y-6122698D01*
X1760217Y-6122698D02*
X1769741Y-6141746D01*
X1769741Y-6141746D02*
X1769741Y-6198888D01*
X1769741Y-6198888D02*
X1760217Y-6217936D01*
X1760217Y-6217936D02*
X1750693Y-6227460D01*
X1750693Y-6227460D02*
X1731646Y-6236984D01*
X1731646Y-6236984D02*
X1693551Y-6236984D01*
X1693551Y-6236984D02*
X1674503Y-6227460D01*
X1855455Y-6217936D02*
X1864979Y-6227460D01*
X1864979Y-6227460D02*
X1855455Y-6236984D01*
X1855455Y-6236984D02*
X1845932Y-6227460D01*
X1845932Y-6227460D02*
X1855455Y-6217936D01*
X1855455Y-6217936D02*
X1855455Y-6236984D01*
X1855455Y-6113174D02*
X1864979Y-6122698D01*
X1864979Y-6122698D02*
X1855455Y-6132222D01*
X1855455Y-6132222D02*
X1845932Y-6122698D01*
X1845932Y-6122698D02*
X1855455Y-6113174D01*
X1855455Y-6113174D02*
X1855455Y-6132222D01*
D12*
X193250Y-6550500D02*
X223250Y-6580500D01*
X223250Y-6550500D02*
X193250Y-6580500D01*
D11*
X522122Y-6456984D02*
X541170Y-6456984D01*
X541170Y-6456984D02*
X560217Y-6466508D01*
X560217Y-6466508D02*
X569741Y-6476031D01*
X569741Y-6476031D02*
X579265Y-6495079D01*
X579265Y-6495079D02*
X588789Y-6533174D01*
X588789Y-6533174D02*
X588789Y-6580793D01*
X588789Y-6580793D02*
X579265Y-6618888D01*
X579265Y-6618888D02*
X569741Y-6637936D01*
X569741Y-6637936D02*
X560217Y-6647460D01*
X560217Y-6647460D02*
X541170Y-6656984D01*
X541170Y-6656984D02*
X522122Y-6656984D01*
X522122Y-6656984D02*
X503074Y-6647460D01*
X503074Y-6647460D02*
X493551Y-6637936D01*
X493551Y-6637936D02*
X484027Y-6618888D01*
X484027Y-6618888D02*
X474503Y-6580793D01*
X474503Y-6580793D02*
X474503Y-6533174D01*
X474503Y-6533174D02*
X484027Y-6495079D01*
X484027Y-6495079D02*
X493551Y-6476031D01*
X493551Y-6476031D02*
X503074Y-6466508D01*
X503074Y-6466508D02*
X522122Y-6456984D01*
X674503Y-6637936D02*
X684027Y-6647460D01*
X684027Y-6647460D02*
X674503Y-6656984D01*
X674503Y-6656984D02*
X664979Y-6647460D01*
X664979Y-6647460D02*
X674503Y-6637936D01*
X674503Y-6637936D02*
X674503Y-6656984D01*
X750693Y-6456984D02*
X874503Y-6456984D01*
X874503Y-6456984D02*
X807836Y-6533174D01*
X807836Y-6533174D02*
X836408Y-6533174D01*
X836408Y-6533174D02*
X855455Y-6542698D01*
X855455Y-6542698D02*
X864979Y-6552222D01*
X864979Y-6552222D02*
X874503Y-6571269D01*
X874503Y-6571269D02*
X874503Y-6618888D01*
X874503Y-6618888D02*
X864979Y-6637936D01*
X864979Y-6637936D02*
X855455Y-6647460D01*
X855455Y-6647460D02*
X836408Y-6656984D01*
X836408Y-6656984D02*
X779265Y-6656984D01*
X779265Y-6656984D02*
X760217Y-6647460D01*
X760217Y-6647460D02*
X750693Y-6637936D01*
X998312Y-6456984D02*
X1017360Y-6456984D01*
X1017360Y-6456984D02*
X1036408Y-6466508D01*
X1036408Y-6466508D02*
X1045932Y-6476031D01*
X1045932Y-6476031D02*
X1055455Y-6495079D01*
X1055455Y-6495079D02*
X1064979Y-6533174D01*
X1064979Y-6533174D02*
X1064979Y-6580793D01*
X1064979Y-6580793D02*
X1055455Y-6618888D01*
X1055455Y-6618888D02*
X1045932Y-6637936D01*
X1045932Y-6637936D02*
X1036408Y-6647460D01*
X1036408Y-6647460D02*
X1017360Y-6656984D01*
X1017360Y-6656984D02*
X998312Y-6656984D01*
X998312Y-6656984D02*
X979265Y-6647460D01*
X979265Y-6647460D02*
X969741Y-6637936D01*
X969741Y-6637936D02*
X960217Y-6618888D01*
X960217Y-6618888D02*
X950693Y-6580793D01*
X950693Y-6580793D02*
X950693Y-6533174D01*
X950693Y-6533174D02*
X960217Y-6495079D01*
X960217Y-6495079D02*
X969741Y-6476031D01*
X969741Y-6476031D02*
X979265Y-6466508D01*
X979265Y-6466508D02*
X998312Y-6456984D01*
X1188789Y-6456984D02*
X1207836Y-6456984D01*
X1207836Y-6456984D02*
X1226884Y-6466508D01*
X1226884Y-6466508D02*
X1236408Y-6476031D01*
X1236408Y-6476031D02*
X1245932Y-6495079D01*
X1245932Y-6495079D02*
X1255455Y-6533174D01*
X1255455Y-6533174D02*
X1255455Y-6580793D01*
X1255455Y-6580793D02*
X1245932Y-6618888D01*
X1245932Y-6618888D02*
X1236408Y-6637936D01*
X1236408Y-6637936D02*
X1226884Y-6647460D01*
X1226884Y-6647460D02*
X1207836Y-6656984D01*
X1207836Y-6656984D02*
X1188789Y-6656984D01*
X1188789Y-6656984D02*
X1169741Y-6647460D01*
X1169741Y-6647460D02*
X1160217Y-6637936D01*
X1160217Y-6637936D02*
X1150694Y-6618888D01*
X1150694Y-6618888D02*
X1141170Y-6580793D01*
X1141170Y-6580793D02*
X1141170Y-6533174D01*
X1141170Y-6533174D02*
X1150694Y-6495079D01*
X1150694Y-6495079D02*
X1160217Y-6476031D01*
X1160217Y-6476031D02*
X1169741Y-6466508D01*
X1169741Y-6466508D02*
X1188789Y-6456984D01*
X1341170Y-6656984D02*
X1341170Y-6523650D01*
X1341170Y-6542698D02*
X1350694Y-6533174D01*
X1350694Y-6533174D02*
X1369741Y-6523650D01*
X1369741Y-6523650D02*
X1398313Y-6523650D01*
X1398313Y-6523650D02*
X1417360Y-6533174D01*
X1417360Y-6533174D02*
X1426884Y-6552222D01*
X1426884Y-6552222D02*
X1426884Y-6656984D01*
X1426884Y-6552222D02*
X1436408Y-6533174D01*
X1436408Y-6533174D02*
X1455455Y-6523650D01*
X1455455Y-6523650D02*
X1484027Y-6523650D01*
X1484027Y-6523650D02*
X1503074Y-6533174D01*
X1503074Y-6533174D02*
X1512598Y-6552222D01*
X1512598Y-6552222D02*
X1512598Y-6656984D01*
X1607836Y-6656984D02*
X1607836Y-6523650D01*
X1607836Y-6542698D02*
X1617360Y-6533174D01*
X1617360Y-6533174D02*
X1636408Y-6523650D01*
X1636408Y-6523650D02*
X1664979Y-6523650D01*
X1664979Y-6523650D02*
X1684027Y-6533174D01*
X1684027Y-6533174D02*
X1693551Y-6552222D01*
X1693551Y-6552222D02*
X1693551Y-6656984D01*
X1693551Y-6552222D02*
X1703074Y-6533174D01*
X1703074Y-6533174D02*
X1722122Y-6523650D01*
X1722122Y-6523650D02*
X1750693Y-6523650D01*
X1750693Y-6523650D02*
X1769741Y-6533174D01*
X1769741Y-6533174D02*
X1779265Y-6552222D01*
X1779265Y-6552222D02*
X1779265Y-6656984D01*
X2169741Y-6447460D02*
X1998313Y-6704603D01*
X2426884Y-6456984D02*
X2445932Y-6456984D01*
X2445932Y-6456984D02*
X2464979Y-6466508D01*
X2464979Y-6466508D02*
X2474503Y-6476031D01*
X2474503Y-6476031D02*
X2484027Y-6495079D01*
X2484027Y-6495079D02*
X2493551Y-6533174D01*
X2493551Y-6533174D02*
X2493551Y-6580793D01*
X2493551Y-6580793D02*
X2484027Y-6618888D01*
X2484027Y-6618888D02*
X2474503Y-6637936D01*
X2474503Y-6637936D02*
X2464979Y-6647460D01*
X2464979Y-6647460D02*
X2445932Y-6656984D01*
X2445932Y-6656984D02*
X2426884Y-6656984D01*
X2426884Y-6656984D02*
X2407837Y-6647460D01*
X2407837Y-6647460D02*
X2398313Y-6637936D01*
X2398313Y-6637936D02*
X2388789Y-6618888D01*
X2388789Y-6618888D02*
X2379265Y-6580793D01*
X2379265Y-6580793D02*
X2379265Y-6533174D01*
X2379265Y-6533174D02*
X2388789Y-6495079D01*
X2388789Y-6495079D02*
X2398313Y-6476031D01*
X2398313Y-6476031D02*
X2407837Y-6466508D01*
X2407837Y-6466508D02*
X2426884Y-6456984D01*
X2579265Y-6637936D02*
X2588789Y-6647460D01*
X2588789Y-6647460D02*
X2579265Y-6656984D01*
X2579265Y-6656984D02*
X2569741Y-6647460D01*
X2569741Y-6647460D02*
X2579265Y-6637936D01*
X2579265Y-6637936D02*
X2579265Y-6656984D01*
X2712598Y-6456984D02*
X2731646Y-6456984D01*
X2731646Y-6456984D02*
X2750694Y-6466508D01*
X2750694Y-6466508D02*
X2760218Y-6476031D01*
X2760218Y-6476031D02*
X2769741Y-6495079D01*
X2769741Y-6495079D02*
X2779265Y-6533174D01*
X2779265Y-6533174D02*
X2779265Y-6580793D01*
X2779265Y-6580793D02*
X2769741Y-6618888D01*
X2769741Y-6618888D02*
X2760218Y-6637936D01*
X2760218Y-6637936D02*
X2750694Y-6647460D01*
X2750694Y-6647460D02*
X2731646Y-6656984D01*
X2731646Y-6656984D02*
X2712598Y-6656984D01*
X2712598Y-6656984D02*
X2693551Y-6647460D01*
X2693551Y-6647460D02*
X2684027Y-6637936D01*
X2684027Y-6637936D02*
X2674503Y-6618888D01*
X2674503Y-6618888D02*
X2664979Y-6580793D01*
X2664979Y-6580793D02*
X2664979Y-6533174D01*
X2664979Y-6533174D02*
X2674503Y-6495079D01*
X2674503Y-6495079D02*
X2684027Y-6476031D01*
X2684027Y-6476031D02*
X2693551Y-6466508D01*
X2693551Y-6466508D02*
X2712598Y-6456984D01*
X2969741Y-6656984D02*
X2855456Y-6656984D01*
X2912598Y-6656984D02*
X2912598Y-6456984D01*
X2912598Y-6456984D02*
X2893551Y-6485555D01*
X2893551Y-6485555D02*
X2874503Y-6504603D01*
X2874503Y-6504603D02*
X2855456Y-6514127D01*
X3160217Y-6656984D02*
X3045932Y-6656984D01*
X3103075Y-6656984D02*
X3103075Y-6456984D01*
X3103075Y-6456984D02*
X3084027Y-6485555D01*
X3084027Y-6485555D02*
X3064979Y-6504603D01*
X3064979Y-6504603D02*
X3045932Y-6514127D01*
X3274503Y-6542698D02*
X3255456Y-6533174D01*
X3255456Y-6533174D02*
X3245932Y-6523650D01*
X3245932Y-6523650D02*
X3236408Y-6504603D01*
X3236408Y-6504603D02*
X3236408Y-6495079D01*
X3236408Y-6495079D02*
X3245932Y-6476031D01*
X3245932Y-6476031D02*
X3255456Y-6466508D01*
X3255456Y-6466508D02*
X3274503Y-6456984D01*
X3274503Y-6456984D02*
X3312598Y-6456984D01*
X3312598Y-6456984D02*
X3331646Y-6466508D01*
X3331646Y-6466508D02*
X3341170Y-6476031D01*
X3341170Y-6476031D02*
X3350694Y-6495079D01*
X3350694Y-6495079D02*
X3350694Y-6504603D01*
X3350694Y-6504603D02*
X3341170Y-6523650D01*
X3341170Y-6523650D02*
X3331646Y-6533174D01*
X3331646Y-6533174D02*
X3312598Y-6542698D01*
X3312598Y-6542698D02*
X3274503Y-6542698D01*
X3274503Y-6542698D02*
X3255456Y-6552222D01*
X3255456Y-6552222D02*
X3245932Y-6561746D01*
X3245932Y-6561746D02*
X3236408Y-6580793D01*
X3236408Y-6580793D02*
X3236408Y-6618888D01*
X3236408Y-6618888D02*
X3245932Y-6637936D01*
X3245932Y-6637936D02*
X3255456Y-6647460D01*
X3255456Y-6647460D02*
X3274503Y-6656984D01*
X3274503Y-6656984D02*
X3312598Y-6656984D01*
X3312598Y-6656984D02*
X3331646Y-6647460D01*
X3331646Y-6647460D02*
X3341170Y-6637936D01*
X3341170Y-6637936D02*
X3350694Y-6618888D01*
X3350694Y-6618888D02*
X3350694Y-6580793D01*
X3350694Y-6580793D02*
X3341170Y-6561746D01*
X3341170Y-6561746D02*
X3331646Y-6552222D01*
X3331646Y-6552222D02*
X3312598Y-6542698D01*
X3426884Y-6456984D02*
X3426884Y-6495079D01*
X3503075Y-6456984D02*
X3503075Y-6495079D01*
X3798313Y-6733174D02*
X3788789Y-6723650D01*
X3788789Y-6723650D02*
X3769741Y-6695079D01*
X3769741Y-6695079D02*
X3760218Y-6676031D01*
X3760218Y-6676031D02*
X3750694Y-6647460D01*
X3750694Y-6647460D02*
X3741170Y-6599841D01*
X3741170Y-6599841D02*
X3741170Y-6561746D01*
X3741170Y-6561746D02*
X3750694Y-6514127D01*
X3750694Y-6514127D02*
X3760218Y-6485555D01*
X3760218Y-6485555D02*
X3769741Y-6466508D01*
X3769741Y-6466508D02*
X3788789Y-6437936D01*
X3788789Y-6437936D02*
X3798313Y-6428412D01*
X3979265Y-6656984D02*
X3864979Y-6656984D01*
X3922122Y-6656984D02*
X3922122Y-6456984D01*
X3922122Y-6456984D02*
X3903075Y-6485555D01*
X3903075Y-6485555D02*
X3884027Y-6504603D01*
X3884027Y-6504603D02*
X3864979Y-6514127D01*
X4055456Y-6476031D02*
X4064979Y-6466508D01*
X4064979Y-6466508D02*
X4084027Y-6456984D01*
X4084027Y-6456984D02*
X4131646Y-6456984D01*
X4131646Y-6456984D02*
X4150694Y-6466508D01*
X4150694Y-6466508D02*
X4160218Y-6476031D01*
X4160218Y-6476031D02*
X4169741Y-6495079D01*
X4169741Y-6495079D02*
X4169741Y-6514127D01*
X4169741Y-6514127D02*
X4160218Y-6542698D01*
X4160218Y-6542698D02*
X4045932Y-6656984D01*
X4045932Y-6656984D02*
X4169741Y-6656984D01*
X4407837Y-6656984D02*
X4407837Y-6456984D01*
X4493551Y-6656984D02*
X4493551Y-6552222D01*
X4493551Y-6552222D02*
X4484027Y-6533174D01*
X4484027Y-6533174D02*
X4464980Y-6523650D01*
X4464980Y-6523650D02*
X4436408Y-6523650D01*
X4436408Y-6523650D02*
X4417361Y-6533174D01*
X4417361Y-6533174D02*
X4407837Y-6542698D01*
X4617361Y-6656984D02*
X4598313Y-6647460D01*
X4598313Y-6647460D02*
X4588789Y-6637936D01*
X4588789Y-6637936D02*
X4579265Y-6618888D01*
X4579265Y-6618888D02*
X4579265Y-6561746D01*
X4579265Y-6561746D02*
X4588789Y-6542698D01*
X4588789Y-6542698D02*
X4598313Y-6533174D01*
X4598313Y-6533174D02*
X4617361Y-6523650D01*
X4617361Y-6523650D02*
X4645932Y-6523650D01*
X4645932Y-6523650D02*
X4664980Y-6533174D01*
X4664980Y-6533174D02*
X4674503Y-6542698D01*
X4674503Y-6542698D02*
X4684027Y-6561746D01*
X4684027Y-6561746D02*
X4684027Y-6618888D01*
X4684027Y-6618888D02*
X4674503Y-6637936D01*
X4674503Y-6637936D02*
X4664980Y-6647460D01*
X4664980Y-6647460D02*
X4645932Y-6656984D01*
X4645932Y-6656984D02*
X4617361Y-6656984D01*
X4798313Y-6656984D02*
X4779265Y-6647460D01*
X4779265Y-6647460D02*
X4769742Y-6628412D01*
X4769742Y-6628412D02*
X4769742Y-6456984D01*
X4950694Y-6647460D02*
X4931646Y-6656984D01*
X4931646Y-6656984D02*
X4893551Y-6656984D01*
X4893551Y-6656984D02*
X4874503Y-6647460D01*
X4874503Y-6647460D02*
X4864980Y-6628412D01*
X4864980Y-6628412D02*
X4864980Y-6552222D01*
X4864980Y-6552222D02*
X4874503Y-6533174D01*
X4874503Y-6533174D02*
X4893551Y-6523650D01*
X4893551Y-6523650D02*
X4931646Y-6523650D01*
X4931646Y-6523650D02*
X4950694Y-6533174D01*
X4950694Y-6533174D02*
X4960218Y-6552222D01*
X4960218Y-6552222D02*
X4960218Y-6571269D01*
X4960218Y-6571269D02*
X4864980Y-6590317D01*
X5036408Y-6647460D02*
X5055456Y-6656984D01*
X5055456Y-6656984D02*
X5093551Y-6656984D01*
X5093551Y-6656984D02*
X5112599Y-6647460D01*
X5112599Y-6647460D02*
X5122123Y-6628412D01*
X5122123Y-6628412D02*
X5122123Y-6618888D01*
X5122123Y-6618888D02*
X5112599Y-6599841D01*
X5112599Y-6599841D02*
X5093551Y-6590317D01*
X5093551Y-6590317D02*
X5064980Y-6590317D01*
X5064980Y-6590317D02*
X5045932Y-6580793D01*
X5045932Y-6580793D02*
X5036408Y-6561746D01*
X5036408Y-6561746D02*
X5036408Y-6552222D01*
X5036408Y-6552222D02*
X5045932Y-6533174D01*
X5045932Y-6533174D02*
X5064980Y-6523650D01*
X5064980Y-6523650D02*
X5093551Y-6523650D01*
X5093551Y-6523650D02*
X5112599Y-6533174D01*
X5188789Y-6733174D02*
X5198313Y-6723650D01*
X5198313Y-6723650D02*
X5217361Y-6695079D01*
X5217361Y-6695079D02*
X5226884Y-6676031D01*
X5226884Y-6676031D02*
X5236408Y-6647460D01*
X5236408Y-6647460D02*
X5245932Y-6599841D01*
X5245932Y-6599841D02*
X5245932Y-6561746D01*
X5245932Y-6561746D02*
X5236408Y-6514127D01*
X5236408Y-6514127D02*
X5226884Y-6485555D01*
X5226884Y-6485555D02*
X5217361Y-6466508D01*
X5217361Y-6466508D02*
X5198313Y-6437936D01*
X5198313Y-6437936D02*
X5188789Y-6428412D01*
D12*
X223250Y-6829500D02*
G75*
G02*
X163250Y-6829500I-30000J0D01*
G01*
X163250Y-6829500D02*
G75*
G02*
X223250Y-6829500I30000J0D01*
G01*
D11*
X522122Y-6720984D02*
X541170Y-6720984D01*
X541170Y-6720984D02*
X560217Y-6730508D01*
X560217Y-6730508D02*
X569741Y-6740031D01*
X569741Y-6740031D02*
X579265Y-6759079D01*
X579265Y-6759079D02*
X588789Y-6797174D01*
X588789Y-6797174D02*
X588789Y-6844793D01*
X588789Y-6844793D02*
X579265Y-6882888D01*
X579265Y-6882888D02*
X569741Y-6901936D01*
X569741Y-6901936D02*
X560217Y-6911460D01*
X560217Y-6911460D02*
X541170Y-6920984D01*
X541170Y-6920984D02*
X522122Y-6920984D01*
X522122Y-6920984D02*
X503074Y-6911460D01*
X503074Y-6911460D02*
X493551Y-6901936D01*
X493551Y-6901936D02*
X484027Y-6882888D01*
X484027Y-6882888D02*
X474503Y-6844793D01*
X474503Y-6844793D02*
X474503Y-6797174D01*
X474503Y-6797174D02*
X484027Y-6759079D01*
X484027Y-6759079D02*
X493551Y-6740031D01*
X493551Y-6740031D02*
X503074Y-6730508D01*
X503074Y-6730508D02*
X522122Y-6720984D01*
X674503Y-6901936D02*
X684027Y-6911460D01*
X684027Y-6911460D02*
X674503Y-6920984D01*
X674503Y-6920984D02*
X664979Y-6911460D01*
X664979Y-6911460D02*
X674503Y-6901936D01*
X674503Y-6901936D02*
X674503Y-6920984D01*
X855455Y-6720984D02*
X817360Y-6720984D01*
X817360Y-6720984D02*
X798312Y-6730508D01*
X798312Y-6730508D02*
X788789Y-6740031D01*
X788789Y-6740031D02*
X769741Y-6768603D01*
X769741Y-6768603D02*
X760217Y-6806698D01*
X760217Y-6806698D02*
X760217Y-6882888D01*
X760217Y-6882888D02*
X769741Y-6901936D01*
X769741Y-6901936D02*
X779265Y-6911460D01*
X779265Y-6911460D02*
X798312Y-6920984D01*
X798312Y-6920984D02*
X836408Y-6920984D01*
X836408Y-6920984D02*
X855455Y-6911460D01*
X855455Y-6911460D02*
X864979Y-6901936D01*
X864979Y-6901936D02*
X874503Y-6882888D01*
X874503Y-6882888D02*
X874503Y-6835269D01*
X874503Y-6835269D02*
X864979Y-6816222D01*
X864979Y-6816222D02*
X855455Y-6806698D01*
X855455Y-6806698D02*
X836408Y-6797174D01*
X836408Y-6797174D02*
X798312Y-6797174D01*
X798312Y-6797174D02*
X779265Y-6806698D01*
X779265Y-6806698D02*
X769741Y-6816222D01*
X769741Y-6816222D02*
X760217Y-6835269D01*
X998312Y-6720984D02*
X1017360Y-6720984D01*
X1017360Y-6720984D02*
X1036408Y-6730508D01*
X1036408Y-6730508D02*
X1045932Y-6740031D01*
X1045932Y-6740031D02*
X1055455Y-6759079D01*
X1055455Y-6759079D02*
X1064979Y-6797174D01*
X1064979Y-6797174D02*
X1064979Y-6844793D01*
X1064979Y-6844793D02*
X1055455Y-6882888D01*
X1055455Y-6882888D02*
X1045932Y-6901936D01*
X1045932Y-6901936D02*
X1036408Y-6911460D01*
X1036408Y-6911460D02*
X1017360Y-6920984D01*
X1017360Y-6920984D02*
X998312Y-6920984D01*
X998312Y-6920984D02*
X979265Y-6911460D01*
X979265Y-6911460D02*
X969741Y-6901936D01*
X969741Y-6901936D02*
X960217Y-6882888D01*
X960217Y-6882888D02*
X950693Y-6844793D01*
X950693Y-6844793D02*
X950693Y-6797174D01*
X950693Y-6797174D02*
X960217Y-6759079D01*
X960217Y-6759079D02*
X969741Y-6740031D01*
X969741Y-6740031D02*
X979265Y-6730508D01*
X979265Y-6730508D02*
X998312Y-6720984D01*
X1188789Y-6720984D02*
X1207836Y-6720984D01*
X1207836Y-6720984D02*
X1226884Y-6730508D01*
X1226884Y-6730508D02*
X1236408Y-6740031D01*
X1236408Y-6740031D02*
X1245932Y-6759079D01*
X1245932Y-6759079D02*
X1255455Y-6797174D01*
X1255455Y-6797174D02*
X1255455Y-6844793D01*
X1255455Y-6844793D02*
X1245932Y-6882888D01*
X1245932Y-6882888D02*
X1236408Y-6901936D01*
X1236408Y-6901936D02*
X1226884Y-6911460D01*
X1226884Y-6911460D02*
X1207836Y-6920984D01*
X1207836Y-6920984D02*
X1188789Y-6920984D01*
X1188789Y-6920984D02*
X1169741Y-6911460D01*
X1169741Y-6911460D02*
X1160217Y-6901936D01*
X1160217Y-6901936D02*
X1150694Y-6882888D01*
X1150694Y-6882888D02*
X1141170Y-6844793D01*
X1141170Y-6844793D02*
X1141170Y-6797174D01*
X1141170Y-6797174D02*
X1150694Y-6759079D01*
X1150694Y-6759079D02*
X1160217Y-6740031D01*
X1160217Y-6740031D02*
X1169741Y-6730508D01*
X1169741Y-6730508D02*
X1188789Y-6720984D01*
X1341170Y-6920984D02*
X1341170Y-6787650D01*
X1341170Y-6806698D02*
X1350694Y-6797174D01*
X1350694Y-6797174D02*
X1369741Y-6787650D01*
X1369741Y-6787650D02*
X1398313Y-6787650D01*
X1398313Y-6787650D02*
X1417360Y-6797174D01*
X1417360Y-6797174D02*
X1426884Y-6816222D01*
X1426884Y-6816222D02*
X1426884Y-6920984D01*
X1426884Y-6816222D02*
X1436408Y-6797174D01*
X1436408Y-6797174D02*
X1455455Y-6787650D01*
X1455455Y-6787650D02*
X1484027Y-6787650D01*
X1484027Y-6787650D02*
X1503074Y-6797174D01*
X1503074Y-6797174D02*
X1512598Y-6816222D01*
X1512598Y-6816222D02*
X1512598Y-6920984D01*
X1607836Y-6920984D02*
X1607836Y-6787650D01*
X1607836Y-6806698D02*
X1617360Y-6797174D01*
X1617360Y-6797174D02*
X1636408Y-6787650D01*
X1636408Y-6787650D02*
X1664979Y-6787650D01*
X1664979Y-6787650D02*
X1684027Y-6797174D01*
X1684027Y-6797174D02*
X1693551Y-6816222D01*
X1693551Y-6816222D02*
X1693551Y-6920984D01*
X1693551Y-6816222D02*
X1703074Y-6797174D01*
X1703074Y-6797174D02*
X1722122Y-6787650D01*
X1722122Y-6787650D02*
X1750693Y-6787650D01*
X1750693Y-6787650D02*
X1769741Y-6797174D01*
X1769741Y-6797174D02*
X1779265Y-6816222D01*
X1779265Y-6816222D02*
X1779265Y-6920984D01*
X2169741Y-6711460D02*
X1998313Y-6968603D01*
X2426884Y-6720984D02*
X2445932Y-6720984D01*
X2445932Y-6720984D02*
X2464979Y-6730508D01*
X2464979Y-6730508D02*
X2474503Y-6740031D01*
X2474503Y-6740031D02*
X2484027Y-6759079D01*
X2484027Y-6759079D02*
X2493551Y-6797174D01*
X2493551Y-6797174D02*
X2493551Y-6844793D01*
X2493551Y-6844793D02*
X2484027Y-6882888D01*
X2484027Y-6882888D02*
X2474503Y-6901936D01*
X2474503Y-6901936D02*
X2464979Y-6911460D01*
X2464979Y-6911460D02*
X2445932Y-6920984D01*
X2445932Y-6920984D02*
X2426884Y-6920984D01*
X2426884Y-6920984D02*
X2407837Y-6911460D01*
X2407837Y-6911460D02*
X2398313Y-6901936D01*
X2398313Y-6901936D02*
X2388789Y-6882888D01*
X2388789Y-6882888D02*
X2379265Y-6844793D01*
X2379265Y-6844793D02*
X2379265Y-6797174D01*
X2379265Y-6797174D02*
X2388789Y-6759079D01*
X2388789Y-6759079D02*
X2398313Y-6740031D01*
X2398313Y-6740031D02*
X2407837Y-6730508D01*
X2407837Y-6730508D02*
X2426884Y-6720984D01*
X2579265Y-6901936D02*
X2588789Y-6911460D01*
X2588789Y-6911460D02*
X2579265Y-6920984D01*
X2579265Y-6920984D02*
X2569741Y-6911460D01*
X2569741Y-6911460D02*
X2579265Y-6901936D01*
X2579265Y-6901936D02*
X2579265Y-6920984D01*
X2712598Y-6720984D02*
X2731646Y-6720984D01*
X2731646Y-6720984D02*
X2750694Y-6730508D01*
X2750694Y-6730508D02*
X2760218Y-6740031D01*
X2760218Y-6740031D02*
X2769741Y-6759079D01*
X2769741Y-6759079D02*
X2779265Y-6797174D01*
X2779265Y-6797174D02*
X2779265Y-6844793D01*
X2779265Y-6844793D02*
X2769741Y-6882888D01*
X2769741Y-6882888D02*
X2760218Y-6901936D01*
X2760218Y-6901936D02*
X2750694Y-6911460D01*
X2750694Y-6911460D02*
X2731646Y-6920984D01*
X2731646Y-6920984D02*
X2712598Y-6920984D01*
X2712598Y-6920984D02*
X2693551Y-6911460D01*
X2693551Y-6911460D02*
X2684027Y-6901936D01*
X2684027Y-6901936D02*
X2674503Y-6882888D01*
X2674503Y-6882888D02*
X2664979Y-6844793D01*
X2664979Y-6844793D02*
X2664979Y-6797174D01*
X2664979Y-6797174D02*
X2674503Y-6759079D01*
X2674503Y-6759079D02*
X2684027Y-6740031D01*
X2684027Y-6740031D02*
X2693551Y-6730508D01*
X2693551Y-6730508D02*
X2712598Y-6720984D01*
X2855456Y-6740031D02*
X2864979Y-6730508D01*
X2864979Y-6730508D02*
X2884027Y-6720984D01*
X2884027Y-6720984D02*
X2931646Y-6720984D01*
X2931646Y-6720984D02*
X2950694Y-6730508D01*
X2950694Y-6730508D02*
X2960217Y-6740031D01*
X2960217Y-6740031D02*
X2969741Y-6759079D01*
X2969741Y-6759079D02*
X2969741Y-6778127D01*
X2969741Y-6778127D02*
X2960217Y-6806698D01*
X2960217Y-6806698D02*
X2845932Y-6920984D01*
X2845932Y-6920984D02*
X2969741Y-6920984D01*
X3036408Y-6720984D02*
X3160217Y-6720984D01*
X3160217Y-6720984D02*
X3093551Y-6797174D01*
X3093551Y-6797174D02*
X3122122Y-6797174D01*
X3122122Y-6797174D02*
X3141170Y-6806698D01*
X3141170Y-6806698D02*
X3150694Y-6816222D01*
X3150694Y-6816222D02*
X3160217Y-6835269D01*
X3160217Y-6835269D02*
X3160217Y-6882888D01*
X3160217Y-6882888D02*
X3150694Y-6901936D01*
X3150694Y-6901936D02*
X3141170Y-6911460D01*
X3141170Y-6911460D02*
X3122122Y-6920984D01*
X3122122Y-6920984D02*
X3064979Y-6920984D01*
X3064979Y-6920984D02*
X3045932Y-6911460D01*
X3045932Y-6911460D02*
X3036408Y-6901936D01*
X3331646Y-6720984D02*
X3293551Y-6720984D01*
X3293551Y-6720984D02*
X3274503Y-6730508D01*
X3274503Y-6730508D02*
X3264979Y-6740031D01*
X3264979Y-6740031D02*
X3245932Y-6768603D01*
X3245932Y-6768603D02*
X3236408Y-6806698D01*
X3236408Y-6806698D02*
X3236408Y-6882888D01*
X3236408Y-6882888D02*
X3245932Y-6901936D01*
X3245932Y-6901936D02*
X3255456Y-6911460D01*
X3255456Y-6911460D02*
X3274503Y-6920984D01*
X3274503Y-6920984D02*
X3312598Y-6920984D01*
X3312598Y-6920984D02*
X3331646Y-6911460D01*
X3331646Y-6911460D02*
X3341170Y-6901936D01*
X3341170Y-6901936D02*
X3350694Y-6882888D01*
X3350694Y-6882888D02*
X3350694Y-6835269D01*
X3350694Y-6835269D02*
X3341170Y-6816222D01*
X3341170Y-6816222D02*
X3331646Y-6806698D01*
X3331646Y-6806698D02*
X3312598Y-6797174D01*
X3312598Y-6797174D02*
X3274503Y-6797174D01*
X3274503Y-6797174D02*
X3255456Y-6806698D01*
X3255456Y-6806698D02*
X3245932Y-6816222D01*
X3245932Y-6816222D02*
X3236408Y-6835269D01*
X3426884Y-6720984D02*
X3426884Y-6759079D01*
X3503075Y-6720984D02*
X3503075Y-6759079D01*
X3798313Y-6997174D02*
X3788789Y-6987650D01*
X3788789Y-6987650D02*
X3769741Y-6959079D01*
X3769741Y-6959079D02*
X3760218Y-6940031D01*
X3760218Y-6940031D02*
X3750694Y-6911460D01*
X3750694Y-6911460D02*
X3741170Y-6863841D01*
X3741170Y-6863841D02*
X3741170Y-6825746D01*
X3741170Y-6825746D02*
X3750694Y-6778127D01*
X3750694Y-6778127D02*
X3760218Y-6749555D01*
X3760218Y-6749555D02*
X3769741Y-6730508D01*
X3769741Y-6730508D02*
X3788789Y-6701936D01*
X3788789Y-6701936D02*
X3798313Y-6692412D01*
X3912598Y-6720984D02*
X3931646Y-6720984D01*
X3931646Y-6720984D02*
X3950694Y-6730508D01*
X3950694Y-6730508D02*
X3960218Y-6740031D01*
X3960218Y-6740031D02*
X3969741Y-6759079D01*
X3969741Y-6759079D02*
X3979265Y-6797174D01*
X3979265Y-6797174D02*
X3979265Y-6844793D01*
X3979265Y-6844793D02*
X3969741Y-6882888D01*
X3969741Y-6882888D02*
X3960218Y-6901936D01*
X3960218Y-6901936D02*
X3950694Y-6911460D01*
X3950694Y-6911460D02*
X3931646Y-6920984D01*
X3931646Y-6920984D02*
X3912598Y-6920984D01*
X3912598Y-6920984D02*
X3893551Y-6911460D01*
X3893551Y-6911460D02*
X3884027Y-6901936D01*
X3884027Y-6901936D02*
X3874503Y-6882888D01*
X3874503Y-6882888D02*
X3864979Y-6844793D01*
X3864979Y-6844793D02*
X3864979Y-6797174D01*
X3864979Y-6797174D02*
X3874503Y-6759079D01*
X3874503Y-6759079D02*
X3884027Y-6740031D01*
X3884027Y-6740031D02*
X3893551Y-6730508D01*
X3893551Y-6730508D02*
X3912598Y-6720984D01*
X4217361Y-6920984D02*
X4217361Y-6720984D01*
X4303075Y-6920984D02*
X4303075Y-6816222D01*
X4303075Y-6816222D02*
X4293551Y-6797174D01*
X4293551Y-6797174D02*
X4274503Y-6787650D01*
X4274503Y-6787650D02*
X4245932Y-6787650D01*
X4245932Y-6787650D02*
X4226884Y-6797174D01*
X4226884Y-6797174D02*
X4217361Y-6806698D01*
X4426884Y-6920984D02*
X4407837Y-6911460D01*
X4407837Y-6911460D02*
X4398313Y-6901936D01*
X4398313Y-6901936D02*
X4388789Y-6882888D01*
X4388789Y-6882888D02*
X4388789Y-6825746D01*
X4388789Y-6825746D02*
X4398313Y-6806698D01*
X4398313Y-6806698D02*
X4407837Y-6797174D01*
X4407837Y-6797174D02*
X4426884Y-6787650D01*
X4426884Y-6787650D02*
X4455456Y-6787650D01*
X4455456Y-6787650D02*
X4474503Y-6797174D01*
X4474503Y-6797174D02*
X4484027Y-6806698D01*
X4484027Y-6806698D02*
X4493551Y-6825746D01*
X4493551Y-6825746D02*
X4493551Y-6882888D01*
X4493551Y-6882888D02*
X4484027Y-6901936D01*
X4484027Y-6901936D02*
X4474503Y-6911460D01*
X4474503Y-6911460D02*
X4455456Y-6920984D01*
X4455456Y-6920984D02*
X4426884Y-6920984D01*
X4607837Y-6920984D02*
X4588789Y-6911460D01*
X4588789Y-6911460D02*
X4579265Y-6892412D01*
X4579265Y-6892412D02*
X4579265Y-6720984D01*
X4760218Y-6911460D02*
X4741170Y-6920984D01*
X4741170Y-6920984D02*
X4703075Y-6920984D01*
X4703075Y-6920984D02*
X4684027Y-6911460D01*
X4684027Y-6911460D02*
X4674503Y-6892412D01*
X4674503Y-6892412D02*
X4674503Y-6816222D01*
X4674503Y-6816222D02*
X4684027Y-6797174D01*
X4684027Y-6797174D02*
X4703075Y-6787650D01*
X4703075Y-6787650D02*
X4741170Y-6787650D01*
X4741170Y-6787650D02*
X4760218Y-6797174D01*
X4760218Y-6797174D02*
X4769742Y-6816222D01*
X4769742Y-6816222D02*
X4769742Y-6835269D01*
X4769742Y-6835269D02*
X4674503Y-6854317D01*
X4845932Y-6911460D02*
X4864980Y-6920984D01*
X4864980Y-6920984D02*
X4903075Y-6920984D01*
X4903075Y-6920984D02*
X4922123Y-6911460D01*
X4922123Y-6911460D02*
X4931646Y-6892412D01*
X4931646Y-6892412D02*
X4931646Y-6882888D01*
X4931646Y-6882888D02*
X4922123Y-6863841D01*
X4922123Y-6863841D02*
X4903075Y-6854317D01*
X4903075Y-6854317D02*
X4874503Y-6854317D01*
X4874503Y-6854317D02*
X4855456Y-6844793D01*
X4855456Y-6844793D02*
X4845932Y-6825746D01*
X4845932Y-6825746D02*
X4845932Y-6816222D01*
X4845932Y-6816222D02*
X4855456Y-6797174D01*
X4855456Y-6797174D02*
X4874503Y-6787650D01*
X4874503Y-6787650D02*
X4903075Y-6787650D01*
X4903075Y-6787650D02*
X4922123Y-6797174D01*
X5169742Y-6844793D02*
X5322123Y-6844793D01*
X5245932Y-6920984D02*
X5245932Y-6768603D01*
X5655456Y-6787650D02*
X5655456Y-6920984D01*
X5607837Y-6711460D02*
X5560218Y-6854317D01*
X5560218Y-6854317D02*
X5684027Y-6854317D01*
X5903075Y-6911460D02*
X5922123Y-6920984D01*
X5922123Y-6920984D02*
X5960218Y-6920984D01*
X5960218Y-6920984D02*
X5979265Y-6911460D01*
X5979265Y-6911460D02*
X5988789Y-6892412D01*
X5988789Y-6892412D02*
X5988789Y-6882888D01*
X5988789Y-6882888D02*
X5979265Y-6863841D01*
X5979265Y-6863841D02*
X5960218Y-6854317D01*
X5960218Y-6854317D02*
X5931646Y-6854317D01*
X5931646Y-6854317D02*
X5912599Y-6844793D01*
X5912599Y-6844793D02*
X5903075Y-6825746D01*
X5903075Y-6825746D02*
X5903075Y-6816222D01*
X5903075Y-6816222D02*
X5912599Y-6797174D01*
X5912599Y-6797174D02*
X5931646Y-6787650D01*
X5931646Y-6787650D02*
X5960218Y-6787650D01*
X5960218Y-6787650D02*
X5979265Y-6797174D01*
X6103075Y-6920984D02*
X6084027Y-6911460D01*
X6084027Y-6911460D02*
X6074504Y-6892412D01*
X6074504Y-6892412D02*
X6074504Y-6720984D01*
X6207837Y-6920984D02*
X6188789Y-6911460D01*
X6188789Y-6911460D02*
X6179265Y-6901936D01*
X6179265Y-6901936D02*
X6169742Y-6882888D01*
X6169742Y-6882888D02*
X6169742Y-6825746D01*
X6169742Y-6825746D02*
X6179265Y-6806698D01*
X6179265Y-6806698D02*
X6188789Y-6797174D01*
X6188789Y-6797174D02*
X6207837Y-6787650D01*
X6207837Y-6787650D02*
X6236408Y-6787650D01*
X6236408Y-6787650D02*
X6255456Y-6797174D01*
X6255456Y-6797174D02*
X6264980Y-6806698D01*
X6264980Y-6806698D02*
X6274504Y-6825746D01*
X6274504Y-6825746D02*
X6274504Y-6882888D01*
X6274504Y-6882888D02*
X6264980Y-6901936D01*
X6264980Y-6901936D02*
X6255456Y-6911460D01*
X6255456Y-6911460D02*
X6236408Y-6920984D01*
X6236408Y-6920984D02*
X6207837Y-6920984D01*
X6331646Y-6787650D02*
X6407837Y-6787650D01*
X6360218Y-6720984D02*
X6360218Y-6892412D01*
X6360218Y-6892412D02*
X6369742Y-6911460D01*
X6369742Y-6911460D02*
X6388789Y-6920984D01*
X6388789Y-6920984D02*
X6407837Y-6920984D01*
X6464980Y-6911460D02*
X6484027Y-6920984D01*
X6484027Y-6920984D02*
X6522123Y-6920984D01*
X6522123Y-6920984D02*
X6541170Y-6911460D01*
X6541170Y-6911460D02*
X6550694Y-6892412D01*
X6550694Y-6892412D02*
X6550694Y-6882888D01*
X6550694Y-6882888D02*
X6541170Y-6863841D01*
X6541170Y-6863841D02*
X6522123Y-6854317D01*
X6522123Y-6854317D02*
X6493551Y-6854317D01*
X6493551Y-6854317D02*
X6474504Y-6844793D01*
X6474504Y-6844793D02*
X6464980Y-6825746D01*
X6464980Y-6825746D02*
X6464980Y-6816222D01*
X6464980Y-6816222D02*
X6474504Y-6797174D01*
X6474504Y-6797174D02*
X6493551Y-6787650D01*
X6493551Y-6787650D02*
X6522123Y-6787650D01*
X6522123Y-6787650D02*
X6541170Y-6797174D01*
X6617361Y-6997174D02*
X6626885Y-6987650D01*
X6626885Y-6987650D02*
X6645932Y-6959079D01*
X6645932Y-6959079D02*
X6655456Y-6940031D01*
X6655456Y-6940031D02*
X6664980Y-6911460D01*
X6664980Y-6911460D02*
X6674504Y-6863841D01*
X6674504Y-6863841D02*
X6674504Y-6825746D01*
X6674504Y-6825746D02*
X6664980Y-6778127D01*
X6664980Y-6778127D02*
X6655456Y-6749555D01*
X6655456Y-6749555D02*
X6645932Y-6730508D01*
X6645932Y-6730508D02*
X6626885Y-6701936D01*
X6626885Y-6701936D02*
X6617361Y-6692412D01*
X123250Y-6993500D02*
X123250Y-7193500D01*
X23250Y-7093500D02*
X223250Y-7093500D01*
X474503Y-7004031D02*
X484027Y-6994508D01*
X484027Y-6994508D02*
X503074Y-6984984D01*
X503074Y-6984984D02*
X550694Y-6984984D01*
X550694Y-6984984D02*
X569741Y-6994508D01*
X569741Y-6994508D02*
X579265Y-7004031D01*
X579265Y-7004031D02*
X588789Y-7023079D01*
X588789Y-7023079D02*
X588789Y-7042127D01*
X588789Y-7042127D02*
X579265Y-7070698D01*
X579265Y-7070698D02*
X464979Y-7184984D01*
X464979Y-7184984D02*
X588789Y-7184984D01*
X674503Y-7165936D02*
X684027Y-7175460D01*
X684027Y-7175460D02*
X674503Y-7184984D01*
X674503Y-7184984D02*
X664979Y-7175460D01*
X664979Y-7175460D02*
X674503Y-7165936D01*
X674503Y-7165936D02*
X674503Y-7184984D01*
X750693Y-6984984D02*
X874503Y-6984984D01*
X874503Y-6984984D02*
X807836Y-7061174D01*
X807836Y-7061174D02*
X836408Y-7061174D01*
X836408Y-7061174D02*
X855455Y-7070698D01*
X855455Y-7070698D02*
X864979Y-7080222D01*
X864979Y-7080222D02*
X874503Y-7099269D01*
X874503Y-7099269D02*
X874503Y-7146888D01*
X874503Y-7146888D02*
X864979Y-7165936D01*
X864979Y-7165936D02*
X855455Y-7175460D01*
X855455Y-7175460D02*
X836408Y-7184984D01*
X836408Y-7184984D02*
X779265Y-7184984D01*
X779265Y-7184984D02*
X760217Y-7175460D01*
X760217Y-7175460D02*
X750693Y-7165936D01*
X998312Y-6984984D02*
X1017360Y-6984984D01*
X1017360Y-6984984D02*
X1036408Y-6994508D01*
X1036408Y-6994508D02*
X1045932Y-7004031D01*
X1045932Y-7004031D02*
X1055455Y-7023079D01*
X1055455Y-7023079D02*
X1064979Y-7061174D01*
X1064979Y-7061174D02*
X1064979Y-7108793D01*
X1064979Y-7108793D02*
X1055455Y-7146888D01*
X1055455Y-7146888D02*
X1045932Y-7165936D01*
X1045932Y-7165936D02*
X1036408Y-7175460D01*
X1036408Y-7175460D02*
X1017360Y-7184984D01*
X1017360Y-7184984D02*
X998312Y-7184984D01*
X998312Y-7184984D02*
X979265Y-7175460D01*
X979265Y-7175460D02*
X969741Y-7165936D01*
X969741Y-7165936D02*
X960217Y-7146888D01*
X960217Y-7146888D02*
X950693Y-7108793D01*
X950693Y-7108793D02*
X950693Y-7061174D01*
X950693Y-7061174D02*
X960217Y-7023079D01*
X960217Y-7023079D02*
X969741Y-7004031D01*
X969741Y-7004031D02*
X979265Y-6994508D01*
X979265Y-6994508D02*
X998312Y-6984984D01*
X1188789Y-6984984D02*
X1207836Y-6984984D01*
X1207836Y-6984984D02*
X1226884Y-6994508D01*
X1226884Y-6994508D02*
X1236408Y-7004031D01*
X1236408Y-7004031D02*
X1245932Y-7023079D01*
X1245932Y-7023079D02*
X1255455Y-7061174D01*
X1255455Y-7061174D02*
X1255455Y-7108793D01*
X1255455Y-7108793D02*
X1245932Y-7146888D01*
X1245932Y-7146888D02*
X1236408Y-7165936D01*
X1236408Y-7165936D02*
X1226884Y-7175460D01*
X1226884Y-7175460D02*
X1207836Y-7184984D01*
X1207836Y-7184984D02*
X1188789Y-7184984D01*
X1188789Y-7184984D02*
X1169741Y-7175460D01*
X1169741Y-7175460D02*
X1160217Y-7165936D01*
X1160217Y-7165936D02*
X1150694Y-7146888D01*
X1150694Y-7146888D02*
X1141170Y-7108793D01*
X1141170Y-7108793D02*
X1141170Y-7061174D01*
X1141170Y-7061174D02*
X1150694Y-7023079D01*
X1150694Y-7023079D02*
X1160217Y-7004031D01*
X1160217Y-7004031D02*
X1169741Y-6994508D01*
X1169741Y-6994508D02*
X1188789Y-6984984D01*
X1341170Y-7184984D02*
X1341170Y-7051650D01*
X1341170Y-7070698D02*
X1350694Y-7061174D01*
X1350694Y-7061174D02*
X1369741Y-7051650D01*
X1369741Y-7051650D02*
X1398313Y-7051650D01*
X1398313Y-7051650D02*
X1417360Y-7061174D01*
X1417360Y-7061174D02*
X1426884Y-7080222D01*
X1426884Y-7080222D02*
X1426884Y-7184984D01*
X1426884Y-7080222D02*
X1436408Y-7061174D01*
X1436408Y-7061174D02*
X1455455Y-7051650D01*
X1455455Y-7051650D02*
X1484027Y-7051650D01*
X1484027Y-7051650D02*
X1503074Y-7061174D01*
X1503074Y-7061174D02*
X1512598Y-7080222D01*
X1512598Y-7080222D02*
X1512598Y-7184984D01*
X1607836Y-7184984D02*
X1607836Y-7051650D01*
X1607836Y-7070698D02*
X1617360Y-7061174D01*
X1617360Y-7061174D02*
X1636408Y-7051650D01*
X1636408Y-7051650D02*
X1664979Y-7051650D01*
X1664979Y-7051650D02*
X1684027Y-7061174D01*
X1684027Y-7061174D02*
X1693551Y-7080222D01*
X1693551Y-7080222D02*
X1693551Y-7184984D01*
X1693551Y-7080222D02*
X1703074Y-7061174D01*
X1703074Y-7061174D02*
X1722122Y-7051650D01*
X1722122Y-7051650D02*
X1750693Y-7051650D01*
X1750693Y-7051650D02*
X1769741Y-7061174D01*
X1769741Y-7061174D02*
X1779265Y-7080222D01*
X1779265Y-7080222D02*
X1779265Y-7184984D01*
X2169741Y-6975460D02*
X1998313Y-7232603D01*
X2426884Y-6984984D02*
X2445932Y-6984984D01*
X2445932Y-6984984D02*
X2464979Y-6994508D01*
X2464979Y-6994508D02*
X2474503Y-7004031D01*
X2474503Y-7004031D02*
X2484027Y-7023079D01*
X2484027Y-7023079D02*
X2493551Y-7061174D01*
X2493551Y-7061174D02*
X2493551Y-7108793D01*
X2493551Y-7108793D02*
X2484027Y-7146888D01*
X2484027Y-7146888D02*
X2474503Y-7165936D01*
X2474503Y-7165936D02*
X2464979Y-7175460D01*
X2464979Y-7175460D02*
X2445932Y-7184984D01*
X2445932Y-7184984D02*
X2426884Y-7184984D01*
X2426884Y-7184984D02*
X2407837Y-7175460D01*
X2407837Y-7175460D02*
X2398313Y-7165936D01*
X2398313Y-7165936D02*
X2388789Y-7146888D01*
X2388789Y-7146888D02*
X2379265Y-7108793D01*
X2379265Y-7108793D02*
X2379265Y-7061174D01*
X2379265Y-7061174D02*
X2388789Y-7023079D01*
X2388789Y-7023079D02*
X2398313Y-7004031D01*
X2398313Y-7004031D02*
X2407837Y-6994508D01*
X2407837Y-6994508D02*
X2426884Y-6984984D01*
X2579265Y-7165936D02*
X2588789Y-7175460D01*
X2588789Y-7175460D02*
X2579265Y-7184984D01*
X2579265Y-7184984D02*
X2569741Y-7175460D01*
X2569741Y-7175460D02*
X2579265Y-7165936D01*
X2579265Y-7165936D02*
X2579265Y-7184984D01*
X2712598Y-6984984D02*
X2731646Y-6984984D01*
X2731646Y-6984984D02*
X2750694Y-6994508D01*
X2750694Y-6994508D02*
X2760218Y-7004031D01*
X2760218Y-7004031D02*
X2769741Y-7023079D01*
X2769741Y-7023079D02*
X2779265Y-7061174D01*
X2779265Y-7061174D02*
X2779265Y-7108793D01*
X2779265Y-7108793D02*
X2769741Y-7146888D01*
X2769741Y-7146888D02*
X2760218Y-7165936D01*
X2760218Y-7165936D02*
X2750694Y-7175460D01*
X2750694Y-7175460D02*
X2731646Y-7184984D01*
X2731646Y-7184984D02*
X2712598Y-7184984D01*
X2712598Y-7184984D02*
X2693551Y-7175460D01*
X2693551Y-7175460D02*
X2684027Y-7165936D01*
X2684027Y-7165936D02*
X2674503Y-7146888D01*
X2674503Y-7146888D02*
X2664979Y-7108793D01*
X2664979Y-7108793D02*
X2664979Y-7061174D01*
X2664979Y-7061174D02*
X2674503Y-7023079D01*
X2674503Y-7023079D02*
X2684027Y-7004031D01*
X2684027Y-7004031D02*
X2693551Y-6994508D01*
X2693551Y-6994508D02*
X2712598Y-6984984D01*
X2874503Y-7184984D02*
X2912598Y-7184984D01*
X2912598Y-7184984D02*
X2931646Y-7175460D01*
X2931646Y-7175460D02*
X2941170Y-7165936D01*
X2941170Y-7165936D02*
X2960217Y-7137365D01*
X2960217Y-7137365D02*
X2969741Y-7099269D01*
X2969741Y-7099269D02*
X2969741Y-7023079D01*
X2969741Y-7023079D02*
X2960217Y-7004031D01*
X2960217Y-7004031D02*
X2950694Y-6994508D01*
X2950694Y-6994508D02*
X2931646Y-6984984D01*
X2931646Y-6984984D02*
X2893551Y-6984984D01*
X2893551Y-6984984D02*
X2874503Y-6994508D01*
X2874503Y-6994508D02*
X2864979Y-7004031D01*
X2864979Y-7004031D02*
X2855456Y-7023079D01*
X2855456Y-7023079D02*
X2855456Y-7070698D01*
X2855456Y-7070698D02*
X2864979Y-7089746D01*
X2864979Y-7089746D02*
X2874503Y-7099269D01*
X2874503Y-7099269D02*
X2893551Y-7108793D01*
X2893551Y-7108793D02*
X2931646Y-7108793D01*
X2931646Y-7108793D02*
X2950694Y-7099269D01*
X2950694Y-7099269D02*
X2960217Y-7089746D01*
X2960217Y-7089746D02*
X2969741Y-7070698D01*
X3093551Y-6984984D02*
X3112598Y-6984984D01*
X3112598Y-6984984D02*
X3131646Y-6994508D01*
X3131646Y-6994508D02*
X3141170Y-7004031D01*
X3141170Y-7004031D02*
X3150694Y-7023079D01*
X3150694Y-7023079D02*
X3160217Y-7061174D01*
X3160217Y-7061174D02*
X3160217Y-7108793D01*
X3160217Y-7108793D02*
X3150694Y-7146888D01*
X3150694Y-7146888D02*
X3141170Y-7165936D01*
X3141170Y-7165936D02*
X3131646Y-7175460D01*
X3131646Y-7175460D02*
X3112598Y-7184984D01*
X3112598Y-7184984D02*
X3093551Y-7184984D01*
X3093551Y-7184984D02*
X3074503Y-7175460D01*
X3074503Y-7175460D02*
X3064979Y-7165936D01*
X3064979Y-7165936D02*
X3055456Y-7146888D01*
X3055456Y-7146888D02*
X3045932Y-7108793D01*
X3045932Y-7108793D02*
X3045932Y-7061174D01*
X3045932Y-7061174D02*
X3055456Y-7023079D01*
X3055456Y-7023079D02*
X3064979Y-7004031D01*
X3064979Y-7004031D02*
X3074503Y-6994508D01*
X3074503Y-6994508D02*
X3093551Y-6984984D01*
X3331646Y-6984984D02*
X3293551Y-6984984D01*
X3293551Y-6984984D02*
X3274503Y-6994508D01*
X3274503Y-6994508D02*
X3264979Y-7004031D01*
X3264979Y-7004031D02*
X3245932Y-7032603D01*
X3245932Y-7032603D02*
X3236408Y-7070698D01*
X3236408Y-7070698D02*
X3236408Y-7146888D01*
X3236408Y-7146888D02*
X3245932Y-7165936D01*
X3245932Y-7165936D02*
X3255456Y-7175460D01*
X3255456Y-7175460D02*
X3274503Y-7184984D01*
X3274503Y-7184984D02*
X3312598Y-7184984D01*
X3312598Y-7184984D02*
X3331646Y-7175460D01*
X3331646Y-7175460D02*
X3341170Y-7165936D01*
X3341170Y-7165936D02*
X3350694Y-7146888D01*
X3350694Y-7146888D02*
X3350694Y-7099269D01*
X3350694Y-7099269D02*
X3341170Y-7080222D01*
X3341170Y-7080222D02*
X3331646Y-7070698D01*
X3331646Y-7070698D02*
X3312598Y-7061174D01*
X3312598Y-7061174D02*
X3274503Y-7061174D01*
X3274503Y-7061174D02*
X3255456Y-7070698D01*
X3255456Y-7070698D02*
X3245932Y-7080222D01*
X3245932Y-7080222D02*
X3236408Y-7099269D01*
X3426884Y-6984984D02*
X3426884Y-7023079D01*
X3503075Y-6984984D02*
X3503075Y-7023079D01*
X3798313Y-7261174D02*
X3788789Y-7251650D01*
X3788789Y-7251650D02*
X3769741Y-7223079D01*
X3769741Y-7223079D02*
X3760218Y-7204031D01*
X3760218Y-7204031D02*
X3750694Y-7175460D01*
X3750694Y-7175460D02*
X3741170Y-7127841D01*
X3741170Y-7127841D02*
X3741170Y-7089746D01*
X3741170Y-7089746D02*
X3750694Y-7042127D01*
X3750694Y-7042127D02*
X3760218Y-7013555D01*
X3760218Y-7013555D02*
X3769741Y-6994508D01*
X3769741Y-6994508D02*
X3788789Y-6965936D01*
X3788789Y-6965936D02*
X3798313Y-6956412D01*
X3864979Y-7004031D02*
X3874503Y-6994508D01*
X3874503Y-6994508D02*
X3893551Y-6984984D01*
X3893551Y-6984984D02*
X3941170Y-6984984D01*
X3941170Y-6984984D02*
X3960218Y-6994508D01*
X3960218Y-6994508D02*
X3969741Y-7004031D01*
X3969741Y-7004031D02*
X3979265Y-7023079D01*
X3979265Y-7023079D02*
X3979265Y-7042127D01*
X3979265Y-7042127D02*
X3969741Y-7070698D01*
X3969741Y-7070698D02*
X3855456Y-7184984D01*
X3855456Y-7184984D02*
X3979265Y-7184984D01*
X4217361Y-7184984D02*
X4217361Y-6984984D01*
X4303075Y-7184984D02*
X4303075Y-7080222D01*
X4303075Y-7080222D02*
X4293551Y-7061174D01*
X4293551Y-7061174D02*
X4274503Y-7051650D01*
X4274503Y-7051650D02*
X4245932Y-7051650D01*
X4245932Y-7051650D02*
X4226884Y-7061174D01*
X4226884Y-7061174D02*
X4217361Y-7070698D01*
X4426884Y-7184984D02*
X4407837Y-7175460D01*
X4407837Y-7175460D02*
X4398313Y-7165936D01*
X4398313Y-7165936D02*
X4388789Y-7146888D01*
X4388789Y-7146888D02*
X4388789Y-7089746D01*
X4388789Y-7089746D02*
X4398313Y-7070698D01*
X4398313Y-7070698D02*
X4407837Y-7061174D01*
X4407837Y-7061174D02*
X4426884Y-7051650D01*
X4426884Y-7051650D02*
X4455456Y-7051650D01*
X4455456Y-7051650D02*
X4474503Y-7061174D01*
X4474503Y-7061174D02*
X4484027Y-7070698D01*
X4484027Y-7070698D02*
X4493551Y-7089746D01*
X4493551Y-7089746D02*
X4493551Y-7146888D01*
X4493551Y-7146888D02*
X4484027Y-7165936D01*
X4484027Y-7165936D02*
X4474503Y-7175460D01*
X4474503Y-7175460D02*
X4455456Y-7184984D01*
X4455456Y-7184984D02*
X4426884Y-7184984D01*
X4607837Y-7184984D02*
X4588789Y-7175460D01*
X4588789Y-7175460D02*
X4579265Y-7156412D01*
X4579265Y-7156412D02*
X4579265Y-6984984D01*
X4760218Y-7175460D02*
X4741170Y-7184984D01*
X4741170Y-7184984D02*
X4703075Y-7184984D01*
X4703075Y-7184984D02*
X4684027Y-7175460D01*
X4684027Y-7175460D02*
X4674503Y-7156412D01*
X4674503Y-7156412D02*
X4674503Y-7080222D01*
X4674503Y-7080222D02*
X4684027Y-7061174D01*
X4684027Y-7061174D02*
X4703075Y-7051650D01*
X4703075Y-7051650D02*
X4741170Y-7051650D01*
X4741170Y-7051650D02*
X4760218Y-7061174D01*
X4760218Y-7061174D02*
X4769742Y-7080222D01*
X4769742Y-7080222D02*
X4769742Y-7099269D01*
X4769742Y-7099269D02*
X4674503Y-7118317D01*
X4845932Y-7175460D02*
X4864980Y-7184984D01*
X4864980Y-7184984D02*
X4903075Y-7184984D01*
X4903075Y-7184984D02*
X4922123Y-7175460D01*
X4922123Y-7175460D02*
X4931646Y-7156412D01*
X4931646Y-7156412D02*
X4931646Y-7146888D01*
X4931646Y-7146888D02*
X4922123Y-7127841D01*
X4922123Y-7127841D02*
X4903075Y-7118317D01*
X4903075Y-7118317D02*
X4874503Y-7118317D01*
X4874503Y-7118317D02*
X4855456Y-7108793D01*
X4855456Y-7108793D02*
X4845932Y-7089746D01*
X4845932Y-7089746D02*
X4845932Y-7080222D01*
X4845932Y-7080222D02*
X4855456Y-7061174D01*
X4855456Y-7061174D02*
X4874503Y-7051650D01*
X4874503Y-7051650D02*
X4903075Y-7051650D01*
X4903075Y-7051650D02*
X4922123Y-7061174D01*
X4998313Y-7261174D02*
X5007837Y-7251650D01*
X5007837Y-7251650D02*
X5026884Y-7223079D01*
X5026884Y-7223079D02*
X5036408Y-7204031D01*
X5036408Y-7204031D02*
X5045932Y-7175460D01*
X5045932Y-7175460D02*
X5055456Y-7127841D01*
X5055456Y-7127841D02*
X5055456Y-7089746D01*
X5055456Y-7089746D02*
X5045932Y-7042127D01*
X5045932Y-7042127D02*
X5036408Y-7013555D01*
X5036408Y-7013555D02*
X5026884Y-6994508D01*
X5026884Y-6994508D02*
X5007837Y-6965936D01*
X5007837Y-6965936D02*
X4998313Y-6956412D01*
D12*
X213731Y-7436481D02*
X213731Y-7390519D01*
X167769Y-7390519D01*
X167769Y-7436481D01*
X213731Y-7436481D01*
D11*
X522122Y-7304984D02*
X541170Y-7304984D01*
X541170Y-7304984D02*
X560217Y-7314508D01*
X560217Y-7314508D02*
X569741Y-7324031D01*
X569741Y-7324031D02*
X579265Y-7343079D01*
X579265Y-7343079D02*
X588789Y-7381174D01*
X588789Y-7381174D02*
X588789Y-7428793D01*
X588789Y-7428793D02*
X579265Y-7466888D01*
X579265Y-7466888D02*
X569741Y-7485936D01*
X569741Y-7485936D02*
X560217Y-7495460D01*
X560217Y-7495460D02*
X541170Y-7504984D01*
X541170Y-7504984D02*
X522122Y-7504984D01*
X522122Y-7504984D02*
X503074Y-7495460D01*
X503074Y-7495460D02*
X493551Y-7485936D01*
X493551Y-7485936D02*
X484027Y-7466888D01*
X484027Y-7466888D02*
X474503Y-7428793D01*
X474503Y-7428793D02*
X474503Y-7381174D01*
X474503Y-7381174D02*
X484027Y-7343079D01*
X484027Y-7343079D02*
X493551Y-7324031D01*
X493551Y-7324031D02*
X503074Y-7314508D01*
X503074Y-7314508D02*
X522122Y-7304984D01*
X674503Y-7485936D02*
X684027Y-7495460D01*
X684027Y-7495460D02*
X674503Y-7504984D01*
X674503Y-7504984D02*
X664979Y-7495460D01*
X664979Y-7495460D02*
X674503Y-7485936D01*
X674503Y-7485936D02*
X674503Y-7504984D01*
X855455Y-7304984D02*
X817360Y-7304984D01*
X817360Y-7304984D02*
X798312Y-7314508D01*
X798312Y-7314508D02*
X788789Y-7324031D01*
X788789Y-7324031D02*
X769741Y-7352603D01*
X769741Y-7352603D02*
X760217Y-7390698D01*
X760217Y-7390698D02*
X760217Y-7466888D01*
X760217Y-7466888D02*
X769741Y-7485936D01*
X769741Y-7485936D02*
X779265Y-7495460D01*
X779265Y-7495460D02*
X798312Y-7504984D01*
X798312Y-7504984D02*
X836408Y-7504984D01*
X836408Y-7504984D02*
X855455Y-7495460D01*
X855455Y-7495460D02*
X864979Y-7485936D01*
X864979Y-7485936D02*
X874503Y-7466888D01*
X874503Y-7466888D02*
X874503Y-7419269D01*
X874503Y-7419269D02*
X864979Y-7400222D01*
X864979Y-7400222D02*
X855455Y-7390698D01*
X855455Y-7390698D02*
X836408Y-7381174D01*
X836408Y-7381174D02*
X798312Y-7381174D01*
X798312Y-7381174D02*
X779265Y-7390698D01*
X779265Y-7390698D02*
X769741Y-7400222D01*
X769741Y-7400222D02*
X760217Y-7419269D01*
X1055455Y-7304984D02*
X960217Y-7304984D01*
X960217Y-7304984D02*
X950693Y-7400222D01*
X950693Y-7400222D02*
X960217Y-7390698D01*
X960217Y-7390698D02*
X979265Y-7381174D01*
X979265Y-7381174D02*
X1026884Y-7381174D01*
X1026884Y-7381174D02*
X1045932Y-7390698D01*
X1045932Y-7390698D02*
X1055455Y-7400222D01*
X1055455Y-7400222D02*
X1064979Y-7419269D01*
X1064979Y-7419269D02*
X1064979Y-7466888D01*
X1064979Y-7466888D02*
X1055455Y-7485936D01*
X1055455Y-7485936D02*
X1045932Y-7495460D01*
X1045932Y-7495460D02*
X1026884Y-7504984D01*
X1026884Y-7504984D02*
X979265Y-7504984D01*
X979265Y-7504984D02*
X960217Y-7495460D01*
X960217Y-7495460D02*
X950693Y-7485936D01*
X1188789Y-7304984D02*
X1207836Y-7304984D01*
X1207836Y-7304984D02*
X1226884Y-7314508D01*
X1226884Y-7314508D02*
X1236408Y-7324031D01*
X1236408Y-7324031D02*
X1245932Y-7343079D01*
X1245932Y-7343079D02*
X1255455Y-7381174D01*
X1255455Y-7381174D02*
X1255455Y-7428793D01*
X1255455Y-7428793D02*
X1245932Y-7466888D01*
X1245932Y-7466888D02*
X1236408Y-7485936D01*
X1236408Y-7485936D02*
X1226884Y-7495460D01*
X1226884Y-7495460D02*
X1207836Y-7504984D01*
X1207836Y-7504984D02*
X1188789Y-7504984D01*
X1188789Y-7504984D02*
X1169741Y-7495460D01*
X1169741Y-7495460D02*
X1160217Y-7485936D01*
X1160217Y-7485936D02*
X1150694Y-7466888D01*
X1150694Y-7466888D02*
X1141170Y-7428793D01*
X1141170Y-7428793D02*
X1141170Y-7381174D01*
X1141170Y-7381174D02*
X1150694Y-7343079D01*
X1150694Y-7343079D02*
X1160217Y-7324031D01*
X1160217Y-7324031D02*
X1169741Y-7314508D01*
X1169741Y-7314508D02*
X1188789Y-7304984D01*
X1341170Y-7504984D02*
X1341170Y-7371650D01*
X1341170Y-7390698D02*
X1350694Y-7381174D01*
X1350694Y-7381174D02*
X1369741Y-7371650D01*
X1369741Y-7371650D02*
X1398313Y-7371650D01*
X1398313Y-7371650D02*
X1417360Y-7381174D01*
X1417360Y-7381174D02*
X1426884Y-7400222D01*
X1426884Y-7400222D02*
X1426884Y-7504984D01*
X1426884Y-7400222D02*
X1436408Y-7381174D01*
X1436408Y-7381174D02*
X1455455Y-7371650D01*
X1455455Y-7371650D02*
X1484027Y-7371650D01*
X1484027Y-7371650D02*
X1503074Y-7381174D01*
X1503074Y-7381174D02*
X1512598Y-7400222D01*
X1512598Y-7400222D02*
X1512598Y-7504984D01*
X1607836Y-7504984D02*
X1607836Y-7371650D01*
X1607836Y-7390698D02*
X1617360Y-7381174D01*
X1617360Y-7381174D02*
X1636408Y-7371650D01*
X1636408Y-7371650D02*
X1664979Y-7371650D01*
X1664979Y-7371650D02*
X1684027Y-7381174D01*
X1684027Y-7381174D02*
X1693551Y-7400222D01*
X1693551Y-7400222D02*
X1693551Y-7504984D01*
X1693551Y-7400222D02*
X1703074Y-7381174D01*
X1703074Y-7381174D02*
X1722122Y-7371650D01*
X1722122Y-7371650D02*
X1750693Y-7371650D01*
X1750693Y-7371650D02*
X1769741Y-7381174D01*
X1769741Y-7381174D02*
X1779265Y-7400222D01*
X1779265Y-7400222D02*
X1779265Y-7504984D01*
X2169741Y-7295460D02*
X1998313Y-7552603D01*
X2426884Y-7304984D02*
X2445932Y-7304984D01*
X2445932Y-7304984D02*
X2464979Y-7314508D01*
X2464979Y-7314508D02*
X2474503Y-7324031D01*
X2474503Y-7324031D02*
X2484027Y-7343079D01*
X2484027Y-7343079D02*
X2493551Y-7381174D01*
X2493551Y-7381174D02*
X2493551Y-7428793D01*
X2493551Y-7428793D02*
X2484027Y-7466888D01*
X2484027Y-7466888D02*
X2474503Y-7485936D01*
X2474503Y-7485936D02*
X2464979Y-7495460D01*
X2464979Y-7495460D02*
X2445932Y-7504984D01*
X2445932Y-7504984D02*
X2426884Y-7504984D01*
X2426884Y-7504984D02*
X2407837Y-7495460D01*
X2407837Y-7495460D02*
X2398313Y-7485936D01*
X2398313Y-7485936D02*
X2388789Y-7466888D01*
X2388789Y-7466888D02*
X2379265Y-7428793D01*
X2379265Y-7428793D02*
X2379265Y-7381174D01*
X2379265Y-7381174D02*
X2388789Y-7343079D01*
X2388789Y-7343079D02*
X2398313Y-7324031D01*
X2398313Y-7324031D02*
X2407837Y-7314508D01*
X2407837Y-7314508D02*
X2426884Y-7304984D01*
X2579265Y-7485936D02*
X2588789Y-7495460D01*
X2588789Y-7495460D02*
X2579265Y-7504984D01*
X2579265Y-7504984D02*
X2569741Y-7495460D01*
X2569741Y-7495460D02*
X2579265Y-7485936D01*
X2579265Y-7485936D02*
X2579265Y-7504984D01*
X2712598Y-7304984D02*
X2731646Y-7304984D01*
X2731646Y-7304984D02*
X2750694Y-7314508D01*
X2750694Y-7314508D02*
X2760218Y-7324031D01*
X2760218Y-7324031D02*
X2769741Y-7343079D01*
X2769741Y-7343079D02*
X2779265Y-7381174D01*
X2779265Y-7381174D02*
X2779265Y-7428793D01*
X2779265Y-7428793D02*
X2769741Y-7466888D01*
X2769741Y-7466888D02*
X2760218Y-7485936D01*
X2760218Y-7485936D02*
X2750694Y-7495460D01*
X2750694Y-7495460D02*
X2731646Y-7504984D01*
X2731646Y-7504984D02*
X2712598Y-7504984D01*
X2712598Y-7504984D02*
X2693551Y-7495460D01*
X2693551Y-7495460D02*
X2684027Y-7485936D01*
X2684027Y-7485936D02*
X2674503Y-7466888D01*
X2674503Y-7466888D02*
X2664979Y-7428793D01*
X2664979Y-7428793D02*
X2664979Y-7381174D01*
X2664979Y-7381174D02*
X2674503Y-7343079D01*
X2674503Y-7343079D02*
X2684027Y-7324031D01*
X2684027Y-7324031D02*
X2693551Y-7314508D01*
X2693551Y-7314508D02*
X2712598Y-7304984D01*
X2855456Y-7324031D02*
X2864979Y-7314508D01*
X2864979Y-7314508D02*
X2884027Y-7304984D01*
X2884027Y-7304984D02*
X2931646Y-7304984D01*
X2931646Y-7304984D02*
X2950694Y-7314508D01*
X2950694Y-7314508D02*
X2960217Y-7324031D01*
X2960217Y-7324031D02*
X2969741Y-7343079D01*
X2969741Y-7343079D02*
X2969741Y-7362127D01*
X2969741Y-7362127D02*
X2960217Y-7390698D01*
X2960217Y-7390698D02*
X2845932Y-7504984D01*
X2845932Y-7504984D02*
X2969741Y-7504984D01*
X3150694Y-7304984D02*
X3055456Y-7304984D01*
X3055456Y-7304984D02*
X3045932Y-7400222D01*
X3045932Y-7400222D02*
X3055456Y-7390698D01*
X3055456Y-7390698D02*
X3074503Y-7381174D01*
X3074503Y-7381174D02*
X3122122Y-7381174D01*
X3122122Y-7381174D02*
X3141170Y-7390698D01*
X3141170Y-7390698D02*
X3150694Y-7400222D01*
X3150694Y-7400222D02*
X3160217Y-7419269D01*
X3160217Y-7419269D02*
X3160217Y-7466888D01*
X3160217Y-7466888D02*
X3150694Y-7485936D01*
X3150694Y-7485936D02*
X3141170Y-7495460D01*
X3141170Y-7495460D02*
X3122122Y-7504984D01*
X3122122Y-7504984D02*
X3074503Y-7504984D01*
X3074503Y-7504984D02*
X3055456Y-7495460D01*
X3055456Y-7495460D02*
X3045932Y-7485936D01*
X3331646Y-7304984D02*
X3293551Y-7304984D01*
X3293551Y-7304984D02*
X3274503Y-7314508D01*
X3274503Y-7314508D02*
X3264979Y-7324031D01*
X3264979Y-7324031D02*
X3245932Y-7352603D01*
X3245932Y-7352603D02*
X3236408Y-7390698D01*
X3236408Y-7390698D02*
X3236408Y-7466888D01*
X3236408Y-7466888D02*
X3245932Y-7485936D01*
X3245932Y-7485936D02*
X3255456Y-7495460D01*
X3255456Y-7495460D02*
X3274503Y-7504984D01*
X3274503Y-7504984D02*
X3312598Y-7504984D01*
X3312598Y-7504984D02*
X3331646Y-7495460D01*
X3331646Y-7495460D02*
X3341170Y-7485936D01*
X3341170Y-7485936D02*
X3350694Y-7466888D01*
X3350694Y-7466888D02*
X3350694Y-7419269D01*
X3350694Y-7419269D02*
X3341170Y-7400222D01*
X3341170Y-7400222D02*
X3331646Y-7390698D01*
X3331646Y-7390698D02*
X3312598Y-7381174D01*
X3312598Y-7381174D02*
X3274503Y-7381174D01*
X3274503Y-7381174D02*
X3255456Y-7390698D01*
X3255456Y-7390698D02*
X3245932Y-7400222D01*
X3245932Y-7400222D02*
X3236408Y-7419269D01*
X3426884Y-7304984D02*
X3426884Y-7343079D01*
X3503075Y-7304984D02*
X3503075Y-7343079D01*
X3798313Y-7581174D02*
X3788789Y-7571650D01*
X3788789Y-7571650D02*
X3769741Y-7543079D01*
X3769741Y-7543079D02*
X3760218Y-7524031D01*
X3760218Y-7524031D02*
X3750694Y-7495460D01*
X3750694Y-7495460D02*
X3741170Y-7447841D01*
X3741170Y-7447841D02*
X3741170Y-7409746D01*
X3741170Y-7409746D02*
X3750694Y-7362127D01*
X3750694Y-7362127D02*
X3760218Y-7333555D01*
X3760218Y-7333555D02*
X3769741Y-7314508D01*
X3769741Y-7314508D02*
X3788789Y-7285936D01*
X3788789Y-7285936D02*
X3798313Y-7276412D01*
X3864979Y-7324031D02*
X3874503Y-7314508D01*
X3874503Y-7314508D02*
X3893551Y-7304984D01*
X3893551Y-7304984D02*
X3941170Y-7304984D01*
X3941170Y-7304984D02*
X3960218Y-7314508D01*
X3960218Y-7314508D02*
X3969741Y-7324031D01*
X3969741Y-7324031D02*
X3979265Y-7343079D01*
X3979265Y-7343079D02*
X3979265Y-7362127D01*
X3979265Y-7362127D02*
X3969741Y-7390698D01*
X3969741Y-7390698D02*
X3855456Y-7504984D01*
X3855456Y-7504984D02*
X3979265Y-7504984D01*
X4217361Y-7504984D02*
X4217361Y-7304984D01*
X4303075Y-7504984D02*
X4303075Y-7400222D01*
X4303075Y-7400222D02*
X4293551Y-7381174D01*
X4293551Y-7381174D02*
X4274503Y-7371650D01*
X4274503Y-7371650D02*
X4245932Y-7371650D01*
X4245932Y-7371650D02*
X4226884Y-7381174D01*
X4226884Y-7381174D02*
X4217361Y-7390698D01*
X4426884Y-7504984D02*
X4407837Y-7495460D01*
X4407837Y-7495460D02*
X4398313Y-7485936D01*
X4398313Y-7485936D02*
X4388789Y-7466888D01*
X4388789Y-7466888D02*
X4388789Y-7409746D01*
X4388789Y-7409746D02*
X4398313Y-7390698D01*
X4398313Y-7390698D02*
X4407837Y-7381174D01*
X4407837Y-7381174D02*
X4426884Y-7371650D01*
X4426884Y-7371650D02*
X4455456Y-7371650D01*
X4455456Y-7371650D02*
X4474503Y-7381174D01*
X4474503Y-7381174D02*
X4484027Y-7390698D01*
X4484027Y-7390698D02*
X4493551Y-7409746D01*
X4493551Y-7409746D02*
X4493551Y-7466888D01*
X4493551Y-7466888D02*
X4484027Y-7485936D01*
X4484027Y-7485936D02*
X4474503Y-7495460D01*
X4474503Y-7495460D02*
X4455456Y-7504984D01*
X4455456Y-7504984D02*
X4426884Y-7504984D01*
X4607837Y-7504984D02*
X4588789Y-7495460D01*
X4588789Y-7495460D02*
X4579265Y-7476412D01*
X4579265Y-7476412D02*
X4579265Y-7304984D01*
X4760218Y-7495460D02*
X4741170Y-7504984D01*
X4741170Y-7504984D02*
X4703075Y-7504984D01*
X4703075Y-7504984D02*
X4684027Y-7495460D01*
X4684027Y-7495460D02*
X4674503Y-7476412D01*
X4674503Y-7476412D02*
X4674503Y-7400222D01*
X4674503Y-7400222D02*
X4684027Y-7381174D01*
X4684027Y-7381174D02*
X4703075Y-7371650D01*
X4703075Y-7371650D02*
X4741170Y-7371650D01*
X4741170Y-7371650D02*
X4760218Y-7381174D01*
X4760218Y-7381174D02*
X4769742Y-7400222D01*
X4769742Y-7400222D02*
X4769742Y-7419269D01*
X4769742Y-7419269D02*
X4674503Y-7438317D01*
X4845932Y-7495460D02*
X4864980Y-7504984D01*
X4864980Y-7504984D02*
X4903075Y-7504984D01*
X4903075Y-7504984D02*
X4922123Y-7495460D01*
X4922123Y-7495460D02*
X4931646Y-7476412D01*
X4931646Y-7476412D02*
X4931646Y-7466888D01*
X4931646Y-7466888D02*
X4922123Y-7447841D01*
X4922123Y-7447841D02*
X4903075Y-7438317D01*
X4903075Y-7438317D02*
X4874503Y-7438317D01*
X4874503Y-7438317D02*
X4855456Y-7428793D01*
X4855456Y-7428793D02*
X4845932Y-7409746D01*
X4845932Y-7409746D02*
X4845932Y-7400222D01*
X4845932Y-7400222D02*
X4855456Y-7381174D01*
X4855456Y-7381174D02*
X4874503Y-7371650D01*
X4874503Y-7371650D02*
X4903075Y-7371650D01*
X4903075Y-7371650D02*
X4922123Y-7381174D01*
X4998313Y-7581174D02*
X5007837Y-7571650D01*
X5007837Y-7571650D02*
X5026884Y-7543079D01*
X5026884Y-7543079D02*
X5036408Y-7524031D01*
X5036408Y-7524031D02*
X5045932Y-7495460D01*
X5045932Y-7495460D02*
X5055456Y-7447841D01*
X5055456Y-7447841D02*
X5055456Y-7409746D01*
X5055456Y-7409746D02*
X5045932Y-7362127D01*
X5045932Y-7362127D02*
X5036408Y-7333555D01*
X5036408Y-7333555D02*
X5026884Y-7314508D01*
X5026884Y-7314508D02*
X5007837Y-7285936D01*
X5007837Y-7285936D02*
X4998313Y-7276412D01*
X5360218Y-7581174D02*
X5350694Y-7571650D01*
X5350694Y-7571650D02*
X5331646Y-7543079D01*
X5331646Y-7543079D02*
X5322123Y-7524031D01*
X5322123Y-7524031D02*
X5312599Y-7495460D01*
X5312599Y-7495460D02*
X5303075Y-7447841D01*
X5303075Y-7447841D02*
X5303075Y-7409746D01*
X5303075Y-7409746D02*
X5312599Y-7362127D01*
X5312599Y-7362127D02*
X5322123Y-7333555D01*
X5322123Y-7333555D02*
X5331646Y-7314508D01*
X5331646Y-7314508D02*
X5350694Y-7285936D01*
X5350694Y-7285936D02*
X5360218Y-7276412D01*
X5436408Y-7371650D02*
X5436408Y-7504984D01*
X5436408Y-7390698D02*
X5445932Y-7381174D01*
X5445932Y-7381174D02*
X5464980Y-7371650D01*
X5464980Y-7371650D02*
X5493551Y-7371650D01*
X5493551Y-7371650D02*
X5512599Y-7381174D01*
X5512599Y-7381174D02*
X5522123Y-7400222D01*
X5522123Y-7400222D02*
X5522123Y-7504984D01*
X5645932Y-7504984D02*
X5626884Y-7495460D01*
X5626884Y-7495460D02*
X5617361Y-7485936D01*
X5617361Y-7485936D02*
X5607837Y-7466888D01*
X5607837Y-7466888D02*
X5607837Y-7409746D01*
X5607837Y-7409746D02*
X5617361Y-7390698D01*
X5617361Y-7390698D02*
X5626884Y-7381174D01*
X5626884Y-7381174D02*
X5645932Y-7371650D01*
X5645932Y-7371650D02*
X5674503Y-7371650D01*
X5674503Y-7371650D02*
X5693551Y-7381174D01*
X5693551Y-7381174D02*
X5703075Y-7390698D01*
X5703075Y-7390698D02*
X5712599Y-7409746D01*
X5712599Y-7409746D02*
X5712599Y-7466888D01*
X5712599Y-7466888D02*
X5703075Y-7485936D01*
X5703075Y-7485936D02*
X5693551Y-7495460D01*
X5693551Y-7495460D02*
X5674503Y-7504984D01*
X5674503Y-7504984D02*
X5645932Y-7504984D01*
X5769742Y-7371650D02*
X5845932Y-7371650D01*
X5798313Y-7304984D02*
X5798313Y-7476412D01*
X5798313Y-7476412D02*
X5807837Y-7495460D01*
X5807837Y-7495460D02*
X5826884Y-7504984D01*
X5826884Y-7504984D02*
X5845932Y-7504984D01*
X6064980Y-7371650D02*
X6064980Y-7571650D01*
X6064980Y-7381174D02*
X6084027Y-7371650D01*
X6084027Y-7371650D02*
X6122123Y-7371650D01*
X6122123Y-7371650D02*
X6141170Y-7381174D01*
X6141170Y-7381174D02*
X6150694Y-7390698D01*
X6150694Y-7390698D02*
X6160218Y-7409746D01*
X6160218Y-7409746D02*
X6160218Y-7466888D01*
X6160218Y-7466888D02*
X6150694Y-7485936D01*
X6150694Y-7485936D02*
X6141170Y-7495460D01*
X6141170Y-7495460D02*
X6122123Y-7504984D01*
X6122123Y-7504984D02*
X6084027Y-7504984D01*
X6084027Y-7504984D02*
X6064980Y-7495460D01*
X6274503Y-7504984D02*
X6255456Y-7495460D01*
X6255456Y-7495460D02*
X6245932Y-7476412D01*
X6245932Y-7476412D02*
X6245932Y-7304984D01*
X6436408Y-7504984D02*
X6436408Y-7400222D01*
X6436408Y-7400222D02*
X6426884Y-7381174D01*
X6426884Y-7381174D02*
X6407837Y-7371650D01*
X6407837Y-7371650D02*
X6369742Y-7371650D01*
X6369742Y-7371650D02*
X6350694Y-7381174D01*
X6436408Y-7495460D02*
X6417361Y-7504984D01*
X6417361Y-7504984D02*
X6369742Y-7504984D01*
X6369742Y-7504984D02*
X6350694Y-7495460D01*
X6350694Y-7495460D02*
X6341170Y-7476412D01*
X6341170Y-7476412D02*
X6341170Y-7457365D01*
X6341170Y-7457365D02*
X6350694Y-7438317D01*
X6350694Y-7438317D02*
X6369742Y-7428793D01*
X6369742Y-7428793D02*
X6417361Y-7428793D01*
X6417361Y-7428793D02*
X6436408Y-7419269D01*
X6503075Y-7371650D02*
X6579265Y-7371650D01*
X6531646Y-7304984D02*
X6531646Y-7476412D01*
X6531646Y-7476412D02*
X6541170Y-7495460D01*
X6541170Y-7495460D02*
X6560218Y-7504984D01*
X6560218Y-7504984D02*
X6579265Y-7504984D01*
X6722123Y-7495460D02*
X6703075Y-7504984D01*
X6703075Y-7504984D02*
X6664980Y-7504984D01*
X6664980Y-7504984D02*
X6645932Y-7495460D01*
X6645932Y-7495460D02*
X6636408Y-7476412D01*
X6636408Y-7476412D02*
X6636408Y-7400222D01*
X6636408Y-7400222D02*
X6645932Y-7381174D01*
X6645932Y-7381174D02*
X6664980Y-7371650D01*
X6664980Y-7371650D02*
X6703075Y-7371650D01*
X6703075Y-7371650D02*
X6722123Y-7381174D01*
X6722123Y-7381174D02*
X6731646Y-7400222D01*
X6731646Y-7400222D02*
X6731646Y-7419269D01*
X6731646Y-7419269D02*
X6636408Y-7438317D01*
X6903075Y-7504984D02*
X6903075Y-7304984D01*
X6903075Y-7495460D02*
X6884027Y-7504984D01*
X6884027Y-7504984D02*
X6845932Y-7504984D01*
X6845932Y-7504984D02*
X6826884Y-7495460D01*
X6826884Y-7495460D02*
X6817361Y-7485936D01*
X6817361Y-7485936D02*
X6807837Y-7466888D01*
X6807837Y-7466888D02*
X6807837Y-7409746D01*
X6807837Y-7409746D02*
X6817361Y-7390698D01*
X6817361Y-7390698D02*
X6826884Y-7381174D01*
X6826884Y-7381174D02*
X6845932Y-7371650D01*
X6845932Y-7371650D02*
X6884027Y-7371650D01*
X6884027Y-7371650D02*
X6903075Y-7381174D01*
X6979265Y-7581174D02*
X6988789Y-7571650D01*
X6988789Y-7571650D02*
X7007837Y-7543079D01*
X7007837Y-7543079D02*
X7017361Y-7524031D01*
X7017361Y-7524031D02*
X7026884Y-7495460D01*
X7026884Y-7495460D02*
X7036408Y-7447841D01*
X7036408Y-7447841D02*
X7036408Y-7409746D01*
X7036408Y-7409746D02*
X7026884Y-7362127D01*
X7026884Y-7362127D02*
X7017361Y-7333555D01*
X7017361Y-7333555D02*
X7007837Y-7314508D01*
X7007837Y-7314508D02*
X6988789Y-7285936D01*
X6988789Y-7285936D02*
X6979265Y-7276412D01*
M02*
