%TF.GenerationSoftware,KiCad,Pcbnew,10.0.3*%
%TF.CreationDate,2026-05-22T10:14:43+10:00*%
%TF.ProjectId,screen-hopper-compact,73637265-656e-42d6-986f-707065722d63,rev?*%
%TF.SameCoordinates,Original*%
%TF.FileFunction,Copper,L2,Bot*%
%TF.FilePolarity,Positive*%
%FSLAX46Y46*%
G04 Gerber Fmt 4.6, Leading zero omitted, Abs format (unit mm)*
G04 Created by KiCad (PCBNEW 10.0.3) date 2026-05-22 10:14:43*
%MOMM*%
%LPD*%
G01*
G04 APERTURE LIST*
G04 Aperture macros list*
%AMRoundRect*
0 Rectangle with rounded corners*
0 $1 Rounding radius*
0 $2 $3 $4 $5 $6 $7 $8 $9 X,Y pos of 4 corners*
0 Add a 4 corners polygon primitive as box body*
4,1,4,$2,$3,$4,$5,$6,$7,$8,$9,$2,$3,0*
0 Add four circle primitives for the rounded corners*
1,1,$1+$1,$2,$3*
1,1,$1+$1,$4,$5*
1,1,$1+$1,$6,$7*
1,1,$1+$1,$8,$9*
0 Add four rect primitives between the rounded corners*
20,1,$1+$1,$2,$3,$4,$5,0*
20,1,$1+$1,$4,$5,$6,$7,0*
20,1,$1+$1,$6,$7,$8,$9,0*
20,1,$1+$1,$8,$9,$2,$3,0*%
%AMFreePoly0*
4,1,37,0.800000,0.796148,0.878414,0.796148,1.032228,0.765552,1.177117,0.705537,1.307515,0.618408,1.418408,0.507515,1.505537,0.377117,1.565552,0.232228,1.596148,0.078414,1.596148,-0.078414,1.565552,-0.232228,1.505537,-0.377117,1.418408,-0.507515,1.307515,-0.618408,1.177117,-0.705537,1.032228,-0.765552,0.878414,-0.796148,0.800000,-0.796148,0.800000,-0.800000,-1.400000,-0.800000,
-1.403843,-0.796157,-1.439018,-0.796157,-1.511114,-0.766294,-1.566294,-0.711114,-1.596157,-0.639018,-1.596157,-0.603843,-1.600000,-0.600000,-1.600000,0.600000,-1.596157,0.603843,-1.596157,0.639018,-1.566294,0.711114,-1.511114,0.766294,-1.439018,0.796157,-1.403843,0.796157,-1.400000,0.800000,0.800000,0.800000,0.800000,0.796148,0.800000,0.796148,$1*%
%AMFreePoly1*
4,1,37,1.403843,0.796157,1.439018,0.796157,1.511114,0.766294,1.566294,0.711114,1.596157,0.639018,1.596157,0.603843,1.600000,0.600000,1.600000,-0.600000,1.596157,-0.603843,1.596157,-0.639018,1.566294,-0.711114,1.511114,-0.766294,1.439018,-0.796157,1.403843,-0.796157,1.400000,-0.800000,-0.800000,-0.800000,-0.800000,-0.796148,-0.878414,-0.796148,-1.032228,-0.765552,-1.177117,-0.705537,
-1.307515,-0.618408,-1.418408,-0.507515,-1.505537,-0.377117,-1.565552,-0.232228,-1.596148,-0.078414,-1.596148,0.078414,-1.565552,0.232228,-1.505537,0.377117,-1.418408,0.507515,-1.307515,0.618408,-1.177117,0.705537,-1.032228,0.765552,-0.878414,0.796148,-0.800000,0.796148,-0.800000,0.800000,1.400000,0.800000,1.403843,0.796157,1.403843,0.796157,$1*%
%AMFreePoly2*
4,1,37,1.600000,0.796148,1.678414,0.796148,1.832228,0.765552,1.977117,0.705537,2.107515,0.618408,2.218408,0.507515,2.305537,0.377117,2.365552,0.232228,2.396148,0.078414,2.396148,-0.078414,2.365552,-0.232228,2.305537,-0.377117,2.218408,-0.507515,2.107515,-0.618408,1.977117,-0.705537,1.832228,-0.765552,1.678414,-0.796148,1.600000,-0.796148,1.600000,-0.800000,-0.600000,-0.800000,
-0.603843,-0.796157,-0.639018,-0.796157,-0.711114,-0.766294,-0.766294,-0.711114,-0.796157,-0.639018,-0.796157,-0.603843,-0.800000,-0.600000,-0.800000,0.600000,-0.796157,0.603843,-0.796157,0.639018,-0.766294,0.711114,-0.711114,0.766294,-0.639018,0.796157,-0.603843,0.796157,-0.600000,0.800000,1.600000,0.800000,1.600000,0.796148,1.600000,0.796148,$1*%
G04 Aperture macros list end*
%TA.AperFunction,ComponentPad*%
%ADD10RoundRect,0.250000X0.512000X-0.512000X0.512000X0.512000X-0.512000X0.512000X-0.512000X-0.512000X0*%
%TD*%
%TA.AperFunction,ComponentPad*%
%ADD11C,1.524000*%
%TD*%
%TA.AperFunction,ComponentPad*%
%ADD12C,3.500000*%
%TD*%
%TA.AperFunction,ComponentPad*%
%ADD13O,2.100000X1.000000*%
%TD*%
%TA.AperFunction,ComponentPad*%
%ADD14O,1.600000X1.000000*%
%TD*%
%TA.AperFunction,SMDPad,CuDef*%
%ADD15O,1.100000X1.800000*%
%TD*%
%TA.AperFunction,SMDPad,CuDef*%
%ADD16O,1.050000X1.450000*%
%TD*%
%TA.AperFunction,SMDPad,CuDef*%
%ADD17FreePoly0,180.000000*%
%TD*%
%TA.AperFunction,SMDPad,CuDef*%
%ADD18RoundRect,0.800000X0.800000X0.000010X-0.800000X0.000010X-0.800000X-0.000010X0.800000X-0.000010X0*%
%TD*%
%TA.AperFunction,SMDPad,CuDef*%
%ADD19FreePoly1,180.000000*%
%TD*%
%TA.AperFunction,SMDPad,CuDef*%
%ADD20RoundRect,0.800000X0.000010X-0.800000X0.000010X0.800000X-0.000010X0.800000X-0.000010X-0.800000X0*%
%TD*%
%TA.AperFunction,SMDPad,CuDef*%
%ADD21FreePoly2,270.000000*%
%TD*%
%TA.AperFunction,SMDPad,CuDef*%
%ADD22RoundRect,0.300000X0.450000X0.450000X-0.450000X0.450000X-0.450000X-0.450000X0.450000X-0.450000X0*%
%TD*%
%TA.AperFunction,ViaPad*%
%ADD23C,0.500000*%
%TD*%
%TA.AperFunction,Conductor*%
%ADD24C,0.200000*%
%TD*%
G04 APERTURE END LIST*
D10*
%TO.P,J1,1*%
%TO.N,VBUS1*%
X13645000Y-19500000D03*
D11*
%TO.P,J1,2*%
%TO.N,USB_DM*%
X13645000Y-17000000D03*
%TO.P,J1,3*%
%TO.N,USB_DP*%
X13645000Y-15000000D03*
%TO.P,J1,4*%
%TO.N,GND1*%
X13645000Y-12500000D03*
D12*
%TO.P,J1,SH*%
X16355000Y-22570000D03*
X16355000Y-9430000D03*
%TD*%
D13*
%TO.P,J2,SH*%
%TO.N,GND1*%
X13367500Y-45320000D03*
D14*
X17547500Y-45320000D03*
D13*
X13367500Y-36680000D03*
D14*
X17547500Y-36680000D03*
%TD*%
D15*
%TO.P,A2,*%
%TO.N,*%
X42725000Y-6085000D03*
D16*
X42425000Y-9115000D03*
X37575000Y-9115000D03*
D15*
X37275000Y-6085000D03*
D17*
%TO.P,A2,1*%
%TO.N,SER_A1_B0*%
X49690000Y-5955000D03*
D18*
%TO.P,A2,2*%
%TO.N,SER_A0_B1*%
X49690000Y-8495000D03*
D19*
%TO.P,A2,3*%
%TO.N,GND1*%
X49690000Y-11035000D03*
D18*
%TO.P,A2,4*%
%TO.N,SER_A3_B2*%
X49690000Y-13575000D03*
%TO.P,A2,5*%
%TO.N,SER_A2_B3*%
X49690000Y-16115000D03*
%TO.P,A2,6*%
%TO.N,N/C*%
X49690000Y-18655000D03*
%TO.P,A2,7*%
X49690000Y-21195000D03*
D19*
%TO.P,A2,8*%
%TO.N,GND1*%
X49690000Y-23735000D03*
D18*
%TO.P,A2,9*%
%TO.N,N/C*%
X49690000Y-26275000D03*
%TO.P,A2,10*%
X49690000Y-28815000D03*
%TO.P,A2,11*%
X49690000Y-31355000D03*
%TO.P,A2,12*%
X49690000Y-33895000D03*
D19*
%TO.P,A2,13*%
%TO.N,GND1*%
X49690000Y-36435000D03*
D18*
%TO.P,A2,14*%
%TO.N,N/C*%
X49690000Y-38975000D03*
%TO.P,A2,15*%
X49690000Y-41515000D03*
%TO.P,A2,16*%
X49690000Y-44055000D03*
%TO.P,A2,17*%
X49690000Y-46595000D03*
D19*
%TO.P,A2,18*%
%TO.N,GND1*%
X49690000Y-49135000D03*
D18*
%TO.P,A2,19*%
%TO.N,N/C*%
X49690000Y-51675000D03*
%TO.P,A2,20*%
X49690000Y-54215000D03*
%TO.P,A2,21*%
X30310000Y-54215000D03*
%TO.P,A2,22*%
X30310000Y-51675000D03*
D17*
%TO.P,A2,23*%
%TO.N,GND1*%
X30310000Y-49135000D03*
D18*
%TO.P,A2,24*%
%TO.N,N/C*%
X30310000Y-46595000D03*
%TO.P,A2,25*%
X30310000Y-44055000D03*
%TO.P,A2,26*%
X30310000Y-41515000D03*
%TO.P,A2,27*%
X30310000Y-38975000D03*
D17*
%TO.P,A2,28*%
%TO.N,GND1*%
X30310000Y-36435000D03*
D18*
%TO.P,A2,29*%
%TO.N,N/C*%
X30310000Y-33895000D03*
%TO.P,A2,30*%
X30310000Y-31355000D03*
%TO.P,A2,31*%
X30310000Y-28815000D03*
%TO.P,A2,32*%
X30310000Y-26275000D03*
D17*
%TO.P,A2,33*%
%TO.N,GND1*%
X30310000Y-23735000D03*
D18*
%TO.P,A2,34*%
%TO.N,N/C*%
X30310000Y-21195000D03*
%TO.P,A2,35*%
X30310000Y-18655000D03*
%TO.P,A2,36*%
X30310000Y-16115000D03*
%TO.P,A2,37*%
X30310000Y-13575000D03*
D17*
%TO.P,A2,38*%
%TO.N,GND1*%
X30310000Y-11035000D03*
D18*
%TO.P,A2,39*%
%TO.N,N/C*%
X30310000Y-8495000D03*
%TO.P,A2,40*%
%TO.N,VBUS1*%
X30310000Y-5955000D03*
D20*
%TO.P,A2,D1*%
%TO.N,N/C*%
X42540000Y-54785000D03*
D21*
%TO.P,A2,D2*%
X40000000Y-53985000D03*
D20*
%TO.P,A2,D3*%
X37460000Y-54785000D03*
D22*
%TO.P,A2,TP1*%
%TO.N,GND1*%
X40000000Y-9085000D03*
%TO.P,A2,TP2*%
%TO.N,USB_DM*%
X39000000Y-5785000D03*
%TO.P,A2,TP3*%
%TO.N,USB_DP*%
X41000000Y-5785000D03*
%TO.P,A2,TP4*%
%TO.N,N/C*%
X42500000Y-12585000D03*
%TO.P,A2,TP5*%
X42500000Y-15085000D03*
%TO.P,A2,TP6*%
X42500000Y-17585000D03*
%TD*%
D23*
%TO.N,SER_A0_B1*%
X47936000Y-7724500D03*
%TO.N,SER_A1_B0*%
X45500100Y-8228400D03*
%TO.N,SER_A2_B3*%
X46239800Y-16156500D03*
%TO.N,SER_A3_B2*%
X34092300Y-16822500D03*
%TO.N,VBUS1*%
X10871100Y-39353100D03*
X31662800Y-3835500D03*
%TO.N,USB_DM*%
X13914900Y-41715000D03*
%TO.N,USB_DP*%
X14884400Y-19489600D03*
X14425300Y-40284800D03*
%TD*%
%TO.N,SER_A0_B1*%
D24*
X48919500Y-7724500D02*
X47936000Y-7724500D01*
X49690000Y-8495000D02*
X48919500Y-7724500D01*
%TO.N,SER_A1_B0*%
X49690000Y-5955000D02*
X47773500Y-5955000D01*
X47773500Y-5955000D02*
X45500100Y-8228400D01*
%TO.N,GND1*%
X13367500Y-36680000D02*
X12065800Y-36680000D01*
X32223000Y-11035000D02*
X30310000Y-11035000D01*
X32223000Y-11035000D02*
X32223000Y-21822000D01*
X30310000Y-36435000D02*
X32164700Y-34580300D01*
X49690000Y-36435000D02*
X47835300Y-34580300D01*
X16355000Y-20250700D02*
X14477700Y-18373400D01*
X17547500Y-45320000D02*
X28455100Y-45320000D01*
X13367500Y-45320000D02*
X12065800Y-45320000D01*
X51559700Y-21865300D02*
X49690000Y-23735000D01*
X38050000Y-11035000D02*
X32223000Y-11035000D01*
X17547500Y-36680000D02*
X16495800Y-36680000D01*
X17547500Y-45320000D02*
X13367500Y-45320000D01*
X16355000Y-22570000D02*
X16495800Y-22710800D01*
X40000000Y-9085000D02*
X41950000Y-11035000D01*
X51559700Y-12904700D02*
X51559700Y-21865300D01*
X16495800Y-22710800D02*
X16495800Y-36680000D01*
X28455100Y-47280100D02*
X28455100Y-45320000D01*
X28455100Y-45320000D02*
X28455100Y-38289900D01*
X16355000Y-22570000D02*
X16355000Y-20250700D01*
X47835300Y-25589700D02*
X49690000Y-23735000D01*
X51577500Y-47247500D02*
X51577500Y-38322500D01*
X12621100Y-17482200D02*
X12621100Y-13523900D01*
X12621100Y-13523900D02*
X13645000Y-12500000D01*
X32164700Y-34580300D02*
X32164700Y-25589700D01*
X40000000Y-9085000D02*
X38050000Y-11035000D01*
X13512300Y-18373400D02*
X12621100Y-17482200D01*
X28455100Y-38289900D02*
X30310000Y-36435000D01*
X12065800Y-45320000D02*
X12065800Y-36680000D01*
X16355000Y-9430000D02*
X13645000Y-12140000D01*
X49690000Y-11035000D02*
X51559700Y-12904700D01*
X49690000Y-49135000D02*
X51577500Y-47247500D01*
X14477700Y-18373400D02*
X13512300Y-18373400D01*
X30310000Y-49135000D02*
X28455100Y-47280100D01*
X32223000Y-21822000D02*
X30310000Y-23735000D01*
X13645000Y-12140000D02*
X13645000Y-12500000D01*
X41950000Y-11035000D02*
X49690000Y-11035000D01*
X32164700Y-25589700D02*
X30310000Y-23735000D01*
X47835300Y-34580300D02*
X47835300Y-25589700D01*
X51577500Y-38322500D02*
X49690000Y-36435000D01*
%TO.N,SER_A2_B3*%
X46281300Y-16115000D02*
X46239800Y-16156500D01*
X49690000Y-16115000D02*
X46281300Y-16115000D01*
%TO.N,SER_A3_B2*%
X49690000Y-13575000D02*
X45743700Y-13575000D01*
X45743700Y-13575000D02*
X43150900Y-16167800D01*
X34747000Y-16167800D02*
X34092300Y-16822500D01*
X43150900Y-16167800D02*
X34747000Y-16167800D01*
%TO.N,VBUS1*%
X30310000Y-5188300D02*
X30310000Y-5955000D01*
X30310000Y-5955000D02*
X16910400Y-5955000D01*
X10871100Y-22273900D02*
X10871100Y-39353100D01*
X16910400Y-5955000D02*
X12269400Y-10596000D01*
X31662800Y-3835500D02*
X30310000Y-5188300D01*
X12269400Y-18124400D02*
X13645000Y-19500000D01*
X12269400Y-10596000D02*
X12269400Y-18124400D01*
X13645000Y-19500000D02*
X10871100Y-22273900D01*
%TO.N,USB_DM*%
X18639200Y-20326200D02*
X29367100Y-9598300D01*
X35262000Y-9598300D02*
X39000000Y-5860300D01*
X39000000Y-5860300D02*
X39000000Y-5785000D01*
X13914900Y-41715000D02*
X18639200Y-36990700D01*
X16971200Y-20326200D02*
X13645000Y-17000000D01*
X29367100Y-9598300D02*
X35262000Y-9598300D01*
X18639200Y-20326200D02*
X16971200Y-20326200D01*
X18639200Y-36990700D02*
X18639200Y-20326200D01*
%TO.N,USB_DP*%
X14345300Y-35024800D02*
X14728200Y-35407700D01*
X14884400Y-19489600D02*
X14884400Y-20739800D01*
X14884400Y-20739800D02*
X14345300Y-21278900D01*
X32668000Y-7225000D02*
X21420000Y-7225000D01*
X14728200Y-35407700D02*
X14728200Y-39981900D01*
X14728200Y-39981900D02*
X14425300Y-40284800D01*
X41000000Y-5785000D02*
X39985900Y-4770900D01*
X21420000Y-7225000D02*
X13645000Y-15000000D01*
X35122100Y-4770900D02*
X32668000Y-7225000D01*
X39985900Y-4770900D02*
X35122100Y-4770900D01*
X14345300Y-21278900D02*
X14345300Y-35024800D01*
%TD*%
M02*
