M48
; DRILL file KiCad 10.0.3 date 2026-05-22T11:35:43
; FORMAT={-:-/ absolute / metric / decimal}
; #@! TF.CreationDate,2026-05-22T11:35:43+10:00
; #@! TF.GenerationSoftware,Kicad,Pcbnew,10.0.3
; #@! TF.FileFunction,MixedPlating,1,2
FMAT,2
METRIC
; #@! TA.AperFunction,Plated,PTH,ViaDrill
T1C0.300
; #@! TA.AperFunction,Plated,PTH,ComponentDrill
T2C0.600
; #@! TA.AperFunction,Plated,PTH,ComponentDrill
T3C2.300
; #@! TA.AperFunction,NonPlated,NPTH,ComponentDrill
T4C0.650
%
G90
G05
T1
X23.989Y-27.991
X26.362Y-29.005
X26.593Y-10.562
X26.593Y-27.774
X27.815Y-8.764
X27.819Y-11.228
X37.408Y-13.864
X39.7Y-13.102
X40.914Y-11.065
X45.486Y-15.598
X47.09Y-7.953
X48.084Y-7.603
X51.286Y-22.802
T3
X13.16Y-9.43
X13.16Y-22.57
T4
X9.102Y-38.11
X9.102Y-43.89
T2
X5.752Y-36.68G85X5.152Y-36.68
G05
X5.752Y-45.32G85X5.152Y-45.32
G05
X10.182Y-36.68G85X9.082Y-36.68
G05
X10.182Y-45.32G85X9.082Y-45.32
G05
M30
