M48
; DRILL file KiCad 10.0.3 date 2026-05-22T12:57:48
; FORMAT={-:-/ absolute / inch / decimal}
; #@! TF.CreationDate,2026-05-22T12:57:48+10:00
; #@! TF.GenerationSoftware,Kicad,Pcbnew,10.0.3
; #@! TF.FileFunction,Plated,1,2,PTH
FMAT,2
INCH
; #@! TA.AperFunction,Plated,PTH,ViaDrill
T1C0.0118
; #@! TA.AperFunction,Plated,PTH,ComponentDrill
T2C0.0236
; #@! TA.AperFunction,Plated,PTH,ComponentDrill
T3C0.0906
%
G90
G05
T1
X0.3707Y-1.6148
X0.6271Y-1.0453
X0.7426Y-0.4819
X0.7892Y-0.5331
X0.8209Y-0.977
X0.8489Y-1.3865
X1.0047Y-0.3452
X1.0439Y-0.5796
X1.0868Y-0.6344
X1.4918Y-0.5648
X1.6126Y-0.2851
X1.7106Y-0.5037
T3
X0.5181Y-0.3713
X0.5181Y-0.8886
T2
G00X0.2265Y-1.4441
M15
G01X0.2029Y-1.4441
M16
G05
G00X0.2265Y-1.7843
M15
G01X0.2029Y-1.7843
M16
G05
G00X0.4009Y-1.4441
M15
G01X0.3576Y-1.4441
M16
G05
G00X0.4009Y-1.7843
M15
G01X0.3576Y-1.7843
M16
G05
M30
