%TF.GenerationSoftware,KiCad,Pcbnew,10.0.3*%
%TF.CreationDate,2026-05-22T12:57:48+10:00*%
%TF.ProjectId,screen-hopper-compact,73637265-656e-42d6-986f-707065722d63,rev?*%
%TF.SameCoordinates,Original*%
%TF.FileFunction,Paste,Bot*%
%TF.FilePolarity,Positive*%
%FSLAX46Y46*%
G04 Gerber Fmt 4.6, Leading zero omitted, Abs format (unit mm)*
G04 Created by KiCad (PCBNEW 10.0.3) date 2026-05-22 12:57:48*
%MOMM*%
%LPD*%
G01*
G04 APERTURE LIST*
G04 Aperture macros list*
%AMRoundRect*
0 Rectangle with rounded corners*
0 $1 Rounding radius*
0 $2 $3 $4 $5 $6 $7 $8 $9 X,Y pos of 4 corners*
0 Add a 4 corners polygon primitive as box body*
4,1,4,$2,$3,$4,$5,$6,$7,$8,$9,$2,$3,0*
0 Add four circle primitives for the rounded corners*
1,1,$1+$1,$2,$3*
1,1,$1+$1,$4,$5*
1,1,$1+$1,$6,$7*
1,1,$1+$1,$8,$9*
0 Add four rect primitives between the rounded corners*
20,1,$1+$1,$2,$3,$4,$5,0*
20,1,$1+$1,$4,$5,$6,$7,0*
20,1,$1+$1,$6,$7,$8,$9,0*
20,1,$1+$1,$8,$9,$2,$3,0*%
G04 Aperture macros list end*
%ADD10R,3.800000X2.200000*%
%ADD11O,1.100000X1.800000*%
%ADD12R,2.200000X3.800000*%
%ADD13O,1.050000X1.450000*%
%ADD14RoundRect,0.300000X0.450000X0.450000X-0.450000X0.450000X-0.450000X-0.450000X0.450000X-0.450000X0*%
G04 APERTURE END LIST*
D10*
%TO.C,A2*%
X41690000Y-54215000D03*
X41690000Y-51675000D03*
X41690000Y-49135000D03*
X41690000Y-46595000D03*
X41690000Y-44055000D03*
X41690000Y-41515000D03*
X41690000Y-38975000D03*
X41690000Y-36435000D03*
X41690000Y-33895000D03*
X41690000Y-31355000D03*
X41690000Y-28815000D03*
X41690000Y-26275000D03*
X41690000Y-23735000D03*
X41690000Y-21195000D03*
X41690000Y-18655000D03*
X41690000Y-16115000D03*
X41690000Y-13575000D03*
X41690000Y-11035000D03*
X41690000Y-8495000D03*
X41690000Y-5955000D03*
D11*
X34725000Y-6085000D03*
D12*
X34540000Y-54785000D03*
D13*
X34425000Y-9115000D03*
D12*
X32000000Y-54785000D03*
D13*
X29575000Y-9115000D03*
D12*
X29460000Y-54785000D03*
D11*
X29275000Y-6085000D03*
D10*
X22310000Y-54215000D03*
X22310000Y-51675000D03*
X22310000Y-49135000D03*
X22310000Y-46595000D03*
X22310000Y-44055000D03*
X22310000Y-41515000D03*
X22310000Y-38975000D03*
X22310000Y-36435000D03*
X22310000Y-33895000D03*
X22310000Y-31355000D03*
X22310000Y-28815000D03*
X22310000Y-26275000D03*
X22310000Y-23735000D03*
X22310000Y-21195000D03*
X22310000Y-18655000D03*
X22310000Y-16115000D03*
X22310000Y-13575000D03*
X22310000Y-11035000D03*
X22310000Y-8495000D03*
X22310000Y-5955000D03*
D14*
X32000000Y-9085000D03*
X31000000Y-5785000D03*
X33000000Y-5785000D03*
X34500000Y-12585000D03*
X34500000Y-15085000D03*
X34500000Y-17585000D03*
%TD*%
M02*
