%TF.GenerationSoftware,KiCad,Pcbnew,10.0.3*%
%TF.CreationDate,2026-05-22T12:57:48+10:00*%
%TF.ProjectId,screen-hopper-compact,73637265-656e-42d6-986f-707065722d63,rev?*%
%TF.SameCoordinates,Original*%
%TF.FileFunction,Legend,Bot*%
%TF.FilePolarity,Positive*%
%FSLAX46Y46*%
G04 Gerber Fmt 4.6, Leading zero omitted, Abs format (unit mm)*
G04 Created by KiCad (PCBNEW 10.0.3) date 2026-05-22 12:57:48*
%MOMM*%
%LPD*%
G01*
G04 APERTURE LIST*
G04 Aperture macros list*
%AMRoundRect*
0 Rectangle with rounded corners*
0 $1 Rounding radius*
0 $2 $3 $4 $5 $6 $7 $8 $9 X,Y pos of 4 corners*
0 Add a 4 corners polygon primitive as box body*
4,1,4,$2,$3,$4,$5,$6,$7,$8,$9,$2,$3,0*
0 Add four circle primitives for the rounded corners*
1,1,$1+$1,$2,$3*
1,1,$1+$1,$4,$5*
1,1,$1+$1,$6,$7*
1,1,$1+$1,$8,$9*
0 Add four rect primitives between the rounded corners*
20,1,$1+$1,$2,$3,$4,$5,0*
20,1,$1+$1,$4,$5,$6,$7,0*
20,1,$1+$1,$6,$7,$8,$9,0*
20,1,$1+$1,$8,$9,$2,$3,0*%
%AMFreePoly0*
4,1,37,0.800000,0.796148,0.878414,0.796148,1.032228,0.765552,1.177117,0.705537,1.307515,0.618408,1.418408,0.507515,1.505537,0.377117,1.565552,0.232228,1.596148,0.078414,1.596148,-0.078414,1.565552,-0.232228,1.505537,-0.377117,1.418408,-0.507515,1.307515,-0.618408,1.177117,-0.705537,1.032228,-0.765552,0.878414,-0.796148,0.800000,-0.796148,0.800000,-0.800000,-1.400000,-0.800000,
-1.403843,-0.796157,-1.439018,-0.796157,-1.511114,-0.766294,-1.566294,-0.711114,-1.596157,-0.639018,-1.596157,-0.603843,-1.600000,-0.600000,-1.600000,0.600000,-1.596157,0.603843,-1.596157,0.639018,-1.566294,0.711114,-1.511114,0.766294,-1.439018,0.796157,-1.403843,0.796157,-1.400000,0.800000,0.800000,0.800000,0.800000,0.796148,0.800000,0.796148,$1*%
%AMFreePoly1*
4,1,37,1.403843,0.796157,1.439018,0.796157,1.511114,0.766294,1.566294,0.711114,1.596157,0.639018,1.596157,0.603843,1.600000,0.600000,1.600000,-0.600000,1.596157,-0.603843,1.596157,-0.639018,1.566294,-0.711114,1.511114,-0.766294,1.439018,-0.796157,1.403843,-0.796157,1.400000,-0.800000,-0.800000,-0.800000,-0.800000,-0.796148,-0.878414,-0.796148,-1.032228,-0.765552,-1.177117,-0.705537,
-1.307515,-0.618408,-1.418408,-0.507515,-1.505537,-0.377117,-1.565552,-0.232228,-1.596148,-0.078414,-1.596148,0.078414,-1.565552,0.232228,-1.505537,0.377117,-1.418408,0.507515,-1.307515,0.618408,-1.177117,0.705537,-1.032228,0.765552,-0.878414,0.796148,-0.800000,0.796148,-0.800000,0.800000,1.400000,0.800000,1.403843,0.796157,1.403843,0.796157,$1*%
%AMFreePoly2*
4,1,37,1.600000,0.796148,1.678414,0.796148,1.832228,0.765552,1.977117,0.705537,2.107515,0.618408,2.218408,0.507515,2.305537,0.377117,2.365552,0.232228,2.396148,0.078414,2.396148,-0.078414,2.365552,-0.232228,2.305537,-0.377117,2.218408,-0.507515,2.107515,-0.618408,1.977117,-0.705537,1.832228,-0.765552,1.678414,-0.796148,1.600000,-0.796148,1.600000,-0.800000,-0.600000,-0.800000,
-0.603843,-0.796157,-0.639018,-0.796157,-0.711114,-0.766294,-0.766294,-0.711114,-0.796157,-0.639018,-0.796157,-0.603843,-0.800000,-0.600000,-0.800000,0.600000,-0.796157,0.603843,-0.796157,0.639018,-0.766294,0.711114,-0.711114,0.766294,-0.639018,0.796157,-0.603843,0.796157,-0.600000,0.800000,1.600000,0.800000,1.600000,0.796148,1.600000,0.796148,$1*%
G04 Aperture macros list end*
%ADD10C,0.150000*%
%ADD11C,0.120000*%
%ADD12C,0.650000*%
%ADD13O,2.100000X1.000000*%
%ADD14O,1.600000X1.000000*%
%ADD15C,3.000000*%
%ADD16O,1.100000X1.800000*%
%ADD17O,1.050000X1.450000*%
%ADD18FreePoly0,180.000000*%
%ADD19RoundRect,0.800000X0.800000X0.000010X-0.800000X0.000010X-0.800000X-0.000010X0.800000X-0.000010X0*%
%ADD20FreePoly1,180.000000*%
%ADD21RoundRect,0.800000X0.000010X-0.800000X0.000010X0.800000X-0.000010X0.800000X-0.000010X-0.800000X0*%
%ADD22FreePoly2,270.000000*%
%ADD23RoundRect,0.300000X0.450000X0.450000X-0.450000X0.450000X-0.450000X-0.450000X0.450000X-0.450000X0*%
G04 APERTURE END LIST*
D10*
X19963339Y-55019104D02*
X19487149Y-55019104D01*
X20058577Y-55304819D02*
X19725244Y-54304819D01*
X19725244Y-54304819D02*
X19391911Y-55304819D01*
X19106196Y-54400057D02*
X19058577Y-54352438D01*
X19058577Y-54352438D02*
X18963339Y-54304819D01*
X18963339Y-54304819D02*
X18725244Y-54304819D01*
X18725244Y-54304819D02*
X18630006Y-54352438D01*
X18630006Y-54352438D02*
X18582387Y-54400057D01*
X18582387Y-54400057D02*
X18534768Y-54495295D01*
X18534768Y-54495295D02*
X18534768Y-54590533D01*
X18534768Y-54590533D02*
X18582387Y-54733390D01*
X18582387Y-54733390D02*
X19153815Y-55304819D01*
X19153815Y-55304819D02*
X18534768Y-55304819D01*
%TO.C,A2*%
D11*
X21390000Y-7015000D02*
X21390000Y-7435000D01*
X21390000Y-9555000D02*
X21390000Y-9975000D01*
X21390000Y-12095000D02*
X21390000Y-12515000D01*
X21390000Y-14635000D02*
X21390000Y-15055000D01*
X21390000Y-17175000D02*
X21390000Y-17595000D01*
X21390000Y-19715000D02*
X21390000Y-20135000D01*
X21390000Y-22255000D02*
X21390000Y-22675000D01*
X21390000Y-24795000D02*
X21390000Y-25215000D01*
X21390000Y-27335000D02*
X21390000Y-27755000D01*
X21390000Y-29875000D02*
X21390000Y-30295000D01*
X21390000Y-32415000D02*
X21390000Y-32835000D01*
X21390000Y-34955000D02*
X21390000Y-35375000D01*
X21390000Y-37495000D02*
X21390000Y-37915000D01*
X21390000Y-40035000D02*
X21390000Y-40455000D01*
X21390000Y-42575000D02*
X21390000Y-42995000D01*
X21390000Y-45115000D02*
X21390000Y-45535000D01*
X21390000Y-47655000D02*
X21390000Y-48075000D01*
X21390000Y-50195000D02*
X21390000Y-50615000D01*
X21390000Y-52735000D02*
X21390000Y-53155000D01*
X22000000Y-4475000D02*
X24490000Y-4475000D01*
X25837939Y-4475000D02*
X24490000Y-4475000D01*
X25837939Y-55695000D02*
X22000000Y-55695000D01*
X26762061Y-55695000D02*
X28400000Y-55695000D01*
X27765000Y-4475000D02*
X26762061Y-4475000D01*
X30940000Y-55695000D02*
X30520000Y-55695000D01*
X33480000Y-55695000D02*
X33060000Y-55695000D01*
X35600000Y-55695000D02*
X37237939Y-55695000D01*
X36235000Y-4475000D02*
X27765000Y-4475000D01*
X37237939Y-4475000D02*
X36235000Y-4475000D01*
X39510000Y-4475000D02*
X38162060Y-4475000D01*
X42000000Y-4475000D02*
X39510000Y-4475000D01*
X42000000Y-55695000D02*
X38162061Y-55695000D01*
X42579676Y-4895000D02*
X43090000Y-4895000D01*
X42610000Y-7015000D02*
X42610000Y-7435000D01*
X42610000Y-7015000D02*
X43090000Y-7015000D01*
X42610000Y-9555000D02*
X42610000Y-9975000D01*
X42610000Y-12095000D02*
X42610000Y-12515000D01*
X42610000Y-14635000D02*
X42610000Y-15055000D01*
X42610000Y-17175000D02*
X42610000Y-17595000D01*
X42610000Y-19715000D02*
X42610000Y-20135000D01*
X42610000Y-22255000D02*
X42610000Y-22675000D01*
X42610000Y-24795000D02*
X42610000Y-25215000D01*
X42610000Y-27335000D02*
X42610000Y-27755000D01*
X42610000Y-29875000D02*
X42610000Y-30295000D01*
X42610000Y-32415000D02*
X42610000Y-32835000D01*
X42610000Y-34955000D02*
X42610000Y-35375000D01*
X42610000Y-37495000D02*
X42610000Y-37915000D01*
X42610000Y-40035000D02*
X42610000Y-40455000D01*
X42610000Y-42575000D02*
X42610000Y-42995000D01*
X42610000Y-45115000D02*
X42610000Y-45535000D01*
X42610000Y-47655000D02*
X42610000Y-48075000D01*
X42610000Y-50195000D02*
X42610000Y-50615000D01*
X42610000Y-52735000D02*
X42610000Y-53155000D01*
X21420324Y-4895063D02*
G75*
G02*
X22000000Y-4475000I579676J-189937D01*
G01*
X22000000Y-55695000D02*
G75*
G02*
X21420340Y-55274932I-200J609700D01*
G01*
X42000000Y-4475000D02*
G75*
G02*
X42579676Y-4895000I-16J-610051D01*
G01*
X42579676Y-55274937D02*
G75*
G02*
X42000000Y-55695000I-579677J189939D01*
G01*
%TD*%
%LPC*%
D12*
%TO.C,J2*%
X9102500Y-38110000D03*
X9102500Y-43890000D03*
D13*
X9632500Y-36680000D03*
D14*
X5452500Y-36680000D03*
D13*
X9632500Y-45320000D03*
D14*
X5452500Y-45320000D03*
%TD*%
D15*
%TO.C,J1*%
X13160000Y-9430000D03*
X13160000Y-22570000D03*
%TD*%
D16*
%TO.C,A2*%
X34725000Y-6085000D03*
D17*
X34425000Y-9115000D03*
X29575000Y-9115000D03*
D16*
X29275000Y-6085000D03*
D18*
X41690000Y-5955000D03*
D19*
X41690000Y-8495000D03*
D20*
X41690000Y-11035000D03*
D19*
X41690000Y-13575000D03*
X41690000Y-16115000D03*
X41690000Y-18655000D03*
X41690000Y-21195000D03*
D20*
X41690000Y-23735000D03*
D19*
X41690000Y-26275000D03*
X41690000Y-28815000D03*
X41690000Y-31355000D03*
X41690000Y-33895000D03*
D20*
X41690000Y-36435000D03*
D19*
X41690000Y-38975000D03*
X41690000Y-41515000D03*
X41690000Y-44055000D03*
X41690000Y-46595000D03*
D20*
X41690000Y-49135000D03*
D19*
X41690000Y-51675000D03*
X41690000Y-54215000D03*
X22310000Y-54215000D03*
X22310000Y-51675000D03*
D18*
X22310000Y-49135000D03*
D19*
X22310000Y-46595000D03*
X22310000Y-44055000D03*
X22310000Y-41515000D03*
X22310000Y-38975000D03*
D18*
X22310000Y-36435000D03*
D19*
X22310000Y-33895000D03*
X22310000Y-31355000D03*
X22310000Y-28815000D03*
X22310000Y-26275000D03*
D18*
X22310000Y-23735000D03*
D19*
X22310000Y-21195000D03*
X22310000Y-18655000D03*
X22310000Y-16115000D03*
X22310000Y-13575000D03*
D18*
X22310000Y-11035000D03*
D19*
X22310000Y-8495000D03*
X22310000Y-5955000D03*
D21*
X34540000Y-54785000D03*
D22*
X32000000Y-53985000D03*
D21*
X29460000Y-54785000D03*
D23*
X32000000Y-9085000D03*
X31000000Y-5785000D03*
X33000000Y-5785000D03*
X34500000Y-12585000D03*
X34500000Y-15085000D03*
X34500000Y-17585000D03*
%TD*%
%LPD*%
M02*
