%TF.GenerationSoftware,KiCad,Pcbnew,10.0.3*%
%TF.CreationDate,2026-05-22T12:57:48+10:00*%
%TF.ProjectId,screen-hopper-compact,73637265-656e-42d6-986f-707065722d63,rev?*%
%TF.SameCoordinates,Original*%
%TF.FileFunction,Other,Comment*%
%FSLAX46Y46*%
G04 Gerber Fmt 4.6, Leading zero omitted, Abs format (unit mm)*
G04 Created by KiCad (PCBNEW 10.0.3) date 2026-05-22 12:57:48*
%MOMM*%
%LPD*%
G01*
G04 APERTURE LIST*
%ADD10C,0.050000*%
%ADD11C,0.075000*%
G04 APERTURE END LIST*
D10*
X69404821Y-24569848D02*
X69388949Y-24585720D01*
X69388949Y-24585720D02*
X69341335Y-24601591D01*
X69341335Y-24601591D02*
X69309592Y-24601591D01*
X69309592Y-24601591D02*
X69261978Y-24585720D01*
X69261978Y-24585720D02*
X69230235Y-24553977D01*
X69230235Y-24553977D02*
X69214364Y-24522234D01*
X69214364Y-24522234D02*
X69198492Y-24458748D01*
X69198492Y-24458748D02*
X69198492Y-24411134D01*
X69198492Y-24411134D02*
X69214364Y-24347648D01*
X69214364Y-24347648D02*
X69230235Y-24315905D01*
X69230235Y-24315905D02*
X69261978Y-24284162D01*
X69261978Y-24284162D02*
X69309592Y-24268291D01*
X69309592Y-24268291D02*
X69341335Y-24268291D01*
X69341335Y-24268291D02*
X69388949Y-24284162D01*
X69388949Y-24284162D02*
X69404821Y-24300034D01*
X69595278Y-24601591D02*
X69563535Y-24585720D01*
X69563535Y-24585720D02*
X69547664Y-24569848D01*
X69547664Y-24569848D02*
X69531792Y-24538105D01*
X69531792Y-24538105D02*
X69531792Y-24442877D01*
X69531792Y-24442877D02*
X69547664Y-24411134D01*
X69547664Y-24411134D02*
X69563535Y-24395262D01*
X69563535Y-24395262D02*
X69595278Y-24379391D01*
X69595278Y-24379391D02*
X69642892Y-24379391D01*
X69642892Y-24379391D02*
X69674635Y-24395262D01*
X69674635Y-24395262D02*
X69690507Y-24411134D01*
X69690507Y-24411134D02*
X69706378Y-24442877D01*
X69706378Y-24442877D02*
X69706378Y-24538105D01*
X69706378Y-24538105D02*
X69690507Y-24569848D01*
X69690507Y-24569848D02*
X69674635Y-24585720D01*
X69674635Y-24585720D02*
X69642892Y-24601591D01*
X69642892Y-24601591D02*
X69595278Y-24601591D01*
X69849221Y-24379391D02*
X69849221Y-24712691D01*
X69849221Y-24395262D02*
X69880964Y-24379391D01*
X69880964Y-24379391D02*
X69944449Y-24379391D01*
X69944449Y-24379391D02*
X69976192Y-24395262D01*
X69976192Y-24395262D02*
X69992064Y-24411134D01*
X69992064Y-24411134D02*
X70007935Y-24442877D01*
X70007935Y-24442877D02*
X70007935Y-24538105D01*
X70007935Y-24538105D02*
X69992064Y-24569848D01*
X69992064Y-24569848D02*
X69976192Y-24585720D01*
X69976192Y-24585720D02*
X69944449Y-24601591D01*
X69944449Y-24601591D02*
X69880964Y-24601591D01*
X69880964Y-24601591D02*
X69849221Y-24585720D01*
X70150778Y-24379391D02*
X70150778Y-24712691D01*
X70150778Y-24395262D02*
X70182521Y-24379391D01*
X70182521Y-24379391D02*
X70246006Y-24379391D01*
X70246006Y-24379391D02*
X70277749Y-24395262D01*
X70277749Y-24395262D02*
X70293621Y-24411134D01*
X70293621Y-24411134D02*
X70309492Y-24442877D01*
X70309492Y-24442877D02*
X70309492Y-24538105D01*
X70309492Y-24538105D02*
X70293621Y-24569848D01*
X70293621Y-24569848D02*
X70277749Y-24585720D01*
X70277749Y-24585720D02*
X70246006Y-24601591D01*
X70246006Y-24601591D02*
X70182521Y-24601591D01*
X70182521Y-24601591D02*
X70150778Y-24585720D01*
X70579306Y-24585720D02*
X70547563Y-24601591D01*
X70547563Y-24601591D02*
X70484078Y-24601591D01*
X70484078Y-24601591D02*
X70452335Y-24585720D01*
X70452335Y-24585720D02*
X70436463Y-24553977D01*
X70436463Y-24553977D02*
X70436463Y-24427005D01*
X70436463Y-24427005D02*
X70452335Y-24395262D01*
X70452335Y-24395262D02*
X70484078Y-24379391D01*
X70484078Y-24379391D02*
X70547563Y-24379391D01*
X70547563Y-24379391D02*
X70579306Y-24395262D01*
X70579306Y-24395262D02*
X70595178Y-24427005D01*
X70595178Y-24427005D02*
X70595178Y-24458748D01*
X70595178Y-24458748D02*
X70436463Y-24490491D01*
X70738021Y-24601591D02*
X70738021Y-24379391D01*
X70738021Y-24442877D02*
X70753892Y-24411134D01*
X70753892Y-24411134D02*
X70769764Y-24395262D01*
X70769764Y-24395262D02*
X70801506Y-24379391D01*
X70801506Y-24379391D02*
X70833249Y-24379391D01*
X69476243Y-25236591D02*
X69476243Y-24903291D01*
X69666700Y-25236591D02*
X69523857Y-25046134D01*
X69666700Y-24903291D02*
X69476243Y-25093748D01*
X69936514Y-25220720D02*
X69904771Y-25236591D01*
X69904771Y-25236591D02*
X69841286Y-25236591D01*
X69841286Y-25236591D02*
X69809543Y-25220720D01*
X69809543Y-25220720D02*
X69793671Y-25188977D01*
X69793671Y-25188977D02*
X69793671Y-25062005D01*
X69793671Y-25062005D02*
X69809543Y-25030262D01*
X69809543Y-25030262D02*
X69841286Y-25014391D01*
X69841286Y-25014391D02*
X69904771Y-25014391D01*
X69904771Y-25014391D02*
X69936514Y-25030262D01*
X69936514Y-25030262D02*
X69952386Y-25062005D01*
X69952386Y-25062005D02*
X69952386Y-25093748D01*
X69952386Y-25093748D02*
X69793671Y-25125491D01*
X70222200Y-25220720D02*
X70190457Y-25236591D01*
X70190457Y-25236591D02*
X70126972Y-25236591D01*
X70126972Y-25236591D02*
X70095229Y-25220720D01*
X70095229Y-25220720D02*
X70079357Y-25188977D01*
X70079357Y-25188977D02*
X70079357Y-25062005D01*
X70079357Y-25062005D02*
X70095229Y-25030262D01*
X70095229Y-25030262D02*
X70126972Y-25014391D01*
X70126972Y-25014391D02*
X70190457Y-25014391D01*
X70190457Y-25014391D02*
X70222200Y-25030262D01*
X70222200Y-25030262D02*
X70238072Y-25062005D01*
X70238072Y-25062005D02*
X70238072Y-25093748D01*
X70238072Y-25093748D02*
X70079357Y-25125491D01*
X70380915Y-25014391D02*
X70380915Y-25347691D01*
X70380915Y-25030262D02*
X70412658Y-25014391D01*
X70412658Y-25014391D02*
X70476143Y-25014391D01*
X70476143Y-25014391D02*
X70507886Y-25030262D01*
X70507886Y-25030262D02*
X70523758Y-25046134D01*
X70523758Y-25046134D02*
X70539629Y-25077877D01*
X70539629Y-25077877D02*
X70539629Y-25173105D01*
X70539629Y-25173105D02*
X70523758Y-25204848D01*
X70523758Y-25204848D02*
X70507886Y-25220720D01*
X70507886Y-25220720D02*
X70476143Y-25236591D01*
X70476143Y-25236591D02*
X70412658Y-25236591D01*
X70412658Y-25236591D02*
X70380915Y-25220720D01*
X69722250Y-25538291D02*
X69785736Y-25538291D01*
X69785736Y-25538291D02*
X69817479Y-25554162D01*
X69817479Y-25554162D02*
X69849222Y-25585905D01*
X69849222Y-25585905D02*
X69865093Y-25649391D01*
X69865093Y-25649391D02*
X69865093Y-25760491D01*
X69865093Y-25760491D02*
X69849222Y-25823977D01*
X69849222Y-25823977D02*
X69817479Y-25855720D01*
X69817479Y-25855720D02*
X69785736Y-25871591D01*
X69785736Y-25871591D02*
X69722250Y-25871591D01*
X69722250Y-25871591D02*
X69690508Y-25855720D01*
X69690508Y-25855720D02*
X69658765Y-25823977D01*
X69658765Y-25823977D02*
X69642893Y-25760491D01*
X69642893Y-25760491D02*
X69642893Y-25649391D01*
X69642893Y-25649391D02*
X69658765Y-25585905D01*
X69658765Y-25585905D02*
X69690508Y-25554162D01*
X69690508Y-25554162D02*
X69722250Y-25538291D01*
X70150779Y-25649391D02*
X70150779Y-25871591D01*
X70007936Y-25649391D02*
X70007936Y-25823977D01*
X70007936Y-25823977D02*
X70023807Y-25855720D01*
X70023807Y-25855720D02*
X70055550Y-25871591D01*
X70055550Y-25871591D02*
X70103164Y-25871591D01*
X70103164Y-25871591D02*
X70134907Y-25855720D01*
X70134907Y-25855720D02*
X70150779Y-25839848D01*
X70261878Y-25649391D02*
X70388850Y-25649391D01*
X70309493Y-25538291D02*
X70309493Y-25823977D01*
X70309493Y-25823977D02*
X70325364Y-25855720D01*
X70325364Y-25855720D02*
X70357107Y-25871591D01*
X70357107Y-25871591D02*
X70388850Y-25871591D01*
D11*
X74164552Y-24584046D02*
X74164552Y-24345951D01*
X74307409Y-24631665D02*
X73807409Y-24464999D01*
X73807409Y-24464999D02*
X74307409Y-24298332D01*
X73831219Y-23869761D02*
X73807409Y-23917380D01*
X73807409Y-23917380D02*
X73807409Y-23988809D01*
X73807409Y-23988809D02*
X73831219Y-24060237D01*
X73831219Y-24060237D02*
X73878838Y-24107856D01*
X73878838Y-24107856D02*
X73926457Y-24131666D01*
X73926457Y-24131666D02*
X74021695Y-24155475D01*
X74021695Y-24155475D02*
X74093123Y-24155475D01*
X74093123Y-24155475D02*
X74188361Y-24131666D01*
X74188361Y-24131666D02*
X74235980Y-24107856D01*
X74235980Y-24107856D02*
X74283600Y-24060237D01*
X74283600Y-24060237D02*
X74307409Y-23988809D01*
X74307409Y-23988809D02*
X74307409Y-23941190D01*
X74307409Y-23941190D02*
X74283600Y-23869761D01*
X74283600Y-23869761D02*
X74259790Y-23845952D01*
X74259790Y-23845952D02*
X74093123Y-23845952D01*
X74093123Y-23845952D02*
X74093123Y-23941190D01*
X74307409Y-23631666D02*
X73807409Y-23631666D01*
X73807409Y-23631666D02*
X74307409Y-23345952D01*
X74307409Y-23345952D02*
X73807409Y-23345952D01*
X74307409Y-23107856D02*
X73807409Y-23107856D01*
X73807409Y-23107856D02*
X73807409Y-22988808D01*
X73807409Y-22988808D02*
X73831219Y-22917380D01*
X73831219Y-22917380D02*
X73878838Y-22869761D01*
X73878838Y-22869761D02*
X73926457Y-22845951D01*
X73926457Y-22845951D02*
X74021695Y-22822142D01*
X74021695Y-22822142D02*
X74093123Y-22822142D01*
X74093123Y-22822142D02*
X74188361Y-22845951D01*
X74188361Y-22845951D02*
X74235980Y-22869761D01*
X74235980Y-22869761D02*
X74283600Y-22917380D01*
X74283600Y-22917380D02*
X74307409Y-22988808D01*
X74307409Y-22988808D02*
X74307409Y-23107856D01*
X74307409Y-22226904D02*
X73807409Y-22226904D01*
X73807409Y-22226904D02*
X73807409Y-22036428D01*
X73807409Y-22036428D02*
X73831219Y-21988809D01*
X73831219Y-21988809D02*
X73855028Y-21964999D01*
X73855028Y-21964999D02*
X73902647Y-21941190D01*
X73902647Y-21941190D02*
X73974076Y-21941190D01*
X73974076Y-21941190D02*
X74021695Y-21964999D01*
X74021695Y-21964999D02*
X74045504Y-21988809D01*
X74045504Y-21988809D02*
X74069314Y-22036428D01*
X74069314Y-22036428D02*
X74069314Y-22226904D01*
X74307409Y-21655475D02*
X74283600Y-21703094D01*
X74283600Y-21703094D02*
X74235980Y-21726904D01*
X74235980Y-21726904D02*
X73807409Y-21726904D01*
X74307409Y-21250713D02*
X74045504Y-21250713D01*
X74045504Y-21250713D02*
X73997885Y-21274523D01*
X73997885Y-21274523D02*
X73974076Y-21322142D01*
X73974076Y-21322142D02*
X73974076Y-21417380D01*
X73974076Y-21417380D02*
X73997885Y-21464999D01*
X74283600Y-21250713D02*
X74307409Y-21298332D01*
X74307409Y-21298332D02*
X74307409Y-21417380D01*
X74307409Y-21417380D02*
X74283600Y-21464999D01*
X74283600Y-21464999D02*
X74235980Y-21488808D01*
X74235980Y-21488808D02*
X74188361Y-21488808D01*
X74188361Y-21488808D02*
X74140742Y-21464999D01*
X74140742Y-21464999D02*
X74116933Y-21417380D01*
X74116933Y-21417380D02*
X74116933Y-21298332D01*
X74116933Y-21298332D02*
X74093123Y-21250713D01*
X73974076Y-21012618D02*
X74307409Y-21012618D01*
X74021695Y-21012618D02*
X73997885Y-20988808D01*
X73997885Y-20988808D02*
X73974076Y-20941189D01*
X73974076Y-20941189D02*
X73974076Y-20869761D01*
X73974076Y-20869761D02*
X73997885Y-20822142D01*
X73997885Y-20822142D02*
X74045504Y-20798332D01*
X74045504Y-20798332D02*
X74307409Y-20798332D01*
X74283600Y-20369761D02*
X74307409Y-20417380D01*
X74307409Y-20417380D02*
X74307409Y-20512618D01*
X74307409Y-20512618D02*
X74283600Y-20560237D01*
X74283600Y-20560237D02*
X74235980Y-20584046D01*
X74235980Y-20584046D02*
X74045504Y-20584046D01*
X74045504Y-20584046D02*
X73997885Y-20560237D01*
X73997885Y-20560237D02*
X73974076Y-20512618D01*
X73974076Y-20512618D02*
X73974076Y-20417380D01*
X73974076Y-20417380D02*
X73997885Y-20369761D01*
X73997885Y-20369761D02*
X74045504Y-20345951D01*
X74045504Y-20345951D02*
X74093123Y-20345951D01*
X74093123Y-20345951D02*
X74140742Y-20584046D01*
D10*
X32404821Y-24569848D02*
X32388949Y-24585720D01*
X32388949Y-24585720D02*
X32341335Y-24601591D01*
X32341335Y-24601591D02*
X32309592Y-24601591D01*
X32309592Y-24601591D02*
X32261978Y-24585720D01*
X32261978Y-24585720D02*
X32230235Y-24553977D01*
X32230235Y-24553977D02*
X32214364Y-24522234D01*
X32214364Y-24522234D02*
X32198492Y-24458748D01*
X32198492Y-24458748D02*
X32198492Y-24411134D01*
X32198492Y-24411134D02*
X32214364Y-24347648D01*
X32214364Y-24347648D02*
X32230235Y-24315905D01*
X32230235Y-24315905D02*
X32261978Y-24284162D01*
X32261978Y-24284162D02*
X32309592Y-24268291D01*
X32309592Y-24268291D02*
X32341335Y-24268291D01*
X32341335Y-24268291D02*
X32388949Y-24284162D01*
X32388949Y-24284162D02*
X32404821Y-24300034D01*
X32595278Y-24601591D02*
X32563535Y-24585720D01*
X32563535Y-24585720D02*
X32547664Y-24569848D01*
X32547664Y-24569848D02*
X32531792Y-24538105D01*
X32531792Y-24538105D02*
X32531792Y-24442877D01*
X32531792Y-24442877D02*
X32547664Y-24411134D01*
X32547664Y-24411134D02*
X32563535Y-24395262D01*
X32563535Y-24395262D02*
X32595278Y-24379391D01*
X32595278Y-24379391D02*
X32642892Y-24379391D01*
X32642892Y-24379391D02*
X32674635Y-24395262D01*
X32674635Y-24395262D02*
X32690507Y-24411134D01*
X32690507Y-24411134D02*
X32706378Y-24442877D01*
X32706378Y-24442877D02*
X32706378Y-24538105D01*
X32706378Y-24538105D02*
X32690507Y-24569848D01*
X32690507Y-24569848D02*
X32674635Y-24585720D01*
X32674635Y-24585720D02*
X32642892Y-24601591D01*
X32642892Y-24601591D02*
X32595278Y-24601591D01*
X32849221Y-24379391D02*
X32849221Y-24712691D01*
X32849221Y-24395262D02*
X32880964Y-24379391D01*
X32880964Y-24379391D02*
X32944449Y-24379391D01*
X32944449Y-24379391D02*
X32976192Y-24395262D01*
X32976192Y-24395262D02*
X32992064Y-24411134D01*
X32992064Y-24411134D02*
X33007935Y-24442877D01*
X33007935Y-24442877D02*
X33007935Y-24538105D01*
X33007935Y-24538105D02*
X32992064Y-24569848D01*
X32992064Y-24569848D02*
X32976192Y-24585720D01*
X32976192Y-24585720D02*
X32944449Y-24601591D01*
X32944449Y-24601591D02*
X32880964Y-24601591D01*
X32880964Y-24601591D02*
X32849221Y-24585720D01*
X33150778Y-24379391D02*
X33150778Y-24712691D01*
X33150778Y-24395262D02*
X33182521Y-24379391D01*
X33182521Y-24379391D02*
X33246006Y-24379391D01*
X33246006Y-24379391D02*
X33277749Y-24395262D01*
X33277749Y-24395262D02*
X33293621Y-24411134D01*
X33293621Y-24411134D02*
X33309492Y-24442877D01*
X33309492Y-24442877D02*
X33309492Y-24538105D01*
X33309492Y-24538105D02*
X33293621Y-24569848D01*
X33293621Y-24569848D02*
X33277749Y-24585720D01*
X33277749Y-24585720D02*
X33246006Y-24601591D01*
X33246006Y-24601591D02*
X33182521Y-24601591D01*
X33182521Y-24601591D02*
X33150778Y-24585720D01*
X33579306Y-24585720D02*
X33547563Y-24601591D01*
X33547563Y-24601591D02*
X33484078Y-24601591D01*
X33484078Y-24601591D02*
X33452335Y-24585720D01*
X33452335Y-24585720D02*
X33436463Y-24553977D01*
X33436463Y-24553977D02*
X33436463Y-24427005D01*
X33436463Y-24427005D02*
X33452335Y-24395262D01*
X33452335Y-24395262D02*
X33484078Y-24379391D01*
X33484078Y-24379391D02*
X33547563Y-24379391D01*
X33547563Y-24379391D02*
X33579306Y-24395262D01*
X33579306Y-24395262D02*
X33595178Y-24427005D01*
X33595178Y-24427005D02*
X33595178Y-24458748D01*
X33595178Y-24458748D02*
X33436463Y-24490491D01*
X33738021Y-24601591D02*
X33738021Y-24379391D01*
X33738021Y-24442877D02*
X33753892Y-24411134D01*
X33753892Y-24411134D02*
X33769764Y-24395262D01*
X33769764Y-24395262D02*
X33801506Y-24379391D01*
X33801506Y-24379391D02*
X33833249Y-24379391D01*
X32476243Y-25236591D02*
X32476243Y-24903291D01*
X32666700Y-25236591D02*
X32523857Y-25046134D01*
X32666700Y-24903291D02*
X32476243Y-25093748D01*
X32936514Y-25220720D02*
X32904771Y-25236591D01*
X32904771Y-25236591D02*
X32841286Y-25236591D01*
X32841286Y-25236591D02*
X32809543Y-25220720D01*
X32809543Y-25220720D02*
X32793671Y-25188977D01*
X32793671Y-25188977D02*
X32793671Y-25062005D01*
X32793671Y-25062005D02*
X32809543Y-25030262D01*
X32809543Y-25030262D02*
X32841286Y-25014391D01*
X32841286Y-25014391D02*
X32904771Y-25014391D01*
X32904771Y-25014391D02*
X32936514Y-25030262D01*
X32936514Y-25030262D02*
X32952386Y-25062005D01*
X32952386Y-25062005D02*
X32952386Y-25093748D01*
X32952386Y-25093748D02*
X32793671Y-25125491D01*
X33222200Y-25220720D02*
X33190457Y-25236591D01*
X33190457Y-25236591D02*
X33126972Y-25236591D01*
X33126972Y-25236591D02*
X33095229Y-25220720D01*
X33095229Y-25220720D02*
X33079357Y-25188977D01*
X33079357Y-25188977D02*
X33079357Y-25062005D01*
X33079357Y-25062005D02*
X33095229Y-25030262D01*
X33095229Y-25030262D02*
X33126972Y-25014391D01*
X33126972Y-25014391D02*
X33190457Y-25014391D01*
X33190457Y-25014391D02*
X33222200Y-25030262D01*
X33222200Y-25030262D02*
X33238072Y-25062005D01*
X33238072Y-25062005D02*
X33238072Y-25093748D01*
X33238072Y-25093748D02*
X33079357Y-25125491D01*
X33380915Y-25014391D02*
X33380915Y-25347691D01*
X33380915Y-25030262D02*
X33412658Y-25014391D01*
X33412658Y-25014391D02*
X33476143Y-25014391D01*
X33476143Y-25014391D02*
X33507886Y-25030262D01*
X33507886Y-25030262D02*
X33523758Y-25046134D01*
X33523758Y-25046134D02*
X33539629Y-25077877D01*
X33539629Y-25077877D02*
X33539629Y-25173105D01*
X33539629Y-25173105D02*
X33523758Y-25204848D01*
X33523758Y-25204848D02*
X33507886Y-25220720D01*
X33507886Y-25220720D02*
X33476143Y-25236591D01*
X33476143Y-25236591D02*
X33412658Y-25236591D01*
X33412658Y-25236591D02*
X33380915Y-25220720D01*
X32722250Y-25538291D02*
X32785736Y-25538291D01*
X32785736Y-25538291D02*
X32817479Y-25554162D01*
X32817479Y-25554162D02*
X32849222Y-25585905D01*
X32849222Y-25585905D02*
X32865093Y-25649391D01*
X32865093Y-25649391D02*
X32865093Y-25760491D01*
X32865093Y-25760491D02*
X32849222Y-25823977D01*
X32849222Y-25823977D02*
X32817479Y-25855720D01*
X32817479Y-25855720D02*
X32785736Y-25871591D01*
X32785736Y-25871591D02*
X32722250Y-25871591D01*
X32722250Y-25871591D02*
X32690508Y-25855720D01*
X32690508Y-25855720D02*
X32658765Y-25823977D01*
X32658765Y-25823977D02*
X32642893Y-25760491D01*
X32642893Y-25760491D02*
X32642893Y-25649391D01*
X32642893Y-25649391D02*
X32658765Y-25585905D01*
X32658765Y-25585905D02*
X32690508Y-25554162D01*
X32690508Y-25554162D02*
X32722250Y-25538291D01*
X33150779Y-25649391D02*
X33150779Y-25871591D01*
X33007936Y-25649391D02*
X33007936Y-25823977D01*
X33007936Y-25823977D02*
X33023807Y-25855720D01*
X33023807Y-25855720D02*
X33055550Y-25871591D01*
X33055550Y-25871591D02*
X33103164Y-25871591D01*
X33103164Y-25871591D02*
X33134907Y-25855720D01*
X33134907Y-25855720D02*
X33150779Y-25839848D01*
X33261878Y-25649391D02*
X33388850Y-25649391D01*
X33309493Y-25538291D02*
X33309493Y-25823977D01*
X33309493Y-25823977D02*
X33325364Y-25855720D01*
X33325364Y-25855720D02*
X33357107Y-25871591D01*
X33357107Y-25871591D02*
X33388850Y-25871591D01*
D11*
X37164552Y-24584046D02*
X37164552Y-24345951D01*
X37307409Y-24631665D02*
X36807409Y-24464999D01*
X36807409Y-24464999D02*
X37307409Y-24298332D01*
X36831219Y-23869761D02*
X36807409Y-23917380D01*
X36807409Y-23917380D02*
X36807409Y-23988809D01*
X36807409Y-23988809D02*
X36831219Y-24060237D01*
X36831219Y-24060237D02*
X36878838Y-24107856D01*
X36878838Y-24107856D02*
X36926457Y-24131666D01*
X36926457Y-24131666D02*
X37021695Y-24155475D01*
X37021695Y-24155475D02*
X37093123Y-24155475D01*
X37093123Y-24155475D02*
X37188361Y-24131666D01*
X37188361Y-24131666D02*
X37235980Y-24107856D01*
X37235980Y-24107856D02*
X37283600Y-24060237D01*
X37283600Y-24060237D02*
X37307409Y-23988809D01*
X37307409Y-23988809D02*
X37307409Y-23941190D01*
X37307409Y-23941190D02*
X37283600Y-23869761D01*
X37283600Y-23869761D02*
X37259790Y-23845952D01*
X37259790Y-23845952D02*
X37093123Y-23845952D01*
X37093123Y-23845952D02*
X37093123Y-23941190D01*
X37307409Y-23631666D02*
X36807409Y-23631666D01*
X36807409Y-23631666D02*
X37307409Y-23345952D01*
X37307409Y-23345952D02*
X36807409Y-23345952D01*
X37307409Y-23107856D02*
X36807409Y-23107856D01*
X36807409Y-23107856D02*
X36807409Y-22988808D01*
X36807409Y-22988808D02*
X36831219Y-22917380D01*
X36831219Y-22917380D02*
X36878838Y-22869761D01*
X36878838Y-22869761D02*
X36926457Y-22845951D01*
X36926457Y-22845951D02*
X37021695Y-22822142D01*
X37021695Y-22822142D02*
X37093123Y-22822142D01*
X37093123Y-22822142D02*
X37188361Y-22845951D01*
X37188361Y-22845951D02*
X37235980Y-22869761D01*
X37235980Y-22869761D02*
X37283600Y-22917380D01*
X37283600Y-22917380D02*
X37307409Y-22988808D01*
X37307409Y-22988808D02*
X37307409Y-23107856D01*
X37307409Y-22226904D02*
X36807409Y-22226904D01*
X36807409Y-22226904D02*
X36807409Y-22036428D01*
X36807409Y-22036428D02*
X36831219Y-21988809D01*
X36831219Y-21988809D02*
X36855028Y-21964999D01*
X36855028Y-21964999D02*
X36902647Y-21941190D01*
X36902647Y-21941190D02*
X36974076Y-21941190D01*
X36974076Y-21941190D02*
X37021695Y-21964999D01*
X37021695Y-21964999D02*
X37045504Y-21988809D01*
X37045504Y-21988809D02*
X37069314Y-22036428D01*
X37069314Y-22036428D02*
X37069314Y-22226904D01*
X37307409Y-21655475D02*
X37283600Y-21703094D01*
X37283600Y-21703094D02*
X37235980Y-21726904D01*
X37235980Y-21726904D02*
X36807409Y-21726904D01*
X37307409Y-21250713D02*
X37045504Y-21250713D01*
X37045504Y-21250713D02*
X36997885Y-21274523D01*
X36997885Y-21274523D02*
X36974076Y-21322142D01*
X36974076Y-21322142D02*
X36974076Y-21417380D01*
X36974076Y-21417380D02*
X36997885Y-21464999D01*
X37283600Y-21250713D02*
X37307409Y-21298332D01*
X37307409Y-21298332D02*
X37307409Y-21417380D01*
X37307409Y-21417380D02*
X37283600Y-21464999D01*
X37283600Y-21464999D02*
X37235980Y-21488808D01*
X37235980Y-21488808D02*
X37188361Y-21488808D01*
X37188361Y-21488808D02*
X37140742Y-21464999D01*
X37140742Y-21464999D02*
X37116933Y-21417380D01*
X37116933Y-21417380D02*
X37116933Y-21298332D01*
X37116933Y-21298332D02*
X37093123Y-21250713D01*
X36974076Y-21012618D02*
X37307409Y-21012618D01*
X37021695Y-21012618D02*
X36997885Y-20988808D01*
X36997885Y-20988808D02*
X36974076Y-20941189D01*
X36974076Y-20941189D02*
X36974076Y-20869761D01*
X36974076Y-20869761D02*
X36997885Y-20822142D01*
X36997885Y-20822142D02*
X37045504Y-20798332D01*
X37045504Y-20798332D02*
X37307409Y-20798332D01*
X37283600Y-20369761D02*
X37307409Y-20417380D01*
X37307409Y-20417380D02*
X37307409Y-20512618D01*
X37307409Y-20512618D02*
X37283600Y-20560237D01*
X37283600Y-20560237D02*
X37235980Y-20584046D01*
X37235980Y-20584046D02*
X37045504Y-20584046D01*
X37045504Y-20584046D02*
X36997885Y-20560237D01*
X36997885Y-20560237D02*
X36974076Y-20512618D01*
X36974076Y-20512618D02*
X36974076Y-20417380D01*
X36974076Y-20417380D02*
X36997885Y-20369761D01*
X36997885Y-20369761D02*
X37045504Y-20345951D01*
X37045504Y-20345951D02*
X37093123Y-20345951D01*
X37093123Y-20345951D02*
X37140742Y-20584046D01*
X26835447Y-20345953D02*
X26835447Y-20584048D01*
X26692590Y-20298334D02*
X27192590Y-20465000D01*
X27192590Y-20465000D02*
X26692590Y-20631667D01*
X27168780Y-21060238D02*
X27192590Y-21012619D01*
X27192590Y-21012619D02*
X27192590Y-20941190D01*
X27192590Y-20941190D02*
X27168780Y-20869762D01*
X27168780Y-20869762D02*
X27121161Y-20822143D01*
X27121161Y-20822143D02*
X27073542Y-20798333D01*
X27073542Y-20798333D02*
X26978304Y-20774524D01*
X26978304Y-20774524D02*
X26906876Y-20774524D01*
X26906876Y-20774524D02*
X26811638Y-20798333D01*
X26811638Y-20798333D02*
X26764019Y-20822143D01*
X26764019Y-20822143D02*
X26716400Y-20869762D01*
X26716400Y-20869762D02*
X26692590Y-20941190D01*
X26692590Y-20941190D02*
X26692590Y-20988809D01*
X26692590Y-20988809D02*
X26716400Y-21060238D01*
X26716400Y-21060238D02*
X26740209Y-21084047D01*
X26740209Y-21084047D02*
X26906876Y-21084047D01*
X26906876Y-21084047D02*
X26906876Y-20988809D01*
X26692590Y-21298333D02*
X27192590Y-21298333D01*
X27192590Y-21298333D02*
X26692590Y-21584047D01*
X26692590Y-21584047D02*
X27192590Y-21584047D01*
X26692590Y-21822143D02*
X27192590Y-21822143D01*
X27192590Y-21822143D02*
X27192590Y-21941191D01*
X27192590Y-21941191D02*
X27168780Y-22012619D01*
X27168780Y-22012619D02*
X27121161Y-22060238D01*
X27121161Y-22060238D02*
X27073542Y-22084048D01*
X27073542Y-22084048D02*
X26978304Y-22107857D01*
X26978304Y-22107857D02*
X26906876Y-22107857D01*
X26906876Y-22107857D02*
X26811638Y-22084048D01*
X26811638Y-22084048D02*
X26764019Y-22060238D01*
X26764019Y-22060238D02*
X26716400Y-22012619D01*
X26716400Y-22012619D02*
X26692590Y-21941191D01*
X26692590Y-21941191D02*
X26692590Y-21822143D01*
X26692590Y-22703095D02*
X27192590Y-22703095D01*
X27192590Y-22703095D02*
X27192590Y-22893571D01*
X27192590Y-22893571D02*
X27168780Y-22941190D01*
X27168780Y-22941190D02*
X27144971Y-22965000D01*
X27144971Y-22965000D02*
X27097352Y-22988809D01*
X27097352Y-22988809D02*
X27025923Y-22988809D01*
X27025923Y-22988809D02*
X26978304Y-22965000D01*
X26978304Y-22965000D02*
X26954495Y-22941190D01*
X26954495Y-22941190D02*
X26930685Y-22893571D01*
X26930685Y-22893571D02*
X26930685Y-22703095D01*
X26692590Y-23274524D02*
X26716400Y-23226905D01*
X26716400Y-23226905D02*
X26764019Y-23203095D01*
X26764019Y-23203095D02*
X27192590Y-23203095D01*
X26692590Y-23679286D02*
X26954495Y-23679286D01*
X26954495Y-23679286D02*
X27002114Y-23655476D01*
X27002114Y-23655476D02*
X27025923Y-23607857D01*
X27025923Y-23607857D02*
X27025923Y-23512619D01*
X27025923Y-23512619D02*
X27002114Y-23465000D01*
X26716400Y-23679286D02*
X26692590Y-23631667D01*
X26692590Y-23631667D02*
X26692590Y-23512619D01*
X26692590Y-23512619D02*
X26716400Y-23465000D01*
X26716400Y-23465000D02*
X26764019Y-23441191D01*
X26764019Y-23441191D02*
X26811638Y-23441191D01*
X26811638Y-23441191D02*
X26859257Y-23465000D01*
X26859257Y-23465000D02*
X26883066Y-23512619D01*
X26883066Y-23512619D02*
X26883066Y-23631667D01*
X26883066Y-23631667D02*
X26906876Y-23679286D01*
X27025923Y-23917381D02*
X26692590Y-23917381D01*
X26978304Y-23917381D02*
X27002114Y-23941191D01*
X27002114Y-23941191D02*
X27025923Y-23988810D01*
X27025923Y-23988810D02*
X27025923Y-24060238D01*
X27025923Y-24060238D02*
X27002114Y-24107857D01*
X27002114Y-24107857D02*
X26954495Y-24131667D01*
X26954495Y-24131667D02*
X26692590Y-24131667D01*
X26716400Y-24560238D02*
X26692590Y-24512619D01*
X26692590Y-24512619D02*
X26692590Y-24417381D01*
X26692590Y-24417381D02*
X26716400Y-24369762D01*
X26716400Y-24369762D02*
X26764019Y-24345953D01*
X26764019Y-24345953D02*
X26954495Y-24345953D01*
X26954495Y-24345953D02*
X27002114Y-24369762D01*
X27002114Y-24369762D02*
X27025923Y-24417381D01*
X27025923Y-24417381D02*
X27025923Y-24512619D01*
X27025923Y-24512619D02*
X27002114Y-24560238D01*
X27002114Y-24560238D02*
X26954495Y-24584048D01*
X26954495Y-24584048D02*
X26906876Y-24584048D01*
X26906876Y-24584048D02*
X26859257Y-24345953D01*
D10*
X30404821Y-24569848D02*
X30388949Y-24585720D01*
X30388949Y-24585720D02*
X30341335Y-24601591D01*
X30341335Y-24601591D02*
X30309592Y-24601591D01*
X30309592Y-24601591D02*
X30261978Y-24585720D01*
X30261978Y-24585720D02*
X30230235Y-24553977D01*
X30230235Y-24553977D02*
X30214364Y-24522234D01*
X30214364Y-24522234D02*
X30198492Y-24458748D01*
X30198492Y-24458748D02*
X30198492Y-24411134D01*
X30198492Y-24411134D02*
X30214364Y-24347648D01*
X30214364Y-24347648D02*
X30230235Y-24315905D01*
X30230235Y-24315905D02*
X30261978Y-24284162D01*
X30261978Y-24284162D02*
X30309592Y-24268291D01*
X30309592Y-24268291D02*
X30341335Y-24268291D01*
X30341335Y-24268291D02*
X30388949Y-24284162D01*
X30388949Y-24284162D02*
X30404821Y-24300034D01*
X30595278Y-24601591D02*
X30563535Y-24585720D01*
X30563535Y-24585720D02*
X30547664Y-24569848D01*
X30547664Y-24569848D02*
X30531792Y-24538105D01*
X30531792Y-24538105D02*
X30531792Y-24442877D01*
X30531792Y-24442877D02*
X30547664Y-24411134D01*
X30547664Y-24411134D02*
X30563535Y-24395262D01*
X30563535Y-24395262D02*
X30595278Y-24379391D01*
X30595278Y-24379391D02*
X30642892Y-24379391D01*
X30642892Y-24379391D02*
X30674635Y-24395262D01*
X30674635Y-24395262D02*
X30690507Y-24411134D01*
X30690507Y-24411134D02*
X30706378Y-24442877D01*
X30706378Y-24442877D02*
X30706378Y-24538105D01*
X30706378Y-24538105D02*
X30690507Y-24569848D01*
X30690507Y-24569848D02*
X30674635Y-24585720D01*
X30674635Y-24585720D02*
X30642892Y-24601591D01*
X30642892Y-24601591D02*
X30595278Y-24601591D01*
X30849221Y-24379391D02*
X30849221Y-24712691D01*
X30849221Y-24395262D02*
X30880964Y-24379391D01*
X30880964Y-24379391D02*
X30944449Y-24379391D01*
X30944449Y-24379391D02*
X30976192Y-24395262D01*
X30976192Y-24395262D02*
X30992064Y-24411134D01*
X30992064Y-24411134D02*
X31007935Y-24442877D01*
X31007935Y-24442877D02*
X31007935Y-24538105D01*
X31007935Y-24538105D02*
X30992064Y-24569848D01*
X30992064Y-24569848D02*
X30976192Y-24585720D01*
X30976192Y-24585720D02*
X30944449Y-24601591D01*
X30944449Y-24601591D02*
X30880964Y-24601591D01*
X30880964Y-24601591D02*
X30849221Y-24585720D01*
X31150778Y-24379391D02*
X31150778Y-24712691D01*
X31150778Y-24395262D02*
X31182521Y-24379391D01*
X31182521Y-24379391D02*
X31246006Y-24379391D01*
X31246006Y-24379391D02*
X31277749Y-24395262D01*
X31277749Y-24395262D02*
X31293621Y-24411134D01*
X31293621Y-24411134D02*
X31309492Y-24442877D01*
X31309492Y-24442877D02*
X31309492Y-24538105D01*
X31309492Y-24538105D02*
X31293621Y-24569848D01*
X31293621Y-24569848D02*
X31277749Y-24585720D01*
X31277749Y-24585720D02*
X31246006Y-24601591D01*
X31246006Y-24601591D02*
X31182521Y-24601591D01*
X31182521Y-24601591D02*
X31150778Y-24585720D01*
X31579306Y-24585720D02*
X31547563Y-24601591D01*
X31547563Y-24601591D02*
X31484078Y-24601591D01*
X31484078Y-24601591D02*
X31452335Y-24585720D01*
X31452335Y-24585720D02*
X31436463Y-24553977D01*
X31436463Y-24553977D02*
X31436463Y-24427005D01*
X31436463Y-24427005D02*
X31452335Y-24395262D01*
X31452335Y-24395262D02*
X31484078Y-24379391D01*
X31484078Y-24379391D02*
X31547563Y-24379391D01*
X31547563Y-24379391D02*
X31579306Y-24395262D01*
X31579306Y-24395262D02*
X31595178Y-24427005D01*
X31595178Y-24427005D02*
X31595178Y-24458748D01*
X31595178Y-24458748D02*
X31436463Y-24490491D01*
X31738021Y-24601591D02*
X31738021Y-24379391D01*
X31738021Y-24442877D02*
X31753892Y-24411134D01*
X31753892Y-24411134D02*
X31769764Y-24395262D01*
X31769764Y-24395262D02*
X31801506Y-24379391D01*
X31801506Y-24379391D02*
X31833249Y-24379391D01*
X30476243Y-25236591D02*
X30476243Y-24903291D01*
X30666700Y-25236591D02*
X30523857Y-25046134D01*
X30666700Y-24903291D02*
X30476243Y-25093748D01*
X30936514Y-25220720D02*
X30904771Y-25236591D01*
X30904771Y-25236591D02*
X30841286Y-25236591D01*
X30841286Y-25236591D02*
X30809543Y-25220720D01*
X30809543Y-25220720D02*
X30793671Y-25188977D01*
X30793671Y-25188977D02*
X30793671Y-25062005D01*
X30793671Y-25062005D02*
X30809543Y-25030262D01*
X30809543Y-25030262D02*
X30841286Y-25014391D01*
X30841286Y-25014391D02*
X30904771Y-25014391D01*
X30904771Y-25014391D02*
X30936514Y-25030262D01*
X30936514Y-25030262D02*
X30952386Y-25062005D01*
X30952386Y-25062005D02*
X30952386Y-25093748D01*
X30952386Y-25093748D02*
X30793671Y-25125491D01*
X31222200Y-25220720D02*
X31190457Y-25236591D01*
X31190457Y-25236591D02*
X31126972Y-25236591D01*
X31126972Y-25236591D02*
X31095229Y-25220720D01*
X31095229Y-25220720D02*
X31079357Y-25188977D01*
X31079357Y-25188977D02*
X31079357Y-25062005D01*
X31079357Y-25062005D02*
X31095229Y-25030262D01*
X31095229Y-25030262D02*
X31126972Y-25014391D01*
X31126972Y-25014391D02*
X31190457Y-25014391D01*
X31190457Y-25014391D02*
X31222200Y-25030262D01*
X31222200Y-25030262D02*
X31238072Y-25062005D01*
X31238072Y-25062005D02*
X31238072Y-25093748D01*
X31238072Y-25093748D02*
X31079357Y-25125491D01*
X31380915Y-25014391D02*
X31380915Y-25347691D01*
X31380915Y-25030262D02*
X31412658Y-25014391D01*
X31412658Y-25014391D02*
X31476143Y-25014391D01*
X31476143Y-25014391D02*
X31507886Y-25030262D01*
X31507886Y-25030262D02*
X31523758Y-25046134D01*
X31523758Y-25046134D02*
X31539629Y-25077877D01*
X31539629Y-25077877D02*
X31539629Y-25173105D01*
X31539629Y-25173105D02*
X31523758Y-25204848D01*
X31523758Y-25204848D02*
X31507886Y-25220720D01*
X31507886Y-25220720D02*
X31476143Y-25236591D01*
X31476143Y-25236591D02*
X31412658Y-25236591D01*
X31412658Y-25236591D02*
X31380915Y-25220720D01*
X30722250Y-25538291D02*
X30785736Y-25538291D01*
X30785736Y-25538291D02*
X30817479Y-25554162D01*
X30817479Y-25554162D02*
X30849222Y-25585905D01*
X30849222Y-25585905D02*
X30865093Y-25649391D01*
X30865093Y-25649391D02*
X30865093Y-25760491D01*
X30865093Y-25760491D02*
X30849222Y-25823977D01*
X30849222Y-25823977D02*
X30817479Y-25855720D01*
X30817479Y-25855720D02*
X30785736Y-25871591D01*
X30785736Y-25871591D02*
X30722250Y-25871591D01*
X30722250Y-25871591D02*
X30690508Y-25855720D01*
X30690508Y-25855720D02*
X30658765Y-25823977D01*
X30658765Y-25823977D02*
X30642893Y-25760491D01*
X30642893Y-25760491D02*
X30642893Y-25649391D01*
X30642893Y-25649391D02*
X30658765Y-25585905D01*
X30658765Y-25585905D02*
X30690508Y-25554162D01*
X30690508Y-25554162D02*
X30722250Y-25538291D01*
X31150779Y-25649391D02*
X31150779Y-25871591D01*
X31007936Y-25649391D02*
X31007936Y-25823977D01*
X31007936Y-25823977D02*
X31023807Y-25855720D01*
X31023807Y-25855720D02*
X31055550Y-25871591D01*
X31055550Y-25871591D02*
X31103164Y-25871591D01*
X31103164Y-25871591D02*
X31134907Y-25855720D01*
X31134907Y-25855720D02*
X31150779Y-25839848D01*
X31261878Y-25649391D02*
X31388850Y-25649391D01*
X31309493Y-25538291D02*
X31309493Y-25823977D01*
X31309493Y-25823977D02*
X31325364Y-25855720D01*
X31325364Y-25855720D02*
X31357107Y-25871591D01*
X31357107Y-25871591D02*
X31388850Y-25871591D01*
M02*
