M48
; DRILL file KiCad 10.0.3 date 2026-05-22T13:20:40
; FORMAT={-:-/ absolute / metric / decimal}
; #@! TF.CreationDate,2026-05-22T13:20:40+10:00
; #@! TF.GenerationSoftware,Kicad,Pcbnew,10.0.3
; #@! TF.FileFunction,Plated,1,2,PTH
FMAT,2
METRIC
; #@! TA.AperFunction,Plated,PTH,ViaDrill
T1C0.300
; #@! TA.AperFunction,Plated,PTH,ComponentDrill
T2C0.600
; #@! TA.AperFunction,Plated,PTH,ComponentDrill
T3C2.300
%
G90
G05
T1
X9.417Y-41.016
X15.928Y-26.55
X18.863Y-12.241
X20.046Y-13.541
X20.85Y-24.815
X21.561Y-35.216
X25.52Y-8.769
X26.515Y-14.721
X27.604Y-16.115
X37.891Y-14.346
X40.959Y-7.242
X43.45Y-12.795
T3
X13.16Y-9.43
X13.16Y-22.57
T2
G00X5.752Y-36.68
M15
G01X5.152Y-36.68
M16
G05
G00X5.752Y-45.32
M15
G01X5.152Y-45.32
M16
G05
G00X10.182Y-36.68
M15
G01X9.082Y-36.68
M16
G05
G00X10.182Y-45.32
M15
G01X9.082Y-45.32
M16
G05
M30
