%TF.GenerationSoftware,KiCad,Pcbnew,10.0.3*%
%TF.CreationDate,2026-05-22T13:20:40+10:00*%
%TF.ProjectId,screen-hopper-compact,73637265-656e-42d6-986f-707065722d63,rev?*%
%TF.SameCoordinates,Original*%
%TF.FileFunction,Legend,Bot*%
%TF.FilePolarity,Positive*%
%FSLAX46Y46*%
G04 Gerber Fmt 4.6, Leading zero omitted, Abs format (unit mm)*
G04 Created by KiCad (PCBNEW 10.0.3) date 2026-05-22 13:20:40*
%MOMM*%
%LPD*%
G01*
G04 APERTURE LIST*
%ADD10C,0.150000*%
%ADD11C,0.120000*%
%ADD12C,0.350000*%
%ADD13O,1.700000X0.600000*%
%ADD14O,1.200000X0.600000*%
G04 APERTURE END LIST*
D10*
X19963339Y-55019104D02*
X19487149Y-55019104D01*
X20058577Y-55304819D02*
X19725244Y-54304819D01*
X19725244Y-54304819D02*
X19391911Y-55304819D01*
X19106196Y-54400057D02*
X19058577Y-54352438D01*
X19058577Y-54352438D02*
X18963339Y-54304819D01*
X18963339Y-54304819D02*
X18725244Y-54304819D01*
X18725244Y-54304819D02*
X18630006Y-54352438D01*
X18630006Y-54352438D02*
X18582387Y-54400057D01*
X18582387Y-54400057D02*
X18534768Y-54495295D01*
X18534768Y-54495295D02*
X18534768Y-54590533D01*
X18534768Y-54590533D02*
X18582387Y-54733390D01*
X18582387Y-54733390D02*
X19153815Y-55304819D01*
X19153815Y-55304819D02*
X18534768Y-55304819D01*
%TO.C,A2*%
D11*
X21390000Y-7015000D02*
X21390000Y-7435000D01*
X21390000Y-9555000D02*
X21390000Y-9975000D01*
X21390000Y-12095000D02*
X21390000Y-12515000D01*
X21390000Y-14635000D02*
X21390000Y-15055000D01*
X21390000Y-17175000D02*
X21390000Y-17595000D01*
X21390000Y-19715000D02*
X21390000Y-20135000D01*
X21390000Y-22255000D02*
X21390000Y-22675000D01*
X21390000Y-24795000D02*
X21390000Y-25215000D01*
X21390000Y-27335000D02*
X21390000Y-27755000D01*
X21390000Y-29875000D02*
X21390000Y-30295000D01*
X21390000Y-32415000D02*
X21390000Y-32835000D01*
X21390000Y-34955000D02*
X21390000Y-35375000D01*
X21390000Y-37495000D02*
X21390000Y-37915000D01*
X21390000Y-40035000D02*
X21390000Y-40455000D01*
X21390000Y-42575000D02*
X21390000Y-42995000D01*
X21390000Y-45115000D02*
X21390000Y-45535000D01*
X21390000Y-47655000D02*
X21390000Y-48075000D01*
X21390000Y-50195000D02*
X21390000Y-50615000D01*
X21390000Y-52735000D02*
X21390000Y-53155000D01*
X22000000Y-4475000D02*
X24490000Y-4475000D01*
X25837939Y-4475000D02*
X24490000Y-4475000D01*
X25837939Y-55695000D02*
X22000000Y-55695000D01*
X26762061Y-55695000D02*
X28400000Y-55695000D01*
X27765000Y-4475000D02*
X26762061Y-4475000D01*
X30940000Y-55695000D02*
X30520000Y-55695000D01*
X33480000Y-55695000D02*
X33060000Y-55695000D01*
X35600000Y-55695000D02*
X37237939Y-55695000D01*
X36235000Y-4475000D02*
X27765000Y-4475000D01*
X37237939Y-4475000D02*
X36235000Y-4475000D01*
X39510000Y-4475000D02*
X38162060Y-4475000D01*
X42000000Y-4475000D02*
X39510000Y-4475000D01*
X42000000Y-55695000D02*
X38162061Y-55695000D01*
X42579676Y-4895000D02*
X43090000Y-4895000D01*
X42610000Y-7015000D02*
X42610000Y-7435000D01*
X42610000Y-7015000D02*
X43090000Y-7015000D01*
X42610000Y-9555000D02*
X42610000Y-9975000D01*
X42610000Y-12095000D02*
X42610000Y-12515000D01*
X42610000Y-14635000D02*
X42610000Y-15055000D01*
X42610000Y-17175000D02*
X42610000Y-17595000D01*
X42610000Y-19715000D02*
X42610000Y-20135000D01*
X42610000Y-22255000D02*
X42610000Y-22675000D01*
X42610000Y-24795000D02*
X42610000Y-25215000D01*
X42610000Y-27335000D02*
X42610000Y-27755000D01*
X42610000Y-29875000D02*
X42610000Y-30295000D01*
X42610000Y-32415000D02*
X42610000Y-32835000D01*
X42610000Y-34955000D02*
X42610000Y-35375000D01*
X42610000Y-37495000D02*
X42610000Y-37915000D01*
X42610000Y-40035000D02*
X42610000Y-40455000D01*
X42610000Y-42575000D02*
X42610000Y-42995000D01*
X42610000Y-45115000D02*
X42610000Y-45535000D01*
X42610000Y-47655000D02*
X42610000Y-48075000D01*
X42610000Y-50195000D02*
X42610000Y-50615000D01*
X42610000Y-52735000D02*
X42610000Y-53155000D01*
X21420324Y-4895063D02*
G75*
G02*
X22000000Y-4475000I579676J-189937D01*
G01*
X22000000Y-55695000D02*
G75*
G02*
X21420340Y-55274932I-200J609700D01*
G01*
X42000000Y-4475000D02*
G75*
G02*
X42579676Y-4895000I-16J-610051D01*
G01*
X42579676Y-55274937D02*
G75*
G02*
X42000000Y-55695000I-579677J189939D01*
G01*
%TD*%
D12*
X9102500Y-38110000D03*
X9102500Y-43890000D03*
D13*
X9632500Y-36680000D03*
D14*
X5452500Y-36680000D03*
D13*
X9632500Y-45320000D03*
D14*
X5452500Y-45320000D03*
D12*
X13160000Y-9430000D03*
X13160000Y-22570000D03*
M02*
