%TF.GenerationSoftware,KiCad,Pcbnew,10.0.3*%
%TF.CreationDate,2026-05-22T13:20:40+10:00*%
%TF.ProjectId,screen-hopper-compact,73637265-656e-42d6-986f-707065722d63,rev?*%
%TF.SameCoordinates,Original*%
%TF.FileFunction,Soldermask,Top*%
%TF.FilePolarity,Negative*%
%FSLAX46Y46*%
G04 Gerber Fmt 4.6, Leading zero omitted, Abs format (unit mm)*
G04 Created by KiCad (PCBNEW 10.0.3) date 2026-05-22 13:20:40*
%MOMM*%
%LPD*%
G01*
G04 APERTURE LIST*
G04 Aperture macros list*
%AMRoundRect*
0 Rectangle with rounded corners*
0 $1 Rounding radius*
0 $2 $3 $4 $5 $6 $7 $8 $9 X,Y pos of 4 corners*
0 Add a 4 corners polygon primitive as box body*
4,1,4,$2,$3,$4,$5,$6,$7,$8,$9,$2,$3,0*
0 Add four circle primitives for the rounded corners*
1,1,$1+$1,$2,$3*
1,1,$1+$1,$4,$5*
1,1,$1+$1,$6,$7*
1,1,$1+$1,$8,$9*
0 Add four rect primitives between the rounded corners*
20,1,$1+$1,$2,$3,$4,$5,0*
20,1,$1+$1,$4,$5,$6,$7,0*
20,1,$1+$1,$6,$7,$8,$9,0*
20,1,$1+$1,$8,$9,$2,$3,0*%
%AMFreePoly0*
4,1,37,0.800000,0.796148,0.878414,0.796148,1.032228,0.765552,1.177117,0.705537,1.307515,0.618408,1.418408,0.507515,1.505537,0.377117,1.565552,0.232228,1.596148,0.078414,1.596148,-0.078414,1.565552,-0.232228,1.505537,-0.377117,1.418408,-0.507515,1.307515,-0.618408,1.177117,-0.705537,1.032228,-0.765552,0.878414,-0.796148,0.800000,-0.796148,0.800000,-0.800000,-1.400000,-0.800000,
-1.403843,-0.796157,-1.439018,-0.796157,-1.511114,-0.766294,-1.566294,-0.711114,-1.596157,-0.639018,-1.596157,-0.603843,-1.600000,-0.600000,-1.600000,0.600000,-1.596157,0.603843,-1.596157,0.639018,-1.566294,0.711114,-1.511114,0.766294,-1.439018,0.796157,-1.403843,0.796157,-1.400000,0.800000,0.800000,0.800000,0.800000,0.796148,0.800000,0.796148,$1*%
%AMFreePoly1*
4,1,37,1.403843,0.796157,1.439018,0.796157,1.511114,0.766294,1.566294,0.711114,1.596157,0.639018,1.596157,0.603843,1.600000,0.600000,1.600000,-0.600000,1.596157,-0.603843,1.596157,-0.639018,1.566294,-0.711114,1.511114,-0.766294,1.439018,-0.796157,1.403843,-0.796157,1.400000,-0.800000,-0.800000,-0.800000,-0.800000,-0.796148,-0.878414,-0.796148,-1.032228,-0.765552,-1.177117,-0.705537,
-1.307515,-0.618408,-1.418408,-0.507515,-1.505537,-0.377117,-1.565552,-0.232228,-1.596148,-0.078414,-1.596148,0.078414,-1.565552,0.232228,-1.505537,0.377117,-1.418408,0.507515,-1.307515,0.618408,-1.177117,0.705537,-1.032228,0.765552,-0.878414,0.796148,-0.800000,0.796148,-0.800000,0.800000,1.400000,0.800000,1.403843,0.796157,1.403843,0.796157,$1*%
%AMFreePoly2*
4,1,37,1.600000,0.796148,1.678414,0.796148,1.832228,0.765552,1.977117,0.705537,2.107515,0.618408,2.218408,0.507515,2.305537,0.377117,2.365552,0.232228,2.396148,0.078414,2.396148,-0.078414,2.365552,-0.232228,2.305537,-0.377117,2.218408,-0.507515,2.107515,-0.618408,1.977117,-0.705537,1.832228,-0.765552,1.678414,-0.796148,1.600000,-0.796148,1.600000,-0.800000,-0.600000,-0.800000,
-0.603843,-0.796157,-0.639018,-0.796157,-0.711114,-0.766294,-0.766294,-0.711114,-0.796157,-0.639018,-0.796157,-0.603843,-0.800000,-0.600000,-0.800000,0.600000,-0.796157,0.603843,-0.796157,0.639018,-0.766294,0.711114,-0.711114,0.766294,-0.639018,0.796157,-0.603843,0.796157,-0.600000,0.800000,1.600000,0.800000,1.600000,0.796148,1.600000,0.796148,$1*%
G04 Aperture macros list end*
%ADD10C,0.650000*%
%ADD11RoundRect,0.150000X-0.575000X0.150000X-0.575000X-0.150000X0.575000X-0.150000X0.575000X0.150000X0*%
%ADD12RoundRect,0.075000X-0.650000X0.075000X-0.650000X-0.075000X0.650000X-0.075000X0.650000X0.075000X0*%
%ADD13O,2.100000X1.000000*%
%ADD14O,1.600000X1.000000*%
%ADD15RoundRect,0.250000X-0.262500X-0.450000X0.262500X-0.450000X0.262500X0.450000X-0.262500X0.450000X0*%
%ADD16RoundRect,0.250000X-1.250000X0.375000X-1.250000X-0.375000X1.250000X-0.375000X1.250000X0.375000X0*%
%ADD17C,3.000000*%
%ADD18RoundRect,0.250000X-0.250000X-0.475000X0.250000X-0.475000X0.250000X0.475000X-0.250000X0.475000X0*%
%ADD19O,1.100000X1.800000*%
%ADD20O,1.050000X1.450000*%
%ADD21FreePoly0,0.000000*%
%ADD22RoundRect,0.800000X-0.800000X-0.000010X0.800000X-0.000010X0.800000X0.000010X-0.800000X0.000010X0*%
%ADD23FreePoly1,0.000000*%
%ADD24RoundRect,0.800000X0.000010X-0.800000X0.000010X0.800000X-0.000010X0.800000X-0.000010X-0.800000X0*%
%ADD25FreePoly2,270.000000*%
%ADD26RoundRect,0.300000X-0.450000X-0.450000X0.450000X-0.450000X0.450000X0.450000X-0.450000X0.450000X0*%
%ADD27RoundRect,0.150000X-0.512500X-0.150000X0.512500X-0.150000X0.512500X0.150000X-0.512500X0.150000X0*%
%ADD28RoundRect,0.150000X-0.825000X-0.150000X0.825000X-0.150000X0.825000X0.150000X-0.825000X0.150000X0*%
%ADD29C,0.350000*%
%ADD30O,1.700000X0.600000*%
%ADD31O,1.200000X0.600000*%
G04 APERTURE END LIST*
D10*
%TO.C,J2*%
X9102500Y-38110000D03*
X9102500Y-43890000D03*
D11*
X10547500Y-37750000D03*
X10547500Y-38550000D03*
D12*
X10547500Y-39750000D03*
X10547500Y-40750000D03*
X10547500Y-41250000D03*
X10547500Y-42250000D03*
D11*
X10547500Y-43450000D03*
X10547500Y-44250000D03*
X10547500Y-44250000D03*
X10547500Y-43450000D03*
D12*
X10547500Y-42750000D03*
X10547500Y-41750000D03*
X10547500Y-40250000D03*
X10547500Y-39250000D03*
D11*
X10547500Y-38550000D03*
X10547500Y-37750000D03*
D13*
X9632500Y-36680000D03*
D14*
X5452500Y-36680000D03*
D13*
X9632500Y-45320000D03*
D14*
X5452500Y-45320000D03*
%TD*%
D15*
%TO.C,R2*%
X55087500Y-22000000D03*
X56912500Y-22000000D03*
%TD*%
D16*
%TO.C,J1*%
X16840000Y-12500000D03*
X16840000Y-15000000D03*
X16840000Y-17000000D03*
X16840000Y-19500000D03*
D17*
X13160000Y-9430000D03*
X13160000Y-22570000D03*
%TD*%
D18*
%TO.C,C1*%
X54050000Y-40000000D03*
X55950000Y-40000000D03*
%TD*%
D15*
%TO.C,R1*%
X45087500Y-22000000D03*
X46912500Y-22000000D03*
%TD*%
D19*
%TO.C,A3*%
X66275000Y-6085000D03*
D20*
X66575000Y-9115000D03*
X71425000Y-9115000D03*
D19*
X71725000Y-6085000D03*
D21*
X59310000Y-5955000D03*
D22*
X59310000Y-8495000D03*
D23*
X59310000Y-11035000D03*
D22*
X59310000Y-13575000D03*
X59310000Y-16115000D03*
X59310000Y-18655000D03*
X59310000Y-21195000D03*
D23*
X59310000Y-23735000D03*
D22*
X59310000Y-26275000D03*
X59310000Y-28815000D03*
X59310000Y-31355000D03*
X59310000Y-33895000D03*
D23*
X59310000Y-36435000D03*
D22*
X59310000Y-38975000D03*
X59310000Y-41515000D03*
X59310000Y-44055000D03*
X59310000Y-46595000D03*
D23*
X59310000Y-49135000D03*
D22*
X59310000Y-51675000D03*
X59310000Y-54215000D03*
X78690000Y-54215000D03*
X78690000Y-51675000D03*
D21*
X78690000Y-49135000D03*
D22*
X78690000Y-46595000D03*
X78690000Y-44055000D03*
X78690000Y-41515000D03*
X78690000Y-38975000D03*
D21*
X78690000Y-36435000D03*
D22*
X78690000Y-33895000D03*
X78690000Y-31355000D03*
X78690000Y-28815000D03*
X78690000Y-26275000D03*
D21*
X78690000Y-23735000D03*
D22*
X78690000Y-21195000D03*
X78690000Y-18655000D03*
X78690000Y-16115000D03*
X78690000Y-13575000D03*
D21*
X78690000Y-11035000D03*
D22*
X78690000Y-8495000D03*
X78690000Y-5955000D03*
D24*
X66460000Y-54785000D03*
D25*
X69000000Y-53985000D03*
D24*
X71540000Y-54785000D03*
D26*
X69000000Y-9085000D03*
X70000000Y-5785000D03*
X68000000Y-5785000D03*
X66500000Y-12585000D03*
X66500000Y-15085000D03*
X66500000Y-17585000D03*
%TD*%
D15*
%TO.C,R4*%
X15087500Y-33500000D03*
X16912500Y-33500000D03*
%TD*%
D27*
%TO.C,U2*%
X14862500Y-26550000D03*
X14862500Y-27500000D03*
X14862500Y-28450000D03*
X17137500Y-28450000D03*
X17137500Y-27500000D03*
X17137500Y-26550000D03*
%TD*%
D19*
%TO.C,A1*%
X29275000Y-6085000D03*
D20*
X29575000Y-9115000D03*
X34425000Y-9115000D03*
D19*
X34725000Y-6085000D03*
D21*
X22310000Y-5955000D03*
D22*
X22310000Y-8495000D03*
D23*
X22310000Y-11035000D03*
D22*
X22310000Y-13575000D03*
X22310000Y-16115000D03*
X22310000Y-18655000D03*
X22310000Y-21195000D03*
D23*
X22310000Y-23735000D03*
D22*
X22310000Y-26275000D03*
X22310000Y-28815000D03*
X22310000Y-31355000D03*
X22310000Y-33895000D03*
D23*
X22310000Y-36435000D03*
D22*
X22310000Y-38975000D03*
X22310000Y-41515000D03*
X22310000Y-44055000D03*
X22310000Y-46595000D03*
D23*
X22310000Y-49135000D03*
D22*
X22310000Y-51675000D03*
X22310000Y-54215000D03*
X41690000Y-54215000D03*
X41690000Y-51675000D03*
D21*
X41690000Y-49135000D03*
D22*
X41690000Y-46595000D03*
X41690000Y-44055000D03*
X41690000Y-41515000D03*
X41690000Y-38975000D03*
D21*
X41690000Y-36435000D03*
D22*
X41690000Y-33895000D03*
X41690000Y-31355000D03*
X41690000Y-28815000D03*
X41690000Y-26275000D03*
D21*
X41690000Y-23735000D03*
D22*
X41690000Y-21195000D03*
X41690000Y-18655000D03*
X41690000Y-16115000D03*
X41690000Y-13575000D03*
D21*
X41690000Y-11035000D03*
D22*
X41690000Y-8495000D03*
X41690000Y-5955000D03*
D24*
X29460000Y-54785000D03*
D25*
X32000000Y-53985000D03*
D24*
X34540000Y-54785000D03*
D26*
X32000000Y-9085000D03*
X33000000Y-5785000D03*
X31000000Y-5785000D03*
X29500000Y-12585000D03*
X29500000Y-15085000D03*
X29500000Y-17585000D03*
%TD*%
D28*
%TO.C,U1*%
X48525000Y-24095000D03*
X48525000Y-25365000D03*
X48525000Y-26635000D03*
X48525000Y-27905000D03*
X53475000Y-27905000D03*
X53475000Y-26635000D03*
X53475000Y-25365000D03*
X53475000Y-24095000D03*
%TD*%
D15*
%TO.C,R3*%
X15087500Y-31000000D03*
X16912500Y-31000000D03*
%TD*%
D29*
X9102500Y-38110000D03*
X9102500Y-43890000D03*
D30*
X9632500Y-36680000D03*
D31*
X5452500Y-36680000D03*
D30*
X9632500Y-45320000D03*
D31*
X5452500Y-45320000D03*
D29*
X13160000Y-9430000D03*
X13160000Y-22570000D03*
M02*
