%TF.GenerationSoftware,KiCad,Pcbnew,10.0.3*%
%TF.CreationDate,2026-05-22T13:20:40+10:00*%
%TF.ProjectId,screen-hopper-compact,73637265-656e-42d6-986f-707065722d63,rev?*%
%TF.SameCoordinates,Original*%
%TF.FileFunction,Copper,L1,Top*%
%TF.FilePolarity,Positive*%
%FSLAX46Y46*%
G04 Gerber Fmt 4.6, Leading zero omitted, Abs format (unit mm)*
G04 Created by KiCad (PCBNEW 10.0.3) date 2026-05-22 13:20:40*
%MOMM*%
%LPD*%
G01*
G04 APERTURE LIST*
G04 Aperture macros list*
%AMRoundRect*
0 Rectangle with rounded corners*
0 $1 Rounding radius*
0 $2 $3 $4 $5 $6 $7 $8 $9 X,Y pos of 4 corners*
0 Add a 4 corners polygon primitive as box body*
4,1,4,$2,$3,$4,$5,$6,$7,$8,$9,$2,$3,0*
0 Add four circle primitives for the rounded corners*
1,1,$1+$1,$2,$3*
1,1,$1+$1,$4,$5*
1,1,$1+$1,$6,$7*
1,1,$1+$1,$8,$9*
0 Add four rect primitives between the rounded corners*
20,1,$1+$1,$2,$3,$4,$5,0*
20,1,$1+$1,$4,$5,$6,$7,0*
20,1,$1+$1,$6,$7,$8,$9,0*
20,1,$1+$1,$8,$9,$2,$3,0*%
%AMFreePoly0*
4,1,37,0.800000,0.796148,0.878414,0.796148,1.032228,0.765552,1.177117,0.705537,1.307515,0.618408,1.418408,0.507515,1.505537,0.377117,1.565552,0.232228,1.596148,0.078414,1.596148,-0.078414,1.565552,-0.232228,1.505537,-0.377117,1.418408,-0.507515,1.307515,-0.618408,1.177117,-0.705537,1.032228,-0.765552,0.878414,-0.796148,0.800000,-0.796148,0.800000,-0.800000,-1.400000,-0.800000,
-1.403843,-0.796157,-1.439018,-0.796157,-1.511114,-0.766294,-1.566294,-0.711114,-1.596157,-0.639018,-1.596157,-0.603843,-1.600000,-0.600000,-1.600000,0.600000,-1.596157,0.603843,-1.596157,0.639018,-1.566294,0.711114,-1.511114,0.766294,-1.439018,0.796157,-1.403843,0.796157,-1.400000,0.800000,0.800000,0.800000,0.800000,0.796148,0.800000,0.796148,$1*%
%AMFreePoly1*
4,1,37,1.403843,0.796157,1.439018,0.796157,1.511114,0.766294,1.566294,0.711114,1.596157,0.639018,1.596157,0.603843,1.600000,0.600000,1.600000,-0.600000,1.596157,-0.603843,1.596157,-0.639018,1.566294,-0.711114,1.511114,-0.766294,1.439018,-0.796157,1.403843,-0.796157,1.400000,-0.800000,-0.800000,-0.800000,-0.800000,-0.796148,-0.878414,-0.796148,-1.032228,-0.765552,-1.177117,-0.705537,
-1.307515,-0.618408,-1.418408,-0.507515,-1.505537,-0.377117,-1.565552,-0.232228,-1.596148,-0.078414,-1.596148,0.078414,-1.565552,0.232228,-1.505537,0.377117,-1.418408,0.507515,-1.307515,0.618408,-1.177117,0.705537,-1.032228,0.765552,-0.878414,0.796148,-0.800000,0.796148,-0.800000,0.800000,1.400000,0.800000,1.403843,0.796157,1.403843,0.796157,$1*%
%AMFreePoly2*
4,1,37,1.600000,0.796148,1.678414,0.796148,1.832228,0.765552,1.977117,0.705537,2.107515,0.618408,2.218408,0.507515,2.305537,0.377117,2.365552,0.232228,2.396148,0.078414,2.396148,-0.078414,2.365552,-0.232228,2.305537,-0.377117,2.218408,-0.507515,2.107515,-0.618408,1.977117,-0.705537,1.832228,-0.765552,1.678414,-0.796148,1.600000,-0.796148,1.600000,-0.800000,-0.600000,-0.800000,
-0.603843,-0.796157,-0.639018,-0.796157,-0.711114,-0.766294,-0.766294,-0.711114,-0.796157,-0.639018,-0.796157,-0.603843,-0.800000,-0.600000,-0.800000,0.600000,-0.796157,0.603843,-0.796157,0.639018,-0.766294,0.711114,-0.711114,0.766294,-0.639018,0.796157,-0.603843,0.796157,-0.600000,0.800000,1.600000,0.800000,1.600000,0.796148,1.600000,0.796148,$1*%
G04 Aperture macros list end*
%TA.AperFunction,SMDPad,CuDef*%
%ADD10RoundRect,0.150000X-0.575000X0.150000X-0.575000X-0.150000X0.575000X-0.150000X0.575000X0.150000X0*%
%TD*%
%TA.AperFunction,SMDPad,CuDef*%
%ADD11RoundRect,0.075000X-0.650000X0.075000X-0.650000X-0.075000X0.650000X-0.075000X0.650000X0.075000X0*%
%TD*%
%TA.AperFunction,ComponentPad*%
%ADD12O,2.100000X1.000000*%
%TD*%
%TA.AperFunction,ComponentPad*%
%ADD13O,1.600000X1.000000*%
%TD*%
%TA.AperFunction,SMDPad,CuDef*%
%ADD14RoundRect,0.250000X-0.262500X-0.450000X0.262500X-0.450000X0.262500X0.450000X-0.262500X0.450000X0*%
%TD*%
%TA.AperFunction,SMDPad,CuDef*%
%ADD15RoundRect,0.250000X-1.250000X0.375000X-1.250000X-0.375000X1.250000X-0.375000X1.250000X0.375000X0*%
%TD*%
%TA.AperFunction,ComponentPad*%
%ADD16C,3.000000*%
%TD*%
%TA.AperFunction,SMDPad,CuDef*%
%ADD17RoundRect,0.250000X-0.250000X-0.475000X0.250000X-0.475000X0.250000X0.475000X-0.250000X0.475000X0*%
%TD*%
%TA.AperFunction,SMDPad,CuDef*%
%ADD18O,1.100000X1.800000*%
%TD*%
%TA.AperFunction,SMDPad,CuDef*%
%ADD19O,1.050000X1.450000*%
%TD*%
%TA.AperFunction,SMDPad,CuDef*%
%ADD20FreePoly0,0.000000*%
%TD*%
%TA.AperFunction,SMDPad,CuDef*%
%ADD21RoundRect,0.800000X-0.800000X-0.000010X0.800000X-0.000010X0.800000X0.000010X-0.800000X0.000010X0*%
%TD*%
%TA.AperFunction,SMDPad,CuDef*%
%ADD22FreePoly1,0.000000*%
%TD*%
%TA.AperFunction,SMDPad,CuDef*%
%ADD23RoundRect,0.800000X0.000010X-0.800000X0.000010X0.800000X-0.000010X0.800000X-0.000010X-0.800000X0*%
%TD*%
%TA.AperFunction,SMDPad,CuDef*%
%ADD24FreePoly2,270.000000*%
%TD*%
%TA.AperFunction,SMDPad,CuDef*%
%ADD25RoundRect,0.300000X-0.450000X-0.450000X0.450000X-0.450000X0.450000X0.450000X-0.450000X0.450000X0*%
%TD*%
%TA.AperFunction,SMDPad,CuDef*%
%ADD26RoundRect,0.150000X-0.512500X-0.150000X0.512500X-0.150000X0.512500X0.150000X-0.512500X0.150000X0*%
%TD*%
%TA.AperFunction,SMDPad,CuDef*%
%ADD27RoundRect,0.150000X-0.825000X-0.150000X0.825000X-0.150000X0.825000X0.150000X-0.825000X0.150000X0*%
%TD*%
%TA.AperFunction,ViaPad*%
%ADD28C,0.500000*%
%TD*%
%TA.AperFunction,Conductor*%
%ADD29C,0.200000*%
%TD*%
%ADD30C,0.300000*%
%ADD31C,0.350000*%
%ADD32O,1.700000X0.600000*%
%ADD33O,1.200000X0.600000*%
G04 APERTURE END LIST*
D10*
%TO.P,J2,A1*%
%TO.N,GND1*%
X10547500Y-37750000D03*
%TO.P,J2,A4*%
%TO.N,VBUS1*%
X10547500Y-38550000D03*
D11*
%TO.P,J2,A5*%
%TO.N,CC1*%
X10547500Y-39750000D03*
%TO.P,J2,A6*%
%TO.N,USB_DP*%
X10547500Y-40750000D03*
%TO.P,J2,A7*%
%TO.N,USB_DM*%
X10547500Y-41250000D03*
%TO.P,J2,A8*%
%TO.N,N/C*%
X10547500Y-42250000D03*
D10*
%TO.P,J2,A9*%
%TO.N,VBUS1*%
X10547500Y-43450000D03*
%TO.P,J2,A12*%
%TO.N,GND1*%
X10547500Y-44250000D03*
%TO.P,J2,B1*%
X10547500Y-44250000D03*
%TO.P,J2,B4*%
%TO.N,VBUS1*%
X10547500Y-43450000D03*
D11*
%TO.P,J2,B5*%
%TO.N,CC2*%
X10547500Y-42750000D03*
%TO.P,J2,B6*%
%TO.N,USB_DP*%
X10547500Y-41750000D03*
%TO.P,J2,B7*%
%TO.N,USB_DM*%
X10547500Y-40250000D03*
%TO.P,J2,B8*%
%TO.N,N/C*%
X10547500Y-39250000D03*
D10*
%TO.P,J2,B9*%
%TO.N,VBUS1*%
X10547500Y-38550000D03*
%TO.P,J2,B12*%
%TO.N,GND1*%
X10547500Y-37750000D03*
D12*
%TO.P,J2,SH*%
X9632500Y-36680000D03*
D13*
X5452500Y-36680000D03*
D12*
X9632500Y-45320000D03*
D13*
X5452500Y-45320000D03*
%TD*%
D14*
%TO.P,R2,1*%
%TO.N,FWD_3V3*%
X55087500Y-22000000D03*
%TO.P,R2,2*%
%TO.N,OPTO_VO*%
X56912500Y-22000000D03*
%TD*%
D15*
%TO.P,J1,1*%
%TO.N,VBUS1*%
X16840000Y-12500000D03*
%TO.P,J1,2*%
%TO.N,USB_DM*%
X16840000Y-15000000D03*
%TO.P,J1,3*%
%TO.N,USB_DP*%
X16840000Y-17000000D03*
%TO.P,J1,4*%
%TO.N,GND1*%
X16840000Y-19500000D03*
D16*
%TO.P,J1,SH*%
X13160000Y-9430000D03*
X13160000Y-22570000D03*
%TD*%
D17*
%TO.P,C1,1*%
%TO.N,VBUS2*%
X54050000Y-40000000D03*
%TO.P,C1,2*%
%TO.N,GND2*%
X55950000Y-40000000D03*
%TD*%
D14*
%TO.P,R1,1*%
%TO.N,OPTO_3V3*%
X45087500Y-22000000D03*
%TO.P,R1,2*%
%TO.N,OPTO_ANODE*%
X46912500Y-22000000D03*
%TD*%
D18*
%TO.P,A3,*%
%TO.N,*%
X66275000Y-6085000D03*
D19*
X66575000Y-9115000D03*
X71425000Y-9115000D03*
D18*
X71725000Y-6085000D03*
D20*
%TO.P,A3,1*%
%TO.N,N/C*%
X59310000Y-5955000D03*
D21*
%TO.P,A3,2*%
X59310000Y-8495000D03*
D22*
%TO.P,A3,3*%
%TO.N,GND2*%
X59310000Y-11035000D03*
D21*
%TO.P,A3,4*%
%TO.N,N/C*%
X59310000Y-13575000D03*
%TO.P,A3,5*%
X59310000Y-16115000D03*
%TO.P,A3,6*%
X59310000Y-18655000D03*
%TO.P,A3,7*%
X59310000Y-21195000D03*
D22*
%TO.P,A3,8*%
%TO.N,GND2*%
X59310000Y-23735000D03*
D21*
%TO.P,A3,9*%
%TO.N,N/C*%
X59310000Y-26275000D03*
%TO.P,A3,10*%
X59310000Y-28815000D03*
%TO.P,A3,11*%
X59310000Y-31355000D03*
%TO.P,A3,12*%
%TO.N,OPTO_VO*%
X59310000Y-33895000D03*
D22*
%TO.P,A3,13*%
%TO.N,GND2*%
X59310000Y-36435000D03*
D21*
%TO.P,A3,14*%
%TO.N,N/C*%
X59310000Y-38975000D03*
%TO.P,A3,15*%
X59310000Y-41515000D03*
%TO.P,A3,16*%
X59310000Y-44055000D03*
%TO.P,A3,17*%
X59310000Y-46595000D03*
D22*
%TO.P,A3,18*%
%TO.N,GND2*%
X59310000Y-49135000D03*
D21*
%TO.P,A3,19*%
%TO.N,N/C*%
X59310000Y-51675000D03*
%TO.P,A3,20*%
X59310000Y-54215000D03*
%TO.P,A3,21*%
X78690000Y-54215000D03*
%TO.P,A3,22*%
X78690000Y-51675000D03*
D20*
%TO.P,A3,23*%
%TO.N,GND2*%
X78690000Y-49135000D03*
D21*
%TO.P,A3,24*%
%TO.N,N/C*%
X78690000Y-46595000D03*
%TO.P,A3,25*%
X78690000Y-44055000D03*
%TO.P,A3,26*%
X78690000Y-41515000D03*
%TO.P,A3,27*%
X78690000Y-38975000D03*
D20*
%TO.P,A3,28*%
%TO.N,GND2*%
X78690000Y-36435000D03*
D21*
%TO.P,A3,29*%
%TO.N,N/C*%
X78690000Y-33895000D03*
%TO.P,A3,30*%
X78690000Y-31355000D03*
%TO.P,A3,31*%
X78690000Y-28815000D03*
%TO.P,A3,32*%
X78690000Y-26275000D03*
D20*
%TO.P,A3,33*%
%TO.N,GND2*%
X78690000Y-23735000D03*
D21*
%TO.P,A3,34*%
%TO.N,N/C*%
X78690000Y-21195000D03*
%TO.P,A3,35*%
X78690000Y-18655000D03*
%TO.P,A3,36*%
%TO.N,FWD_3V3*%
X78690000Y-16115000D03*
%TO.P,A3,37*%
%TO.N,N/C*%
X78690000Y-13575000D03*
D20*
%TO.P,A3,38*%
%TO.N,GND2*%
X78690000Y-11035000D03*
D21*
%TO.P,A3,39*%
%TO.N,N/C*%
X78690000Y-8495000D03*
%TO.P,A3,40*%
%TO.N,VBUS2*%
X78690000Y-5955000D03*
D23*
%TO.P,A3,D1*%
%TO.N,N/C*%
X66460000Y-54785000D03*
D24*
%TO.P,A3,D2*%
X69000000Y-53985000D03*
D23*
%TO.P,A3,D3*%
X71540000Y-54785000D03*
D25*
%TO.P,A3,TP1*%
X69000000Y-9085000D03*
%TO.P,A3,TP2*%
X70000000Y-5785000D03*
%TO.P,A3,TP3*%
X68000000Y-5785000D03*
%TO.P,A3,TP4*%
X66500000Y-12585000D03*
%TO.P,A3,TP5*%
X66500000Y-15085000D03*
%TO.P,A3,TP6*%
X66500000Y-17585000D03*
%TD*%
D14*
%TO.P,R4,1*%
%TO.N,CC2*%
X15087500Y-33500000D03*
%TO.P,R4,2*%
%TO.N,VBUS1*%
X16912500Y-33500000D03*
%TD*%
D26*
%TO.P,U2,1*%
%TO.N,USB_DP*%
X14862500Y-26550000D03*
%TO.P,U2,2*%
%TO.N,GND1*%
X14862500Y-27500000D03*
%TO.P,U2,3*%
%TO.N,USB_DM*%
X14862500Y-28450000D03*
%TO.P,U2,4*%
X17137500Y-28450000D03*
%TO.P,U2,5*%
%TO.N,VBUS1*%
X17137500Y-27500000D03*
%TO.P,U2,6*%
%TO.N,USB_DP*%
X17137500Y-26550000D03*
%TD*%
D18*
%TO.P,A1,*%
%TO.N,*%
X29275000Y-6085000D03*
D19*
X29575000Y-9115000D03*
X34425000Y-9115000D03*
D18*
X34725000Y-6085000D03*
D20*
%TO.P,A1,1*%
%TO.N,SER_A0_B1*%
X22310000Y-5955000D03*
D21*
%TO.P,A1,2*%
%TO.N,SER_A1_B0*%
X22310000Y-8495000D03*
D22*
%TO.P,A1,3*%
%TO.N,GND1*%
X22310000Y-11035000D03*
D21*
%TO.P,A1,4*%
%TO.N,SER_A2_B3*%
X22310000Y-13575000D03*
%TO.P,A1,5*%
%TO.N,SER_A3_B2*%
X22310000Y-16115000D03*
%TO.P,A1,6*%
%TO.N,N/C*%
X22310000Y-18655000D03*
%TO.P,A1,7*%
X22310000Y-21195000D03*
D22*
%TO.P,A1,8*%
%TO.N,GND1*%
X22310000Y-23735000D03*
D21*
%TO.P,A1,9*%
%TO.N,N/C*%
X22310000Y-26275000D03*
%TO.P,A1,10*%
X22310000Y-28815000D03*
%TO.P,A1,11*%
X22310000Y-31355000D03*
%TO.P,A1,12*%
X22310000Y-33895000D03*
D22*
%TO.P,A1,13*%
%TO.N,GND1*%
X22310000Y-36435000D03*
D21*
%TO.P,A1,14*%
%TO.N,N/C*%
X22310000Y-38975000D03*
%TO.P,A1,15*%
X22310000Y-41515000D03*
%TO.P,A1,16*%
X22310000Y-44055000D03*
%TO.P,A1,17*%
X22310000Y-46595000D03*
D22*
%TO.P,A1,18*%
%TO.N,GND1*%
X22310000Y-49135000D03*
D21*
%TO.P,A1,19*%
%TO.N,N/C*%
X22310000Y-51675000D03*
%TO.P,A1,20*%
X22310000Y-54215000D03*
%TO.P,A1,21*%
X41690000Y-54215000D03*
%TO.P,A1,22*%
X41690000Y-51675000D03*
D20*
%TO.P,A1,23*%
%TO.N,GND1*%
X41690000Y-49135000D03*
D21*
%TO.P,A1,24*%
%TO.N,N/C*%
X41690000Y-46595000D03*
%TO.P,A1,25*%
X41690000Y-44055000D03*
%TO.P,A1,26*%
%TO.N,OPTO_CATH*%
X41690000Y-41515000D03*
%TO.P,A1,27*%
%TO.N,N/C*%
X41690000Y-38975000D03*
D20*
%TO.P,A1,28*%
%TO.N,GND1*%
X41690000Y-36435000D03*
D21*
%TO.P,A1,29*%
%TO.N,N/C*%
X41690000Y-33895000D03*
%TO.P,A1,30*%
X41690000Y-31355000D03*
%TO.P,A1,31*%
X41690000Y-28815000D03*
%TO.P,A1,32*%
X41690000Y-26275000D03*
D20*
%TO.P,A1,33*%
%TO.N,GND1*%
X41690000Y-23735000D03*
D21*
%TO.P,A1,34*%
%TO.N,N/C*%
X41690000Y-21195000D03*
%TO.P,A1,35*%
X41690000Y-18655000D03*
%TO.P,A1,36*%
%TO.N,OPTO_3V3*%
X41690000Y-16115000D03*
%TO.P,A1,37*%
%TO.N,N/C*%
X41690000Y-13575000D03*
D20*
%TO.P,A1,38*%
%TO.N,GND1*%
X41690000Y-11035000D03*
D21*
%TO.P,A1,39*%
%TO.N,N/C*%
X41690000Y-8495000D03*
%TO.P,A1,40*%
%TO.N,VBUS1*%
X41690000Y-5955000D03*
D23*
%TO.P,A1,D1*%
%TO.N,N/C*%
X29460000Y-54785000D03*
D24*
%TO.P,A1,D2*%
X32000000Y-53985000D03*
D23*
%TO.P,A1,D3*%
X34540000Y-54785000D03*
D25*
%TO.P,A1,TP1*%
X32000000Y-9085000D03*
%TO.P,A1,TP2*%
X33000000Y-5785000D03*
%TO.P,A1,TP3*%
X31000000Y-5785000D03*
%TO.P,A1,TP4*%
X29500000Y-12585000D03*
%TO.P,A1,TP5*%
X29500000Y-15085000D03*
%TO.P,A1,TP6*%
X29500000Y-17585000D03*
%TD*%
D27*
%TO.P,U1,1*%
%TO.N,N/C*%
X48525000Y-24095000D03*
%TO.P,U1,2*%
%TO.N,OPTO_ANODE*%
X48525000Y-25365000D03*
%TO.P,U1,3*%
%TO.N,OPTO_CATH*%
X48525000Y-26635000D03*
%TO.P,U1,4*%
%TO.N,N/C*%
X48525000Y-27905000D03*
%TO.P,U1,5*%
%TO.N,GND2*%
X53475000Y-27905000D03*
%TO.P,U1,6*%
%TO.N,OPTO_VO*%
X53475000Y-26635000D03*
%TO.P,U1,7*%
%TO.N,N/C*%
X53475000Y-25365000D03*
%TO.P,U1,8*%
%TO.N,VBUS2*%
X53475000Y-24095000D03*
%TD*%
D14*
%TO.P,R3,1*%
%TO.N,CC1*%
X15087500Y-31000000D03*
%TO.P,R3,2*%
%TO.N,VBUS1*%
X16912500Y-31000000D03*
%TD*%
D28*
%TO.N,GND1*%
X21561200Y-35216400D03*
X20850400Y-24814800D03*
X43450100Y-12795100D03*
%TO.N,VBUS1*%
X18862900Y-12240600D03*
%TO.N,USB_DP*%
X9416600Y-41015800D03*
X26515400Y-14721100D03*
X15928000Y-26550000D03*
%TO.N,USB_DM*%
X20045900Y-13540600D03*
%TO.N,SER_A0_B1*%
X40959000Y-7241600D03*
%TO.N,SER_A1_B0*%
X25519600Y-8768900D03*
%TO.N,SER_A2_B3*%
X37891400Y-14346300D03*
%TO.N,SER_A3_B2*%
X27603600Y-16115000D03*
%TD*%
%TO.N,GND1*%
D29*
X41690000Y-49135000D02*
X22310000Y-49135000D01*
X14765000Y-11035000D02*
X13160000Y-9430000D01*
X10934200Y-37363300D02*
X10547500Y-37750000D01*
X10934200Y-36680000D02*
X10934200Y-37363300D01*
X41690000Y-36435000D02*
X22310000Y-36435000D01*
X21930200Y-23735000D02*
X20850400Y-24814800D01*
X9632500Y-45320000D02*
X10343400Y-45320000D01*
X41690000Y-11035000D02*
X43450100Y-12795100D01*
X22310000Y-23735000D02*
X21930200Y-23735000D01*
X13770000Y-22570000D02*
X16840000Y-19500000D01*
X5452500Y-45320000D02*
X9632500Y-45320000D01*
X41690000Y-23735000D02*
X22310000Y-23735000D01*
X14862500Y-27500000D02*
X14555200Y-27500000D01*
X10547500Y-45115900D02*
X10547500Y-44250000D01*
X22310000Y-35965200D02*
X21561200Y-35216400D01*
X10343400Y-45320000D02*
X10547500Y-45115900D01*
X14749200Y-49135000D02*
X10934200Y-45320000D01*
X9632500Y-36680000D02*
X10934200Y-36680000D01*
X13160000Y-22570000D02*
X13770000Y-22570000D01*
X13160000Y-26104800D02*
X13160000Y-22570000D01*
X22310000Y-11035000D02*
X14765000Y-11035000D01*
X22310000Y-49135000D02*
X14749200Y-49135000D01*
X10343400Y-45320000D02*
X10934200Y-45320000D01*
X22310000Y-36435000D02*
X22310000Y-35965200D01*
X14555200Y-27500000D02*
X13160000Y-26104800D01*
%TO.N,VBUS1*%
X38414700Y-14547400D02*
X38414700Y-14118700D01*
X18862900Y-12240600D02*
X25362900Y-12240600D01*
X18057900Y-28852400D02*
X16912500Y-29997800D01*
X25362900Y-12240600D02*
X26022800Y-11580700D01*
X11144600Y-43450000D02*
X16912500Y-37682100D01*
X43564400Y-7829400D02*
X41690000Y-5955000D01*
X21291600Y-22466500D02*
X30495600Y-22466500D01*
X17137500Y-27500000D02*
X18057900Y-27500000D01*
X40146600Y-9943100D02*
X42559100Y-9943100D01*
X19554200Y-24203900D02*
X21291600Y-22466500D01*
X17099400Y-12240600D02*
X16840000Y-12500000D01*
X19554200Y-26003700D02*
X19554200Y-24203900D01*
X16912500Y-37682100D02*
X16912500Y-33500000D01*
X11852000Y-32791700D02*
X11852000Y-37773100D01*
X43564400Y-8937800D02*
X43564400Y-7829400D01*
X14645900Y-29997800D02*
X11852000Y-32791700D01*
X37192900Y-12896800D02*
X40146600Y-9943100D01*
X11852000Y-37773100D02*
X11075100Y-38550000D01*
X35876700Y-11580700D02*
X37192900Y-12896800D01*
X10547500Y-43450000D02*
X11144600Y-43450000D01*
X42559100Y-9943100D02*
X43564400Y-8937800D01*
X18057900Y-27500000D02*
X18057900Y-28852400D01*
X16912500Y-29997800D02*
X14645900Y-29997800D01*
X16912500Y-31000000D02*
X16912500Y-33500000D01*
X30495600Y-22466500D02*
X38414700Y-14547400D01*
X38414700Y-14118700D02*
X37192900Y-12896800D01*
X18862900Y-12240600D02*
X17099400Y-12240600D01*
X16912500Y-29997800D02*
X16912500Y-31000000D01*
X18057900Y-27500000D02*
X19554200Y-26003700D01*
X26022800Y-11580700D02*
X35876700Y-11580700D01*
X11075100Y-38550000D02*
X10547500Y-38550000D01*
%TO.N,CC1*%
X13779100Y-32308400D02*
X15087500Y-31000000D01*
X10547500Y-39750000D02*
X11291000Y-39750000D01*
X13779100Y-37261900D02*
X13779100Y-32308400D01*
X11291000Y-39750000D02*
X13779100Y-37261900D01*
%TO.N,USB_DP*%
X9860000Y-41749900D02*
X9570500Y-41460400D01*
X18597600Y-17285700D02*
X18311900Y-17000000D01*
X21162200Y-14721100D02*
X18597600Y-17285700D01*
X9570500Y-41460400D02*
X9570500Y-41015800D01*
X18597600Y-25089900D02*
X18597600Y-17285700D01*
X10547500Y-41749900D02*
X9860000Y-41749900D01*
X10547500Y-41750000D02*
X10547500Y-41749900D01*
X10547500Y-40750100D02*
X9836200Y-40750100D01*
X14862500Y-26550000D02*
X15928000Y-26550000D01*
X26515400Y-14721100D02*
X21162200Y-14721100D01*
X9836200Y-40750100D02*
X9570500Y-41015800D01*
X17137500Y-26550000D02*
X18597600Y-25089900D01*
X18311900Y-17000000D02*
X16840000Y-17000000D01*
X17137500Y-26550000D02*
X15928000Y-26550000D01*
X9570500Y-41015800D02*
X9416600Y-41015800D01*
X10547500Y-40750000D02*
X10547500Y-40750100D01*
%TO.N,USB_DM*%
X11528900Y-40489800D02*
X11528900Y-40975500D01*
X10547500Y-40250000D02*
X11289100Y-40250000D01*
X8229900Y-38622700D02*
X9857200Y-40250000D01*
X20045900Y-13540600D02*
X18299400Y-13540600D01*
X14502200Y-28450000D02*
X14862500Y-28450000D01*
X17137500Y-28450000D02*
X14862500Y-28450000D01*
X11289100Y-40250000D02*
X11528900Y-40489800D01*
X11528900Y-40975500D02*
X11254400Y-41250000D01*
X14502200Y-28450000D02*
X8229900Y-34722300D01*
X11374000Y-25321800D02*
X14502200Y-28450000D01*
X11254400Y-41250000D02*
X10547500Y-41250000D01*
X8229900Y-34722300D02*
X8229900Y-38622700D01*
X18299400Y-13540600D02*
X16840000Y-15000000D01*
X16480400Y-15000000D02*
X11374000Y-20106400D01*
X11374000Y-20106400D02*
X11374000Y-25321800D01*
X16840000Y-15000000D02*
X16480400Y-15000000D01*
X9857200Y-40250000D02*
X10547500Y-40250000D01*
%TO.N,CC2*%
X11314000Y-42750000D02*
X15087500Y-38976500D01*
X15087500Y-38976500D02*
X15087500Y-33500000D01*
X10547500Y-42750000D02*
X11314000Y-42750000D01*
%TO.N,FWD_3V3*%
X74880000Y-19925000D02*
X57162500Y-19925000D01*
X57162500Y-19925000D02*
X55087500Y-22000000D01*
X78690000Y-16115000D02*
X74880000Y-19925000D01*
%TO.N,OPTO_VO*%
X56912500Y-23515200D02*
X53792700Y-26635000D01*
X53792700Y-26635000D02*
X54745300Y-27587600D01*
X54745300Y-29330300D02*
X59310000Y-33895000D01*
X54745300Y-27587600D02*
X54745300Y-29330300D01*
X56912500Y-22000000D02*
X56912500Y-23515200D01*
X53475000Y-26635000D02*
X53792700Y-26635000D01*
%TO.N,VBUS2*%
X77647000Y-9766500D02*
X79732700Y-9766500D01*
X63402400Y-8077200D02*
X76802400Y-8077200D01*
X76802400Y-7842600D02*
X76802400Y-8077200D01*
X80918900Y-10952700D02*
X80918900Y-49238800D01*
X78690000Y-5955000D02*
X76802400Y-7842600D01*
X58254000Y-9764600D02*
X61715000Y-9764600D01*
X79732700Y-9766500D02*
X80918900Y-10952700D01*
X76802400Y-8921900D02*
X77647000Y-9766500D01*
X80918900Y-49238800D02*
X79937300Y-50220400D01*
X79937300Y-50220400D02*
X58090300Y-50220400D01*
X53475000Y-14543600D02*
X58254000Y-9764600D01*
X61715000Y-9764600D02*
X63402400Y-8077200D01*
X54050000Y-46180100D02*
X54050000Y-40000000D01*
X58090300Y-50220400D02*
X54050000Y-46180100D01*
X76802400Y-8077200D02*
X76802400Y-8921900D01*
X53475000Y-24095000D02*
X53475000Y-14543600D01*
%TO.N,GND2*%
X80562400Y-21862600D02*
X78690000Y-23735000D01*
X55950000Y-39795000D02*
X55950000Y-40000000D01*
X68766000Y-23735000D02*
X59310000Y-23735000D01*
X78690000Y-23735000D02*
X68766000Y-23735000D01*
X68766000Y-36435000D02*
X59310000Y-36435000D01*
X78690000Y-49135000D02*
X59310000Y-49135000D01*
X78690000Y-36435000D02*
X68766000Y-36435000D01*
X53475000Y-30600000D02*
X59310000Y-36435000D01*
X78690000Y-11035000D02*
X59310000Y-11035000D01*
X55950000Y-45775000D02*
X55950000Y-40000000D01*
X59310000Y-36435000D02*
X55950000Y-39795000D01*
X78690000Y-11035000D02*
X80560900Y-12905900D01*
X80560900Y-19993300D02*
X80562400Y-19994800D01*
X59310000Y-49135000D02*
X55950000Y-45775000D01*
X80562400Y-19994800D02*
X80562400Y-21862600D01*
X68766000Y-23735000D02*
X68766000Y-36435000D01*
X80560900Y-12905900D02*
X80560900Y-19993300D01*
X53475000Y-27905000D02*
X53475000Y-30600000D01*
%TO.N,OPTO_3V3*%
X45087500Y-19512500D02*
X45087500Y-22000000D01*
X41690000Y-16115000D02*
X45087500Y-19512500D01*
%TO.N,OPTO_ANODE*%
X48525000Y-25365000D02*
X48198500Y-25365000D01*
X46912500Y-24079000D02*
X46912500Y-22000000D01*
X48198500Y-25365000D02*
X46912500Y-24079000D01*
%TO.N,SER_A0_B1*%
X22310000Y-5955000D02*
X23596600Y-7241600D01*
X23596600Y-7241600D02*
X40959000Y-7241600D01*
%TO.N,SER_A1_B0*%
X25519600Y-8768900D02*
X22583900Y-8768900D01*
X22583900Y-8768900D02*
X22310000Y-8495000D01*
%TO.N,SER_A2_B3*%
X37380100Y-13835000D02*
X37891400Y-14346300D01*
X22570000Y-13835000D02*
X37380100Y-13835000D01*
X22310000Y-13575000D02*
X22570000Y-13835000D01*
%TO.N,SER_A3_B2*%
X27603600Y-16115000D02*
X22310000Y-16115000D01*
%TO.N,OPTO_CATH*%
X48525000Y-26635000D02*
X48215200Y-26635000D01*
X48215200Y-26635000D02*
X44458900Y-30391300D01*
X44458900Y-38746100D02*
X41690000Y-41515000D01*
X44458900Y-30391300D02*
X44458900Y-38746100D01*
%TD*%
D30*
X21561200Y-35216400D03*
X20850400Y-24814800D03*
X43450100Y-12795100D03*
X18862900Y-12240600D03*
X9416600Y-41015800D03*
X26515400Y-14721100D03*
X15928000Y-26550000D03*
X20045900Y-13540600D03*
X40959000Y-7241600D03*
X25519600Y-8768900D03*
X37891400Y-14346300D03*
X27603600Y-16115000D03*
D31*
X9102500Y-38110000D03*
X9102500Y-43890000D03*
D32*
X9632500Y-36680000D03*
D33*
X5452500Y-36680000D03*
D32*
X9632500Y-45320000D03*
D33*
X5452500Y-45320000D03*
D31*
X13160000Y-9430000D03*
X13160000Y-22570000D03*
M02*
