%TF.GenerationSoftware,KiCad,Pcbnew,10.0.3*%
%TF.CreationDate,2026-06-14T14:22:47+10:00*%
%TF.ProjectId,screen-hopper-header,73637265-656e-42d6-986f-707065722d68,rev?*%
%TF.SameCoordinates,Original*%
%TF.FileFunction,Legend,Bot*%
%TF.FilePolarity,Positive*%
%FSLAX46Y46*%
G04 Gerber Fmt 4.6, Leading zero omitted, Abs format (unit mm)*
G04 Created by KiCad (PCBNEW 10.0.3) date 2026-06-14 14:22:47*
%MOMM*%
%LPD*%
G01*
G04 APERTURE LIST*
%ADD10C,0.105000*%
%ADD11C,0.180000*%
%ADD12C,0.150000*%
%ADD13C,0.120000*%
G04 APERTURE END LIST*
D10*
X14269998Y-14318373D02*
X14669998Y-14318373D01*
X14469998Y-14318373D02*
X14469998Y-13618373D01*
X14469998Y-13618373D02*
X14536665Y-13718373D01*
X14536665Y-13718373D02*
X14603332Y-13785040D01*
X14603332Y-13785040D02*
X14669998Y-13818373D01*
X14669999Y-31631706D02*
X14669999Y-32098373D01*
X14836666Y-31365040D02*
X15003332Y-31865040D01*
X15003332Y-31865040D02*
X14569999Y-31865040D01*
X14169999Y-31398373D02*
X14103332Y-31398373D01*
X14103332Y-31398373D02*
X14036665Y-31431706D01*
X14036665Y-31431706D02*
X14003332Y-31465040D01*
X14003332Y-31465040D02*
X13969999Y-31531706D01*
X13969999Y-31531706D02*
X13936665Y-31665040D01*
X13936665Y-31665040D02*
X13936665Y-31831706D01*
X13936665Y-31831706D02*
X13969999Y-31965040D01*
X13969999Y-31965040D02*
X14003332Y-32031706D01*
X14003332Y-32031706D02*
X14036665Y-32065040D01*
X14036665Y-32065040D02*
X14103332Y-32098373D01*
X14103332Y-32098373D02*
X14169999Y-32098373D01*
X14169999Y-32098373D02*
X14236665Y-32065040D01*
X14236665Y-32065040D02*
X14269999Y-32031706D01*
X14269999Y-32031706D02*
X14303332Y-31965040D01*
X14303332Y-31965040D02*
X14336665Y-31831706D01*
X14336665Y-31831706D02*
X14336665Y-31665040D01*
X14336665Y-31665040D02*
X14303332Y-31531706D01*
X14303332Y-31531706D02*
X14269999Y-31465040D01*
X14269999Y-31465040D02*
X14236665Y-31431706D01*
X14236665Y-31431706D02*
X14169999Y-31398373D01*
X66063333Y-13685040D02*
X66030000Y-13651706D01*
X66030000Y-13651706D02*
X65963333Y-13618373D01*
X65963333Y-13618373D02*
X65796667Y-13618373D01*
X65796667Y-13618373D02*
X65730000Y-13651706D01*
X65730000Y-13651706D02*
X65696667Y-13685040D01*
X65696667Y-13685040D02*
X65663333Y-13751706D01*
X65663333Y-13751706D02*
X65663333Y-13818373D01*
X65663333Y-13818373D02*
X65696667Y-13918373D01*
X65696667Y-13918373D02*
X66096667Y-14318373D01*
X66096667Y-14318373D02*
X65663333Y-14318373D01*
X65230000Y-13618373D02*
X65163333Y-13618373D01*
X65163333Y-13618373D02*
X65096666Y-13651706D01*
X65096666Y-13651706D02*
X65063333Y-13685040D01*
X65063333Y-13685040D02*
X65030000Y-13751706D01*
X65030000Y-13751706D02*
X64996666Y-13885040D01*
X64996666Y-13885040D02*
X64996666Y-14051706D01*
X64996666Y-14051706D02*
X65030000Y-14185040D01*
X65030000Y-14185040D02*
X65063333Y-14251706D01*
X65063333Y-14251706D02*
X65096666Y-14285040D01*
X65096666Y-14285040D02*
X65163333Y-14318373D01*
X65163333Y-14318373D02*
X65230000Y-14318373D01*
X65230000Y-14318373D02*
X65296666Y-14285040D01*
X65296666Y-14285040D02*
X65330000Y-14251706D01*
X65330000Y-14251706D02*
X65363333Y-14185040D01*
X65363333Y-14185040D02*
X65396666Y-14051706D01*
X65396666Y-14051706D02*
X65396666Y-13885040D01*
X65396666Y-13885040D02*
X65363333Y-13751706D01*
X65363333Y-13751706D02*
X65330000Y-13685040D01*
X65330000Y-13685040D02*
X65296666Y-13651706D01*
X65296666Y-13651706D02*
X65230000Y-13618373D01*
X66063333Y-31465040D02*
X66030000Y-31431706D01*
X66030000Y-31431706D02*
X65963333Y-31398373D01*
X65963333Y-31398373D02*
X65796667Y-31398373D01*
X65796667Y-31398373D02*
X65730000Y-31431706D01*
X65730000Y-31431706D02*
X65696667Y-31465040D01*
X65696667Y-31465040D02*
X65663333Y-31531706D01*
X65663333Y-31531706D02*
X65663333Y-31598373D01*
X65663333Y-31598373D02*
X65696667Y-31698373D01*
X65696667Y-31698373D02*
X66096667Y-32098373D01*
X66096667Y-32098373D02*
X65663333Y-32098373D01*
X64996666Y-32098373D02*
X65396666Y-32098373D01*
X65196666Y-32098373D02*
X65196666Y-31398373D01*
X65196666Y-31398373D02*
X65263333Y-31498373D01*
X65263333Y-31498373D02*
X65330000Y-31565040D01*
X65330000Y-31565040D02*
X65396666Y-31598373D01*
D11*
X46057142Y-4155782D02*
X46057142Y-2955782D01*
X46057142Y-2955782D02*
X45599999Y-2955782D01*
X45599999Y-2955782D02*
X45485714Y-3012925D01*
X45485714Y-3012925D02*
X45428571Y-3070068D01*
X45428571Y-3070068D02*
X45371428Y-3184354D01*
X45371428Y-3184354D02*
X45371428Y-3355782D01*
X45371428Y-3355782D02*
X45428571Y-3470068D01*
X45428571Y-3470068D02*
X45485714Y-3527211D01*
X45485714Y-3527211D02*
X45599999Y-3584354D01*
X45599999Y-3584354D02*
X46057142Y-3584354D01*
X44857142Y-4155782D02*
X44857142Y-3355782D01*
X44857142Y-2955782D02*
X44914285Y-3012925D01*
X44914285Y-3012925D02*
X44857142Y-3070068D01*
X44857142Y-3070068D02*
X44799999Y-3012925D01*
X44799999Y-3012925D02*
X44857142Y-2955782D01*
X44857142Y-2955782D02*
X44857142Y-3070068D01*
X43771428Y-4098640D02*
X43885713Y-4155782D01*
X43885713Y-4155782D02*
X44114285Y-4155782D01*
X44114285Y-4155782D02*
X44228570Y-4098640D01*
X44228570Y-4098640D02*
X44285713Y-4041497D01*
X44285713Y-4041497D02*
X44342856Y-3927211D01*
X44342856Y-3927211D02*
X44342856Y-3584354D01*
X44342856Y-3584354D02*
X44285713Y-3470068D01*
X44285713Y-3470068D02*
X44228570Y-3412925D01*
X44228570Y-3412925D02*
X44114285Y-3355782D01*
X44114285Y-3355782D02*
X43885713Y-3355782D01*
X43885713Y-3355782D02*
X43771428Y-3412925D01*
X43085714Y-4155782D02*
X43199999Y-4098640D01*
X43199999Y-4098640D02*
X43257142Y-4041497D01*
X43257142Y-4041497D02*
X43314285Y-3927211D01*
X43314285Y-3927211D02*
X43314285Y-3584354D01*
X43314285Y-3584354D02*
X43257142Y-3470068D01*
X43257142Y-3470068D02*
X43199999Y-3412925D01*
X43199999Y-3412925D02*
X43085714Y-3355782D01*
X43085714Y-3355782D02*
X42914285Y-3355782D01*
X42914285Y-3355782D02*
X42799999Y-3412925D01*
X42799999Y-3412925D02*
X42742857Y-3470068D01*
X42742857Y-3470068D02*
X42685714Y-3584354D01*
X42685714Y-3584354D02*
X42685714Y-3927211D01*
X42685714Y-3927211D02*
X42742857Y-4041497D01*
X42742857Y-4041497D02*
X42799999Y-4098640D01*
X42799999Y-4098640D02*
X42914285Y-4155782D01*
X42914285Y-4155782D02*
X43085714Y-4155782D01*
X40857142Y-3527211D02*
X40685714Y-3584354D01*
X40685714Y-3584354D02*
X40628571Y-3641497D01*
X40628571Y-3641497D02*
X40571428Y-3755782D01*
X40571428Y-3755782D02*
X40571428Y-3927211D01*
X40571428Y-3927211D02*
X40628571Y-4041497D01*
X40628571Y-4041497D02*
X40685714Y-4098640D01*
X40685714Y-4098640D02*
X40799999Y-4155782D01*
X40799999Y-4155782D02*
X41257142Y-4155782D01*
X41257142Y-4155782D02*
X41257142Y-2955782D01*
X41257142Y-2955782D02*
X40857142Y-2955782D01*
X40857142Y-2955782D02*
X40742857Y-3012925D01*
X40742857Y-3012925D02*
X40685714Y-3070068D01*
X40685714Y-3070068D02*
X40628571Y-3184354D01*
X40628571Y-3184354D02*
X40628571Y-3298640D01*
X40628571Y-3298640D02*
X40685714Y-3412925D01*
X40685714Y-3412925D02*
X40742857Y-3470068D01*
X40742857Y-3470068D02*
X40857142Y-3527211D01*
X40857142Y-3527211D02*
X41257142Y-3527211D01*
X38799999Y-4612925D02*
X38857142Y-4555782D01*
X38857142Y-4555782D02*
X38971428Y-4384354D01*
X38971428Y-4384354D02*
X39028571Y-4270068D01*
X39028571Y-4270068D02*
X39085713Y-4098640D01*
X39085713Y-4098640D02*
X39142856Y-3812925D01*
X39142856Y-3812925D02*
X39142856Y-3584354D01*
X39142856Y-3584354D02*
X39085713Y-3298640D01*
X39085713Y-3298640D02*
X39028571Y-3127211D01*
X39028571Y-3127211D02*
X38971428Y-3012925D01*
X38971428Y-3012925D02*
X38857142Y-2841497D01*
X38857142Y-2841497D02*
X38799999Y-2784354D01*
X38342856Y-4155782D02*
X38342856Y-2955782D01*
X38342856Y-3412925D02*
X38228571Y-3355782D01*
X38228571Y-3355782D02*
X37999999Y-3355782D01*
X37999999Y-3355782D02*
X37885713Y-3412925D01*
X37885713Y-3412925D02*
X37828571Y-3470068D01*
X37828571Y-3470068D02*
X37771428Y-3584354D01*
X37771428Y-3584354D02*
X37771428Y-3927211D01*
X37771428Y-3927211D02*
X37828571Y-4041497D01*
X37828571Y-4041497D02*
X37885713Y-4098640D01*
X37885713Y-4098640D02*
X37999999Y-4155782D01*
X37999999Y-4155782D02*
X38228571Y-4155782D01*
X38228571Y-4155782D02*
X38342856Y-4098640D01*
X36742857Y-4155782D02*
X36742857Y-3527211D01*
X36742857Y-3527211D02*
X36799999Y-3412925D01*
X36799999Y-3412925D02*
X36914285Y-3355782D01*
X36914285Y-3355782D02*
X37142857Y-3355782D01*
X37142857Y-3355782D02*
X37257142Y-3412925D01*
X36742857Y-4098640D02*
X36857142Y-4155782D01*
X36857142Y-4155782D02*
X37142857Y-4155782D01*
X37142857Y-4155782D02*
X37257142Y-4098640D01*
X37257142Y-4098640D02*
X37314285Y-3984354D01*
X37314285Y-3984354D02*
X37314285Y-3870068D01*
X37314285Y-3870068D02*
X37257142Y-3755782D01*
X37257142Y-3755782D02*
X37142857Y-3698640D01*
X37142857Y-3698640D02*
X36857142Y-3698640D01*
X36857142Y-3698640D02*
X36742857Y-3641497D01*
X35657143Y-4098640D02*
X35771428Y-4155782D01*
X35771428Y-4155782D02*
X36000000Y-4155782D01*
X36000000Y-4155782D02*
X36114285Y-4098640D01*
X36114285Y-4098640D02*
X36171428Y-4041497D01*
X36171428Y-4041497D02*
X36228571Y-3927211D01*
X36228571Y-3927211D02*
X36228571Y-3584354D01*
X36228571Y-3584354D02*
X36171428Y-3470068D01*
X36171428Y-3470068D02*
X36114285Y-3412925D01*
X36114285Y-3412925D02*
X36000000Y-3355782D01*
X36000000Y-3355782D02*
X35771428Y-3355782D01*
X35771428Y-3355782D02*
X35657143Y-3412925D01*
X35142857Y-4155782D02*
X35142857Y-2955782D01*
X35028572Y-3698640D02*
X34685714Y-4155782D01*
X34685714Y-3355782D02*
X35142857Y-3812925D01*
X34285714Y-4612925D02*
X34228571Y-4555782D01*
X34228571Y-4555782D02*
X34114285Y-4384354D01*
X34114285Y-4384354D02*
X34057143Y-4270068D01*
X34057143Y-4270068D02*
X34000000Y-4098640D01*
X34000000Y-4098640D02*
X33942857Y-3812925D01*
X33942857Y-3812925D02*
X33942857Y-3584354D01*
X33942857Y-3584354D02*
X34000000Y-3298640D01*
X34000000Y-3298640D02*
X34057143Y-3127211D01*
X34057143Y-3127211D02*
X34114285Y-3012925D01*
X34114285Y-3012925D02*
X34228571Y-2841497D01*
X34228571Y-2841497D02*
X34285714Y-2784354D01*
D12*
X64934104Y-34926660D02*
X64934104Y-35402850D01*
X65219819Y-34831422D02*
X64219819Y-35164755D01*
X64219819Y-35164755D02*
X65219819Y-35498088D01*
X64315057Y-35783803D02*
X64267438Y-35831422D01*
X64267438Y-35831422D02*
X64219819Y-35926660D01*
X64219819Y-35926660D02*
X64219819Y-36164755D01*
X64219819Y-36164755D02*
X64267438Y-36259993D01*
X64267438Y-36259993D02*
X64315057Y-36307612D01*
X64315057Y-36307612D02*
X64410295Y-36355231D01*
X64410295Y-36355231D02*
X64505533Y-36355231D01*
X64505533Y-36355231D02*
X64648390Y-36307612D01*
X64648390Y-36307612D02*
X65219819Y-35736184D01*
X65219819Y-35736184D02*
X65219819Y-36355231D01*
%TO.C,A2*%
D13*
X13090000Y-18780000D02*
X13090000Y-27000000D01*
X13090000Y-18780000D02*
X13910000Y-18780000D01*
X13090000Y-27000000D02*
X13910000Y-27000000D01*
X13910000Y-18780000D02*
X13910000Y-18990000D01*
X13910000Y-18990000D02*
X15306000Y-18990000D01*
X13910000Y-26790000D02*
X15306000Y-26790000D01*
X13910000Y-27000000D02*
X13910000Y-26790000D01*
X14390000Y-12890000D02*
X14390000Y-15380000D01*
X14390000Y-15380000D02*
X14390000Y-16727940D01*
X14390000Y-15380000D02*
X15303520Y-15380000D01*
X14390000Y-17652061D02*
X14390000Y-18655000D01*
X14390000Y-18655000D02*
X14390000Y-27125000D01*
X14390000Y-27125000D02*
X14390000Y-28127939D01*
X14390000Y-29052061D02*
X14390000Y-30400000D01*
X14390000Y-30400000D02*
X15303520Y-30400000D01*
X14390000Y-32890000D02*
X14390000Y-30400000D01*
X14453000Y-12620000D02*
X65547000Y-12620000D01*
X15000000Y-12280000D02*
X65000000Y-12280000D01*
X15000000Y-33500000D02*
X65000000Y-33500000D01*
X16670000Y-11960000D02*
X15070000Y-11960000D01*
X17694000Y-18990000D02*
X18910000Y-18990000D01*
X17694000Y-26790000D02*
X18910000Y-26790000D01*
X17696480Y-15380000D02*
X62303520Y-15380000D01*
X17696480Y-30400000D02*
X62303520Y-30400000D01*
X18910000Y-26790000D02*
X18910000Y-18990000D01*
X64696480Y-15380000D02*
X65610000Y-15380000D01*
X64696480Y-30400000D02*
X65610000Y-30400000D01*
X65547000Y-33160000D02*
X14453000Y-33160000D01*
X65610000Y-12890000D02*
X65610000Y-16727939D01*
X65610000Y-19290000D02*
X65610000Y-17652061D01*
X65610000Y-26490000D02*
X65610000Y-19290000D01*
X65610000Y-28127939D02*
X65610000Y-26490000D01*
X65610000Y-29052061D02*
X65610000Y-32890000D01*
X14390000Y-12890000D02*
G75*
G02*
X15000000Y-12280000I610000J0D01*
G01*
X15000000Y-33500000D02*
G75*
G02*
X14390000Y-32890000I0J610000D01*
G01*
X65000000Y-12280000D02*
G75*
G02*
X65610000Y-12890000I99J-609901D01*
G01*
X65610000Y-32890000D02*
G75*
G02*
X65000000Y-33500000I-610000J0D01*
G01*
%TD*%
M02*
