%TF.GenerationSoftware,KiCad,Pcbnew,10.0.3*%
%TF.CreationDate,2026-06-14T14:22:47+10:00*%
%TF.ProjectId,screen-hopper-header,73637265-656e-42d6-986f-707065722d68,rev?*%
%TF.SameCoordinates,Original*%
%TF.FileFunction,Copper,L2,Bot*%
%TF.FilePolarity,Positive*%
%FSLAX46Y46*%
G04 Gerber Fmt 4.6, Leading zero omitted, Abs format (unit mm)*
G04 Created by KiCad (PCBNEW 10.0.3) date 2026-06-14 14:22:47*
%MOMM*%
%LPD*%
G01*
G04 APERTURE LIST*
G04 Aperture macros list*
%AMRoundRect*
0 Rectangle with rounded corners*
0 $1 Rounding radius*
0 $2 $3 $4 $5 $6 $7 $8 $9 X,Y pos of 4 corners*
0 Add a 4 corners polygon primitive as box body*
4,1,4,$2,$3,$4,$5,$6,$7,$8,$9,$2,$3,0*
0 Add four circle primitives for the rounded corners*
1,1,$1+$1,$2,$3*
1,1,$1+$1,$4,$5*
1,1,$1+$1,$6,$7*
1,1,$1+$1,$8,$9*
0 Add four rect primitives between the rounded corners*
20,1,$1+$1,$2,$3,$4,$5,0*
20,1,$1+$1,$4,$5,$6,$7,0*
20,1,$1+$1,$6,$7,$8,$9,0*
20,1,$1+$1,$8,$9,$2,$3,0*%
%AMFreePoly0*
4,1,37,0.603843,0.796157,0.639018,0.796157,0.711114,0.766294,0.766294,0.711114,0.796157,0.639018,0.796157,0.603843,0.800000,0.600000,0.800000,-0.600000,0.796157,-0.603843,0.796157,-0.639018,0.766294,-0.711114,0.711114,-0.766294,0.639018,-0.796157,0.603843,-0.796157,0.600000,-0.800000,0.000000,-0.800000,0.000000,-0.796148,-0.078414,-0.796148,-0.232228,-0.765552,-0.377117,-0.705537,
-0.507515,-0.618408,-0.618408,-0.507515,-0.705537,-0.377117,-0.765552,-0.232228,-0.796148,-0.078414,-0.796148,0.078414,-0.765552,0.232228,-0.705537,0.377117,-0.618408,0.507515,-0.507515,0.618408,-0.377117,0.705537,-0.232228,0.765552,-0.078414,0.796148,0.000000,0.796148,0.000000,0.800000,0.600000,0.800000,0.603843,0.796157,0.603843,0.796157,$1*%
%AMFreePoly1*
4,1,37,0.000000,0.796148,0.078414,0.796148,0.232228,0.765552,0.377117,0.705537,0.507515,0.618408,0.618408,0.507515,0.705537,0.377117,0.765552,0.232228,0.796148,0.078414,0.796148,-0.078414,0.765552,-0.232228,0.705537,-0.377117,0.618408,-0.507515,0.507515,-0.618408,0.377117,-0.705537,0.232228,-0.765552,0.078414,-0.796148,0.000000,-0.796148,0.000000,-0.800000,-0.600000,-0.800000,
-0.603843,-0.796157,-0.639018,-0.796157,-0.711114,-0.766294,-0.766294,-0.711114,-0.796157,-0.639018,-0.796157,-0.603843,-0.800000,-0.600000,-0.800000,0.600000,-0.796157,0.603843,-0.796157,0.639018,-0.766294,0.711114,-0.711114,0.766294,-0.639018,0.796157,-0.603843,0.796157,-0.600000,0.800000,0.000000,0.800000,0.000000,0.796148,0.000000,0.796148,$1*%
G04 Aperture macros list end*
%TA.AperFunction,ComponentPad*%
%ADD10RoundRect,0.200000X0.600000X-0.600000X0.600000X0.600000X-0.600000X0.600000X-0.600000X-0.600000X0*%
%TD*%
%TA.AperFunction,ComponentPad*%
%ADD11C,1.600000*%
%TD*%
%TA.AperFunction,ComponentPad*%
%ADD12FreePoly0,90.000000*%
%TD*%
%TA.AperFunction,ComponentPad*%
%ADD13FreePoly1,90.000000*%
%TD*%
%TA.AperFunction,ComponentPad*%
%ADD14RoundRect,0.200000X-0.600000X0.600000X-0.600000X-0.600000X0.600000X-0.600000X0.600000X0.600000X0*%
%TD*%
%TA.AperFunction,ComponentPad*%
%ADD15FreePoly0,270.000000*%
%TD*%
%TA.AperFunction,ComponentPad*%
%ADD16FreePoly1,270.000000*%
%TD*%
%TA.AperFunction,ViaPad*%
%ADD17C,0.500000*%
%TD*%
%TA.AperFunction,Conductor*%
%ADD18C,0.200000*%
%TD*%
%TA.AperFunction,Conductor*%
%ADD19C,0.300000*%
%TD*%
G04 APERTURE END LIST*
D10*
%TO.P,A3,1*%
%TO.N,N/C*%
X15870000Y-59390000D03*
D11*
%TO.P,A3,2*%
X18410000Y-59390000D03*
D12*
%TO.P,A3,3*%
%TO.N,GND2*%
X20950000Y-59390000D03*
D11*
%TO.P,A3,4*%
%TO.N,N/C*%
X23490000Y-59390000D03*
%TO.P,A3,5*%
X26030000Y-59390000D03*
%TO.P,A3,6*%
X28570000Y-59390000D03*
%TO.P,A3,7*%
X31110000Y-59390000D03*
D12*
%TO.P,A3,8*%
%TO.N,GND2*%
X33650000Y-59390000D03*
D11*
%TO.P,A3,9*%
%TO.N,N/C*%
X36190000Y-59390000D03*
%TO.P,A3,10*%
X38730000Y-59390000D03*
%TO.P,A3,11*%
X41270000Y-59390000D03*
%TO.P,A3,12*%
%TO.N,OPTO_VO*%
X43810000Y-59390000D03*
D12*
%TO.P,A3,13*%
%TO.N,GND2*%
X46350000Y-59390000D03*
D11*
%TO.P,A3,14*%
%TO.N,N/C*%
X48890000Y-59390000D03*
%TO.P,A3,15*%
X51430000Y-59390000D03*
%TO.P,A3,16*%
X53970000Y-59390000D03*
%TO.P,A3,17*%
X56510000Y-59390000D03*
D12*
%TO.P,A3,18*%
%TO.N,GND2*%
X59050000Y-59390000D03*
D11*
%TO.P,A3,19*%
%TO.N,N/C*%
X61590000Y-59390000D03*
%TO.P,A3,20*%
X64130000Y-59390000D03*
%TO.P,A3,21*%
X64130000Y-41610000D03*
%TO.P,A3,22*%
X61590000Y-41610000D03*
D13*
%TO.P,A3,23*%
%TO.N,GND2*%
X59050000Y-41610000D03*
D11*
%TO.P,A3,24*%
%TO.N,N/C*%
X56510000Y-41610000D03*
%TO.P,A3,25*%
X53970000Y-41610000D03*
%TO.P,A3,26*%
X51430000Y-41610000D03*
%TO.P,A3,27*%
X48890000Y-41610000D03*
D13*
%TO.P,A3,28*%
%TO.N,GND2*%
X46350000Y-41610000D03*
D11*
%TO.P,A3,29*%
%TO.N,N/C*%
X43810000Y-41610000D03*
%TO.P,A3,30*%
X41270000Y-41610000D03*
%TO.P,A3,31*%
X38730000Y-41610000D03*
%TO.P,A3,32*%
X36190000Y-41610000D03*
D13*
%TO.P,A3,33*%
%TO.N,GND2*%
X33650000Y-41610000D03*
D11*
%TO.P,A3,34*%
%TO.N,N/C*%
X31110000Y-41610000D03*
%TO.P,A3,35*%
X28570000Y-41610000D03*
%TO.P,A3,36*%
%TO.N,FWD_3V3*%
X26030000Y-41610000D03*
%TO.P,A3,37*%
%TO.N,N/C*%
X23490000Y-41610000D03*
D13*
%TO.P,A3,38*%
%TO.N,GND2*%
X20950000Y-41610000D03*
D11*
%TO.P,A3,39*%
%TO.N,N/C*%
X18410000Y-41610000D03*
%TO.P,A3,40*%
%TO.N,VBUS2*%
X15870000Y-41610000D03*
%TD*%
D10*
%TO.P,A1,1*%
%TO.N,SER_A0_B1*%
X15870000Y-22890000D03*
D11*
%TO.P,A1,2*%
%TO.N,SER_A1_B0*%
X18410000Y-22890000D03*
D12*
%TO.P,A1,3*%
%TO.N,GND1*%
X20950000Y-22890000D03*
D11*
%TO.P,A1,4*%
%TO.N,SER_A2_B3*%
X23490000Y-22890000D03*
%TO.P,A1,5*%
%TO.N,SER_A3_B2*%
X26030000Y-22890000D03*
%TO.P,A1,6*%
%TO.N,N/C*%
X28570000Y-22890000D03*
%TO.P,A1,7*%
X31110000Y-22890000D03*
D12*
%TO.P,A1,8*%
%TO.N,GND1*%
X33650000Y-22890000D03*
D11*
%TO.P,A1,9*%
%TO.N,N/C*%
X36190000Y-22890000D03*
%TO.P,A1,10*%
X38730000Y-22890000D03*
%TO.P,A1,11*%
X41270000Y-22890000D03*
%TO.P,A1,12*%
X43810000Y-22890000D03*
D12*
%TO.P,A1,13*%
%TO.N,GND1*%
X46350000Y-22890000D03*
D11*
%TO.P,A1,14*%
%TO.N,N/C*%
X48890000Y-22890000D03*
%TO.P,A1,15*%
X51430000Y-22890000D03*
%TO.P,A1,16*%
X53970000Y-22890000D03*
%TO.P,A1,17*%
X56510000Y-22890000D03*
D12*
%TO.P,A1,18*%
%TO.N,GND1*%
X59050000Y-22890000D03*
D11*
%TO.P,A1,19*%
%TO.N,N/C*%
X61590000Y-22890000D03*
%TO.P,A1,20*%
X64130000Y-22890000D03*
%TO.P,A1,21*%
X64130000Y-5110000D03*
%TO.P,A1,22*%
X61590000Y-5110000D03*
D13*
%TO.P,A1,23*%
%TO.N,GND1*%
X59050000Y-5110000D03*
D11*
%TO.P,A1,24*%
%TO.N,N/C*%
X56510000Y-5110000D03*
%TO.P,A1,25*%
X53970000Y-5110000D03*
%TO.P,A1,26*%
%TO.N,OPTO_CATH*%
X51430000Y-5110000D03*
%TO.P,A1,27*%
%TO.N,N/C*%
X48890000Y-5110000D03*
D13*
%TO.P,A1,28*%
%TO.N,GND1*%
X46350000Y-5110000D03*
D11*
%TO.P,A1,29*%
%TO.N,N/C*%
X43810000Y-5110000D03*
%TO.P,A1,30*%
X41270000Y-5110000D03*
%TO.P,A1,31*%
X38730000Y-5110000D03*
%TO.P,A1,32*%
X36190000Y-5110000D03*
D13*
%TO.P,A1,33*%
%TO.N,GND1*%
X33650000Y-5110000D03*
D11*
%TO.P,A1,34*%
%TO.N,N/C*%
X31110000Y-5110000D03*
%TO.P,A1,35*%
X28570000Y-5110000D03*
%TO.P,A1,36*%
%TO.N,OPTO_3V3*%
X26030000Y-5110000D03*
%TO.P,A1,37*%
%TO.N,N/C*%
X23490000Y-5110000D03*
D13*
%TO.P,A1,38*%
%TO.N,GND1*%
X20950000Y-5110000D03*
D11*
%TO.P,A1,39*%
%TO.N,N/C*%
X18410000Y-5110000D03*
%TO.P,A1,40*%
%TO.N,VBUS1*%
X15870000Y-5110000D03*
%TD*%
D14*
%TO.P,A2,1*%
%TO.N,SER_A1_B0*%
X15870000Y-14000000D03*
D11*
%TO.P,A2,2*%
%TO.N,SER_A0_B1*%
X18410000Y-14000000D03*
D15*
%TO.P,A2,3*%
%TO.N,GND1*%
X20950000Y-14000000D03*
D11*
%TO.P,A2,4*%
%TO.N,SER_A3_B2*%
X23490000Y-14000000D03*
%TO.P,A2,5*%
%TO.N,SER_A2_B3*%
X26030000Y-14000000D03*
%TO.P,A2,6*%
%TO.N,N/C*%
X28570000Y-14000000D03*
%TO.P,A2,7*%
X31110000Y-14000000D03*
D15*
%TO.P,A2,8*%
%TO.N,GND1*%
X33650000Y-14000000D03*
D11*
%TO.P,A2,9*%
%TO.N,N/C*%
X36190000Y-14000000D03*
%TO.P,A2,10*%
X38730000Y-14000000D03*
%TO.P,A2,11*%
X41270000Y-14000000D03*
%TO.P,A2,12*%
X43810000Y-14000000D03*
D15*
%TO.P,A2,13*%
%TO.N,GND1*%
X46350000Y-14000000D03*
D11*
%TO.P,A2,14*%
%TO.N,N/C*%
X48890000Y-14000000D03*
%TO.P,A2,15*%
X51430000Y-14000000D03*
%TO.P,A2,16*%
X53970000Y-14000000D03*
%TO.P,A2,17*%
X56510000Y-14000000D03*
D15*
%TO.P,A2,18*%
%TO.N,GND1*%
X59050000Y-14000000D03*
D11*
%TO.P,A2,19*%
%TO.N,N/C*%
X61590000Y-14000000D03*
%TO.P,A2,20*%
X64130000Y-14000000D03*
%TO.P,A2,21*%
X64130000Y-31780000D03*
%TO.P,A2,22*%
X61590000Y-31780000D03*
D16*
%TO.P,A2,23*%
%TO.N,GND1*%
X59050000Y-31780000D03*
D11*
%TO.P,A2,24*%
%TO.N,N/C*%
X56510000Y-31780000D03*
%TO.P,A2,25*%
X53970000Y-31780000D03*
%TO.P,A2,26*%
X51430000Y-31780000D03*
%TO.P,A2,27*%
X48890000Y-31780000D03*
D16*
%TO.P,A2,28*%
%TO.N,GND1*%
X46350000Y-31780000D03*
D11*
%TO.P,A2,29*%
%TO.N,N/C*%
X43810000Y-31780000D03*
%TO.P,A2,30*%
X41270000Y-31780000D03*
%TO.P,A2,31*%
X38730000Y-31780000D03*
%TO.P,A2,32*%
X36190000Y-31780000D03*
D16*
%TO.P,A2,33*%
%TO.N,GND1*%
X33650000Y-31780000D03*
D11*
%TO.P,A2,34*%
%TO.N,N/C*%
X31110000Y-31780000D03*
%TO.P,A2,35*%
X28570000Y-31780000D03*
%TO.P,A2,36*%
X26030000Y-31780000D03*
%TO.P,A2,37*%
X23490000Y-31780000D03*
D16*
%TO.P,A2,38*%
%TO.N,GND1*%
X20950000Y-31780000D03*
D11*
%TO.P,A2,39*%
%TO.N,N/C*%
X18410000Y-31780000D03*
%TO.P,A2,40*%
%TO.N,VBUS1*%
X15870000Y-31780000D03*
%TD*%
D17*
%TO.N,VBUS2*%
X40061100Y-42718500D03*
%TD*%
%TO.N,GND2*%
D18*
X59050000Y-41610000D02*
X57995000Y-40555000D01*
X22005100Y-40554900D02*
X32594900Y-40554900D01*
X32534800Y-60505200D02*
X22065200Y-60505200D01*
X34701700Y-40558300D02*
X33650000Y-41610000D01*
X46350000Y-41610000D02*
X45298300Y-40558300D01*
X46350000Y-59390000D02*
X45276900Y-60463100D01*
X34723100Y-60463100D02*
X33650000Y-59390000D01*
X47405000Y-40555000D02*
X46350000Y-41610000D01*
X57995000Y-40555000D02*
X47405000Y-40555000D01*
X22065200Y-60505200D02*
X20950000Y-59390000D01*
X32594900Y-40554900D02*
X33650000Y-41610000D01*
X33650000Y-59390000D02*
X32534800Y-60505200D01*
X57976900Y-60463100D02*
X47423100Y-60463100D01*
X45276900Y-60463100D02*
X34723100Y-60463100D01*
X20950000Y-41610000D02*
X22005100Y-40554900D01*
X47423100Y-60463100D02*
X46350000Y-59390000D01*
X45298300Y-40558300D02*
X34701700Y-40558300D01*
X59050000Y-59390000D02*
X57976900Y-60463100D01*
%TO.N,VBUS2*%
X16978500Y-42718500D02*
X40061100Y-42718500D01*
X15870000Y-41610000D02*
X16978500Y-42718500D01*
%TO.N,SER_A1_B0*%
X18410000Y-22890000D02*
X18410000Y-16540000D01*
X18410000Y-16540000D02*
X15870000Y-14000000D01*
%TO.N,GND1*%
X34710000Y-32840000D02*
X33650000Y-31780000D01*
X57990000Y-32840000D02*
X47410000Y-32840000D01*
X34726400Y-21813600D02*
X33650000Y-22890000D01*
X32590300Y-32839700D02*
X22009700Y-32839700D01*
X46350000Y-22890000D02*
X45273600Y-21813600D01*
X22009700Y-32839700D02*
X20950000Y-31780000D01*
X45290000Y-32840000D02*
X34710000Y-32840000D01*
D19*
X59050000Y-14000000D02*
X59050000Y-5110000D01*
D18*
X45234700Y-3994700D02*
X34765300Y-3994700D01*
D19*
X59050000Y-22890000D02*
X59050000Y-31780000D01*
D18*
X32576900Y-4036900D02*
X22023100Y-4036900D01*
X59050000Y-31780000D02*
X57990000Y-32840000D01*
X47410000Y-32840000D02*
X46350000Y-31780000D01*
X33650000Y-5110000D02*
X32576900Y-4036900D01*
X47423100Y-4036900D02*
X46350000Y-5110000D01*
X45273600Y-21813600D02*
X34726400Y-21813600D01*
X46350000Y-31780000D02*
X45290000Y-32840000D01*
X46350000Y-5110000D02*
X45234700Y-3994700D01*
X33650000Y-31780000D02*
X32590300Y-32839700D01*
X22023100Y-4036900D02*
X20950000Y-5110000D01*
X59050000Y-5110000D02*
X57976900Y-4036900D01*
X57976900Y-4036900D02*
X47423100Y-4036900D01*
X34765300Y-3994700D02*
X33650000Y-5110000D01*
%TO.N,SER_A2_B3*%
X23490000Y-22890000D02*
X26030000Y-20350000D01*
X26030000Y-20350000D02*
X26030000Y-14000000D01*
%TD*%
%TA.AperFunction,Conductor*%
%TO.N,GND2*%
G36*
X66410754Y-38688745D02*
G01*
X66429499Y-38734000D01*
X66429499Y-61625500D01*
X66410754Y-61670755D01*
X66365499Y-61689500D01*
X13634499Y-61689500D01*
X13589244Y-61670755D01*
X13570499Y-61625500D01*
X13570499Y-58756738D01*
X14919500Y-58756738D01*
X14919500Y-60023261D01*
X14929425Y-60091387D01*
X14929428Y-60091395D01*
X14980801Y-60196481D01*
X14980801Y-60196482D01*
X14980802Y-60196483D01*
X15063517Y-60279198D01*
X15168607Y-60330573D01*
X15168610Y-60330573D01*
X15168612Y-60330574D01*
X15236739Y-60340500D01*
X15236740Y-60340500D01*
X16503261Y-60340500D01*
X16571387Y-60330574D01*
X16571387Y-60330573D01*
X16571393Y-60330573D01*
X16676483Y-60279198D01*
X16759198Y-60196483D01*
X16810573Y-60091393D01*
X16820500Y-60023260D01*
X16820500Y-59296381D01*
X17459500Y-59296381D01*
X17459500Y-59483618D01*
X17496025Y-59667243D01*
X17496028Y-59667253D01*
X17567676Y-59840228D01*
X17567677Y-59840230D01*
X17567678Y-59840231D01*
X17671698Y-59995908D01*
X17804092Y-60128302D01*
X17959769Y-60232322D01*
X18132749Y-60303973D01*
X18205599Y-60318463D01*
X18316381Y-60340500D01*
X18316384Y-60340500D01*
X18503619Y-60340500D01*
X18595851Y-60322153D01*
X18687251Y-60303973D01*
X18860231Y-60232322D01*
X19015908Y-60128302D01*
X19148302Y-59995908D01*
X19252322Y-59840231D01*
X19323973Y-59667251D01*
X19360500Y-59483616D01*
X19360500Y-59296384D01*
X19360500Y-59296381D01*
X22539500Y-59296381D01*
X22539500Y-59483618D01*
X22576025Y-59667243D01*
X22576028Y-59667253D01*
X22647676Y-59840228D01*
X22647677Y-59840230D01*
X22647678Y-59840231D01*
X22751698Y-59995908D01*
X22884092Y-60128302D01*
X23039769Y-60232322D01*
X23212749Y-60303973D01*
X23285599Y-60318463D01*
X23396381Y-60340500D01*
X23396384Y-60340500D01*
X23583619Y-60340500D01*
X23675851Y-60322153D01*
X23767251Y-60303973D01*
X23940231Y-60232322D01*
X24095908Y-60128302D01*
X24228302Y-59995908D01*
X24332322Y-59840231D01*
X24403973Y-59667251D01*
X24440500Y-59483616D01*
X24440500Y-59296384D01*
X24440500Y-59296381D01*
X25079500Y-59296381D01*
X25079500Y-59483618D01*
X25116025Y-59667243D01*
X25116028Y-59667253D01*
X25187676Y-59840228D01*
X25187677Y-59840230D01*
X25187678Y-59840231D01*
X25291698Y-59995908D01*
X25424092Y-60128302D01*
X25579769Y-60232322D01*
X25752749Y-60303973D01*
X25825599Y-60318463D01*
X25936381Y-60340500D01*
X25936384Y-60340500D01*
X26123619Y-60340500D01*
X26215851Y-60322153D01*
X26307251Y-60303973D01*
X26480231Y-60232322D01*
X26635908Y-60128302D01*
X26768302Y-59995908D01*
X26872322Y-59840231D01*
X26943973Y-59667251D01*
X26980500Y-59483616D01*
X26980500Y-59296384D01*
X26980500Y-59296381D01*
X27619500Y-59296381D01*
X27619500Y-59483618D01*
X27656025Y-59667243D01*
X27656028Y-59667253D01*
X27727676Y-59840228D01*
X27727677Y-59840230D01*
X27727678Y-59840231D01*
X27831698Y-59995908D01*
X27964092Y-60128302D01*
X28119769Y-60232322D01*
X28292749Y-60303973D01*
X28365599Y-60318463D01*
X28476381Y-60340500D01*
X28476384Y-60340500D01*
X28663619Y-60340500D01*
X28755851Y-60322153D01*
X28847251Y-60303973D01*
X29020231Y-60232322D01*
X29175908Y-60128302D01*
X29308302Y-59995908D01*
X29412322Y-59840231D01*
X29483973Y-59667251D01*
X29520500Y-59483616D01*
X29520500Y-59296384D01*
X29520500Y-59296381D01*
X30159500Y-59296381D01*
X30159500Y-59483618D01*
X30196025Y-59667243D01*
X30196028Y-59667253D01*
X30267676Y-59840228D01*
X30267677Y-59840230D01*
X30267678Y-59840231D01*
X30371698Y-59995908D01*
X30504092Y-60128302D01*
X30659769Y-60232322D01*
X30832749Y-60303973D01*
X30905599Y-60318463D01*
X31016381Y-60340500D01*
X31016384Y-60340500D01*
X31203619Y-60340500D01*
X31295851Y-60322153D01*
X31387251Y-60303973D01*
X31560231Y-60232322D01*
X31715908Y-60128302D01*
X31848302Y-59995908D01*
X31952322Y-59840231D01*
X32023973Y-59667251D01*
X32060500Y-59483616D01*
X32060500Y-59296384D01*
X32060500Y-59296381D01*
X35239500Y-59296381D01*
X35239500Y-59483618D01*
X35276025Y-59667243D01*
X35276028Y-59667253D01*
X35347676Y-59840228D01*
X35347677Y-59840230D01*
X35347678Y-59840231D01*
X35451698Y-59995908D01*
X35584092Y-60128302D01*
X35739769Y-60232322D01*
X35912749Y-60303973D01*
X35985599Y-60318463D01*
X36096381Y-60340500D01*
X36096384Y-60340500D01*
X36283619Y-60340500D01*
X36375851Y-60322153D01*
X36467251Y-60303973D01*
X36640231Y-60232322D01*
X36795908Y-60128302D01*
X36928302Y-59995908D01*
X37032322Y-59840231D01*
X37103973Y-59667251D01*
X37140500Y-59483616D01*
X37140500Y-59296384D01*
X37140500Y-59296381D01*
X37779500Y-59296381D01*
X37779500Y-59483618D01*
X37816025Y-59667243D01*
X37816028Y-59667253D01*
X37887676Y-59840228D01*
X37887677Y-59840230D01*
X37887678Y-59840231D01*
X37991698Y-59995908D01*
X38124092Y-60128302D01*
X38279769Y-60232322D01*
X38452749Y-60303973D01*
X38525599Y-60318463D01*
X38636381Y-60340500D01*
X38636384Y-60340500D01*
X38823619Y-60340500D01*
X38915851Y-60322153D01*
X39007251Y-60303973D01*
X39180231Y-60232322D01*
X39335908Y-60128302D01*
X39468302Y-59995908D01*
X39572322Y-59840231D01*
X39643973Y-59667251D01*
X39680500Y-59483616D01*
X39680500Y-59296384D01*
X39680500Y-59296381D01*
X40319500Y-59296381D01*
X40319500Y-59483618D01*
X40356025Y-59667243D01*
X40356028Y-59667253D01*
X40427676Y-59840228D01*
X40427677Y-59840230D01*
X40427678Y-59840231D01*
X40531698Y-59995908D01*
X40664092Y-60128302D01*
X40819769Y-60232322D01*
X40992749Y-60303973D01*
X41065599Y-60318463D01*
X41176381Y-60340500D01*
X41176384Y-60340500D01*
X41363619Y-60340500D01*
X41455851Y-60322153D01*
X41547251Y-60303973D01*
X41720231Y-60232322D01*
X41875908Y-60128302D01*
X42008302Y-59995908D01*
X42112322Y-59840231D01*
X42183973Y-59667251D01*
X42220500Y-59483616D01*
X42220500Y-59296384D01*
X42220500Y-59296381D01*
X42859500Y-59296381D01*
X42859500Y-59483618D01*
X42896025Y-59667243D01*
X42896028Y-59667253D01*
X42967676Y-59840228D01*
X42967677Y-59840230D01*
X42967678Y-59840231D01*
X43071698Y-59995908D01*
X43204092Y-60128302D01*
X43359769Y-60232322D01*
X43532749Y-60303973D01*
X43605599Y-60318463D01*
X43716381Y-60340500D01*
X43716384Y-60340500D01*
X43903619Y-60340500D01*
X43995851Y-60322153D01*
X44087251Y-60303973D01*
X44260231Y-60232322D01*
X44415908Y-60128302D01*
X44548302Y-59995908D01*
X44652322Y-59840231D01*
X44723973Y-59667251D01*
X44760500Y-59483616D01*
X44760500Y-59296384D01*
X44760500Y-59296381D01*
X47939500Y-59296381D01*
X47939500Y-59483618D01*
X47976025Y-59667243D01*
X47976028Y-59667253D01*
X48047676Y-59840228D01*
X48047677Y-59840230D01*
X48047678Y-59840231D01*
X48151698Y-59995908D01*
X48284092Y-60128302D01*
X48439769Y-60232322D01*
X48612749Y-60303973D01*
X48685599Y-60318463D01*
X48796381Y-60340500D01*
X48796384Y-60340500D01*
X48983619Y-60340500D01*
X49075851Y-60322153D01*
X49167251Y-60303973D01*
X49340231Y-60232322D01*
X49495908Y-60128302D01*
X49628302Y-59995908D01*
X49732322Y-59840231D01*
X49803973Y-59667251D01*
X49840500Y-59483616D01*
X49840500Y-59296384D01*
X49840500Y-59296381D01*
X50479500Y-59296381D01*
X50479500Y-59483618D01*
X50516025Y-59667243D01*
X50516028Y-59667253D01*
X50587676Y-59840228D01*
X50587677Y-59840230D01*
X50587678Y-59840231D01*
X50691698Y-59995908D01*
X50824092Y-60128302D01*
X50979769Y-60232322D01*
X51152749Y-60303973D01*
X51225599Y-60318463D01*
X51336381Y-60340500D01*
X51336384Y-60340500D01*
X51523619Y-60340500D01*
X51615851Y-60322153D01*
X51707251Y-60303973D01*
X51880231Y-60232322D01*
X52035908Y-60128302D01*
X52168302Y-59995908D01*
X52272322Y-59840231D01*
X52343973Y-59667251D01*
X52380500Y-59483616D01*
X52380500Y-59296384D01*
X52380500Y-59296381D01*
X53019500Y-59296381D01*
X53019500Y-59483618D01*
X53056025Y-59667243D01*
X53056028Y-59667253D01*
X53127676Y-59840228D01*
X53127677Y-59840230D01*
X53127678Y-59840231D01*
X53231698Y-59995908D01*
X53364092Y-60128302D01*
X53519769Y-60232322D01*
X53692749Y-60303973D01*
X53765599Y-60318463D01*
X53876381Y-60340500D01*
X53876384Y-60340500D01*
X54063619Y-60340500D01*
X54155851Y-60322153D01*
X54247251Y-60303973D01*
X54420231Y-60232322D01*
X54575908Y-60128302D01*
X54708302Y-59995908D01*
X54812322Y-59840231D01*
X54883973Y-59667251D01*
X54920500Y-59483616D01*
X54920500Y-59296384D01*
X54920500Y-59296381D01*
X55559500Y-59296381D01*
X55559500Y-59483618D01*
X55596025Y-59667243D01*
X55596028Y-59667253D01*
X55667676Y-59840228D01*
X55667677Y-59840230D01*
X55667678Y-59840231D01*
X55771698Y-59995908D01*
X55904092Y-60128302D01*
X56059769Y-60232322D01*
X56232749Y-60303973D01*
X56305599Y-60318463D01*
X56416381Y-60340500D01*
X56416384Y-60340500D01*
X56603619Y-60340500D01*
X56695851Y-60322153D01*
X56787251Y-60303973D01*
X56960231Y-60232322D01*
X57115908Y-60128302D01*
X57248302Y-59995908D01*
X57352322Y-59840231D01*
X57423973Y-59667251D01*
X57460500Y-59483616D01*
X57460500Y-59296384D01*
X57460500Y-59296381D01*
X60639500Y-59296381D01*
X60639500Y-59483618D01*
X60676025Y-59667243D01*
X60676028Y-59667253D01*
X60747676Y-59840228D01*
X60747677Y-59840230D01*
X60747678Y-59840231D01*
X60851698Y-59995908D01*
X60984092Y-60128302D01*
X61139769Y-60232322D01*
X61312749Y-60303973D01*
X61385599Y-60318463D01*
X61496381Y-60340500D01*
X61496384Y-60340500D01*
X61683619Y-60340500D01*
X61775851Y-60322153D01*
X61867251Y-60303973D01*
X62040231Y-60232322D01*
X62195908Y-60128302D01*
X62328302Y-59995908D01*
X62432322Y-59840231D01*
X62503973Y-59667251D01*
X62540500Y-59483616D01*
X62540500Y-59296384D01*
X62540500Y-59296381D01*
X63179500Y-59296381D01*
X63179500Y-59483618D01*
X63216025Y-59667243D01*
X63216028Y-59667253D01*
X63287676Y-59840228D01*
X63287677Y-59840230D01*
X63287678Y-59840231D01*
X63391698Y-59995908D01*
X63524092Y-60128302D01*
X63679769Y-60232322D01*
X63852749Y-60303973D01*
X63925599Y-60318463D01*
X64036381Y-60340500D01*
X64036384Y-60340500D01*
X64223619Y-60340500D01*
X64315851Y-60322153D01*
X64407251Y-60303973D01*
X64580231Y-60232322D01*
X64735908Y-60128302D01*
X64868302Y-59995908D01*
X64972322Y-59840231D01*
X65043973Y-59667251D01*
X65080500Y-59483616D01*
X65080500Y-59296384D01*
X65080500Y-59296381D01*
X65043974Y-59112756D01*
X65043973Y-59112749D01*
X64972322Y-58939769D01*
X64868302Y-58784092D01*
X64735908Y-58651698D01*
X64580231Y-58547678D01*
X64580230Y-58547677D01*
X64580228Y-58547676D01*
X64407253Y-58476028D01*
X64407254Y-58476028D01*
X64407251Y-58476027D01*
X64407247Y-58476026D01*
X64407243Y-58476025D01*
X64223619Y-58439500D01*
X64223616Y-58439500D01*
X64036384Y-58439500D01*
X64036381Y-58439500D01*
X63852756Y-58476025D01*
X63852746Y-58476028D01*
X63679771Y-58547676D01*
X63524090Y-58651699D01*
X63391699Y-58784090D01*
X63287676Y-58939771D01*
X63216028Y-59112746D01*
X63216025Y-59112756D01*
X63179500Y-59296381D01*
X62540500Y-59296381D01*
X62503974Y-59112756D01*
X62503973Y-59112749D01*
X62432322Y-58939769D01*
X62328302Y-58784092D01*
X62195908Y-58651698D01*
X62040231Y-58547678D01*
X62040230Y-58547677D01*
X62040228Y-58547676D01*
X61867253Y-58476028D01*
X61867254Y-58476028D01*
X61867251Y-58476027D01*
X61867247Y-58476026D01*
X61867243Y-58476025D01*
X61683619Y-58439500D01*
X61683616Y-58439500D01*
X61496384Y-58439500D01*
X61496381Y-58439500D01*
X61312756Y-58476025D01*
X61312746Y-58476028D01*
X61139771Y-58547676D01*
X60984090Y-58651699D01*
X60851699Y-58784090D01*
X60747676Y-58939771D01*
X60676028Y-59112746D01*
X60676025Y-59112756D01*
X60639500Y-59296381D01*
X57460500Y-59296381D01*
X57423974Y-59112756D01*
X57423973Y-59112749D01*
X57352322Y-58939769D01*
X57248302Y-58784092D01*
X57115908Y-58651698D01*
X56960231Y-58547678D01*
X56960230Y-58547677D01*
X56960228Y-58547676D01*
X56787253Y-58476028D01*
X56787254Y-58476028D01*
X56787251Y-58476027D01*
X56787247Y-58476026D01*
X56787243Y-58476025D01*
X56603619Y-58439500D01*
X56603616Y-58439500D01*
X56416384Y-58439500D01*
X56416381Y-58439500D01*
X56232756Y-58476025D01*
X56232746Y-58476028D01*
X56059771Y-58547676D01*
X55904090Y-58651699D01*
X55771699Y-58784090D01*
X55667676Y-58939771D01*
X55596028Y-59112746D01*
X55596025Y-59112756D01*
X55559500Y-59296381D01*
X54920500Y-59296381D01*
X54883974Y-59112756D01*
X54883973Y-59112749D01*
X54812322Y-58939769D01*
X54708302Y-58784092D01*
X54575908Y-58651698D01*
X54420231Y-58547678D01*
X54420230Y-58547677D01*
X54420228Y-58547676D01*
X54247253Y-58476028D01*
X54247254Y-58476028D01*
X54247251Y-58476027D01*
X54247247Y-58476026D01*
X54247243Y-58476025D01*
X54063619Y-58439500D01*
X54063616Y-58439500D01*
X53876384Y-58439500D01*
X53876381Y-58439500D01*
X53692756Y-58476025D01*
X53692746Y-58476028D01*
X53519771Y-58547676D01*
X53364090Y-58651699D01*
X53231699Y-58784090D01*
X53127676Y-58939771D01*
X53056028Y-59112746D01*
X53056025Y-59112756D01*
X53019500Y-59296381D01*
X52380500Y-59296381D01*
X52343974Y-59112756D01*
X52343973Y-59112749D01*
X52272322Y-58939769D01*
X52168302Y-58784092D01*
X52035908Y-58651698D01*
X51880231Y-58547678D01*
X51880230Y-58547677D01*
X51880228Y-58547676D01*
X51707253Y-58476028D01*
X51707254Y-58476028D01*
X51707251Y-58476027D01*
X51707247Y-58476026D01*
X51707243Y-58476025D01*
X51523619Y-58439500D01*
X51523616Y-58439500D01*
X51336384Y-58439500D01*
X51336381Y-58439500D01*
X51152756Y-58476025D01*
X51152746Y-58476028D01*
X50979771Y-58547676D01*
X50824090Y-58651699D01*
X50691699Y-58784090D01*
X50587676Y-58939771D01*
X50516028Y-59112746D01*
X50516025Y-59112756D01*
X50479500Y-59296381D01*
X49840500Y-59296381D01*
X49803974Y-59112756D01*
X49803973Y-59112749D01*
X49732322Y-58939769D01*
X49628302Y-58784092D01*
X49495908Y-58651698D01*
X49340231Y-58547678D01*
X49340230Y-58547677D01*
X49340228Y-58547676D01*
X49167253Y-58476028D01*
X49167254Y-58476028D01*
X49167251Y-58476027D01*
X49167247Y-58476026D01*
X49167243Y-58476025D01*
X48983619Y-58439500D01*
X48983616Y-58439500D01*
X48796384Y-58439500D01*
X48796381Y-58439500D01*
X48612756Y-58476025D01*
X48612746Y-58476028D01*
X48439771Y-58547676D01*
X48284090Y-58651699D01*
X48151699Y-58784090D01*
X48047676Y-58939771D01*
X47976028Y-59112746D01*
X47976025Y-59112756D01*
X47939500Y-59296381D01*
X44760500Y-59296381D01*
X44723974Y-59112756D01*
X44723973Y-59112749D01*
X44652322Y-58939769D01*
X44548302Y-58784092D01*
X44415908Y-58651698D01*
X44260231Y-58547678D01*
X44260230Y-58547677D01*
X44260228Y-58547676D01*
X44087253Y-58476028D01*
X44087254Y-58476028D01*
X44087251Y-58476027D01*
X44087247Y-58476026D01*
X44087243Y-58476025D01*
X43903619Y-58439500D01*
X43903616Y-58439500D01*
X43716384Y-58439500D01*
X43716381Y-58439500D01*
X43532756Y-58476025D01*
X43532746Y-58476028D01*
X43359771Y-58547676D01*
X43204090Y-58651699D01*
X43071699Y-58784090D01*
X42967676Y-58939771D01*
X42896028Y-59112746D01*
X42896025Y-59112756D01*
X42859500Y-59296381D01*
X42220500Y-59296381D01*
X42183974Y-59112756D01*
X42183973Y-59112749D01*
X42112322Y-58939769D01*
X42008302Y-58784092D01*
X41875908Y-58651698D01*
X41720231Y-58547678D01*
X41720230Y-58547677D01*
X41720228Y-58547676D01*
X41547253Y-58476028D01*
X41547254Y-58476028D01*
X41547251Y-58476027D01*
X41547247Y-58476026D01*
X41547243Y-58476025D01*
X41363619Y-58439500D01*
X41363616Y-58439500D01*
X41176384Y-58439500D01*
X41176381Y-58439500D01*
X40992756Y-58476025D01*
X40992746Y-58476028D01*
X40819771Y-58547676D01*
X40664090Y-58651699D01*
X40531699Y-58784090D01*
X40427676Y-58939771D01*
X40356028Y-59112746D01*
X40356025Y-59112756D01*
X40319500Y-59296381D01*
X39680500Y-59296381D01*
X39643974Y-59112756D01*
X39643973Y-59112749D01*
X39572322Y-58939769D01*
X39468302Y-58784092D01*
X39335908Y-58651698D01*
X39180231Y-58547678D01*
X39180230Y-58547677D01*
X39180228Y-58547676D01*
X39007253Y-58476028D01*
X39007254Y-58476028D01*
X39007251Y-58476027D01*
X39007247Y-58476026D01*
X39007243Y-58476025D01*
X38823619Y-58439500D01*
X38823616Y-58439500D01*
X38636384Y-58439500D01*
X38636381Y-58439500D01*
X38452756Y-58476025D01*
X38452746Y-58476028D01*
X38279771Y-58547676D01*
X38124090Y-58651699D01*
X37991699Y-58784090D01*
X37887676Y-58939771D01*
X37816028Y-59112746D01*
X37816025Y-59112756D01*
X37779500Y-59296381D01*
X37140500Y-59296381D01*
X37103974Y-59112756D01*
X37103973Y-59112749D01*
X37032322Y-58939769D01*
X36928302Y-58784092D01*
X36795908Y-58651698D01*
X36640231Y-58547678D01*
X36640230Y-58547677D01*
X36640228Y-58547676D01*
X36467253Y-58476028D01*
X36467254Y-58476028D01*
X36467251Y-58476027D01*
X36467247Y-58476026D01*
X36467243Y-58476025D01*
X36283619Y-58439500D01*
X36283616Y-58439500D01*
X36096384Y-58439500D01*
X36096381Y-58439500D01*
X35912756Y-58476025D01*
X35912746Y-58476028D01*
X35739771Y-58547676D01*
X35584090Y-58651699D01*
X35451699Y-58784090D01*
X35347676Y-58939771D01*
X35276028Y-59112746D01*
X35276025Y-59112756D01*
X35239500Y-59296381D01*
X32060500Y-59296381D01*
X32023974Y-59112756D01*
X32023973Y-59112749D01*
X31952322Y-58939769D01*
X31848302Y-58784092D01*
X31715908Y-58651698D01*
X31560231Y-58547678D01*
X31560230Y-58547677D01*
X31560228Y-58547676D01*
X31387253Y-58476028D01*
X31387254Y-58476028D01*
X31387251Y-58476027D01*
X31387247Y-58476026D01*
X31387243Y-58476025D01*
X31203619Y-58439500D01*
X31203616Y-58439500D01*
X31016384Y-58439500D01*
X31016381Y-58439500D01*
X30832756Y-58476025D01*
X30832746Y-58476028D01*
X30659771Y-58547676D01*
X30504090Y-58651699D01*
X30371699Y-58784090D01*
X30267676Y-58939771D01*
X30196028Y-59112746D01*
X30196025Y-59112756D01*
X30159500Y-59296381D01*
X29520500Y-59296381D01*
X29483974Y-59112756D01*
X29483973Y-59112749D01*
X29412322Y-58939769D01*
X29308302Y-58784092D01*
X29175908Y-58651698D01*
X29020231Y-58547678D01*
X29020230Y-58547677D01*
X29020228Y-58547676D01*
X28847253Y-58476028D01*
X28847254Y-58476028D01*
X28847251Y-58476027D01*
X28847247Y-58476026D01*
X28847243Y-58476025D01*
X28663619Y-58439500D01*
X28663616Y-58439500D01*
X28476384Y-58439500D01*
X28476381Y-58439500D01*
X28292756Y-58476025D01*
X28292746Y-58476028D01*
X28119771Y-58547676D01*
X27964090Y-58651699D01*
X27831699Y-58784090D01*
X27727676Y-58939771D01*
X27656028Y-59112746D01*
X27656025Y-59112756D01*
X27619500Y-59296381D01*
X26980500Y-59296381D01*
X26943974Y-59112756D01*
X26943973Y-59112749D01*
X26872322Y-58939769D01*
X26768302Y-58784092D01*
X26635908Y-58651698D01*
X26480231Y-58547678D01*
X26480230Y-58547677D01*
X26480228Y-58547676D01*
X26307253Y-58476028D01*
X26307254Y-58476028D01*
X26307251Y-58476027D01*
X26307247Y-58476026D01*
X26307243Y-58476025D01*
X26123619Y-58439500D01*
X26123616Y-58439500D01*
X25936384Y-58439500D01*
X25936381Y-58439500D01*
X25752756Y-58476025D01*
X25752746Y-58476028D01*
X25579771Y-58547676D01*
X25424090Y-58651699D01*
X25291699Y-58784090D01*
X25187676Y-58939771D01*
X25116028Y-59112746D01*
X25116025Y-59112756D01*
X25079500Y-59296381D01*
X24440500Y-59296381D01*
X24403974Y-59112756D01*
X24403973Y-59112749D01*
X24332322Y-58939769D01*
X24228302Y-58784092D01*
X24095908Y-58651698D01*
X23940231Y-58547678D01*
X23940230Y-58547677D01*
X23940228Y-58547676D01*
X23767253Y-58476028D01*
X23767254Y-58476028D01*
X23767251Y-58476027D01*
X23767247Y-58476026D01*
X23767243Y-58476025D01*
X23583619Y-58439500D01*
X23583616Y-58439500D01*
X23396384Y-58439500D01*
X23396381Y-58439500D01*
X23212756Y-58476025D01*
X23212746Y-58476028D01*
X23039771Y-58547676D01*
X22884090Y-58651699D01*
X22751699Y-58784090D01*
X22647676Y-58939771D01*
X22576028Y-59112746D01*
X22576025Y-59112756D01*
X22539500Y-59296381D01*
X19360500Y-59296381D01*
X19323974Y-59112756D01*
X19323973Y-59112749D01*
X19252322Y-58939769D01*
X19148302Y-58784092D01*
X19015908Y-58651698D01*
X18860231Y-58547678D01*
X18860230Y-58547677D01*
X18860228Y-58547676D01*
X18687253Y-58476028D01*
X18687254Y-58476028D01*
X18687251Y-58476027D01*
X18687247Y-58476026D01*
X18687243Y-58476025D01*
X18503619Y-58439500D01*
X18503616Y-58439500D01*
X18316384Y-58439500D01*
X18316381Y-58439500D01*
X18132756Y-58476025D01*
X18132746Y-58476028D01*
X17959771Y-58547676D01*
X17804090Y-58651699D01*
X17671699Y-58784090D01*
X17567676Y-58939771D01*
X17496028Y-59112746D01*
X17496025Y-59112756D01*
X17459500Y-59296381D01*
X16820500Y-59296381D01*
X16820500Y-58756740D01*
X16810573Y-58688607D01*
X16759198Y-58583517D01*
X16676483Y-58500802D01*
X16676482Y-58500801D01*
X16571395Y-58449428D01*
X16571393Y-58449427D01*
X16571391Y-58449426D01*
X16571387Y-58449425D01*
X16503261Y-58439500D01*
X16503260Y-58439500D01*
X15236740Y-58439500D01*
X15236739Y-58439500D01*
X15168612Y-58449425D01*
X15168604Y-58449428D01*
X15063518Y-58500801D01*
X15063517Y-58500801D01*
X14980801Y-58583517D01*
X14980801Y-58583518D01*
X14929428Y-58688604D01*
X14929425Y-58688612D01*
X14919500Y-58756738D01*
X13570499Y-58756738D01*
X13570499Y-57600000D01*
X57000000Y-57600000D01*
X61339896Y-57600000D01*
X61339896Y-57599999D01*
X64970678Y-52924745D01*
X65013240Y-52900500D01*
X65021225Y-52900000D01*
X66000000Y-52900000D01*
X66000000Y-48100000D01*
X65021225Y-48100000D01*
X64975970Y-48081255D01*
X64970678Y-48075255D01*
X61339896Y-43400000D01*
X61339895Y-43400000D01*
X57000000Y-43400000D01*
X57000000Y-57600000D01*
X13570499Y-57600000D01*
X13570499Y-41516381D01*
X14919500Y-41516381D01*
X14919500Y-41703618D01*
X14956025Y-41887243D01*
X14956028Y-41887253D01*
X15027676Y-42060228D01*
X15027677Y-42060230D01*
X15027678Y-42060231D01*
X15131698Y-42215908D01*
X15264092Y-42348302D01*
X15419769Y-42452322D01*
X15592749Y-42523973D01*
X15665599Y-42538463D01*
X15776381Y-42560500D01*
X15776384Y-42560500D01*
X15963619Y-42560500D01*
X16055851Y-42542153D01*
X16147251Y-42523973D01*
X16307472Y-42457607D01*
X16356456Y-42457607D01*
X16377219Y-42471480D01*
X16762485Y-42856745D01*
X16762488Y-42856749D01*
X16766136Y-42860397D01*
X16836603Y-42930864D01*
X16863569Y-42942034D01*
X16928672Y-42969001D01*
X16928675Y-42969001D01*
X17035776Y-42969001D01*
X17035784Y-42969000D01*
X39718697Y-42969000D01*
X39763952Y-42987745D01*
X39815187Y-43038980D01*
X39906513Y-43091707D01*
X39906515Y-43091707D01*
X39906516Y-43091708D01*
X40008372Y-43119000D01*
X40008373Y-43119000D01*
X40113828Y-43119000D01*
X40158739Y-43106965D01*
X40215687Y-43091707D01*
X40307013Y-43038980D01*
X40381580Y-42964413D01*
X40434307Y-42873087D01*
X40461600Y-42771227D01*
X40461600Y-42665773D01*
X40461600Y-42665771D01*
X40434308Y-42563917D01*
X40434308Y-42563916D01*
X40434307Y-42563915D01*
X40434307Y-42563913D01*
X40381580Y-42472587D01*
X40307013Y-42398020D01*
X40215687Y-42345293D01*
X40215686Y-42345292D01*
X40215683Y-42345291D01*
X40113828Y-42318000D01*
X40113827Y-42318000D01*
X40008373Y-42318000D01*
X40008372Y-42318000D01*
X39906517Y-42345291D01*
X39906516Y-42345291D01*
X39815185Y-42398021D01*
X39763952Y-42449255D01*
X39718697Y-42468000D01*
X39367747Y-42468000D01*
X39322492Y-42449255D01*
X39303747Y-42404000D01*
X39322492Y-42358745D01*
X39332190Y-42350786D01*
X39335908Y-42348302D01*
X39468302Y-42215908D01*
X39572322Y-42060231D01*
X39643973Y-41887251D01*
X39680500Y-41703616D01*
X39680500Y-41516384D01*
X39680500Y-41516381D01*
X40319500Y-41516381D01*
X40319500Y-41703618D01*
X40356025Y-41887243D01*
X40356028Y-41887253D01*
X40427676Y-42060228D01*
X40427677Y-42060230D01*
X40427678Y-42060231D01*
X40531698Y-42215908D01*
X40664092Y-42348302D01*
X40819769Y-42452322D01*
X40992749Y-42523973D01*
X41065599Y-42538463D01*
X41176381Y-42560500D01*
X41176384Y-42560500D01*
X41363619Y-42560500D01*
X41455851Y-42542153D01*
X41547251Y-42523973D01*
X41720231Y-42452322D01*
X41875908Y-42348302D01*
X42008302Y-42215908D01*
X42112322Y-42060231D01*
X42183973Y-41887251D01*
X42220500Y-41703616D01*
X42220500Y-41516384D01*
X42220500Y-41516381D01*
X42859500Y-41516381D01*
X42859500Y-41703618D01*
X42896025Y-41887243D01*
X42896028Y-41887253D01*
X42967676Y-42060228D01*
X42967677Y-42060230D01*
X42967678Y-42060231D01*
X43071698Y-42215908D01*
X43204092Y-42348302D01*
X43359769Y-42452322D01*
X43532749Y-42523973D01*
X43605599Y-42538463D01*
X43716381Y-42560500D01*
X43716384Y-42560500D01*
X43903619Y-42560500D01*
X43995851Y-42542153D01*
X44087251Y-42523973D01*
X44260231Y-42452322D01*
X44415908Y-42348302D01*
X44548302Y-42215908D01*
X44652322Y-42060231D01*
X44723973Y-41887251D01*
X44760500Y-41703616D01*
X44760500Y-41516384D01*
X44760500Y-41516381D01*
X47939500Y-41516381D01*
X47939500Y-41703618D01*
X47976025Y-41887243D01*
X47976028Y-41887253D01*
X48047676Y-42060228D01*
X48047677Y-42060230D01*
X48047678Y-42060231D01*
X48151698Y-42215908D01*
X48284092Y-42348302D01*
X48439769Y-42452322D01*
X48612749Y-42523973D01*
X48685599Y-42538463D01*
X48796381Y-42560500D01*
X48796384Y-42560500D01*
X48983619Y-42560500D01*
X49075851Y-42542153D01*
X49167251Y-42523973D01*
X49340231Y-42452322D01*
X49495908Y-42348302D01*
X49628302Y-42215908D01*
X49732322Y-42060231D01*
X49803973Y-41887251D01*
X49840500Y-41703616D01*
X49840500Y-41516384D01*
X49840500Y-41516381D01*
X50479500Y-41516381D01*
X50479500Y-41703618D01*
X50516025Y-41887243D01*
X50516028Y-41887253D01*
X50587676Y-42060228D01*
X50587677Y-42060230D01*
X50587678Y-42060231D01*
X50691698Y-42215908D01*
X50824092Y-42348302D01*
X50979769Y-42452322D01*
X51152749Y-42523973D01*
X51225599Y-42538463D01*
X51336381Y-42560500D01*
X51336384Y-42560500D01*
X51523619Y-42560500D01*
X51615851Y-42542153D01*
X51707251Y-42523973D01*
X51880231Y-42452322D01*
X52035908Y-42348302D01*
X52168302Y-42215908D01*
X52272322Y-42060231D01*
X52343973Y-41887251D01*
X52380500Y-41703616D01*
X52380500Y-41516384D01*
X52380500Y-41516381D01*
X53019500Y-41516381D01*
X53019500Y-41703618D01*
X53056025Y-41887243D01*
X53056028Y-41887253D01*
X53127676Y-42060228D01*
X53127677Y-42060230D01*
X53127678Y-42060231D01*
X53231698Y-42215908D01*
X53364092Y-42348302D01*
X53519769Y-42452322D01*
X53692749Y-42523973D01*
X53765599Y-42538463D01*
X53876381Y-42560500D01*
X53876384Y-42560500D01*
X54063619Y-42560500D01*
X54155851Y-42542153D01*
X54247251Y-42523973D01*
X54420231Y-42452322D01*
X54575908Y-42348302D01*
X54708302Y-42215908D01*
X54812322Y-42060231D01*
X54883973Y-41887251D01*
X54920500Y-41703616D01*
X54920500Y-41516384D01*
X54920500Y-41516381D01*
X55559500Y-41516381D01*
X55559500Y-41703618D01*
X55596025Y-41887243D01*
X55596028Y-41887253D01*
X55667676Y-42060228D01*
X55667677Y-42060230D01*
X55667678Y-42060231D01*
X55771698Y-42215908D01*
X55904092Y-42348302D01*
X56059769Y-42452322D01*
X56232749Y-42523973D01*
X56305599Y-42538463D01*
X56416381Y-42560500D01*
X56416384Y-42560500D01*
X56603619Y-42560500D01*
X56695851Y-42542153D01*
X56787251Y-42523973D01*
X56960231Y-42452322D01*
X57115908Y-42348302D01*
X57248302Y-42215908D01*
X57352322Y-42060231D01*
X57423973Y-41887251D01*
X57460500Y-41703616D01*
X57460500Y-41516384D01*
X57460500Y-41516381D01*
X60639500Y-41516381D01*
X60639500Y-41703618D01*
X60676025Y-41887243D01*
X60676028Y-41887253D01*
X60747676Y-42060228D01*
X60747677Y-42060230D01*
X60747678Y-42060231D01*
X60851698Y-42215908D01*
X60984092Y-42348302D01*
X61139769Y-42452322D01*
X61312749Y-42523973D01*
X61385599Y-42538463D01*
X61496381Y-42560500D01*
X61496384Y-42560500D01*
X61683619Y-42560500D01*
X61775851Y-42542153D01*
X61867251Y-42523973D01*
X62040231Y-42452322D01*
X62195908Y-42348302D01*
X62328302Y-42215908D01*
X62432322Y-42060231D01*
X62503973Y-41887251D01*
X62540500Y-41703616D01*
X62540500Y-41516384D01*
X62540500Y-41516381D01*
X63179500Y-41516381D01*
X63179500Y-41703618D01*
X63216025Y-41887243D01*
X63216028Y-41887253D01*
X63287676Y-42060228D01*
X63287677Y-42060230D01*
X63287678Y-42060231D01*
X63391698Y-42215908D01*
X63524092Y-42348302D01*
X63679769Y-42452322D01*
X63852749Y-42523973D01*
X63925599Y-42538463D01*
X64036381Y-42560500D01*
X64036384Y-42560500D01*
X64223619Y-42560500D01*
X64315851Y-42542153D01*
X64407251Y-42523973D01*
X64580231Y-42452322D01*
X64735908Y-42348302D01*
X64868302Y-42215908D01*
X64972322Y-42060231D01*
X65043973Y-41887251D01*
X65080500Y-41703616D01*
X65080500Y-41516384D01*
X65080500Y-41516381D01*
X65043974Y-41332756D01*
X65043973Y-41332749D01*
X64972322Y-41159769D01*
X64868302Y-41004092D01*
X64735908Y-40871698D01*
X64580231Y-40767678D01*
X64580230Y-40767677D01*
X64580228Y-40767676D01*
X64407253Y-40696028D01*
X64407254Y-40696028D01*
X64407251Y-40696027D01*
X64407247Y-40696026D01*
X64407243Y-40696025D01*
X64223619Y-40659500D01*
X64223616Y-40659500D01*
X64036384Y-40659500D01*
X64036381Y-40659500D01*
X63852756Y-40696025D01*
X63852746Y-40696028D01*
X63679771Y-40767676D01*
X63524090Y-40871699D01*
X63391699Y-41004090D01*
X63287676Y-41159771D01*
X63216028Y-41332746D01*
X63216025Y-41332756D01*
X63179500Y-41516381D01*
X62540500Y-41516381D01*
X62503974Y-41332756D01*
X62503973Y-41332749D01*
X62432322Y-41159769D01*
X62328302Y-41004092D01*
X62195908Y-40871698D01*
X62040231Y-40767678D01*
X62040230Y-40767677D01*
X62040228Y-40767676D01*
X61867253Y-40696028D01*
X61867254Y-40696028D01*
X61867251Y-40696027D01*
X61867247Y-40696026D01*
X61867243Y-40696025D01*
X61683619Y-40659500D01*
X61683616Y-40659500D01*
X61496384Y-40659500D01*
X61496381Y-40659500D01*
X61312756Y-40696025D01*
X61312746Y-40696028D01*
X61139771Y-40767676D01*
X60984090Y-40871699D01*
X60851699Y-41004090D01*
X60747676Y-41159771D01*
X60676028Y-41332746D01*
X60676025Y-41332756D01*
X60639500Y-41516381D01*
X57460500Y-41516381D01*
X57423974Y-41332756D01*
X57423973Y-41332749D01*
X57352322Y-41159769D01*
X57248302Y-41004092D01*
X57115908Y-40871698D01*
X56960231Y-40767678D01*
X56960230Y-40767677D01*
X56960228Y-40767676D01*
X56787253Y-40696028D01*
X56787254Y-40696028D01*
X56787251Y-40696027D01*
X56787247Y-40696026D01*
X56787243Y-40696025D01*
X56603619Y-40659500D01*
X56603616Y-40659500D01*
X56416384Y-40659500D01*
X56416381Y-40659500D01*
X56232756Y-40696025D01*
X56232746Y-40696028D01*
X56059771Y-40767676D01*
X55904090Y-40871699D01*
X55771699Y-41004090D01*
X55667676Y-41159771D01*
X55596028Y-41332746D01*
X55596025Y-41332756D01*
X55559500Y-41516381D01*
X54920500Y-41516381D01*
X54883974Y-41332756D01*
X54883973Y-41332749D01*
X54812322Y-41159769D01*
X54708302Y-41004092D01*
X54575908Y-40871698D01*
X54420231Y-40767678D01*
X54420230Y-40767677D01*
X54420228Y-40767676D01*
X54247253Y-40696028D01*
X54247254Y-40696028D01*
X54247251Y-40696027D01*
X54247247Y-40696026D01*
X54247243Y-40696025D01*
X54063619Y-40659500D01*
X54063616Y-40659500D01*
X53876384Y-40659500D01*
X53876381Y-40659500D01*
X53692756Y-40696025D01*
X53692746Y-40696028D01*
X53519771Y-40767676D01*
X53364090Y-40871699D01*
X53231699Y-41004090D01*
X53127676Y-41159771D01*
X53056028Y-41332746D01*
X53056025Y-41332756D01*
X53019500Y-41516381D01*
X52380500Y-41516381D01*
X52343974Y-41332756D01*
X52343973Y-41332749D01*
X52272322Y-41159769D01*
X52168302Y-41004092D01*
X52035908Y-40871698D01*
X51880231Y-40767678D01*
X51880230Y-40767677D01*
X51880228Y-40767676D01*
X51707253Y-40696028D01*
X51707254Y-40696028D01*
X51707251Y-40696027D01*
X51707247Y-40696026D01*
X51707243Y-40696025D01*
X51523619Y-40659500D01*
X51523616Y-40659500D01*
X51336384Y-40659500D01*
X51336381Y-40659500D01*
X51152756Y-40696025D01*
X51152746Y-40696028D01*
X50979771Y-40767676D01*
X50824090Y-40871699D01*
X50691699Y-41004090D01*
X50587676Y-41159771D01*
X50516028Y-41332746D01*
X50516025Y-41332756D01*
X50479500Y-41516381D01*
X49840500Y-41516381D01*
X49803974Y-41332756D01*
X49803973Y-41332749D01*
X49732322Y-41159769D01*
X49628302Y-41004092D01*
X49495908Y-40871698D01*
X49340231Y-40767678D01*
X49340230Y-40767677D01*
X49340228Y-40767676D01*
X49167253Y-40696028D01*
X49167254Y-40696028D01*
X49167251Y-40696027D01*
X49167247Y-40696026D01*
X49167243Y-40696025D01*
X48983619Y-40659500D01*
X48983616Y-40659500D01*
X48796384Y-40659500D01*
X48796381Y-40659500D01*
X48612756Y-40696025D01*
X48612746Y-40696028D01*
X48439771Y-40767676D01*
X48284090Y-40871699D01*
X48151699Y-41004090D01*
X48047676Y-41159771D01*
X47976028Y-41332746D01*
X47976025Y-41332756D01*
X47939500Y-41516381D01*
X44760500Y-41516381D01*
X44723974Y-41332756D01*
X44723973Y-41332749D01*
X44652322Y-41159769D01*
X44548302Y-41004092D01*
X44415908Y-40871698D01*
X44260231Y-40767678D01*
X44260230Y-40767677D01*
X44260228Y-40767676D01*
X44087253Y-40696028D01*
X44087254Y-40696028D01*
X44087251Y-40696027D01*
X44087247Y-40696026D01*
X44087243Y-40696025D01*
X43903619Y-40659500D01*
X43903616Y-40659500D01*
X43716384Y-40659500D01*
X43716381Y-40659500D01*
X43532756Y-40696025D01*
X43532746Y-40696028D01*
X43359771Y-40767676D01*
X43204090Y-40871699D01*
X43071699Y-41004090D01*
X42967676Y-41159771D01*
X42896028Y-41332746D01*
X42896025Y-41332756D01*
X42859500Y-41516381D01*
X42220500Y-41516381D01*
X42183974Y-41332756D01*
X42183973Y-41332749D01*
X42112322Y-41159769D01*
X42008302Y-41004092D01*
X41875908Y-40871698D01*
X41720231Y-40767678D01*
X41720230Y-40767677D01*
X41720228Y-40767676D01*
X41547253Y-40696028D01*
X41547254Y-40696028D01*
X41547251Y-40696027D01*
X41547247Y-40696026D01*
X41547243Y-40696025D01*
X41363619Y-40659500D01*
X41363616Y-40659500D01*
X41176384Y-40659500D01*
X41176381Y-40659500D01*
X40992756Y-40696025D01*
X40992746Y-40696028D01*
X40819771Y-40767676D01*
X40664090Y-40871699D01*
X40531699Y-41004090D01*
X40427676Y-41159771D01*
X40356028Y-41332746D01*
X40356025Y-41332756D01*
X40319500Y-41516381D01*
X39680500Y-41516381D01*
X39643974Y-41332756D01*
X39643973Y-41332749D01*
X39572322Y-41159769D01*
X39468302Y-41004092D01*
X39335908Y-40871698D01*
X39180231Y-40767678D01*
X39180230Y-40767677D01*
X39180228Y-40767676D01*
X39007253Y-40696028D01*
X39007254Y-40696028D01*
X39007251Y-40696027D01*
X39007247Y-40696026D01*
X39007243Y-40696025D01*
X38823619Y-40659500D01*
X38823616Y-40659500D01*
X38636384Y-40659500D01*
X38636381Y-40659500D01*
X38452756Y-40696025D01*
X38452746Y-40696028D01*
X38279771Y-40767676D01*
X38124090Y-40871699D01*
X37991699Y-41004090D01*
X37887676Y-41159771D01*
X37816028Y-41332746D01*
X37816025Y-41332756D01*
X37779500Y-41516381D01*
X37779500Y-41703618D01*
X37816025Y-41887243D01*
X37816028Y-41887253D01*
X37887676Y-42060228D01*
X37887677Y-42060230D01*
X37887678Y-42060231D01*
X37991698Y-42215908D01*
X38124092Y-42348302D01*
X38127810Y-42350786D01*
X38155023Y-42391515D01*
X38145467Y-42439557D01*
X38104738Y-42466770D01*
X38092253Y-42468000D01*
X36827747Y-42468000D01*
X36782492Y-42449255D01*
X36763747Y-42404000D01*
X36782492Y-42358745D01*
X36792190Y-42350786D01*
X36795908Y-42348302D01*
X36928302Y-42215908D01*
X37032322Y-42060231D01*
X37103973Y-41887251D01*
X37140500Y-41703616D01*
X37140500Y-41516384D01*
X37140500Y-41516381D01*
X37103974Y-41332756D01*
X37103973Y-41332749D01*
X37032322Y-41159769D01*
X36928302Y-41004092D01*
X36795908Y-40871698D01*
X36640231Y-40767678D01*
X36640230Y-40767677D01*
X36640228Y-40767676D01*
X36467253Y-40696028D01*
X36467254Y-40696028D01*
X36467251Y-40696027D01*
X36467247Y-40696026D01*
X36467243Y-40696025D01*
X36283619Y-40659500D01*
X36283616Y-40659500D01*
X36096384Y-40659500D01*
X36096381Y-40659500D01*
X35912756Y-40696025D01*
X35912746Y-40696028D01*
X35739771Y-40767676D01*
X35584090Y-40871699D01*
X35451699Y-41004090D01*
X35347676Y-41159771D01*
X35276028Y-41332746D01*
X35276025Y-41332756D01*
X35239500Y-41516381D01*
X35239500Y-41703618D01*
X35276025Y-41887243D01*
X35276028Y-41887253D01*
X35347676Y-42060228D01*
X35347677Y-42060230D01*
X35347678Y-42060231D01*
X35451698Y-42215908D01*
X35584092Y-42348302D01*
X35587810Y-42350786D01*
X35615023Y-42391515D01*
X35605467Y-42439557D01*
X35564738Y-42466770D01*
X35552253Y-42468000D01*
X31747747Y-42468000D01*
X31702492Y-42449255D01*
X31683747Y-42404000D01*
X31702492Y-42358745D01*
X31712190Y-42350786D01*
X31715908Y-42348302D01*
X31848302Y-42215908D01*
X31952322Y-42060231D01*
X32023973Y-41887251D01*
X32060500Y-41703616D01*
X32060500Y-41516384D01*
X32060500Y-41516381D01*
X32023974Y-41332756D01*
X32023973Y-41332749D01*
X31952322Y-41159769D01*
X31848302Y-41004092D01*
X31715908Y-40871698D01*
X31560231Y-40767678D01*
X31560230Y-40767677D01*
X31560228Y-40767676D01*
X31387253Y-40696028D01*
X31387254Y-40696028D01*
X31387251Y-40696027D01*
X31387247Y-40696026D01*
X31387243Y-40696025D01*
X31203619Y-40659500D01*
X31203616Y-40659500D01*
X31016384Y-40659500D01*
X31016381Y-40659500D01*
X30832756Y-40696025D01*
X30832746Y-40696028D01*
X30659771Y-40767676D01*
X30504090Y-40871699D01*
X30371699Y-41004090D01*
X30267676Y-41159771D01*
X30196028Y-41332746D01*
X30196025Y-41332756D01*
X30159500Y-41516381D01*
X30159500Y-41703618D01*
X30196025Y-41887243D01*
X30196028Y-41887253D01*
X30267676Y-42060228D01*
X30267677Y-42060230D01*
X30267678Y-42060231D01*
X30371698Y-42215908D01*
X30504092Y-42348302D01*
X30507810Y-42350786D01*
X30535023Y-42391515D01*
X30525467Y-42439557D01*
X30484738Y-42466770D01*
X30472253Y-42468000D01*
X29207747Y-42468000D01*
X29162492Y-42449255D01*
X29143747Y-42404000D01*
X29162492Y-42358745D01*
X29172190Y-42350786D01*
X29175908Y-42348302D01*
X29308302Y-42215908D01*
X29412322Y-42060231D01*
X29483973Y-41887251D01*
X29520500Y-41703616D01*
X29520500Y-41516384D01*
X29520500Y-41516381D01*
X29483974Y-41332756D01*
X29483973Y-41332749D01*
X29412322Y-41159769D01*
X29308302Y-41004092D01*
X29175908Y-40871698D01*
X29020231Y-40767678D01*
X29020230Y-40767677D01*
X29020228Y-40767676D01*
X28847253Y-40696028D01*
X28847254Y-40696028D01*
X28847251Y-40696027D01*
X28847247Y-40696026D01*
X28847243Y-40696025D01*
X28663619Y-40659500D01*
X28663616Y-40659500D01*
X28476384Y-40659500D01*
X28476381Y-40659500D01*
X28292756Y-40696025D01*
X28292746Y-40696028D01*
X28119771Y-40767676D01*
X27964090Y-40871699D01*
X27831699Y-41004090D01*
X27727676Y-41159771D01*
X27656028Y-41332746D01*
X27656025Y-41332756D01*
X27619500Y-41516381D01*
X27619500Y-41703618D01*
X27656025Y-41887243D01*
X27656028Y-41887253D01*
X27727676Y-42060228D01*
X27727677Y-42060230D01*
X27727678Y-42060231D01*
X27831698Y-42215908D01*
X27964092Y-42348302D01*
X27967810Y-42350786D01*
X27995023Y-42391515D01*
X27985467Y-42439557D01*
X27944738Y-42466770D01*
X27932253Y-42468000D01*
X26667747Y-42468000D01*
X26622492Y-42449255D01*
X26603747Y-42404000D01*
X26622492Y-42358745D01*
X26632190Y-42350786D01*
X26635908Y-42348302D01*
X26768302Y-42215908D01*
X26872322Y-42060231D01*
X26943973Y-41887251D01*
X26980500Y-41703616D01*
X26980500Y-41516384D01*
X26980500Y-41516381D01*
X26943974Y-41332756D01*
X26943973Y-41332749D01*
X26872322Y-41159769D01*
X26768302Y-41004092D01*
X26635908Y-40871698D01*
X26480231Y-40767678D01*
X26480230Y-40767677D01*
X26480228Y-40767676D01*
X26307253Y-40696028D01*
X26307254Y-40696028D01*
X26307251Y-40696027D01*
X26307247Y-40696026D01*
X26307243Y-40696025D01*
X26123619Y-40659500D01*
X26123616Y-40659500D01*
X25936384Y-40659500D01*
X25936381Y-40659500D01*
X25752756Y-40696025D01*
X25752746Y-40696028D01*
X25579771Y-40767676D01*
X25424090Y-40871699D01*
X25291699Y-41004090D01*
X25187676Y-41159771D01*
X25116028Y-41332746D01*
X25116025Y-41332756D01*
X25079500Y-41516381D01*
X25079500Y-41703618D01*
X25116025Y-41887243D01*
X25116028Y-41887253D01*
X25187676Y-42060228D01*
X25187677Y-42060230D01*
X25187678Y-42060231D01*
X25291698Y-42215908D01*
X25424092Y-42348302D01*
X25427810Y-42350786D01*
X25455023Y-42391515D01*
X25445467Y-42439557D01*
X25404738Y-42466770D01*
X25392253Y-42468000D01*
X24127747Y-42468000D01*
X24082492Y-42449255D01*
X24063747Y-42404000D01*
X24082492Y-42358745D01*
X24092190Y-42350786D01*
X24095908Y-42348302D01*
X24228302Y-42215908D01*
X24332322Y-42060231D01*
X24403973Y-41887251D01*
X24440500Y-41703616D01*
X24440500Y-41516384D01*
X24440500Y-41516381D01*
X24403974Y-41332756D01*
X24403973Y-41332749D01*
X24332322Y-41159769D01*
X24228302Y-41004092D01*
X24095908Y-40871698D01*
X23940231Y-40767678D01*
X23940230Y-40767677D01*
X23940228Y-40767676D01*
X23767253Y-40696028D01*
X23767254Y-40696028D01*
X23767251Y-40696027D01*
X23767247Y-40696026D01*
X23767243Y-40696025D01*
X23583619Y-40659500D01*
X23583616Y-40659500D01*
X23396384Y-40659500D01*
X23396381Y-40659500D01*
X23212756Y-40696025D01*
X23212746Y-40696028D01*
X23039771Y-40767676D01*
X22884090Y-40871699D01*
X22751699Y-41004090D01*
X22647676Y-41159771D01*
X22576028Y-41332746D01*
X22576025Y-41332756D01*
X22539500Y-41516381D01*
X22539500Y-41703618D01*
X22576025Y-41887243D01*
X22576028Y-41887253D01*
X22647676Y-42060228D01*
X22647677Y-42060230D01*
X22647678Y-42060231D01*
X22751698Y-42215908D01*
X22884092Y-42348302D01*
X22887810Y-42350786D01*
X22915023Y-42391515D01*
X22905467Y-42439557D01*
X22864738Y-42466770D01*
X22852253Y-42468000D01*
X19047747Y-42468000D01*
X19002492Y-42449255D01*
X18983747Y-42404000D01*
X19002492Y-42358745D01*
X19012190Y-42350786D01*
X19015908Y-42348302D01*
X19148302Y-42215908D01*
X19252322Y-42060231D01*
X19323973Y-41887251D01*
X19360500Y-41703616D01*
X19360500Y-41516384D01*
X19360500Y-41516381D01*
X19323974Y-41332756D01*
X19323973Y-41332749D01*
X19252322Y-41159769D01*
X19148302Y-41004092D01*
X19015908Y-40871698D01*
X18860231Y-40767678D01*
X18860230Y-40767677D01*
X18860228Y-40767676D01*
X18687253Y-40696028D01*
X18687254Y-40696028D01*
X18687251Y-40696027D01*
X18687247Y-40696026D01*
X18687243Y-40696025D01*
X18503619Y-40659500D01*
X18503616Y-40659500D01*
X18316384Y-40659500D01*
X18316381Y-40659500D01*
X18132756Y-40696025D01*
X18132746Y-40696028D01*
X17959771Y-40767676D01*
X17804090Y-40871699D01*
X17671699Y-41004090D01*
X17567676Y-41159771D01*
X17496028Y-41332746D01*
X17496025Y-41332756D01*
X17459500Y-41516381D01*
X17459500Y-41703618D01*
X17496025Y-41887243D01*
X17496028Y-41887253D01*
X17567676Y-42060228D01*
X17567677Y-42060230D01*
X17567678Y-42060231D01*
X17671698Y-42215908D01*
X17804092Y-42348302D01*
X17807810Y-42350786D01*
X17835023Y-42391515D01*
X17825467Y-42439557D01*
X17784738Y-42466770D01*
X17772253Y-42468000D01*
X17108770Y-42468000D01*
X17063515Y-42449255D01*
X16731480Y-42117219D01*
X16712735Y-42071964D01*
X16717607Y-42047472D01*
X16718951Y-42044225D01*
X16783973Y-41887251D01*
X16820500Y-41703616D01*
X16820500Y-41516384D01*
X16820500Y-41516381D01*
X16783974Y-41332756D01*
X16783973Y-41332749D01*
X16712322Y-41159769D01*
X16608302Y-41004092D01*
X16475908Y-40871698D01*
X16320231Y-40767678D01*
X16320230Y-40767677D01*
X16320228Y-40767676D01*
X16147253Y-40696028D01*
X16147254Y-40696028D01*
X16147251Y-40696027D01*
X16147247Y-40696026D01*
X16147243Y-40696025D01*
X15963619Y-40659500D01*
X15963616Y-40659500D01*
X15776384Y-40659500D01*
X15776381Y-40659500D01*
X15592756Y-40696025D01*
X15592746Y-40696028D01*
X15419771Y-40767676D01*
X15264090Y-40871699D01*
X15131699Y-41004090D01*
X15027676Y-41159771D01*
X14956028Y-41332746D01*
X14956025Y-41332756D01*
X14919500Y-41516381D01*
X13570499Y-41516381D01*
X13570499Y-38734000D01*
X13589244Y-38688745D01*
X13634499Y-38670000D01*
X66365499Y-38670000D01*
X66410754Y-38688745D01*
G37*
%TD.AperFunction*%
%TD*%
%TA.AperFunction,Conductor*%
%TO.N,GND1*%
G36*
X66410754Y-2829245D02*
G01*
X66429499Y-2874500D01*
X66429499Y-34666000D01*
X66410754Y-34711255D01*
X66365499Y-34730000D01*
X13634499Y-34730000D01*
X13589244Y-34711255D01*
X13570499Y-34666000D01*
X13570499Y-31686381D01*
X14919500Y-31686381D01*
X14919500Y-31873618D01*
X14956025Y-32057243D01*
X14956028Y-32057253D01*
X15027676Y-32230228D01*
X15027677Y-32230230D01*
X15027678Y-32230231D01*
X15131698Y-32385908D01*
X15264092Y-32518302D01*
X15419769Y-32622322D01*
X15592749Y-32693973D01*
X15665599Y-32708463D01*
X15776381Y-32730500D01*
X15776384Y-32730500D01*
X15963619Y-32730500D01*
X16055851Y-32712153D01*
X16147251Y-32693973D01*
X16320231Y-32622322D01*
X16475908Y-32518302D01*
X16608302Y-32385908D01*
X16712322Y-32230231D01*
X16783973Y-32057251D01*
X16820500Y-31873616D01*
X16820500Y-31686384D01*
X16820500Y-31686381D01*
X17459500Y-31686381D01*
X17459500Y-31873618D01*
X17496025Y-32057243D01*
X17496028Y-32057253D01*
X17567676Y-32230228D01*
X17567677Y-32230230D01*
X17567678Y-32230231D01*
X17671698Y-32385908D01*
X17804092Y-32518302D01*
X17959769Y-32622322D01*
X18132749Y-32693973D01*
X18205599Y-32708463D01*
X18316381Y-32730500D01*
X18316384Y-32730500D01*
X18503619Y-32730500D01*
X18595851Y-32712153D01*
X18687251Y-32693973D01*
X18860231Y-32622322D01*
X19015908Y-32518302D01*
X19148302Y-32385908D01*
X19252322Y-32230231D01*
X19323973Y-32057251D01*
X19360500Y-31873616D01*
X19360500Y-31686384D01*
X19360500Y-31686381D01*
X22539500Y-31686381D01*
X22539500Y-31873618D01*
X22576025Y-32057243D01*
X22576028Y-32057253D01*
X22647676Y-32230228D01*
X22647677Y-32230230D01*
X22647678Y-32230231D01*
X22751698Y-32385908D01*
X22884092Y-32518302D01*
X23039769Y-32622322D01*
X23212749Y-32693973D01*
X23285599Y-32708463D01*
X23396381Y-32730500D01*
X23396384Y-32730500D01*
X23583619Y-32730500D01*
X23675851Y-32712153D01*
X23767251Y-32693973D01*
X23940231Y-32622322D01*
X24095908Y-32518302D01*
X24228302Y-32385908D01*
X24332322Y-32230231D01*
X24403973Y-32057251D01*
X24440500Y-31873616D01*
X24440500Y-31686384D01*
X24440500Y-31686381D01*
X25079500Y-31686381D01*
X25079500Y-31873618D01*
X25116025Y-32057243D01*
X25116028Y-32057253D01*
X25187676Y-32230228D01*
X25187677Y-32230230D01*
X25187678Y-32230231D01*
X25291698Y-32385908D01*
X25424092Y-32518302D01*
X25579769Y-32622322D01*
X25752749Y-32693973D01*
X25825599Y-32708463D01*
X25936381Y-32730500D01*
X25936384Y-32730500D01*
X26123619Y-32730500D01*
X26215851Y-32712153D01*
X26307251Y-32693973D01*
X26480231Y-32622322D01*
X26635908Y-32518302D01*
X26768302Y-32385908D01*
X26872322Y-32230231D01*
X26943973Y-32057251D01*
X26980500Y-31873616D01*
X26980500Y-31686384D01*
X26980500Y-31686381D01*
X27619500Y-31686381D01*
X27619500Y-31873618D01*
X27656025Y-32057243D01*
X27656028Y-32057253D01*
X27727676Y-32230228D01*
X27727677Y-32230230D01*
X27727678Y-32230231D01*
X27831698Y-32385908D01*
X27964092Y-32518302D01*
X28119769Y-32622322D01*
X28292749Y-32693973D01*
X28365599Y-32708463D01*
X28476381Y-32730500D01*
X28476384Y-32730500D01*
X28663619Y-32730500D01*
X28755851Y-32712153D01*
X28847251Y-32693973D01*
X29020231Y-32622322D01*
X29175908Y-32518302D01*
X29308302Y-32385908D01*
X29412322Y-32230231D01*
X29483973Y-32057251D01*
X29520500Y-31873616D01*
X29520500Y-31686384D01*
X29520500Y-31686381D01*
X30159500Y-31686381D01*
X30159500Y-31873618D01*
X30196025Y-32057243D01*
X30196028Y-32057253D01*
X30267676Y-32230228D01*
X30267677Y-32230230D01*
X30267678Y-32230231D01*
X30371698Y-32385908D01*
X30504092Y-32518302D01*
X30659769Y-32622322D01*
X30832749Y-32693973D01*
X30905599Y-32708463D01*
X31016381Y-32730500D01*
X31016384Y-32730500D01*
X31203619Y-32730500D01*
X31295851Y-32712153D01*
X31387251Y-32693973D01*
X31560231Y-32622322D01*
X31715908Y-32518302D01*
X31848302Y-32385908D01*
X31952322Y-32230231D01*
X32023973Y-32057251D01*
X32060500Y-31873616D01*
X32060500Y-31686384D01*
X32060500Y-31686381D01*
X35239500Y-31686381D01*
X35239500Y-31873618D01*
X35276025Y-32057243D01*
X35276028Y-32057253D01*
X35347676Y-32230228D01*
X35347677Y-32230230D01*
X35347678Y-32230231D01*
X35451698Y-32385908D01*
X35584092Y-32518302D01*
X35739769Y-32622322D01*
X35912749Y-32693973D01*
X35985599Y-32708463D01*
X36096381Y-32730500D01*
X36096384Y-32730500D01*
X36283619Y-32730500D01*
X36375851Y-32712153D01*
X36467251Y-32693973D01*
X36640231Y-32622322D01*
X36795908Y-32518302D01*
X36928302Y-32385908D01*
X37032322Y-32230231D01*
X37103973Y-32057251D01*
X37140500Y-31873616D01*
X37140500Y-31686384D01*
X37140500Y-31686381D01*
X37779500Y-31686381D01*
X37779500Y-31873618D01*
X37816025Y-32057243D01*
X37816028Y-32057253D01*
X37887676Y-32230228D01*
X37887677Y-32230230D01*
X37887678Y-32230231D01*
X37991698Y-32385908D01*
X38124092Y-32518302D01*
X38279769Y-32622322D01*
X38452749Y-32693973D01*
X38525599Y-32708463D01*
X38636381Y-32730500D01*
X38636384Y-32730500D01*
X38823619Y-32730500D01*
X38915851Y-32712153D01*
X39007251Y-32693973D01*
X39180231Y-32622322D01*
X39335908Y-32518302D01*
X39468302Y-32385908D01*
X39572322Y-32230231D01*
X39643973Y-32057251D01*
X39680500Y-31873616D01*
X39680500Y-31686384D01*
X39680500Y-31686381D01*
X40319500Y-31686381D01*
X40319500Y-31873618D01*
X40356025Y-32057243D01*
X40356028Y-32057253D01*
X40427676Y-32230228D01*
X40427677Y-32230230D01*
X40427678Y-32230231D01*
X40531698Y-32385908D01*
X40664092Y-32518302D01*
X40819769Y-32622322D01*
X40992749Y-32693973D01*
X41065599Y-32708463D01*
X41176381Y-32730500D01*
X41176384Y-32730500D01*
X41363619Y-32730500D01*
X41455851Y-32712153D01*
X41547251Y-32693973D01*
X41720231Y-32622322D01*
X41875908Y-32518302D01*
X42008302Y-32385908D01*
X42112322Y-32230231D01*
X42183973Y-32057251D01*
X42220500Y-31873616D01*
X42220500Y-31686384D01*
X42220500Y-31686381D01*
X42859500Y-31686381D01*
X42859500Y-31873618D01*
X42896025Y-32057243D01*
X42896028Y-32057253D01*
X42967676Y-32230228D01*
X42967677Y-32230230D01*
X42967678Y-32230231D01*
X43071698Y-32385908D01*
X43204092Y-32518302D01*
X43359769Y-32622322D01*
X43532749Y-32693973D01*
X43605599Y-32708463D01*
X43716381Y-32730500D01*
X43716384Y-32730500D01*
X43903619Y-32730500D01*
X43995851Y-32712153D01*
X44087251Y-32693973D01*
X44260231Y-32622322D01*
X44415908Y-32518302D01*
X44548302Y-32385908D01*
X44652322Y-32230231D01*
X44723973Y-32057251D01*
X44760500Y-31873616D01*
X44760500Y-31686384D01*
X44760500Y-31686381D01*
X47939500Y-31686381D01*
X47939500Y-31873618D01*
X47976025Y-32057243D01*
X47976028Y-32057253D01*
X48047676Y-32230228D01*
X48047677Y-32230230D01*
X48047678Y-32230231D01*
X48151698Y-32385908D01*
X48284092Y-32518302D01*
X48439769Y-32622322D01*
X48612749Y-32693973D01*
X48685599Y-32708463D01*
X48796381Y-32730500D01*
X48796384Y-32730500D01*
X48983619Y-32730500D01*
X49075851Y-32712153D01*
X49167251Y-32693973D01*
X49340231Y-32622322D01*
X49495908Y-32518302D01*
X49628302Y-32385908D01*
X49732322Y-32230231D01*
X49803973Y-32057251D01*
X49840500Y-31873616D01*
X49840500Y-31686384D01*
X49840500Y-31686381D01*
X50479500Y-31686381D01*
X50479500Y-31873618D01*
X50516025Y-32057243D01*
X50516028Y-32057253D01*
X50587676Y-32230228D01*
X50587677Y-32230230D01*
X50587678Y-32230231D01*
X50691698Y-32385908D01*
X50824092Y-32518302D01*
X50979769Y-32622322D01*
X51152749Y-32693973D01*
X51225599Y-32708463D01*
X51336381Y-32730500D01*
X51336384Y-32730500D01*
X51523619Y-32730500D01*
X51615851Y-32712153D01*
X51707251Y-32693973D01*
X51880231Y-32622322D01*
X52035908Y-32518302D01*
X52168302Y-32385908D01*
X52272322Y-32230231D01*
X52343973Y-32057251D01*
X52380500Y-31873616D01*
X52380500Y-31686384D01*
X52380500Y-31686381D01*
X53019500Y-31686381D01*
X53019500Y-31873618D01*
X53056025Y-32057243D01*
X53056028Y-32057253D01*
X53127676Y-32230228D01*
X53127677Y-32230230D01*
X53127678Y-32230231D01*
X53231698Y-32385908D01*
X53364092Y-32518302D01*
X53519769Y-32622322D01*
X53692749Y-32693973D01*
X53765599Y-32708463D01*
X53876381Y-32730500D01*
X53876384Y-32730500D01*
X54063619Y-32730500D01*
X54155851Y-32712153D01*
X54247251Y-32693973D01*
X54420231Y-32622322D01*
X54575908Y-32518302D01*
X54708302Y-32385908D01*
X54812322Y-32230231D01*
X54883973Y-32057251D01*
X54920500Y-31873616D01*
X54920500Y-31686384D01*
X54920500Y-31686381D01*
X55559500Y-31686381D01*
X55559500Y-31873618D01*
X55596025Y-32057243D01*
X55596028Y-32057253D01*
X55667676Y-32230228D01*
X55667677Y-32230230D01*
X55667678Y-32230231D01*
X55771698Y-32385908D01*
X55904092Y-32518302D01*
X56059769Y-32622322D01*
X56232749Y-32693973D01*
X56305599Y-32708463D01*
X56416381Y-32730500D01*
X56416384Y-32730500D01*
X56603619Y-32730500D01*
X56695851Y-32712153D01*
X56787251Y-32693973D01*
X56960231Y-32622322D01*
X57115908Y-32518302D01*
X57248302Y-32385908D01*
X57352322Y-32230231D01*
X57423973Y-32057251D01*
X57460500Y-31873616D01*
X57460500Y-31686384D01*
X57460500Y-31686381D01*
X60639500Y-31686381D01*
X60639500Y-31873618D01*
X60676025Y-32057243D01*
X60676028Y-32057253D01*
X60747676Y-32230228D01*
X60747677Y-32230230D01*
X60747678Y-32230231D01*
X60851698Y-32385908D01*
X60984092Y-32518302D01*
X61139769Y-32622322D01*
X61312749Y-32693973D01*
X61385599Y-32708463D01*
X61496381Y-32730500D01*
X61496384Y-32730500D01*
X61683619Y-32730500D01*
X61775851Y-32712153D01*
X61867251Y-32693973D01*
X62040231Y-32622322D01*
X62195908Y-32518302D01*
X62328302Y-32385908D01*
X62432322Y-32230231D01*
X62503973Y-32057251D01*
X62540500Y-31873616D01*
X62540500Y-31686384D01*
X62540500Y-31686381D01*
X63179500Y-31686381D01*
X63179500Y-31873618D01*
X63216025Y-32057243D01*
X63216028Y-32057253D01*
X63287676Y-32230228D01*
X63287677Y-32230230D01*
X63287678Y-32230231D01*
X63391698Y-32385908D01*
X63524092Y-32518302D01*
X63679769Y-32622322D01*
X63852749Y-32693973D01*
X63925599Y-32708463D01*
X64036381Y-32730500D01*
X64036384Y-32730500D01*
X64223619Y-32730500D01*
X64315851Y-32712153D01*
X64407251Y-32693973D01*
X64580231Y-32622322D01*
X64735908Y-32518302D01*
X64868302Y-32385908D01*
X64972322Y-32230231D01*
X65043973Y-32057251D01*
X65080500Y-31873616D01*
X65080500Y-31686384D01*
X65080500Y-31686381D01*
X65043974Y-31502756D01*
X65043973Y-31502749D01*
X64972322Y-31329769D01*
X64868302Y-31174092D01*
X64735908Y-31041698D01*
X64580231Y-30937678D01*
X64580230Y-30937677D01*
X64580228Y-30937676D01*
X64407253Y-30866028D01*
X64407254Y-30866028D01*
X64407251Y-30866027D01*
X64407247Y-30866026D01*
X64407243Y-30866025D01*
X64223619Y-30829500D01*
X64223616Y-30829500D01*
X64036384Y-30829500D01*
X64036381Y-30829500D01*
X63852756Y-30866025D01*
X63852746Y-30866028D01*
X63679771Y-30937676D01*
X63524090Y-31041699D01*
X63391699Y-31174090D01*
X63287676Y-31329771D01*
X63216028Y-31502746D01*
X63216025Y-31502756D01*
X63179500Y-31686381D01*
X62540500Y-31686381D01*
X62503974Y-31502756D01*
X62503973Y-31502749D01*
X62432322Y-31329769D01*
X62328302Y-31174092D01*
X62195908Y-31041698D01*
X62040231Y-30937678D01*
X62040230Y-30937677D01*
X62040228Y-30937676D01*
X61867253Y-30866028D01*
X61867254Y-30866028D01*
X61867251Y-30866027D01*
X61867247Y-30866026D01*
X61867243Y-30866025D01*
X61683619Y-30829500D01*
X61683616Y-30829500D01*
X61496384Y-30829500D01*
X61496381Y-30829500D01*
X61312756Y-30866025D01*
X61312746Y-30866028D01*
X61139771Y-30937676D01*
X60984090Y-31041699D01*
X60851699Y-31174090D01*
X60747676Y-31329771D01*
X60676028Y-31502746D01*
X60676025Y-31502756D01*
X60639500Y-31686381D01*
X57460500Y-31686381D01*
X57423974Y-31502756D01*
X57423973Y-31502749D01*
X57352322Y-31329769D01*
X57248302Y-31174092D01*
X57115908Y-31041698D01*
X56960231Y-30937678D01*
X56960230Y-30937677D01*
X56960228Y-30937676D01*
X56787253Y-30866028D01*
X56787254Y-30866028D01*
X56787251Y-30866027D01*
X56787247Y-30866026D01*
X56787243Y-30866025D01*
X56603619Y-30829500D01*
X56603616Y-30829500D01*
X56416384Y-30829500D01*
X56416381Y-30829500D01*
X56232756Y-30866025D01*
X56232746Y-30866028D01*
X56059771Y-30937676D01*
X55904090Y-31041699D01*
X55771699Y-31174090D01*
X55667676Y-31329771D01*
X55596028Y-31502746D01*
X55596025Y-31502756D01*
X55559500Y-31686381D01*
X54920500Y-31686381D01*
X54883974Y-31502756D01*
X54883973Y-31502749D01*
X54812322Y-31329769D01*
X54708302Y-31174092D01*
X54575908Y-31041698D01*
X54420231Y-30937678D01*
X54420230Y-30937677D01*
X54420228Y-30937676D01*
X54247253Y-30866028D01*
X54247254Y-30866028D01*
X54247251Y-30866027D01*
X54247247Y-30866026D01*
X54247243Y-30866025D01*
X54063619Y-30829500D01*
X54063616Y-30829500D01*
X53876384Y-30829500D01*
X53876381Y-30829500D01*
X53692756Y-30866025D01*
X53692746Y-30866028D01*
X53519771Y-30937676D01*
X53364090Y-31041699D01*
X53231699Y-31174090D01*
X53127676Y-31329771D01*
X53056028Y-31502746D01*
X53056025Y-31502756D01*
X53019500Y-31686381D01*
X52380500Y-31686381D01*
X52343974Y-31502756D01*
X52343973Y-31502749D01*
X52272322Y-31329769D01*
X52168302Y-31174092D01*
X52035908Y-31041698D01*
X51880231Y-30937678D01*
X51880230Y-30937677D01*
X51880228Y-30937676D01*
X51707253Y-30866028D01*
X51707254Y-30866028D01*
X51707251Y-30866027D01*
X51707247Y-30866026D01*
X51707243Y-30866025D01*
X51523619Y-30829500D01*
X51523616Y-30829500D01*
X51336384Y-30829500D01*
X51336381Y-30829500D01*
X51152756Y-30866025D01*
X51152746Y-30866028D01*
X50979771Y-30937676D01*
X50824090Y-31041699D01*
X50691699Y-31174090D01*
X50587676Y-31329771D01*
X50516028Y-31502746D01*
X50516025Y-31502756D01*
X50479500Y-31686381D01*
X49840500Y-31686381D01*
X49803974Y-31502756D01*
X49803973Y-31502749D01*
X49732322Y-31329769D01*
X49628302Y-31174092D01*
X49495908Y-31041698D01*
X49340231Y-30937678D01*
X49340230Y-30937677D01*
X49340228Y-30937676D01*
X49167253Y-30866028D01*
X49167254Y-30866028D01*
X49167251Y-30866027D01*
X49167247Y-30866026D01*
X49167243Y-30866025D01*
X48983619Y-30829500D01*
X48983616Y-30829500D01*
X48796384Y-30829500D01*
X48796381Y-30829500D01*
X48612756Y-30866025D01*
X48612746Y-30866028D01*
X48439771Y-30937676D01*
X48284090Y-31041699D01*
X48151699Y-31174090D01*
X48047676Y-31329771D01*
X47976028Y-31502746D01*
X47976025Y-31502756D01*
X47939500Y-31686381D01*
X44760500Y-31686381D01*
X44723974Y-31502756D01*
X44723973Y-31502749D01*
X44652322Y-31329769D01*
X44548302Y-31174092D01*
X44415908Y-31041698D01*
X44260231Y-30937678D01*
X44260230Y-30937677D01*
X44260228Y-30937676D01*
X44087253Y-30866028D01*
X44087254Y-30866028D01*
X44087251Y-30866027D01*
X44087247Y-30866026D01*
X44087243Y-30866025D01*
X43903619Y-30829500D01*
X43903616Y-30829500D01*
X43716384Y-30829500D01*
X43716381Y-30829500D01*
X43532756Y-30866025D01*
X43532746Y-30866028D01*
X43359771Y-30937676D01*
X43204090Y-31041699D01*
X43071699Y-31174090D01*
X42967676Y-31329771D01*
X42896028Y-31502746D01*
X42896025Y-31502756D01*
X42859500Y-31686381D01*
X42220500Y-31686381D01*
X42183974Y-31502756D01*
X42183973Y-31502749D01*
X42112322Y-31329769D01*
X42008302Y-31174092D01*
X41875908Y-31041698D01*
X41720231Y-30937678D01*
X41720230Y-30937677D01*
X41720228Y-30937676D01*
X41547253Y-30866028D01*
X41547254Y-30866028D01*
X41547251Y-30866027D01*
X41547247Y-30866026D01*
X41547243Y-30866025D01*
X41363619Y-30829500D01*
X41363616Y-30829500D01*
X41176384Y-30829500D01*
X41176381Y-30829500D01*
X40992756Y-30866025D01*
X40992746Y-30866028D01*
X40819771Y-30937676D01*
X40664090Y-31041699D01*
X40531699Y-31174090D01*
X40427676Y-31329771D01*
X40356028Y-31502746D01*
X40356025Y-31502756D01*
X40319500Y-31686381D01*
X39680500Y-31686381D01*
X39643974Y-31502756D01*
X39643973Y-31502749D01*
X39572322Y-31329769D01*
X39468302Y-31174092D01*
X39335908Y-31041698D01*
X39180231Y-30937678D01*
X39180230Y-30937677D01*
X39180228Y-30937676D01*
X39007253Y-30866028D01*
X39007254Y-30866028D01*
X39007251Y-30866027D01*
X39007247Y-30866026D01*
X39007243Y-30866025D01*
X38823619Y-30829500D01*
X38823616Y-30829500D01*
X38636384Y-30829500D01*
X38636381Y-30829500D01*
X38452756Y-30866025D01*
X38452746Y-30866028D01*
X38279771Y-30937676D01*
X38124090Y-31041699D01*
X37991699Y-31174090D01*
X37887676Y-31329771D01*
X37816028Y-31502746D01*
X37816025Y-31502756D01*
X37779500Y-31686381D01*
X37140500Y-31686381D01*
X37103974Y-31502756D01*
X37103973Y-31502749D01*
X37032322Y-31329769D01*
X36928302Y-31174092D01*
X36795908Y-31041698D01*
X36640231Y-30937678D01*
X36640230Y-30937677D01*
X36640228Y-30937676D01*
X36467253Y-30866028D01*
X36467254Y-30866028D01*
X36467251Y-30866027D01*
X36467247Y-30866026D01*
X36467243Y-30866025D01*
X36283619Y-30829500D01*
X36283616Y-30829500D01*
X36096384Y-30829500D01*
X36096381Y-30829500D01*
X35912756Y-30866025D01*
X35912746Y-30866028D01*
X35739771Y-30937676D01*
X35584090Y-31041699D01*
X35451699Y-31174090D01*
X35347676Y-31329771D01*
X35276028Y-31502746D01*
X35276025Y-31502756D01*
X35239500Y-31686381D01*
X32060500Y-31686381D01*
X32023974Y-31502756D01*
X32023973Y-31502749D01*
X31952322Y-31329769D01*
X31848302Y-31174092D01*
X31715908Y-31041698D01*
X31560231Y-30937678D01*
X31560230Y-30937677D01*
X31560228Y-30937676D01*
X31387253Y-30866028D01*
X31387254Y-30866028D01*
X31387251Y-30866027D01*
X31387247Y-30866026D01*
X31387243Y-30866025D01*
X31203619Y-30829500D01*
X31203616Y-30829500D01*
X31016384Y-30829500D01*
X31016381Y-30829500D01*
X30832756Y-30866025D01*
X30832746Y-30866028D01*
X30659771Y-30937676D01*
X30504090Y-31041699D01*
X30371699Y-31174090D01*
X30267676Y-31329771D01*
X30196028Y-31502746D01*
X30196025Y-31502756D01*
X30159500Y-31686381D01*
X29520500Y-31686381D01*
X29483974Y-31502756D01*
X29483973Y-31502749D01*
X29412322Y-31329769D01*
X29308302Y-31174092D01*
X29175908Y-31041698D01*
X29020231Y-30937678D01*
X29020230Y-30937677D01*
X29020228Y-30937676D01*
X28847253Y-30866028D01*
X28847254Y-30866028D01*
X28847251Y-30866027D01*
X28847247Y-30866026D01*
X28847243Y-30866025D01*
X28663619Y-30829500D01*
X28663616Y-30829500D01*
X28476384Y-30829500D01*
X28476381Y-30829500D01*
X28292756Y-30866025D01*
X28292746Y-30866028D01*
X28119771Y-30937676D01*
X27964090Y-31041699D01*
X27831699Y-31174090D01*
X27727676Y-31329771D01*
X27656028Y-31502746D01*
X27656025Y-31502756D01*
X27619500Y-31686381D01*
X26980500Y-31686381D01*
X26943974Y-31502756D01*
X26943973Y-31502749D01*
X26872322Y-31329769D01*
X26768302Y-31174092D01*
X26635908Y-31041698D01*
X26480231Y-30937678D01*
X26480230Y-30937677D01*
X26480228Y-30937676D01*
X26307253Y-30866028D01*
X26307254Y-30866028D01*
X26307251Y-30866027D01*
X26307247Y-30866026D01*
X26307243Y-30866025D01*
X26123619Y-30829500D01*
X26123616Y-30829500D01*
X25936384Y-30829500D01*
X25936381Y-30829500D01*
X25752756Y-30866025D01*
X25752746Y-30866028D01*
X25579771Y-30937676D01*
X25424090Y-31041699D01*
X25291699Y-31174090D01*
X25187676Y-31329771D01*
X25116028Y-31502746D01*
X25116025Y-31502756D01*
X25079500Y-31686381D01*
X24440500Y-31686381D01*
X24403974Y-31502756D01*
X24403973Y-31502749D01*
X24332322Y-31329769D01*
X24228302Y-31174092D01*
X24095908Y-31041698D01*
X23940231Y-30937678D01*
X23940230Y-30937677D01*
X23940228Y-30937676D01*
X23767253Y-30866028D01*
X23767254Y-30866028D01*
X23767251Y-30866027D01*
X23767247Y-30866026D01*
X23767243Y-30866025D01*
X23583619Y-30829500D01*
X23583616Y-30829500D01*
X23396384Y-30829500D01*
X23396381Y-30829500D01*
X23212756Y-30866025D01*
X23212746Y-30866028D01*
X23039771Y-30937676D01*
X22884090Y-31041699D01*
X22751699Y-31174090D01*
X22647676Y-31329771D01*
X22576028Y-31502746D01*
X22576025Y-31502756D01*
X22539500Y-31686381D01*
X19360500Y-31686381D01*
X19323974Y-31502756D01*
X19323973Y-31502749D01*
X19252322Y-31329769D01*
X19148302Y-31174092D01*
X19015908Y-31041698D01*
X18860231Y-30937678D01*
X18860230Y-30937677D01*
X18860228Y-30937676D01*
X18687253Y-30866028D01*
X18687254Y-30866028D01*
X18687251Y-30866027D01*
X18687247Y-30866026D01*
X18687243Y-30866025D01*
X18503619Y-30829500D01*
X18503616Y-30829500D01*
X18316384Y-30829500D01*
X18316381Y-30829500D01*
X18132756Y-30866025D01*
X18132746Y-30866028D01*
X17959771Y-30937676D01*
X17804090Y-31041699D01*
X17671699Y-31174090D01*
X17567676Y-31329771D01*
X17496028Y-31502746D01*
X17496025Y-31502756D01*
X17459500Y-31686381D01*
X16820500Y-31686381D01*
X16783974Y-31502756D01*
X16783973Y-31502749D01*
X16712322Y-31329769D01*
X16608302Y-31174092D01*
X16475908Y-31041698D01*
X16320231Y-30937678D01*
X16320230Y-30937677D01*
X16320228Y-30937676D01*
X16147253Y-30866028D01*
X16147254Y-30866028D01*
X16147251Y-30866027D01*
X16147247Y-30866026D01*
X16147243Y-30866025D01*
X15963619Y-30829500D01*
X15963616Y-30829500D01*
X15776384Y-30829500D01*
X15776381Y-30829500D01*
X15592756Y-30866025D01*
X15592746Y-30866028D01*
X15419771Y-30937676D01*
X15264090Y-31041699D01*
X15131699Y-31174090D01*
X15027676Y-31329771D01*
X14956028Y-31502746D01*
X14956025Y-31502756D01*
X14919500Y-31686381D01*
X13570499Y-31686381D01*
X13570499Y-22256738D01*
X14919500Y-22256738D01*
X14919500Y-23523261D01*
X14929425Y-23591387D01*
X14929428Y-23591395D01*
X14980801Y-23696481D01*
X14980801Y-23696482D01*
X14980802Y-23696483D01*
X15063517Y-23779198D01*
X15168607Y-23830573D01*
X15168610Y-23830573D01*
X15168612Y-23830574D01*
X15236739Y-23840500D01*
X15236740Y-23840500D01*
X16503261Y-23840500D01*
X16571387Y-23830574D01*
X16571387Y-23830573D01*
X16571393Y-23830573D01*
X16676483Y-23779198D01*
X16759198Y-23696483D01*
X16810573Y-23591393D01*
X16820500Y-23523260D01*
X16820500Y-22256740D01*
X16810573Y-22188607D01*
X16759198Y-22083517D01*
X16676483Y-22000802D01*
X16676482Y-22000801D01*
X16571395Y-21949428D01*
X16571393Y-21949427D01*
X16571391Y-21949426D01*
X16571387Y-21949425D01*
X16503261Y-21939500D01*
X16503260Y-21939500D01*
X15236740Y-21939500D01*
X15236739Y-21939500D01*
X15168612Y-21949425D01*
X15168604Y-21949428D01*
X15063518Y-22000801D01*
X15063517Y-22000801D01*
X14980801Y-22083517D01*
X14980801Y-22083518D01*
X14929428Y-22188604D01*
X14929425Y-22188612D01*
X14919500Y-22256738D01*
X13570499Y-22256738D01*
X13570499Y-13366738D01*
X14919500Y-13366738D01*
X14919500Y-14633261D01*
X14929425Y-14701387D01*
X14929428Y-14701395D01*
X14980801Y-14806481D01*
X14980801Y-14806482D01*
X14980802Y-14806483D01*
X15063517Y-14889198D01*
X15168607Y-14940573D01*
X15168610Y-14940573D01*
X15168612Y-14940574D01*
X15236739Y-14950500D01*
X15236740Y-14950500D01*
X16439729Y-14950500D01*
X16484984Y-14969245D01*
X18140755Y-16625016D01*
X18159500Y-16670271D01*
X18159500Y-21922183D01*
X18140755Y-21967438D01*
X18119992Y-21981311D01*
X17959771Y-22047676D01*
X17804090Y-22151699D01*
X17671699Y-22284090D01*
X17567676Y-22439771D01*
X17496028Y-22612746D01*
X17496025Y-22612756D01*
X17459500Y-22796381D01*
X17459500Y-22983618D01*
X17496025Y-23167243D01*
X17496028Y-23167253D01*
X17567676Y-23340228D01*
X17567677Y-23340230D01*
X17567678Y-23340231D01*
X17671698Y-23495908D01*
X17804092Y-23628302D01*
X17959769Y-23732322D01*
X18132749Y-23803973D01*
X18205599Y-23818463D01*
X18316381Y-23840500D01*
X18316384Y-23840500D01*
X18503619Y-23840500D01*
X18595851Y-23822153D01*
X18687251Y-23803973D01*
X18860231Y-23732322D01*
X19015908Y-23628302D01*
X19148302Y-23495908D01*
X19252322Y-23340231D01*
X19323973Y-23167251D01*
X19360500Y-22983616D01*
X19360500Y-22796384D01*
X19360500Y-22796381D01*
X22539500Y-22796381D01*
X22539500Y-22983618D01*
X22576025Y-23167243D01*
X22576028Y-23167253D01*
X22647676Y-23340228D01*
X22647677Y-23340230D01*
X22647678Y-23340231D01*
X22751698Y-23495908D01*
X22884092Y-23628302D01*
X23039769Y-23732322D01*
X23212749Y-23803973D01*
X23285599Y-23818463D01*
X23396381Y-23840500D01*
X23396384Y-23840500D01*
X23583619Y-23840500D01*
X23675851Y-23822153D01*
X23767251Y-23803973D01*
X23940231Y-23732322D01*
X24095908Y-23628302D01*
X24228302Y-23495908D01*
X24332322Y-23340231D01*
X24403973Y-23167251D01*
X24440500Y-22983616D01*
X24440500Y-22796384D01*
X24440500Y-22796381D01*
X25079500Y-22796381D01*
X25079500Y-22983618D01*
X25116025Y-23167243D01*
X25116028Y-23167253D01*
X25187676Y-23340228D01*
X25187677Y-23340230D01*
X25187678Y-23340231D01*
X25291698Y-23495908D01*
X25424092Y-23628302D01*
X25579769Y-23732322D01*
X25752749Y-23803973D01*
X25825599Y-23818463D01*
X25936381Y-23840500D01*
X25936384Y-23840500D01*
X26123619Y-23840500D01*
X26215851Y-23822153D01*
X26307251Y-23803973D01*
X26480231Y-23732322D01*
X26635908Y-23628302D01*
X26768302Y-23495908D01*
X26872322Y-23340231D01*
X26943973Y-23167251D01*
X26980500Y-22983616D01*
X26980500Y-22796384D01*
X26980500Y-22796381D01*
X27619500Y-22796381D01*
X27619500Y-22983618D01*
X27656025Y-23167243D01*
X27656028Y-23167253D01*
X27727676Y-23340228D01*
X27727677Y-23340230D01*
X27727678Y-23340231D01*
X27831698Y-23495908D01*
X27964092Y-23628302D01*
X28119769Y-23732322D01*
X28292749Y-23803973D01*
X28365599Y-23818463D01*
X28476381Y-23840500D01*
X28476384Y-23840500D01*
X28663619Y-23840500D01*
X28755851Y-23822153D01*
X28847251Y-23803973D01*
X29020231Y-23732322D01*
X29175908Y-23628302D01*
X29308302Y-23495908D01*
X29412322Y-23340231D01*
X29483973Y-23167251D01*
X29520500Y-22983616D01*
X29520500Y-22796384D01*
X29520500Y-22796381D01*
X30159500Y-22796381D01*
X30159500Y-22983618D01*
X30196025Y-23167243D01*
X30196028Y-23167253D01*
X30267676Y-23340228D01*
X30267677Y-23340230D01*
X30267678Y-23340231D01*
X30371698Y-23495908D01*
X30504092Y-23628302D01*
X30659769Y-23732322D01*
X30832749Y-23803973D01*
X30905599Y-23818463D01*
X31016381Y-23840500D01*
X31016384Y-23840500D01*
X31203619Y-23840500D01*
X31295851Y-23822153D01*
X31387251Y-23803973D01*
X31560231Y-23732322D01*
X31715908Y-23628302D01*
X31848302Y-23495908D01*
X31952322Y-23340231D01*
X32023973Y-23167251D01*
X32060500Y-22983616D01*
X32060500Y-22796384D01*
X32060500Y-22796381D01*
X35239500Y-22796381D01*
X35239500Y-22983618D01*
X35276025Y-23167243D01*
X35276028Y-23167253D01*
X35347676Y-23340228D01*
X35347677Y-23340230D01*
X35347678Y-23340231D01*
X35451698Y-23495908D01*
X35584092Y-23628302D01*
X35739769Y-23732322D01*
X35912749Y-23803973D01*
X35985599Y-23818463D01*
X36096381Y-23840500D01*
X36096384Y-23840500D01*
X36283619Y-23840500D01*
X36375851Y-23822153D01*
X36467251Y-23803973D01*
X36640231Y-23732322D01*
X36795908Y-23628302D01*
X36928302Y-23495908D01*
X37032322Y-23340231D01*
X37103973Y-23167251D01*
X37140500Y-22983616D01*
X37140500Y-22796384D01*
X37140500Y-22796381D01*
X37779500Y-22796381D01*
X37779500Y-22983618D01*
X37816025Y-23167243D01*
X37816028Y-23167253D01*
X37887676Y-23340228D01*
X37887677Y-23340230D01*
X37887678Y-23340231D01*
X37991698Y-23495908D01*
X38124092Y-23628302D01*
X38279769Y-23732322D01*
X38452749Y-23803973D01*
X38525599Y-23818463D01*
X38636381Y-23840500D01*
X38636384Y-23840500D01*
X38823619Y-23840500D01*
X38915851Y-23822153D01*
X39007251Y-23803973D01*
X39180231Y-23732322D01*
X39335908Y-23628302D01*
X39468302Y-23495908D01*
X39572322Y-23340231D01*
X39643973Y-23167251D01*
X39680500Y-22983616D01*
X39680500Y-22796384D01*
X39680500Y-22796381D01*
X40319500Y-22796381D01*
X40319500Y-22983618D01*
X40356025Y-23167243D01*
X40356028Y-23167253D01*
X40427676Y-23340228D01*
X40427677Y-23340230D01*
X40427678Y-23340231D01*
X40531698Y-23495908D01*
X40664092Y-23628302D01*
X40819769Y-23732322D01*
X40992749Y-23803973D01*
X41065599Y-23818463D01*
X41176381Y-23840500D01*
X41176384Y-23840500D01*
X41363619Y-23840500D01*
X41455851Y-23822153D01*
X41547251Y-23803973D01*
X41720231Y-23732322D01*
X41875908Y-23628302D01*
X42008302Y-23495908D01*
X42112322Y-23340231D01*
X42183973Y-23167251D01*
X42220500Y-22983616D01*
X42220500Y-22796384D01*
X42220500Y-22796381D01*
X42859500Y-22796381D01*
X42859500Y-22983618D01*
X42896025Y-23167243D01*
X42896028Y-23167253D01*
X42967676Y-23340228D01*
X42967677Y-23340230D01*
X42967678Y-23340231D01*
X43071698Y-23495908D01*
X43204092Y-23628302D01*
X43359769Y-23732322D01*
X43532749Y-23803973D01*
X43605599Y-23818463D01*
X43716381Y-23840500D01*
X43716384Y-23840500D01*
X43903619Y-23840500D01*
X43995851Y-23822153D01*
X44087251Y-23803973D01*
X44260231Y-23732322D01*
X44415908Y-23628302D01*
X44548302Y-23495908D01*
X44652322Y-23340231D01*
X44723973Y-23167251D01*
X44760500Y-22983616D01*
X44760500Y-22796384D01*
X44760500Y-22796381D01*
X47939500Y-22796381D01*
X47939500Y-22983618D01*
X47976025Y-23167243D01*
X47976028Y-23167253D01*
X48047676Y-23340228D01*
X48047677Y-23340230D01*
X48047678Y-23340231D01*
X48151698Y-23495908D01*
X48284092Y-23628302D01*
X48439769Y-23732322D01*
X48612749Y-23803973D01*
X48685599Y-23818463D01*
X48796381Y-23840500D01*
X48796384Y-23840500D01*
X48983619Y-23840500D01*
X49075851Y-23822153D01*
X49167251Y-23803973D01*
X49340231Y-23732322D01*
X49495908Y-23628302D01*
X49628302Y-23495908D01*
X49732322Y-23340231D01*
X49803973Y-23167251D01*
X49840500Y-22983616D01*
X49840500Y-22796384D01*
X49840500Y-22796381D01*
X50479500Y-22796381D01*
X50479500Y-22983618D01*
X50516025Y-23167243D01*
X50516028Y-23167253D01*
X50587676Y-23340228D01*
X50587677Y-23340230D01*
X50587678Y-23340231D01*
X50691698Y-23495908D01*
X50824092Y-23628302D01*
X50979769Y-23732322D01*
X51152749Y-23803973D01*
X51225599Y-23818463D01*
X51336381Y-23840500D01*
X51336384Y-23840500D01*
X51523619Y-23840500D01*
X51615851Y-23822153D01*
X51707251Y-23803973D01*
X51880231Y-23732322D01*
X52035908Y-23628302D01*
X52168302Y-23495908D01*
X52272322Y-23340231D01*
X52343973Y-23167251D01*
X52380500Y-22983616D01*
X52380500Y-22796384D01*
X52380500Y-22796381D01*
X53019500Y-22796381D01*
X53019500Y-22983618D01*
X53056025Y-23167243D01*
X53056028Y-23167253D01*
X53127676Y-23340228D01*
X53127677Y-23340230D01*
X53127678Y-23340231D01*
X53231698Y-23495908D01*
X53364092Y-23628302D01*
X53519769Y-23732322D01*
X53692749Y-23803973D01*
X53765599Y-23818463D01*
X53876381Y-23840500D01*
X53876384Y-23840500D01*
X54063619Y-23840500D01*
X54155851Y-23822153D01*
X54247251Y-23803973D01*
X54420231Y-23732322D01*
X54575908Y-23628302D01*
X54708302Y-23495908D01*
X54812322Y-23340231D01*
X54883973Y-23167251D01*
X54920500Y-22983616D01*
X54920500Y-22796384D01*
X54920500Y-22796381D01*
X54883974Y-22612756D01*
X54883973Y-22612749D01*
X54812322Y-22439769D01*
X54708302Y-22284092D01*
X54575908Y-22151698D01*
X54420231Y-22047678D01*
X54420230Y-22047677D01*
X54420228Y-22047676D01*
X54279200Y-21989261D01*
X54247251Y-21976027D01*
X54247247Y-21976026D01*
X54247243Y-21976025D01*
X54063619Y-21939500D01*
X54063616Y-21939500D01*
X53876384Y-21939500D01*
X53876381Y-21939500D01*
X53692756Y-21976025D01*
X53692746Y-21976028D01*
X53519771Y-22047676D01*
X53364090Y-22151699D01*
X53231699Y-22284090D01*
X53127676Y-22439771D01*
X53056028Y-22612746D01*
X53056025Y-22612756D01*
X53019500Y-22796381D01*
X52380500Y-22796381D01*
X52343974Y-22612756D01*
X52343973Y-22612749D01*
X52272322Y-22439769D01*
X52168302Y-22284092D01*
X52035908Y-22151698D01*
X51880231Y-22047678D01*
X51880230Y-22047677D01*
X51880228Y-22047676D01*
X51739200Y-21989261D01*
X51707251Y-21976027D01*
X51707247Y-21976026D01*
X51707243Y-21976025D01*
X51523619Y-21939500D01*
X51523616Y-21939500D01*
X51336384Y-21939500D01*
X51336381Y-21939500D01*
X51152756Y-21976025D01*
X51152746Y-21976028D01*
X50979771Y-22047676D01*
X50824090Y-22151699D01*
X50691699Y-22284090D01*
X50587676Y-22439771D01*
X50516028Y-22612746D01*
X50516025Y-22612756D01*
X50479500Y-22796381D01*
X49840500Y-22796381D01*
X49803974Y-22612756D01*
X49803973Y-22612749D01*
X49732322Y-22439769D01*
X49628302Y-22284092D01*
X49495908Y-22151698D01*
X49340231Y-22047678D01*
X49340230Y-22047677D01*
X49340228Y-22047676D01*
X49199200Y-21989261D01*
X49167251Y-21976027D01*
X49167247Y-21976026D01*
X49167243Y-21976025D01*
X48983619Y-21939500D01*
X48983616Y-21939500D01*
X48796384Y-21939500D01*
X48796381Y-21939500D01*
X48612756Y-21976025D01*
X48612746Y-21976028D01*
X48439771Y-22047676D01*
X48284090Y-22151699D01*
X48151699Y-22284090D01*
X48047676Y-22439771D01*
X47976028Y-22612746D01*
X47976025Y-22612756D01*
X47939500Y-22796381D01*
X44760500Y-22796381D01*
X44723974Y-22612756D01*
X44723973Y-22612749D01*
X44652322Y-22439769D01*
X44548302Y-22284092D01*
X44415908Y-22151698D01*
X44260231Y-22047678D01*
X44260230Y-22047677D01*
X44260228Y-22047676D01*
X44119200Y-21989261D01*
X44087251Y-21976027D01*
X44087247Y-21976026D01*
X44087243Y-21976025D01*
X43903619Y-21939500D01*
X43903616Y-21939500D01*
X43716384Y-21939500D01*
X43716381Y-21939500D01*
X43532756Y-21976025D01*
X43532746Y-21976028D01*
X43359771Y-22047676D01*
X43204090Y-22151699D01*
X43071699Y-22284090D01*
X42967676Y-22439771D01*
X42896028Y-22612746D01*
X42896025Y-22612756D01*
X42859500Y-22796381D01*
X42220500Y-22796381D01*
X42183974Y-22612756D01*
X42183973Y-22612749D01*
X42112322Y-22439769D01*
X42008302Y-22284092D01*
X41875908Y-22151698D01*
X41720231Y-22047678D01*
X41720230Y-22047677D01*
X41720228Y-22047676D01*
X41579200Y-21989261D01*
X41547251Y-21976027D01*
X41547247Y-21976026D01*
X41547243Y-21976025D01*
X41363619Y-21939500D01*
X41363616Y-21939500D01*
X41176384Y-21939500D01*
X41176381Y-21939500D01*
X40992756Y-21976025D01*
X40992746Y-21976028D01*
X40819771Y-22047676D01*
X40664090Y-22151699D01*
X40531699Y-22284090D01*
X40427676Y-22439771D01*
X40356028Y-22612746D01*
X40356025Y-22612756D01*
X40319500Y-22796381D01*
X39680500Y-22796381D01*
X39643974Y-22612756D01*
X39643973Y-22612749D01*
X39572322Y-22439769D01*
X39468302Y-22284092D01*
X39335908Y-22151698D01*
X39180231Y-22047678D01*
X39180230Y-22047677D01*
X39180228Y-22047676D01*
X39039200Y-21989261D01*
X39007251Y-21976027D01*
X39007247Y-21976026D01*
X39007243Y-21976025D01*
X38823619Y-21939500D01*
X38823616Y-21939500D01*
X38636384Y-21939500D01*
X38636381Y-21939500D01*
X38452756Y-21976025D01*
X38452746Y-21976028D01*
X38279771Y-22047676D01*
X38124090Y-22151699D01*
X37991699Y-22284090D01*
X37887676Y-22439771D01*
X37816028Y-22612746D01*
X37816025Y-22612756D01*
X37779500Y-22796381D01*
X37140500Y-22796381D01*
X37103974Y-22612756D01*
X37103973Y-22612749D01*
X37032322Y-22439769D01*
X36928302Y-22284092D01*
X36795908Y-22151698D01*
X36640231Y-22047678D01*
X36640230Y-22047677D01*
X36640228Y-22047676D01*
X36499200Y-21989261D01*
X36467251Y-21976027D01*
X36467247Y-21976026D01*
X36467243Y-21976025D01*
X36283619Y-21939500D01*
X36283616Y-21939500D01*
X36096384Y-21939500D01*
X36096381Y-21939500D01*
X35912756Y-21976025D01*
X35912746Y-21976028D01*
X35739771Y-22047676D01*
X35584090Y-22151699D01*
X35451699Y-22284090D01*
X35347676Y-22439771D01*
X35276028Y-22612746D01*
X35276025Y-22612756D01*
X35239500Y-22796381D01*
X32060500Y-22796381D01*
X32023974Y-22612756D01*
X32023973Y-22612749D01*
X31952322Y-22439769D01*
X31848302Y-22284092D01*
X31715908Y-22151698D01*
X31560231Y-22047678D01*
X31560230Y-22047677D01*
X31560228Y-22047676D01*
X31419200Y-21989261D01*
X31387251Y-21976027D01*
X31387247Y-21976026D01*
X31387243Y-21976025D01*
X31203619Y-21939500D01*
X31203616Y-21939500D01*
X31016384Y-21939500D01*
X31016381Y-21939500D01*
X30832756Y-21976025D01*
X30832746Y-21976028D01*
X30659771Y-22047676D01*
X30504090Y-22151699D01*
X30371699Y-22284090D01*
X30267676Y-22439771D01*
X30196028Y-22612746D01*
X30196025Y-22612756D01*
X30159500Y-22796381D01*
X29520500Y-22796381D01*
X29483974Y-22612756D01*
X29483973Y-22612749D01*
X29412322Y-22439769D01*
X29308302Y-22284092D01*
X29175908Y-22151698D01*
X29020231Y-22047678D01*
X29020230Y-22047677D01*
X29020228Y-22047676D01*
X28879200Y-21989261D01*
X28847251Y-21976027D01*
X28847247Y-21976026D01*
X28847243Y-21976025D01*
X28663619Y-21939500D01*
X28663616Y-21939500D01*
X28476384Y-21939500D01*
X28476381Y-21939500D01*
X28292756Y-21976025D01*
X28292746Y-21976028D01*
X28119771Y-22047676D01*
X27964090Y-22151699D01*
X27831699Y-22284090D01*
X27727676Y-22439771D01*
X27656028Y-22612746D01*
X27656025Y-22612756D01*
X27619500Y-22796381D01*
X26980500Y-22796381D01*
X26943974Y-22612756D01*
X26943973Y-22612749D01*
X26872322Y-22439769D01*
X26768302Y-22284092D01*
X26635908Y-22151698D01*
X26480231Y-22047678D01*
X26480230Y-22047677D01*
X26480228Y-22047676D01*
X26339200Y-21989261D01*
X26307251Y-21976027D01*
X26307247Y-21976026D01*
X26307243Y-21976025D01*
X26123619Y-21939500D01*
X26123616Y-21939500D01*
X25936384Y-21939500D01*
X25936381Y-21939500D01*
X25752756Y-21976025D01*
X25752746Y-21976028D01*
X25579771Y-22047676D01*
X25424090Y-22151699D01*
X25291699Y-22284090D01*
X25187676Y-22439771D01*
X25116028Y-22612746D01*
X25116025Y-22612756D01*
X25079500Y-22796381D01*
X24440500Y-22796381D01*
X24403974Y-22612756D01*
X24403973Y-22612749D01*
X24337606Y-22452525D01*
X24337606Y-22403543D01*
X24351476Y-22382783D01*
X26242364Y-20491897D01*
X26280500Y-20399828D01*
X26280500Y-20300173D01*
X26280500Y-14967816D01*
X26299245Y-14922561D01*
X26320007Y-14908689D01*
X26431510Y-14862503D01*
X26480227Y-14842324D01*
X26480228Y-14842323D01*
X26480231Y-14842322D01*
X26635908Y-14738302D01*
X26768302Y-14605908D01*
X26872322Y-14450231D01*
X26943973Y-14277251D01*
X26980500Y-14093616D01*
X26980500Y-13906384D01*
X26980500Y-13906381D01*
X27619500Y-13906381D01*
X27619500Y-14093618D01*
X27656025Y-14277243D01*
X27656028Y-14277253D01*
X27727676Y-14450228D01*
X27727677Y-14450230D01*
X27727678Y-14450231D01*
X27831698Y-14605908D01*
X27964092Y-14738302D01*
X28119769Y-14842322D01*
X28119770Y-14842322D01*
X28119771Y-14842323D01*
X28151718Y-14855556D01*
X28292749Y-14913973D01*
X28365599Y-14928463D01*
X28476381Y-14950500D01*
X28476384Y-14950500D01*
X28663619Y-14950500D01*
X28755851Y-14932153D01*
X28847251Y-14913973D01*
X29020231Y-14842322D01*
X29175908Y-14738302D01*
X29308302Y-14605908D01*
X29412322Y-14450231D01*
X29483973Y-14277251D01*
X29520500Y-14093616D01*
X29520500Y-13906384D01*
X29520500Y-13906381D01*
X30159500Y-13906381D01*
X30159500Y-14093618D01*
X30196025Y-14277243D01*
X30196028Y-14277253D01*
X30267676Y-14450228D01*
X30267677Y-14450230D01*
X30267678Y-14450231D01*
X30371698Y-14605908D01*
X30504092Y-14738302D01*
X30659769Y-14842322D01*
X30659770Y-14842322D01*
X30659771Y-14842323D01*
X30691718Y-14855556D01*
X30832749Y-14913973D01*
X30905599Y-14928463D01*
X31016381Y-14950500D01*
X31016384Y-14950500D01*
X31203619Y-14950500D01*
X31295851Y-14932153D01*
X31387251Y-14913973D01*
X31560231Y-14842322D01*
X31715908Y-14738302D01*
X31848302Y-14605908D01*
X31952322Y-14450231D01*
X32023973Y-14277251D01*
X32060500Y-14093616D01*
X32060500Y-13906384D01*
X32060500Y-13906381D01*
X35239500Y-13906381D01*
X35239500Y-14093618D01*
X35276025Y-14277243D01*
X35276028Y-14277253D01*
X35347676Y-14450228D01*
X35347677Y-14450230D01*
X35347678Y-14450231D01*
X35451698Y-14605908D01*
X35584092Y-14738302D01*
X35739769Y-14842322D01*
X35739770Y-14842322D01*
X35739771Y-14842323D01*
X35771718Y-14855556D01*
X35912749Y-14913973D01*
X35985599Y-14928463D01*
X36096381Y-14950500D01*
X36096384Y-14950500D01*
X36283619Y-14950500D01*
X36375851Y-14932153D01*
X36467251Y-14913973D01*
X36640231Y-14842322D01*
X36795908Y-14738302D01*
X36928302Y-14605908D01*
X37032322Y-14450231D01*
X37103973Y-14277251D01*
X37140500Y-14093616D01*
X37140500Y-13906384D01*
X37140500Y-13906381D01*
X37779500Y-13906381D01*
X37779500Y-14093618D01*
X37816025Y-14277243D01*
X37816028Y-14277253D01*
X37887676Y-14450228D01*
X37887677Y-14450230D01*
X37887678Y-14450231D01*
X37991698Y-14605908D01*
X38124092Y-14738302D01*
X38279769Y-14842322D01*
X38279770Y-14842322D01*
X38279771Y-14842323D01*
X38311718Y-14855556D01*
X38452749Y-14913973D01*
X38525599Y-14928463D01*
X38636381Y-14950500D01*
X38636384Y-14950500D01*
X38823619Y-14950500D01*
X38915851Y-14932153D01*
X39007251Y-14913973D01*
X39180231Y-14842322D01*
X39335908Y-14738302D01*
X39468302Y-14605908D01*
X39572322Y-14450231D01*
X39643973Y-14277251D01*
X39680500Y-14093616D01*
X39680500Y-13906384D01*
X39680500Y-13906381D01*
X40319500Y-13906381D01*
X40319500Y-14093618D01*
X40356025Y-14277243D01*
X40356028Y-14277253D01*
X40427676Y-14450228D01*
X40427677Y-14450230D01*
X40427678Y-14450231D01*
X40531698Y-14605908D01*
X40664092Y-14738302D01*
X40819769Y-14842322D01*
X40819770Y-14842322D01*
X40819771Y-14842323D01*
X40851718Y-14855556D01*
X40992749Y-14913973D01*
X41065599Y-14928463D01*
X41176381Y-14950500D01*
X41176384Y-14950500D01*
X41363619Y-14950500D01*
X41455851Y-14932153D01*
X41547251Y-14913973D01*
X41720231Y-14842322D01*
X41875908Y-14738302D01*
X42008302Y-14605908D01*
X42112322Y-14450231D01*
X42183973Y-14277251D01*
X42220500Y-14093616D01*
X42220500Y-13906384D01*
X42220500Y-13906381D01*
X42859500Y-13906381D01*
X42859500Y-14093618D01*
X42896025Y-14277243D01*
X42896028Y-14277253D01*
X42967676Y-14450228D01*
X42967677Y-14450230D01*
X42967678Y-14450231D01*
X43071698Y-14605908D01*
X43204092Y-14738302D01*
X43359769Y-14842322D01*
X43359770Y-14842322D01*
X43359771Y-14842323D01*
X43391718Y-14855556D01*
X43532749Y-14913973D01*
X43605599Y-14928463D01*
X43716381Y-14950500D01*
X43716384Y-14950500D01*
X43903619Y-14950500D01*
X43995851Y-14932153D01*
X44087251Y-14913973D01*
X44260231Y-14842322D01*
X44415908Y-14738302D01*
X44548302Y-14605908D01*
X44652322Y-14450231D01*
X44723973Y-14277251D01*
X44760500Y-14093616D01*
X44760500Y-13906384D01*
X44760500Y-13906381D01*
X47939500Y-13906381D01*
X47939500Y-14093618D01*
X47976025Y-14277243D01*
X47976028Y-14277253D01*
X48047676Y-14450228D01*
X48047677Y-14450230D01*
X48047678Y-14450231D01*
X48151698Y-14605908D01*
X48284092Y-14738302D01*
X48439769Y-14842322D01*
X48439770Y-14842322D01*
X48439771Y-14842323D01*
X48471718Y-14855556D01*
X48612749Y-14913973D01*
X48685599Y-14928463D01*
X48796381Y-14950500D01*
X48796384Y-14950500D01*
X48983619Y-14950500D01*
X49075851Y-14932153D01*
X49167251Y-14913973D01*
X49340231Y-14842322D01*
X49495908Y-14738302D01*
X49628302Y-14605908D01*
X49732322Y-14450231D01*
X49803973Y-14277251D01*
X49840500Y-14093616D01*
X49840500Y-13906384D01*
X49840500Y-13906381D01*
X50479500Y-13906381D01*
X50479500Y-14093618D01*
X50516025Y-14277243D01*
X50516028Y-14277253D01*
X50587676Y-14450228D01*
X50587677Y-14450230D01*
X50587678Y-14450231D01*
X50691698Y-14605908D01*
X50824092Y-14738302D01*
X50979769Y-14842322D01*
X50979770Y-14842322D01*
X50979771Y-14842323D01*
X51011718Y-14855556D01*
X51152749Y-14913973D01*
X51225599Y-14928463D01*
X51336381Y-14950500D01*
X51336384Y-14950500D01*
X51523619Y-14950500D01*
X51615851Y-14932153D01*
X51707251Y-14913973D01*
X51880231Y-14842322D01*
X52035908Y-14738302D01*
X52168302Y-14605908D01*
X52272322Y-14450231D01*
X52343973Y-14277251D01*
X52380500Y-14093616D01*
X52380500Y-13906384D01*
X52380500Y-13906381D01*
X53019500Y-13906381D01*
X53019500Y-14093618D01*
X53056025Y-14277243D01*
X53056028Y-14277253D01*
X53127676Y-14450228D01*
X53127677Y-14450230D01*
X53127678Y-14450231D01*
X53231698Y-14605908D01*
X53364092Y-14738302D01*
X53519769Y-14842322D01*
X53519770Y-14842322D01*
X53519771Y-14842323D01*
X53551718Y-14855556D01*
X53692749Y-14913973D01*
X53765599Y-14928463D01*
X53876381Y-14950500D01*
X53876384Y-14950500D01*
X54063619Y-14950500D01*
X54155851Y-14932153D01*
X54247251Y-14913973D01*
X54420231Y-14842322D01*
X54575908Y-14738302D01*
X54708302Y-14605908D01*
X54812322Y-14450231D01*
X54883973Y-14277251D01*
X54920500Y-14093616D01*
X54920500Y-13906384D01*
X54920500Y-13906381D01*
X55559500Y-13906381D01*
X55559500Y-14093618D01*
X55596025Y-14277243D01*
X55596028Y-14277253D01*
X55667676Y-14450228D01*
X55667677Y-14450230D01*
X55667678Y-14450231D01*
X55771698Y-14605908D01*
X55904092Y-14738302D01*
X56059769Y-14842322D01*
X56059770Y-14842322D01*
X56059771Y-14842323D01*
X56091718Y-14855556D01*
X56232749Y-14913973D01*
X56305599Y-14928463D01*
X56416381Y-14950500D01*
X56416384Y-14950500D01*
X56603619Y-14950500D01*
X56695851Y-14932153D01*
X56787251Y-14913973D01*
X56911510Y-14862503D01*
X56960491Y-14862503D01*
X56995128Y-14897139D01*
X57000000Y-14921631D01*
X57000000Y-21968368D01*
X56981255Y-22013623D01*
X56936000Y-22032368D01*
X56911508Y-22027496D01*
X56847060Y-22000801D01*
X56787251Y-21976027D01*
X56787247Y-21976026D01*
X56787243Y-21976025D01*
X56603619Y-21939500D01*
X56603616Y-21939500D01*
X56416384Y-21939500D01*
X56416381Y-21939500D01*
X56232756Y-21976025D01*
X56232746Y-21976028D01*
X56059771Y-22047676D01*
X55904090Y-22151699D01*
X55771699Y-22284090D01*
X55667676Y-22439771D01*
X55596028Y-22612746D01*
X55596025Y-22612756D01*
X55559500Y-22796381D01*
X55559500Y-22983618D01*
X55596025Y-23167243D01*
X55596028Y-23167253D01*
X55667676Y-23340228D01*
X55667677Y-23340230D01*
X55667678Y-23340231D01*
X55771698Y-23495908D01*
X55904092Y-23628302D01*
X56059769Y-23732322D01*
X56232749Y-23803973D01*
X56305599Y-23818463D01*
X56416381Y-23840500D01*
X56416384Y-23840500D01*
X56603619Y-23840500D01*
X56695851Y-23822153D01*
X56787251Y-23803973D01*
X56911510Y-23752503D01*
X56960491Y-23752503D01*
X56995128Y-23787139D01*
X57000000Y-23811631D01*
X57000000Y-29990000D01*
X61339896Y-29990000D01*
X61339896Y-29989999D01*
X64970678Y-25314745D01*
X65013240Y-25290500D01*
X65021225Y-25290000D01*
X66000000Y-25290000D01*
X66000000Y-20490000D01*
X65021225Y-20490000D01*
X64975970Y-20471255D01*
X64970678Y-20465255D01*
X63432241Y-18484255D01*
X63419288Y-18437015D01*
X63432241Y-18405745D01*
X64780004Y-16670271D01*
X64970678Y-16424744D01*
X65013240Y-16400500D01*
X65021225Y-16400000D01*
X66000000Y-16400000D01*
X66000000Y-11600000D01*
X65021225Y-11600000D01*
X64975970Y-11581255D01*
X64970678Y-11575255D01*
X61339896Y-6900000D01*
X61339895Y-6900000D01*
X57000000Y-6900000D01*
X57000000Y-13078368D01*
X56981255Y-13123623D01*
X56936000Y-13142368D01*
X56911508Y-13137496D01*
X56787253Y-13086028D01*
X56787254Y-13086028D01*
X56787251Y-13086027D01*
X56787247Y-13086026D01*
X56787243Y-13086025D01*
X56603619Y-13049500D01*
X56603616Y-13049500D01*
X56416384Y-13049500D01*
X56416381Y-13049500D01*
X56232756Y-13086025D01*
X56232746Y-13086028D01*
X56059771Y-13157676D01*
X55904090Y-13261699D01*
X55771699Y-13394090D01*
X55667676Y-13549771D01*
X55596028Y-13722746D01*
X55596025Y-13722756D01*
X55559500Y-13906381D01*
X54920500Y-13906381D01*
X54883974Y-13722756D01*
X54883973Y-13722749D01*
X54812322Y-13549769D01*
X54708302Y-13394092D01*
X54575908Y-13261698D01*
X54420231Y-13157678D01*
X54420230Y-13157677D01*
X54420228Y-13157676D01*
X54247253Y-13086028D01*
X54247254Y-13086028D01*
X54247251Y-13086027D01*
X54247247Y-13086026D01*
X54247243Y-13086025D01*
X54063619Y-13049500D01*
X54063616Y-13049500D01*
X53876384Y-13049500D01*
X53876381Y-13049500D01*
X53692756Y-13086025D01*
X53692746Y-13086028D01*
X53519771Y-13157676D01*
X53364090Y-13261699D01*
X53231699Y-13394090D01*
X53127676Y-13549771D01*
X53056028Y-13722746D01*
X53056025Y-13722756D01*
X53019500Y-13906381D01*
X52380500Y-13906381D01*
X52343974Y-13722756D01*
X52343973Y-13722749D01*
X52272322Y-13549769D01*
X52168302Y-13394092D01*
X52035908Y-13261698D01*
X51880231Y-13157678D01*
X51880230Y-13157677D01*
X51880228Y-13157676D01*
X51707253Y-13086028D01*
X51707254Y-13086028D01*
X51707251Y-13086027D01*
X51707247Y-13086026D01*
X51707243Y-13086025D01*
X51523619Y-13049500D01*
X51523616Y-13049500D01*
X51336384Y-13049500D01*
X51336381Y-13049500D01*
X51152756Y-13086025D01*
X51152746Y-13086028D01*
X50979771Y-13157676D01*
X50824090Y-13261699D01*
X50691699Y-13394090D01*
X50587676Y-13549771D01*
X50516028Y-13722746D01*
X50516025Y-13722756D01*
X50479500Y-13906381D01*
X49840500Y-13906381D01*
X49803974Y-13722756D01*
X49803973Y-13722749D01*
X49732322Y-13549769D01*
X49628302Y-13394092D01*
X49495908Y-13261698D01*
X49340231Y-13157678D01*
X49340230Y-13157677D01*
X49340228Y-13157676D01*
X49167253Y-13086028D01*
X49167254Y-13086028D01*
X49167251Y-13086027D01*
X49167247Y-13086026D01*
X49167243Y-13086025D01*
X48983619Y-13049500D01*
X48983616Y-13049500D01*
X48796384Y-13049500D01*
X48796381Y-13049500D01*
X48612756Y-13086025D01*
X48612746Y-13086028D01*
X48439771Y-13157676D01*
X48284090Y-13261699D01*
X48151699Y-13394090D01*
X48047676Y-13549771D01*
X47976028Y-13722746D01*
X47976025Y-13722756D01*
X47939500Y-13906381D01*
X44760500Y-13906381D01*
X44723974Y-13722756D01*
X44723973Y-13722749D01*
X44652322Y-13549769D01*
X44548302Y-13394092D01*
X44415908Y-13261698D01*
X44260231Y-13157678D01*
X44260230Y-13157677D01*
X44260228Y-13157676D01*
X44087253Y-13086028D01*
X44087254Y-13086028D01*
X44087251Y-13086027D01*
X44087247Y-13086026D01*
X44087243Y-13086025D01*
X43903619Y-13049500D01*
X43903616Y-13049500D01*
X43716384Y-13049500D01*
X43716381Y-13049500D01*
X43532756Y-13086025D01*
X43532746Y-13086028D01*
X43359771Y-13157676D01*
X43204090Y-13261699D01*
X43071699Y-13394090D01*
X42967676Y-13549771D01*
X42896028Y-13722746D01*
X42896025Y-13722756D01*
X42859500Y-13906381D01*
X42220500Y-13906381D01*
X42183974Y-13722756D01*
X42183973Y-13722749D01*
X42112322Y-13549769D01*
X42008302Y-13394092D01*
X41875908Y-13261698D01*
X41720231Y-13157678D01*
X41720230Y-13157677D01*
X41720228Y-13157676D01*
X41547253Y-13086028D01*
X41547254Y-13086028D01*
X41547251Y-13086027D01*
X41547247Y-13086026D01*
X41547243Y-13086025D01*
X41363619Y-13049500D01*
X41363616Y-13049500D01*
X41176384Y-13049500D01*
X41176381Y-13049500D01*
X40992756Y-13086025D01*
X40992746Y-13086028D01*
X40819771Y-13157676D01*
X40664090Y-13261699D01*
X40531699Y-13394090D01*
X40427676Y-13549771D01*
X40356028Y-13722746D01*
X40356025Y-13722756D01*
X40319500Y-13906381D01*
X39680500Y-13906381D01*
X39643974Y-13722756D01*
X39643973Y-13722749D01*
X39572322Y-13549769D01*
X39468302Y-13394092D01*
X39335908Y-13261698D01*
X39180231Y-13157678D01*
X39180230Y-13157677D01*
X39180228Y-13157676D01*
X39007253Y-13086028D01*
X39007254Y-13086028D01*
X39007251Y-13086027D01*
X39007247Y-13086026D01*
X39007243Y-13086025D01*
X38823619Y-13049500D01*
X38823616Y-13049500D01*
X38636384Y-13049500D01*
X38636381Y-13049500D01*
X38452756Y-13086025D01*
X38452746Y-13086028D01*
X38279771Y-13157676D01*
X38124090Y-13261699D01*
X37991699Y-13394090D01*
X37887676Y-13549771D01*
X37816028Y-13722746D01*
X37816025Y-13722756D01*
X37779500Y-13906381D01*
X37140500Y-13906381D01*
X37103974Y-13722756D01*
X37103973Y-13722749D01*
X37032322Y-13549769D01*
X36928302Y-13394092D01*
X36795908Y-13261698D01*
X36640231Y-13157678D01*
X36640230Y-13157677D01*
X36640228Y-13157676D01*
X36467253Y-13086028D01*
X36467254Y-13086028D01*
X36467251Y-13086027D01*
X36467247Y-13086026D01*
X36467243Y-13086025D01*
X36283619Y-13049500D01*
X36283616Y-13049500D01*
X36096384Y-13049500D01*
X36096381Y-13049500D01*
X35912756Y-13086025D01*
X35912746Y-13086028D01*
X35739771Y-13157676D01*
X35584090Y-13261699D01*
X35451699Y-13394090D01*
X35347676Y-13549771D01*
X35276028Y-13722746D01*
X35276025Y-13722756D01*
X35239500Y-13906381D01*
X32060500Y-13906381D01*
X32023974Y-13722756D01*
X32023973Y-13722749D01*
X31952322Y-13549769D01*
X31848302Y-13394092D01*
X31715908Y-13261698D01*
X31560231Y-13157678D01*
X31560230Y-13157677D01*
X31560228Y-13157676D01*
X31387253Y-13086028D01*
X31387254Y-13086028D01*
X31387251Y-13086027D01*
X31387247Y-13086026D01*
X31387243Y-13086025D01*
X31203619Y-13049500D01*
X31203616Y-13049500D01*
X31016384Y-13049500D01*
X31016381Y-13049500D01*
X30832756Y-13086025D01*
X30832746Y-13086028D01*
X30659771Y-13157676D01*
X30504090Y-13261699D01*
X30371699Y-13394090D01*
X30267676Y-13549771D01*
X30196028Y-13722746D01*
X30196025Y-13722756D01*
X30159500Y-13906381D01*
X29520500Y-13906381D01*
X29483974Y-13722756D01*
X29483973Y-13722749D01*
X29412322Y-13549769D01*
X29308302Y-13394092D01*
X29175908Y-13261698D01*
X29020231Y-13157678D01*
X29020230Y-13157677D01*
X29020228Y-13157676D01*
X28847253Y-13086028D01*
X28847254Y-13086028D01*
X28847251Y-13086027D01*
X28847247Y-13086026D01*
X28847243Y-13086025D01*
X28663619Y-13049500D01*
X28663616Y-13049500D01*
X28476384Y-13049500D01*
X28476381Y-13049500D01*
X28292756Y-13086025D01*
X28292746Y-13086028D01*
X28119771Y-13157676D01*
X27964090Y-13261699D01*
X27831699Y-13394090D01*
X27727676Y-13549771D01*
X27656028Y-13722746D01*
X27656025Y-13722756D01*
X27619500Y-13906381D01*
X26980500Y-13906381D01*
X26943974Y-13722756D01*
X26943973Y-13722749D01*
X26872322Y-13549769D01*
X26768302Y-13394092D01*
X26635908Y-13261698D01*
X26480231Y-13157678D01*
X26480230Y-13157677D01*
X26480228Y-13157676D01*
X26307253Y-13086028D01*
X26307254Y-13086028D01*
X26307251Y-13086027D01*
X26307247Y-13086026D01*
X26307243Y-13086025D01*
X26123619Y-13049500D01*
X26123616Y-13049500D01*
X25936384Y-13049500D01*
X25936381Y-13049500D01*
X25752756Y-13086025D01*
X25752746Y-13086028D01*
X25579771Y-13157676D01*
X25424090Y-13261699D01*
X25291699Y-13394090D01*
X25187676Y-13549771D01*
X25116028Y-13722746D01*
X25116025Y-13722756D01*
X25079500Y-13906381D01*
X25079500Y-14093618D01*
X25116025Y-14277243D01*
X25116028Y-14277253D01*
X25187676Y-14450228D01*
X25187677Y-14450230D01*
X25187678Y-14450231D01*
X25291698Y-14605908D01*
X25424092Y-14738302D01*
X25526129Y-14806481D01*
X25579772Y-14842324D01*
X25681246Y-14884355D01*
X25739991Y-14908688D01*
X25774628Y-14943324D01*
X25779500Y-14967816D01*
X25779500Y-20219728D01*
X25760755Y-20264983D01*
X23997218Y-22028519D01*
X23951963Y-22047264D01*
X23927471Y-22042392D01*
X23802423Y-21990595D01*
X23767251Y-21976027D01*
X23767247Y-21976026D01*
X23767243Y-21976025D01*
X23583619Y-21939500D01*
X23583616Y-21939500D01*
X23396384Y-21939500D01*
X23396381Y-21939500D01*
X23212756Y-21976025D01*
X23212746Y-21976028D01*
X23039771Y-22047676D01*
X22884090Y-22151699D01*
X22751699Y-22284090D01*
X22647676Y-22439771D01*
X22576028Y-22612746D01*
X22576025Y-22612756D01*
X22539500Y-22796381D01*
X19360500Y-22796381D01*
X19323974Y-22612756D01*
X19323973Y-22612749D01*
X19252322Y-22439769D01*
X19148302Y-22284092D01*
X19015908Y-22151698D01*
X18860231Y-22047678D01*
X18860230Y-22047677D01*
X18860228Y-22047676D01*
X18700008Y-21981311D01*
X18665372Y-21946675D01*
X18660500Y-21922183D01*
X18660500Y-16490172D01*
X18660499Y-16490169D01*
X18633399Y-16424745D01*
X18622364Y-16398103D01*
X18551897Y-16327636D01*
X16839245Y-14614984D01*
X16820500Y-14569729D01*
X16820500Y-13906381D01*
X17459500Y-13906381D01*
X17459500Y-14093618D01*
X17496025Y-14277243D01*
X17496028Y-14277253D01*
X17567676Y-14450228D01*
X17567677Y-14450230D01*
X17567678Y-14450231D01*
X17671698Y-14605908D01*
X17804092Y-14738302D01*
X17959769Y-14842322D01*
X17959770Y-14842322D01*
X17959771Y-14842323D01*
X17991718Y-14855556D01*
X18132749Y-14913973D01*
X18205599Y-14928463D01*
X18316381Y-14950500D01*
X18316384Y-14950500D01*
X18503619Y-14950500D01*
X18595851Y-14932153D01*
X18687251Y-14913973D01*
X18860231Y-14842322D01*
X19015908Y-14738302D01*
X19148302Y-14605908D01*
X19252322Y-14450231D01*
X19323973Y-14277251D01*
X19360500Y-14093616D01*
X19360500Y-13906384D01*
X19360500Y-13906381D01*
X22539500Y-13906381D01*
X22539500Y-14093618D01*
X22576025Y-14277243D01*
X22576028Y-14277253D01*
X22647676Y-14450228D01*
X22647677Y-14450230D01*
X22647678Y-14450231D01*
X22751698Y-14605908D01*
X22884092Y-14738302D01*
X23039769Y-14842322D01*
X23039770Y-14842322D01*
X23039771Y-14842323D01*
X23071718Y-14855556D01*
X23212749Y-14913973D01*
X23285599Y-14928463D01*
X23396381Y-14950500D01*
X23396384Y-14950500D01*
X23583619Y-14950500D01*
X23675851Y-14932153D01*
X23767251Y-14913973D01*
X23940231Y-14842322D01*
X24095908Y-14738302D01*
X24228302Y-14605908D01*
X24332322Y-14450231D01*
X24403973Y-14277251D01*
X24440500Y-14093616D01*
X24440500Y-13906384D01*
X24440500Y-13906381D01*
X24403974Y-13722756D01*
X24403973Y-13722749D01*
X24332322Y-13549769D01*
X24228302Y-13394092D01*
X24095908Y-13261698D01*
X23940231Y-13157678D01*
X23940230Y-13157677D01*
X23940228Y-13157676D01*
X23767253Y-13086028D01*
X23767254Y-13086028D01*
X23767251Y-13086027D01*
X23767247Y-13086026D01*
X23767243Y-13086025D01*
X23583619Y-13049500D01*
X23583616Y-13049500D01*
X23396384Y-13049500D01*
X23396381Y-13049500D01*
X23212756Y-13086025D01*
X23212746Y-13086028D01*
X23039771Y-13157676D01*
X22884090Y-13261699D01*
X22751699Y-13394090D01*
X22647676Y-13549771D01*
X22576028Y-13722746D01*
X22576025Y-13722756D01*
X22539500Y-13906381D01*
X19360500Y-13906381D01*
X19323974Y-13722756D01*
X19323973Y-13722749D01*
X19252322Y-13549769D01*
X19148302Y-13394092D01*
X19015908Y-13261698D01*
X18860231Y-13157678D01*
X18860230Y-13157677D01*
X18860228Y-13157676D01*
X18687253Y-13086028D01*
X18687254Y-13086028D01*
X18687251Y-13086027D01*
X18687247Y-13086026D01*
X18687243Y-13086025D01*
X18503619Y-13049500D01*
X18503616Y-13049500D01*
X18316384Y-13049500D01*
X18316381Y-13049500D01*
X18132756Y-13086025D01*
X18132746Y-13086028D01*
X17959771Y-13157676D01*
X17804090Y-13261699D01*
X17671699Y-13394090D01*
X17567676Y-13549771D01*
X17496028Y-13722746D01*
X17496025Y-13722756D01*
X17459500Y-13906381D01*
X16820500Y-13906381D01*
X16820500Y-13366738D01*
X16810574Y-13298612D01*
X16810573Y-13298610D01*
X16810573Y-13298607D01*
X16759198Y-13193517D01*
X16676483Y-13110802D01*
X16676482Y-13110801D01*
X16571395Y-13059428D01*
X16571393Y-13059427D01*
X16571391Y-13059426D01*
X16571387Y-13059425D01*
X16503261Y-13049500D01*
X16503260Y-13049500D01*
X15236740Y-13049500D01*
X15236739Y-13049500D01*
X15168612Y-13059425D01*
X15168604Y-13059428D01*
X15063518Y-13110801D01*
X15063517Y-13110801D01*
X14980801Y-13193517D01*
X14980801Y-13193518D01*
X14929428Y-13298604D01*
X14929425Y-13298612D01*
X14919500Y-13366738D01*
X13570499Y-13366738D01*
X13570499Y-5016381D01*
X14919500Y-5016381D01*
X14919500Y-5203618D01*
X14956025Y-5387243D01*
X14956028Y-5387253D01*
X15027676Y-5560228D01*
X15027677Y-5560230D01*
X15027678Y-5560231D01*
X15131698Y-5715908D01*
X15264092Y-5848302D01*
X15419769Y-5952322D01*
X15592749Y-6023973D01*
X15665599Y-6038463D01*
X15776381Y-6060500D01*
X15776384Y-6060500D01*
X15963619Y-6060500D01*
X16055851Y-6042153D01*
X16147251Y-6023973D01*
X16320231Y-5952322D01*
X16475908Y-5848302D01*
X16608302Y-5715908D01*
X16712322Y-5560231D01*
X16783973Y-5387251D01*
X16820500Y-5203616D01*
X16820500Y-5016384D01*
X16820500Y-5016381D01*
X17459500Y-5016381D01*
X17459500Y-5203618D01*
X17496025Y-5387243D01*
X17496028Y-5387253D01*
X17567676Y-5560228D01*
X17567677Y-5560230D01*
X17567678Y-5560231D01*
X17671698Y-5715908D01*
X17804092Y-5848302D01*
X17959769Y-5952322D01*
X18132749Y-6023973D01*
X18205599Y-6038463D01*
X18316381Y-6060500D01*
X18316384Y-6060500D01*
X18503619Y-6060500D01*
X18595851Y-6042153D01*
X18687251Y-6023973D01*
X18860231Y-5952322D01*
X19015908Y-5848302D01*
X19148302Y-5715908D01*
X19252322Y-5560231D01*
X19323973Y-5387251D01*
X19360500Y-5203616D01*
X19360500Y-5016384D01*
X19360500Y-5016381D01*
X22539500Y-5016381D01*
X22539500Y-5203618D01*
X22576025Y-5387243D01*
X22576028Y-5387253D01*
X22647676Y-5560228D01*
X22647677Y-5560230D01*
X22647678Y-5560231D01*
X22751698Y-5715908D01*
X22884092Y-5848302D01*
X23039769Y-5952322D01*
X23212749Y-6023973D01*
X23285599Y-6038463D01*
X23396381Y-6060500D01*
X23396384Y-6060500D01*
X23583619Y-6060500D01*
X23675851Y-6042153D01*
X23767251Y-6023973D01*
X23940231Y-5952322D01*
X24095908Y-5848302D01*
X24228302Y-5715908D01*
X24332322Y-5560231D01*
X24403973Y-5387251D01*
X24440500Y-5203616D01*
X24440500Y-5016384D01*
X24440500Y-5016381D01*
X25079500Y-5016381D01*
X25079500Y-5203618D01*
X25116025Y-5387243D01*
X25116028Y-5387253D01*
X25187676Y-5560228D01*
X25187677Y-5560230D01*
X25187678Y-5560231D01*
X25291698Y-5715908D01*
X25424092Y-5848302D01*
X25579769Y-5952322D01*
X25752749Y-6023973D01*
X25825599Y-6038463D01*
X25936381Y-6060500D01*
X25936384Y-6060500D01*
X26123619Y-6060500D01*
X26215851Y-6042153D01*
X26307251Y-6023973D01*
X26480231Y-5952322D01*
X26635908Y-5848302D01*
X26768302Y-5715908D01*
X26872322Y-5560231D01*
X26943973Y-5387251D01*
X26980500Y-5203616D01*
X26980500Y-5016384D01*
X26980500Y-5016381D01*
X27619500Y-5016381D01*
X27619500Y-5203618D01*
X27656025Y-5387243D01*
X27656028Y-5387253D01*
X27727676Y-5560228D01*
X27727677Y-5560230D01*
X27727678Y-5560231D01*
X27831698Y-5715908D01*
X27964092Y-5848302D01*
X28119769Y-5952322D01*
X28292749Y-6023973D01*
X28365599Y-6038463D01*
X28476381Y-6060500D01*
X28476384Y-6060500D01*
X28663619Y-6060500D01*
X28755851Y-6042153D01*
X28847251Y-6023973D01*
X29020231Y-5952322D01*
X29175908Y-5848302D01*
X29308302Y-5715908D01*
X29412322Y-5560231D01*
X29483973Y-5387251D01*
X29520500Y-5203616D01*
X29520500Y-5016384D01*
X29520500Y-5016381D01*
X30159500Y-5016381D01*
X30159500Y-5203618D01*
X30196025Y-5387243D01*
X30196028Y-5387253D01*
X30267676Y-5560228D01*
X30267677Y-5560230D01*
X30267678Y-5560231D01*
X30371698Y-5715908D01*
X30504092Y-5848302D01*
X30659769Y-5952322D01*
X30832749Y-6023973D01*
X30905599Y-6038463D01*
X31016381Y-6060500D01*
X31016384Y-6060500D01*
X31203619Y-6060500D01*
X31295851Y-6042153D01*
X31387251Y-6023973D01*
X31560231Y-5952322D01*
X31715908Y-5848302D01*
X31848302Y-5715908D01*
X31952322Y-5560231D01*
X32023973Y-5387251D01*
X32060500Y-5203616D01*
X32060500Y-5016384D01*
X32060500Y-5016381D01*
X35239500Y-5016381D01*
X35239500Y-5203618D01*
X35276025Y-5387243D01*
X35276028Y-5387253D01*
X35347676Y-5560228D01*
X35347677Y-5560230D01*
X35347678Y-5560231D01*
X35451698Y-5715908D01*
X35584092Y-5848302D01*
X35739769Y-5952322D01*
X35912749Y-6023973D01*
X35985599Y-6038463D01*
X36096381Y-6060500D01*
X36096384Y-6060500D01*
X36283619Y-6060500D01*
X36375851Y-6042153D01*
X36467251Y-6023973D01*
X36640231Y-5952322D01*
X36795908Y-5848302D01*
X36928302Y-5715908D01*
X37032322Y-5560231D01*
X37103973Y-5387251D01*
X37140500Y-5203616D01*
X37140500Y-5016384D01*
X37140500Y-5016381D01*
X37779500Y-5016381D01*
X37779500Y-5203618D01*
X37816025Y-5387243D01*
X37816028Y-5387253D01*
X37887676Y-5560228D01*
X37887677Y-5560230D01*
X37887678Y-5560231D01*
X37991698Y-5715908D01*
X38124092Y-5848302D01*
X38279769Y-5952322D01*
X38452749Y-6023973D01*
X38525599Y-6038463D01*
X38636381Y-6060500D01*
X38636384Y-6060500D01*
X38823619Y-6060500D01*
X38915851Y-6042153D01*
X39007251Y-6023973D01*
X39180231Y-5952322D01*
X39335908Y-5848302D01*
X39468302Y-5715908D01*
X39572322Y-5560231D01*
X39643973Y-5387251D01*
X39680500Y-5203616D01*
X39680500Y-5016384D01*
X39680500Y-5016381D01*
X40319500Y-5016381D01*
X40319500Y-5203618D01*
X40356025Y-5387243D01*
X40356028Y-5387253D01*
X40427676Y-5560228D01*
X40427677Y-5560230D01*
X40427678Y-5560231D01*
X40531698Y-5715908D01*
X40664092Y-5848302D01*
X40819769Y-5952322D01*
X40992749Y-6023973D01*
X41065599Y-6038463D01*
X41176381Y-6060500D01*
X41176384Y-6060500D01*
X41363619Y-6060500D01*
X41455851Y-6042153D01*
X41547251Y-6023973D01*
X41720231Y-5952322D01*
X41875908Y-5848302D01*
X42008302Y-5715908D01*
X42112322Y-5560231D01*
X42183973Y-5387251D01*
X42220500Y-5203616D01*
X42220500Y-5016384D01*
X42220500Y-5016381D01*
X42859500Y-5016381D01*
X42859500Y-5203618D01*
X42896025Y-5387243D01*
X42896028Y-5387253D01*
X42967676Y-5560228D01*
X42967677Y-5560230D01*
X42967678Y-5560231D01*
X43071698Y-5715908D01*
X43204092Y-5848302D01*
X43359769Y-5952322D01*
X43532749Y-6023973D01*
X43605599Y-6038463D01*
X43716381Y-6060500D01*
X43716384Y-6060500D01*
X43903619Y-6060500D01*
X43995851Y-6042153D01*
X44087251Y-6023973D01*
X44260231Y-5952322D01*
X44415908Y-5848302D01*
X44548302Y-5715908D01*
X44652322Y-5560231D01*
X44723973Y-5387251D01*
X44760500Y-5203616D01*
X44760500Y-5016384D01*
X44760500Y-5016381D01*
X47939500Y-5016381D01*
X47939500Y-5203618D01*
X47976025Y-5387243D01*
X47976028Y-5387253D01*
X48047676Y-5560228D01*
X48047677Y-5560230D01*
X48047678Y-5560231D01*
X48151698Y-5715908D01*
X48284092Y-5848302D01*
X48439769Y-5952322D01*
X48612749Y-6023973D01*
X48685599Y-6038463D01*
X48796381Y-6060500D01*
X48796384Y-6060500D01*
X48983619Y-6060500D01*
X49075851Y-6042153D01*
X49167251Y-6023973D01*
X49340231Y-5952322D01*
X49495908Y-5848302D01*
X49628302Y-5715908D01*
X49732322Y-5560231D01*
X49803973Y-5387251D01*
X49840500Y-5203616D01*
X49840500Y-5016384D01*
X49840500Y-5016381D01*
X50479500Y-5016381D01*
X50479500Y-5203618D01*
X50516025Y-5387243D01*
X50516028Y-5387253D01*
X50587676Y-5560228D01*
X50587677Y-5560230D01*
X50587678Y-5560231D01*
X50691698Y-5715908D01*
X50824092Y-5848302D01*
X50979769Y-5952322D01*
X51152749Y-6023973D01*
X51225599Y-6038463D01*
X51336381Y-6060500D01*
X51336384Y-6060500D01*
X51523619Y-6060500D01*
X51615851Y-6042153D01*
X51707251Y-6023973D01*
X51880231Y-5952322D01*
X52035908Y-5848302D01*
X52168302Y-5715908D01*
X52272322Y-5560231D01*
X52343973Y-5387251D01*
X52380500Y-5203616D01*
X52380500Y-5016384D01*
X52380500Y-5016381D01*
X53019500Y-5016381D01*
X53019500Y-5203618D01*
X53056025Y-5387243D01*
X53056028Y-5387253D01*
X53127676Y-5560228D01*
X53127677Y-5560230D01*
X53127678Y-5560231D01*
X53231698Y-5715908D01*
X53364092Y-5848302D01*
X53519769Y-5952322D01*
X53692749Y-6023973D01*
X53765599Y-6038463D01*
X53876381Y-6060500D01*
X53876384Y-6060500D01*
X54063619Y-6060500D01*
X54155851Y-6042153D01*
X54247251Y-6023973D01*
X54420231Y-5952322D01*
X54575908Y-5848302D01*
X54708302Y-5715908D01*
X54812322Y-5560231D01*
X54883973Y-5387251D01*
X54920500Y-5203616D01*
X54920500Y-5016384D01*
X54920500Y-5016381D01*
X55559500Y-5016381D01*
X55559500Y-5203618D01*
X55596025Y-5387243D01*
X55596028Y-5387253D01*
X55667676Y-5560228D01*
X55667677Y-5560230D01*
X55667678Y-5560231D01*
X55771698Y-5715908D01*
X55904092Y-5848302D01*
X56059769Y-5952322D01*
X56232749Y-6023973D01*
X56305599Y-6038463D01*
X56416381Y-6060500D01*
X56416384Y-6060500D01*
X56603619Y-6060500D01*
X56695851Y-6042153D01*
X56787251Y-6023973D01*
X56960231Y-5952322D01*
X57115908Y-5848302D01*
X57248302Y-5715908D01*
X57352322Y-5560231D01*
X57423973Y-5387251D01*
X57460500Y-5203616D01*
X57460500Y-5016384D01*
X57460500Y-5016381D01*
X60639500Y-5016381D01*
X60639500Y-5203618D01*
X60676025Y-5387243D01*
X60676028Y-5387253D01*
X60747676Y-5560228D01*
X60747677Y-5560230D01*
X60747678Y-5560231D01*
X60851698Y-5715908D01*
X60984092Y-5848302D01*
X61139769Y-5952322D01*
X61312749Y-6023973D01*
X61385599Y-6038463D01*
X61496381Y-6060500D01*
X61496384Y-6060500D01*
X61683619Y-6060500D01*
X61775851Y-6042153D01*
X61867251Y-6023973D01*
X62040231Y-5952322D01*
X62195908Y-5848302D01*
X62328302Y-5715908D01*
X62432322Y-5560231D01*
X62503973Y-5387251D01*
X62540500Y-5203616D01*
X62540500Y-5016384D01*
X62540500Y-5016381D01*
X63179500Y-5016381D01*
X63179500Y-5203618D01*
X63216025Y-5387243D01*
X63216028Y-5387253D01*
X63287676Y-5560228D01*
X63287677Y-5560230D01*
X63287678Y-5560231D01*
X63391698Y-5715908D01*
X63524092Y-5848302D01*
X63679769Y-5952322D01*
X63852749Y-6023973D01*
X63925599Y-6038463D01*
X64036381Y-6060500D01*
X64036384Y-6060500D01*
X64223619Y-6060500D01*
X64315851Y-6042153D01*
X64407251Y-6023973D01*
X64580231Y-5952322D01*
X64735908Y-5848302D01*
X64868302Y-5715908D01*
X64972322Y-5560231D01*
X65043973Y-5387251D01*
X65080500Y-5203616D01*
X65080500Y-5016384D01*
X65080500Y-5016381D01*
X65043974Y-4832756D01*
X65043973Y-4832749D01*
X64972322Y-4659769D01*
X64868302Y-4504092D01*
X64735908Y-4371698D01*
X64580231Y-4267678D01*
X64580230Y-4267677D01*
X64580228Y-4267676D01*
X64407253Y-4196028D01*
X64407254Y-4196028D01*
X64407251Y-4196027D01*
X64407247Y-4196026D01*
X64407243Y-4196025D01*
X64223619Y-4159500D01*
X64223616Y-4159500D01*
X64036384Y-4159500D01*
X64036381Y-4159500D01*
X63852756Y-4196025D01*
X63852746Y-4196028D01*
X63679771Y-4267676D01*
X63524090Y-4371699D01*
X63391699Y-4504090D01*
X63287676Y-4659771D01*
X63216028Y-4832746D01*
X63216025Y-4832756D01*
X63179500Y-5016381D01*
X62540500Y-5016381D01*
X62503974Y-4832756D01*
X62503973Y-4832749D01*
X62432322Y-4659769D01*
X62328302Y-4504092D01*
X62195908Y-4371698D01*
X62040231Y-4267678D01*
X62040230Y-4267677D01*
X62040228Y-4267676D01*
X61867253Y-4196028D01*
X61867254Y-4196028D01*
X61867251Y-4196027D01*
X61867247Y-4196026D01*
X61867243Y-4196025D01*
X61683619Y-4159500D01*
X61683616Y-4159500D01*
X61496384Y-4159500D01*
X61496381Y-4159500D01*
X61312756Y-4196025D01*
X61312746Y-4196028D01*
X61139771Y-4267676D01*
X60984090Y-4371699D01*
X60851699Y-4504090D01*
X60747676Y-4659771D01*
X60676028Y-4832746D01*
X60676025Y-4832756D01*
X60639500Y-5016381D01*
X57460500Y-5016381D01*
X57423974Y-4832756D01*
X57423973Y-4832749D01*
X57352322Y-4659769D01*
X57248302Y-4504092D01*
X57115908Y-4371698D01*
X56960231Y-4267678D01*
X56960230Y-4267677D01*
X56960228Y-4267676D01*
X56787253Y-4196028D01*
X56787254Y-4196028D01*
X56787251Y-4196027D01*
X56787247Y-4196026D01*
X56787243Y-4196025D01*
X56603619Y-4159500D01*
X56603616Y-4159500D01*
X56416384Y-4159500D01*
X56416381Y-4159500D01*
X56232756Y-4196025D01*
X56232746Y-4196028D01*
X56059771Y-4267676D01*
X55904090Y-4371699D01*
X55771699Y-4504090D01*
X55667676Y-4659771D01*
X55596028Y-4832746D01*
X55596025Y-4832756D01*
X55559500Y-5016381D01*
X54920500Y-5016381D01*
X54883974Y-4832756D01*
X54883973Y-4832749D01*
X54812322Y-4659769D01*
X54708302Y-4504092D01*
X54575908Y-4371698D01*
X54420231Y-4267678D01*
X54420230Y-4267677D01*
X54420228Y-4267676D01*
X54247253Y-4196028D01*
X54247254Y-4196028D01*
X54247251Y-4196027D01*
X54247247Y-4196026D01*
X54247243Y-4196025D01*
X54063619Y-4159500D01*
X54063616Y-4159500D01*
X53876384Y-4159500D01*
X53876381Y-4159500D01*
X53692756Y-4196025D01*
X53692746Y-4196028D01*
X53519771Y-4267676D01*
X53364090Y-4371699D01*
X53231699Y-4504090D01*
X53127676Y-4659771D01*
X53056028Y-4832746D01*
X53056025Y-4832756D01*
X53019500Y-5016381D01*
X52380500Y-5016381D01*
X52343974Y-4832756D01*
X52343973Y-4832749D01*
X52272322Y-4659769D01*
X52168302Y-4504092D01*
X52035908Y-4371698D01*
X51880231Y-4267678D01*
X51880230Y-4267677D01*
X51880228Y-4267676D01*
X51707253Y-4196028D01*
X51707254Y-4196028D01*
X51707251Y-4196027D01*
X51707247Y-4196026D01*
X51707243Y-4196025D01*
X51523619Y-4159500D01*
X51523616Y-4159500D01*
X51336384Y-4159500D01*
X51336381Y-4159500D01*
X51152756Y-4196025D01*
X51152746Y-4196028D01*
X50979771Y-4267676D01*
X50824090Y-4371699D01*
X50691699Y-4504090D01*
X50587676Y-4659771D01*
X50516028Y-4832746D01*
X50516025Y-4832756D01*
X50479500Y-5016381D01*
X49840500Y-5016381D01*
X49803974Y-4832756D01*
X49803973Y-4832749D01*
X49732322Y-4659769D01*
X49628302Y-4504092D01*
X49495908Y-4371698D01*
X49340231Y-4267678D01*
X49340230Y-4267677D01*
X49340228Y-4267676D01*
X49167253Y-4196028D01*
X49167254Y-4196028D01*
X49167251Y-4196027D01*
X49167247Y-4196026D01*
X49167243Y-4196025D01*
X48983619Y-4159500D01*
X48983616Y-4159500D01*
X48796384Y-4159500D01*
X48796381Y-4159500D01*
X48612756Y-4196025D01*
X48612746Y-4196028D01*
X48439771Y-4267676D01*
X48284090Y-4371699D01*
X48151699Y-4504090D01*
X48047676Y-4659771D01*
X47976028Y-4832746D01*
X47976025Y-4832756D01*
X47939500Y-5016381D01*
X44760500Y-5016381D01*
X44723974Y-4832756D01*
X44723973Y-4832749D01*
X44652322Y-4659769D01*
X44548302Y-4504092D01*
X44415908Y-4371698D01*
X44260231Y-4267678D01*
X44260230Y-4267677D01*
X44260228Y-4267676D01*
X44087253Y-4196028D01*
X44087254Y-4196028D01*
X44087251Y-4196027D01*
X44087247Y-4196026D01*
X44087243Y-4196025D01*
X43903619Y-4159500D01*
X43903616Y-4159500D01*
X43716384Y-4159500D01*
X43716381Y-4159500D01*
X43532756Y-4196025D01*
X43532746Y-4196028D01*
X43359771Y-4267676D01*
X43204090Y-4371699D01*
X43071699Y-4504090D01*
X42967676Y-4659771D01*
X42896028Y-4832746D01*
X42896025Y-4832756D01*
X42859500Y-5016381D01*
X42220500Y-5016381D01*
X42183974Y-4832756D01*
X42183973Y-4832749D01*
X42112322Y-4659769D01*
X42008302Y-4504092D01*
X41875908Y-4371698D01*
X41720231Y-4267678D01*
X41720230Y-4267677D01*
X41720228Y-4267676D01*
X41547253Y-4196028D01*
X41547254Y-4196028D01*
X41547251Y-4196027D01*
X41547247Y-4196026D01*
X41547243Y-4196025D01*
X41363619Y-4159500D01*
X41363616Y-4159500D01*
X41176384Y-4159500D01*
X41176381Y-4159500D01*
X40992756Y-4196025D01*
X40992746Y-4196028D01*
X40819771Y-4267676D01*
X40664090Y-4371699D01*
X40531699Y-4504090D01*
X40427676Y-4659771D01*
X40356028Y-4832746D01*
X40356025Y-4832756D01*
X40319500Y-5016381D01*
X39680500Y-5016381D01*
X39643974Y-4832756D01*
X39643973Y-4832749D01*
X39572322Y-4659769D01*
X39468302Y-4504092D01*
X39335908Y-4371698D01*
X39180231Y-4267678D01*
X39180230Y-4267677D01*
X39180228Y-4267676D01*
X39007253Y-4196028D01*
X39007254Y-4196028D01*
X39007251Y-4196027D01*
X39007247Y-4196026D01*
X39007243Y-4196025D01*
X38823619Y-4159500D01*
X38823616Y-4159500D01*
X38636384Y-4159500D01*
X38636381Y-4159500D01*
X38452756Y-4196025D01*
X38452746Y-4196028D01*
X38279771Y-4267676D01*
X38124090Y-4371699D01*
X37991699Y-4504090D01*
X37887676Y-4659771D01*
X37816028Y-4832746D01*
X37816025Y-4832756D01*
X37779500Y-5016381D01*
X37140500Y-5016381D01*
X37103974Y-4832756D01*
X37103973Y-4832749D01*
X37032322Y-4659769D01*
X36928302Y-4504092D01*
X36795908Y-4371698D01*
X36640231Y-4267678D01*
X36640230Y-4267677D01*
X36640228Y-4267676D01*
X36467253Y-4196028D01*
X36467254Y-4196028D01*
X36467251Y-4196027D01*
X36467247Y-4196026D01*
X36467243Y-4196025D01*
X36283619Y-4159500D01*
X36283616Y-4159500D01*
X36096384Y-4159500D01*
X36096381Y-4159500D01*
X35912756Y-4196025D01*
X35912746Y-4196028D01*
X35739771Y-4267676D01*
X35584090Y-4371699D01*
X35451699Y-4504090D01*
X35347676Y-4659771D01*
X35276028Y-4832746D01*
X35276025Y-4832756D01*
X35239500Y-5016381D01*
X32060500Y-5016381D01*
X32023974Y-4832756D01*
X32023973Y-4832749D01*
X31952322Y-4659769D01*
X31848302Y-4504092D01*
X31715908Y-4371698D01*
X31560231Y-4267678D01*
X31560230Y-4267677D01*
X31560228Y-4267676D01*
X31387253Y-4196028D01*
X31387254Y-4196028D01*
X31387251Y-4196027D01*
X31387247Y-4196026D01*
X31387243Y-4196025D01*
X31203619Y-4159500D01*
X31203616Y-4159500D01*
X31016384Y-4159500D01*
X31016381Y-4159500D01*
X30832756Y-4196025D01*
X30832746Y-4196028D01*
X30659771Y-4267676D01*
X30504090Y-4371699D01*
X30371699Y-4504090D01*
X30267676Y-4659771D01*
X30196028Y-4832746D01*
X30196025Y-4832756D01*
X30159500Y-5016381D01*
X29520500Y-5016381D01*
X29483974Y-4832756D01*
X29483973Y-4832749D01*
X29412322Y-4659769D01*
X29308302Y-4504092D01*
X29175908Y-4371698D01*
X29020231Y-4267678D01*
X29020230Y-4267677D01*
X29020228Y-4267676D01*
X28847253Y-4196028D01*
X28847254Y-4196028D01*
X28847251Y-4196027D01*
X28847247Y-4196026D01*
X28847243Y-4196025D01*
X28663619Y-4159500D01*
X28663616Y-4159500D01*
X28476384Y-4159500D01*
X28476381Y-4159500D01*
X28292756Y-4196025D01*
X28292746Y-4196028D01*
X28119771Y-4267676D01*
X27964090Y-4371699D01*
X27831699Y-4504090D01*
X27727676Y-4659771D01*
X27656028Y-4832746D01*
X27656025Y-4832756D01*
X27619500Y-5016381D01*
X26980500Y-5016381D01*
X26943974Y-4832756D01*
X26943973Y-4832749D01*
X26872322Y-4659769D01*
X26768302Y-4504092D01*
X26635908Y-4371698D01*
X26480231Y-4267678D01*
X26480230Y-4267677D01*
X26480228Y-4267676D01*
X26307253Y-4196028D01*
X26307254Y-4196028D01*
X26307251Y-4196027D01*
X26307247Y-4196026D01*
X26307243Y-4196025D01*
X26123619Y-4159500D01*
X26123616Y-4159500D01*
X25936384Y-4159500D01*
X25936381Y-4159500D01*
X25752756Y-4196025D01*
X25752746Y-4196028D01*
X25579771Y-4267676D01*
X25424090Y-4371699D01*
X25291699Y-4504090D01*
X25187676Y-4659771D01*
X25116028Y-4832746D01*
X25116025Y-4832756D01*
X25079500Y-5016381D01*
X24440500Y-5016381D01*
X24403974Y-4832756D01*
X24403973Y-4832749D01*
X24332322Y-4659769D01*
X24228302Y-4504092D01*
X24095908Y-4371698D01*
X23940231Y-4267678D01*
X23940230Y-4267677D01*
X23940228Y-4267676D01*
X23767253Y-4196028D01*
X23767254Y-4196028D01*
X23767251Y-4196027D01*
X23767247Y-4196026D01*
X23767243Y-4196025D01*
X23583619Y-4159500D01*
X23583616Y-4159500D01*
X23396384Y-4159500D01*
X23396381Y-4159500D01*
X23212756Y-4196025D01*
X23212746Y-4196028D01*
X23039771Y-4267676D01*
X22884090Y-4371699D01*
X22751699Y-4504090D01*
X22647676Y-4659771D01*
X22576028Y-4832746D01*
X22576025Y-4832756D01*
X22539500Y-5016381D01*
X19360500Y-5016381D01*
X19323974Y-4832756D01*
X19323973Y-4832749D01*
X19252322Y-4659769D01*
X19148302Y-4504092D01*
X19015908Y-4371698D01*
X18860231Y-4267678D01*
X18860230Y-4267677D01*
X18860228Y-4267676D01*
X18687253Y-4196028D01*
X18687254Y-4196028D01*
X18687251Y-4196027D01*
X18687247Y-4196026D01*
X18687243Y-4196025D01*
X18503619Y-4159500D01*
X18503616Y-4159500D01*
X18316384Y-4159500D01*
X18316381Y-4159500D01*
X18132756Y-4196025D01*
X18132746Y-4196028D01*
X17959771Y-4267676D01*
X17804090Y-4371699D01*
X17671699Y-4504090D01*
X17567676Y-4659771D01*
X17496028Y-4832746D01*
X17496025Y-4832756D01*
X17459500Y-5016381D01*
X16820500Y-5016381D01*
X16783974Y-4832756D01*
X16783973Y-4832749D01*
X16712322Y-4659769D01*
X16608302Y-4504092D01*
X16475908Y-4371698D01*
X16320231Y-4267678D01*
X16320230Y-4267677D01*
X16320228Y-4267676D01*
X16147253Y-4196028D01*
X16147254Y-4196028D01*
X16147251Y-4196027D01*
X16147247Y-4196026D01*
X16147243Y-4196025D01*
X15963619Y-4159500D01*
X15963616Y-4159500D01*
X15776384Y-4159500D01*
X15776381Y-4159500D01*
X15592756Y-4196025D01*
X15592746Y-4196028D01*
X15419771Y-4267676D01*
X15264090Y-4371699D01*
X15131699Y-4504090D01*
X15027676Y-4659771D01*
X14956028Y-4832746D01*
X14956025Y-4832756D01*
X14919500Y-5016381D01*
X13570499Y-5016381D01*
X13570499Y-2874500D01*
X13589244Y-2829245D01*
X13634499Y-2810500D01*
X66365499Y-2810500D01*
X66410754Y-2829245D01*
G37*
%TD.AperFunction*%
%TD*%
M02*
