M48
; DRILL file KiCad 10.0.3 date 2026-06-14T14:22:47
; FORMAT={-:-/ absolute / metric / decimal}
; #@! TF.CreationDate,2026-06-14T14:22:47+10:00
; #@! TF.GenerationSoftware,Kicad,Pcbnew,10.0.3
; #@! TF.FileFunction,MixedPlating,1,2
FMAT,2
METRIC
; #@! TA.AperFunction,Plated,PTH,ViaDrill
T1C0.300
; #@! TA.AperFunction,Plated,PTH,ComponentDrill
T2C1.000
%
G90
G05
T1
X40.061Y-42.718
T2
X15.87Y-5.11
X15.87Y-14.0
X15.87Y-22.89
X15.87Y-31.78
X15.87Y-41.61
X15.87Y-59.39
X18.41Y-5.11
X18.41Y-14.0
X18.41Y-22.89
X18.41Y-31.78
X18.41Y-41.61
X18.41Y-59.39
X20.95Y-5.11
X20.95Y-14.0
X20.95Y-22.89
X20.95Y-31.78
X20.95Y-41.61
X20.95Y-59.39
X23.49Y-5.11
X23.49Y-14.0
X23.49Y-22.89
X23.49Y-31.78
X23.49Y-41.61
X23.49Y-59.39
X26.03Y-5.11
X26.03Y-14.0
X26.03Y-22.89
X26.03Y-31.78
X26.03Y-41.61
X26.03Y-59.39
X28.57Y-5.11
X28.57Y-14.0
X28.57Y-22.89
X28.57Y-31.78
X28.57Y-41.61
X28.57Y-59.39
X31.11Y-5.11
X31.11Y-14.0
X31.11Y-22.89
X31.11Y-31.78
X31.11Y-41.61
X31.11Y-59.39
X33.65Y-5.11
X33.65Y-14.0
X33.65Y-22.89
X33.65Y-31.78
X33.65Y-41.61
X33.65Y-59.39
X36.19Y-5.11
X36.19Y-14.0
X36.19Y-22.89
X36.19Y-31.78
X36.19Y-41.61
X36.19Y-59.39
X38.73Y-5.11
X38.73Y-14.0
X38.73Y-22.89
X38.73Y-31.78
X38.73Y-41.61
X38.73Y-59.39
X41.27Y-5.11
X41.27Y-14.0
X41.27Y-22.89
X41.27Y-31.78
X41.27Y-41.61
X41.27Y-59.39
X43.81Y-5.11
X43.81Y-14.0
X43.81Y-22.89
X43.81Y-31.78
X43.81Y-41.61
X43.81Y-59.39
X46.35Y-5.11
X46.35Y-14.0
X46.35Y-22.89
X46.35Y-31.78
X46.35Y-41.61
X46.35Y-59.39
X48.89Y-5.11
X48.89Y-14.0
X48.89Y-22.89
X48.89Y-31.78
X48.89Y-41.61
X48.89Y-59.39
X51.43Y-5.11
X51.43Y-14.0
X51.43Y-22.89
X51.43Y-31.78
X51.43Y-41.61
X51.43Y-59.39
X53.97Y-5.11
X53.97Y-14.0
X53.97Y-22.89
X53.97Y-31.78
X53.97Y-41.61
X53.97Y-59.39
X56.51Y-5.11
X56.51Y-14.0
X56.51Y-22.89
X56.51Y-31.78
X56.51Y-41.61
X56.51Y-59.39
X59.05Y-5.11
X59.05Y-14.0
X59.05Y-22.89
X59.05Y-31.78
X59.05Y-41.61
X59.05Y-59.39
X61.59Y-5.11
X61.59Y-14.0
X61.59Y-22.89
X61.59Y-31.78
X61.59Y-41.61
X61.59Y-59.39
X64.13Y-5.11
X64.13Y-14.0
X64.13Y-22.89
X64.13Y-31.78
X64.13Y-41.61
X64.13Y-59.39
M30
