%TF.GenerationSoftware,KiCad,Pcbnew,10.0.3*%
%TF.CreationDate,2026-06-14T14:22:47+10:00*%
%TF.ProjectId,screen-hopper-header,73637265-656e-42d6-986f-707065722d68,rev?*%
%TF.SameCoordinates,Original*%
%TF.FileFunction,Soldermask,Bot*%
%TF.FilePolarity,Negative*%
%FSLAX46Y46*%
G04 Gerber Fmt 4.6, Leading zero omitted, Abs format (unit mm)*
G04 Created by KiCad (PCBNEW 10.0.3) date 2026-06-14 14:22:47*
%MOMM*%
%LPD*%
G01*
G04 APERTURE LIST*
G04 Aperture macros list*
%AMRoundRect*
0 Rectangle with rounded corners*
0 $1 Rounding radius*
0 $2 $3 $4 $5 $6 $7 $8 $9 X,Y pos of 4 corners*
0 Add a 4 corners polygon primitive as box body*
4,1,4,$2,$3,$4,$5,$6,$7,$8,$9,$2,$3,0*
0 Add four circle primitives for the rounded corners*
1,1,$1+$1,$2,$3*
1,1,$1+$1,$4,$5*
1,1,$1+$1,$6,$7*
1,1,$1+$1,$8,$9*
0 Add four rect primitives between the rounded corners*
20,1,$1+$1,$2,$3,$4,$5,0*
20,1,$1+$1,$4,$5,$6,$7,0*
20,1,$1+$1,$6,$7,$8,$9,0*
20,1,$1+$1,$8,$9,$2,$3,0*%
%AMFreePoly0*
4,1,37,0.603843,0.796157,0.639018,0.796157,0.711114,0.766294,0.766294,0.711114,0.796157,0.639018,0.796157,0.603843,0.800000,0.600000,0.800000,-0.600000,0.796157,-0.603843,0.796157,-0.639018,0.766294,-0.711114,0.711114,-0.766294,0.639018,-0.796157,0.603843,-0.796157,0.600000,-0.800000,0.000000,-0.800000,0.000000,-0.796148,-0.078414,-0.796148,-0.232228,-0.765552,-0.377117,-0.705537,
-0.507515,-0.618408,-0.618408,-0.507515,-0.705537,-0.377117,-0.765552,-0.232228,-0.796148,-0.078414,-0.796148,0.078414,-0.765552,0.232228,-0.705537,0.377117,-0.618408,0.507515,-0.507515,0.618408,-0.377117,0.705537,-0.232228,0.765552,-0.078414,0.796148,0.000000,0.796148,0.000000,0.800000,0.600000,0.800000,0.603843,0.796157,0.603843,0.796157,$1*%
%AMFreePoly1*
4,1,37,0.000000,0.796148,0.078414,0.796148,0.232228,0.765552,0.377117,0.705537,0.507515,0.618408,0.618408,0.507515,0.705537,0.377117,0.765552,0.232228,0.796148,0.078414,0.796148,-0.078414,0.765552,-0.232228,0.705537,-0.377117,0.618408,-0.507515,0.507515,-0.618408,0.377117,-0.705537,0.232228,-0.765552,0.078414,-0.796148,0.000000,-0.796148,0.000000,-0.800000,-0.600000,-0.800000,
-0.603843,-0.796157,-0.639018,-0.796157,-0.711114,-0.766294,-0.766294,-0.711114,-0.796157,-0.639018,-0.796157,-0.603843,-0.800000,-0.600000,-0.800000,0.600000,-0.796157,0.603843,-0.796157,0.639018,-0.766294,0.711114,-0.711114,0.766294,-0.639018,0.796157,-0.603843,0.796157,-0.600000,0.800000,0.000000,0.800000,0.000000,0.796148,0.000000,0.796148,$1*%
G04 Aperture macros list end*
%ADD10RoundRect,0.200000X0.600000X-0.600000X0.600000X0.600000X-0.600000X0.600000X-0.600000X-0.600000X0*%
%ADD11C,1.600000*%
%ADD12FreePoly0,90.000000*%
%ADD13FreePoly1,90.000000*%
%ADD14RoundRect,0.200000X-0.600000X0.600000X-0.600000X-0.600000X0.600000X-0.600000X0.600000X0.600000X0*%
%ADD15FreePoly0,270.000000*%
%ADD16FreePoly1,270.000000*%
G04 APERTURE END LIST*
D10*
%TO.C,A3*%
X15870000Y-59390000D03*
D11*
X18410000Y-59390000D03*
D12*
X20950000Y-59390000D03*
D11*
X23490000Y-59390000D03*
X26030000Y-59390000D03*
X28570000Y-59390000D03*
X31110000Y-59390000D03*
D12*
X33650000Y-59390000D03*
D11*
X36190000Y-59390000D03*
X38730000Y-59390000D03*
X41270000Y-59390000D03*
X43810000Y-59390000D03*
D12*
X46350000Y-59390000D03*
D11*
X48890000Y-59390000D03*
X51430000Y-59390000D03*
X53970000Y-59390000D03*
X56510000Y-59390000D03*
D12*
X59050000Y-59390000D03*
D11*
X61590000Y-59390000D03*
X64130000Y-59390000D03*
X64130000Y-41610000D03*
X61590000Y-41610000D03*
D13*
X59050000Y-41610000D03*
D11*
X56510000Y-41610000D03*
X53970000Y-41610000D03*
X51430000Y-41610000D03*
X48890000Y-41610000D03*
D13*
X46350000Y-41610000D03*
D11*
X43810000Y-41610000D03*
X41270000Y-41610000D03*
X38730000Y-41610000D03*
X36190000Y-41610000D03*
D13*
X33650000Y-41610000D03*
D11*
X31110000Y-41610000D03*
X28570000Y-41610000D03*
X26030000Y-41610000D03*
X23490000Y-41610000D03*
D13*
X20950000Y-41610000D03*
D11*
X18410000Y-41610000D03*
X15870000Y-41610000D03*
%TD*%
D10*
%TO.C,A1*%
X15870000Y-22890000D03*
D11*
X18410000Y-22890000D03*
D12*
X20950000Y-22890000D03*
D11*
X23490000Y-22890000D03*
X26030000Y-22890000D03*
X28570000Y-22890000D03*
X31110000Y-22890000D03*
D12*
X33650000Y-22890000D03*
D11*
X36190000Y-22890000D03*
X38730000Y-22890000D03*
X41270000Y-22890000D03*
X43810000Y-22890000D03*
D12*
X46350000Y-22890000D03*
D11*
X48890000Y-22890000D03*
X51430000Y-22890000D03*
X53970000Y-22890000D03*
X56510000Y-22890000D03*
D12*
X59050000Y-22890000D03*
D11*
X61590000Y-22890000D03*
X64130000Y-22890000D03*
X64130000Y-5110000D03*
X61590000Y-5110000D03*
D13*
X59050000Y-5110000D03*
D11*
X56510000Y-5110000D03*
X53970000Y-5110000D03*
X51430000Y-5110000D03*
X48890000Y-5110000D03*
D13*
X46350000Y-5110000D03*
D11*
X43810000Y-5110000D03*
X41270000Y-5110000D03*
X38730000Y-5110000D03*
X36190000Y-5110000D03*
D13*
X33650000Y-5110000D03*
D11*
X31110000Y-5110000D03*
X28570000Y-5110000D03*
X26030000Y-5110000D03*
X23490000Y-5110000D03*
D13*
X20950000Y-5110000D03*
D11*
X18410000Y-5110000D03*
X15870000Y-5110000D03*
%TD*%
D14*
%TO.C,A2*%
X15870000Y-14000000D03*
D11*
X18410000Y-14000000D03*
D15*
X20950000Y-14000000D03*
D11*
X23490000Y-14000000D03*
X26030000Y-14000000D03*
X28570000Y-14000000D03*
X31110000Y-14000000D03*
D15*
X33650000Y-14000000D03*
D11*
X36190000Y-14000000D03*
X38730000Y-14000000D03*
X41270000Y-14000000D03*
X43810000Y-14000000D03*
D15*
X46350000Y-14000000D03*
D11*
X48890000Y-14000000D03*
X51430000Y-14000000D03*
X53970000Y-14000000D03*
X56510000Y-14000000D03*
D15*
X59050000Y-14000000D03*
D11*
X61590000Y-14000000D03*
X64130000Y-14000000D03*
X64130000Y-31780000D03*
X61590000Y-31780000D03*
D16*
X59050000Y-31780000D03*
D11*
X56510000Y-31780000D03*
X53970000Y-31780000D03*
X51430000Y-31780000D03*
X48890000Y-31780000D03*
D16*
X46350000Y-31780000D03*
D11*
X43810000Y-31780000D03*
X41270000Y-31780000D03*
X38730000Y-31780000D03*
X36190000Y-31780000D03*
D16*
X33650000Y-31780000D03*
D11*
X31110000Y-31780000D03*
X28570000Y-31780000D03*
X26030000Y-31780000D03*
X23490000Y-31780000D03*
D16*
X20950000Y-31780000D03*
D11*
X18410000Y-31780000D03*
X15870000Y-31780000D03*
%TD*%
M02*
