%TF.GenerationSoftware,KiCad,Pcbnew,10.0.3*%
%TF.CreationDate,2026-06-14T14:22:47+10:00*%
%TF.ProjectId,screen-hopper-header,73637265-656e-42d6-986f-707065722d68,rev?*%
%TF.SameCoordinates,Original*%
%TF.FileFunction,Drillmap*%
%TF.FilePolarity,Positive*%
%FSLAX45Y45*%
G04 Gerber Fmt 4.5, Leading zero omitted, Abs format (unit mm)*
G04 Created by KiCad (PCBNEW 10.0.3) date 2026-06-14 14:22:47*
%MOMM*%
%LPD*%
G01*
G04 APERTURE LIST*
%ADD10C,0.150000*%
%ADD11C,0.200000*%
%ADD12C,0.100000*%
G04 APERTURE END LIST*
D10*
X1307000Y-231000D02*
X6693000Y-231000D01*
X1307000Y-6219000D02*
X1307000Y-231000D01*
X6693000Y-231000D02*
X6693000Y-6219000D01*
X6693000Y-6219000D02*
X1307000Y-6219000D01*
D11*
D12*
X3991110Y-4256850D02*
X4021110Y-4286850D01*
X4021110Y-4256850D02*
X3991110Y-4286850D01*
X1637000Y-511000D02*
G75*
G02*
X1537000Y-511000I-50000J0D01*
G01*
X1537000Y-511000D02*
G75*
G02*
X1637000Y-511000I50000J0D01*
G01*
X1637000Y-1400000D02*
G75*
G02*
X1537000Y-1400000I-50000J0D01*
G01*
X1537000Y-1400000D02*
G75*
G02*
X1637000Y-1400000I50000J0D01*
G01*
X1637000Y-2289000D02*
G75*
G02*
X1537000Y-2289000I-50000J0D01*
G01*
X1537000Y-2289000D02*
G75*
G02*
X1637000Y-2289000I50000J0D01*
G01*
X1637000Y-3178000D02*
G75*
G02*
X1537000Y-3178000I-50000J0D01*
G01*
X1537000Y-3178000D02*
G75*
G02*
X1637000Y-3178000I50000J0D01*
G01*
X1637000Y-4161000D02*
G75*
G02*
X1537000Y-4161000I-50000J0D01*
G01*
X1537000Y-4161000D02*
G75*
G02*
X1637000Y-4161000I50000J0D01*
G01*
X1637000Y-5939000D02*
G75*
G02*
X1537000Y-5939000I-50000J0D01*
G01*
X1537000Y-5939000D02*
G75*
G02*
X1637000Y-5939000I50000J0D01*
G01*
X1891000Y-511000D02*
G75*
G02*
X1791000Y-511000I-50000J0D01*
G01*
X1791000Y-511000D02*
G75*
G02*
X1891000Y-511000I50000J0D01*
G01*
X1891000Y-1400000D02*
G75*
G02*
X1791000Y-1400000I-50000J0D01*
G01*
X1791000Y-1400000D02*
G75*
G02*
X1891000Y-1400000I50000J0D01*
G01*
X1891000Y-2289000D02*
G75*
G02*
X1791000Y-2289000I-50000J0D01*
G01*
X1791000Y-2289000D02*
G75*
G02*
X1891000Y-2289000I50000J0D01*
G01*
X1891000Y-3178000D02*
G75*
G02*
X1791000Y-3178000I-50000J0D01*
G01*
X1791000Y-3178000D02*
G75*
G02*
X1891000Y-3178000I50000J0D01*
G01*
X1891000Y-4161000D02*
G75*
G02*
X1791000Y-4161000I-50000J0D01*
G01*
X1791000Y-4161000D02*
G75*
G02*
X1891000Y-4161000I50000J0D01*
G01*
X1891000Y-5939000D02*
G75*
G02*
X1791000Y-5939000I-50000J0D01*
G01*
X1791000Y-5939000D02*
G75*
G02*
X1891000Y-5939000I50000J0D01*
G01*
X2145000Y-511000D02*
G75*
G02*
X2045000Y-511000I-50000J0D01*
G01*
X2045000Y-511000D02*
G75*
G02*
X2145000Y-511000I50000J0D01*
G01*
X2145000Y-1400000D02*
G75*
G02*
X2045000Y-1400000I-50000J0D01*
G01*
X2045000Y-1400000D02*
G75*
G02*
X2145000Y-1400000I50000J0D01*
G01*
X2145000Y-2289000D02*
G75*
G02*
X2045000Y-2289000I-50000J0D01*
G01*
X2045000Y-2289000D02*
G75*
G02*
X2145000Y-2289000I50000J0D01*
G01*
X2145000Y-3178000D02*
G75*
G02*
X2045000Y-3178000I-50000J0D01*
G01*
X2045000Y-3178000D02*
G75*
G02*
X2145000Y-3178000I50000J0D01*
G01*
X2145000Y-4161000D02*
G75*
G02*
X2045000Y-4161000I-50000J0D01*
G01*
X2045000Y-4161000D02*
G75*
G02*
X2145000Y-4161000I50000J0D01*
G01*
X2145000Y-5939000D02*
G75*
G02*
X2045000Y-5939000I-50000J0D01*
G01*
X2045000Y-5939000D02*
G75*
G02*
X2145000Y-5939000I50000J0D01*
G01*
X2399000Y-511000D02*
G75*
G02*
X2299000Y-511000I-50000J0D01*
G01*
X2299000Y-511000D02*
G75*
G02*
X2399000Y-511000I50000J0D01*
G01*
X2399000Y-1400000D02*
G75*
G02*
X2299000Y-1400000I-50000J0D01*
G01*
X2299000Y-1400000D02*
G75*
G02*
X2399000Y-1400000I50000J0D01*
G01*
X2399000Y-2289000D02*
G75*
G02*
X2299000Y-2289000I-50000J0D01*
G01*
X2299000Y-2289000D02*
G75*
G02*
X2399000Y-2289000I50000J0D01*
G01*
X2399000Y-3178000D02*
G75*
G02*
X2299000Y-3178000I-50000J0D01*
G01*
X2299000Y-3178000D02*
G75*
G02*
X2399000Y-3178000I50000J0D01*
G01*
X2399000Y-4161000D02*
G75*
G02*
X2299000Y-4161000I-50000J0D01*
G01*
X2299000Y-4161000D02*
G75*
G02*
X2399000Y-4161000I50000J0D01*
G01*
X2399000Y-5939000D02*
G75*
G02*
X2299000Y-5939000I-50000J0D01*
G01*
X2299000Y-5939000D02*
G75*
G02*
X2399000Y-5939000I50000J0D01*
G01*
X2653000Y-511000D02*
G75*
G02*
X2553000Y-511000I-50000J0D01*
G01*
X2553000Y-511000D02*
G75*
G02*
X2653000Y-511000I50000J0D01*
G01*
X2653000Y-1400000D02*
G75*
G02*
X2553000Y-1400000I-50000J0D01*
G01*
X2553000Y-1400000D02*
G75*
G02*
X2653000Y-1400000I50000J0D01*
G01*
X2653000Y-2289000D02*
G75*
G02*
X2553000Y-2289000I-50000J0D01*
G01*
X2553000Y-2289000D02*
G75*
G02*
X2653000Y-2289000I50000J0D01*
G01*
X2653000Y-3178000D02*
G75*
G02*
X2553000Y-3178000I-50000J0D01*
G01*
X2553000Y-3178000D02*
G75*
G02*
X2653000Y-3178000I50000J0D01*
G01*
X2653000Y-4161000D02*
G75*
G02*
X2553000Y-4161000I-50000J0D01*
G01*
X2553000Y-4161000D02*
G75*
G02*
X2653000Y-4161000I50000J0D01*
G01*
X2653000Y-5939000D02*
G75*
G02*
X2553000Y-5939000I-50000J0D01*
G01*
X2553000Y-5939000D02*
G75*
G02*
X2653000Y-5939000I50000J0D01*
G01*
X2907000Y-511000D02*
G75*
G02*
X2807000Y-511000I-50000J0D01*
G01*
X2807000Y-511000D02*
G75*
G02*
X2907000Y-511000I50000J0D01*
G01*
X2907000Y-1400000D02*
G75*
G02*
X2807000Y-1400000I-50000J0D01*
G01*
X2807000Y-1400000D02*
G75*
G02*
X2907000Y-1400000I50000J0D01*
G01*
X2907000Y-2289000D02*
G75*
G02*
X2807000Y-2289000I-50000J0D01*
G01*
X2807000Y-2289000D02*
G75*
G02*
X2907000Y-2289000I50000J0D01*
G01*
X2907000Y-3178000D02*
G75*
G02*
X2807000Y-3178000I-50000J0D01*
G01*
X2807000Y-3178000D02*
G75*
G02*
X2907000Y-3178000I50000J0D01*
G01*
X2907000Y-4161000D02*
G75*
G02*
X2807000Y-4161000I-50000J0D01*
G01*
X2807000Y-4161000D02*
G75*
G02*
X2907000Y-4161000I50000J0D01*
G01*
X2907000Y-5939000D02*
G75*
G02*
X2807000Y-5939000I-50000J0D01*
G01*
X2807000Y-5939000D02*
G75*
G02*
X2907000Y-5939000I50000J0D01*
G01*
X3161000Y-511000D02*
G75*
G02*
X3061000Y-511000I-50000J0D01*
G01*
X3061000Y-511000D02*
G75*
G02*
X3161000Y-511000I50000J0D01*
G01*
X3161000Y-1400000D02*
G75*
G02*
X3061000Y-1400000I-50000J0D01*
G01*
X3061000Y-1400000D02*
G75*
G02*
X3161000Y-1400000I50000J0D01*
G01*
X3161000Y-2289000D02*
G75*
G02*
X3061000Y-2289000I-50000J0D01*
G01*
X3061000Y-2289000D02*
G75*
G02*
X3161000Y-2289000I50000J0D01*
G01*
X3161000Y-3178000D02*
G75*
G02*
X3061000Y-3178000I-50000J0D01*
G01*
X3061000Y-3178000D02*
G75*
G02*
X3161000Y-3178000I50000J0D01*
G01*
X3161000Y-4161000D02*
G75*
G02*
X3061000Y-4161000I-50000J0D01*
G01*
X3061000Y-4161000D02*
G75*
G02*
X3161000Y-4161000I50000J0D01*
G01*
X3161000Y-5939000D02*
G75*
G02*
X3061000Y-5939000I-50000J0D01*
G01*
X3061000Y-5939000D02*
G75*
G02*
X3161000Y-5939000I50000J0D01*
G01*
X3415000Y-511000D02*
G75*
G02*
X3315000Y-511000I-50000J0D01*
G01*
X3315000Y-511000D02*
G75*
G02*
X3415000Y-511000I50000J0D01*
G01*
X3415000Y-1400000D02*
G75*
G02*
X3315000Y-1400000I-50000J0D01*
G01*
X3315000Y-1400000D02*
G75*
G02*
X3415000Y-1400000I50000J0D01*
G01*
X3415000Y-2289000D02*
G75*
G02*
X3315000Y-2289000I-50000J0D01*
G01*
X3315000Y-2289000D02*
G75*
G02*
X3415000Y-2289000I50000J0D01*
G01*
X3415000Y-3178000D02*
G75*
G02*
X3315000Y-3178000I-50000J0D01*
G01*
X3315000Y-3178000D02*
G75*
G02*
X3415000Y-3178000I50000J0D01*
G01*
X3415000Y-4161000D02*
G75*
G02*
X3315000Y-4161000I-50000J0D01*
G01*
X3315000Y-4161000D02*
G75*
G02*
X3415000Y-4161000I50000J0D01*
G01*
X3415000Y-5939000D02*
G75*
G02*
X3315000Y-5939000I-50000J0D01*
G01*
X3315000Y-5939000D02*
G75*
G02*
X3415000Y-5939000I50000J0D01*
G01*
X3669000Y-511000D02*
G75*
G02*
X3569000Y-511000I-50000J0D01*
G01*
X3569000Y-511000D02*
G75*
G02*
X3669000Y-511000I50000J0D01*
G01*
X3669000Y-1400000D02*
G75*
G02*
X3569000Y-1400000I-50000J0D01*
G01*
X3569000Y-1400000D02*
G75*
G02*
X3669000Y-1400000I50000J0D01*
G01*
X3669000Y-2289000D02*
G75*
G02*
X3569000Y-2289000I-50000J0D01*
G01*
X3569000Y-2289000D02*
G75*
G02*
X3669000Y-2289000I50000J0D01*
G01*
X3669000Y-3178000D02*
G75*
G02*
X3569000Y-3178000I-50000J0D01*
G01*
X3569000Y-3178000D02*
G75*
G02*
X3669000Y-3178000I50000J0D01*
G01*
X3669000Y-4161000D02*
G75*
G02*
X3569000Y-4161000I-50000J0D01*
G01*
X3569000Y-4161000D02*
G75*
G02*
X3669000Y-4161000I50000J0D01*
G01*
X3669000Y-5939000D02*
G75*
G02*
X3569000Y-5939000I-50000J0D01*
G01*
X3569000Y-5939000D02*
G75*
G02*
X3669000Y-5939000I50000J0D01*
G01*
X3923000Y-511000D02*
G75*
G02*
X3823000Y-511000I-50000J0D01*
G01*
X3823000Y-511000D02*
G75*
G02*
X3923000Y-511000I50000J0D01*
G01*
X3923000Y-1400000D02*
G75*
G02*
X3823000Y-1400000I-50000J0D01*
G01*
X3823000Y-1400000D02*
G75*
G02*
X3923000Y-1400000I50000J0D01*
G01*
X3923000Y-2289000D02*
G75*
G02*
X3823000Y-2289000I-50000J0D01*
G01*
X3823000Y-2289000D02*
G75*
G02*
X3923000Y-2289000I50000J0D01*
G01*
X3923000Y-3178000D02*
G75*
G02*
X3823000Y-3178000I-50000J0D01*
G01*
X3823000Y-3178000D02*
G75*
G02*
X3923000Y-3178000I50000J0D01*
G01*
X3923000Y-4161000D02*
G75*
G02*
X3823000Y-4161000I-50000J0D01*
G01*
X3823000Y-4161000D02*
G75*
G02*
X3923000Y-4161000I50000J0D01*
G01*
X3923000Y-5939000D02*
G75*
G02*
X3823000Y-5939000I-50000J0D01*
G01*
X3823000Y-5939000D02*
G75*
G02*
X3923000Y-5939000I50000J0D01*
G01*
X4177000Y-511000D02*
G75*
G02*
X4077000Y-511000I-50000J0D01*
G01*
X4077000Y-511000D02*
G75*
G02*
X4177000Y-511000I50000J0D01*
G01*
X4177000Y-1400000D02*
G75*
G02*
X4077000Y-1400000I-50000J0D01*
G01*
X4077000Y-1400000D02*
G75*
G02*
X4177000Y-1400000I50000J0D01*
G01*
X4177000Y-2289000D02*
G75*
G02*
X4077000Y-2289000I-50000J0D01*
G01*
X4077000Y-2289000D02*
G75*
G02*
X4177000Y-2289000I50000J0D01*
G01*
X4177000Y-3178000D02*
G75*
G02*
X4077000Y-3178000I-50000J0D01*
G01*
X4077000Y-3178000D02*
G75*
G02*
X4177000Y-3178000I50000J0D01*
G01*
X4177000Y-4161000D02*
G75*
G02*
X4077000Y-4161000I-50000J0D01*
G01*
X4077000Y-4161000D02*
G75*
G02*
X4177000Y-4161000I50000J0D01*
G01*
X4177000Y-5939000D02*
G75*
G02*
X4077000Y-5939000I-50000J0D01*
G01*
X4077000Y-5939000D02*
G75*
G02*
X4177000Y-5939000I50000J0D01*
G01*
X4431000Y-511000D02*
G75*
G02*
X4331000Y-511000I-50000J0D01*
G01*
X4331000Y-511000D02*
G75*
G02*
X4431000Y-511000I50000J0D01*
G01*
X4431000Y-1400000D02*
G75*
G02*
X4331000Y-1400000I-50000J0D01*
G01*
X4331000Y-1400000D02*
G75*
G02*
X4431000Y-1400000I50000J0D01*
G01*
X4431000Y-2289000D02*
G75*
G02*
X4331000Y-2289000I-50000J0D01*
G01*
X4331000Y-2289000D02*
G75*
G02*
X4431000Y-2289000I50000J0D01*
G01*
X4431000Y-3178000D02*
G75*
G02*
X4331000Y-3178000I-50000J0D01*
G01*
X4331000Y-3178000D02*
G75*
G02*
X4431000Y-3178000I50000J0D01*
G01*
X4431000Y-4161000D02*
G75*
G02*
X4331000Y-4161000I-50000J0D01*
G01*
X4331000Y-4161000D02*
G75*
G02*
X4431000Y-4161000I50000J0D01*
G01*
X4431000Y-5939000D02*
G75*
G02*
X4331000Y-5939000I-50000J0D01*
G01*
X4331000Y-5939000D02*
G75*
G02*
X4431000Y-5939000I50000J0D01*
G01*
X4685000Y-511000D02*
G75*
G02*
X4585000Y-511000I-50000J0D01*
G01*
X4585000Y-511000D02*
G75*
G02*
X4685000Y-511000I50000J0D01*
G01*
X4685000Y-1400000D02*
G75*
G02*
X4585000Y-1400000I-50000J0D01*
G01*
X4585000Y-1400000D02*
G75*
G02*
X4685000Y-1400000I50000J0D01*
G01*
X4685000Y-2289000D02*
G75*
G02*
X4585000Y-2289000I-50000J0D01*
G01*
X4585000Y-2289000D02*
G75*
G02*
X4685000Y-2289000I50000J0D01*
G01*
X4685000Y-3178000D02*
G75*
G02*
X4585000Y-3178000I-50000J0D01*
G01*
X4585000Y-3178000D02*
G75*
G02*
X4685000Y-3178000I50000J0D01*
G01*
X4685000Y-4161000D02*
G75*
G02*
X4585000Y-4161000I-50000J0D01*
G01*
X4585000Y-4161000D02*
G75*
G02*
X4685000Y-4161000I50000J0D01*
G01*
X4685000Y-5939000D02*
G75*
G02*
X4585000Y-5939000I-50000J0D01*
G01*
X4585000Y-5939000D02*
G75*
G02*
X4685000Y-5939000I50000J0D01*
G01*
X4939000Y-511000D02*
G75*
G02*
X4839000Y-511000I-50000J0D01*
G01*
X4839000Y-511000D02*
G75*
G02*
X4939000Y-511000I50000J0D01*
G01*
X4939000Y-1400000D02*
G75*
G02*
X4839000Y-1400000I-50000J0D01*
G01*
X4839000Y-1400000D02*
G75*
G02*
X4939000Y-1400000I50000J0D01*
G01*
X4939000Y-2289000D02*
G75*
G02*
X4839000Y-2289000I-50000J0D01*
G01*
X4839000Y-2289000D02*
G75*
G02*
X4939000Y-2289000I50000J0D01*
G01*
X4939000Y-3178000D02*
G75*
G02*
X4839000Y-3178000I-50000J0D01*
G01*
X4839000Y-3178000D02*
G75*
G02*
X4939000Y-3178000I50000J0D01*
G01*
X4939000Y-4161000D02*
G75*
G02*
X4839000Y-4161000I-50000J0D01*
G01*
X4839000Y-4161000D02*
G75*
G02*
X4939000Y-4161000I50000J0D01*
G01*
X4939000Y-5939000D02*
G75*
G02*
X4839000Y-5939000I-50000J0D01*
G01*
X4839000Y-5939000D02*
G75*
G02*
X4939000Y-5939000I50000J0D01*
G01*
X5193000Y-511000D02*
G75*
G02*
X5093000Y-511000I-50000J0D01*
G01*
X5093000Y-511000D02*
G75*
G02*
X5193000Y-511000I50000J0D01*
G01*
X5193000Y-1400000D02*
G75*
G02*
X5093000Y-1400000I-50000J0D01*
G01*
X5093000Y-1400000D02*
G75*
G02*
X5193000Y-1400000I50000J0D01*
G01*
X5193000Y-2289000D02*
G75*
G02*
X5093000Y-2289000I-50000J0D01*
G01*
X5093000Y-2289000D02*
G75*
G02*
X5193000Y-2289000I50000J0D01*
G01*
X5193000Y-3178000D02*
G75*
G02*
X5093000Y-3178000I-50000J0D01*
G01*
X5093000Y-3178000D02*
G75*
G02*
X5193000Y-3178000I50000J0D01*
G01*
X5193000Y-4161000D02*
G75*
G02*
X5093000Y-4161000I-50000J0D01*
G01*
X5093000Y-4161000D02*
G75*
G02*
X5193000Y-4161000I50000J0D01*
G01*
X5193000Y-5939000D02*
G75*
G02*
X5093000Y-5939000I-50000J0D01*
G01*
X5093000Y-5939000D02*
G75*
G02*
X5193000Y-5939000I50000J0D01*
G01*
X5447000Y-511000D02*
G75*
G02*
X5347000Y-511000I-50000J0D01*
G01*
X5347000Y-511000D02*
G75*
G02*
X5447000Y-511000I50000J0D01*
G01*
X5447000Y-1400000D02*
G75*
G02*
X5347000Y-1400000I-50000J0D01*
G01*
X5347000Y-1400000D02*
G75*
G02*
X5447000Y-1400000I50000J0D01*
G01*
X5447000Y-2289000D02*
G75*
G02*
X5347000Y-2289000I-50000J0D01*
G01*
X5347000Y-2289000D02*
G75*
G02*
X5447000Y-2289000I50000J0D01*
G01*
X5447000Y-3178000D02*
G75*
G02*
X5347000Y-3178000I-50000J0D01*
G01*
X5347000Y-3178000D02*
G75*
G02*
X5447000Y-3178000I50000J0D01*
G01*
X5447000Y-4161000D02*
G75*
G02*
X5347000Y-4161000I-50000J0D01*
G01*
X5347000Y-4161000D02*
G75*
G02*
X5447000Y-4161000I50000J0D01*
G01*
X5447000Y-5939000D02*
G75*
G02*
X5347000Y-5939000I-50000J0D01*
G01*
X5347000Y-5939000D02*
G75*
G02*
X5447000Y-5939000I50000J0D01*
G01*
X5701000Y-511000D02*
G75*
G02*
X5601000Y-511000I-50000J0D01*
G01*
X5601000Y-511000D02*
G75*
G02*
X5701000Y-511000I50000J0D01*
G01*
X5701000Y-1400000D02*
G75*
G02*
X5601000Y-1400000I-50000J0D01*
G01*
X5601000Y-1400000D02*
G75*
G02*
X5701000Y-1400000I50000J0D01*
G01*
X5701000Y-2289000D02*
G75*
G02*
X5601000Y-2289000I-50000J0D01*
G01*
X5601000Y-2289000D02*
G75*
G02*
X5701000Y-2289000I50000J0D01*
G01*
X5701000Y-3178000D02*
G75*
G02*
X5601000Y-3178000I-50000J0D01*
G01*
X5601000Y-3178000D02*
G75*
G02*
X5701000Y-3178000I50000J0D01*
G01*
X5701000Y-4161000D02*
G75*
G02*
X5601000Y-4161000I-50000J0D01*
G01*
X5601000Y-4161000D02*
G75*
G02*
X5701000Y-4161000I50000J0D01*
G01*
X5701000Y-5939000D02*
G75*
G02*
X5601000Y-5939000I-50000J0D01*
G01*
X5601000Y-5939000D02*
G75*
G02*
X5701000Y-5939000I50000J0D01*
G01*
X5955000Y-511000D02*
G75*
G02*
X5855000Y-511000I-50000J0D01*
G01*
X5855000Y-511000D02*
G75*
G02*
X5955000Y-511000I50000J0D01*
G01*
X5955000Y-1400000D02*
G75*
G02*
X5855000Y-1400000I-50000J0D01*
G01*
X5855000Y-1400000D02*
G75*
G02*
X5955000Y-1400000I50000J0D01*
G01*
X5955000Y-2289000D02*
G75*
G02*
X5855000Y-2289000I-50000J0D01*
G01*
X5855000Y-2289000D02*
G75*
G02*
X5955000Y-2289000I50000J0D01*
G01*
X5955000Y-3178000D02*
G75*
G02*
X5855000Y-3178000I-50000J0D01*
G01*
X5855000Y-3178000D02*
G75*
G02*
X5955000Y-3178000I50000J0D01*
G01*
X5955000Y-4161000D02*
G75*
G02*
X5855000Y-4161000I-50000J0D01*
G01*
X5855000Y-4161000D02*
G75*
G02*
X5955000Y-4161000I50000J0D01*
G01*
X5955000Y-5939000D02*
G75*
G02*
X5855000Y-5939000I-50000J0D01*
G01*
X5855000Y-5939000D02*
G75*
G02*
X5955000Y-5939000I50000J0D01*
G01*
X6209000Y-511000D02*
G75*
G02*
X6109000Y-511000I-50000J0D01*
G01*
X6109000Y-511000D02*
G75*
G02*
X6209000Y-511000I50000J0D01*
G01*
X6209000Y-1400000D02*
G75*
G02*
X6109000Y-1400000I-50000J0D01*
G01*
X6109000Y-1400000D02*
G75*
G02*
X6209000Y-1400000I50000J0D01*
G01*
X6209000Y-2289000D02*
G75*
G02*
X6109000Y-2289000I-50000J0D01*
G01*
X6109000Y-2289000D02*
G75*
G02*
X6209000Y-2289000I50000J0D01*
G01*
X6209000Y-3178000D02*
G75*
G02*
X6109000Y-3178000I-50000J0D01*
G01*
X6109000Y-3178000D02*
G75*
G02*
X6209000Y-3178000I50000J0D01*
G01*
X6209000Y-4161000D02*
G75*
G02*
X6109000Y-4161000I-50000J0D01*
G01*
X6109000Y-4161000D02*
G75*
G02*
X6209000Y-4161000I50000J0D01*
G01*
X6209000Y-5939000D02*
G75*
G02*
X6109000Y-5939000I-50000J0D01*
G01*
X6109000Y-5939000D02*
G75*
G02*
X6209000Y-5939000I50000J0D01*
G01*
X6463000Y-511000D02*
G75*
G02*
X6363000Y-511000I-50000J0D01*
G01*
X6363000Y-511000D02*
G75*
G02*
X6463000Y-511000I50000J0D01*
G01*
X6463000Y-1400000D02*
G75*
G02*
X6363000Y-1400000I-50000J0D01*
G01*
X6363000Y-1400000D02*
G75*
G02*
X6463000Y-1400000I50000J0D01*
G01*
X6463000Y-2289000D02*
G75*
G02*
X6363000Y-2289000I-50000J0D01*
G01*
X6363000Y-2289000D02*
G75*
G02*
X6463000Y-2289000I50000J0D01*
G01*
X6463000Y-3178000D02*
G75*
G02*
X6363000Y-3178000I-50000J0D01*
G01*
X6363000Y-3178000D02*
G75*
G02*
X6463000Y-3178000I50000J0D01*
G01*
X6463000Y-4161000D02*
G75*
G02*
X6363000Y-4161000I-50000J0D01*
G01*
X6363000Y-4161000D02*
G75*
G02*
X6463000Y-4161000I50000J0D01*
G01*
X6463000Y-5939000D02*
G75*
G02*
X6363000Y-5939000I-50000J0D01*
G01*
X6363000Y-5939000D02*
G75*
G02*
X6463000Y-5939000I50000J0D01*
G01*
D11*
X1560277Y-6537984D02*
X1560277Y-6337984D01*
X1560277Y-6337984D02*
X1607896Y-6337984D01*
X1607896Y-6337984D02*
X1636467Y-6347508D01*
X1636467Y-6347508D02*
X1655515Y-6366555D01*
X1655515Y-6366555D02*
X1665039Y-6385603D01*
X1665039Y-6385603D02*
X1674562Y-6423698D01*
X1674562Y-6423698D02*
X1674562Y-6452269D01*
X1674562Y-6452269D02*
X1665039Y-6490365D01*
X1665039Y-6490365D02*
X1655515Y-6509412D01*
X1655515Y-6509412D02*
X1636467Y-6528460D01*
X1636467Y-6528460D02*
X1607896Y-6537984D01*
X1607896Y-6537984D02*
X1560277Y-6537984D01*
X1760277Y-6537984D02*
X1760277Y-6404650D01*
X1760277Y-6442746D02*
X1769800Y-6423698D01*
X1769800Y-6423698D02*
X1779324Y-6414174D01*
X1779324Y-6414174D02*
X1798372Y-6404650D01*
X1798372Y-6404650D02*
X1817420Y-6404650D01*
X1884086Y-6537984D02*
X1884086Y-6404650D01*
X1884086Y-6337984D02*
X1874562Y-6347508D01*
X1874562Y-6347508D02*
X1884086Y-6357031D01*
X1884086Y-6357031D02*
X1893610Y-6347508D01*
X1893610Y-6347508D02*
X1884086Y-6337984D01*
X1884086Y-6337984D02*
X1884086Y-6357031D01*
X2007896Y-6537984D02*
X1988848Y-6528460D01*
X1988848Y-6528460D02*
X1979324Y-6509412D01*
X1979324Y-6509412D02*
X1979324Y-6337984D01*
X2112658Y-6537984D02*
X2093610Y-6528460D01*
X2093610Y-6528460D02*
X2084086Y-6509412D01*
X2084086Y-6509412D02*
X2084086Y-6337984D01*
X2341229Y-6537984D02*
X2341229Y-6337984D01*
X2341229Y-6337984D02*
X2407896Y-6480841D01*
X2407896Y-6480841D02*
X2474562Y-6337984D01*
X2474562Y-6337984D02*
X2474562Y-6537984D01*
X2655515Y-6537984D02*
X2655515Y-6433222D01*
X2655515Y-6433222D02*
X2645991Y-6414174D01*
X2645991Y-6414174D02*
X2626943Y-6404650D01*
X2626943Y-6404650D02*
X2588848Y-6404650D01*
X2588848Y-6404650D02*
X2569801Y-6414174D01*
X2655515Y-6528460D02*
X2636467Y-6537984D01*
X2636467Y-6537984D02*
X2588848Y-6537984D01*
X2588848Y-6537984D02*
X2569801Y-6528460D01*
X2569801Y-6528460D02*
X2560277Y-6509412D01*
X2560277Y-6509412D02*
X2560277Y-6490365D01*
X2560277Y-6490365D02*
X2569801Y-6471317D01*
X2569801Y-6471317D02*
X2588848Y-6461793D01*
X2588848Y-6461793D02*
X2636467Y-6461793D01*
X2636467Y-6461793D02*
X2655515Y-6452269D01*
X2750753Y-6404650D02*
X2750753Y-6604650D01*
X2750753Y-6414174D02*
X2769801Y-6404650D01*
X2769801Y-6404650D02*
X2807896Y-6404650D01*
X2807896Y-6404650D02*
X2826943Y-6414174D01*
X2826943Y-6414174D02*
X2836467Y-6423698D01*
X2836467Y-6423698D02*
X2845991Y-6442746D01*
X2845991Y-6442746D02*
X2845991Y-6499888D01*
X2845991Y-6499888D02*
X2836467Y-6518936D01*
X2836467Y-6518936D02*
X2826943Y-6528460D01*
X2826943Y-6528460D02*
X2807896Y-6537984D01*
X2807896Y-6537984D02*
X2769801Y-6537984D01*
X2769801Y-6537984D02*
X2750753Y-6528460D01*
X2931705Y-6518936D02*
X2941229Y-6528460D01*
X2941229Y-6528460D02*
X2931705Y-6537984D01*
X2931705Y-6537984D02*
X2922181Y-6528460D01*
X2922181Y-6528460D02*
X2931705Y-6518936D01*
X2931705Y-6518936D02*
X2931705Y-6537984D01*
X2931705Y-6414174D02*
X2941229Y-6423698D01*
X2941229Y-6423698D02*
X2931705Y-6433222D01*
X2931705Y-6433222D02*
X2922181Y-6423698D01*
X2922181Y-6423698D02*
X2931705Y-6414174D01*
X2931705Y-6414174D02*
X2931705Y-6433222D01*
D12*
X1269500Y-6851500D02*
X1299500Y-6881500D01*
X1299500Y-6851500D02*
X1269500Y-6881500D01*
D11*
X1598372Y-6757984D02*
X1617420Y-6757984D01*
X1617420Y-6757984D02*
X1636467Y-6767508D01*
X1636467Y-6767508D02*
X1645991Y-6777031D01*
X1645991Y-6777031D02*
X1655515Y-6796079D01*
X1655515Y-6796079D02*
X1665039Y-6834174D01*
X1665039Y-6834174D02*
X1665039Y-6881793D01*
X1665039Y-6881793D02*
X1655515Y-6919888D01*
X1655515Y-6919888D02*
X1645991Y-6938936D01*
X1645991Y-6938936D02*
X1636467Y-6948460D01*
X1636467Y-6948460D02*
X1617420Y-6957984D01*
X1617420Y-6957984D02*
X1598372Y-6957984D01*
X1598372Y-6957984D02*
X1579324Y-6948460D01*
X1579324Y-6948460D02*
X1569800Y-6938936D01*
X1569800Y-6938936D02*
X1560277Y-6919888D01*
X1560277Y-6919888D02*
X1550753Y-6881793D01*
X1550753Y-6881793D02*
X1550753Y-6834174D01*
X1550753Y-6834174D02*
X1560277Y-6796079D01*
X1560277Y-6796079D02*
X1569800Y-6777031D01*
X1569800Y-6777031D02*
X1579324Y-6767508D01*
X1579324Y-6767508D02*
X1598372Y-6757984D01*
X1750753Y-6938936D02*
X1760277Y-6948460D01*
X1760277Y-6948460D02*
X1750753Y-6957984D01*
X1750753Y-6957984D02*
X1741229Y-6948460D01*
X1741229Y-6948460D02*
X1750753Y-6938936D01*
X1750753Y-6938936D02*
X1750753Y-6957984D01*
X1826943Y-6757984D02*
X1950753Y-6757984D01*
X1950753Y-6757984D02*
X1884086Y-6834174D01*
X1884086Y-6834174D02*
X1912658Y-6834174D01*
X1912658Y-6834174D02*
X1931705Y-6843698D01*
X1931705Y-6843698D02*
X1941229Y-6853222D01*
X1941229Y-6853222D02*
X1950753Y-6872269D01*
X1950753Y-6872269D02*
X1950753Y-6919888D01*
X1950753Y-6919888D02*
X1941229Y-6938936D01*
X1941229Y-6938936D02*
X1931705Y-6948460D01*
X1931705Y-6948460D02*
X1912658Y-6957984D01*
X1912658Y-6957984D02*
X1855515Y-6957984D01*
X1855515Y-6957984D02*
X1836467Y-6948460D01*
X1836467Y-6948460D02*
X1826943Y-6938936D01*
X2074562Y-6757984D02*
X2093610Y-6757984D01*
X2093610Y-6757984D02*
X2112658Y-6767508D01*
X2112658Y-6767508D02*
X2122182Y-6777031D01*
X2122182Y-6777031D02*
X2131705Y-6796079D01*
X2131705Y-6796079D02*
X2141229Y-6834174D01*
X2141229Y-6834174D02*
X2141229Y-6881793D01*
X2141229Y-6881793D02*
X2131705Y-6919888D01*
X2131705Y-6919888D02*
X2122182Y-6938936D01*
X2122182Y-6938936D02*
X2112658Y-6948460D01*
X2112658Y-6948460D02*
X2093610Y-6957984D01*
X2093610Y-6957984D02*
X2074562Y-6957984D01*
X2074562Y-6957984D02*
X2055515Y-6948460D01*
X2055515Y-6948460D02*
X2045991Y-6938936D01*
X2045991Y-6938936D02*
X2036467Y-6919888D01*
X2036467Y-6919888D02*
X2026943Y-6881793D01*
X2026943Y-6881793D02*
X2026943Y-6834174D01*
X2026943Y-6834174D02*
X2036467Y-6796079D01*
X2036467Y-6796079D02*
X2045991Y-6777031D01*
X2045991Y-6777031D02*
X2055515Y-6767508D01*
X2055515Y-6767508D02*
X2074562Y-6757984D01*
X2265039Y-6757984D02*
X2284086Y-6757984D01*
X2284086Y-6757984D02*
X2303134Y-6767508D01*
X2303134Y-6767508D02*
X2312658Y-6777031D01*
X2312658Y-6777031D02*
X2322182Y-6796079D01*
X2322182Y-6796079D02*
X2331705Y-6834174D01*
X2331705Y-6834174D02*
X2331705Y-6881793D01*
X2331705Y-6881793D02*
X2322182Y-6919888D01*
X2322182Y-6919888D02*
X2312658Y-6938936D01*
X2312658Y-6938936D02*
X2303134Y-6948460D01*
X2303134Y-6948460D02*
X2284086Y-6957984D01*
X2284086Y-6957984D02*
X2265039Y-6957984D01*
X2265039Y-6957984D02*
X2245991Y-6948460D01*
X2245991Y-6948460D02*
X2236467Y-6938936D01*
X2236467Y-6938936D02*
X2226943Y-6919888D01*
X2226943Y-6919888D02*
X2217420Y-6881793D01*
X2217420Y-6881793D02*
X2217420Y-6834174D01*
X2217420Y-6834174D02*
X2226943Y-6796079D01*
X2226943Y-6796079D02*
X2236467Y-6777031D01*
X2236467Y-6777031D02*
X2245991Y-6767508D01*
X2245991Y-6767508D02*
X2265039Y-6757984D01*
X2417420Y-6957984D02*
X2417420Y-6824650D01*
X2417420Y-6843698D02*
X2426943Y-6834174D01*
X2426943Y-6834174D02*
X2445991Y-6824650D01*
X2445991Y-6824650D02*
X2474563Y-6824650D01*
X2474563Y-6824650D02*
X2493610Y-6834174D01*
X2493610Y-6834174D02*
X2503134Y-6853222D01*
X2503134Y-6853222D02*
X2503134Y-6957984D01*
X2503134Y-6853222D02*
X2512658Y-6834174D01*
X2512658Y-6834174D02*
X2531705Y-6824650D01*
X2531705Y-6824650D02*
X2560277Y-6824650D01*
X2560277Y-6824650D02*
X2579324Y-6834174D01*
X2579324Y-6834174D02*
X2588848Y-6853222D01*
X2588848Y-6853222D02*
X2588848Y-6957984D01*
X2684086Y-6957984D02*
X2684086Y-6824650D01*
X2684086Y-6843698D02*
X2693610Y-6834174D01*
X2693610Y-6834174D02*
X2712658Y-6824650D01*
X2712658Y-6824650D02*
X2741229Y-6824650D01*
X2741229Y-6824650D02*
X2760277Y-6834174D01*
X2760277Y-6834174D02*
X2769801Y-6853222D01*
X2769801Y-6853222D02*
X2769801Y-6957984D01*
X2769801Y-6853222D02*
X2779324Y-6834174D01*
X2779324Y-6834174D02*
X2798372Y-6824650D01*
X2798372Y-6824650D02*
X2826943Y-6824650D01*
X2826943Y-6824650D02*
X2845991Y-6834174D01*
X2845991Y-6834174D02*
X2855515Y-6853222D01*
X2855515Y-6853222D02*
X2855515Y-6957984D01*
X3245991Y-6748460D02*
X3074563Y-7005603D01*
X3503134Y-6757984D02*
X3522182Y-6757984D01*
X3522182Y-6757984D02*
X3541229Y-6767508D01*
X3541229Y-6767508D02*
X3550753Y-6777031D01*
X3550753Y-6777031D02*
X3560277Y-6796079D01*
X3560277Y-6796079D02*
X3569801Y-6834174D01*
X3569801Y-6834174D02*
X3569801Y-6881793D01*
X3569801Y-6881793D02*
X3560277Y-6919888D01*
X3560277Y-6919888D02*
X3550753Y-6938936D01*
X3550753Y-6938936D02*
X3541229Y-6948460D01*
X3541229Y-6948460D02*
X3522182Y-6957984D01*
X3522182Y-6957984D02*
X3503134Y-6957984D01*
X3503134Y-6957984D02*
X3484086Y-6948460D01*
X3484086Y-6948460D02*
X3474563Y-6938936D01*
X3474563Y-6938936D02*
X3465039Y-6919888D01*
X3465039Y-6919888D02*
X3455515Y-6881793D01*
X3455515Y-6881793D02*
X3455515Y-6834174D01*
X3455515Y-6834174D02*
X3465039Y-6796079D01*
X3465039Y-6796079D02*
X3474563Y-6777031D01*
X3474563Y-6777031D02*
X3484086Y-6767508D01*
X3484086Y-6767508D02*
X3503134Y-6757984D01*
X3655515Y-6938936D02*
X3665039Y-6948460D01*
X3665039Y-6948460D02*
X3655515Y-6957984D01*
X3655515Y-6957984D02*
X3645991Y-6948460D01*
X3645991Y-6948460D02*
X3655515Y-6938936D01*
X3655515Y-6938936D02*
X3655515Y-6957984D01*
X3788848Y-6757984D02*
X3807896Y-6757984D01*
X3807896Y-6757984D02*
X3826944Y-6767508D01*
X3826944Y-6767508D02*
X3836467Y-6777031D01*
X3836467Y-6777031D02*
X3845991Y-6796079D01*
X3845991Y-6796079D02*
X3855515Y-6834174D01*
X3855515Y-6834174D02*
X3855515Y-6881793D01*
X3855515Y-6881793D02*
X3845991Y-6919888D01*
X3845991Y-6919888D02*
X3836467Y-6938936D01*
X3836467Y-6938936D02*
X3826944Y-6948460D01*
X3826944Y-6948460D02*
X3807896Y-6957984D01*
X3807896Y-6957984D02*
X3788848Y-6957984D01*
X3788848Y-6957984D02*
X3769801Y-6948460D01*
X3769801Y-6948460D02*
X3760277Y-6938936D01*
X3760277Y-6938936D02*
X3750753Y-6919888D01*
X3750753Y-6919888D02*
X3741229Y-6881793D01*
X3741229Y-6881793D02*
X3741229Y-6834174D01*
X3741229Y-6834174D02*
X3750753Y-6796079D01*
X3750753Y-6796079D02*
X3760277Y-6777031D01*
X3760277Y-6777031D02*
X3769801Y-6767508D01*
X3769801Y-6767508D02*
X3788848Y-6757984D01*
X4045991Y-6957984D02*
X3931705Y-6957984D01*
X3988848Y-6957984D02*
X3988848Y-6757984D01*
X3988848Y-6757984D02*
X3969801Y-6786555D01*
X3969801Y-6786555D02*
X3950753Y-6805603D01*
X3950753Y-6805603D02*
X3931705Y-6815127D01*
X4236467Y-6957984D02*
X4122182Y-6957984D01*
X4179324Y-6957984D02*
X4179324Y-6757984D01*
X4179324Y-6757984D02*
X4160277Y-6786555D01*
X4160277Y-6786555D02*
X4141229Y-6805603D01*
X4141229Y-6805603D02*
X4122182Y-6815127D01*
X4350753Y-6843698D02*
X4331706Y-6834174D01*
X4331706Y-6834174D02*
X4322182Y-6824650D01*
X4322182Y-6824650D02*
X4312658Y-6805603D01*
X4312658Y-6805603D02*
X4312658Y-6796079D01*
X4312658Y-6796079D02*
X4322182Y-6777031D01*
X4322182Y-6777031D02*
X4331706Y-6767508D01*
X4331706Y-6767508D02*
X4350753Y-6757984D01*
X4350753Y-6757984D02*
X4388848Y-6757984D01*
X4388848Y-6757984D02*
X4407896Y-6767508D01*
X4407896Y-6767508D02*
X4417420Y-6777031D01*
X4417420Y-6777031D02*
X4426944Y-6796079D01*
X4426944Y-6796079D02*
X4426944Y-6805603D01*
X4426944Y-6805603D02*
X4417420Y-6824650D01*
X4417420Y-6824650D02*
X4407896Y-6834174D01*
X4407896Y-6834174D02*
X4388848Y-6843698D01*
X4388848Y-6843698D02*
X4350753Y-6843698D01*
X4350753Y-6843698D02*
X4331706Y-6853222D01*
X4331706Y-6853222D02*
X4322182Y-6862746D01*
X4322182Y-6862746D02*
X4312658Y-6881793D01*
X4312658Y-6881793D02*
X4312658Y-6919888D01*
X4312658Y-6919888D02*
X4322182Y-6938936D01*
X4322182Y-6938936D02*
X4331706Y-6948460D01*
X4331706Y-6948460D02*
X4350753Y-6957984D01*
X4350753Y-6957984D02*
X4388848Y-6957984D01*
X4388848Y-6957984D02*
X4407896Y-6948460D01*
X4407896Y-6948460D02*
X4417420Y-6938936D01*
X4417420Y-6938936D02*
X4426944Y-6919888D01*
X4426944Y-6919888D02*
X4426944Y-6881793D01*
X4426944Y-6881793D02*
X4417420Y-6862746D01*
X4417420Y-6862746D02*
X4407896Y-6853222D01*
X4407896Y-6853222D02*
X4388848Y-6843698D01*
X4503134Y-6757984D02*
X4503134Y-6796079D01*
X4579325Y-6757984D02*
X4579325Y-6796079D01*
X4874563Y-7034174D02*
X4865039Y-7024650D01*
X4865039Y-7024650D02*
X4845991Y-6996079D01*
X4845991Y-6996079D02*
X4836468Y-6977031D01*
X4836468Y-6977031D02*
X4826944Y-6948460D01*
X4826944Y-6948460D02*
X4817420Y-6900841D01*
X4817420Y-6900841D02*
X4817420Y-6862746D01*
X4817420Y-6862746D02*
X4826944Y-6815127D01*
X4826944Y-6815127D02*
X4836468Y-6786555D01*
X4836468Y-6786555D02*
X4845991Y-6767508D01*
X4845991Y-6767508D02*
X4865039Y-6738936D01*
X4865039Y-6738936D02*
X4874563Y-6729412D01*
X5055515Y-6957984D02*
X4941229Y-6957984D01*
X4998372Y-6957984D02*
X4998372Y-6757984D01*
X4998372Y-6757984D02*
X4979325Y-6786555D01*
X4979325Y-6786555D02*
X4960277Y-6805603D01*
X4960277Y-6805603D02*
X4941229Y-6815127D01*
X5293610Y-6957984D02*
X5293610Y-6757984D01*
X5379325Y-6957984D02*
X5379325Y-6853222D01*
X5379325Y-6853222D02*
X5369801Y-6834174D01*
X5369801Y-6834174D02*
X5350753Y-6824650D01*
X5350753Y-6824650D02*
X5322182Y-6824650D01*
X5322182Y-6824650D02*
X5303134Y-6834174D01*
X5303134Y-6834174D02*
X5293610Y-6843698D01*
X5503134Y-6957984D02*
X5484087Y-6948460D01*
X5484087Y-6948460D02*
X5474563Y-6938936D01*
X5474563Y-6938936D02*
X5465039Y-6919888D01*
X5465039Y-6919888D02*
X5465039Y-6862746D01*
X5465039Y-6862746D02*
X5474563Y-6843698D01*
X5474563Y-6843698D02*
X5484087Y-6834174D01*
X5484087Y-6834174D02*
X5503134Y-6824650D01*
X5503134Y-6824650D02*
X5531706Y-6824650D01*
X5531706Y-6824650D02*
X5550753Y-6834174D01*
X5550753Y-6834174D02*
X5560277Y-6843698D01*
X5560277Y-6843698D02*
X5569801Y-6862746D01*
X5569801Y-6862746D02*
X5569801Y-6919888D01*
X5569801Y-6919888D02*
X5560277Y-6938936D01*
X5560277Y-6938936D02*
X5550753Y-6948460D01*
X5550753Y-6948460D02*
X5531706Y-6957984D01*
X5531706Y-6957984D02*
X5503134Y-6957984D01*
X5684087Y-6957984D02*
X5665039Y-6948460D01*
X5665039Y-6948460D02*
X5655515Y-6929412D01*
X5655515Y-6929412D02*
X5655515Y-6757984D01*
X5836468Y-6948460D02*
X5817420Y-6957984D01*
X5817420Y-6957984D02*
X5779325Y-6957984D01*
X5779325Y-6957984D02*
X5760277Y-6948460D01*
X5760277Y-6948460D02*
X5750753Y-6929412D01*
X5750753Y-6929412D02*
X5750753Y-6853222D01*
X5750753Y-6853222D02*
X5760277Y-6834174D01*
X5760277Y-6834174D02*
X5779325Y-6824650D01*
X5779325Y-6824650D02*
X5817420Y-6824650D01*
X5817420Y-6824650D02*
X5836468Y-6834174D01*
X5836468Y-6834174D02*
X5845991Y-6853222D01*
X5845991Y-6853222D02*
X5845991Y-6872269D01*
X5845991Y-6872269D02*
X5750753Y-6891317D01*
X5912658Y-7034174D02*
X5922182Y-7024650D01*
X5922182Y-7024650D02*
X5941229Y-6996079D01*
X5941229Y-6996079D02*
X5950753Y-6977031D01*
X5950753Y-6977031D02*
X5960277Y-6948460D01*
X5960277Y-6948460D02*
X5969801Y-6900841D01*
X5969801Y-6900841D02*
X5969801Y-6862746D01*
X5969801Y-6862746D02*
X5960277Y-6815127D01*
X5960277Y-6815127D02*
X5950753Y-6786555D01*
X5950753Y-6786555D02*
X5941229Y-6767508D01*
X5941229Y-6767508D02*
X5922182Y-6738936D01*
X5922182Y-6738936D02*
X5912658Y-6729412D01*
D12*
X1299500Y-7130500D02*
G75*
G02*
X1199500Y-7130500I-50000J0D01*
G01*
X1199500Y-7130500D02*
G75*
G02*
X1299500Y-7130500I50000J0D01*
G01*
D11*
X1665039Y-7221984D02*
X1550753Y-7221984D01*
X1607896Y-7221984D02*
X1607896Y-7021984D01*
X1607896Y-7021984D02*
X1588848Y-7050555D01*
X1588848Y-7050555D02*
X1569800Y-7069603D01*
X1569800Y-7069603D02*
X1550753Y-7079127D01*
X1750753Y-7202936D02*
X1760277Y-7212460D01*
X1760277Y-7212460D02*
X1750753Y-7221984D01*
X1750753Y-7221984D02*
X1741229Y-7212460D01*
X1741229Y-7212460D02*
X1750753Y-7202936D01*
X1750753Y-7202936D02*
X1750753Y-7221984D01*
X1884086Y-7021984D02*
X1903134Y-7021984D01*
X1903134Y-7021984D02*
X1922181Y-7031508D01*
X1922181Y-7031508D02*
X1931705Y-7041031D01*
X1931705Y-7041031D02*
X1941229Y-7060079D01*
X1941229Y-7060079D02*
X1950753Y-7098174D01*
X1950753Y-7098174D02*
X1950753Y-7145793D01*
X1950753Y-7145793D02*
X1941229Y-7183888D01*
X1941229Y-7183888D02*
X1931705Y-7202936D01*
X1931705Y-7202936D02*
X1922181Y-7212460D01*
X1922181Y-7212460D02*
X1903134Y-7221984D01*
X1903134Y-7221984D02*
X1884086Y-7221984D01*
X1884086Y-7221984D02*
X1865039Y-7212460D01*
X1865039Y-7212460D02*
X1855515Y-7202936D01*
X1855515Y-7202936D02*
X1845991Y-7183888D01*
X1845991Y-7183888D02*
X1836467Y-7145793D01*
X1836467Y-7145793D02*
X1836467Y-7098174D01*
X1836467Y-7098174D02*
X1845991Y-7060079D01*
X1845991Y-7060079D02*
X1855515Y-7041031D01*
X1855515Y-7041031D02*
X1865039Y-7031508D01*
X1865039Y-7031508D02*
X1884086Y-7021984D01*
X2074562Y-7021984D02*
X2093610Y-7021984D01*
X2093610Y-7021984D02*
X2112658Y-7031508D01*
X2112658Y-7031508D02*
X2122182Y-7041031D01*
X2122182Y-7041031D02*
X2131705Y-7060079D01*
X2131705Y-7060079D02*
X2141229Y-7098174D01*
X2141229Y-7098174D02*
X2141229Y-7145793D01*
X2141229Y-7145793D02*
X2131705Y-7183888D01*
X2131705Y-7183888D02*
X2122182Y-7202936D01*
X2122182Y-7202936D02*
X2112658Y-7212460D01*
X2112658Y-7212460D02*
X2093610Y-7221984D01*
X2093610Y-7221984D02*
X2074562Y-7221984D01*
X2074562Y-7221984D02*
X2055515Y-7212460D01*
X2055515Y-7212460D02*
X2045991Y-7202936D01*
X2045991Y-7202936D02*
X2036467Y-7183888D01*
X2036467Y-7183888D02*
X2026943Y-7145793D01*
X2026943Y-7145793D02*
X2026943Y-7098174D01*
X2026943Y-7098174D02*
X2036467Y-7060079D01*
X2036467Y-7060079D02*
X2045991Y-7041031D01*
X2045991Y-7041031D02*
X2055515Y-7031508D01*
X2055515Y-7031508D02*
X2074562Y-7021984D01*
X2265039Y-7021984D02*
X2284086Y-7021984D01*
X2284086Y-7021984D02*
X2303134Y-7031508D01*
X2303134Y-7031508D02*
X2312658Y-7041031D01*
X2312658Y-7041031D02*
X2322182Y-7060079D01*
X2322182Y-7060079D02*
X2331705Y-7098174D01*
X2331705Y-7098174D02*
X2331705Y-7145793D01*
X2331705Y-7145793D02*
X2322182Y-7183888D01*
X2322182Y-7183888D02*
X2312658Y-7202936D01*
X2312658Y-7202936D02*
X2303134Y-7212460D01*
X2303134Y-7212460D02*
X2284086Y-7221984D01*
X2284086Y-7221984D02*
X2265039Y-7221984D01*
X2265039Y-7221984D02*
X2245991Y-7212460D01*
X2245991Y-7212460D02*
X2236467Y-7202936D01*
X2236467Y-7202936D02*
X2226943Y-7183888D01*
X2226943Y-7183888D02*
X2217420Y-7145793D01*
X2217420Y-7145793D02*
X2217420Y-7098174D01*
X2217420Y-7098174D02*
X2226943Y-7060079D01*
X2226943Y-7060079D02*
X2236467Y-7041031D01*
X2236467Y-7041031D02*
X2245991Y-7031508D01*
X2245991Y-7031508D02*
X2265039Y-7021984D01*
X2417420Y-7221984D02*
X2417420Y-7088650D01*
X2417420Y-7107698D02*
X2426943Y-7098174D01*
X2426943Y-7098174D02*
X2445991Y-7088650D01*
X2445991Y-7088650D02*
X2474563Y-7088650D01*
X2474563Y-7088650D02*
X2493610Y-7098174D01*
X2493610Y-7098174D02*
X2503134Y-7117222D01*
X2503134Y-7117222D02*
X2503134Y-7221984D01*
X2503134Y-7117222D02*
X2512658Y-7098174D01*
X2512658Y-7098174D02*
X2531705Y-7088650D01*
X2531705Y-7088650D02*
X2560277Y-7088650D01*
X2560277Y-7088650D02*
X2579324Y-7098174D01*
X2579324Y-7098174D02*
X2588848Y-7117222D01*
X2588848Y-7117222D02*
X2588848Y-7221984D01*
X2684086Y-7221984D02*
X2684086Y-7088650D01*
X2684086Y-7107698D02*
X2693610Y-7098174D01*
X2693610Y-7098174D02*
X2712658Y-7088650D01*
X2712658Y-7088650D02*
X2741229Y-7088650D01*
X2741229Y-7088650D02*
X2760277Y-7098174D01*
X2760277Y-7098174D02*
X2769801Y-7117222D01*
X2769801Y-7117222D02*
X2769801Y-7221984D01*
X2769801Y-7117222D02*
X2779324Y-7098174D01*
X2779324Y-7098174D02*
X2798372Y-7088650D01*
X2798372Y-7088650D02*
X2826943Y-7088650D01*
X2826943Y-7088650D02*
X2845991Y-7098174D01*
X2845991Y-7098174D02*
X2855515Y-7117222D01*
X2855515Y-7117222D02*
X2855515Y-7221984D01*
X3245991Y-7012460D02*
X3074563Y-7269603D01*
X3503134Y-7021984D02*
X3522182Y-7021984D01*
X3522182Y-7021984D02*
X3541229Y-7031508D01*
X3541229Y-7031508D02*
X3550753Y-7041031D01*
X3550753Y-7041031D02*
X3560277Y-7060079D01*
X3560277Y-7060079D02*
X3569801Y-7098174D01*
X3569801Y-7098174D02*
X3569801Y-7145793D01*
X3569801Y-7145793D02*
X3560277Y-7183888D01*
X3560277Y-7183888D02*
X3550753Y-7202936D01*
X3550753Y-7202936D02*
X3541229Y-7212460D01*
X3541229Y-7212460D02*
X3522182Y-7221984D01*
X3522182Y-7221984D02*
X3503134Y-7221984D01*
X3503134Y-7221984D02*
X3484086Y-7212460D01*
X3484086Y-7212460D02*
X3474563Y-7202936D01*
X3474563Y-7202936D02*
X3465039Y-7183888D01*
X3465039Y-7183888D02*
X3455515Y-7145793D01*
X3455515Y-7145793D02*
X3455515Y-7098174D01*
X3455515Y-7098174D02*
X3465039Y-7060079D01*
X3465039Y-7060079D02*
X3474563Y-7041031D01*
X3474563Y-7041031D02*
X3484086Y-7031508D01*
X3484086Y-7031508D02*
X3503134Y-7021984D01*
X3655515Y-7202936D02*
X3665039Y-7212460D01*
X3665039Y-7212460D02*
X3655515Y-7221984D01*
X3655515Y-7221984D02*
X3645991Y-7212460D01*
X3645991Y-7212460D02*
X3655515Y-7202936D01*
X3655515Y-7202936D02*
X3655515Y-7221984D01*
X3788848Y-7021984D02*
X3807896Y-7021984D01*
X3807896Y-7021984D02*
X3826944Y-7031508D01*
X3826944Y-7031508D02*
X3836467Y-7041031D01*
X3836467Y-7041031D02*
X3845991Y-7060079D01*
X3845991Y-7060079D02*
X3855515Y-7098174D01*
X3855515Y-7098174D02*
X3855515Y-7145793D01*
X3855515Y-7145793D02*
X3845991Y-7183888D01*
X3845991Y-7183888D02*
X3836467Y-7202936D01*
X3836467Y-7202936D02*
X3826944Y-7212460D01*
X3826944Y-7212460D02*
X3807896Y-7221984D01*
X3807896Y-7221984D02*
X3788848Y-7221984D01*
X3788848Y-7221984D02*
X3769801Y-7212460D01*
X3769801Y-7212460D02*
X3760277Y-7202936D01*
X3760277Y-7202936D02*
X3750753Y-7183888D01*
X3750753Y-7183888D02*
X3741229Y-7145793D01*
X3741229Y-7145793D02*
X3741229Y-7098174D01*
X3741229Y-7098174D02*
X3750753Y-7060079D01*
X3750753Y-7060079D02*
X3760277Y-7041031D01*
X3760277Y-7041031D02*
X3769801Y-7031508D01*
X3769801Y-7031508D02*
X3788848Y-7021984D01*
X3922182Y-7021984D02*
X4045991Y-7021984D01*
X4045991Y-7021984D02*
X3979324Y-7098174D01*
X3979324Y-7098174D02*
X4007896Y-7098174D01*
X4007896Y-7098174D02*
X4026944Y-7107698D01*
X4026944Y-7107698D02*
X4036467Y-7117222D01*
X4036467Y-7117222D02*
X4045991Y-7136269D01*
X4045991Y-7136269D02*
X4045991Y-7183888D01*
X4045991Y-7183888D02*
X4036467Y-7202936D01*
X4036467Y-7202936D02*
X4026944Y-7212460D01*
X4026944Y-7212460D02*
X4007896Y-7221984D01*
X4007896Y-7221984D02*
X3950753Y-7221984D01*
X3950753Y-7221984D02*
X3931705Y-7212460D01*
X3931705Y-7212460D02*
X3922182Y-7202936D01*
X4141229Y-7221984D02*
X4179324Y-7221984D01*
X4179324Y-7221984D02*
X4198372Y-7212460D01*
X4198372Y-7212460D02*
X4207896Y-7202936D01*
X4207896Y-7202936D02*
X4226944Y-7174365D01*
X4226944Y-7174365D02*
X4236467Y-7136269D01*
X4236467Y-7136269D02*
X4236467Y-7060079D01*
X4236467Y-7060079D02*
X4226944Y-7041031D01*
X4226944Y-7041031D02*
X4217420Y-7031508D01*
X4217420Y-7031508D02*
X4198372Y-7021984D01*
X4198372Y-7021984D02*
X4160277Y-7021984D01*
X4160277Y-7021984D02*
X4141229Y-7031508D01*
X4141229Y-7031508D02*
X4131705Y-7041031D01*
X4131705Y-7041031D02*
X4122182Y-7060079D01*
X4122182Y-7060079D02*
X4122182Y-7107698D01*
X4122182Y-7107698D02*
X4131705Y-7126746D01*
X4131705Y-7126746D02*
X4141229Y-7136269D01*
X4141229Y-7136269D02*
X4160277Y-7145793D01*
X4160277Y-7145793D02*
X4198372Y-7145793D01*
X4198372Y-7145793D02*
X4217420Y-7136269D01*
X4217420Y-7136269D02*
X4226944Y-7126746D01*
X4226944Y-7126746D02*
X4236467Y-7107698D01*
X4407896Y-7088650D02*
X4407896Y-7221984D01*
X4360277Y-7012460D02*
X4312658Y-7155317D01*
X4312658Y-7155317D02*
X4436467Y-7155317D01*
X4503134Y-7021984D02*
X4503134Y-7060079D01*
X4579325Y-7021984D02*
X4579325Y-7060079D01*
X4874563Y-7298174D02*
X4865039Y-7288650D01*
X4865039Y-7288650D02*
X4845991Y-7260079D01*
X4845991Y-7260079D02*
X4836468Y-7241031D01*
X4836468Y-7241031D02*
X4826944Y-7212460D01*
X4826944Y-7212460D02*
X4817420Y-7164841D01*
X4817420Y-7164841D02*
X4817420Y-7126746D01*
X4817420Y-7126746D02*
X4826944Y-7079127D01*
X4826944Y-7079127D02*
X4836468Y-7050555D01*
X4836468Y-7050555D02*
X4845991Y-7031508D01*
X4845991Y-7031508D02*
X4865039Y-7002936D01*
X4865039Y-7002936D02*
X4874563Y-6993412D01*
X5055515Y-7221984D02*
X4941229Y-7221984D01*
X4998372Y-7221984D02*
X4998372Y-7021984D01*
X4998372Y-7021984D02*
X4979325Y-7050555D01*
X4979325Y-7050555D02*
X4960277Y-7069603D01*
X4960277Y-7069603D02*
X4941229Y-7079127D01*
X5131706Y-7041031D02*
X5141229Y-7031508D01*
X5141229Y-7031508D02*
X5160277Y-7021984D01*
X5160277Y-7021984D02*
X5207896Y-7021984D01*
X5207896Y-7021984D02*
X5226944Y-7031508D01*
X5226944Y-7031508D02*
X5236468Y-7041031D01*
X5236468Y-7041031D02*
X5245991Y-7060079D01*
X5245991Y-7060079D02*
X5245991Y-7079127D01*
X5245991Y-7079127D02*
X5236468Y-7107698D01*
X5236468Y-7107698D02*
X5122182Y-7221984D01*
X5122182Y-7221984D02*
X5245991Y-7221984D01*
X5369801Y-7021984D02*
X5388849Y-7021984D01*
X5388849Y-7021984D02*
X5407896Y-7031508D01*
X5407896Y-7031508D02*
X5417420Y-7041031D01*
X5417420Y-7041031D02*
X5426944Y-7060079D01*
X5426944Y-7060079D02*
X5436468Y-7098174D01*
X5436468Y-7098174D02*
X5436468Y-7145793D01*
X5436468Y-7145793D02*
X5426944Y-7183888D01*
X5426944Y-7183888D02*
X5417420Y-7202936D01*
X5417420Y-7202936D02*
X5407896Y-7212460D01*
X5407896Y-7212460D02*
X5388849Y-7221984D01*
X5388849Y-7221984D02*
X5369801Y-7221984D01*
X5369801Y-7221984D02*
X5350753Y-7212460D01*
X5350753Y-7212460D02*
X5341229Y-7202936D01*
X5341229Y-7202936D02*
X5331706Y-7183888D01*
X5331706Y-7183888D02*
X5322182Y-7145793D01*
X5322182Y-7145793D02*
X5322182Y-7098174D01*
X5322182Y-7098174D02*
X5331706Y-7060079D01*
X5331706Y-7060079D02*
X5341229Y-7041031D01*
X5341229Y-7041031D02*
X5350753Y-7031508D01*
X5350753Y-7031508D02*
X5369801Y-7021984D01*
X5674563Y-7221984D02*
X5674563Y-7021984D01*
X5760277Y-7221984D02*
X5760277Y-7117222D01*
X5760277Y-7117222D02*
X5750753Y-7098174D01*
X5750753Y-7098174D02*
X5731706Y-7088650D01*
X5731706Y-7088650D02*
X5703134Y-7088650D01*
X5703134Y-7088650D02*
X5684087Y-7098174D01*
X5684087Y-7098174D02*
X5674563Y-7107698D01*
X5884087Y-7221984D02*
X5865039Y-7212460D01*
X5865039Y-7212460D02*
X5855515Y-7202936D01*
X5855515Y-7202936D02*
X5845991Y-7183888D01*
X5845991Y-7183888D02*
X5845991Y-7126746D01*
X5845991Y-7126746D02*
X5855515Y-7107698D01*
X5855515Y-7107698D02*
X5865039Y-7098174D01*
X5865039Y-7098174D02*
X5884087Y-7088650D01*
X5884087Y-7088650D02*
X5912658Y-7088650D01*
X5912658Y-7088650D02*
X5931706Y-7098174D01*
X5931706Y-7098174D02*
X5941229Y-7107698D01*
X5941229Y-7107698D02*
X5950753Y-7126746D01*
X5950753Y-7126746D02*
X5950753Y-7183888D01*
X5950753Y-7183888D02*
X5941229Y-7202936D01*
X5941229Y-7202936D02*
X5931706Y-7212460D01*
X5931706Y-7212460D02*
X5912658Y-7221984D01*
X5912658Y-7221984D02*
X5884087Y-7221984D01*
X6065039Y-7221984D02*
X6045991Y-7212460D01*
X6045991Y-7212460D02*
X6036468Y-7193412D01*
X6036468Y-7193412D02*
X6036468Y-7021984D01*
X6217420Y-7212460D02*
X6198372Y-7221984D01*
X6198372Y-7221984D02*
X6160277Y-7221984D01*
X6160277Y-7221984D02*
X6141229Y-7212460D01*
X6141229Y-7212460D02*
X6131706Y-7193412D01*
X6131706Y-7193412D02*
X6131706Y-7117222D01*
X6131706Y-7117222D02*
X6141229Y-7098174D01*
X6141229Y-7098174D02*
X6160277Y-7088650D01*
X6160277Y-7088650D02*
X6198372Y-7088650D01*
X6198372Y-7088650D02*
X6217420Y-7098174D01*
X6217420Y-7098174D02*
X6226944Y-7117222D01*
X6226944Y-7117222D02*
X6226944Y-7136269D01*
X6226944Y-7136269D02*
X6131706Y-7155317D01*
X6303134Y-7212460D02*
X6322182Y-7221984D01*
X6322182Y-7221984D02*
X6360277Y-7221984D01*
X6360277Y-7221984D02*
X6379325Y-7212460D01*
X6379325Y-7212460D02*
X6388849Y-7193412D01*
X6388849Y-7193412D02*
X6388849Y-7183888D01*
X6388849Y-7183888D02*
X6379325Y-7164841D01*
X6379325Y-7164841D02*
X6360277Y-7155317D01*
X6360277Y-7155317D02*
X6331706Y-7155317D01*
X6331706Y-7155317D02*
X6312658Y-7145793D01*
X6312658Y-7145793D02*
X6303134Y-7126746D01*
X6303134Y-7126746D02*
X6303134Y-7117222D01*
X6303134Y-7117222D02*
X6312658Y-7098174D01*
X6312658Y-7098174D02*
X6331706Y-7088650D01*
X6331706Y-7088650D02*
X6360277Y-7088650D01*
X6360277Y-7088650D02*
X6379325Y-7098174D01*
X6455515Y-7298174D02*
X6465039Y-7288650D01*
X6465039Y-7288650D02*
X6484087Y-7260079D01*
X6484087Y-7260079D02*
X6493610Y-7241031D01*
X6493610Y-7241031D02*
X6503134Y-7212460D01*
X6503134Y-7212460D02*
X6512658Y-7164841D01*
X6512658Y-7164841D02*
X6512658Y-7126746D01*
X6512658Y-7126746D02*
X6503134Y-7079127D01*
X6503134Y-7079127D02*
X6493610Y-7050555D01*
X6493610Y-7050555D02*
X6484087Y-7031508D01*
X6484087Y-7031508D02*
X6465039Y-7002936D01*
X6465039Y-7002936D02*
X6455515Y-6993412D01*
M02*
