%TF.GenerationSoftware,KiCad,Pcbnew,10.0.3*%
%TF.CreationDate,2026-06-14T14:22:47+10:00*%
%TF.ProjectId,screen-hopper-header,73637265-656e-42d6-986f-707065722d68,rev?*%
%TF.SameCoordinates,Original*%
%TF.FileFunction,Copper,L1,Top*%
%TF.FilePolarity,Positive*%
%FSLAX46Y46*%
G04 Gerber Fmt 4.6, Leading zero omitted, Abs format (unit mm)*
G04 Created by KiCad (PCBNEW 10.0.3) date 2026-06-14 14:22:47*
%MOMM*%
%LPD*%
G01*
G04 APERTURE LIST*
G04 Aperture macros list*
%AMRoundRect*
0 Rectangle with rounded corners*
0 $1 Rounding radius*
0 $2 $3 $4 $5 $6 $7 $8 $9 X,Y pos of 4 corners*
0 Add a 4 corners polygon primitive as box body*
4,1,4,$2,$3,$4,$5,$6,$7,$8,$9,$2,$3,0*
0 Add four circle primitives for the rounded corners*
1,1,$1+$1,$2,$3*
1,1,$1+$1,$4,$5*
1,1,$1+$1,$6,$7*
1,1,$1+$1,$8,$9*
0 Add four rect primitives between the rounded corners*
20,1,$1+$1,$2,$3,$4,$5,0*
20,1,$1+$1,$4,$5,$6,$7,0*
20,1,$1+$1,$6,$7,$8,$9,0*
20,1,$1+$1,$8,$9,$2,$3,0*%
%AMFreePoly0*
4,1,37,0.603843,0.796157,0.639018,0.796157,0.711114,0.766294,0.766294,0.711114,0.796157,0.639018,0.796157,0.603843,0.800000,0.600000,0.800000,-0.600000,0.796157,-0.603843,0.796157,-0.639018,0.766294,-0.711114,0.711114,-0.766294,0.639018,-0.796157,0.603843,-0.796157,0.600000,-0.800000,0.000000,-0.800000,0.000000,-0.796148,-0.078414,-0.796148,-0.232228,-0.765552,-0.377117,-0.705537,
-0.507515,-0.618408,-0.618408,-0.507515,-0.705537,-0.377117,-0.765552,-0.232228,-0.796148,-0.078414,-0.796148,0.078414,-0.765552,0.232228,-0.705537,0.377117,-0.618408,0.507515,-0.507515,0.618408,-0.377117,0.705537,-0.232228,0.765552,-0.078414,0.796148,0.000000,0.796148,0.000000,0.800000,0.600000,0.800000,0.603843,0.796157,0.603843,0.796157,$1*%
%AMFreePoly1*
4,1,37,0.000000,0.796148,0.078414,0.796148,0.232228,0.765552,0.377117,0.705537,0.507515,0.618408,0.618408,0.507515,0.705537,0.377117,0.765552,0.232228,0.796148,0.078414,0.796148,-0.078414,0.765552,-0.232228,0.705537,-0.377117,0.618408,-0.507515,0.507515,-0.618408,0.377117,-0.705537,0.232228,-0.765552,0.078414,-0.796148,0.000000,-0.796148,0.000000,-0.800000,-0.600000,-0.800000,
-0.603843,-0.796157,-0.639018,-0.796157,-0.711114,-0.766294,-0.766294,-0.711114,-0.796157,-0.639018,-0.796157,-0.603843,-0.800000,-0.600000,-0.800000,0.600000,-0.796157,0.603843,-0.796157,0.639018,-0.766294,0.711114,-0.711114,0.766294,-0.639018,0.796157,-0.603843,0.796157,-0.600000,0.800000,0.000000,0.800000,0.000000,0.796148,0.000000,0.796148,$1*%
G04 Aperture macros list end*
%TA.AperFunction,SMDPad,CuDef*%
%ADD10RoundRect,0.250000X-0.262500X-0.450000X0.262500X-0.450000X0.262500X0.450000X-0.262500X0.450000X0*%
%TD*%
%TA.AperFunction,ComponentPad*%
%ADD11RoundRect,0.200000X0.600000X-0.600000X0.600000X0.600000X-0.600000X0.600000X-0.600000X-0.600000X0*%
%TD*%
%TA.AperFunction,ComponentPad*%
%ADD12C,1.600000*%
%TD*%
%TA.AperFunction,ComponentPad*%
%ADD13FreePoly0,90.000000*%
%TD*%
%TA.AperFunction,ComponentPad*%
%ADD14FreePoly1,90.000000*%
%TD*%
%TA.AperFunction,SMDPad,CuDef*%
%ADD15RoundRect,0.250000X-0.250000X-0.475000X0.250000X-0.475000X0.250000X0.475000X-0.250000X0.475000X0*%
%TD*%
%TA.AperFunction,SMDPad,CuDef*%
%ADD16RoundRect,0.150000X-0.150000X0.825000X-0.150000X-0.825000X0.150000X-0.825000X0.150000X0.825000X0*%
%TD*%
%TA.AperFunction,ComponentPad*%
%ADD17RoundRect,0.200000X-0.600000X0.600000X-0.600000X-0.600000X0.600000X-0.600000X0.600000X0.600000X0*%
%TD*%
%TA.AperFunction,ComponentPad*%
%ADD18FreePoly0,270.000000*%
%TD*%
%TA.AperFunction,ComponentPad*%
%ADD19FreePoly1,270.000000*%
%TD*%
%TA.AperFunction,ViaPad*%
%ADD20C,0.500000*%
%TD*%
%TA.AperFunction,Conductor*%
%ADD21C,0.200000*%
%TD*%
G04 APERTURE END LIST*
D10*
%TO.P,R2,1*%
%TO.N,FWD_3V3*%
X27087500Y-50500000D03*
%TO.P,R2,2*%
%TO.N,OPTO_VO*%
X28912500Y-50500000D03*
%TD*%
D11*
%TO.P,A3,1*%
%TO.N,N/C*%
X15870000Y-59390000D03*
D12*
%TO.P,A3,2*%
X18410000Y-59390000D03*
D13*
%TO.P,A3,3*%
%TO.N,GND2*%
X20950000Y-59390000D03*
D12*
%TO.P,A3,4*%
%TO.N,N/C*%
X23490000Y-59390000D03*
%TO.P,A3,5*%
X26030000Y-59390000D03*
%TO.P,A3,6*%
X28570000Y-59390000D03*
%TO.P,A3,7*%
X31110000Y-59390000D03*
D13*
%TO.P,A3,8*%
%TO.N,GND2*%
X33650000Y-59390000D03*
D12*
%TO.P,A3,9*%
%TO.N,N/C*%
X36190000Y-59390000D03*
%TO.P,A3,10*%
X38730000Y-59390000D03*
%TO.P,A3,11*%
X41270000Y-59390000D03*
%TO.P,A3,12*%
%TO.N,OPTO_VO*%
X43810000Y-59390000D03*
D13*
%TO.P,A3,13*%
%TO.N,GND2*%
X46350000Y-59390000D03*
D12*
%TO.P,A3,14*%
%TO.N,N/C*%
X48890000Y-59390000D03*
%TO.P,A3,15*%
X51430000Y-59390000D03*
%TO.P,A3,16*%
X53970000Y-59390000D03*
%TO.P,A3,17*%
X56510000Y-59390000D03*
D13*
%TO.P,A3,18*%
%TO.N,GND2*%
X59050000Y-59390000D03*
D12*
%TO.P,A3,19*%
%TO.N,N/C*%
X61590000Y-59390000D03*
%TO.P,A3,20*%
X64130000Y-59390000D03*
%TO.P,A3,21*%
X64130000Y-41610000D03*
%TO.P,A3,22*%
X61590000Y-41610000D03*
D14*
%TO.P,A3,23*%
%TO.N,GND2*%
X59050000Y-41610000D03*
D12*
%TO.P,A3,24*%
%TO.N,N/C*%
X56510000Y-41610000D03*
%TO.P,A3,25*%
X53970000Y-41610000D03*
%TO.P,A3,26*%
X51430000Y-41610000D03*
%TO.P,A3,27*%
X48890000Y-41610000D03*
D14*
%TO.P,A3,28*%
%TO.N,GND2*%
X46350000Y-41610000D03*
D12*
%TO.P,A3,29*%
%TO.N,N/C*%
X43810000Y-41610000D03*
%TO.P,A3,30*%
X41270000Y-41610000D03*
%TO.P,A3,31*%
X38730000Y-41610000D03*
%TO.P,A3,32*%
X36190000Y-41610000D03*
D14*
%TO.P,A3,33*%
%TO.N,GND2*%
X33650000Y-41610000D03*
D12*
%TO.P,A3,34*%
%TO.N,N/C*%
X31110000Y-41610000D03*
%TO.P,A3,35*%
X28570000Y-41610000D03*
%TO.P,A3,36*%
%TO.N,FWD_3V3*%
X26030000Y-41610000D03*
%TO.P,A3,37*%
%TO.N,N/C*%
X23490000Y-41610000D03*
D14*
%TO.P,A3,38*%
%TO.N,GND2*%
X20950000Y-41610000D03*
D12*
%TO.P,A3,39*%
%TO.N,N/C*%
X18410000Y-41610000D03*
%TO.P,A3,40*%
%TO.N,VBUS2*%
X15870000Y-41610000D03*
%TD*%
D15*
%TO.P,C1,1*%
%TO.N,VBUS2*%
X51050000Y-50500000D03*
%TO.P,C1,2*%
%TO.N,GND2*%
X52950000Y-50500000D03*
%TD*%
D16*
%TO.P,U1,1*%
%TO.N,N/C*%
X41905000Y-34225000D03*
%TO.P,U1,2*%
%TO.N,OPTO_ANODE*%
X40635000Y-34225000D03*
%TO.P,U1,3*%
%TO.N,OPTO_CATH*%
X39365000Y-34225000D03*
%TO.P,U1,4*%
%TO.N,N/C*%
X38095000Y-34225000D03*
%TO.P,U1,5*%
%TO.N,GND2*%
X38095000Y-39175000D03*
%TO.P,U1,6*%
%TO.N,OPTO_VO*%
X39365000Y-39175000D03*
%TO.P,U1,7*%
%TO.N,N/C*%
X40635000Y-39175000D03*
%TO.P,U1,8*%
%TO.N,VBUS2*%
X41905000Y-39175000D03*
%TD*%
D10*
%TO.P,R1,1*%
%TO.N,OPTO_3V3*%
X51087500Y-18500000D03*
%TO.P,R1,2*%
%TO.N,OPTO_ANODE*%
X52912500Y-18500000D03*
%TD*%
D11*
%TO.P,A1,1*%
%TO.N,SER_A0_B1*%
X15870000Y-22890000D03*
D12*
%TO.P,A1,2*%
%TO.N,SER_A1_B0*%
X18410000Y-22890000D03*
D13*
%TO.P,A1,3*%
%TO.N,GND1*%
X20950000Y-22890000D03*
D12*
%TO.P,A1,4*%
%TO.N,SER_A2_B3*%
X23490000Y-22890000D03*
%TO.P,A1,5*%
%TO.N,SER_A3_B2*%
X26030000Y-22890000D03*
%TO.P,A1,6*%
%TO.N,N/C*%
X28570000Y-22890000D03*
%TO.P,A1,7*%
X31110000Y-22890000D03*
D13*
%TO.P,A1,8*%
%TO.N,GND1*%
X33650000Y-22890000D03*
D12*
%TO.P,A1,9*%
%TO.N,N/C*%
X36190000Y-22890000D03*
%TO.P,A1,10*%
X38730000Y-22890000D03*
%TO.P,A1,11*%
X41270000Y-22890000D03*
%TO.P,A1,12*%
X43810000Y-22890000D03*
D13*
%TO.P,A1,13*%
%TO.N,GND1*%
X46350000Y-22890000D03*
D12*
%TO.P,A1,14*%
%TO.N,N/C*%
X48890000Y-22890000D03*
%TO.P,A1,15*%
X51430000Y-22890000D03*
%TO.P,A1,16*%
X53970000Y-22890000D03*
%TO.P,A1,17*%
X56510000Y-22890000D03*
D13*
%TO.P,A1,18*%
%TO.N,GND1*%
X59050000Y-22890000D03*
D12*
%TO.P,A1,19*%
%TO.N,N/C*%
X61590000Y-22890000D03*
%TO.P,A1,20*%
X64130000Y-22890000D03*
%TO.P,A1,21*%
X64130000Y-5110000D03*
%TO.P,A1,22*%
X61590000Y-5110000D03*
D14*
%TO.P,A1,23*%
%TO.N,GND1*%
X59050000Y-5110000D03*
D12*
%TO.P,A1,24*%
%TO.N,N/C*%
X56510000Y-5110000D03*
%TO.P,A1,25*%
X53970000Y-5110000D03*
%TO.P,A1,26*%
%TO.N,OPTO_CATH*%
X51430000Y-5110000D03*
%TO.P,A1,27*%
%TO.N,N/C*%
X48890000Y-5110000D03*
D14*
%TO.P,A1,28*%
%TO.N,GND1*%
X46350000Y-5110000D03*
D12*
%TO.P,A1,29*%
%TO.N,N/C*%
X43810000Y-5110000D03*
%TO.P,A1,30*%
X41270000Y-5110000D03*
%TO.P,A1,31*%
X38730000Y-5110000D03*
%TO.P,A1,32*%
X36190000Y-5110000D03*
D14*
%TO.P,A1,33*%
%TO.N,GND1*%
X33650000Y-5110000D03*
D12*
%TO.P,A1,34*%
%TO.N,N/C*%
X31110000Y-5110000D03*
%TO.P,A1,35*%
X28570000Y-5110000D03*
%TO.P,A1,36*%
%TO.N,OPTO_3V3*%
X26030000Y-5110000D03*
%TO.P,A1,37*%
%TO.N,N/C*%
X23490000Y-5110000D03*
D14*
%TO.P,A1,38*%
%TO.N,GND1*%
X20950000Y-5110000D03*
D12*
%TO.P,A1,39*%
%TO.N,N/C*%
X18410000Y-5110000D03*
%TO.P,A1,40*%
%TO.N,VBUS1*%
X15870000Y-5110000D03*
%TD*%
D17*
%TO.P,A2,1*%
%TO.N,SER_A1_B0*%
X15870000Y-14000000D03*
D12*
%TO.P,A2,2*%
%TO.N,SER_A0_B1*%
X18410000Y-14000000D03*
D18*
%TO.P,A2,3*%
%TO.N,GND1*%
X20950000Y-14000000D03*
D12*
%TO.P,A2,4*%
%TO.N,SER_A3_B2*%
X23490000Y-14000000D03*
%TO.P,A2,5*%
%TO.N,SER_A2_B3*%
X26030000Y-14000000D03*
%TO.P,A2,6*%
%TO.N,N/C*%
X28570000Y-14000000D03*
%TO.P,A2,7*%
X31110000Y-14000000D03*
D18*
%TO.P,A2,8*%
%TO.N,GND1*%
X33650000Y-14000000D03*
D12*
%TO.P,A2,9*%
%TO.N,N/C*%
X36190000Y-14000000D03*
%TO.P,A2,10*%
X38730000Y-14000000D03*
%TO.P,A2,11*%
X41270000Y-14000000D03*
%TO.P,A2,12*%
X43810000Y-14000000D03*
D18*
%TO.P,A2,13*%
%TO.N,GND1*%
X46350000Y-14000000D03*
D12*
%TO.P,A2,14*%
%TO.N,N/C*%
X48890000Y-14000000D03*
%TO.P,A2,15*%
X51430000Y-14000000D03*
%TO.P,A2,16*%
X53970000Y-14000000D03*
%TO.P,A2,17*%
X56510000Y-14000000D03*
D18*
%TO.P,A2,18*%
%TO.N,GND1*%
X59050000Y-14000000D03*
D12*
%TO.P,A2,19*%
%TO.N,N/C*%
X61590000Y-14000000D03*
%TO.P,A2,20*%
X64130000Y-14000000D03*
%TO.P,A2,21*%
X64130000Y-31780000D03*
%TO.P,A2,22*%
X61590000Y-31780000D03*
D19*
%TO.P,A2,23*%
%TO.N,GND1*%
X59050000Y-31780000D03*
D12*
%TO.P,A2,24*%
%TO.N,N/C*%
X56510000Y-31780000D03*
%TO.P,A2,25*%
X53970000Y-31780000D03*
%TO.P,A2,26*%
X51430000Y-31780000D03*
%TO.P,A2,27*%
X48890000Y-31780000D03*
D19*
%TO.P,A2,28*%
%TO.N,GND1*%
X46350000Y-31780000D03*
D12*
%TO.P,A2,29*%
%TO.N,N/C*%
X43810000Y-31780000D03*
%TO.P,A2,30*%
X41270000Y-31780000D03*
%TO.P,A2,31*%
X38730000Y-31780000D03*
%TO.P,A2,32*%
X36190000Y-31780000D03*
D19*
%TO.P,A2,33*%
%TO.N,GND1*%
X33650000Y-31780000D03*
D12*
%TO.P,A2,34*%
%TO.N,N/C*%
X31110000Y-31780000D03*
%TO.P,A2,35*%
X28570000Y-31780000D03*
%TO.P,A2,36*%
X26030000Y-31780000D03*
%TO.P,A2,37*%
X23490000Y-31780000D03*
D19*
%TO.P,A2,38*%
%TO.N,GND1*%
X20950000Y-31780000D03*
D12*
%TO.P,A2,39*%
%TO.N,N/C*%
X18410000Y-31780000D03*
%TO.P,A2,40*%
%TO.N,VBUS1*%
X15870000Y-31780000D03*
%TD*%
D20*
%TO.N,VBUS2*%
X40061100Y-42718500D03*
%TD*%
%TO.N,FWD_3V3*%
D21*
X26030000Y-41610000D02*
X26030000Y-49442500D01*
X26030000Y-49442500D02*
X27087500Y-50500000D01*
%TO.N,OPTO_VO*%
X37622800Y-53202800D02*
X37622800Y-50500000D01*
X37622800Y-50500000D02*
X37622800Y-41189100D01*
X39365000Y-39545300D02*
X39365000Y-39175000D01*
X38253600Y-40558300D02*
X38352000Y-40558300D01*
X37622800Y-41189100D02*
X38253600Y-40558300D01*
X37622800Y-50500000D02*
X28912500Y-50500000D01*
X43810000Y-59390000D02*
X37622800Y-53202800D01*
X38352000Y-40558300D02*
X39365000Y-39545300D01*
%TO.N,GND2*%
X33650000Y-41610000D02*
X36085000Y-39175000D01*
X52950000Y-53908700D02*
X52950000Y-50500000D01*
X36085000Y-39175000D02*
X38095000Y-39175000D01*
X58431300Y-59390000D02*
X52950000Y-53908700D01*
X52950000Y-47091300D02*
X52950000Y-50500000D01*
X59050000Y-59390000D02*
X58431300Y-59390000D01*
X59050000Y-41610000D02*
X58431300Y-41610000D01*
X58431300Y-41610000D02*
X52950000Y-47091300D01*
%TO.N,VBUS2*%
X41339500Y-40110800D02*
X40892000Y-40558300D01*
X41339500Y-40110800D02*
X42540100Y-41311500D01*
X40793600Y-40558300D02*
X40061100Y-41290800D01*
X42540100Y-41990100D02*
X51050000Y-50500000D01*
X42540100Y-41311500D02*
X42540100Y-41990100D01*
X40892000Y-40558300D02*
X40793600Y-40558300D01*
X40061100Y-41290800D02*
X40061100Y-42718500D01*
X41905000Y-39545300D02*
X41339500Y-40110800D01*
X41905000Y-39175000D02*
X41905000Y-39545300D01*
%TO.N,OPTO_ANODE*%
X50160100Y-23928300D02*
X50160100Y-22665400D01*
X40635000Y-34225000D02*
X40635000Y-33900300D01*
X50160100Y-22665400D02*
X52912500Y-19913000D01*
X41635600Y-32997700D02*
X42540100Y-32093200D01*
X40635000Y-33900300D02*
X41537600Y-32997700D01*
X52912500Y-19913000D02*
X52912500Y-18500000D01*
X41537600Y-32997700D02*
X41635600Y-32997700D01*
X42540100Y-32093200D02*
X42540100Y-31548300D01*
X42540100Y-31548300D02*
X50160100Y-23928300D01*
%TO.N,OPTO_CATH*%
X40000000Y-33590000D02*
X39365000Y-34225000D01*
X47801500Y-22424400D02*
X47801500Y-22926400D01*
X40000000Y-30727900D02*
X40000000Y-33590000D01*
X52493300Y-6173300D02*
X52493300Y-17379500D01*
X52000000Y-19011700D02*
X51031800Y-19979900D01*
X51031800Y-19979900D02*
X50246000Y-19979900D01*
X52000000Y-17872800D02*
X52000000Y-19011700D01*
X50246000Y-19979900D02*
X47801500Y-22424400D01*
X52493300Y-17379500D02*
X52000000Y-17872800D01*
X51430000Y-5110000D02*
X52493300Y-6173300D01*
X47801500Y-22926400D02*
X40000000Y-30727900D01*
%TO.N,OPTO_3V3*%
X26030000Y-5110000D02*
X27081700Y-6161700D01*
X49016600Y-18500000D02*
X51087500Y-18500000D01*
X37511600Y-6161700D02*
X45298300Y-13948400D01*
X27081700Y-6161700D02*
X37511600Y-6161700D01*
X45298300Y-13948400D02*
X45298300Y-14781700D01*
X45298300Y-14781700D02*
X49016600Y-18500000D01*
%TO.N,SER_A0_B1*%
X15870000Y-16540000D02*
X18410000Y-14000000D01*
X15870000Y-22890000D02*
X15870000Y-16540000D01*
%TO.N,GND1*%
X20950000Y-31780000D02*
X20950000Y-22890000D01*
X20950000Y-22890000D02*
X20950000Y-14000000D01*
X33650000Y-31780000D02*
X33650000Y-22890000D01*
X46350000Y-5110000D02*
X46350000Y-14000000D01*
X20950000Y-5110000D02*
X20950000Y-14000000D01*
X33650000Y-22890000D02*
X33650000Y-14000000D01*
%TO.N,SER_A3_B2*%
X26030000Y-22890000D02*
X23490000Y-20350000D01*
X23490000Y-20350000D02*
X23490000Y-14000000D01*
%TO.N,VBUS1*%
X15870000Y-31780000D02*
X14798400Y-30708400D01*
X14798400Y-30708400D02*
X14798400Y-6181600D01*
X14798400Y-6181600D02*
X15870000Y-5110000D01*
%TD*%
%TA.AperFunction,Conductor*%
%TO.N,GND1*%
G36*
X66410754Y-2829245D02*
G01*
X66429499Y-2874500D01*
X66429499Y-34666000D01*
X66410754Y-34711255D01*
X66365499Y-34730000D01*
X42419500Y-34730000D01*
X42374245Y-34711255D01*
X42355500Y-34666000D01*
X42355499Y-33355141D01*
X42355499Y-33355137D01*
X42355499Y-33355136D01*
X42352585Y-33330009D01*
X42307206Y-33227235D01*
X42227765Y-33147794D01*
X42124991Y-33102415D01*
X42099865Y-33099500D01*
X42099864Y-33099500D01*
X42042570Y-33099500D01*
X41997315Y-33080755D01*
X41978570Y-33035500D01*
X41997315Y-32990245D01*
X42293589Y-32693971D01*
X42752464Y-32235097D01*
X42790600Y-32143028D01*
X42790600Y-32124476D01*
X42809345Y-32079221D01*
X42854600Y-32060476D01*
X42899855Y-32079221D01*
X42913728Y-32099984D01*
X42967676Y-32230228D01*
X42967677Y-32230230D01*
X42967678Y-32230231D01*
X43071698Y-32385908D01*
X43204092Y-32518302D01*
X43359769Y-32622322D01*
X43532749Y-32693973D01*
X43605599Y-32708463D01*
X43716381Y-32730500D01*
X43716384Y-32730500D01*
X43903619Y-32730500D01*
X43995851Y-32712153D01*
X44087251Y-32693973D01*
X44260231Y-32622322D01*
X44415908Y-32518302D01*
X44548302Y-32385908D01*
X44652322Y-32230231D01*
X44723973Y-32057251D01*
X44760500Y-31873616D01*
X44760500Y-31686384D01*
X44760500Y-31686381D01*
X47939500Y-31686381D01*
X47939500Y-31686384D01*
X47939500Y-31873616D01*
X47976027Y-32057251D01*
X47985127Y-32079221D01*
X48047676Y-32230228D01*
X48047677Y-32230230D01*
X48047678Y-32230231D01*
X48151698Y-32385908D01*
X48284092Y-32518302D01*
X48439769Y-32622322D01*
X48612749Y-32693973D01*
X48685599Y-32708463D01*
X48796381Y-32730500D01*
X48796384Y-32730500D01*
X48983619Y-32730500D01*
X49075851Y-32712153D01*
X49167251Y-32693973D01*
X49340231Y-32622322D01*
X49495908Y-32518302D01*
X49628302Y-32385908D01*
X49732322Y-32230231D01*
X49803973Y-32057251D01*
X49840500Y-31873616D01*
X49840500Y-31686384D01*
X49840500Y-31686381D01*
X50479500Y-31686381D01*
X50479500Y-31686384D01*
X50479500Y-31873616D01*
X50516027Y-32057251D01*
X50525127Y-32079221D01*
X50587676Y-32230228D01*
X50587677Y-32230230D01*
X50587678Y-32230231D01*
X50691698Y-32385908D01*
X50824092Y-32518302D01*
X50979769Y-32622322D01*
X51152749Y-32693973D01*
X51225599Y-32708463D01*
X51336381Y-32730500D01*
X51336384Y-32730500D01*
X51523619Y-32730500D01*
X51615851Y-32712153D01*
X51707251Y-32693973D01*
X51880231Y-32622322D01*
X52035908Y-32518302D01*
X52168302Y-32385908D01*
X52272322Y-32230231D01*
X52343973Y-32057251D01*
X52380500Y-31873616D01*
X52380500Y-31686384D01*
X52380500Y-31686381D01*
X53019500Y-31686381D01*
X53019500Y-31686384D01*
X53019500Y-31873616D01*
X53056027Y-32057251D01*
X53065127Y-32079221D01*
X53127676Y-32230228D01*
X53127677Y-32230230D01*
X53127678Y-32230231D01*
X53231698Y-32385908D01*
X53364092Y-32518302D01*
X53519769Y-32622322D01*
X53692749Y-32693973D01*
X53765599Y-32708463D01*
X53876381Y-32730500D01*
X53876384Y-32730500D01*
X54063619Y-32730500D01*
X54155851Y-32712153D01*
X54247251Y-32693973D01*
X54420231Y-32622322D01*
X54575908Y-32518302D01*
X54708302Y-32385908D01*
X54812322Y-32230231D01*
X54883973Y-32057251D01*
X54920500Y-31873616D01*
X54920500Y-31686384D01*
X54920500Y-31686381D01*
X55559500Y-31686381D01*
X55559500Y-31686384D01*
X55559500Y-31873616D01*
X55596027Y-32057251D01*
X55605127Y-32079221D01*
X55667676Y-32230228D01*
X55667677Y-32230230D01*
X55667678Y-32230231D01*
X55771698Y-32385908D01*
X55904092Y-32518302D01*
X56059769Y-32622322D01*
X56232749Y-32693973D01*
X56305599Y-32708463D01*
X56416381Y-32730500D01*
X56416384Y-32730500D01*
X56603619Y-32730500D01*
X56695851Y-32712153D01*
X56787251Y-32693973D01*
X56960231Y-32622322D01*
X57115908Y-32518302D01*
X57248302Y-32385908D01*
X57352322Y-32230231D01*
X57423973Y-32057251D01*
X57460500Y-31873616D01*
X57460500Y-31686384D01*
X57460500Y-31686381D01*
X60639500Y-31686381D01*
X60639500Y-31686384D01*
X60639500Y-31873616D01*
X60676027Y-32057251D01*
X60685127Y-32079221D01*
X60747676Y-32230228D01*
X60747677Y-32230230D01*
X60747678Y-32230231D01*
X60851698Y-32385908D01*
X60984092Y-32518302D01*
X61139769Y-32622322D01*
X61312749Y-32693973D01*
X61385599Y-32708463D01*
X61496381Y-32730500D01*
X61496384Y-32730500D01*
X61683619Y-32730500D01*
X61775851Y-32712153D01*
X61867251Y-32693973D01*
X62040231Y-32622322D01*
X62195908Y-32518302D01*
X62328302Y-32385908D01*
X62432322Y-32230231D01*
X62503973Y-32057251D01*
X62540500Y-31873616D01*
X62540500Y-31686384D01*
X62540500Y-31686381D01*
X63179500Y-31686381D01*
X63179500Y-31686384D01*
X63179500Y-31873616D01*
X63216027Y-32057251D01*
X63225127Y-32079221D01*
X63287676Y-32230228D01*
X63287677Y-32230230D01*
X63287678Y-32230231D01*
X63391698Y-32385908D01*
X63524092Y-32518302D01*
X63679769Y-32622322D01*
X63852749Y-32693973D01*
X63925599Y-32708463D01*
X64036381Y-32730500D01*
X64036384Y-32730500D01*
X64223619Y-32730500D01*
X64315851Y-32712153D01*
X64407251Y-32693973D01*
X64580231Y-32622322D01*
X64735908Y-32518302D01*
X64868302Y-32385908D01*
X64972322Y-32230231D01*
X65043973Y-32057251D01*
X65080500Y-31873616D01*
X65080500Y-31686384D01*
X65080500Y-31686381D01*
X65058463Y-31575599D01*
X65043973Y-31502749D01*
X64977607Y-31342528D01*
X64972323Y-31329771D01*
X64957169Y-31307091D01*
X64868302Y-31174092D01*
X64735908Y-31041698D01*
X64580231Y-30937678D01*
X64580230Y-30937677D01*
X64580228Y-30937676D01*
X64407253Y-30866028D01*
X64407254Y-30866028D01*
X64407251Y-30866027D01*
X64407247Y-30866026D01*
X64407243Y-30866025D01*
X64223619Y-30829500D01*
X64223616Y-30829500D01*
X64036384Y-30829500D01*
X64036381Y-30829500D01*
X63852756Y-30866025D01*
X63852746Y-30866028D01*
X63679771Y-30937676D01*
X63524090Y-31041699D01*
X63391699Y-31174090D01*
X63287676Y-31329771D01*
X63216028Y-31502746D01*
X63216025Y-31502756D01*
X63179500Y-31686381D01*
X62540500Y-31686381D01*
X62518463Y-31575599D01*
X62503973Y-31502749D01*
X62437607Y-31342528D01*
X62432323Y-31329771D01*
X62417169Y-31307091D01*
X62328302Y-31174092D01*
X62195908Y-31041698D01*
X62040231Y-30937678D01*
X62040230Y-30937677D01*
X62040228Y-30937676D01*
X61867253Y-30866028D01*
X61867254Y-30866028D01*
X61867251Y-30866027D01*
X61867247Y-30866026D01*
X61867243Y-30866025D01*
X61683619Y-30829500D01*
X61683616Y-30829500D01*
X61496384Y-30829500D01*
X61496381Y-30829500D01*
X61312756Y-30866025D01*
X61312746Y-30866028D01*
X61139771Y-30937676D01*
X60984090Y-31041699D01*
X60851699Y-31174090D01*
X60747676Y-31329771D01*
X60676028Y-31502746D01*
X60676025Y-31502756D01*
X60639500Y-31686381D01*
X57460500Y-31686381D01*
X57438463Y-31575599D01*
X57423973Y-31502749D01*
X57357607Y-31342528D01*
X57352323Y-31329771D01*
X57337169Y-31307091D01*
X57248302Y-31174092D01*
X57115908Y-31041698D01*
X56960231Y-30937678D01*
X56960230Y-30937677D01*
X56960228Y-30937676D01*
X56787253Y-30866028D01*
X56787254Y-30866028D01*
X56787251Y-30866027D01*
X56787247Y-30866026D01*
X56787243Y-30866025D01*
X56603619Y-30829500D01*
X56603616Y-30829500D01*
X56416384Y-30829500D01*
X56416381Y-30829500D01*
X56232756Y-30866025D01*
X56232746Y-30866028D01*
X56059771Y-30937676D01*
X55904090Y-31041699D01*
X55771699Y-31174090D01*
X55667676Y-31329771D01*
X55596028Y-31502746D01*
X55596025Y-31502756D01*
X55559500Y-31686381D01*
X54920500Y-31686381D01*
X54898463Y-31575599D01*
X54883973Y-31502749D01*
X54817607Y-31342528D01*
X54812323Y-31329771D01*
X54797169Y-31307091D01*
X54708302Y-31174092D01*
X54575908Y-31041698D01*
X54420231Y-30937678D01*
X54420230Y-30937677D01*
X54420228Y-30937676D01*
X54247253Y-30866028D01*
X54247254Y-30866028D01*
X54247251Y-30866027D01*
X54247247Y-30866026D01*
X54247243Y-30866025D01*
X54063619Y-30829500D01*
X54063616Y-30829500D01*
X53876384Y-30829500D01*
X53876381Y-30829500D01*
X53692756Y-30866025D01*
X53692746Y-30866028D01*
X53519771Y-30937676D01*
X53364090Y-31041699D01*
X53231699Y-31174090D01*
X53127676Y-31329771D01*
X53056028Y-31502746D01*
X53056025Y-31502756D01*
X53019500Y-31686381D01*
X52380500Y-31686381D01*
X52358463Y-31575599D01*
X52343973Y-31502749D01*
X52277607Y-31342528D01*
X52272323Y-31329771D01*
X52257169Y-31307091D01*
X52168302Y-31174092D01*
X52035908Y-31041698D01*
X51880231Y-30937678D01*
X51880230Y-30937677D01*
X51880228Y-30937676D01*
X51707253Y-30866028D01*
X51707254Y-30866028D01*
X51707251Y-30866027D01*
X51707247Y-30866026D01*
X51707243Y-30866025D01*
X51523619Y-30829500D01*
X51523616Y-30829500D01*
X51336384Y-30829500D01*
X51336381Y-30829500D01*
X51152756Y-30866025D01*
X51152746Y-30866028D01*
X50979771Y-30937676D01*
X50824090Y-31041699D01*
X50691699Y-31174090D01*
X50587676Y-31329771D01*
X50516028Y-31502746D01*
X50516025Y-31502756D01*
X50479500Y-31686381D01*
X49840500Y-31686381D01*
X49818463Y-31575599D01*
X49803973Y-31502749D01*
X49737607Y-31342528D01*
X49732323Y-31329771D01*
X49717169Y-31307091D01*
X49628302Y-31174092D01*
X49495908Y-31041698D01*
X49340231Y-30937678D01*
X49340230Y-30937677D01*
X49340228Y-30937676D01*
X49167253Y-30866028D01*
X49167254Y-30866028D01*
X49167251Y-30866027D01*
X49167247Y-30866026D01*
X49167243Y-30866025D01*
X48983619Y-30829500D01*
X48983616Y-30829500D01*
X48796384Y-30829500D01*
X48796381Y-30829500D01*
X48612756Y-30866025D01*
X48612746Y-30866028D01*
X48439771Y-30937676D01*
X48284090Y-31041699D01*
X48151699Y-31174090D01*
X48047676Y-31329771D01*
X47976028Y-31502746D01*
X47976025Y-31502756D01*
X47939500Y-31686381D01*
X44760500Y-31686381D01*
X44738463Y-31575599D01*
X44723973Y-31502749D01*
X44657607Y-31342528D01*
X44652323Y-31329771D01*
X44637169Y-31307091D01*
X44548302Y-31174092D01*
X44415908Y-31041698D01*
X44260231Y-30937678D01*
X44260230Y-30937677D01*
X44260228Y-30937676D01*
X44087253Y-30866028D01*
X44087254Y-30866028D01*
X44087251Y-30866027D01*
X44087247Y-30866026D01*
X44087243Y-30866025D01*
X43903619Y-30829500D01*
X43903616Y-30829500D01*
X43767670Y-30829500D01*
X43722415Y-30810755D01*
X43703670Y-30765500D01*
X43722415Y-30720245D01*
X44452661Y-29989999D01*
X50372464Y-24070197D01*
X50410600Y-23978128D01*
X50410600Y-23878473D01*
X50410600Y-23234476D01*
X50429345Y-23189221D01*
X50474600Y-23170476D01*
X50519855Y-23189221D01*
X50533727Y-23209982D01*
X50543673Y-23233993D01*
X50587676Y-23340228D01*
X50587677Y-23340230D01*
X50587678Y-23340231D01*
X50691698Y-23495908D01*
X50824092Y-23628302D01*
X50979769Y-23732322D01*
X51152749Y-23803973D01*
X51218648Y-23817081D01*
X51336381Y-23840500D01*
X51336384Y-23840500D01*
X51523619Y-23840500D01*
X51615851Y-23822153D01*
X51707251Y-23803973D01*
X51880231Y-23732322D01*
X52035908Y-23628302D01*
X52168302Y-23495908D01*
X52272322Y-23340231D01*
X52343973Y-23167251D01*
X52380500Y-22983616D01*
X52380500Y-22796384D01*
X52380500Y-22796381D01*
X53019500Y-22796381D01*
X53019500Y-22796384D01*
X53019500Y-22983616D01*
X53056027Y-23167251D01*
X53059181Y-23174865D01*
X53127676Y-23340228D01*
X53127677Y-23340230D01*
X53127678Y-23340231D01*
X53231698Y-23495908D01*
X53364092Y-23628302D01*
X53519769Y-23732322D01*
X53692749Y-23803973D01*
X53758648Y-23817081D01*
X53876381Y-23840500D01*
X53876384Y-23840500D01*
X54063619Y-23840500D01*
X54155851Y-23822153D01*
X54247251Y-23803973D01*
X54420231Y-23732322D01*
X54575908Y-23628302D01*
X54708302Y-23495908D01*
X54812322Y-23340231D01*
X54883973Y-23167251D01*
X54920500Y-22983616D01*
X54920500Y-22796384D01*
X54920500Y-22796381D01*
X54888111Y-22633552D01*
X54883973Y-22612749D01*
X54812322Y-22439769D01*
X54708302Y-22284092D01*
X54575908Y-22151698D01*
X54420231Y-22047678D01*
X54420230Y-22047677D01*
X54420228Y-22047676D01*
X54247253Y-21976028D01*
X54247254Y-21976028D01*
X54247251Y-21976027D01*
X54247247Y-21976026D01*
X54247243Y-21976025D01*
X54063619Y-21939500D01*
X54063616Y-21939500D01*
X53876384Y-21939500D01*
X53876381Y-21939500D01*
X53692756Y-21976025D01*
X53692746Y-21976028D01*
X53519771Y-22047676D01*
X53364090Y-22151699D01*
X53231699Y-22284090D01*
X53127676Y-22439771D01*
X53056028Y-22612746D01*
X53056025Y-22612756D01*
X53019500Y-22796381D01*
X52380500Y-22796381D01*
X52348111Y-22633552D01*
X52343973Y-22612749D01*
X52272322Y-22439769D01*
X52168302Y-22284092D01*
X52035908Y-22151698D01*
X51880231Y-22047678D01*
X51880230Y-22047677D01*
X51880228Y-22047676D01*
X51707253Y-21976028D01*
X51707254Y-21976028D01*
X51707251Y-21976027D01*
X51707247Y-21976026D01*
X51707243Y-21976025D01*
X51523619Y-21939500D01*
X51523616Y-21939500D01*
X51394770Y-21939500D01*
X51349515Y-21920755D01*
X51330770Y-21875500D01*
X51349515Y-21830245D01*
X52079760Y-21100000D01*
X53124864Y-20054897D01*
X53163000Y-19962828D01*
X53163000Y-19863173D01*
X53163000Y-19412052D01*
X53181745Y-19366797D01*
X53216987Y-19348841D01*
X53300304Y-19335646D01*
X53413338Y-19278052D01*
X53413339Y-19278052D01*
X53413339Y-19278051D01*
X53413342Y-19278050D01*
X53503050Y-19188342D01*
X53560646Y-19075304D01*
X53575500Y-18981519D01*
X53575499Y-18018482D01*
X53560646Y-17924696D01*
X53503050Y-17811658D01*
X53413342Y-17721950D01*
X53413339Y-17721948D01*
X53413337Y-17721947D01*
X53300309Y-17664356D01*
X53300302Y-17664353D01*
X53244985Y-17655592D01*
X53206519Y-17649500D01*
X53206516Y-17649500D01*
X52732069Y-17649500D01*
X52686814Y-17630755D01*
X52668069Y-17585500D01*
X52677774Y-17551618D01*
X52681642Y-17545418D01*
X52705664Y-17521397D01*
X52721460Y-17483260D01*
X52743801Y-17429327D01*
X52743801Y-17329672D01*
X52743801Y-17324520D01*
X52743800Y-17324506D01*
X52743800Y-13906381D01*
X53019500Y-13906381D01*
X53019500Y-14093618D01*
X53056025Y-14277243D01*
X53056028Y-14277253D01*
X53127676Y-14450228D01*
X53127677Y-14450230D01*
X53127678Y-14450231D01*
X53231698Y-14605908D01*
X53364092Y-14738302D01*
X53519769Y-14842322D01*
X53519770Y-14842322D01*
X53519771Y-14842323D01*
X53551718Y-14855556D01*
X53692749Y-14913973D01*
X53758648Y-14927081D01*
X53876381Y-14950500D01*
X53876384Y-14950500D01*
X54063619Y-14950500D01*
X54155851Y-14932153D01*
X54247251Y-14913973D01*
X54420231Y-14842322D01*
X54575908Y-14738302D01*
X54708302Y-14605908D01*
X54812322Y-14450231D01*
X54883973Y-14277251D01*
X54920500Y-14093616D01*
X54920500Y-13906384D01*
X54920500Y-13906381D01*
X55559500Y-13906381D01*
X55559500Y-14093618D01*
X55596025Y-14277243D01*
X55596028Y-14277253D01*
X55667676Y-14450228D01*
X55667677Y-14450230D01*
X55667678Y-14450231D01*
X55771698Y-14605908D01*
X55904092Y-14738302D01*
X56059769Y-14842322D01*
X56059770Y-14842322D01*
X56059771Y-14842323D01*
X56091718Y-14855556D01*
X56232749Y-14913973D01*
X56298648Y-14927081D01*
X56416381Y-14950500D01*
X56416384Y-14950500D01*
X56603619Y-14950500D01*
X56695851Y-14932153D01*
X56787251Y-14913973D01*
X56911510Y-14862503D01*
X56960491Y-14862503D01*
X56995128Y-14897139D01*
X57000000Y-14921631D01*
X57000000Y-21968368D01*
X56981255Y-22013623D01*
X56936000Y-22032368D01*
X56911508Y-22027496D01*
X56787253Y-21976028D01*
X56787254Y-21976028D01*
X56787251Y-21976027D01*
X56787247Y-21976026D01*
X56787243Y-21976025D01*
X56603619Y-21939500D01*
X56603616Y-21939500D01*
X56416384Y-21939500D01*
X56416381Y-21939500D01*
X56232756Y-21976025D01*
X56232746Y-21976028D01*
X56059771Y-22047676D01*
X55904090Y-22151699D01*
X55771699Y-22284090D01*
X55667676Y-22439771D01*
X55596028Y-22612746D01*
X55596025Y-22612756D01*
X55559500Y-22796381D01*
X55559500Y-22796384D01*
X55559500Y-22983616D01*
X55596027Y-23167251D01*
X55599181Y-23174865D01*
X55667676Y-23340228D01*
X55667677Y-23340230D01*
X55667678Y-23340231D01*
X55771698Y-23495908D01*
X55904092Y-23628302D01*
X56059769Y-23732322D01*
X56232749Y-23803973D01*
X56298648Y-23817081D01*
X56416381Y-23840500D01*
X56416384Y-23840500D01*
X56603619Y-23840500D01*
X56695851Y-23822153D01*
X56787251Y-23803973D01*
X56911510Y-23752503D01*
X56960491Y-23752503D01*
X56995128Y-23787139D01*
X57000000Y-23811631D01*
X57000000Y-29990000D01*
X61339896Y-29990000D01*
X61339896Y-29989999D01*
X64970678Y-25314745D01*
X65013240Y-25290500D01*
X65021225Y-25290000D01*
X66000000Y-25290000D01*
X66000000Y-20490000D01*
X65021225Y-20490000D01*
X64975970Y-20471255D01*
X64970678Y-20465255D01*
X64788290Y-20230399D01*
X63432240Y-18484254D01*
X63419288Y-18437015D01*
X63432241Y-18405745D01*
X63553581Y-18249500D01*
X64970678Y-16424744D01*
X65013240Y-16400500D01*
X65021225Y-16400000D01*
X66000000Y-16400000D01*
X66000000Y-11600000D01*
X65021225Y-11600000D01*
X64975970Y-11581255D01*
X64970678Y-11575255D01*
X61339896Y-6900000D01*
X61339895Y-6900000D01*
X57000000Y-6900000D01*
X57000000Y-13078368D01*
X56981255Y-13123623D01*
X56936000Y-13142368D01*
X56911508Y-13137496D01*
X56787253Y-13086028D01*
X56787254Y-13086028D01*
X56787251Y-13086027D01*
X56787247Y-13086026D01*
X56787243Y-13086025D01*
X56603619Y-13049500D01*
X56603616Y-13049500D01*
X56416384Y-13049500D01*
X56416381Y-13049500D01*
X56232756Y-13086025D01*
X56232746Y-13086028D01*
X56059771Y-13157676D01*
X55904090Y-13261699D01*
X55771699Y-13394090D01*
X55667676Y-13549771D01*
X55596028Y-13722746D01*
X55596025Y-13722756D01*
X55559500Y-13906381D01*
X54920500Y-13906381D01*
X54886616Y-13736036D01*
X54883973Y-13722749D01*
X54812322Y-13549769D01*
X54708302Y-13394092D01*
X54575908Y-13261698D01*
X54420231Y-13157678D01*
X54420230Y-13157677D01*
X54420228Y-13157676D01*
X54247253Y-13086028D01*
X54247254Y-13086028D01*
X54247251Y-13086027D01*
X54247247Y-13086026D01*
X54247243Y-13086025D01*
X54063619Y-13049500D01*
X54063616Y-13049500D01*
X53876384Y-13049500D01*
X53876381Y-13049500D01*
X53692756Y-13086025D01*
X53692746Y-13086028D01*
X53519771Y-13157676D01*
X53364090Y-13261699D01*
X53231699Y-13394090D01*
X53127676Y-13549771D01*
X53056028Y-13722746D01*
X53056025Y-13722756D01*
X53019500Y-13906381D01*
X52743800Y-13906381D01*
X52743800Y-6123472D01*
X52743799Y-6123469D01*
X52717716Y-6060500D01*
X52705664Y-6031403D01*
X52635197Y-5960936D01*
X52291480Y-5617219D01*
X52272735Y-5571964D01*
X52277607Y-5547472D01*
X52278951Y-5544225D01*
X52343973Y-5387251D01*
X52380500Y-5203616D01*
X52380500Y-5016384D01*
X52380500Y-5016381D01*
X53019500Y-5016381D01*
X53019500Y-5203618D01*
X53056025Y-5387243D01*
X53056028Y-5387253D01*
X53127676Y-5560228D01*
X53127677Y-5560230D01*
X53127678Y-5560231D01*
X53231698Y-5715908D01*
X53364092Y-5848302D01*
X53519769Y-5952322D01*
X53519770Y-5952322D01*
X53519771Y-5952323D01*
X53532528Y-5957607D01*
X53692749Y-6023973D01*
X53765599Y-6038463D01*
X53876381Y-6060500D01*
X53876384Y-6060500D01*
X54063619Y-6060500D01*
X54168175Y-6039702D01*
X54247251Y-6023973D01*
X54420231Y-5952322D01*
X54575908Y-5848302D01*
X54708302Y-5715908D01*
X54812322Y-5560231D01*
X54883973Y-5387251D01*
X54920500Y-5203616D01*
X54920500Y-5016384D01*
X54920500Y-5016381D01*
X55559500Y-5016381D01*
X55559500Y-5203618D01*
X55596025Y-5387243D01*
X55596028Y-5387253D01*
X55667676Y-5560228D01*
X55667677Y-5560230D01*
X55667678Y-5560231D01*
X55771698Y-5715908D01*
X55904092Y-5848302D01*
X56059769Y-5952322D01*
X56059770Y-5952322D01*
X56059771Y-5952323D01*
X56072528Y-5957607D01*
X56232749Y-6023973D01*
X56305599Y-6038463D01*
X56416381Y-6060500D01*
X56416384Y-6060500D01*
X56603619Y-6060500D01*
X56708175Y-6039702D01*
X56787251Y-6023973D01*
X56960231Y-5952322D01*
X57115908Y-5848302D01*
X57248302Y-5715908D01*
X57352322Y-5560231D01*
X57423973Y-5387251D01*
X57460500Y-5203616D01*
X57460500Y-5016384D01*
X57460500Y-5016381D01*
X60639500Y-5016381D01*
X60639500Y-5203618D01*
X60676025Y-5387243D01*
X60676028Y-5387253D01*
X60747676Y-5560228D01*
X60747677Y-5560230D01*
X60747678Y-5560231D01*
X60851698Y-5715908D01*
X60984092Y-5848302D01*
X61139769Y-5952322D01*
X61139770Y-5952322D01*
X61139771Y-5952323D01*
X61152528Y-5957607D01*
X61312749Y-6023973D01*
X61385599Y-6038463D01*
X61496381Y-6060500D01*
X61496384Y-6060500D01*
X61683619Y-6060500D01*
X61788175Y-6039702D01*
X61867251Y-6023973D01*
X62040231Y-5952322D01*
X62195908Y-5848302D01*
X62328302Y-5715908D01*
X62432322Y-5560231D01*
X62503973Y-5387251D01*
X62540500Y-5203616D01*
X62540500Y-5016384D01*
X62540500Y-5016381D01*
X63179500Y-5016381D01*
X63179500Y-5203618D01*
X63216025Y-5387243D01*
X63216028Y-5387253D01*
X63287676Y-5560228D01*
X63287677Y-5560230D01*
X63287678Y-5560231D01*
X63391698Y-5715908D01*
X63524092Y-5848302D01*
X63679769Y-5952322D01*
X63679770Y-5952322D01*
X63679771Y-5952323D01*
X63692528Y-5957607D01*
X63852749Y-6023973D01*
X63925599Y-6038463D01*
X64036381Y-6060500D01*
X64036384Y-6060500D01*
X64223619Y-6060500D01*
X64328175Y-6039702D01*
X64407251Y-6023973D01*
X64580231Y-5952322D01*
X64735908Y-5848302D01*
X64868302Y-5715908D01*
X64972322Y-5560231D01*
X65043973Y-5387251D01*
X65080500Y-5203616D01*
X65080500Y-5016384D01*
X65080500Y-5016381D01*
X65043974Y-4832756D01*
X65043973Y-4832749D01*
X64972322Y-4659769D01*
X64868302Y-4504092D01*
X64735908Y-4371698D01*
X64580231Y-4267678D01*
X64580230Y-4267677D01*
X64580228Y-4267676D01*
X64407253Y-4196028D01*
X64407254Y-4196028D01*
X64407251Y-4196027D01*
X64407247Y-4196026D01*
X64407243Y-4196025D01*
X64223619Y-4159500D01*
X64223616Y-4159500D01*
X64036384Y-4159500D01*
X64036381Y-4159500D01*
X63852756Y-4196025D01*
X63852746Y-4196028D01*
X63679771Y-4267676D01*
X63524090Y-4371699D01*
X63391699Y-4504090D01*
X63287676Y-4659771D01*
X63216028Y-4832746D01*
X63216025Y-4832756D01*
X63179500Y-5016381D01*
X62540500Y-5016381D01*
X62503974Y-4832756D01*
X62503973Y-4832749D01*
X62432322Y-4659769D01*
X62328302Y-4504092D01*
X62195908Y-4371698D01*
X62040231Y-4267678D01*
X62040230Y-4267677D01*
X62040228Y-4267676D01*
X61867253Y-4196028D01*
X61867254Y-4196028D01*
X61867251Y-4196027D01*
X61867247Y-4196026D01*
X61867243Y-4196025D01*
X61683619Y-4159500D01*
X61683616Y-4159500D01*
X61496384Y-4159500D01*
X61496381Y-4159500D01*
X61312756Y-4196025D01*
X61312746Y-4196028D01*
X61139771Y-4267676D01*
X60984090Y-4371699D01*
X60851699Y-4504090D01*
X60747676Y-4659771D01*
X60676028Y-4832746D01*
X60676025Y-4832756D01*
X60639500Y-5016381D01*
X57460500Y-5016381D01*
X57423974Y-4832756D01*
X57423973Y-4832749D01*
X57352322Y-4659769D01*
X57248302Y-4504092D01*
X57115908Y-4371698D01*
X56960231Y-4267678D01*
X56960230Y-4267677D01*
X56960228Y-4267676D01*
X56787253Y-4196028D01*
X56787254Y-4196028D01*
X56787251Y-4196027D01*
X56787247Y-4196026D01*
X56787243Y-4196025D01*
X56603619Y-4159500D01*
X56603616Y-4159500D01*
X56416384Y-4159500D01*
X56416381Y-4159500D01*
X56232756Y-4196025D01*
X56232746Y-4196028D01*
X56059771Y-4267676D01*
X55904090Y-4371699D01*
X55771699Y-4504090D01*
X55667676Y-4659771D01*
X55596028Y-4832746D01*
X55596025Y-4832756D01*
X55559500Y-5016381D01*
X54920500Y-5016381D01*
X54883974Y-4832756D01*
X54883973Y-4832749D01*
X54812322Y-4659769D01*
X54708302Y-4504092D01*
X54575908Y-4371698D01*
X54420231Y-4267678D01*
X54420230Y-4267677D01*
X54420228Y-4267676D01*
X54247253Y-4196028D01*
X54247254Y-4196028D01*
X54247251Y-4196027D01*
X54247247Y-4196026D01*
X54247243Y-4196025D01*
X54063619Y-4159500D01*
X54063616Y-4159500D01*
X53876384Y-4159500D01*
X53876381Y-4159500D01*
X53692756Y-4196025D01*
X53692746Y-4196028D01*
X53519771Y-4267676D01*
X53364090Y-4371699D01*
X53231699Y-4504090D01*
X53127676Y-4659771D01*
X53056028Y-4832746D01*
X53056025Y-4832756D01*
X53019500Y-5016381D01*
X52380500Y-5016381D01*
X52343974Y-4832756D01*
X52343973Y-4832749D01*
X52272322Y-4659769D01*
X52168302Y-4504092D01*
X52035908Y-4371698D01*
X51880231Y-4267678D01*
X51880230Y-4267677D01*
X51880228Y-4267676D01*
X51707253Y-4196028D01*
X51707254Y-4196028D01*
X51707251Y-4196027D01*
X51707247Y-4196026D01*
X51707243Y-4196025D01*
X51523619Y-4159500D01*
X51523616Y-4159500D01*
X51336384Y-4159500D01*
X51336381Y-4159500D01*
X51152756Y-4196025D01*
X51152746Y-4196028D01*
X50979771Y-4267676D01*
X50824090Y-4371699D01*
X50691699Y-4504090D01*
X50587676Y-4659771D01*
X50516028Y-4832746D01*
X50516025Y-4832756D01*
X50479500Y-5016381D01*
X50479500Y-5203618D01*
X50516025Y-5387243D01*
X50516028Y-5387253D01*
X50587676Y-5560228D01*
X50587677Y-5560230D01*
X50587678Y-5560231D01*
X50691698Y-5715908D01*
X50824092Y-5848302D01*
X50979769Y-5952322D01*
X50979770Y-5952322D01*
X50979771Y-5952323D01*
X50992528Y-5957607D01*
X51152749Y-6023973D01*
X51225599Y-6038463D01*
X51336381Y-6060500D01*
X51336384Y-6060500D01*
X51523619Y-6060500D01*
X51628175Y-6039702D01*
X51707251Y-6023973D01*
X51867472Y-5957607D01*
X51916456Y-5957607D01*
X51937219Y-5971480D01*
X52224055Y-6258316D01*
X52242800Y-6303571D01*
X52242800Y-13314080D01*
X52224055Y-13359335D01*
X52178800Y-13378080D01*
X52133545Y-13359335D01*
X52035909Y-13261699D01*
X51880228Y-13157676D01*
X51707253Y-13086028D01*
X51707254Y-13086028D01*
X51707251Y-13086027D01*
X51707247Y-13086026D01*
X51707243Y-13086025D01*
X51523619Y-13049500D01*
X51523616Y-13049500D01*
X51336384Y-13049500D01*
X51336381Y-13049500D01*
X51152756Y-13086025D01*
X51152746Y-13086028D01*
X50979771Y-13157676D01*
X50824090Y-13261699D01*
X50691699Y-13394090D01*
X50587676Y-13549771D01*
X50516028Y-13722746D01*
X50516025Y-13722756D01*
X50479500Y-13906381D01*
X50479500Y-14093618D01*
X50516025Y-14277243D01*
X50516028Y-14277253D01*
X50587676Y-14450228D01*
X50587677Y-14450230D01*
X50587678Y-14450231D01*
X50691698Y-14605908D01*
X50824092Y-14738302D01*
X50979769Y-14842322D01*
X50979770Y-14842322D01*
X50979771Y-14842323D01*
X51011718Y-14855556D01*
X51152749Y-14913973D01*
X51218648Y-14927081D01*
X51336381Y-14950500D01*
X51336384Y-14950500D01*
X51523619Y-14950500D01*
X51615851Y-14932153D01*
X51707251Y-14913973D01*
X51880231Y-14842322D01*
X52035908Y-14738302D01*
X52133545Y-14640665D01*
X52178800Y-14621920D01*
X52224055Y-14640665D01*
X52242800Y-14685920D01*
X52242800Y-17249228D01*
X52224055Y-17294483D01*
X51849100Y-17669438D01*
X51849099Y-17669437D01*
X51787638Y-17730899D01*
X51787636Y-17730901D01*
X51768540Y-17777004D01*
X51733903Y-17811640D01*
X51684919Y-17811639D01*
X51664160Y-17797768D01*
X51588342Y-17721950D01*
X51588339Y-17721948D01*
X51588337Y-17721947D01*
X51475309Y-17664356D01*
X51475302Y-17664353D01*
X51419985Y-17655592D01*
X51381519Y-17649500D01*
X51381516Y-17649500D01*
X50793483Y-17649500D01*
X50699699Y-17664353D01*
X50699691Y-17664356D01*
X50586662Y-17721947D01*
X50586660Y-17721948D01*
X50586658Y-17721950D01*
X50496950Y-17811658D01*
X50496948Y-17811660D01*
X50496947Y-17811662D01*
X50439356Y-17924690D01*
X50439353Y-17924697D01*
X50424500Y-18018483D01*
X50424500Y-18185500D01*
X50405755Y-18230755D01*
X50360500Y-18249500D01*
X49146871Y-18249500D01*
X49101616Y-18230755D01*
X45567545Y-14696684D01*
X45548800Y-14651429D01*
X45548800Y-14005683D01*
X45548800Y-13998229D01*
X45548801Y-13998228D01*
X45548801Y-13906381D01*
X47939500Y-13906381D01*
X47939500Y-14093618D01*
X47976025Y-14277243D01*
X47976028Y-14277253D01*
X48047676Y-14450228D01*
X48047677Y-14450230D01*
X48047678Y-14450231D01*
X48151698Y-14605908D01*
X48284092Y-14738302D01*
X48439769Y-14842322D01*
X48439770Y-14842322D01*
X48439771Y-14842323D01*
X48471718Y-14855556D01*
X48612749Y-14913973D01*
X48678648Y-14927081D01*
X48796381Y-14950500D01*
X48796384Y-14950500D01*
X48983619Y-14950500D01*
X49075851Y-14932153D01*
X49167251Y-14913973D01*
X49340231Y-14842322D01*
X49495908Y-14738302D01*
X49628302Y-14605908D01*
X49732322Y-14450231D01*
X49803973Y-14277251D01*
X49840500Y-14093616D01*
X49840500Y-13906384D01*
X49840500Y-13906381D01*
X49806616Y-13736036D01*
X49803973Y-13722749D01*
X49732322Y-13549769D01*
X49628302Y-13394092D01*
X49495908Y-13261698D01*
X49340231Y-13157678D01*
X49340230Y-13157677D01*
X49340228Y-13157676D01*
X49167253Y-13086028D01*
X49167254Y-13086028D01*
X49167251Y-13086027D01*
X49167247Y-13086026D01*
X49167243Y-13086025D01*
X48983619Y-13049500D01*
X48983616Y-13049500D01*
X48796384Y-13049500D01*
X48796381Y-13049500D01*
X48612756Y-13086025D01*
X48612746Y-13086028D01*
X48439771Y-13157676D01*
X48284090Y-13261699D01*
X48151699Y-13394090D01*
X48047676Y-13549771D01*
X47976028Y-13722746D01*
X47976025Y-13722756D01*
X47939500Y-13906381D01*
X45548801Y-13906381D01*
X45548801Y-13898572D01*
X45510664Y-13806504D01*
X45510664Y-13806503D01*
X45440197Y-13736036D01*
X45436552Y-13732391D01*
X45436545Y-13732385D01*
X37653497Y-5949336D01*
X37561430Y-5911200D01*
X37561428Y-5911200D01*
X36887520Y-5911200D01*
X36842265Y-5892455D01*
X36823520Y-5847200D01*
X36842265Y-5801945D01*
X36928302Y-5715908D01*
X37032322Y-5560231D01*
X37103973Y-5387251D01*
X37140500Y-5203616D01*
X37140500Y-5016384D01*
X37140500Y-5016381D01*
X37779500Y-5016381D01*
X37779500Y-5203618D01*
X37816025Y-5387243D01*
X37816028Y-5387253D01*
X37887676Y-5560228D01*
X37887677Y-5560230D01*
X37887678Y-5560231D01*
X37991698Y-5715908D01*
X38124092Y-5848302D01*
X38279769Y-5952322D01*
X38279770Y-5952322D01*
X38279771Y-5952323D01*
X38292528Y-5957607D01*
X38452749Y-6023973D01*
X38525599Y-6038463D01*
X38636381Y-6060500D01*
X38636384Y-6060500D01*
X38823619Y-6060500D01*
X38928175Y-6039702D01*
X39007251Y-6023973D01*
X39180231Y-5952322D01*
X39335908Y-5848302D01*
X39468302Y-5715908D01*
X39572322Y-5560231D01*
X39643973Y-5387251D01*
X39680500Y-5203616D01*
X39680500Y-5016384D01*
X39680500Y-5016381D01*
X40319500Y-5016381D01*
X40319500Y-5203618D01*
X40356025Y-5387243D01*
X40356028Y-5387253D01*
X40427676Y-5560228D01*
X40427677Y-5560230D01*
X40427678Y-5560231D01*
X40531698Y-5715908D01*
X40664092Y-5848302D01*
X40819769Y-5952322D01*
X40819770Y-5952322D01*
X40819771Y-5952323D01*
X40832528Y-5957607D01*
X40992749Y-6023973D01*
X41065599Y-6038463D01*
X41176381Y-6060500D01*
X41176384Y-6060500D01*
X41363619Y-6060500D01*
X41468175Y-6039702D01*
X41547251Y-6023973D01*
X41720231Y-5952322D01*
X41875908Y-5848302D01*
X42008302Y-5715908D01*
X42112322Y-5560231D01*
X42183973Y-5387251D01*
X42220500Y-5203616D01*
X42220500Y-5016384D01*
X42220500Y-5016381D01*
X42859500Y-5016381D01*
X42859500Y-5203618D01*
X42896025Y-5387243D01*
X42896028Y-5387253D01*
X42967676Y-5560228D01*
X42967677Y-5560230D01*
X42967678Y-5560231D01*
X43071698Y-5715908D01*
X43204092Y-5848302D01*
X43359769Y-5952322D01*
X43359770Y-5952322D01*
X43359771Y-5952323D01*
X43372528Y-5957607D01*
X43532749Y-6023973D01*
X43605599Y-6038463D01*
X43716381Y-6060500D01*
X43716384Y-6060500D01*
X43903619Y-6060500D01*
X44008175Y-6039702D01*
X44087251Y-6023973D01*
X44260231Y-5952322D01*
X44415908Y-5848302D01*
X44548302Y-5715908D01*
X44652322Y-5560231D01*
X44723973Y-5387251D01*
X44760500Y-5203616D01*
X44760500Y-5016384D01*
X44760500Y-5016381D01*
X47939500Y-5016381D01*
X47939500Y-5203618D01*
X47976025Y-5387243D01*
X47976028Y-5387253D01*
X48047676Y-5560228D01*
X48047677Y-5560230D01*
X48047678Y-5560231D01*
X48151698Y-5715908D01*
X48284092Y-5848302D01*
X48439769Y-5952322D01*
X48439770Y-5952322D01*
X48439771Y-5952323D01*
X48452528Y-5957607D01*
X48612749Y-6023973D01*
X48685599Y-6038463D01*
X48796381Y-6060500D01*
X48796384Y-6060500D01*
X48983619Y-6060500D01*
X49088175Y-6039702D01*
X49167251Y-6023973D01*
X49340231Y-5952322D01*
X49495908Y-5848302D01*
X49628302Y-5715908D01*
X49732322Y-5560231D01*
X49803973Y-5387251D01*
X49840500Y-5203616D01*
X49840500Y-5016384D01*
X49840500Y-5016381D01*
X49803974Y-4832756D01*
X49803973Y-4832749D01*
X49732322Y-4659769D01*
X49628302Y-4504092D01*
X49495908Y-4371698D01*
X49340231Y-4267678D01*
X49340230Y-4267677D01*
X49340228Y-4267676D01*
X49167253Y-4196028D01*
X49167254Y-4196028D01*
X49167251Y-4196027D01*
X49167247Y-4196026D01*
X49167243Y-4196025D01*
X48983619Y-4159500D01*
X48983616Y-4159500D01*
X48796384Y-4159500D01*
X48796381Y-4159500D01*
X48612756Y-4196025D01*
X48612746Y-4196028D01*
X48439771Y-4267676D01*
X48284090Y-4371699D01*
X48151699Y-4504090D01*
X48047676Y-4659771D01*
X47976028Y-4832746D01*
X47976025Y-4832756D01*
X47939500Y-5016381D01*
X44760500Y-5016381D01*
X44723974Y-4832756D01*
X44723973Y-4832749D01*
X44652322Y-4659769D01*
X44548302Y-4504092D01*
X44415908Y-4371698D01*
X44260231Y-4267678D01*
X44260230Y-4267677D01*
X44260228Y-4267676D01*
X44087253Y-4196028D01*
X44087254Y-4196028D01*
X44087251Y-4196027D01*
X44087247Y-4196026D01*
X44087243Y-4196025D01*
X43903619Y-4159500D01*
X43903616Y-4159500D01*
X43716384Y-4159500D01*
X43716381Y-4159500D01*
X43532756Y-4196025D01*
X43532746Y-4196028D01*
X43359771Y-4267676D01*
X43204090Y-4371699D01*
X43071699Y-4504090D01*
X42967676Y-4659771D01*
X42896028Y-4832746D01*
X42896025Y-4832756D01*
X42859500Y-5016381D01*
X42220500Y-5016381D01*
X42183974Y-4832756D01*
X42183973Y-4832749D01*
X42112322Y-4659769D01*
X42008302Y-4504092D01*
X41875908Y-4371698D01*
X41720231Y-4267678D01*
X41720230Y-4267677D01*
X41720228Y-4267676D01*
X41547253Y-4196028D01*
X41547254Y-4196028D01*
X41547251Y-4196027D01*
X41547247Y-4196026D01*
X41547243Y-4196025D01*
X41363619Y-4159500D01*
X41363616Y-4159500D01*
X41176384Y-4159500D01*
X41176381Y-4159500D01*
X40992756Y-4196025D01*
X40992746Y-4196028D01*
X40819771Y-4267676D01*
X40664090Y-4371699D01*
X40531699Y-4504090D01*
X40427676Y-4659771D01*
X40356028Y-4832746D01*
X40356025Y-4832756D01*
X40319500Y-5016381D01*
X39680500Y-5016381D01*
X39643974Y-4832756D01*
X39643973Y-4832749D01*
X39572322Y-4659769D01*
X39468302Y-4504092D01*
X39335908Y-4371698D01*
X39180231Y-4267678D01*
X39180230Y-4267677D01*
X39180228Y-4267676D01*
X39007253Y-4196028D01*
X39007254Y-4196028D01*
X39007251Y-4196027D01*
X39007247Y-4196026D01*
X39007243Y-4196025D01*
X38823619Y-4159500D01*
X38823616Y-4159500D01*
X38636384Y-4159500D01*
X38636381Y-4159500D01*
X38452756Y-4196025D01*
X38452746Y-4196028D01*
X38279771Y-4267676D01*
X38124090Y-4371699D01*
X37991699Y-4504090D01*
X37887676Y-4659771D01*
X37816028Y-4832746D01*
X37816025Y-4832756D01*
X37779500Y-5016381D01*
X37140500Y-5016381D01*
X37103974Y-4832756D01*
X37103973Y-4832749D01*
X37032322Y-4659769D01*
X36928302Y-4504092D01*
X36795908Y-4371698D01*
X36640231Y-4267678D01*
X36640230Y-4267677D01*
X36640228Y-4267676D01*
X36467253Y-4196028D01*
X36467254Y-4196028D01*
X36467251Y-4196027D01*
X36467247Y-4196026D01*
X36467243Y-4196025D01*
X36283619Y-4159500D01*
X36283616Y-4159500D01*
X36096384Y-4159500D01*
X36096381Y-4159500D01*
X35912756Y-4196025D01*
X35912746Y-4196028D01*
X35739771Y-4267676D01*
X35584090Y-4371699D01*
X35451699Y-4504090D01*
X35347676Y-4659771D01*
X35276028Y-4832746D01*
X35276025Y-4832756D01*
X35239500Y-5016381D01*
X35239500Y-5203618D01*
X35276025Y-5387243D01*
X35276028Y-5387253D01*
X35347676Y-5560228D01*
X35347677Y-5560230D01*
X35347678Y-5560231D01*
X35385755Y-5617218D01*
X35451699Y-5715909D01*
X35537735Y-5801945D01*
X35556480Y-5847200D01*
X35537735Y-5892455D01*
X35492480Y-5911200D01*
X31807520Y-5911200D01*
X31762265Y-5892455D01*
X31743520Y-5847200D01*
X31762265Y-5801945D01*
X31848302Y-5715908D01*
X31952322Y-5560231D01*
X32023973Y-5387251D01*
X32060500Y-5203616D01*
X32060500Y-5016384D01*
X32060500Y-5016381D01*
X32023974Y-4832756D01*
X32023973Y-4832749D01*
X31952322Y-4659769D01*
X31848302Y-4504092D01*
X31715908Y-4371698D01*
X31560231Y-4267678D01*
X31560230Y-4267677D01*
X31560228Y-4267676D01*
X31387253Y-4196028D01*
X31387254Y-4196028D01*
X31387251Y-4196027D01*
X31387247Y-4196026D01*
X31387243Y-4196025D01*
X31203619Y-4159500D01*
X31203616Y-4159500D01*
X31016384Y-4159500D01*
X31016381Y-4159500D01*
X30832756Y-4196025D01*
X30832746Y-4196028D01*
X30659771Y-4267676D01*
X30504090Y-4371699D01*
X30371699Y-4504090D01*
X30267676Y-4659771D01*
X30196028Y-4832746D01*
X30196025Y-4832756D01*
X30159500Y-5016381D01*
X30159500Y-5203618D01*
X30196025Y-5387243D01*
X30196028Y-5387253D01*
X30267676Y-5560228D01*
X30267677Y-5560230D01*
X30267678Y-5560231D01*
X30305755Y-5617218D01*
X30371699Y-5715909D01*
X30457735Y-5801945D01*
X30476480Y-5847200D01*
X30457735Y-5892455D01*
X30412480Y-5911200D01*
X29267520Y-5911200D01*
X29222265Y-5892455D01*
X29203520Y-5847200D01*
X29222265Y-5801945D01*
X29308302Y-5715908D01*
X29412322Y-5560231D01*
X29483973Y-5387251D01*
X29520500Y-5203616D01*
X29520500Y-5016384D01*
X29520500Y-5016381D01*
X29483974Y-4832756D01*
X29483973Y-4832749D01*
X29412322Y-4659769D01*
X29308302Y-4504092D01*
X29175908Y-4371698D01*
X29020231Y-4267678D01*
X29020230Y-4267677D01*
X29020228Y-4267676D01*
X28847253Y-4196028D01*
X28847254Y-4196028D01*
X28847251Y-4196027D01*
X28847247Y-4196026D01*
X28847243Y-4196025D01*
X28663619Y-4159500D01*
X28663616Y-4159500D01*
X28476384Y-4159500D01*
X28476381Y-4159500D01*
X28292756Y-4196025D01*
X28292746Y-4196028D01*
X28119771Y-4267676D01*
X27964090Y-4371699D01*
X27831699Y-4504090D01*
X27727676Y-4659771D01*
X27656028Y-4832746D01*
X27656025Y-4832756D01*
X27619500Y-5016381D01*
X27619500Y-5203618D01*
X27656025Y-5387243D01*
X27656028Y-5387253D01*
X27727676Y-5560228D01*
X27727677Y-5560230D01*
X27727678Y-5560231D01*
X27765755Y-5617218D01*
X27831699Y-5715909D01*
X27917735Y-5801945D01*
X27936480Y-5847200D01*
X27917735Y-5892455D01*
X27872480Y-5911200D01*
X27211971Y-5911200D01*
X27166716Y-5892455D01*
X26891480Y-5617219D01*
X26872735Y-5571964D01*
X26877607Y-5547472D01*
X26878951Y-5544225D01*
X26943973Y-5387251D01*
X26980500Y-5203616D01*
X26980500Y-5016384D01*
X26980500Y-5016381D01*
X26943974Y-4832756D01*
X26943973Y-4832749D01*
X26872322Y-4659769D01*
X26768302Y-4504092D01*
X26635908Y-4371698D01*
X26480231Y-4267678D01*
X26480230Y-4267677D01*
X26480228Y-4267676D01*
X26307253Y-4196028D01*
X26307254Y-4196028D01*
X26307251Y-4196027D01*
X26307247Y-4196026D01*
X26307243Y-4196025D01*
X26123619Y-4159500D01*
X26123616Y-4159500D01*
X25936384Y-4159500D01*
X25936381Y-4159500D01*
X25752756Y-4196025D01*
X25752746Y-4196028D01*
X25579771Y-4267676D01*
X25424090Y-4371699D01*
X25291699Y-4504090D01*
X25187676Y-4659771D01*
X25116028Y-4832746D01*
X25116025Y-4832756D01*
X25079500Y-5016381D01*
X25079500Y-5203618D01*
X25116025Y-5387243D01*
X25116028Y-5387253D01*
X25187676Y-5560228D01*
X25187677Y-5560230D01*
X25187678Y-5560231D01*
X25291698Y-5715908D01*
X25424092Y-5848302D01*
X25579769Y-5952322D01*
X25579770Y-5952322D01*
X25579771Y-5952323D01*
X25592528Y-5957607D01*
X25752749Y-6023973D01*
X25825599Y-6038463D01*
X25936381Y-6060500D01*
X25936384Y-6060500D01*
X26123619Y-6060500D01*
X26228175Y-6039702D01*
X26307251Y-6023973D01*
X26467472Y-5957607D01*
X26516456Y-5957607D01*
X26537218Y-5971479D01*
X26939803Y-6374064D01*
X27004903Y-6401029D01*
X27031869Y-6412199D01*
X27031872Y-6412200D01*
X27131527Y-6412200D01*
X37381329Y-6412200D01*
X37426584Y-6430945D01*
X43935885Y-12940245D01*
X43954630Y-12985500D01*
X43935885Y-13030755D01*
X43890630Y-13049500D01*
X43716381Y-13049500D01*
X43532756Y-13086025D01*
X43532746Y-13086028D01*
X43359771Y-13157676D01*
X43204090Y-13261699D01*
X43071699Y-13394090D01*
X42967676Y-13549771D01*
X42896028Y-13722746D01*
X42896025Y-13722756D01*
X42859500Y-13906381D01*
X42859500Y-14093618D01*
X42896025Y-14277243D01*
X42896028Y-14277253D01*
X42967676Y-14450228D01*
X42967677Y-14450230D01*
X42967678Y-14450231D01*
X43071698Y-14605908D01*
X43204092Y-14738302D01*
X43359769Y-14842322D01*
X43359770Y-14842322D01*
X43359771Y-14842323D01*
X43391718Y-14855556D01*
X43532749Y-14913973D01*
X43598648Y-14927081D01*
X43716381Y-14950500D01*
X43716384Y-14950500D01*
X43903619Y-14950500D01*
X43995851Y-14932153D01*
X44087251Y-14913973D01*
X44260231Y-14842322D01*
X44415908Y-14738302D01*
X44548302Y-14605908D01*
X44652322Y-14450231D01*
X44723973Y-14277251D01*
X44760500Y-14093616D01*
X44760500Y-13919370D01*
X44779245Y-13874115D01*
X44824500Y-13855370D01*
X44869755Y-13874115D01*
X45029055Y-14033415D01*
X45047800Y-14078670D01*
X45047800Y-14831530D01*
X45081949Y-14913971D01*
X45085936Y-14923597D01*
X48874703Y-18712364D01*
X48939803Y-18739329D01*
X48966769Y-18750499D01*
X48966772Y-18750500D01*
X49066427Y-18750500D01*
X50360501Y-18750500D01*
X50405756Y-18769245D01*
X50424501Y-18814500D01*
X50424501Y-18981516D01*
X50439353Y-19075300D01*
X50439356Y-19075308D01*
X50473367Y-19142059D01*
X50496950Y-19188342D01*
X50586658Y-19278050D01*
X50586660Y-19278051D01*
X50586661Y-19278052D01*
X50699690Y-19335643D01*
X50699696Y-19335646D01*
X50793481Y-19350500D01*
X51152429Y-19350499D01*
X51197684Y-19369244D01*
X51216429Y-19414499D01*
X51197684Y-19459754D01*
X50946784Y-19710655D01*
X50901529Y-19729400D01*
X50196169Y-19729400D01*
X50104102Y-19767536D01*
X47589136Y-22282502D01*
X47551000Y-22374569D01*
X47551000Y-22796129D01*
X47532255Y-22841384D01*
X39787636Y-30586002D01*
X39749500Y-30678069D01*
X39749500Y-31435764D01*
X39730755Y-31481019D01*
X39685500Y-31499764D01*
X39640245Y-31481019D01*
X39626372Y-31460256D01*
X39572323Y-31329771D01*
X39557169Y-31307091D01*
X39468302Y-31174092D01*
X39335908Y-31041698D01*
X39180231Y-30937678D01*
X39180230Y-30937677D01*
X39180228Y-30937676D01*
X39007253Y-30866028D01*
X39007254Y-30866028D01*
X39007251Y-30866027D01*
X39007247Y-30866026D01*
X39007243Y-30866025D01*
X38823619Y-30829500D01*
X38823616Y-30829500D01*
X38636384Y-30829500D01*
X38636381Y-30829500D01*
X38452756Y-30866025D01*
X38452746Y-30866028D01*
X38279771Y-30937676D01*
X38124090Y-31041699D01*
X37991699Y-31174090D01*
X37887676Y-31329771D01*
X37816028Y-31502746D01*
X37816025Y-31502756D01*
X37779500Y-31686381D01*
X37779500Y-31686384D01*
X37779500Y-31873616D01*
X37816027Y-32057251D01*
X37825127Y-32079221D01*
X37887676Y-32230228D01*
X37887677Y-32230230D01*
X37887678Y-32230231D01*
X37991698Y-32385908D01*
X38124092Y-32518302D01*
X38279769Y-32622322D01*
X38452749Y-32693973D01*
X38525599Y-32708463D01*
X38636381Y-32730500D01*
X38636384Y-32730500D01*
X38823619Y-32730500D01*
X38915851Y-32712153D01*
X39007251Y-32693973D01*
X39180231Y-32622322D01*
X39335908Y-32518302D01*
X39468302Y-32385908D01*
X39572322Y-32230231D01*
X39626372Y-32099742D01*
X39661008Y-32065107D01*
X39709992Y-32065107D01*
X39744628Y-32099743D01*
X39749500Y-32124235D01*
X39749500Y-33076833D01*
X39730755Y-33122088D01*
X39685500Y-33140833D01*
X39659650Y-33135380D01*
X39584991Y-33102415D01*
X39559865Y-33099500D01*
X39559863Y-33099500D01*
X39170141Y-33099500D01*
X39170132Y-33099501D01*
X39145006Y-33102415D01*
X39070352Y-33135379D01*
X39042235Y-33147794D01*
X38962794Y-33227235D01*
X38917415Y-33330009D01*
X38914500Y-33355135D01*
X38914500Y-33355137D01*
X38914501Y-34666000D01*
X38895756Y-34711255D01*
X38850501Y-34730000D01*
X38609500Y-34730000D01*
X38564245Y-34711255D01*
X38545500Y-34666000D01*
X38545499Y-33355141D01*
X38545499Y-33355137D01*
X38545499Y-33355136D01*
X38542585Y-33330009D01*
X38497206Y-33227235D01*
X38417765Y-33147794D01*
X38314991Y-33102415D01*
X38289865Y-33099500D01*
X38289863Y-33099500D01*
X37900141Y-33099500D01*
X37900132Y-33099501D01*
X37875006Y-33102415D01*
X37800352Y-33135379D01*
X37772235Y-33147794D01*
X37692794Y-33227235D01*
X37647415Y-33330009D01*
X37644500Y-33355135D01*
X37644500Y-33355137D01*
X37644501Y-34666000D01*
X37625756Y-34711255D01*
X37580501Y-34730000D01*
X13634499Y-34730000D01*
X13589244Y-34711255D01*
X13570499Y-34666000D01*
X13570499Y-6131769D01*
X14547900Y-6131769D01*
X14547900Y-30758230D01*
X14586036Y-30850297D01*
X15008520Y-31272781D01*
X15027265Y-31318036D01*
X15022393Y-31342528D01*
X14956028Y-31502746D01*
X14956025Y-31502756D01*
X14919500Y-31686381D01*
X14919500Y-31686384D01*
X14919500Y-31873616D01*
X14956027Y-32057251D01*
X14965127Y-32079221D01*
X15027676Y-32230228D01*
X15027677Y-32230230D01*
X15027678Y-32230231D01*
X15131698Y-32385908D01*
X15264092Y-32518302D01*
X15419769Y-32622322D01*
X15592749Y-32693973D01*
X15665599Y-32708463D01*
X15776381Y-32730500D01*
X15776384Y-32730500D01*
X15963619Y-32730500D01*
X16055851Y-32712153D01*
X16147251Y-32693973D01*
X16320231Y-32622322D01*
X16475908Y-32518302D01*
X16608302Y-32385908D01*
X16712322Y-32230231D01*
X16783973Y-32057251D01*
X16820500Y-31873616D01*
X16820500Y-31686384D01*
X16820500Y-31686381D01*
X17459500Y-31686381D01*
X17459500Y-31686384D01*
X17459500Y-31873616D01*
X17496027Y-32057251D01*
X17505127Y-32079221D01*
X17567676Y-32230228D01*
X17567677Y-32230230D01*
X17567678Y-32230231D01*
X17671698Y-32385908D01*
X17804092Y-32518302D01*
X17959769Y-32622322D01*
X18132749Y-32693973D01*
X18205599Y-32708463D01*
X18316381Y-32730500D01*
X18316384Y-32730500D01*
X18503619Y-32730500D01*
X18595851Y-32712153D01*
X18687251Y-32693973D01*
X18860231Y-32622322D01*
X19015908Y-32518302D01*
X19148302Y-32385908D01*
X19252322Y-32230231D01*
X19323973Y-32057251D01*
X19360500Y-31873616D01*
X19360500Y-31686384D01*
X19360500Y-31686381D01*
X22539500Y-31686381D01*
X22539500Y-31686384D01*
X22539500Y-31873616D01*
X22576027Y-32057251D01*
X22585127Y-32079221D01*
X22647676Y-32230228D01*
X22647677Y-32230230D01*
X22647678Y-32230231D01*
X22751698Y-32385908D01*
X22884092Y-32518302D01*
X23039769Y-32622322D01*
X23212749Y-32693973D01*
X23285599Y-32708463D01*
X23396381Y-32730500D01*
X23396384Y-32730500D01*
X23583619Y-32730500D01*
X23675851Y-32712153D01*
X23767251Y-32693973D01*
X23940231Y-32622322D01*
X24095908Y-32518302D01*
X24228302Y-32385908D01*
X24332322Y-32230231D01*
X24403973Y-32057251D01*
X24440500Y-31873616D01*
X24440500Y-31686384D01*
X24440500Y-31686381D01*
X25079500Y-31686381D01*
X25079500Y-31686384D01*
X25079500Y-31873616D01*
X25116027Y-32057251D01*
X25125127Y-32079221D01*
X25187676Y-32230228D01*
X25187677Y-32230230D01*
X25187678Y-32230231D01*
X25291698Y-32385908D01*
X25424092Y-32518302D01*
X25579769Y-32622322D01*
X25752749Y-32693973D01*
X25825599Y-32708463D01*
X25936381Y-32730500D01*
X25936384Y-32730500D01*
X26123619Y-32730500D01*
X26215851Y-32712153D01*
X26307251Y-32693973D01*
X26480231Y-32622322D01*
X26635908Y-32518302D01*
X26768302Y-32385908D01*
X26872322Y-32230231D01*
X26943973Y-32057251D01*
X26980500Y-31873616D01*
X26980500Y-31686384D01*
X26980500Y-31686381D01*
X27619500Y-31686381D01*
X27619500Y-31686384D01*
X27619500Y-31873616D01*
X27656027Y-32057251D01*
X27665127Y-32079221D01*
X27727676Y-32230228D01*
X27727677Y-32230230D01*
X27727678Y-32230231D01*
X27831698Y-32385908D01*
X27964092Y-32518302D01*
X28119769Y-32622322D01*
X28292749Y-32693973D01*
X28365599Y-32708463D01*
X28476381Y-32730500D01*
X28476384Y-32730500D01*
X28663619Y-32730500D01*
X28755851Y-32712153D01*
X28847251Y-32693973D01*
X29020231Y-32622322D01*
X29175908Y-32518302D01*
X29308302Y-32385908D01*
X29412322Y-32230231D01*
X29483973Y-32057251D01*
X29520500Y-31873616D01*
X29520500Y-31686384D01*
X29520500Y-31686381D01*
X30159500Y-31686381D01*
X30159500Y-31686384D01*
X30159500Y-31873616D01*
X30196027Y-32057251D01*
X30205127Y-32079221D01*
X30267676Y-32230228D01*
X30267677Y-32230230D01*
X30267678Y-32230231D01*
X30371698Y-32385908D01*
X30504092Y-32518302D01*
X30659769Y-32622322D01*
X30832749Y-32693973D01*
X30905599Y-32708463D01*
X31016381Y-32730500D01*
X31016384Y-32730500D01*
X31203619Y-32730500D01*
X31295851Y-32712153D01*
X31387251Y-32693973D01*
X31560231Y-32622322D01*
X31715908Y-32518302D01*
X31848302Y-32385908D01*
X31952322Y-32230231D01*
X32023973Y-32057251D01*
X32060500Y-31873616D01*
X32060500Y-31686384D01*
X32060500Y-31686381D01*
X35239500Y-31686381D01*
X35239500Y-31686384D01*
X35239500Y-31873616D01*
X35276027Y-32057251D01*
X35285127Y-32079221D01*
X35347676Y-32230228D01*
X35347677Y-32230230D01*
X35347678Y-32230231D01*
X35451698Y-32385908D01*
X35584092Y-32518302D01*
X35739769Y-32622322D01*
X35912749Y-32693973D01*
X35985599Y-32708463D01*
X36096381Y-32730500D01*
X36096384Y-32730500D01*
X36283619Y-32730500D01*
X36375851Y-32712153D01*
X36467251Y-32693973D01*
X36640231Y-32622322D01*
X36795908Y-32518302D01*
X36928302Y-32385908D01*
X37032322Y-32230231D01*
X37103973Y-32057251D01*
X37140500Y-31873616D01*
X37140500Y-31686384D01*
X37140500Y-31686381D01*
X37118463Y-31575599D01*
X37103973Y-31502749D01*
X37037607Y-31342528D01*
X37032323Y-31329771D01*
X37017169Y-31307091D01*
X36928302Y-31174092D01*
X36795908Y-31041698D01*
X36640231Y-30937678D01*
X36640230Y-30937677D01*
X36640228Y-30937676D01*
X36467253Y-30866028D01*
X36467254Y-30866028D01*
X36467251Y-30866027D01*
X36467247Y-30866026D01*
X36467243Y-30866025D01*
X36283619Y-30829500D01*
X36283616Y-30829500D01*
X36096384Y-30829500D01*
X36096381Y-30829500D01*
X35912756Y-30866025D01*
X35912746Y-30866028D01*
X35739771Y-30937676D01*
X35584090Y-31041699D01*
X35451699Y-31174090D01*
X35347676Y-31329771D01*
X35276028Y-31502746D01*
X35276025Y-31502756D01*
X35239500Y-31686381D01*
X32060500Y-31686381D01*
X32038463Y-31575599D01*
X32023973Y-31502749D01*
X31957607Y-31342528D01*
X31952323Y-31329771D01*
X31937169Y-31307091D01*
X31848302Y-31174092D01*
X31715908Y-31041698D01*
X31560231Y-30937678D01*
X31560230Y-30937677D01*
X31560228Y-30937676D01*
X31387253Y-30866028D01*
X31387254Y-30866028D01*
X31387251Y-30866027D01*
X31387247Y-30866026D01*
X31387243Y-30866025D01*
X31203619Y-30829500D01*
X31203616Y-30829500D01*
X31016384Y-30829500D01*
X31016381Y-30829500D01*
X30832756Y-30866025D01*
X30832746Y-30866028D01*
X30659771Y-30937676D01*
X30504090Y-31041699D01*
X30371699Y-31174090D01*
X30267676Y-31329771D01*
X30196028Y-31502746D01*
X30196025Y-31502756D01*
X30159500Y-31686381D01*
X29520500Y-31686381D01*
X29498463Y-31575599D01*
X29483973Y-31502749D01*
X29417607Y-31342528D01*
X29412323Y-31329771D01*
X29397169Y-31307091D01*
X29308302Y-31174092D01*
X29175908Y-31041698D01*
X29020231Y-30937678D01*
X29020230Y-30937677D01*
X29020228Y-30937676D01*
X28847253Y-30866028D01*
X28847254Y-30866028D01*
X28847251Y-30866027D01*
X28847247Y-30866026D01*
X28847243Y-30866025D01*
X28663619Y-30829500D01*
X28663616Y-30829500D01*
X28476384Y-30829500D01*
X28476381Y-30829500D01*
X28292756Y-30866025D01*
X28292746Y-30866028D01*
X28119771Y-30937676D01*
X27964090Y-31041699D01*
X27831699Y-31174090D01*
X27727676Y-31329771D01*
X27656028Y-31502746D01*
X27656025Y-31502756D01*
X27619500Y-31686381D01*
X26980500Y-31686381D01*
X26958463Y-31575599D01*
X26943973Y-31502749D01*
X26877607Y-31342528D01*
X26872323Y-31329771D01*
X26857169Y-31307091D01*
X26768302Y-31174092D01*
X26635908Y-31041698D01*
X26480231Y-30937678D01*
X26480230Y-30937677D01*
X26480228Y-30937676D01*
X26307253Y-30866028D01*
X26307254Y-30866028D01*
X26307251Y-30866027D01*
X26307247Y-30866026D01*
X26307243Y-30866025D01*
X26123619Y-30829500D01*
X26123616Y-30829500D01*
X25936384Y-30829500D01*
X25936381Y-30829500D01*
X25752756Y-30866025D01*
X25752746Y-30866028D01*
X25579771Y-30937676D01*
X25424090Y-31041699D01*
X25291699Y-31174090D01*
X25187676Y-31329771D01*
X25116028Y-31502746D01*
X25116025Y-31502756D01*
X25079500Y-31686381D01*
X24440500Y-31686381D01*
X24418463Y-31575599D01*
X24403973Y-31502749D01*
X24337607Y-31342528D01*
X24332323Y-31329771D01*
X24317169Y-31307091D01*
X24228302Y-31174092D01*
X24095908Y-31041698D01*
X23940231Y-30937678D01*
X23940230Y-30937677D01*
X23940228Y-30937676D01*
X23767253Y-30866028D01*
X23767254Y-30866028D01*
X23767251Y-30866027D01*
X23767247Y-30866026D01*
X23767243Y-30866025D01*
X23583619Y-30829500D01*
X23583616Y-30829500D01*
X23396384Y-30829500D01*
X23396381Y-30829500D01*
X23212756Y-30866025D01*
X23212746Y-30866028D01*
X23039771Y-30937676D01*
X22884090Y-31041699D01*
X22751699Y-31174090D01*
X22647676Y-31329771D01*
X22576028Y-31502746D01*
X22576025Y-31502756D01*
X22539500Y-31686381D01*
X19360500Y-31686381D01*
X19338463Y-31575599D01*
X19323973Y-31502749D01*
X19257607Y-31342528D01*
X19252323Y-31329771D01*
X19237169Y-31307091D01*
X19148302Y-31174092D01*
X19015908Y-31041698D01*
X18860231Y-30937678D01*
X18860230Y-30937677D01*
X18860228Y-30937676D01*
X18687253Y-30866028D01*
X18687254Y-30866028D01*
X18687251Y-30866027D01*
X18687247Y-30866026D01*
X18687243Y-30866025D01*
X18503619Y-30829500D01*
X18503616Y-30829500D01*
X18316384Y-30829500D01*
X18316381Y-30829500D01*
X18132756Y-30866025D01*
X18132746Y-30866028D01*
X17959771Y-30937676D01*
X17804090Y-31041699D01*
X17671699Y-31174090D01*
X17567676Y-31329771D01*
X17496028Y-31502746D01*
X17496025Y-31502756D01*
X17459500Y-31686381D01*
X16820500Y-31686381D01*
X16798463Y-31575599D01*
X16783973Y-31502749D01*
X16717607Y-31342528D01*
X16712323Y-31329771D01*
X16697169Y-31307091D01*
X16608302Y-31174092D01*
X16475908Y-31041698D01*
X16320231Y-30937678D01*
X16320230Y-30937677D01*
X16320228Y-30937676D01*
X16147253Y-30866028D01*
X16147254Y-30866028D01*
X16147251Y-30866027D01*
X16147247Y-30866026D01*
X16147243Y-30866025D01*
X15963619Y-30829500D01*
X15963616Y-30829500D01*
X15776384Y-30829500D01*
X15776381Y-30829500D01*
X15592756Y-30866025D01*
X15592746Y-30866028D01*
X15432528Y-30932393D01*
X15383544Y-30932393D01*
X15362781Y-30918520D01*
X15067645Y-30623384D01*
X15048900Y-30578129D01*
X15048900Y-23874578D01*
X15067645Y-23829323D01*
X15112900Y-23810578D01*
X15141008Y-23817081D01*
X15168607Y-23830573D01*
X15168610Y-23830573D01*
X15168612Y-23830574D01*
X15236739Y-23840500D01*
X15236740Y-23840500D01*
X16503261Y-23840500D01*
X16571387Y-23830574D01*
X16571387Y-23830573D01*
X16571393Y-23830573D01*
X16676483Y-23779198D01*
X16759198Y-23696483D01*
X16810573Y-23591393D01*
X16820500Y-23523260D01*
X16820500Y-22796381D01*
X17459500Y-22796381D01*
X17459500Y-22796384D01*
X17459500Y-22983616D01*
X17496027Y-23167251D01*
X17499181Y-23174865D01*
X17567676Y-23340228D01*
X17567677Y-23340230D01*
X17567678Y-23340231D01*
X17671698Y-23495908D01*
X17804092Y-23628302D01*
X17959769Y-23732322D01*
X18132749Y-23803973D01*
X18198648Y-23817081D01*
X18316381Y-23840500D01*
X18316384Y-23840500D01*
X18503619Y-23840500D01*
X18595851Y-23822153D01*
X18687251Y-23803973D01*
X18860231Y-23732322D01*
X19015908Y-23628302D01*
X19148302Y-23495908D01*
X19252322Y-23340231D01*
X19323973Y-23167251D01*
X19360500Y-22983616D01*
X19360500Y-22796384D01*
X19360500Y-22796381D01*
X22539500Y-22796381D01*
X22539500Y-22796384D01*
X22539500Y-22983616D01*
X22576027Y-23167251D01*
X22579181Y-23174865D01*
X22647676Y-23340228D01*
X22647677Y-23340230D01*
X22647678Y-23340231D01*
X22751698Y-23495908D01*
X22884092Y-23628302D01*
X23039769Y-23732322D01*
X23212749Y-23803973D01*
X23278648Y-23817081D01*
X23396381Y-23840500D01*
X23396384Y-23840500D01*
X23583619Y-23840500D01*
X23675851Y-23822153D01*
X23767251Y-23803973D01*
X23940231Y-23732322D01*
X24095908Y-23628302D01*
X24228302Y-23495908D01*
X24332322Y-23340231D01*
X24403973Y-23167251D01*
X24440500Y-22983616D01*
X24440500Y-22796384D01*
X24440500Y-22796381D01*
X24408111Y-22633552D01*
X24403973Y-22612749D01*
X24332322Y-22439769D01*
X24228302Y-22284092D01*
X24095908Y-22151698D01*
X23940231Y-22047678D01*
X23940230Y-22047677D01*
X23940228Y-22047676D01*
X23767253Y-21976028D01*
X23767254Y-21976028D01*
X23767251Y-21976027D01*
X23767247Y-21976026D01*
X23767243Y-21976025D01*
X23583619Y-21939500D01*
X23583616Y-21939500D01*
X23396384Y-21939500D01*
X23396381Y-21939500D01*
X23212756Y-21976025D01*
X23212746Y-21976028D01*
X23039771Y-22047676D01*
X22884090Y-22151699D01*
X22751699Y-22284090D01*
X22647676Y-22439771D01*
X22576028Y-22612746D01*
X22576025Y-22612756D01*
X22539500Y-22796381D01*
X19360500Y-22796381D01*
X19328111Y-22633552D01*
X19323973Y-22612749D01*
X19252322Y-22439769D01*
X19148302Y-22284092D01*
X19015908Y-22151698D01*
X18860231Y-22047678D01*
X18860230Y-22047677D01*
X18860228Y-22047676D01*
X18687253Y-21976028D01*
X18687254Y-21976028D01*
X18687251Y-21976027D01*
X18687247Y-21976026D01*
X18687243Y-21976025D01*
X18503619Y-21939500D01*
X18503616Y-21939500D01*
X18316384Y-21939500D01*
X18316381Y-21939500D01*
X18132756Y-21976025D01*
X18132746Y-21976028D01*
X17959771Y-22047676D01*
X17804090Y-22151699D01*
X17671699Y-22284090D01*
X17567676Y-22439771D01*
X17496028Y-22612746D01*
X17496025Y-22612756D01*
X17459500Y-22796381D01*
X16820500Y-22796381D01*
X16820500Y-22256740D01*
X16810573Y-22188607D01*
X16759198Y-22083517D01*
X16676483Y-22000802D01*
X16676482Y-22000801D01*
X16571395Y-21949428D01*
X16571393Y-21949427D01*
X16571391Y-21949426D01*
X16571387Y-21949425D01*
X16503261Y-21939500D01*
X16503260Y-21939500D01*
X16184500Y-21939500D01*
X16139245Y-21920755D01*
X16120500Y-21875500D01*
X16120500Y-16670270D01*
X16139244Y-16625016D01*
X17902781Y-14861478D01*
X17948035Y-14842734D01*
X17972524Y-14847605D01*
X18132749Y-14913973D01*
X18198648Y-14927081D01*
X18316381Y-14950500D01*
X18316384Y-14950500D01*
X18503619Y-14950500D01*
X18595851Y-14932153D01*
X18687251Y-14913973D01*
X18860231Y-14842322D01*
X19015908Y-14738302D01*
X19148302Y-14605908D01*
X19252322Y-14450231D01*
X19323973Y-14277251D01*
X19360500Y-14093616D01*
X19360500Y-13906384D01*
X19360500Y-13906381D01*
X22539500Y-13906381D01*
X22539500Y-14093618D01*
X22576025Y-14277243D01*
X22576028Y-14277253D01*
X22647676Y-14450228D01*
X22647677Y-14450230D01*
X22647678Y-14450231D01*
X22751698Y-14605908D01*
X22884092Y-14738302D01*
X22986129Y-14806481D01*
X23039772Y-14842324D01*
X23141246Y-14884355D01*
X23199991Y-14908688D01*
X23234628Y-14943324D01*
X23239500Y-14967816D01*
X23239500Y-20399830D01*
X23277636Y-20491897D01*
X25168520Y-22382781D01*
X25187265Y-22428036D01*
X25182393Y-22452528D01*
X25116028Y-22612746D01*
X25116025Y-22612756D01*
X25079500Y-22796381D01*
X25079500Y-22796384D01*
X25079500Y-22983616D01*
X25116027Y-23167251D01*
X25119181Y-23174865D01*
X25187676Y-23340228D01*
X25187677Y-23340230D01*
X25187678Y-23340231D01*
X25291698Y-23495908D01*
X25424092Y-23628302D01*
X25579769Y-23732322D01*
X25752749Y-23803973D01*
X25818648Y-23817081D01*
X25936381Y-23840500D01*
X25936384Y-23840500D01*
X26123619Y-23840500D01*
X26215851Y-23822153D01*
X26307251Y-23803973D01*
X26480231Y-23732322D01*
X26635908Y-23628302D01*
X26768302Y-23495908D01*
X26872322Y-23340231D01*
X26943973Y-23167251D01*
X26980500Y-22983616D01*
X26980500Y-22796384D01*
X26980500Y-22796381D01*
X27619500Y-22796381D01*
X27619500Y-22796384D01*
X27619500Y-22983616D01*
X27656027Y-23167251D01*
X27659181Y-23174865D01*
X27727676Y-23340228D01*
X27727677Y-23340230D01*
X27727678Y-23340231D01*
X27831698Y-23495908D01*
X27964092Y-23628302D01*
X28119769Y-23732322D01*
X28292749Y-23803973D01*
X28358648Y-23817081D01*
X28476381Y-23840500D01*
X28476384Y-23840500D01*
X28663619Y-23840500D01*
X28755851Y-23822153D01*
X28847251Y-23803973D01*
X29020231Y-23732322D01*
X29175908Y-23628302D01*
X29308302Y-23495908D01*
X29412322Y-23340231D01*
X29483973Y-23167251D01*
X29520500Y-22983616D01*
X29520500Y-22796384D01*
X29520500Y-22796381D01*
X30159500Y-22796381D01*
X30159500Y-22796384D01*
X30159500Y-22983616D01*
X30196027Y-23167251D01*
X30199181Y-23174865D01*
X30267676Y-23340228D01*
X30267677Y-23340230D01*
X30267678Y-23340231D01*
X30371698Y-23495908D01*
X30504092Y-23628302D01*
X30659769Y-23732322D01*
X30832749Y-23803973D01*
X30898648Y-23817081D01*
X31016381Y-23840500D01*
X31016384Y-23840500D01*
X31203619Y-23840500D01*
X31295851Y-23822153D01*
X31387251Y-23803973D01*
X31560231Y-23732322D01*
X31715908Y-23628302D01*
X31848302Y-23495908D01*
X31952322Y-23340231D01*
X32023973Y-23167251D01*
X32060500Y-22983616D01*
X32060500Y-22796384D01*
X32060500Y-22796381D01*
X35239500Y-22796381D01*
X35239500Y-22796384D01*
X35239500Y-22983616D01*
X35276027Y-23167251D01*
X35279181Y-23174865D01*
X35347676Y-23340228D01*
X35347677Y-23340230D01*
X35347678Y-23340231D01*
X35451698Y-23495908D01*
X35584092Y-23628302D01*
X35739769Y-23732322D01*
X35912749Y-23803973D01*
X35978648Y-23817081D01*
X36096381Y-23840500D01*
X36096384Y-23840500D01*
X36283619Y-23840500D01*
X36375851Y-23822153D01*
X36467251Y-23803973D01*
X36640231Y-23732322D01*
X36795908Y-23628302D01*
X36928302Y-23495908D01*
X37032322Y-23340231D01*
X37103973Y-23167251D01*
X37140500Y-22983616D01*
X37140500Y-22796384D01*
X37140500Y-22796381D01*
X37779500Y-22796381D01*
X37779500Y-22796384D01*
X37779500Y-22983616D01*
X37816027Y-23167251D01*
X37819181Y-23174865D01*
X37887676Y-23340228D01*
X37887677Y-23340230D01*
X37887678Y-23340231D01*
X37991698Y-23495908D01*
X38124092Y-23628302D01*
X38279769Y-23732322D01*
X38452749Y-23803973D01*
X38518648Y-23817081D01*
X38636381Y-23840500D01*
X38636384Y-23840500D01*
X38823619Y-23840500D01*
X38915851Y-23822153D01*
X39007251Y-23803973D01*
X39180231Y-23732322D01*
X39335908Y-23628302D01*
X39468302Y-23495908D01*
X39572322Y-23340231D01*
X39643973Y-23167251D01*
X39680500Y-22983616D01*
X39680500Y-22796384D01*
X39680500Y-22796381D01*
X40319500Y-22796381D01*
X40319500Y-22796384D01*
X40319500Y-22983616D01*
X40356027Y-23167251D01*
X40359181Y-23174865D01*
X40427676Y-23340228D01*
X40427677Y-23340230D01*
X40427678Y-23340231D01*
X40531698Y-23495908D01*
X40664092Y-23628302D01*
X40819769Y-23732322D01*
X40992749Y-23803973D01*
X41058648Y-23817081D01*
X41176381Y-23840500D01*
X41176384Y-23840500D01*
X41363619Y-23840500D01*
X41455851Y-23822153D01*
X41547251Y-23803973D01*
X41720231Y-23732322D01*
X41875908Y-23628302D01*
X42008302Y-23495908D01*
X42112322Y-23340231D01*
X42183973Y-23167251D01*
X42220500Y-22983616D01*
X42220500Y-22796384D01*
X42220500Y-22796381D01*
X42859500Y-22796381D01*
X42859500Y-22796384D01*
X42859500Y-22983616D01*
X42896027Y-23167251D01*
X42899181Y-23174865D01*
X42967676Y-23340228D01*
X42967677Y-23340230D01*
X42967678Y-23340231D01*
X43071698Y-23495908D01*
X43204092Y-23628302D01*
X43359769Y-23732322D01*
X43532749Y-23803973D01*
X43598648Y-23817081D01*
X43716381Y-23840500D01*
X43716384Y-23840500D01*
X43903619Y-23840500D01*
X43995851Y-23822153D01*
X44087251Y-23803973D01*
X44260231Y-23732322D01*
X44415908Y-23628302D01*
X44548302Y-23495908D01*
X44652322Y-23340231D01*
X44723973Y-23167251D01*
X44760500Y-22983616D01*
X44760500Y-22796384D01*
X44760500Y-22796381D01*
X44728111Y-22633552D01*
X44723973Y-22612749D01*
X44652322Y-22439769D01*
X44548302Y-22284092D01*
X44415908Y-22151698D01*
X44260231Y-22047678D01*
X44260230Y-22047677D01*
X44260228Y-22047676D01*
X44087253Y-21976028D01*
X44087254Y-21976028D01*
X44087251Y-21976027D01*
X44087247Y-21976026D01*
X44087243Y-21976025D01*
X43903619Y-21939500D01*
X43903616Y-21939500D01*
X43716384Y-21939500D01*
X43716381Y-21939500D01*
X43532756Y-21976025D01*
X43532746Y-21976028D01*
X43359771Y-22047676D01*
X43204090Y-22151699D01*
X43071699Y-22284090D01*
X42967676Y-22439771D01*
X42896028Y-22612746D01*
X42896025Y-22612756D01*
X42859500Y-22796381D01*
X42220500Y-22796381D01*
X42188111Y-22633552D01*
X42183973Y-22612749D01*
X42112322Y-22439769D01*
X42008302Y-22284092D01*
X41875908Y-22151698D01*
X41720231Y-22047678D01*
X41720230Y-22047677D01*
X41720228Y-22047676D01*
X41547253Y-21976028D01*
X41547254Y-21976028D01*
X41547251Y-21976027D01*
X41547247Y-21976026D01*
X41547243Y-21976025D01*
X41363619Y-21939500D01*
X41363616Y-21939500D01*
X41176384Y-21939500D01*
X41176381Y-21939500D01*
X40992756Y-21976025D01*
X40992746Y-21976028D01*
X40819771Y-22047676D01*
X40664090Y-22151699D01*
X40531699Y-22284090D01*
X40427676Y-22439771D01*
X40356028Y-22612746D01*
X40356025Y-22612756D01*
X40319500Y-22796381D01*
X39680500Y-22796381D01*
X39648111Y-22633552D01*
X39643973Y-22612749D01*
X39572322Y-22439769D01*
X39468302Y-22284092D01*
X39335908Y-22151698D01*
X39180231Y-22047678D01*
X39180230Y-22047677D01*
X39180228Y-22047676D01*
X39007253Y-21976028D01*
X39007254Y-21976028D01*
X39007251Y-21976027D01*
X39007247Y-21976026D01*
X39007243Y-21976025D01*
X38823619Y-21939500D01*
X38823616Y-21939500D01*
X38636384Y-21939500D01*
X38636381Y-21939500D01*
X38452756Y-21976025D01*
X38452746Y-21976028D01*
X38279771Y-22047676D01*
X38124090Y-22151699D01*
X37991699Y-22284090D01*
X37887676Y-22439771D01*
X37816028Y-22612746D01*
X37816025Y-22612756D01*
X37779500Y-22796381D01*
X37140500Y-22796381D01*
X37108111Y-22633552D01*
X37103973Y-22612749D01*
X37032322Y-22439769D01*
X36928302Y-22284092D01*
X36795908Y-22151698D01*
X36640231Y-22047678D01*
X36640230Y-22047677D01*
X36640228Y-22047676D01*
X36467253Y-21976028D01*
X36467254Y-21976028D01*
X36467251Y-21976027D01*
X36467247Y-21976026D01*
X36467243Y-21976025D01*
X36283619Y-21939500D01*
X36283616Y-21939500D01*
X36096384Y-21939500D01*
X36096381Y-21939500D01*
X35912756Y-21976025D01*
X35912746Y-21976028D01*
X35739771Y-22047676D01*
X35584090Y-22151699D01*
X35451699Y-22284090D01*
X35347676Y-22439771D01*
X35276028Y-22612746D01*
X35276025Y-22612756D01*
X35239500Y-22796381D01*
X32060500Y-22796381D01*
X32028111Y-22633552D01*
X32023973Y-22612749D01*
X31952322Y-22439769D01*
X31848302Y-22284092D01*
X31715908Y-22151698D01*
X31560231Y-22047678D01*
X31560230Y-22047677D01*
X31560228Y-22047676D01*
X31387253Y-21976028D01*
X31387254Y-21976028D01*
X31387251Y-21976027D01*
X31387247Y-21976026D01*
X31387243Y-21976025D01*
X31203619Y-21939500D01*
X31203616Y-21939500D01*
X31016384Y-21939500D01*
X31016381Y-21939500D01*
X30832756Y-21976025D01*
X30832746Y-21976028D01*
X30659771Y-22047676D01*
X30504090Y-22151699D01*
X30371699Y-22284090D01*
X30267676Y-22439771D01*
X30196028Y-22612746D01*
X30196025Y-22612756D01*
X30159500Y-22796381D01*
X29520500Y-22796381D01*
X29488111Y-22633552D01*
X29483973Y-22612749D01*
X29412322Y-22439769D01*
X29308302Y-22284092D01*
X29175908Y-22151698D01*
X29020231Y-22047678D01*
X29020230Y-22047677D01*
X29020228Y-22047676D01*
X28847253Y-21976028D01*
X28847254Y-21976028D01*
X28847251Y-21976027D01*
X28847247Y-21976026D01*
X28847243Y-21976025D01*
X28663619Y-21939500D01*
X28663616Y-21939500D01*
X28476384Y-21939500D01*
X28476381Y-21939500D01*
X28292756Y-21976025D01*
X28292746Y-21976028D01*
X28119771Y-22047676D01*
X27964090Y-22151699D01*
X27831699Y-22284090D01*
X27727676Y-22439771D01*
X27656028Y-22612746D01*
X27656025Y-22612756D01*
X27619500Y-22796381D01*
X26980500Y-22796381D01*
X26948111Y-22633552D01*
X26943973Y-22612749D01*
X26872322Y-22439769D01*
X26768302Y-22284092D01*
X26635908Y-22151698D01*
X26480231Y-22047678D01*
X26480230Y-22047677D01*
X26480228Y-22047676D01*
X26307253Y-21976028D01*
X26307254Y-21976028D01*
X26307251Y-21976027D01*
X26307247Y-21976026D01*
X26307243Y-21976025D01*
X26123619Y-21939500D01*
X26123616Y-21939500D01*
X25936384Y-21939500D01*
X25936381Y-21939500D01*
X25752756Y-21976025D01*
X25752746Y-21976028D01*
X25592528Y-22042393D01*
X25543544Y-22042393D01*
X25522781Y-22028520D01*
X23759245Y-20264984D01*
X23740500Y-20219729D01*
X23740500Y-14967816D01*
X23759245Y-14922561D01*
X23780007Y-14908689D01*
X23893982Y-14861479D01*
X23940227Y-14842324D01*
X23940228Y-14842323D01*
X23940231Y-14842322D01*
X24095908Y-14738302D01*
X24228302Y-14605908D01*
X24332322Y-14450231D01*
X24403973Y-14277251D01*
X24440500Y-14093616D01*
X24440500Y-13906384D01*
X24440500Y-13906381D01*
X25079500Y-13906381D01*
X25079500Y-14093618D01*
X25116025Y-14277243D01*
X25116028Y-14277253D01*
X25187676Y-14450228D01*
X25187677Y-14450230D01*
X25187678Y-14450231D01*
X25291698Y-14605908D01*
X25424092Y-14738302D01*
X25579769Y-14842322D01*
X25579770Y-14842322D01*
X25579771Y-14842323D01*
X25611718Y-14855556D01*
X25752749Y-14913973D01*
X25818648Y-14927081D01*
X25936381Y-14950500D01*
X25936384Y-14950500D01*
X26123619Y-14950500D01*
X26215851Y-14932153D01*
X26307251Y-14913973D01*
X26480231Y-14842322D01*
X26635908Y-14738302D01*
X26768302Y-14605908D01*
X26872322Y-14450231D01*
X26943973Y-14277251D01*
X26980500Y-14093616D01*
X26980500Y-13906384D01*
X26980500Y-13906381D01*
X27619500Y-13906381D01*
X27619500Y-14093618D01*
X27656025Y-14277243D01*
X27656028Y-14277253D01*
X27727676Y-14450228D01*
X27727677Y-14450230D01*
X27727678Y-14450231D01*
X27831698Y-14605908D01*
X27964092Y-14738302D01*
X28119769Y-14842322D01*
X28119770Y-14842322D01*
X28119771Y-14842323D01*
X28151718Y-14855556D01*
X28292749Y-14913973D01*
X28358648Y-14927081D01*
X28476381Y-14950500D01*
X28476384Y-14950500D01*
X28663619Y-14950500D01*
X28755851Y-14932153D01*
X28847251Y-14913973D01*
X29020231Y-14842322D01*
X29175908Y-14738302D01*
X29308302Y-14605908D01*
X29412322Y-14450231D01*
X29483973Y-14277251D01*
X29520500Y-14093616D01*
X29520500Y-13906384D01*
X29520500Y-13906381D01*
X30159500Y-13906381D01*
X30159500Y-14093618D01*
X30196025Y-14277243D01*
X30196028Y-14277253D01*
X30267676Y-14450228D01*
X30267677Y-14450230D01*
X30267678Y-14450231D01*
X30371698Y-14605908D01*
X30504092Y-14738302D01*
X30659769Y-14842322D01*
X30659770Y-14842322D01*
X30659771Y-14842323D01*
X30691718Y-14855556D01*
X30832749Y-14913973D01*
X30898648Y-14927081D01*
X31016381Y-14950500D01*
X31016384Y-14950500D01*
X31203619Y-14950500D01*
X31295851Y-14932153D01*
X31387251Y-14913973D01*
X31560231Y-14842322D01*
X31715908Y-14738302D01*
X31848302Y-14605908D01*
X31952322Y-14450231D01*
X32023973Y-14277251D01*
X32060500Y-14093616D01*
X32060500Y-13906384D01*
X32060500Y-13906381D01*
X35239500Y-13906381D01*
X35239500Y-14093618D01*
X35276025Y-14277243D01*
X35276028Y-14277253D01*
X35347676Y-14450228D01*
X35347677Y-14450230D01*
X35347678Y-14450231D01*
X35451698Y-14605908D01*
X35584092Y-14738302D01*
X35739769Y-14842322D01*
X35739770Y-14842322D01*
X35739771Y-14842323D01*
X35771718Y-14855556D01*
X35912749Y-14913973D01*
X35978648Y-14927081D01*
X36096381Y-14950500D01*
X36096384Y-14950500D01*
X36283619Y-14950500D01*
X36375851Y-14932153D01*
X36467251Y-14913973D01*
X36640231Y-14842322D01*
X36795908Y-14738302D01*
X36928302Y-14605908D01*
X37032322Y-14450231D01*
X37103973Y-14277251D01*
X37140500Y-14093616D01*
X37140500Y-13906384D01*
X37140500Y-13906381D01*
X37779500Y-13906381D01*
X37779500Y-14093618D01*
X37816025Y-14277243D01*
X37816028Y-14277253D01*
X37887676Y-14450228D01*
X37887677Y-14450230D01*
X37887678Y-14450231D01*
X37991698Y-14605908D01*
X38124092Y-14738302D01*
X38279769Y-14842322D01*
X38279770Y-14842322D01*
X38279771Y-14842323D01*
X38311718Y-14855556D01*
X38452749Y-14913973D01*
X38518648Y-14927081D01*
X38636381Y-14950500D01*
X38636384Y-14950500D01*
X38823619Y-14950500D01*
X38915851Y-14932153D01*
X39007251Y-14913973D01*
X39180231Y-14842322D01*
X39335908Y-14738302D01*
X39468302Y-14605908D01*
X39572322Y-14450231D01*
X39643973Y-14277251D01*
X39680500Y-14093616D01*
X39680500Y-13906384D01*
X39680500Y-13906381D01*
X40319500Y-13906381D01*
X40319500Y-14093618D01*
X40356025Y-14277243D01*
X40356028Y-14277253D01*
X40427676Y-14450228D01*
X40427677Y-14450230D01*
X40427678Y-14450231D01*
X40531698Y-14605908D01*
X40664092Y-14738302D01*
X40819769Y-14842322D01*
X40819770Y-14842322D01*
X40819771Y-14842323D01*
X40851718Y-14855556D01*
X40992749Y-14913973D01*
X41058648Y-14927081D01*
X41176381Y-14950500D01*
X41176384Y-14950500D01*
X41363619Y-14950500D01*
X41455851Y-14932153D01*
X41547251Y-14913973D01*
X41720231Y-14842322D01*
X41875908Y-14738302D01*
X42008302Y-14605908D01*
X42112322Y-14450231D01*
X42183973Y-14277251D01*
X42220500Y-14093616D01*
X42220500Y-13906384D01*
X42220500Y-13906381D01*
X42186616Y-13736036D01*
X42183973Y-13722749D01*
X42112322Y-13549769D01*
X42008302Y-13394092D01*
X41875908Y-13261698D01*
X41720231Y-13157678D01*
X41720230Y-13157677D01*
X41720228Y-13157676D01*
X41547253Y-13086028D01*
X41547254Y-13086028D01*
X41547251Y-13086027D01*
X41547247Y-13086026D01*
X41547243Y-13086025D01*
X41363619Y-13049500D01*
X41363616Y-13049500D01*
X41176384Y-13049500D01*
X41176381Y-13049500D01*
X40992756Y-13086025D01*
X40992746Y-13086028D01*
X40819771Y-13157676D01*
X40664090Y-13261699D01*
X40531699Y-13394090D01*
X40427676Y-13549771D01*
X40356028Y-13722746D01*
X40356025Y-13722756D01*
X40319500Y-13906381D01*
X39680500Y-13906381D01*
X39646616Y-13736036D01*
X39643973Y-13722749D01*
X39572322Y-13549769D01*
X39468302Y-13394092D01*
X39335908Y-13261698D01*
X39180231Y-13157678D01*
X39180230Y-13157677D01*
X39180228Y-13157676D01*
X39007253Y-13086028D01*
X39007254Y-13086028D01*
X39007251Y-13086027D01*
X39007247Y-13086026D01*
X39007243Y-13086025D01*
X38823619Y-13049500D01*
X38823616Y-13049500D01*
X38636384Y-13049500D01*
X38636381Y-13049500D01*
X38452756Y-13086025D01*
X38452746Y-13086028D01*
X38279771Y-13157676D01*
X38124090Y-13261699D01*
X37991699Y-13394090D01*
X37887676Y-13549771D01*
X37816028Y-13722746D01*
X37816025Y-13722756D01*
X37779500Y-13906381D01*
X37140500Y-13906381D01*
X37106616Y-13736036D01*
X37103973Y-13722749D01*
X37032322Y-13549769D01*
X36928302Y-13394092D01*
X36795908Y-13261698D01*
X36640231Y-13157678D01*
X36640230Y-13157677D01*
X36640228Y-13157676D01*
X36467253Y-13086028D01*
X36467254Y-13086028D01*
X36467251Y-13086027D01*
X36467247Y-13086026D01*
X36467243Y-13086025D01*
X36283619Y-13049500D01*
X36283616Y-13049500D01*
X36096384Y-13049500D01*
X36096381Y-13049500D01*
X35912756Y-13086025D01*
X35912746Y-13086028D01*
X35739771Y-13157676D01*
X35584090Y-13261699D01*
X35451699Y-13394090D01*
X35347676Y-13549771D01*
X35276028Y-13722746D01*
X35276025Y-13722756D01*
X35239500Y-13906381D01*
X32060500Y-13906381D01*
X32026616Y-13736036D01*
X32023973Y-13722749D01*
X31952322Y-13549769D01*
X31848302Y-13394092D01*
X31715908Y-13261698D01*
X31560231Y-13157678D01*
X31560230Y-13157677D01*
X31560228Y-13157676D01*
X31387253Y-13086028D01*
X31387254Y-13086028D01*
X31387251Y-13086027D01*
X31387247Y-13086026D01*
X31387243Y-13086025D01*
X31203619Y-13049500D01*
X31203616Y-13049500D01*
X31016384Y-13049500D01*
X31016381Y-13049500D01*
X30832756Y-13086025D01*
X30832746Y-13086028D01*
X30659771Y-13157676D01*
X30504090Y-13261699D01*
X30371699Y-13394090D01*
X30267676Y-13549771D01*
X30196028Y-13722746D01*
X30196025Y-13722756D01*
X30159500Y-13906381D01*
X29520500Y-13906381D01*
X29486616Y-13736036D01*
X29483973Y-13722749D01*
X29412322Y-13549769D01*
X29308302Y-13394092D01*
X29175908Y-13261698D01*
X29020231Y-13157678D01*
X29020230Y-13157677D01*
X29020228Y-13157676D01*
X28847253Y-13086028D01*
X28847254Y-13086028D01*
X28847251Y-13086027D01*
X28847247Y-13086026D01*
X28847243Y-13086025D01*
X28663619Y-13049500D01*
X28663616Y-13049500D01*
X28476384Y-13049500D01*
X28476381Y-13049500D01*
X28292756Y-13086025D01*
X28292746Y-13086028D01*
X28119771Y-13157676D01*
X27964090Y-13261699D01*
X27831699Y-13394090D01*
X27727676Y-13549771D01*
X27656028Y-13722746D01*
X27656025Y-13722756D01*
X27619500Y-13906381D01*
X26980500Y-13906381D01*
X26946616Y-13736036D01*
X26943973Y-13722749D01*
X26872322Y-13549769D01*
X26768302Y-13394092D01*
X26635908Y-13261698D01*
X26480231Y-13157678D01*
X26480230Y-13157677D01*
X26480228Y-13157676D01*
X26307253Y-13086028D01*
X26307254Y-13086028D01*
X26307251Y-13086027D01*
X26307247Y-13086026D01*
X26307243Y-13086025D01*
X26123619Y-13049500D01*
X26123616Y-13049500D01*
X25936384Y-13049500D01*
X25936381Y-13049500D01*
X25752756Y-13086025D01*
X25752746Y-13086028D01*
X25579771Y-13157676D01*
X25424090Y-13261699D01*
X25291699Y-13394090D01*
X25187676Y-13549771D01*
X25116028Y-13722746D01*
X25116025Y-13722756D01*
X25079500Y-13906381D01*
X24440500Y-13906381D01*
X24406616Y-13736036D01*
X24403973Y-13722749D01*
X24332322Y-13549769D01*
X24228302Y-13394092D01*
X24095908Y-13261698D01*
X23940231Y-13157678D01*
X23940230Y-13157677D01*
X23940228Y-13157676D01*
X23767253Y-13086028D01*
X23767254Y-13086028D01*
X23767251Y-13086027D01*
X23767247Y-13086026D01*
X23767243Y-13086025D01*
X23583619Y-13049500D01*
X23583616Y-13049500D01*
X23396384Y-13049500D01*
X23396381Y-13049500D01*
X23212756Y-13086025D01*
X23212746Y-13086028D01*
X23039771Y-13157676D01*
X22884090Y-13261699D01*
X22751699Y-13394090D01*
X22647676Y-13549771D01*
X22576028Y-13722746D01*
X22576025Y-13722756D01*
X22539500Y-13906381D01*
X19360500Y-13906381D01*
X19326616Y-13736036D01*
X19323973Y-13722749D01*
X19252322Y-13549769D01*
X19148302Y-13394092D01*
X19015908Y-13261698D01*
X18860231Y-13157678D01*
X18860230Y-13157677D01*
X18860228Y-13157676D01*
X18687253Y-13086028D01*
X18687254Y-13086028D01*
X18687251Y-13086027D01*
X18687247Y-13086026D01*
X18687243Y-13086025D01*
X18503619Y-13049500D01*
X18503616Y-13049500D01*
X18316384Y-13049500D01*
X18316381Y-13049500D01*
X18132756Y-13086025D01*
X18132746Y-13086028D01*
X17959771Y-13157676D01*
X17804090Y-13261699D01*
X17671699Y-13394090D01*
X17567676Y-13549771D01*
X17496028Y-13722746D01*
X17496025Y-13722756D01*
X17459500Y-13906381D01*
X17459500Y-14093618D01*
X17496025Y-14277243D01*
X17496028Y-14277253D01*
X17562392Y-14437471D01*
X17562392Y-14486455D01*
X17548519Y-14507218D01*
X15728103Y-16327636D01*
X15657636Y-16398102D01*
X15619500Y-16490169D01*
X15619500Y-21875500D01*
X15600755Y-21920755D01*
X15555500Y-21939500D01*
X15236739Y-21939500D01*
X15168612Y-21949425D01*
X15168606Y-21949427D01*
X15141007Y-21962919D01*
X15092118Y-21965953D01*
X15055402Y-21933528D01*
X15048900Y-21905421D01*
X15048900Y-14984578D01*
X15067645Y-14939323D01*
X15112900Y-14920578D01*
X15141008Y-14927081D01*
X15168607Y-14940573D01*
X15168610Y-14940573D01*
X15168612Y-14940574D01*
X15236739Y-14950500D01*
X15236740Y-14950500D01*
X16503261Y-14950500D01*
X16571387Y-14940574D01*
X16571387Y-14940573D01*
X16571393Y-14940573D01*
X16676483Y-14889198D01*
X16759198Y-14806483D01*
X16810573Y-14701393D01*
X16811259Y-14696684D01*
X16820500Y-14633261D01*
X16820500Y-13366738D01*
X16810574Y-13298612D01*
X16810573Y-13298610D01*
X16810573Y-13298607D01*
X16759198Y-13193517D01*
X16676483Y-13110802D01*
X16676482Y-13110801D01*
X16571395Y-13059428D01*
X16571393Y-13059427D01*
X16571391Y-13059426D01*
X16571387Y-13059425D01*
X16503261Y-13049500D01*
X16503260Y-13049500D01*
X15236740Y-13049500D01*
X15236739Y-13049500D01*
X15168612Y-13059425D01*
X15168606Y-13059427D01*
X15141007Y-13072919D01*
X15092118Y-13075953D01*
X15055402Y-13043528D01*
X15048900Y-13015421D01*
X15048900Y-6311870D01*
X15067644Y-6266616D01*
X15362781Y-5971478D01*
X15408035Y-5952734D01*
X15432524Y-5957605D01*
X15592749Y-6023973D01*
X15665599Y-6038463D01*
X15776381Y-6060500D01*
X15776384Y-6060500D01*
X15963619Y-6060500D01*
X16068175Y-6039702D01*
X16147251Y-6023973D01*
X16320231Y-5952322D01*
X16475908Y-5848302D01*
X16608302Y-5715908D01*
X16712322Y-5560231D01*
X16783973Y-5387251D01*
X16820500Y-5203616D01*
X16820500Y-5016384D01*
X16820500Y-5016381D01*
X17459500Y-5016381D01*
X17459500Y-5203618D01*
X17496025Y-5387243D01*
X17496028Y-5387253D01*
X17567676Y-5560228D01*
X17567677Y-5560230D01*
X17567678Y-5560231D01*
X17671698Y-5715908D01*
X17804092Y-5848302D01*
X17959769Y-5952322D01*
X17959770Y-5952322D01*
X17959771Y-5952323D01*
X17972528Y-5957607D01*
X18132749Y-6023973D01*
X18205599Y-6038463D01*
X18316381Y-6060500D01*
X18316384Y-6060500D01*
X18503619Y-6060500D01*
X18608175Y-6039702D01*
X18687251Y-6023973D01*
X18860231Y-5952322D01*
X19015908Y-5848302D01*
X19148302Y-5715908D01*
X19252322Y-5560231D01*
X19323973Y-5387251D01*
X19360500Y-5203616D01*
X19360500Y-5016384D01*
X19360500Y-5016381D01*
X22539500Y-5016381D01*
X22539500Y-5203618D01*
X22576025Y-5387243D01*
X22576028Y-5387253D01*
X22647676Y-5560228D01*
X22647677Y-5560230D01*
X22647678Y-5560231D01*
X22751698Y-5715908D01*
X22884092Y-5848302D01*
X23039769Y-5952322D01*
X23039770Y-5952322D01*
X23039771Y-5952323D01*
X23052528Y-5957607D01*
X23212749Y-6023973D01*
X23285599Y-6038463D01*
X23396381Y-6060500D01*
X23396384Y-6060500D01*
X23583619Y-6060500D01*
X23688175Y-6039702D01*
X23767251Y-6023973D01*
X23940231Y-5952322D01*
X24095908Y-5848302D01*
X24228302Y-5715908D01*
X24332322Y-5560231D01*
X24403973Y-5387251D01*
X24440500Y-5203616D01*
X24440500Y-5016384D01*
X24440500Y-5016381D01*
X24403974Y-4832756D01*
X24403973Y-4832749D01*
X24332322Y-4659769D01*
X24228302Y-4504092D01*
X24095908Y-4371698D01*
X23940231Y-4267678D01*
X23940230Y-4267677D01*
X23940228Y-4267676D01*
X23767253Y-4196028D01*
X23767254Y-4196028D01*
X23767251Y-4196027D01*
X23767247Y-4196026D01*
X23767243Y-4196025D01*
X23583619Y-4159500D01*
X23583616Y-4159500D01*
X23396384Y-4159500D01*
X23396381Y-4159500D01*
X23212756Y-4196025D01*
X23212746Y-4196028D01*
X23039771Y-4267676D01*
X22884090Y-4371699D01*
X22751699Y-4504090D01*
X22647676Y-4659771D01*
X22576028Y-4832746D01*
X22576025Y-4832756D01*
X22539500Y-5016381D01*
X19360500Y-5016381D01*
X19323974Y-4832756D01*
X19323973Y-4832749D01*
X19252322Y-4659769D01*
X19148302Y-4504092D01*
X19015908Y-4371698D01*
X18860231Y-4267678D01*
X18860230Y-4267677D01*
X18860228Y-4267676D01*
X18687253Y-4196028D01*
X18687254Y-4196028D01*
X18687251Y-4196027D01*
X18687247Y-4196026D01*
X18687243Y-4196025D01*
X18503619Y-4159500D01*
X18503616Y-4159500D01*
X18316384Y-4159500D01*
X18316381Y-4159500D01*
X18132756Y-4196025D01*
X18132746Y-4196028D01*
X17959771Y-4267676D01*
X17804090Y-4371699D01*
X17671699Y-4504090D01*
X17567676Y-4659771D01*
X17496028Y-4832746D01*
X17496025Y-4832756D01*
X17459500Y-5016381D01*
X16820500Y-5016381D01*
X16783974Y-4832756D01*
X16783973Y-4832749D01*
X16712322Y-4659769D01*
X16608302Y-4504092D01*
X16475908Y-4371698D01*
X16320231Y-4267678D01*
X16320230Y-4267677D01*
X16320228Y-4267676D01*
X16147253Y-4196028D01*
X16147254Y-4196028D01*
X16147251Y-4196027D01*
X16147247Y-4196026D01*
X16147243Y-4196025D01*
X15963619Y-4159500D01*
X15963616Y-4159500D01*
X15776384Y-4159500D01*
X15776381Y-4159500D01*
X15592756Y-4196025D01*
X15592746Y-4196028D01*
X15419771Y-4267676D01*
X15264090Y-4371699D01*
X15131699Y-4504090D01*
X15027676Y-4659771D01*
X14956028Y-4832746D01*
X14956025Y-4832756D01*
X14919500Y-5016381D01*
X14919500Y-5203618D01*
X14956025Y-5387243D01*
X14956028Y-5387253D01*
X15022392Y-5547471D01*
X15022392Y-5596455D01*
X15008519Y-5617218D01*
X14656503Y-5969236D01*
X14586036Y-6039702D01*
X14547900Y-6131769D01*
X13570499Y-6131769D01*
X13570499Y-2874500D01*
X13589244Y-2829245D01*
X13634499Y-2810500D01*
X66365499Y-2810500D01*
X66410754Y-2829245D01*
G37*
%TD.AperFunction*%
%TD*%
%TA.AperFunction,Conductor*%
%TO.N,GND2*%
G36*
X38895755Y-38688745D02*
G01*
X38914500Y-38734000D01*
X38914500Y-39615028D01*
X38895755Y-39660283D01*
X38266984Y-40289055D01*
X38221729Y-40307800D01*
X38203769Y-40307800D01*
X38111702Y-40345936D01*
X38041235Y-40416404D01*
X37471901Y-40985737D01*
X37471900Y-40985738D01*
X37471899Y-40985737D01*
X37410438Y-41047199D01*
X37410436Y-41047202D01*
X37372300Y-41139269D01*
X37372300Y-50185500D01*
X37353555Y-50230755D01*
X37308300Y-50249500D01*
X29639499Y-50249500D01*
X29594244Y-50230755D01*
X29575499Y-50185500D01*
X29575499Y-50018483D01*
X29571540Y-49993483D01*
X29560646Y-49924696D01*
X29503050Y-49811658D01*
X29413342Y-49721950D01*
X29413339Y-49721948D01*
X29413337Y-49721947D01*
X29300309Y-49664356D01*
X29300302Y-49664353D01*
X29244985Y-49655592D01*
X29206519Y-49649500D01*
X29206516Y-49649500D01*
X28618483Y-49649500D01*
X28524699Y-49664353D01*
X28524691Y-49664356D01*
X28411662Y-49721947D01*
X28411660Y-49721948D01*
X28411658Y-49721950D01*
X28321950Y-49811658D01*
X28321948Y-49811660D01*
X28321947Y-49811662D01*
X28264356Y-49924690D01*
X28264353Y-49924697D01*
X28249500Y-50018483D01*
X28249500Y-50981516D01*
X28253460Y-51006518D01*
X28264354Y-51075304D01*
X28321950Y-51188342D01*
X28411658Y-51278050D01*
X28411660Y-51278051D01*
X28411661Y-51278052D01*
X28524690Y-51335643D01*
X28524696Y-51335646D01*
X28618481Y-51350500D01*
X29206518Y-51350499D01*
X29300304Y-51335646D01*
X29413338Y-51278052D01*
X29413339Y-51278052D01*
X29413339Y-51278051D01*
X29413342Y-51278050D01*
X29503050Y-51188342D01*
X29560646Y-51075304D01*
X29575500Y-50981519D01*
X29575500Y-50814500D01*
X29594245Y-50769245D01*
X29639500Y-50750500D01*
X37308300Y-50750500D01*
X37353555Y-50769245D01*
X37372300Y-50814500D01*
X37372300Y-53252630D01*
X37410436Y-53344697D01*
X42948520Y-58882781D01*
X42967265Y-58928036D01*
X42962393Y-58952528D01*
X42896028Y-59112746D01*
X42896025Y-59112756D01*
X42859500Y-59296381D01*
X42859500Y-59483618D01*
X42896025Y-59667243D01*
X42896028Y-59667253D01*
X42967676Y-59840228D01*
X42967677Y-59840230D01*
X42967678Y-59840231D01*
X43071698Y-59995908D01*
X43204092Y-60128302D01*
X43359769Y-60232322D01*
X43532749Y-60303973D01*
X43605599Y-60318463D01*
X43716381Y-60340500D01*
X43716384Y-60340500D01*
X43903619Y-60340500D01*
X43995851Y-60322153D01*
X44087251Y-60303973D01*
X44260231Y-60232322D01*
X44415908Y-60128302D01*
X44548302Y-59995908D01*
X44652322Y-59840231D01*
X44723973Y-59667251D01*
X44760500Y-59483616D01*
X44760500Y-59296384D01*
X44760500Y-59296381D01*
X47939500Y-59296381D01*
X47939500Y-59483618D01*
X47976025Y-59667243D01*
X47976028Y-59667253D01*
X48047676Y-59840228D01*
X48047677Y-59840230D01*
X48047678Y-59840231D01*
X48151698Y-59995908D01*
X48284092Y-60128302D01*
X48439769Y-60232322D01*
X48612749Y-60303973D01*
X48685599Y-60318463D01*
X48796381Y-60340500D01*
X48796384Y-60340500D01*
X48983619Y-60340500D01*
X49075851Y-60322153D01*
X49167251Y-60303973D01*
X49340231Y-60232322D01*
X49495908Y-60128302D01*
X49628302Y-59995908D01*
X49732322Y-59840231D01*
X49803973Y-59667251D01*
X49840500Y-59483616D01*
X49840500Y-59296384D01*
X49840500Y-59296381D01*
X50479500Y-59296381D01*
X50479500Y-59483618D01*
X50516025Y-59667243D01*
X50516028Y-59667253D01*
X50587676Y-59840228D01*
X50587677Y-59840230D01*
X50587678Y-59840231D01*
X50691698Y-59995908D01*
X50824092Y-60128302D01*
X50979769Y-60232322D01*
X51152749Y-60303973D01*
X51225599Y-60318463D01*
X51336381Y-60340500D01*
X51336384Y-60340500D01*
X51523619Y-60340500D01*
X51615851Y-60322153D01*
X51707251Y-60303973D01*
X51880231Y-60232322D01*
X52035908Y-60128302D01*
X52168302Y-59995908D01*
X52272322Y-59840231D01*
X52343973Y-59667251D01*
X52380500Y-59483616D01*
X52380500Y-59296384D01*
X52380500Y-59296381D01*
X53019500Y-59296381D01*
X53019500Y-59483618D01*
X53056025Y-59667243D01*
X53056028Y-59667253D01*
X53127676Y-59840228D01*
X53127677Y-59840230D01*
X53127678Y-59840231D01*
X53231698Y-59995908D01*
X53364092Y-60128302D01*
X53519769Y-60232322D01*
X53692749Y-60303973D01*
X53765599Y-60318463D01*
X53876381Y-60340500D01*
X53876384Y-60340500D01*
X54063619Y-60340500D01*
X54155851Y-60322153D01*
X54247251Y-60303973D01*
X54420231Y-60232322D01*
X54575908Y-60128302D01*
X54708302Y-59995908D01*
X54812322Y-59840231D01*
X54883973Y-59667251D01*
X54920500Y-59483616D01*
X54920500Y-59296384D01*
X54920500Y-59296381D01*
X55559500Y-59296381D01*
X55559500Y-59483618D01*
X55596025Y-59667243D01*
X55596028Y-59667253D01*
X55667676Y-59840228D01*
X55667677Y-59840230D01*
X55667678Y-59840231D01*
X55771698Y-59995908D01*
X55904092Y-60128302D01*
X56059769Y-60232322D01*
X56232749Y-60303973D01*
X56305599Y-60318463D01*
X56416381Y-60340500D01*
X56416384Y-60340500D01*
X56603619Y-60340500D01*
X56695851Y-60322153D01*
X56787251Y-60303973D01*
X56960231Y-60232322D01*
X57115908Y-60128302D01*
X57248302Y-59995908D01*
X57352322Y-59840231D01*
X57423973Y-59667251D01*
X57460500Y-59483616D01*
X57460500Y-59296384D01*
X57460500Y-59296381D01*
X60639500Y-59296381D01*
X60639500Y-59483618D01*
X60676025Y-59667243D01*
X60676028Y-59667253D01*
X60747676Y-59840228D01*
X60747677Y-59840230D01*
X60747678Y-59840231D01*
X60851698Y-59995908D01*
X60984092Y-60128302D01*
X61139769Y-60232322D01*
X61312749Y-60303973D01*
X61385599Y-60318463D01*
X61496381Y-60340500D01*
X61496384Y-60340500D01*
X61683619Y-60340500D01*
X61775851Y-60322153D01*
X61867251Y-60303973D01*
X62040231Y-60232322D01*
X62195908Y-60128302D01*
X62328302Y-59995908D01*
X62432322Y-59840231D01*
X62503973Y-59667251D01*
X62540500Y-59483616D01*
X62540500Y-59296384D01*
X62540500Y-59296381D01*
X63179500Y-59296381D01*
X63179500Y-59483618D01*
X63216025Y-59667243D01*
X63216028Y-59667253D01*
X63287676Y-59840228D01*
X63287677Y-59840230D01*
X63287678Y-59840231D01*
X63391698Y-59995908D01*
X63524092Y-60128302D01*
X63679769Y-60232322D01*
X63852749Y-60303973D01*
X63925599Y-60318463D01*
X64036381Y-60340500D01*
X64036384Y-60340500D01*
X64223619Y-60340500D01*
X64315851Y-60322153D01*
X64407251Y-60303973D01*
X64580231Y-60232322D01*
X64735908Y-60128302D01*
X64868302Y-59995908D01*
X64972322Y-59840231D01*
X65043973Y-59667251D01*
X65080500Y-59483616D01*
X65080500Y-59296384D01*
X65080500Y-59296381D01*
X65043974Y-59112756D01*
X65043973Y-59112749D01*
X64972322Y-58939769D01*
X64868302Y-58784092D01*
X64735908Y-58651698D01*
X64580231Y-58547678D01*
X64580230Y-58547677D01*
X64580228Y-58547676D01*
X64407253Y-58476028D01*
X64407254Y-58476028D01*
X64407251Y-58476027D01*
X64407247Y-58476026D01*
X64407243Y-58476025D01*
X64223619Y-58439500D01*
X64223616Y-58439500D01*
X64036384Y-58439500D01*
X64036381Y-58439500D01*
X63852756Y-58476025D01*
X63852746Y-58476028D01*
X63679771Y-58547676D01*
X63524090Y-58651699D01*
X63391699Y-58784090D01*
X63287676Y-58939771D01*
X63216028Y-59112746D01*
X63216025Y-59112756D01*
X63179500Y-59296381D01*
X62540500Y-59296381D01*
X62503974Y-59112756D01*
X62503973Y-59112749D01*
X62432322Y-58939769D01*
X62328302Y-58784092D01*
X62195908Y-58651698D01*
X62040231Y-58547678D01*
X62040230Y-58547677D01*
X62040228Y-58547676D01*
X61867253Y-58476028D01*
X61867254Y-58476028D01*
X61867251Y-58476027D01*
X61867247Y-58476026D01*
X61867243Y-58476025D01*
X61683619Y-58439500D01*
X61683616Y-58439500D01*
X61496384Y-58439500D01*
X61496381Y-58439500D01*
X61312756Y-58476025D01*
X61312746Y-58476028D01*
X61139771Y-58547676D01*
X60984090Y-58651699D01*
X60851699Y-58784090D01*
X60747676Y-58939771D01*
X60676028Y-59112746D01*
X60676025Y-59112756D01*
X60639500Y-59296381D01*
X57460500Y-59296381D01*
X57423974Y-59112756D01*
X57423973Y-59112749D01*
X57352322Y-58939769D01*
X57248302Y-58784092D01*
X57115908Y-58651698D01*
X56960231Y-58547678D01*
X56960230Y-58547677D01*
X56960228Y-58547676D01*
X56787253Y-58476028D01*
X56787254Y-58476028D01*
X56787251Y-58476027D01*
X56787247Y-58476026D01*
X56787243Y-58476025D01*
X56603619Y-58439500D01*
X56603616Y-58439500D01*
X56416384Y-58439500D01*
X56416381Y-58439500D01*
X56232756Y-58476025D01*
X56232746Y-58476028D01*
X56059771Y-58547676D01*
X55904090Y-58651699D01*
X55771699Y-58784090D01*
X55667676Y-58939771D01*
X55596028Y-59112746D01*
X55596025Y-59112756D01*
X55559500Y-59296381D01*
X54920500Y-59296381D01*
X54883974Y-59112756D01*
X54883973Y-59112749D01*
X54812322Y-58939769D01*
X54708302Y-58784092D01*
X54575908Y-58651698D01*
X54420231Y-58547678D01*
X54420230Y-58547677D01*
X54420228Y-58547676D01*
X54247253Y-58476028D01*
X54247254Y-58476028D01*
X54247251Y-58476027D01*
X54247247Y-58476026D01*
X54247243Y-58476025D01*
X54063619Y-58439500D01*
X54063616Y-58439500D01*
X53876384Y-58439500D01*
X53876381Y-58439500D01*
X53692756Y-58476025D01*
X53692746Y-58476028D01*
X53519771Y-58547676D01*
X53364090Y-58651699D01*
X53231699Y-58784090D01*
X53127676Y-58939771D01*
X53056028Y-59112746D01*
X53056025Y-59112756D01*
X53019500Y-59296381D01*
X52380500Y-59296381D01*
X52343974Y-59112756D01*
X52343973Y-59112749D01*
X52272322Y-58939769D01*
X52168302Y-58784092D01*
X52035908Y-58651698D01*
X51880231Y-58547678D01*
X51880230Y-58547677D01*
X51880228Y-58547676D01*
X51707253Y-58476028D01*
X51707254Y-58476028D01*
X51707251Y-58476027D01*
X51707247Y-58476026D01*
X51707243Y-58476025D01*
X51523619Y-58439500D01*
X51523616Y-58439500D01*
X51336384Y-58439500D01*
X51336381Y-58439500D01*
X51152756Y-58476025D01*
X51152746Y-58476028D01*
X50979771Y-58547676D01*
X50824090Y-58651699D01*
X50691699Y-58784090D01*
X50587676Y-58939771D01*
X50516028Y-59112746D01*
X50516025Y-59112756D01*
X50479500Y-59296381D01*
X49840500Y-59296381D01*
X49803974Y-59112756D01*
X49803973Y-59112749D01*
X49732322Y-58939769D01*
X49628302Y-58784092D01*
X49495908Y-58651698D01*
X49340231Y-58547678D01*
X49340230Y-58547677D01*
X49340228Y-58547676D01*
X49167253Y-58476028D01*
X49167254Y-58476028D01*
X49167251Y-58476027D01*
X49167247Y-58476026D01*
X49167243Y-58476025D01*
X48983619Y-58439500D01*
X48983616Y-58439500D01*
X48796384Y-58439500D01*
X48796381Y-58439500D01*
X48612756Y-58476025D01*
X48612746Y-58476028D01*
X48439771Y-58547676D01*
X48284090Y-58651699D01*
X48151699Y-58784090D01*
X48047676Y-58939771D01*
X47976028Y-59112746D01*
X47976025Y-59112756D01*
X47939500Y-59296381D01*
X44760500Y-59296381D01*
X44723974Y-59112756D01*
X44723973Y-59112749D01*
X44652322Y-58939769D01*
X44548302Y-58784092D01*
X44415908Y-58651698D01*
X44260231Y-58547678D01*
X44260230Y-58547677D01*
X44260228Y-58547676D01*
X44087253Y-58476028D01*
X44087254Y-58476028D01*
X44087251Y-58476027D01*
X44087247Y-58476026D01*
X44087243Y-58476025D01*
X43903619Y-58439500D01*
X43903616Y-58439500D01*
X43716384Y-58439500D01*
X43716381Y-58439500D01*
X43532756Y-58476025D01*
X43532746Y-58476028D01*
X43372528Y-58542393D01*
X43323544Y-58542393D01*
X43302781Y-58528520D01*
X42374261Y-57600000D01*
X57000000Y-57600000D01*
X61339896Y-57600000D01*
X61339896Y-57599999D01*
X64716044Y-53252630D01*
X64970678Y-52924744D01*
X65013240Y-52900500D01*
X65021225Y-52900000D01*
X66000000Y-52900000D01*
X66000000Y-48100000D01*
X65021225Y-48100000D01*
X64975970Y-48081255D01*
X64970678Y-48075255D01*
X61339896Y-43400000D01*
X61339895Y-43400000D01*
X57000000Y-43400000D01*
X57000000Y-57600000D01*
X42374261Y-57600000D01*
X37892045Y-53117784D01*
X37873300Y-53072529D01*
X37873300Y-42249692D01*
X37892045Y-42204437D01*
X37937300Y-42185692D01*
X37982555Y-42204437D01*
X37990512Y-42214133D01*
X37991698Y-42215908D01*
X38124092Y-42348302D01*
X38279769Y-42452322D01*
X38279770Y-42452322D01*
X38279771Y-42452323D01*
X38311718Y-42465556D01*
X38452749Y-42523973D01*
X38523027Y-42537952D01*
X38636381Y-42560500D01*
X38636384Y-42560500D01*
X38823619Y-42560500D01*
X38915851Y-42542153D01*
X39007251Y-42523973D01*
X39180231Y-42452322D01*
X39335908Y-42348302D01*
X39468302Y-42215908D01*
X39572322Y-42060231D01*
X39643973Y-41887251D01*
X39680500Y-41703616D01*
X39680500Y-41516384D01*
X39680500Y-41516381D01*
X39656268Y-41394561D01*
X39643973Y-41332749D01*
X39576398Y-41169609D01*
X39572323Y-41159771D01*
X39572322Y-41159769D01*
X39468302Y-41004092D01*
X39335908Y-40871698D01*
X39180231Y-40767678D01*
X39180230Y-40767677D01*
X39180228Y-40767676D01*
X39007253Y-40696028D01*
X39007254Y-40696028D01*
X39007251Y-40696027D01*
X39007247Y-40696026D01*
X39007243Y-40696025D01*
X38823619Y-40659500D01*
X38823616Y-40659500D01*
X38759570Y-40659500D01*
X38714315Y-40640755D01*
X38695570Y-40595500D01*
X38714315Y-40550245D01*
X38799493Y-40465067D01*
X38990508Y-40274052D01*
X39035762Y-40255308D01*
X39061607Y-40260759D01*
X39145009Y-40297585D01*
X39170135Y-40300500D01*
X39559864Y-40300499D01*
X39584991Y-40297585D01*
X39687765Y-40252206D01*
X39767206Y-40172765D01*
X39812585Y-40069991D01*
X39815500Y-40044865D01*
X39815499Y-38733999D01*
X39834244Y-38688745D01*
X39879499Y-38670000D01*
X40120500Y-38670000D01*
X40165755Y-38688745D01*
X40184500Y-38734000D01*
X40184500Y-40044858D01*
X40184501Y-40044867D01*
X40187415Y-40069993D01*
X40210104Y-40121378D01*
X40232794Y-40172765D01*
X40312235Y-40252206D01*
X40415009Y-40297585D01*
X40440135Y-40300500D01*
X40542629Y-40300499D01*
X40587883Y-40319244D01*
X40606629Y-40364498D01*
X40587884Y-40409753D01*
X40587884Y-40409754D01*
X39919203Y-41078436D01*
X39848736Y-41148902D01*
X39810600Y-41240969D01*
X39810600Y-42376097D01*
X39791855Y-42421352D01*
X39740621Y-42472585D01*
X39687891Y-42563916D01*
X39687891Y-42563917D01*
X39660600Y-42665771D01*
X39660600Y-42771228D01*
X39687891Y-42873082D01*
X39687891Y-42873083D01*
X39687892Y-42873086D01*
X39687893Y-42873087D01*
X39740620Y-42964413D01*
X39815187Y-43038980D01*
X39906513Y-43091707D01*
X39906515Y-43091707D01*
X39906516Y-43091708D01*
X40008372Y-43119000D01*
X40008373Y-43119000D01*
X40113828Y-43119000D01*
X40158739Y-43106965D01*
X40215687Y-43091707D01*
X40307013Y-43038980D01*
X40381580Y-42964413D01*
X40434307Y-42873087D01*
X40461600Y-42771227D01*
X40461600Y-42665773D01*
X40461600Y-42665771D01*
X40434308Y-42563917D01*
X40434308Y-42563916D01*
X40434307Y-42563915D01*
X40434307Y-42563913D01*
X40381580Y-42472587D01*
X40330345Y-42421352D01*
X40311600Y-42376097D01*
X40311600Y-42097487D01*
X40330345Y-42052232D01*
X40375600Y-42033487D01*
X40420855Y-42052232D01*
X40428813Y-42061930D01*
X40531698Y-42215908D01*
X40664092Y-42348302D01*
X40819769Y-42452322D01*
X40819770Y-42452322D01*
X40819771Y-42452323D01*
X40851718Y-42465556D01*
X40992749Y-42523973D01*
X41063027Y-42537952D01*
X41176381Y-42560500D01*
X41176384Y-42560500D01*
X41363619Y-42560500D01*
X41455851Y-42542153D01*
X41547251Y-42523973D01*
X41720231Y-42452322D01*
X41875908Y-42348302D01*
X42008302Y-42215908D01*
X42112322Y-42060231D01*
X42166472Y-41929500D01*
X42201108Y-41894865D01*
X42250092Y-41894865D01*
X42284728Y-41929501D01*
X42289600Y-41953993D01*
X42289600Y-42039930D01*
X42327736Y-42131997D01*
X50380755Y-50185016D01*
X50399500Y-50230271D01*
X50399500Y-51006516D01*
X50414353Y-51100300D01*
X50414356Y-51100308D01*
X50459211Y-51188342D01*
X50471950Y-51213342D01*
X50561658Y-51303050D01*
X50561660Y-51303051D01*
X50561661Y-51303052D01*
X50654781Y-51350499D01*
X50674696Y-51360646D01*
X50768481Y-51375500D01*
X51331518Y-51375499D01*
X51425304Y-51360646D01*
X51538338Y-51303052D01*
X51538339Y-51303052D01*
X51538339Y-51303051D01*
X51538342Y-51303050D01*
X51628050Y-51213342D01*
X51685646Y-51100304D01*
X51700500Y-51006519D01*
X51700499Y-49993482D01*
X51685646Y-49899696D01*
X51628050Y-49786658D01*
X51538342Y-49696950D01*
X51538339Y-49696948D01*
X51538337Y-49696947D01*
X51425309Y-49639356D01*
X51425302Y-49639353D01*
X51369985Y-49630592D01*
X51331519Y-49624500D01*
X51331516Y-49624500D01*
X50768483Y-49624500D01*
X50674699Y-49639353D01*
X50674693Y-49639355D01*
X50629289Y-49662489D01*
X50580457Y-49666331D01*
X50554980Y-49650719D01*
X43551468Y-42647207D01*
X43532723Y-42601952D01*
X43551468Y-42556697D01*
X43596723Y-42537952D01*
X43609209Y-42539182D01*
X43716381Y-42560500D01*
X43716384Y-42560500D01*
X43903619Y-42560500D01*
X43995851Y-42542153D01*
X44087251Y-42523973D01*
X44260231Y-42452322D01*
X44415908Y-42348302D01*
X44548302Y-42215908D01*
X44652322Y-42060231D01*
X44723973Y-41887251D01*
X44760500Y-41703616D01*
X44760500Y-41516384D01*
X44760500Y-41516381D01*
X47939500Y-41516381D01*
X47939500Y-41703618D01*
X47976025Y-41887243D01*
X47976028Y-41887253D01*
X48047676Y-42060228D01*
X48047677Y-42060230D01*
X48047678Y-42060231D01*
X48151698Y-42215908D01*
X48284092Y-42348302D01*
X48439769Y-42452322D01*
X48439770Y-42452322D01*
X48439771Y-42452323D01*
X48471718Y-42465556D01*
X48612749Y-42523973D01*
X48683027Y-42537952D01*
X48796381Y-42560500D01*
X48796384Y-42560500D01*
X48983619Y-42560500D01*
X49075851Y-42542153D01*
X49167251Y-42523973D01*
X49340231Y-42452322D01*
X49495908Y-42348302D01*
X49628302Y-42215908D01*
X49732322Y-42060231D01*
X49803973Y-41887251D01*
X49840500Y-41703616D01*
X49840500Y-41516384D01*
X49840500Y-41516381D01*
X50479500Y-41516381D01*
X50479500Y-41703618D01*
X50516025Y-41887243D01*
X50516028Y-41887253D01*
X50587676Y-42060228D01*
X50587677Y-42060230D01*
X50587678Y-42060231D01*
X50691698Y-42215908D01*
X50824092Y-42348302D01*
X50979769Y-42452322D01*
X50979770Y-42452322D01*
X50979771Y-42452323D01*
X51011718Y-42465556D01*
X51152749Y-42523973D01*
X51223027Y-42537952D01*
X51336381Y-42560500D01*
X51336384Y-42560500D01*
X51523619Y-42560500D01*
X51615851Y-42542153D01*
X51707251Y-42523973D01*
X51880231Y-42452322D01*
X52035908Y-42348302D01*
X52168302Y-42215908D01*
X52272322Y-42060231D01*
X52343973Y-41887251D01*
X52380500Y-41703616D01*
X52380500Y-41516384D01*
X52380500Y-41516381D01*
X53019500Y-41516381D01*
X53019500Y-41703618D01*
X53056025Y-41887243D01*
X53056028Y-41887253D01*
X53127676Y-42060228D01*
X53127677Y-42060230D01*
X53127678Y-42060231D01*
X53231698Y-42215908D01*
X53364092Y-42348302D01*
X53519769Y-42452322D01*
X53519770Y-42452322D01*
X53519771Y-42452323D01*
X53551718Y-42465556D01*
X53692749Y-42523973D01*
X53763027Y-42537952D01*
X53876381Y-42560500D01*
X53876384Y-42560500D01*
X54063619Y-42560500D01*
X54155851Y-42542153D01*
X54247251Y-42523973D01*
X54420231Y-42452322D01*
X54575908Y-42348302D01*
X54708302Y-42215908D01*
X54812322Y-42060231D01*
X54883973Y-41887251D01*
X54920500Y-41703616D01*
X54920500Y-41516384D01*
X54920500Y-41516381D01*
X55559500Y-41516381D01*
X55559500Y-41703618D01*
X55596025Y-41887243D01*
X55596028Y-41887253D01*
X55667676Y-42060228D01*
X55667677Y-42060230D01*
X55667678Y-42060231D01*
X55771698Y-42215908D01*
X55904092Y-42348302D01*
X56059769Y-42452322D01*
X56059770Y-42452322D01*
X56059771Y-42452323D01*
X56091718Y-42465556D01*
X56232749Y-42523973D01*
X56303027Y-42537952D01*
X56416381Y-42560500D01*
X56416384Y-42560500D01*
X56603619Y-42560500D01*
X56695851Y-42542153D01*
X56787251Y-42523973D01*
X56960231Y-42452322D01*
X57115908Y-42348302D01*
X57248302Y-42215908D01*
X57352322Y-42060231D01*
X57423973Y-41887251D01*
X57460500Y-41703616D01*
X57460500Y-41516384D01*
X57460500Y-41516381D01*
X60639500Y-41516381D01*
X60639500Y-41703618D01*
X60676025Y-41887243D01*
X60676028Y-41887253D01*
X60747676Y-42060228D01*
X60747677Y-42060230D01*
X60747678Y-42060231D01*
X60851698Y-42215908D01*
X60984092Y-42348302D01*
X61139769Y-42452322D01*
X61139770Y-42452322D01*
X61139771Y-42452323D01*
X61171718Y-42465556D01*
X61312749Y-42523973D01*
X61383027Y-42537952D01*
X61496381Y-42560500D01*
X61496384Y-42560500D01*
X61683619Y-42560500D01*
X61775851Y-42542153D01*
X61867251Y-42523973D01*
X62040231Y-42452322D01*
X62195908Y-42348302D01*
X62328302Y-42215908D01*
X62432322Y-42060231D01*
X62503973Y-41887251D01*
X62540500Y-41703616D01*
X62540500Y-41516384D01*
X62540500Y-41516381D01*
X63179500Y-41516381D01*
X63179500Y-41703618D01*
X63216025Y-41887243D01*
X63216028Y-41887253D01*
X63287676Y-42060228D01*
X63287677Y-42060230D01*
X63287678Y-42060231D01*
X63391698Y-42215908D01*
X63524092Y-42348302D01*
X63679769Y-42452322D01*
X63679770Y-42452322D01*
X63679771Y-42452323D01*
X63711718Y-42465556D01*
X63852749Y-42523973D01*
X63923027Y-42537952D01*
X64036381Y-42560500D01*
X64036384Y-42560500D01*
X64223619Y-42560500D01*
X64315851Y-42542153D01*
X64407251Y-42523973D01*
X64580231Y-42452322D01*
X64735908Y-42348302D01*
X64868302Y-42215908D01*
X64972322Y-42060231D01*
X65043973Y-41887251D01*
X65080500Y-41703616D01*
X65080500Y-41516384D01*
X65080500Y-41516381D01*
X65056268Y-41394561D01*
X65043973Y-41332749D01*
X64976398Y-41169609D01*
X64972323Y-41159771D01*
X64972322Y-41159769D01*
X64868302Y-41004092D01*
X64735908Y-40871698D01*
X64580231Y-40767678D01*
X64580230Y-40767677D01*
X64580228Y-40767676D01*
X64407253Y-40696028D01*
X64407254Y-40696028D01*
X64407251Y-40696027D01*
X64407247Y-40696026D01*
X64407243Y-40696025D01*
X64223619Y-40659500D01*
X64223616Y-40659500D01*
X64036384Y-40659500D01*
X64036381Y-40659500D01*
X63852756Y-40696025D01*
X63852746Y-40696028D01*
X63679771Y-40767676D01*
X63524090Y-40871699D01*
X63391699Y-41004090D01*
X63287676Y-41159771D01*
X63216028Y-41332746D01*
X63216025Y-41332756D01*
X63179500Y-41516381D01*
X62540500Y-41516381D01*
X62516268Y-41394561D01*
X62503973Y-41332749D01*
X62436398Y-41169609D01*
X62432323Y-41159771D01*
X62432322Y-41159769D01*
X62328302Y-41004092D01*
X62195908Y-40871698D01*
X62040231Y-40767678D01*
X62040230Y-40767677D01*
X62040228Y-40767676D01*
X61867253Y-40696028D01*
X61867254Y-40696028D01*
X61867251Y-40696027D01*
X61867247Y-40696026D01*
X61867243Y-40696025D01*
X61683619Y-40659500D01*
X61683616Y-40659500D01*
X61496384Y-40659500D01*
X61496381Y-40659500D01*
X61312756Y-40696025D01*
X61312746Y-40696028D01*
X61139771Y-40767676D01*
X60984090Y-40871699D01*
X60851699Y-41004090D01*
X60747676Y-41159771D01*
X60676028Y-41332746D01*
X60676025Y-41332756D01*
X60639500Y-41516381D01*
X57460500Y-41516381D01*
X57436268Y-41394561D01*
X57423973Y-41332749D01*
X57356398Y-41169609D01*
X57352323Y-41159771D01*
X57352322Y-41159769D01*
X57248302Y-41004092D01*
X57115908Y-40871698D01*
X56960231Y-40767678D01*
X56960230Y-40767677D01*
X56960228Y-40767676D01*
X56787253Y-40696028D01*
X56787254Y-40696028D01*
X56787251Y-40696027D01*
X56787247Y-40696026D01*
X56787243Y-40696025D01*
X56603619Y-40659500D01*
X56603616Y-40659500D01*
X56416384Y-40659500D01*
X56416381Y-40659500D01*
X56232756Y-40696025D01*
X56232746Y-40696028D01*
X56059771Y-40767676D01*
X55904090Y-40871699D01*
X55771699Y-41004090D01*
X55667676Y-41159771D01*
X55596028Y-41332746D01*
X55596025Y-41332756D01*
X55559500Y-41516381D01*
X54920500Y-41516381D01*
X54896268Y-41394561D01*
X54883973Y-41332749D01*
X54816398Y-41169609D01*
X54812323Y-41159771D01*
X54812322Y-41159769D01*
X54708302Y-41004092D01*
X54575908Y-40871698D01*
X54420231Y-40767678D01*
X54420230Y-40767677D01*
X54420228Y-40767676D01*
X54247253Y-40696028D01*
X54247254Y-40696028D01*
X54247251Y-40696027D01*
X54247247Y-40696026D01*
X54247243Y-40696025D01*
X54063619Y-40659500D01*
X54063616Y-40659500D01*
X53876384Y-40659500D01*
X53876381Y-40659500D01*
X53692756Y-40696025D01*
X53692746Y-40696028D01*
X53519771Y-40767676D01*
X53364090Y-40871699D01*
X53231699Y-41004090D01*
X53127676Y-41159771D01*
X53056028Y-41332746D01*
X53056025Y-41332756D01*
X53019500Y-41516381D01*
X52380500Y-41516381D01*
X52356268Y-41394561D01*
X52343973Y-41332749D01*
X52276398Y-41169609D01*
X52272323Y-41159771D01*
X52272322Y-41159769D01*
X52168302Y-41004092D01*
X52035908Y-40871698D01*
X51880231Y-40767678D01*
X51880230Y-40767677D01*
X51880228Y-40767676D01*
X51707253Y-40696028D01*
X51707254Y-40696028D01*
X51707251Y-40696027D01*
X51707247Y-40696026D01*
X51707243Y-40696025D01*
X51523619Y-40659500D01*
X51523616Y-40659500D01*
X51336384Y-40659500D01*
X51336381Y-40659500D01*
X51152756Y-40696025D01*
X51152746Y-40696028D01*
X50979771Y-40767676D01*
X50824090Y-40871699D01*
X50691699Y-41004090D01*
X50587676Y-41159771D01*
X50516028Y-41332746D01*
X50516025Y-41332756D01*
X50479500Y-41516381D01*
X49840500Y-41516381D01*
X49816268Y-41394561D01*
X49803973Y-41332749D01*
X49736398Y-41169609D01*
X49732323Y-41159771D01*
X49732322Y-41159769D01*
X49628302Y-41004092D01*
X49495908Y-40871698D01*
X49340231Y-40767678D01*
X49340230Y-40767677D01*
X49340228Y-40767676D01*
X49167253Y-40696028D01*
X49167254Y-40696028D01*
X49167251Y-40696027D01*
X49167247Y-40696026D01*
X49167243Y-40696025D01*
X48983619Y-40659500D01*
X48983616Y-40659500D01*
X48796384Y-40659500D01*
X48796381Y-40659500D01*
X48612756Y-40696025D01*
X48612746Y-40696028D01*
X48439771Y-40767676D01*
X48284090Y-40871699D01*
X48151699Y-41004090D01*
X48047676Y-41159771D01*
X47976028Y-41332746D01*
X47976025Y-41332756D01*
X47939500Y-41516381D01*
X44760500Y-41516381D01*
X44736268Y-41394561D01*
X44723973Y-41332749D01*
X44656398Y-41169609D01*
X44652323Y-41159771D01*
X44652322Y-41159769D01*
X44548302Y-41004092D01*
X44415908Y-40871698D01*
X44260231Y-40767678D01*
X44260230Y-40767677D01*
X44260228Y-40767676D01*
X44087253Y-40696028D01*
X44087254Y-40696028D01*
X44087251Y-40696027D01*
X44087247Y-40696026D01*
X44087243Y-40696025D01*
X43903619Y-40659500D01*
X43903616Y-40659500D01*
X43716384Y-40659500D01*
X43716381Y-40659500D01*
X43532756Y-40696025D01*
X43532746Y-40696028D01*
X43359771Y-40767676D01*
X43204090Y-40871699D01*
X43071699Y-41004090D01*
X42967676Y-41159771D01*
X42913730Y-41290009D01*
X42904732Y-41299006D01*
X42899866Y-41310762D01*
X42888100Y-41315638D01*
X42879094Y-41324645D01*
X42866370Y-41324645D01*
X42854615Y-41329517D01*
X42842846Y-41324645D01*
X42830110Y-41324645D01*
X42821112Y-41315647D01*
X42809357Y-41310781D01*
X42804484Y-41299019D01*
X42795474Y-41290009D01*
X42790602Y-41265534D01*
X42790603Y-41261683D01*
X42790601Y-41261677D01*
X42790601Y-41261674D01*
X42773220Y-41219714D01*
X42773219Y-41219711D01*
X42753326Y-41171679D01*
X42752639Y-41169838D01*
X42752530Y-41169669D01*
X42704503Y-41121642D01*
X41992673Y-40409752D01*
X41973930Y-40364496D01*
X41992677Y-40319242D01*
X42037930Y-40300499D01*
X42099859Y-40300499D01*
X42099864Y-40300499D01*
X42124991Y-40297585D01*
X42227765Y-40252206D01*
X42307206Y-40172765D01*
X42352585Y-40069991D01*
X42355500Y-40044865D01*
X42355499Y-38733999D01*
X42374244Y-38688745D01*
X42419499Y-38670000D01*
X66365499Y-38670000D01*
X66410754Y-38688745D01*
X66429499Y-38734000D01*
X66429499Y-61625500D01*
X66410754Y-61670755D01*
X66365499Y-61689500D01*
X13634499Y-61689500D01*
X13589244Y-61670755D01*
X13570499Y-61625500D01*
X13570499Y-58756738D01*
X14919500Y-58756738D01*
X14919500Y-60023261D01*
X14929425Y-60091387D01*
X14929428Y-60091395D01*
X14980801Y-60196481D01*
X14980801Y-60196482D01*
X14980802Y-60196483D01*
X15063517Y-60279198D01*
X15168607Y-60330573D01*
X15168610Y-60330573D01*
X15168612Y-60330574D01*
X15236739Y-60340500D01*
X15236740Y-60340500D01*
X16503261Y-60340500D01*
X16571387Y-60330574D01*
X16571387Y-60330573D01*
X16571393Y-60330573D01*
X16676483Y-60279198D01*
X16759198Y-60196483D01*
X16810573Y-60091393D01*
X16820500Y-60023260D01*
X16820500Y-59296381D01*
X17459500Y-59296381D01*
X17459500Y-59483618D01*
X17496025Y-59667243D01*
X17496028Y-59667253D01*
X17567676Y-59840228D01*
X17567677Y-59840230D01*
X17567678Y-59840231D01*
X17671698Y-59995908D01*
X17804092Y-60128302D01*
X17959769Y-60232322D01*
X18132749Y-60303973D01*
X18205599Y-60318463D01*
X18316381Y-60340500D01*
X18316384Y-60340500D01*
X18503619Y-60340500D01*
X18595851Y-60322153D01*
X18687251Y-60303973D01*
X18860231Y-60232322D01*
X19015908Y-60128302D01*
X19148302Y-59995908D01*
X19252322Y-59840231D01*
X19323973Y-59667251D01*
X19360500Y-59483616D01*
X19360500Y-59296384D01*
X19360500Y-59296381D01*
X22539500Y-59296381D01*
X22539500Y-59483618D01*
X22576025Y-59667243D01*
X22576028Y-59667253D01*
X22647676Y-59840228D01*
X22647677Y-59840230D01*
X22647678Y-59840231D01*
X22751698Y-59995908D01*
X22884092Y-60128302D01*
X23039769Y-60232322D01*
X23212749Y-60303973D01*
X23285599Y-60318463D01*
X23396381Y-60340500D01*
X23396384Y-60340500D01*
X23583619Y-60340500D01*
X23675851Y-60322153D01*
X23767251Y-60303973D01*
X23940231Y-60232322D01*
X24095908Y-60128302D01*
X24228302Y-59995908D01*
X24332322Y-59840231D01*
X24403973Y-59667251D01*
X24440500Y-59483616D01*
X24440500Y-59296384D01*
X24440500Y-59296381D01*
X25079500Y-59296381D01*
X25079500Y-59483618D01*
X25116025Y-59667243D01*
X25116028Y-59667253D01*
X25187676Y-59840228D01*
X25187677Y-59840230D01*
X25187678Y-59840231D01*
X25291698Y-59995908D01*
X25424092Y-60128302D01*
X25579769Y-60232322D01*
X25752749Y-60303973D01*
X25825599Y-60318463D01*
X25936381Y-60340500D01*
X25936384Y-60340500D01*
X26123619Y-60340500D01*
X26215851Y-60322153D01*
X26307251Y-60303973D01*
X26480231Y-60232322D01*
X26635908Y-60128302D01*
X26768302Y-59995908D01*
X26872322Y-59840231D01*
X26943973Y-59667251D01*
X26980500Y-59483616D01*
X26980500Y-59296384D01*
X26980500Y-59296381D01*
X27619500Y-59296381D01*
X27619500Y-59483618D01*
X27656025Y-59667243D01*
X27656028Y-59667253D01*
X27727676Y-59840228D01*
X27727677Y-59840230D01*
X27727678Y-59840231D01*
X27831698Y-59995908D01*
X27964092Y-60128302D01*
X28119769Y-60232322D01*
X28292749Y-60303973D01*
X28365599Y-60318463D01*
X28476381Y-60340500D01*
X28476384Y-60340500D01*
X28663619Y-60340500D01*
X28755851Y-60322153D01*
X28847251Y-60303973D01*
X29020231Y-60232322D01*
X29175908Y-60128302D01*
X29308302Y-59995908D01*
X29412322Y-59840231D01*
X29483973Y-59667251D01*
X29520500Y-59483616D01*
X29520500Y-59296384D01*
X29520500Y-59296381D01*
X30159500Y-59296381D01*
X30159500Y-59483618D01*
X30196025Y-59667243D01*
X30196028Y-59667253D01*
X30267676Y-59840228D01*
X30267677Y-59840230D01*
X30267678Y-59840231D01*
X30371698Y-59995908D01*
X30504092Y-60128302D01*
X30659769Y-60232322D01*
X30832749Y-60303973D01*
X30905599Y-60318463D01*
X31016381Y-60340500D01*
X31016384Y-60340500D01*
X31203619Y-60340500D01*
X31295851Y-60322153D01*
X31387251Y-60303973D01*
X31560231Y-60232322D01*
X31715908Y-60128302D01*
X31848302Y-59995908D01*
X31952322Y-59840231D01*
X32023973Y-59667251D01*
X32060500Y-59483616D01*
X32060500Y-59296384D01*
X32060500Y-59296381D01*
X35239500Y-59296381D01*
X35239500Y-59483618D01*
X35276025Y-59667243D01*
X35276028Y-59667253D01*
X35347676Y-59840228D01*
X35347677Y-59840230D01*
X35347678Y-59840231D01*
X35451698Y-59995908D01*
X35584092Y-60128302D01*
X35739769Y-60232322D01*
X35912749Y-60303973D01*
X35985599Y-60318463D01*
X36096381Y-60340500D01*
X36096384Y-60340500D01*
X36283619Y-60340500D01*
X36375851Y-60322153D01*
X36467251Y-60303973D01*
X36640231Y-60232322D01*
X36795908Y-60128302D01*
X36928302Y-59995908D01*
X37032322Y-59840231D01*
X37103973Y-59667251D01*
X37140500Y-59483616D01*
X37140500Y-59296384D01*
X37140500Y-59296381D01*
X37779500Y-59296381D01*
X37779500Y-59483618D01*
X37816025Y-59667243D01*
X37816028Y-59667253D01*
X37887676Y-59840228D01*
X37887677Y-59840230D01*
X37887678Y-59840231D01*
X37991698Y-59995908D01*
X38124092Y-60128302D01*
X38279769Y-60232322D01*
X38452749Y-60303973D01*
X38525599Y-60318463D01*
X38636381Y-60340500D01*
X38636384Y-60340500D01*
X38823619Y-60340500D01*
X38915851Y-60322153D01*
X39007251Y-60303973D01*
X39180231Y-60232322D01*
X39335908Y-60128302D01*
X39468302Y-59995908D01*
X39572322Y-59840231D01*
X39643973Y-59667251D01*
X39680500Y-59483616D01*
X39680500Y-59296384D01*
X39680500Y-59296381D01*
X40319500Y-59296381D01*
X40319500Y-59483618D01*
X40356025Y-59667243D01*
X40356028Y-59667253D01*
X40427676Y-59840228D01*
X40427677Y-59840230D01*
X40427678Y-59840231D01*
X40531698Y-59995908D01*
X40664092Y-60128302D01*
X40819769Y-60232322D01*
X40992749Y-60303973D01*
X41065599Y-60318463D01*
X41176381Y-60340500D01*
X41176384Y-60340500D01*
X41363619Y-60340500D01*
X41455851Y-60322153D01*
X41547251Y-60303973D01*
X41720231Y-60232322D01*
X41875908Y-60128302D01*
X42008302Y-59995908D01*
X42112322Y-59840231D01*
X42183973Y-59667251D01*
X42220500Y-59483616D01*
X42220500Y-59296384D01*
X42220500Y-59296381D01*
X42183974Y-59112756D01*
X42183973Y-59112749D01*
X42112322Y-58939769D01*
X42008302Y-58784092D01*
X41875908Y-58651698D01*
X41720231Y-58547678D01*
X41720230Y-58547677D01*
X41720228Y-58547676D01*
X41547253Y-58476028D01*
X41547254Y-58476028D01*
X41547251Y-58476027D01*
X41547247Y-58476026D01*
X41547243Y-58476025D01*
X41363619Y-58439500D01*
X41363616Y-58439500D01*
X41176384Y-58439500D01*
X41176381Y-58439500D01*
X40992756Y-58476025D01*
X40992746Y-58476028D01*
X40819771Y-58547676D01*
X40664090Y-58651699D01*
X40531699Y-58784090D01*
X40427676Y-58939771D01*
X40356028Y-59112746D01*
X40356025Y-59112756D01*
X40319500Y-59296381D01*
X39680500Y-59296381D01*
X39643974Y-59112756D01*
X39643973Y-59112749D01*
X39572322Y-58939769D01*
X39468302Y-58784092D01*
X39335908Y-58651698D01*
X39180231Y-58547678D01*
X39180230Y-58547677D01*
X39180228Y-58547676D01*
X39007253Y-58476028D01*
X39007254Y-58476028D01*
X39007251Y-58476027D01*
X39007247Y-58476026D01*
X39007243Y-58476025D01*
X38823619Y-58439500D01*
X38823616Y-58439500D01*
X38636384Y-58439500D01*
X38636381Y-58439500D01*
X38452756Y-58476025D01*
X38452746Y-58476028D01*
X38279771Y-58547676D01*
X38124090Y-58651699D01*
X37991699Y-58784090D01*
X37887676Y-58939771D01*
X37816028Y-59112746D01*
X37816025Y-59112756D01*
X37779500Y-59296381D01*
X37140500Y-59296381D01*
X37103974Y-59112756D01*
X37103973Y-59112749D01*
X37032322Y-58939769D01*
X36928302Y-58784092D01*
X36795908Y-58651698D01*
X36640231Y-58547678D01*
X36640230Y-58547677D01*
X36640228Y-58547676D01*
X36467253Y-58476028D01*
X36467254Y-58476028D01*
X36467251Y-58476027D01*
X36467247Y-58476026D01*
X36467243Y-58476025D01*
X36283619Y-58439500D01*
X36283616Y-58439500D01*
X36096384Y-58439500D01*
X36096381Y-58439500D01*
X35912756Y-58476025D01*
X35912746Y-58476028D01*
X35739771Y-58547676D01*
X35584090Y-58651699D01*
X35451699Y-58784090D01*
X35347676Y-58939771D01*
X35276028Y-59112746D01*
X35276025Y-59112756D01*
X35239500Y-59296381D01*
X32060500Y-59296381D01*
X32023974Y-59112756D01*
X32023973Y-59112749D01*
X31952322Y-58939769D01*
X31848302Y-58784092D01*
X31715908Y-58651698D01*
X31560231Y-58547678D01*
X31560230Y-58547677D01*
X31560228Y-58547676D01*
X31387253Y-58476028D01*
X31387254Y-58476028D01*
X31387251Y-58476027D01*
X31387247Y-58476026D01*
X31387243Y-58476025D01*
X31203619Y-58439500D01*
X31203616Y-58439500D01*
X31016384Y-58439500D01*
X31016381Y-58439500D01*
X30832756Y-58476025D01*
X30832746Y-58476028D01*
X30659771Y-58547676D01*
X30504090Y-58651699D01*
X30371699Y-58784090D01*
X30267676Y-58939771D01*
X30196028Y-59112746D01*
X30196025Y-59112756D01*
X30159500Y-59296381D01*
X29520500Y-59296381D01*
X29483974Y-59112756D01*
X29483973Y-59112749D01*
X29412322Y-58939769D01*
X29308302Y-58784092D01*
X29175908Y-58651698D01*
X29020231Y-58547678D01*
X29020230Y-58547677D01*
X29020228Y-58547676D01*
X28847253Y-58476028D01*
X28847254Y-58476028D01*
X28847251Y-58476027D01*
X28847247Y-58476026D01*
X28847243Y-58476025D01*
X28663619Y-58439500D01*
X28663616Y-58439500D01*
X28476384Y-58439500D01*
X28476381Y-58439500D01*
X28292756Y-58476025D01*
X28292746Y-58476028D01*
X28119771Y-58547676D01*
X27964090Y-58651699D01*
X27831699Y-58784090D01*
X27727676Y-58939771D01*
X27656028Y-59112746D01*
X27656025Y-59112756D01*
X27619500Y-59296381D01*
X26980500Y-59296381D01*
X26943974Y-59112756D01*
X26943973Y-59112749D01*
X26872322Y-58939769D01*
X26768302Y-58784092D01*
X26635908Y-58651698D01*
X26480231Y-58547678D01*
X26480230Y-58547677D01*
X26480228Y-58547676D01*
X26307253Y-58476028D01*
X26307254Y-58476028D01*
X26307251Y-58476027D01*
X26307247Y-58476026D01*
X26307243Y-58476025D01*
X26123619Y-58439500D01*
X26123616Y-58439500D01*
X25936384Y-58439500D01*
X25936381Y-58439500D01*
X25752756Y-58476025D01*
X25752746Y-58476028D01*
X25579771Y-58547676D01*
X25424090Y-58651699D01*
X25291699Y-58784090D01*
X25187676Y-58939771D01*
X25116028Y-59112746D01*
X25116025Y-59112756D01*
X25079500Y-59296381D01*
X24440500Y-59296381D01*
X24403974Y-59112756D01*
X24403973Y-59112749D01*
X24332322Y-58939769D01*
X24228302Y-58784092D01*
X24095908Y-58651698D01*
X23940231Y-58547678D01*
X23940230Y-58547677D01*
X23940228Y-58547676D01*
X23767253Y-58476028D01*
X23767254Y-58476028D01*
X23767251Y-58476027D01*
X23767247Y-58476026D01*
X23767243Y-58476025D01*
X23583619Y-58439500D01*
X23583616Y-58439500D01*
X23396384Y-58439500D01*
X23396381Y-58439500D01*
X23212756Y-58476025D01*
X23212746Y-58476028D01*
X23039771Y-58547676D01*
X22884090Y-58651699D01*
X22751699Y-58784090D01*
X22647676Y-58939771D01*
X22576028Y-59112746D01*
X22576025Y-59112756D01*
X22539500Y-59296381D01*
X19360500Y-59296381D01*
X19323974Y-59112756D01*
X19323973Y-59112749D01*
X19252322Y-58939769D01*
X19148302Y-58784092D01*
X19015908Y-58651698D01*
X18860231Y-58547678D01*
X18860230Y-58547677D01*
X18860228Y-58547676D01*
X18687253Y-58476028D01*
X18687254Y-58476028D01*
X18687251Y-58476027D01*
X18687247Y-58476026D01*
X18687243Y-58476025D01*
X18503619Y-58439500D01*
X18503616Y-58439500D01*
X18316384Y-58439500D01*
X18316381Y-58439500D01*
X18132756Y-58476025D01*
X18132746Y-58476028D01*
X17959771Y-58547676D01*
X17804090Y-58651699D01*
X17671699Y-58784090D01*
X17567676Y-58939771D01*
X17496028Y-59112746D01*
X17496025Y-59112756D01*
X17459500Y-59296381D01*
X16820500Y-59296381D01*
X16820500Y-58756740D01*
X16810573Y-58688607D01*
X16759198Y-58583517D01*
X16676483Y-58500802D01*
X16676482Y-58500801D01*
X16571395Y-58449428D01*
X16571393Y-58449427D01*
X16571391Y-58449426D01*
X16571387Y-58449425D01*
X16503261Y-58439500D01*
X16503260Y-58439500D01*
X15236740Y-58439500D01*
X15236739Y-58439500D01*
X15168612Y-58449425D01*
X15168604Y-58449428D01*
X15063518Y-58500801D01*
X15063517Y-58500801D01*
X14980801Y-58583517D01*
X14980801Y-58583518D01*
X14929428Y-58688604D01*
X14929425Y-58688612D01*
X14919500Y-58756738D01*
X13570499Y-58756738D01*
X13570499Y-41516381D01*
X14919500Y-41516381D01*
X14919500Y-41703618D01*
X14956025Y-41887243D01*
X14956028Y-41887253D01*
X15027676Y-42060228D01*
X15027677Y-42060230D01*
X15027678Y-42060231D01*
X15131698Y-42215908D01*
X15264092Y-42348302D01*
X15419769Y-42452322D01*
X15419770Y-42452322D01*
X15419771Y-42452323D01*
X15451718Y-42465556D01*
X15592749Y-42523973D01*
X15663027Y-42537952D01*
X15776381Y-42560500D01*
X15776384Y-42560500D01*
X15963619Y-42560500D01*
X16055851Y-42542153D01*
X16147251Y-42523973D01*
X16320231Y-42452322D01*
X16475908Y-42348302D01*
X16608302Y-42215908D01*
X16712322Y-42060231D01*
X16783973Y-41887251D01*
X16820500Y-41703616D01*
X16820500Y-41516384D01*
X16820500Y-41516381D01*
X17459500Y-41516381D01*
X17459500Y-41703618D01*
X17496025Y-41887243D01*
X17496028Y-41887253D01*
X17567676Y-42060228D01*
X17567677Y-42060230D01*
X17567678Y-42060231D01*
X17671698Y-42215908D01*
X17804092Y-42348302D01*
X17959769Y-42452322D01*
X17959770Y-42452322D01*
X17959771Y-42452323D01*
X17991718Y-42465556D01*
X18132749Y-42523973D01*
X18203027Y-42537952D01*
X18316381Y-42560500D01*
X18316384Y-42560500D01*
X18503619Y-42560500D01*
X18595851Y-42542153D01*
X18687251Y-42523973D01*
X18860231Y-42452322D01*
X19015908Y-42348302D01*
X19148302Y-42215908D01*
X19252322Y-42060231D01*
X19323973Y-41887251D01*
X19360500Y-41703616D01*
X19360500Y-41516384D01*
X19360500Y-41516381D01*
X22539500Y-41516381D01*
X22539500Y-41703618D01*
X22576025Y-41887243D01*
X22576028Y-41887253D01*
X22647676Y-42060228D01*
X22647677Y-42060230D01*
X22647678Y-42060231D01*
X22751698Y-42215908D01*
X22884092Y-42348302D01*
X23039769Y-42452322D01*
X23039770Y-42452322D01*
X23039771Y-42452323D01*
X23071718Y-42465556D01*
X23212749Y-42523973D01*
X23283027Y-42537952D01*
X23396381Y-42560500D01*
X23396384Y-42560500D01*
X23583619Y-42560500D01*
X23675851Y-42542153D01*
X23767251Y-42523973D01*
X23940231Y-42452322D01*
X24095908Y-42348302D01*
X24228302Y-42215908D01*
X24332322Y-42060231D01*
X24403973Y-41887251D01*
X24440500Y-41703616D01*
X24440500Y-41516384D01*
X24440500Y-41516381D01*
X25079500Y-41516381D01*
X25079500Y-41703618D01*
X25116025Y-41887243D01*
X25116028Y-41887253D01*
X25187676Y-42060228D01*
X25187677Y-42060230D01*
X25187678Y-42060231D01*
X25291698Y-42215908D01*
X25424092Y-42348302D01*
X25533419Y-42421352D01*
X25579772Y-42452324D01*
X25681246Y-42494355D01*
X25739991Y-42518688D01*
X25774628Y-42553324D01*
X25779500Y-42577816D01*
X25779500Y-49492330D01*
X25817636Y-49584397D01*
X26405755Y-50172515D01*
X26424500Y-50217770D01*
X26424500Y-50981516D01*
X26428460Y-51006518D01*
X26439354Y-51075304D01*
X26496950Y-51188342D01*
X26586658Y-51278050D01*
X26586660Y-51278051D01*
X26586661Y-51278052D01*
X26699690Y-51335643D01*
X26699696Y-51335646D01*
X26793481Y-51350500D01*
X27381518Y-51350499D01*
X27475304Y-51335646D01*
X27588338Y-51278052D01*
X27588339Y-51278052D01*
X27588339Y-51278051D01*
X27588342Y-51278050D01*
X27678050Y-51188342D01*
X27735646Y-51075304D01*
X27750500Y-50981519D01*
X27750499Y-50018482D01*
X27735646Y-49924696D01*
X27678050Y-49811658D01*
X27588342Y-49721950D01*
X27588339Y-49721948D01*
X27588337Y-49721947D01*
X27475309Y-49664356D01*
X27475302Y-49664353D01*
X27419985Y-49655592D01*
X27381519Y-49649500D01*
X27381516Y-49649500D01*
X26793483Y-49649500D01*
X26699699Y-49664353D01*
X26699692Y-49664355D01*
X26679129Y-49674832D01*
X26630297Y-49678673D01*
X26604822Y-49663061D01*
X26299245Y-49357484D01*
X26280500Y-49312229D01*
X26280500Y-42577816D01*
X26299245Y-42532561D01*
X26320007Y-42518689D01*
X26431312Y-42472585D01*
X26480227Y-42452324D01*
X26480228Y-42452323D01*
X26480231Y-42452322D01*
X26635908Y-42348302D01*
X26768302Y-42215908D01*
X26872322Y-42060231D01*
X26943973Y-41887251D01*
X26980500Y-41703616D01*
X26980500Y-41516384D01*
X26980500Y-41516381D01*
X27619500Y-41516381D01*
X27619500Y-41703618D01*
X27656025Y-41887243D01*
X27656028Y-41887253D01*
X27727676Y-42060228D01*
X27727677Y-42060230D01*
X27727678Y-42060231D01*
X27831698Y-42215908D01*
X27964092Y-42348302D01*
X28119769Y-42452322D01*
X28119770Y-42452322D01*
X28119771Y-42452323D01*
X28151718Y-42465556D01*
X28292749Y-42523973D01*
X28363027Y-42537952D01*
X28476381Y-42560500D01*
X28476384Y-42560500D01*
X28663619Y-42560500D01*
X28755851Y-42542153D01*
X28847251Y-42523973D01*
X29020231Y-42452322D01*
X29175908Y-42348302D01*
X29308302Y-42215908D01*
X29412322Y-42060231D01*
X29483973Y-41887251D01*
X29520500Y-41703616D01*
X29520500Y-41516384D01*
X29520500Y-41516381D01*
X30159500Y-41516381D01*
X30159500Y-41703618D01*
X30196025Y-41887243D01*
X30196028Y-41887253D01*
X30267676Y-42060228D01*
X30267677Y-42060230D01*
X30267678Y-42060231D01*
X30371698Y-42215908D01*
X30504092Y-42348302D01*
X30659769Y-42452322D01*
X30659770Y-42452322D01*
X30659771Y-42452323D01*
X30691718Y-42465556D01*
X30832749Y-42523973D01*
X30903027Y-42537952D01*
X31016381Y-42560500D01*
X31016384Y-42560500D01*
X31203619Y-42560500D01*
X31295851Y-42542153D01*
X31387251Y-42523973D01*
X31560231Y-42452322D01*
X31715908Y-42348302D01*
X31848302Y-42215908D01*
X31952322Y-42060231D01*
X32023973Y-41887251D01*
X32060500Y-41703616D01*
X32060500Y-41516384D01*
X32060500Y-41516381D01*
X35239500Y-41516381D01*
X35239500Y-41703618D01*
X35276025Y-41887243D01*
X35276028Y-41887253D01*
X35347676Y-42060228D01*
X35347677Y-42060230D01*
X35347678Y-42060231D01*
X35451698Y-42215908D01*
X35584092Y-42348302D01*
X35739769Y-42452322D01*
X35739770Y-42452322D01*
X35739771Y-42452323D01*
X35771718Y-42465556D01*
X35912749Y-42523973D01*
X35983027Y-42537952D01*
X36096381Y-42560500D01*
X36096384Y-42560500D01*
X36283619Y-42560500D01*
X36375851Y-42542153D01*
X36467251Y-42523973D01*
X36640231Y-42452322D01*
X36795908Y-42348302D01*
X36928302Y-42215908D01*
X37032322Y-42060231D01*
X37103973Y-41887251D01*
X37140500Y-41703616D01*
X37140500Y-41516384D01*
X37140500Y-41516381D01*
X37116268Y-41394561D01*
X37103973Y-41332749D01*
X37036398Y-41169609D01*
X37032323Y-41159771D01*
X37032322Y-41159769D01*
X36928302Y-41004092D01*
X36795908Y-40871698D01*
X36640231Y-40767678D01*
X36640230Y-40767677D01*
X36640228Y-40767676D01*
X36467253Y-40696028D01*
X36467254Y-40696028D01*
X36467251Y-40696027D01*
X36467247Y-40696026D01*
X36467243Y-40696025D01*
X36283619Y-40659500D01*
X36283616Y-40659500D01*
X36096384Y-40659500D01*
X36096381Y-40659500D01*
X35912756Y-40696025D01*
X35912746Y-40696028D01*
X35739771Y-40767676D01*
X35584090Y-40871699D01*
X35451699Y-41004090D01*
X35347676Y-41159771D01*
X35276028Y-41332746D01*
X35276025Y-41332756D01*
X35239500Y-41516381D01*
X32060500Y-41516381D01*
X32036268Y-41394561D01*
X32023973Y-41332749D01*
X31956398Y-41169609D01*
X31952323Y-41159771D01*
X31952322Y-41159769D01*
X31848302Y-41004092D01*
X31715908Y-40871698D01*
X31560231Y-40767678D01*
X31560230Y-40767677D01*
X31560228Y-40767676D01*
X31387253Y-40696028D01*
X31387254Y-40696028D01*
X31387251Y-40696027D01*
X31387247Y-40696026D01*
X31387243Y-40696025D01*
X31203619Y-40659500D01*
X31203616Y-40659500D01*
X31016384Y-40659500D01*
X31016381Y-40659500D01*
X30832756Y-40696025D01*
X30832746Y-40696028D01*
X30659771Y-40767676D01*
X30504090Y-40871699D01*
X30371699Y-41004090D01*
X30267676Y-41159771D01*
X30196028Y-41332746D01*
X30196025Y-41332756D01*
X30159500Y-41516381D01*
X29520500Y-41516381D01*
X29496268Y-41394561D01*
X29483973Y-41332749D01*
X29416398Y-41169609D01*
X29412323Y-41159771D01*
X29412322Y-41159769D01*
X29308302Y-41004092D01*
X29175908Y-40871698D01*
X29020231Y-40767678D01*
X29020230Y-40767677D01*
X29020228Y-40767676D01*
X28847253Y-40696028D01*
X28847254Y-40696028D01*
X28847251Y-40696027D01*
X28847247Y-40696026D01*
X28847243Y-40696025D01*
X28663619Y-40659500D01*
X28663616Y-40659500D01*
X28476384Y-40659500D01*
X28476381Y-40659500D01*
X28292756Y-40696025D01*
X28292746Y-40696028D01*
X28119771Y-40767676D01*
X27964090Y-40871699D01*
X27831699Y-41004090D01*
X27727676Y-41159771D01*
X27656028Y-41332746D01*
X27656025Y-41332756D01*
X27619500Y-41516381D01*
X26980500Y-41516381D01*
X26956268Y-41394561D01*
X26943973Y-41332749D01*
X26876398Y-41169609D01*
X26872323Y-41159771D01*
X26872322Y-41159769D01*
X26768302Y-41004092D01*
X26635908Y-40871698D01*
X26480231Y-40767678D01*
X26480230Y-40767677D01*
X26480228Y-40767676D01*
X26307253Y-40696028D01*
X26307254Y-40696028D01*
X26307251Y-40696027D01*
X26307247Y-40696026D01*
X26307243Y-40696025D01*
X26123619Y-40659500D01*
X26123616Y-40659500D01*
X25936384Y-40659500D01*
X25936381Y-40659500D01*
X25752756Y-40696025D01*
X25752746Y-40696028D01*
X25579771Y-40767676D01*
X25424090Y-40871699D01*
X25291699Y-41004090D01*
X25187676Y-41159771D01*
X25116028Y-41332746D01*
X25116025Y-41332756D01*
X25079500Y-41516381D01*
X24440500Y-41516381D01*
X24416268Y-41394561D01*
X24403973Y-41332749D01*
X24336398Y-41169609D01*
X24332323Y-41159771D01*
X24332322Y-41159769D01*
X24228302Y-41004092D01*
X24095908Y-40871698D01*
X23940231Y-40767678D01*
X23940230Y-40767677D01*
X23940228Y-40767676D01*
X23767253Y-40696028D01*
X23767254Y-40696028D01*
X23767251Y-40696027D01*
X23767247Y-40696026D01*
X23767243Y-40696025D01*
X23583619Y-40659500D01*
X23583616Y-40659500D01*
X23396384Y-40659500D01*
X23396381Y-40659500D01*
X23212756Y-40696025D01*
X23212746Y-40696028D01*
X23039771Y-40767676D01*
X22884090Y-40871699D01*
X22751699Y-41004090D01*
X22647676Y-41159771D01*
X22576028Y-41332746D01*
X22576025Y-41332756D01*
X22539500Y-41516381D01*
X19360500Y-41516381D01*
X19336268Y-41394561D01*
X19323973Y-41332749D01*
X19256398Y-41169609D01*
X19252323Y-41159771D01*
X19252322Y-41159769D01*
X19148302Y-41004092D01*
X19015908Y-40871698D01*
X18860231Y-40767678D01*
X18860230Y-40767677D01*
X18860228Y-40767676D01*
X18687253Y-40696028D01*
X18687254Y-40696028D01*
X18687251Y-40696027D01*
X18687247Y-40696026D01*
X18687243Y-40696025D01*
X18503619Y-40659500D01*
X18503616Y-40659500D01*
X18316384Y-40659500D01*
X18316381Y-40659500D01*
X18132756Y-40696025D01*
X18132746Y-40696028D01*
X17959771Y-40767676D01*
X17804090Y-40871699D01*
X17671699Y-41004090D01*
X17567676Y-41159771D01*
X17496028Y-41332746D01*
X17496025Y-41332756D01*
X17459500Y-41516381D01*
X16820500Y-41516381D01*
X16796268Y-41394561D01*
X16783973Y-41332749D01*
X16716398Y-41169609D01*
X16712323Y-41159771D01*
X16712322Y-41159769D01*
X16608302Y-41004092D01*
X16475908Y-40871698D01*
X16320231Y-40767678D01*
X16320230Y-40767677D01*
X16320228Y-40767676D01*
X16147253Y-40696028D01*
X16147254Y-40696028D01*
X16147251Y-40696027D01*
X16147247Y-40696026D01*
X16147243Y-40696025D01*
X15963619Y-40659500D01*
X15963616Y-40659500D01*
X15776384Y-40659500D01*
X15776381Y-40659500D01*
X15592756Y-40696025D01*
X15592746Y-40696028D01*
X15419771Y-40767676D01*
X15264090Y-40871699D01*
X15131699Y-41004090D01*
X15027676Y-41159771D01*
X14956028Y-41332746D01*
X14956025Y-41332756D01*
X14919500Y-41516381D01*
X13570499Y-41516381D01*
X13570499Y-38734000D01*
X13589244Y-38688745D01*
X13634499Y-38670000D01*
X38850500Y-38670000D01*
X38895755Y-38688745D01*
G37*
%TD.AperFunction*%
%TD*%
M02*
