%TF.GenerationSoftware,KiCad,Pcbnew,10.0.3*%
%TF.CreationDate,2026-05-22T12:26:41+10:00*%
%TF.ProjectId,screen-hopper-smd,73637265-656e-42d6-986f-707065722d73,rev?*%
%TF.SameCoordinates,Original*%
%TF.FileFunction,Copper,L1,Top*%
%TF.FilePolarity,Positive*%
%FSLAX46Y46*%
G04 Gerber Fmt 4.6, Leading zero omitted, Abs format (unit mm)*
G04 Created by KiCad (PCBNEW 10.0.3) date 2026-05-22 12:26:41*
%MOMM*%
%LPD*%
G01*
G04 APERTURE LIST*
G04 Aperture macros list*
%AMRoundRect*
0 Rectangle with rounded corners*
0 $1 Rounding radius*
0 $2 $3 $4 $5 $6 $7 $8 $9 X,Y pos of 4 corners*
0 Add a 4 corners polygon primitive as box body*
4,1,4,$2,$3,$4,$5,$6,$7,$8,$9,$2,$3,0*
0 Add four circle primitives for the rounded corners*
1,1,$1+$1,$2,$3*
1,1,$1+$1,$4,$5*
1,1,$1+$1,$6,$7*
1,1,$1+$1,$8,$9*
0 Add four rect primitives between the rounded corners*
20,1,$1+$1,$2,$3,$4,$5,0*
20,1,$1+$1,$4,$5,$6,$7,0*
20,1,$1+$1,$6,$7,$8,$9,0*
20,1,$1+$1,$8,$9,$2,$3,0*%
%AMFreePoly0*
4,1,37,0.800000,0.796148,0.878414,0.796148,1.032228,0.765552,1.177117,0.705537,1.307515,0.618408,1.418408,0.507515,1.505537,0.377117,1.565552,0.232228,1.596148,0.078414,1.596148,-0.078414,1.565552,-0.232228,1.505537,-0.377117,1.418408,-0.507515,1.307515,-0.618408,1.177117,-0.705537,1.032228,-0.765552,0.878414,-0.796148,0.800000,-0.796148,0.800000,-0.800000,-1.400000,-0.800000,
-1.403843,-0.796157,-1.439018,-0.796157,-1.511114,-0.766294,-1.566294,-0.711114,-1.596157,-0.639018,-1.596157,-0.603843,-1.600000,-0.600000,-1.600000,0.600000,-1.596157,0.603843,-1.596157,0.639018,-1.566294,0.711114,-1.511114,0.766294,-1.439018,0.796157,-1.403843,0.796157,-1.400000,0.800000,0.800000,0.800000,0.800000,0.796148,0.800000,0.796148,$1*%
%AMFreePoly1*
4,1,37,1.403843,0.796157,1.439018,0.796157,1.511114,0.766294,1.566294,0.711114,1.596157,0.639018,1.596157,0.603843,1.600000,0.600000,1.600000,-0.600000,1.596157,-0.603843,1.596157,-0.639018,1.566294,-0.711114,1.511114,-0.766294,1.439018,-0.796157,1.403843,-0.796157,1.400000,-0.800000,-0.800000,-0.800000,-0.800000,-0.796148,-0.878414,-0.796148,-1.032228,-0.765552,-1.177117,-0.705537,
-1.307515,-0.618408,-1.418408,-0.507515,-1.505537,-0.377117,-1.565552,-0.232228,-1.596148,-0.078414,-1.596148,0.078414,-1.565552,0.232228,-1.505537,0.377117,-1.418408,0.507515,-1.307515,0.618408,-1.177117,0.705537,-1.032228,0.765552,-0.878414,0.796148,-0.800000,0.796148,-0.800000,0.800000,1.400000,0.800000,1.403843,0.796157,1.403843,0.796157,$1*%
%AMFreePoly2*
4,1,37,1.600000,0.796148,1.678414,0.796148,1.832228,0.765552,1.977117,0.705537,2.107515,0.618408,2.218408,0.507515,2.305537,0.377117,2.365552,0.232228,2.396148,0.078414,2.396148,-0.078414,2.365552,-0.232228,2.305537,-0.377117,2.218408,-0.507515,2.107515,-0.618408,1.977117,-0.705537,1.832228,-0.765552,1.678414,-0.796148,1.600000,-0.796148,1.600000,-0.800000,-0.600000,-0.800000,
-0.603843,-0.796157,-0.639018,-0.796157,-0.711114,-0.766294,-0.766294,-0.711114,-0.796157,-0.639018,-0.796157,-0.603843,-0.800000,-0.600000,-0.800000,0.600000,-0.796157,0.603843,-0.796157,0.639018,-0.766294,0.711114,-0.711114,0.766294,-0.639018,0.796157,-0.603843,0.796157,-0.600000,0.800000,1.600000,0.800000,1.600000,0.796148,1.600000,0.796148,$1*%
G04 Aperture macros list end*
%TA.AperFunction,SMDPad,CuDef*%
%ADD10O,1.100000X1.800000*%
%TD*%
%TA.AperFunction,SMDPad,CuDef*%
%ADD11O,1.050000X1.450000*%
%TD*%
%TA.AperFunction,SMDPad,CuDef*%
%ADD12FreePoly0,0.000000*%
%TD*%
%TA.AperFunction,SMDPad,CuDef*%
%ADD13RoundRect,0.800000X-0.800000X-0.000010X0.800000X-0.000010X0.800000X0.000010X-0.800000X0.000010X0*%
%TD*%
%TA.AperFunction,SMDPad,CuDef*%
%ADD14FreePoly1,0.000000*%
%TD*%
%TA.AperFunction,SMDPad,CuDef*%
%ADD15RoundRect,0.800000X0.000010X-0.800000X0.000010X0.800000X-0.000010X0.800000X-0.000010X-0.800000X0*%
%TD*%
%TA.AperFunction,SMDPad,CuDef*%
%ADD16FreePoly2,270.000000*%
%TD*%
%TA.AperFunction,SMDPad,CuDef*%
%ADD17RoundRect,0.300000X-0.450000X-0.450000X0.450000X-0.450000X0.450000X0.450000X-0.450000X0.450000X0*%
%TD*%
%TA.AperFunction,SMDPad,CuDef*%
%ADD18FreePoly0,180.000000*%
%TD*%
%TA.AperFunction,SMDPad,CuDef*%
%ADD19RoundRect,0.800000X0.800000X0.000010X-0.800000X0.000010X-0.800000X-0.000010X0.800000X-0.000010X0*%
%TD*%
%TA.AperFunction,SMDPad,CuDef*%
%ADD20FreePoly1,180.000000*%
%TD*%
%TA.AperFunction,SMDPad,CuDef*%
%ADD21RoundRect,0.800000X-0.000010X0.800000X-0.000010X-0.800000X0.000010X-0.800000X0.000010X0.800000X0*%
%TD*%
%TA.AperFunction,SMDPad,CuDef*%
%ADD22FreePoly2,90.000000*%
%TD*%
%TA.AperFunction,SMDPad,CuDef*%
%ADD23RoundRect,0.300000X0.450000X0.450000X-0.450000X0.450000X-0.450000X-0.450000X0.450000X-0.450000X0*%
%TD*%
%TA.AperFunction,SMDPad,CuDef*%
%ADD24RoundRect,0.250000X-0.262500X-0.450000X0.262500X-0.450000X0.262500X0.450000X-0.262500X0.450000X0*%
%TD*%
%TA.AperFunction,ComponentPad*%
%ADD25RoundRect,0.250000X-0.512000X-0.512000X0.512000X-0.512000X0.512000X0.512000X-0.512000X0.512000X0*%
%TD*%
%TA.AperFunction,ComponentPad*%
%ADD26C,1.524000*%
%TD*%
%TA.AperFunction,ComponentPad*%
%ADD27C,3.500000*%
%TD*%
%TA.AperFunction,SMDPad,CuDef*%
%ADD28RoundRect,0.150000X-0.825000X-0.150000X0.825000X-0.150000X0.825000X0.150000X-0.825000X0.150000X0*%
%TD*%
%TA.AperFunction,SMDPad,CuDef*%
%ADD29RoundRect,0.250000X-0.250000X-0.475000X0.250000X-0.475000X0.250000X0.475000X-0.250000X0.475000X0*%
%TD*%
%TA.AperFunction,ViaPad*%
%ADD30C,0.700000*%
%TD*%
%TA.AperFunction,Conductor*%
%ADD31C,0.350000*%
%TD*%
G04 APERTURE END LIST*
D10*
%TO.P,A3,*%
%TO.N,*%
X85275000Y-6085000D03*
D11*
X85575000Y-9115000D03*
X90425000Y-9115000D03*
D10*
X90725000Y-6085000D03*
D12*
%TO.P,A3,1*%
%TO.N,N/C*%
X78310000Y-5955000D03*
D13*
%TO.P,A3,2*%
X78310000Y-8495000D03*
D14*
%TO.P,A3,3*%
%TO.N,GND2*%
X78310000Y-11035000D03*
D13*
%TO.P,A3,4*%
%TO.N,N/C*%
X78310000Y-13575000D03*
%TO.P,A3,5*%
X78310000Y-16115000D03*
%TO.P,A3,6*%
X78310000Y-18655000D03*
%TO.P,A3,7*%
X78310000Y-21195000D03*
D14*
%TO.P,A3,8*%
%TO.N,GND2*%
X78310000Y-23735000D03*
D13*
%TO.P,A3,9*%
%TO.N,N/C*%
X78310000Y-26275000D03*
%TO.P,A3,10*%
X78310000Y-28815000D03*
%TO.P,A3,11*%
X78310000Y-31355000D03*
%TO.P,A3,12*%
%TO.N,OPTO_VO*%
X78310000Y-33895000D03*
D14*
%TO.P,A3,13*%
%TO.N,GND2*%
X78310000Y-36435000D03*
D13*
%TO.P,A3,14*%
%TO.N,N/C*%
X78310000Y-38975000D03*
%TO.P,A3,15*%
X78310000Y-41515000D03*
%TO.P,A3,16*%
X78310000Y-44055000D03*
%TO.P,A3,17*%
X78310000Y-46595000D03*
D14*
%TO.P,A3,18*%
%TO.N,GND2*%
X78310000Y-49135000D03*
D13*
%TO.P,A3,19*%
%TO.N,N/C*%
X78310000Y-51675000D03*
%TO.P,A3,20*%
X78310000Y-54215000D03*
%TO.P,A3,21*%
X97690000Y-54215000D03*
%TO.P,A3,22*%
X97690000Y-51675000D03*
D12*
%TO.P,A3,23*%
%TO.N,GND2*%
X97690000Y-49135000D03*
D13*
%TO.P,A3,24*%
%TO.N,N/C*%
X97690000Y-46595000D03*
%TO.P,A3,25*%
X97690000Y-44055000D03*
%TO.P,A3,26*%
X97690000Y-41515000D03*
%TO.P,A3,27*%
X97690000Y-38975000D03*
D12*
%TO.P,A3,28*%
%TO.N,GND2*%
X97690000Y-36435000D03*
D13*
%TO.P,A3,29*%
%TO.N,N/C*%
X97690000Y-33895000D03*
%TO.P,A3,30*%
X97690000Y-31355000D03*
%TO.P,A3,31*%
X97690000Y-28815000D03*
%TO.P,A3,32*%
X97690000Y-26275000D03*
D12*
%TO.P,A3,33*%
%TO.N,GND2*%
X97690000Y-23735000D03*
D13*
%TO.P,A3,34*%
%TO.N,N/C*%
X97690000Y-21195000D03*
%TO.P,A3,35*%
X97690000Y-18655000D03*
%TO.P,A3,36*%
%TO.N,FWD_3V3*%
X97690000Y-16115000D03*
%TO.P,A3,37*%
%TO.N,N/C*%
X97690000Y-13575000D03*
D12*
%TO.P,A3,38*%
%TO.N,GND2*%
X97690000Y-11035000D03*
D13*
%TO.P,A3,39*%
%TO.N,N/C*%
X97690000Y-8495000D03*
%TO.P,A3,40*%
%TO.N,VBUS2*%
X97690000Y-5955000D03*
D15*
%TO.P,A3,D1*%
%TO.N,N/C*%
X85460000Y-54785000D03*
D16*
%TO.P,A3,D2*%
X88000000Y-53985000D03*
D15*
%TO.P,A3,D3*%
X90540000Y-54785000D03*
D17*
%TO.P,A3,TP1*%
X88000000Y-9085000D03*
%TO.P,A3,TP2*%
X89000000Y-5785000D03*
%TO.P,A3,TP3*%
X87000000Y-5785000D03*
%TO.P,A3,TP4*%
X85500000Y-12585000D03*
%TO.P,A3,TP5*%
X85500000Y-15085000D03*
%TO.P,A3,TP6*%
X85500000Y-17585000D03*
%TD*%
D10*
%TO.P,A2,*%
%TO.N,*%
X26725000Y-53915000D03*
D11*
X26425000Y-50885000D03*
X21575000Y-50885000D03*
D10*
X21275000Y-53915000D03*
D18*
%TO.P,A2,1*%
%TO.N,SER_A1_B0*%
X33690000Y-54045000D03*
D19*
%TO.P,A2,2*%
%TO.N,SER_A0_B1*%
X33690000Y-51505000D03*
D20*
%TO.P,A2,3*%
%TO.N,GND1*%
X33690000Y-48965000D03*
D19*
%TO.P,A2,4*%
%TO.N,SER_A3_B2*%
X33690000Y-46425000D03*
%TO.P,A2,5*%
%TO.N,SER_A2_B3*%
X33690000Y-43885000D03*
%TO.P,A2,6*%
%TO.N,N/C*%
X33690000Y-41345000D03*
%TO.P,A2,7*%
X33690000Y-38805000D03*
D20*
%TO.P,A2,8*%
%TO.N,GND1*%
X33690000Y-36265000D03*
D19*
%TO.P,A2,9*%
%TO.N,N/C*%
X33690000Y-33725000D03*
%TO.P,A2,10*%
X33690000Y-31185000D03*
%TO.P,A2,11*%
X33690000Y-28645000D03*
%TO.P,A2,12*%
X33690000Y-26105000D03*
D20*
%TO.P,A2,13*%
%TO.N,GND1*%
X33690000Y-23565000D03*
D19*
%TO.P,A2,14*%
%TO.N,N/C*%
X33690000Y-21025000D03*
%TO.P,A2,15*%
X33690000Y-18485000D03*
%TO.P,A2,16*%
X33690000Y-15945000D03*
%TO.P,A2,17*%
X33690000Y-13405000D03*
D20*
%TO.P,A2,18*%
%TO.N,GND1*%
X33690000Y-10865000D03*
D19*
%TO.P,A2,19*%
%TO.N,N/C*%
X33690000Y-8325000D03*
%TO.P,A2,20*%
X33690000Y-5785000D03*
%TO.P,A2,21*%
X14310000Y-5785000D03*
%TO.P,A2,22*%
X14310000Y-8325000D03*
D18*
%TO.P,A2,23*%
%TO.N,GND1*%
X14310000Y-10865000D03*
D19*
%TO.P,A2,24*%
%TO.N,N/C*%
X14310000Y-13405000D03*
%TO.P,A2,25*%
X14310000Y-15945000D03*
%TO.P,A2,26*%
X14310000Y-18485000D03*
%TO.P,A2,27*%
X14310000Y-21025000D03*
D18*
%TO.P,A2,28*%
%TO.N,GND1*%
X14310000Y-23565000D03*
D19*
%TO.P,A2,29*%
%TO.N,N/C*%
X14310000Y-26105000D03*
%TO.P,A2,30*%
X14310000Y-28645000D03*
%TO.P,A2,31*%
X14310000Y-31185000D03*
%TO.P,A2,32*%
X14310000Y-33725000D03*
D18*
%TO.P,A2,33*%
%TO.N,GND1*%
X14310000Y-36265000D03*
D19*
%TO.P,A2,34*%
%TO.N,N/C*%
X14310000Y-38805000D03*
%TO.P,A2,35*%
X14310000Y-41345000D03*
%TO.P,A2,36*%
X14310000Y-43885000D03*
%TO.P,A2,37*%
X14310000Y-46425000D03*
D18*
%TO.P,A2,38*%
%TO.N,GND1*%
X14310000Y-48965000D03*
D19*
%TO.P,A2,39*%
%TO.N,N/C*%
X14310000Y-51505000D03*
%TO.P,A2,40*%
%TO.N,VBUS1*%
X14310000Y-54045000D03*
D21*
%TO.P,A2,D1*%
%TO.N,N/C*%
X26540000Y-5215000D03*
D22*
%TO.P,A2,D2*%
X24000000Y-6015000D03*
D21*
%TO.P,A2,D3*%
X21460000Y-5215000D03*
D23*
%TO.P,A2,TP1*%
%TO.N,GND1*%
X24000000Y-50915000D03*
%TO.P,A2,TP2*%
%TO.N,USB_DM*%
X23000000Y-54215000D03*
%TO.P,A2,TP3*%
%TO.N,USB_DP*%
X25000000Y-54215000D03*
%TO.P,A2,TP4*%
%TO.N,N/C*%
X26500000Y-47415000D03*
%TO.P,A2,TP5*%
X26500000Y-44915000D03*
%TO.P,A2,TP6*%
X26500000Y-42415000D03*
%TD*%
D24*
%TO.P,R2,1*%
%TO.N,FWD_3V3*%
X72087500Y-12000000D03*
%TO.P,R2,2*%
%TO.N,OPTO_VO*%
X73912500Y-12000000D03*
%TD*%
D25*
%TO.P,J1,1*%
%TO.N,VBUS1*%
X20500000Y-65645000D03*
D26*
%TO.P,J1,2*%
%TO.N,USB_DM*%
X23000000Y-65645000D03*
%TO.P,J1,3*%
%TO.N,USB_DP*%
X25000000Y-65645000D03*
%TO.P,J1,4*%
%TO.N,GND1*%
X27500000Y-65645000D03*
D27*
%TO.P,J1,SH*%
X17430000Y-68355000D03*
X30570000Y-68355000D03*
%TD*%
D10*
%TO.P,A1,*%
%TO.N,*%
X47275000Y-6085000D03*
D11*
X47575000Y-9115000D03*
X52425000Y-9115000D03*
D10*
X52725000Y-6085000D03*
D12*
%TO.P,A1,1*%
%TO.N,SER_A0_B1*%
X40310000Y-5955000D03*
D13*
%TO.P,A1,2*%
%TO.N,SER_A1_B0*%
X40310000Y-8495000D03*
D14*
%TO.P,A1,3*%
%TO.N,GND1*%
X40310000Y-11035000D03*
D13*
%TO.P,A1,4*%
%TO.N,SER_A2_B3*%
X40310000Y-13575000D03*
%TO.P,A1,5*%
%TO.N,SER_A3_B2*%
X40310000Y-16115000D03*
%TO.P,A1,6*%
%TO.N,N/C*%
X40310000Y-18655000D03*
%TO.P,A1,7*%
X40310000Y-21195000D03*
D14*
%TO.P,A1,8*%
%TO.N,GND1*%
X40310000Y-23735000D03*
D13*
%TO.P,A1,9*%
%TO.N,N/C*%
X40310000Y-26275000D03*
%TO.P,A1,10*%
X40310000Y-28815000D03*
%TO.P,A1,11*%
X40310000Y-31355000D03*
%TO.P,A1,12*%
X40310000Y-33895000D03*
D14*
%TO.P,A1,13*%
%TO.N,GND1*%
X40310000Y-36435000D03*
D13*
%TO.P,A1,14*%
%TO.N,N/C*%
X40310000Y-38975000D03*
%TO.P,A1,15*%
X40310000Y-41515000D03*
%TO.P,A1,16*%
X40310000Y-44055000D03*
%TO.P,A1,17*%
X40310000Y-46595000D03*
D14*
%TO.P,A1,18*%
%TO.N,GND1*%
X40310000Y-49135000D03*
D13*
%TO.P,A1,19*%
%TO.N,N/C*%
X40310000Y-51675000D03*
%TO.P,A1,20*%
X40310000Y-54215000D03*
%TO.P,A1,21*%
X59690000Y-54215000D03*
%TO.P,A1,22*%
X59690000Y-51675000D03*
D12*
%TO.P,A1,23*%
%TO.N,GND1*%
X59690000Y-49135000D03*
D13*
%TO.P,A1,24*%
%TO.N,N/C*%
X59690000Y-46595000D03*
%TO.P,A1,25*%
X59690000Y-44055000D03*
%TO.P,A1,26*%
%TO.N,OPTO_CATH*%
X59690000Y-41515000D03*
%TO.P,A1,27*%
%TO.N,N/C*%
X59690000Y-38975000D03*
D12*
%TO.P,A1,28*%
%TO.N,GND1*%
X59690000Y-36435000D03*
D13*
%TO.P,A1,29*%
%TO.N,N/C*%
X59690000Y-33895000D03*
%TO.P,A1,30*%
X59690000Y-31355000D03*
%TO.P,A1,31*%
X59690000Y-28815000D03*
%TO.P,A1,32*%
X59690000Y-26275000D03*
D12*
%TO.P,A1,33*%
%TO.N,GND1*%
X59690000Y-23735000D03*
D13*
%TO.P,A1,34*%
%TO.N,N/C*%
X59690000Y-21195000D03*
%TO.P,A1,35*%
X59690000Y-18655000D03*
%TO.P,A1,36*%
%TO.N,OPTO_3V3*%
X59690000Y-16115000D03*
%TO.P,A1,37*%
%TO.N,N/C*%
X59690000Y-13575000D03*
D12*
%TO.P,A1,38*%
%TO.N,GND1*%
X59690000Y-11035000D03*
D13*
%TO.P,A1,39*%
%TO.N,N/C*%
X59690000Y-8495000D03*
%TO.P,A1,40*%
%TO.N,VBUS1*%
X59690000Y-5955000D03*
D15*
%TO.P,A1,D1*%
%TO.N,N/C*%
X47460000Y-54785000D03*
D16*
%TO.P,A1,D2*%
X50000000Y-53985000D03*
D15*
%TO.P,A1,D3*%
X52540000Y-54785000D03*
D17*
%TO.P,A1,TP1*%
X50000000Y-9085000D03*
%TO.P,A1,TP2*%
X51000000Y-5785000D03*
%TO.P,A1,TP3*%
X49000000Y-5785000D03*
%TO.P,A1,TP4*%
X47500000Y-12585000D03*
%TO.P,A1,TP5*%
X47500000Y-15085000D03*
%TO.P,A1,TP6*%
X47500000Y-17585000D03*
%TD*%
D24*
%TO.P,R1,1*%
%TO.N,OPTO_3V3*%
X62087500Y-12000000D03*
%TO.P,R1,2*%
%TO.N,OPTO_ANODE*%
X63912500Y-12000000D03*
%TD*%
D28*
%TO.P,U1,1*%
%TO.N,N/C*%
X64525000Y-28095000D03*
%TO.P,U1,2*%
%TO.N,OPTO_ANODE*%
X64525000Y-29365000D03*
%TO.P,U1,3*%
%TO.N,OPTO_CATH*%
X64525000Y-30635000D03*
%TO.P,U1,4*%
%TO.N,N/C*%
X64525000Y-31905000D03*
%TO.P,U1,5*%
%TO.N,GND2*%
X69475000Y-31905000D03*
%TO.P,U1,6*%
%TO.N,OPTO_VO*%
X69475000Y-30635000D03*
%TO.P,U1,7*%
%TO.N,N/C*%
X69475000Y-29365000D03*
%TO.P,U1,8*%
%TO.N,VBUS2*%
X69475000Y-28095000D03*
%TD*%
D29*
%TO.P,C1,1*%
%TO.N,VBUS2*%
X72050000Y-48000000D03*
%TO.P,C1,2*%
%TO.N,GND2*%
X73950000Y-48000000D03*
%TD*%
D30*
%TO.N,SER_A1_B0*%
X35872300Y-54045000D03*
X35447700Y-9522100D03*
%TO.N,SER_A0_B1*%
X36235400Y-6201000D03*
X36235400Y-51505000D03*
%TO.N,VBUS1*%
X32158800Y-7145300D03*
%TD*%
%TO.N,GND2*%
D31*
X97690000Y-36435000D02*
X86944000Y-36435000D01*
X73780000Y-31905000D02*
X78310000Y-36435000D01*
X69475000Y-31905000D02*
X73780000Y-31905000D01*
X99670000Y-13795200D02*
X100154500Y-14279700D01*
X100220200Y-14279700D02*
X100220200Y-20342500D01*
X100154500Y-14279700D02*
X100220200Y-14279700D01*
X78310000Y-23735000D02*
X86944000Y-23735000D01*
X97690000Y-11035000D02*
X99831600Y-13176600D01*
X100221700Y-21203300D02*
X97690000Y-23735000D01*
X78310000Y-49135000D02*
X75085000Y-49135000D01*
X99670000Y-13338200D02*
X99670000Y-13795200D01*
X86944000Y-23735000D02*
X97690000Y-23735000D01*
X86944000Y-36435000D02*
X78310000Y-36435000D01*
X99831600Y-13176600D02*
X99670000Y-13338200D01*
X97690000Y-11035000D02*
X78310000Y-11035000D01*
X100220200Y-20342500D02*
X100221700Y-20344000D01*
X73950000Y-40795000D02*
X73950000Y-48000000D01*
X86944000Y-23735000D02*
X86944000Y-36435000D01*
X78310000Y-36435000D02*
X73950000Y-40795000D01*
X75085000Y-49135000D02*
X73950000Y-48000000D01*
X100221700Y-20344000D02*
X100221700Y-21203300D01*
X97690000Y-49135000D02*
X78310000Y-49135000D01*
%TO.N,OPTO_VO*%
X75050000Y-30635000D02*
X71155000Y-30635000D01*
X72366200Y-10453700D02*
X73912500Y-12000000D01*
X71155000Y-30635000D02*
X71155000Y-11293800D01*
X71155000Y-30635000D02*
X69475000Y-30635000D01*
X71155000Y-11293800D02*
X71995100Y-10453700D01*
X71995100Y-10453700D02*
X72366200Y-10453700D01*
X78310000Y-33895000D02*
X75050000Y-30635000D01*
%TO.N,FWD_3V3*%
X75005900Y-14918400D02*
X72087500Y-12000000D01*
X97690000Y-16115000D02*
X97531900Y-16273100D01*
X83399300Y-16273100D02*
X82044600Y-14918400D01*
X97531900Y-16273100D02*
X83399300Y-16273100D01*
X82044600Y-14918400D02*
X75005900Y-14918400D01*
%TO.N,VBUS2*%
X96465300Y-9766300D02*
X98888600Y-9766300D01*
X95693700Y-7902700D02*
X83984000Y-7902700D01*
X98936600Y-50352100D02*
X74402100Y-50352100D01*
X71857100Y-9811500D02*
X69475000Y-12193600D01*
X95742300Y-7902700D02*
X95693700Y-7902700D01*
X95693700Y-8994700D02*
X96465300Y-9766300D01*
X83984000Y-7902700D02*
X82075200Y-9811500D01*
X100817800Y-48470900D02*
X98936600Y-50352100D01*
X82075200Y-9811500D02*
X71857100Y-9811500D01*
X74402100Y-50352100D02*
X72050000Y-48000000D01*
X98888600Y-9766300D02*
X100817800Y-11695500D01*
X95693700Y-7902700D02*
X95693700Y-8994700D01*
X100817800Y-11695500D02*
X100817800Y-48470900D01*
X97690000Y-5955000D02*
X95742300Y-7902700D01*
X69475000Y-12193600D02*
X69475000Y-28095000D01*
%TO.N,SER_A1_B0*%
X33690000Y-54045000D02*
X35872300Y-54045000D01*
X39282900Y-9522100D02*
X35447700Y-9522100D01*
X40310000Y-8495000D02*
X39282900Y-9522100D01*
%TO.N,SER_A0_B1*%
X40310000Y-5955000D02*
X40064000Y-6201000D01*
X40064000Y-6201000D02*
X36235400Y-6201000D01*
X33690000Y-51505000D02*
X36235400Y-51505000D01*
%TO.N,GND1*%
X27688700Y-53195200D02*
X27688700Y-65456300D01*
X17430000Y-68355000D02*
X24790000Y-68355000D01*
X36193600Y-36265000D02*
X40140000Y-36265000D01*
X14310000Y-36265000D02*
X28286500Y-36265000D01*
X58871500Y-48316500D02*
X57703000Y-48316500D01*
X25242300Y-52157300D02*
X26650800Y-52157300D01*
X25950000Y-48965000D02*
X28286500Y-48965000D01*
X57703000Y-38422000D02*
X57703000Y-48316500D01*
X36108600Y-23565000D02*
X36108600Y-15236400D01*
X59690000Y-23735000D02*
X61697900Y-25742900D01*
X36108600Y-15236400D02*
X40310000Y-11035000D01*
X27688700Y-65456300D02*
X27500000Y-65645000D01*
X57703000Y-48316500D02*
X41128500Y-48316500D01*
X61697900Y-25742900D02*
X61697900Y-34427100D01*
X28286500Y-36265000D02*
X33690000Y-36265000D01*
X36193600Y-23735000D02*
X36108600Y-23650000D01*
X14310000Y-48965000D02*
X22050000Y-48965000D01*
X28286500Y-48965000D02*
X28286500Y-36265000D01*
X28286500Y-48965000D02*
X33690000Y-48965000D01*
X61697900Y-34427100D02*
X59690000Y-36435000D01*
X14310000Y-23565000D02*
X33690000Y-23565000D01*
X40310000Y-11035000D02*
X40140000Y-10865000D01*
X59690000Y-11035000D02*
X40310000Y-11035000D01*
X36193600Y-23735000D02*
X40310000Y-23735000D01*
X24000000Y-50915000D02*
X25242300Y-52157300D01*
X36108600Y-23650000D02*
X36108600Y-23565000D01*
X36108600Y-23565000D02*
X33690000Y-23565000D01*
X40140000Y-36265000D02*
X40310000Y-36435000D01*
X59690000Y-49135000D02*
X58871500Y-48316500D01*
X22050000Y-48965000D02*
X24000000Y-50915000D01*
X24790000Y-68355000D02*
X27500000Y-65645000D01*
X59690000Y-36435000D02*
X57703000Y-38422000D01*
X40140000Y-48965000D02*
X40310000Y-49135000D01*
X33690000Y-48965000D02*
X40140000Y-48965000D01*
X33690000Y-36265000D02*
X36193600Y-36265000D01*
X40140000Y-10865000D02*
X33690000Y-10865000D01*
X36193600Y-36265000D02*
X36193600Y-23735000D01*
X14310000Y-10865000D02*
X33690000Y-10865000D01*
X41128500Y-48316500D02*
X40310000Y-49135000D01*
X26650800Y-52157300D02*
X27688700Y-53195200D01*
X24000000Y-50915000D02*
X25950000Y-48965000D01*
%TO.N,SER_A3_B2*%
X31665700Y-44400700D02*
X31665700Y-43433400D01*
X37621900Y-39184000D02*
X39155800Y-37650100D01*
X33690000Y-46425000D02*
X31665700Y-44400700D01*
X31665700Y-43433400D02*
X32484000Y-42615100D01*
X41905100Y-37650100D02*
X42297000Y-37258200D01*
X34914000Y-42615100D02*
X37621900Y-39907200D01*
X42297000Y-18102000D02*
X40310000Y-16115000D01*
X37621900Y-39907200D02*
X37621900Y-39184000D01*
X39155800Y-37650100D02*
X41905100Y-37650100D01*
X32484000Y-42615100D02*
X34914000Y-42615100D01*
X42297000Y-37258200D02*
X42297000Y-18102000D01*
%TO.N,SER_A2_B3*%
X33690000Y-43885000D02*
X34791300Y-43885000D01*
X41513500Y-40245000D02*
X42848700Y-38909800D01*
X42848700Y-38909800D02*
X42848700Y-16113700D01*
X34791300Y-43885000D02*
X38431300Y-40245000D01*
X42848700Y-16113700D02*
X40310000Y-13575000D01*
X38431300Y-40245000D02*
X41513500Y-40245000D01*
%TO.N,VBUS1*%
X14310000Y-59455000D02*
X20500000Y-65645000D01*
X14310000Y-54045000D02*
X14310000Y-59455000D01*
X59690000Y-5955000D02*
X58392000Y-4657000D01*
X46599800Y-4657000D02*
X44111500Y-7145300D01*
X58392000Y-4657000D02*
X46599800Y-4657000D01*
X44111500Y-7145300D02*
X32158800Y-7145300D01*
%TO.N,USB_DM*%
X23000000Y-54215000D02*
X23000000Y-65645000D01*
%TO.N,USB_DP*%
X25000000Y-54215000D02*
X25000000Y-65645000D01*
%TO.N,OPTO_CATH*%
X64019400Y-30635000D02*
X62893500Y-31760900D01*
X62893500Y-31760900D02*
X62893500Y-38311500D01*
X62893500Y-38311500D02*
X59690000Y-41515000D01*
X64525000Y-30635000D02*
X64019400Y-30635000D01*
%TO.N,OPTO_3V3*%
X62087500Y-13717500D02*
X62087500Y-12000000D01*
X59690000Y-16115000D02*
X62087500Y-13717500D01*
%TO.N,OPTO_ANODE*%
X63151800Y-12760700D02*
X63912500Y-12000000D01*
X63151800Y-28542900D02*
X63151800Y-12760700D01*
X63973900Y-29365000D02*
X63151800Y-28542900D01*
X64525000Y-29365000D02*
X63973900Y-29365000D01*
%TD*%
M02*
