%TF.GenerationSoftware,KiCad,Pcbnew,10.0.3*%
%TF.CreationDate,2026-05-22T07:38:20+10:00*%
%TF.ProjectId,screen-hopper-smd,73637265-656e-42d6-986f-707065722d73,rev?*%
%TF.SameCoordinates,Original*%
%TF.FileFunction,Drillmap*%
%TF.FilePolarity,Positive*%
%FSLAX45Y45*%
G04 Gerber Fmt 4.5, Leading zero omitted, Abs format (unit mm)*
G04 Created by KiCad (PCBNEW 10.0.3) date 2026-05-22 07:38:20*
%MOMM*%
%LPD*%
G01*
G04 APERTURE LIST*
%ADD10C,0.150000*%
%ADD11C,0.200000*%
%ADD12C,0.100000*%
%ADD13C,0.230000*%
G04 APERTURE END LIST*
D10*
X991500Y-24000D02*
X10208500Y-24000D01*
X991500Y-8168000D02*
X991500Y-24000D01*
X10208500Y-24000D02*
X10208500Y-8168000D01*
X10208500Y-8168000D02*
X991500Y-8168000D01*
D11*
D12*
X3198380Y-697030D02*
X3233380Y-732030D01*
X3233380Y-697030D02*
X3198380Y-732030D01*
X3527270Y-934710D02*
X3562270Y-969710D01*
X3562270Y-934710D02*
X3527270Y-969710D01*
X3569730Y-5387000D02*
X3604730Y-5422000D01*
X3604730Y-5387000D02*
X3569730Y-5422000D01*
X3606040Y-602600D02*
X3641040Y-637600D01*
X3641040Y-602600D02*
X3606040Y-637600D01*
X3606040Y-5133000D02*
X3641040Y-5168000D01*
X3641040Y-5133000D02*
X3606040Y-5168000D01*
X2096000Y-6564500D02*
G75*
G02*
X2004000Y-6564500I-46000J0D01*
G01*
X2004000Y-6564500D02*
G75*
G02*
X2096000Y-6564500I46000J0D01*
G01*
X2346000Y-6564500D02*
G75*
G02*
X2254000Y-6564500I-46000J0D01*
G01*
X2254000Y-6564500D02*
G75*
G02*
X2346000Y-6564500I46000J0D01*
G01*
X2546000Y-6564500D02*
G75*
G02*
X2454000Y-6564500I-46000J0D01*
G01*
X2454000Y-6564500D02*
G75*
G02*
X2546000Y-6564500I46000J0D01*
G01*
X2796000Y-6564500D02*
G75*
G02*
X2704000Y-6564500I-46000J0D01*
G01*
X2704000Y-6564500D02*
G75*
G02*
X2796000Y-6564500I46000J0D01*
G01*
D13*
X1743000Y-6720500D02*
X1743000Y-6950500D01*
X1628000Y-6835500D02*
X1858000Y-6835500D01*
X3057000Y-6720500D02*
X3057000Y-6950500D01*
X2942000Y-6835500D02*
X3172000Y-6835500D01*
D11*
X1244777Y-8486984D02*
X1244777Y-8286984D01*
X1244777Y-8286984D02*
X1292396Y-8286984D01*
X1292396Y-8286984D02*
X1320967Y-8296508D01*
X1320967Y-8296508D02*
X1340015Y-8315555D01*
X1340015Y-8315555D02*
X1349539Y-8334603D01*
X1349539Y-8334603D02*
X1359063Y-8372698D01*
X1359063Y-8372698D02*
X1359063Y-8401270D01*
X1359063Y-8401270D02*
X1349539Y-8439365D01*
X1349539Y-8439365D02*
X1340015Y-8458412D01*
X1340015Y-8458412D02*
X1320967Y-8477460D01*
X1320967Y-8477460D02*
X1292396Y-8486984D01*
X1292396Y-8486984D02*
X1244777Y-8486984D01*
X1444777Y-8486984D02*
X1444777Y-8353650D01*
X1444777Y-8391746D02*
X1454301Y-8372698D01*
X1454301Y-8372698D02*
X1463824Y-8363174D01*
X1463824Y-8363174D02*
X1482872Y-8353650D01*
X1482872Y-8353650D02*
X1501920Y-8353650D01*
X1568586Y-8486984D02*
X1568586Y-8353650D01*
X1568586Y-8286984D02*
X1559062Y-8296508D01*
X1559062Y-8296508D02*
X1568586Y-8306031D01*
X1568586Y-8306031D02*
X1578110Y-8296508D01*
X1578110Y-8296508D02*
X1568586Y-8286984D01*
X1568586Y-8286984D02*
X1568586Y-8306031D01*
X1692396Y-8486984D02*
X1673348Y-8477460D01*
X1673348Y-8477460D02*
X1663824Y-8458412D01*
X1663824Y-8458412D02*
X1663824Y-8286984D01*
X1797158Y-8486984D02*
X1778110Y-8477460D01*
X1778110Y-8477460D02*
X1768586Y-8458412D01*
X1768586Y-8458412D02*
X1768586Y-8286984D01*
X2025729Y-8486984D02*
X2025729Y-8286984D01*
X2025729Y-8286984D02*
X2092396Y-8429841D01*
X2092396Y-8429841D02*
X2159063Y-8286984D01*
X2159063Y-8286984D02*
X2159063Y-8486984D01*
X2340015Y-8486984D02*
X2340015Y-8382222D01*
X2340015Y-8382222D02*
X2330491Y-8363174D01*
X2330491Y-8363174D02*
X2311444Y-8353650D01*
X2311444Y-8353650D02*
X2273348Y-8353650D01*
X2273348Y-8353650D02*
X2254301Y-8363174D01*
X2340015Y-8477460D02*
X2320967Y-8486984D01*
X2320967Y-8486984D02*
X2273348Y-8486984D01*
X2273348Y-8486984D02*
X2254301Y-8477460D01*
X2254301Y-8477460D02*
X2244777Y-8458412D01*
X2244777Y-8458412D02*
X2244777Y-8439365D01*
X2244777Y-8439365D02*
X2254301Y-8420317D01*
X2254301Y-8420317D02*
X2273348Y-8410793D01*
X2273348Y-8410793D02*
X2320967Y-8410793D01*
X2320967Y-8410793D02*
X2340015Y-8401270D01*
X2435253Y-8353650D02*
X2435253Y-8553650D01*
X2435253Y-8363174D02*
X2454301Y-8353650D01*
X2454301Y-8353650D02*
X2492396Y-8353650D01*
X2492396Y-8353650D02*
X2511444Y-8363174D01*
X2511444Y-8363174D02*
X2520967Y-8372698D01*
X2520967Y-8372698D02*
X2530491Y-8391746D01*
X2530491Y-8391746D02*
X2530491Y-8448889D01*
X2530491Y-8448889D02*
X2520967Y-8467936D01*
X2520967Y-8467936D02*
X2511444Y-8477460D01*
X2511444Y-8477460D02*
X2492396Y-8486984D01*
X2492396Y-8486984D02*
X2454301Y-8486984D01*
X2454301Y-8486984D02*
X2435253Y-8477460D01*
X2616205Y-8467936D02*
X2625729Y-8477460D01*
X2625729Y-8477460D02*
X2616205Y-8486984D01*
X2616205Y-8486984D02*
X2606682Y-8477460D01*
X2606682Y-8477460D02*
X2616205Y-8467936D01*
X2616205Y-8467936D02*
X2616205Y-8486984D01*
X2616205Y-8363174D02*
X2625729Y-8372698D01*
X2625729Y-8372698D02*
X2616205Y-8382222D01*
X2616205Y-8382222D02*
X2606682Y-8372698D01*
X2606682Y-8372698D02*
X2616205Y-8363174D01*
X2616205Y-8363174D02*
X2616205Y-8382222D01*
D12*
X949000Y-8798000D02*
X984000Y-8833000D01*
X984000Y-8798000D02*
X949000Y-8833000D01*
D11*
X1282872Y-8706984D02*
X1301920Y-8706984D01*
X1301920Y-8706984D02*
X1320967Y-8716508D01*
X1320967Y-8716508D02*
X1330491Y-8726031D01*
X1330491Y-8726031D02*
X1340015Y-8745079D01*
X1340015Y-8745079D02*
X1349539Y-8783174D01*
X1349539Y-8783174D02*
X1349539Y-8830793D01*
X1349539Y-8830793D02*
X1340015Y-8868889D01*
X1340015Y-8868889D02*
X1330491Y-8887936D01*
X1330491Y-8887936D02*
X1320967Y-8897460D01*
X1320967Y-8897460D02*
X1301920Y-8906984D01*
X1301920Y-8906984D02*
X1282872Y-8906984D01*
X1282872Y-8906984D02*
X1263824Y-8897460D01*
X1263824Y-8897460D02*
X1254301Y-8887936D01*
X1254301Y-8887936D02*
X1244777Y-8868889D01*
X1244777Y-8868889D02*
X1235253Y-8830793D01*
X1235253Y-8830793D02*
X1235253Y-8783174D01*
X1235253Y-8783174D02*
X1244777Y-8745079D01*
X1244777Y-8745079D02*
X1254301Y-8726031D01*
X1254301Y-8726031D02*
X1263824Y-8716508D01*
X1263824Y-8716508D02*
X1282872Y-8706984D01*
X1435253Y-8887936D02*
X1444777Y-8897460D01*
X1444777Y-8897460D02*
X1435253Y-8906984D01*
X1435253Y-8906984D02*
X1425729Y-8897460D01*
X1425729Y-8897460D02*
X1435253Y-8887936D01*
X1435253Y-8887936D02*
X1435253Y-8906984D01*
X1511443Y-8706984D02*
X1635253Y-8706984D01*
X1635253Y-8706984D02*
X1568586Y-8783174D01*
X1568586Y-8783174D02*
X1597158Y-8783174D01*
X1597158Y-8783174D02*
X1616205Y-8792698D01*
X1616205Y-8792698D02*
X1625729Y-8802222D01*
X1625729Y-8802222D02*
X1635253Y-8821270D01*
X1635253Y-8821270D02*
X1635253Y-8868889D01*
X1635253Y-8868889D02*
X1625729Y-8887936D01*
X1625729Y-8887936D02*
X1616205Y-8897460D01*
X1616205Y-8897460D02*
X1597158Y-8906984D01*
X1597158Y-8906984D02*
X1540015Y-8906984D01*
X1540015Y-8906984D02*
X1520967Y-8897460D01*
X1520967Y-8897460D02*
X1511443Y-8887936D01*
X1816205Y-8706984D02*
X1720967Y-8706984D01*
X1720967Y-8706984D02*
X1711443Y-8802222D01*
X1711443Y-8802222D02*
X1720967Y-8792698D01*
X1720967Y-8792698D02*
X1740015Y-8783174D01*
X1740015Y-8783174D02*
X1787634Y-8783174D01*
X1787634Y-8783174D02*
X1806682Y-8792698D01*
X1806682Y-8792698D02*
X1816205Y-8802222D01*
X1816205Y-8802222D02*
X1825729Y-8821270D01*
X1825729Y-8821270D02*
X1825729Y-8868889D01*
X1825729Y-8868889D02*
X1816205Y-8887936D01*
X1816205Y-8887936D02*
X1806682Y-8897460D01*
X1806682Y-8897460D02*
X1787634Y-8906984D01*
X1787634Y-8906984D02*
X1740015Y-8906984D01*
X1740015Y-8906984D02*
X1720967Y-8897460D01*
X1720967Y-8897460D02*
X1711443Y-8887936D01*
X1949539Y-8706984D02*
X1968586Y-8706984D01*
X1968586Y-8706984D02*
X1987634Y-8716508D01*
X1987634Y-8716508D02*
X1997158Y-8726031D01*
X1997158Y-8726031D02*
X2006682Y-8745079D01*
X2006682Y-8745079D02*
X2016205Y-8783174D01*
X2016205Y-8783174D02*
X2016205Y-8830793D01*
X2016205Y-8830793D02*
X2006682Y-8868889D01*
X2006682Y-8868889D02*
X1997158Y-8887936D01*
X1997158Y-8887936D02*
X1987634Y-8897460D01*
X1987634Y-8897460D02*
X1968586Y-8906984D01*
X1968586Y-8906984D02*
X1949539Y-8906984D01*
X1949539Y-8906984D02*
X1930491Y-8897460D01*
X1930491Y-8897460D02*
X1920967Y-8887936D01*
X1920967Y-8887936D02*
X1911443Y-8868889D01*
X1911443Y-8868889D02*
X1901920Y-8830793D01*
X1901920Y-8830793D02*
X1901920Y-8783174D01*
X1901920Y-8783174D02*
X1911443Y-8745079D01*
X1911443Y-8745079D02*
X1920967Y-8726031D01*
X1920967Y-8726031D02*
X1930491Y-8716508D01*
X1930491Y-8716508D02*
X1949539Y-8706984D01*
X2101920Y-8906984D02*
X2101920Y-8773650D01*
X2101920Y-8792698D02*
X2111444Y-8783174D01*
X2111444Y-8783174D02*
X2130491Y-8773650D01*
X2130491Y-8773650D02*
X2159063Y-8773650D01*
X2159063Y-8773650D02*
X2178110Y-8783174D01*
X2178110Y-8783174D02*
X2187634Y-8802222D01*
X2187634Y-8802222D02*
X2187634Y-8906984D01*
X2187634Y-8802222D02*
X2197158Y-8783174D01*
X2197158Y-8783174D02*
X2216205Y-8773650D01*
X2216205Y-8773650D02*
X2244777Y-8773650D01*
X2244777Y-8773650D02*
X2263825Y-8783174D01*
X2263825Y-8783174D02*
X2273348Y-8802222D01*
X2273348Y-8802222D02*
X2273348Y-8906984D01*
X2368586Y-8906984D02*
X2368586Y-8773650D01*
X2368586Y-8792698D02*
X2378110Y-8783174D01*
X2378110Y-8783174D02*
X2397158Y-8773650D01*
X2397158Y-8773650D02*
X2425729Y-8773650D01*
X2425729Y-8773650D02*
X2444777Y-8783174D01*
X2444777Y-8783174D02*
X2454301Y-8802222D01*
X2454301Y-8802222D02*
X2454301Y-8906984D01*
X2454301Y-8802222D02*
X2463825Y-8783174D01*
X2463825Y-8783174D02*
X2482872Y-8773650D01*
X2482872Y-8773650D02*
X2511444Y-8773650D01*
X2511444Y-8773650D02*
X2530491Y-8783174D01*
X2530491Y-8783174D02*
X2540015Y-8802222D01*
X2540015Y-8802222D02*
X2540015Y-8906984D01*
X2930491Y-8697460D02*
X2759063Y-8954603D01*
X3187634Y-8706984D02*
X3206682Y-8706984D01*
X3206682Y-8706984D02*
X3225729Y-8716508D01*
X3225729Y-8716508D02*
X3235253Y-8726031D01*
X3235253Y-8726031D02*
X3244777Y-8745079D01*
X3244777Y-8745079D02*
X3254301Y-8783174D01*
X3254301Y-8783174D02*
X3254301Y-8830793D01*
X3254301Y-8830793D02*
X3244777Y-8868889D01*
X3244777Y-8868889D02*
X3235253Y-8887936D01*
X3235253Y-8887936D02*
X3225729Y-8897460D01*
X3225729Y-8897460D02*
X3206682Y-8906984D01*
X3206682Y-8906984D02*
X3187634Y-8906984D01*
X3187634Y-8906984D02*
X3168586Y-8897460D01*
X3168586Y-8897460D02*
X3159063Y-8887936D01*
X3159063Y-8887936D02*
X3149539Y-8868889D01*
X3149539Y-8868889D02*
X3140015Y-8830793D01*
X3140015Y-8830793D02*
X3140015Y-8783174D01*
X3140015Y-8783174D02*
X3149539Y-8745079D01*
X3149539Y-8745079D02*
X3159063Y-8726031D01*
X3159063Y-8726031D02*
X3168586Y-8716508D01*
X3168586Y-8716508D02*
X3187634Y-8706984D01*
X3340015Y-8887936D02*
X3349539Y-8897460D01*
X3349539Y-8897460D02*
X3340015Y-8906984D01*
X3340015Y-8906984D02*
X3330491Y-8897460D01*
X3330491Y-8897460D02*
X3340015Y-8887936D01*
X3340015Y-8887936D02*
X3340015Y-8906984D01*
X3473348Y-8706984D02*
X3492396Y-8706984D01*
X3492396Y-8706984D02*
X3511444Y-8716508D01*
X3511444Y-8716508D02*
X3520967Y-8726031D01*
X3520967Y-8726031D02*
X3530491Y-8745079D01*
X3530491Y-8745079D02*
X3540015Y-8783174D01*
X3540015Y-8783174D02*
X3540015Y-8830793D01*
X3540015Y-8830793D02*
X3530491Y-8868889D01*
X3530491Y-8868889D02*
X3520967Y-8887936D01*
X3520967Y-8887936D02*
X3511444Y-8897460D01*
X3511444Y-8897460D02*
X3492396Y-8906984D01*
X3492396Y-8906984D02*
X3473348Y-8906984D01*
X3473348Y-8906984D02*
X3454301Y-8897460D01*
X3454301Y-8897460D02*
X3444777Y-8887936D01*
X3444777Y-8887936D02*
X3435253Y-8868889D01*
X3435253Y-8868889D02*
X3425729Y-8830793D01*
X3425729Y-8830793D02*
X3425729Y-8783174D01*
X3425729Y-8783174D02*
X3435253Y-8745079D01*
X3435253Y-8745079D02*
X3444777Y-8726031D01*
X3444777Y-8726031D02*
X3454301Y-8716508D01*
X3454301Y-8716508D02*
X3473348Y-8706984D01*
X3730491Y-8906984D02*
X3616206Y-8906984D01*
X3673348Y-8906984D02*
X3673348Y-8706984D01*
X3673348Y-8706984D02*
X3654301Y-8735555D01*
X3654301Y-8735555D02*
X3635253Y-8754603D01*
X3635253Y-8754603D02*
X3616206Y-8764127D01*
X3797158Y-8706984D02*
X3920967Y-8706984D01*
X3920967Y-8706984D02*
X3854301Y-8783174D01*
X3854301Y-8783174D02*
X3882872Y-8783174D01*
X3882872Y-8783174D02*
X3901920Y-8792698D01*
X3901920Y-8792698D02*
X3911444Y-8802222D01*
X3911444Y-8802222D02*
X3920967Y-8821270D01*
X3920967Y-8821270D02*
X3920967Y-8868889D01*
X3920967Y-8868889D02*
X3911444Y-8887936D01*
X3911444Y-8887936D02*
X3901920Y-8897460D01*
X3901920Y-8897460D02*
X3882872Y-8906984D01*
X3882872Y-8906984D02*
X3825729Y-8906984D01*
X3825729Y-8906984D02*
X3806682Y-8897460D01*
X3806682Y-8897460D02*
X3797158Y-8887936D01*
X4035253Y-8792698D02*
X4016206Y-8783174D01*
X4016206Y-8783174D02*
X4006682Y-8773650D01*
X4006682Y-8773650D02*
X3997158Y-8754603D01*
X3997158Y-8754603D02*
X3997158Y-8745079D01*
X3997158Y-8745079D02*
X4006682Y-8726031D01*
X4006682Y-8726031D02*
X4016206Y-8716508D01*
X4016206Y-8716508D02*
X4035253Y-8706984D01*
X4035253Y-8706984D02*
X4073348Y-8706984D01*
X4073348Y-8706984D02*
X4092396Y-8716508D01*
X4092396Y-8716508D02*
X4101920Y-8726031D01*
X4101920Y-8726031D02*
X4111444Y-8745079D01*
X4111444Y-8745079D02*
X4111444Y-8754603D01*
X4111444Y-8754603D02*
X4101920Y-8773650D01*
X4101920Y-8773650D02*
X4092396Y-8783174D01*
X4092396Y-8783174D02*
X4073348Y-8792698D01*
X4073348Y-8792698D02*
X4035253Y-8792698D01*
X4035253Y-8792698D02*
X4016206Y-8802222D01*
X4016206Y-8802222D02*
X4006682Y-8811746D01*
X4006682Y-8811746D02*
X3997158Y-8830793D01*
X3997158Y-8830793D02*
X3997158Y-8868889D01*
X3997158Y-8868889D02*
X4006682Y-8887936D01*
X4006682Y-8887936D02*
X4016206Y-8897460D01*
X4016206Y-8897460D02*
X4035253Y-8906984D01*
X4035253Y-8906984D02*
X4073348Y-8906984D01*
X4073348Y-8906984D02*
X4092396Y-8897460D01*
X4092396Y-8897460D02*
X4101920Y-8887936D01*
X4101920Y-8887936D02*
X4111444Y-8868889D01*
X4111444Y-8868889D02*
X4111444Y-8830793D01*
X4111444Y-8830793D02*
X4101920Y-8811746D01*
X4101920Y-8811746D02*
X4092396Y-8802222D01*
X4092396Y-8802222D02*
X4073348Y-8792698D01*
X4187634Y-8706984D02*
X4187634Y-8745079D01*
X4263825Y-8706984D02*
X4263825Y-8745079D01*
X4559063Y-8983174D02*
X4549539Y-8973650D01*
X4549539Y-8973650D02*
X4530491Y-8945079D01*
X4530491Y-8945079D02*
X4520968Y-8926031D01*
X4520968Y-8926031D02*
X4511444Y-8897460D01*
X4511444Y-8897460D02*
X4501920Y-8849841D01*
X4501920Y-8849841D02*
X4501920Y-8811746D01*
X4501920Y-8811746D02*
X4511444Y-8764127D01*
X4511444Y-8764127D02*
X4520968Y-8735555D01*
X4520968Y-8735555D02*
X4530491Y-8716508D01*
X4530491Y-8716508D02*
X4549539Y-8687936D01*
X4549539Y-8687936D02*
X4559063Y-8678412D01*
X4730491Y-8706984D02*
X4635253Y-8706984D01*
X4635253Y-8706984D02*
X4625730Y-8802222D01*
X4625730Y-8802222D02*
X4635253Y-8792698D01*
X4635253Y-8792698D02*
X4654301Y-8783174D01*
X4654301Y-8783174D02*
X4701920Y-8783174D01*
X4701920Y-8783174D02*
X4720968Y-8792698D01*
X4720968Y-8792698D02*
X4730491Y-8802222D01*
X4730491Y-8802222D02*
X4740015Y-8821270D01*
X4740015Y-8821270D02*
X4740015Y-8868889D01*
X4740015Y-8868889D02*
X4730491Y-8887936D01*
X4730491Y-8887936D02*
X4720968Y-8897460D01*
X4720968Y-8897460D02*
X4701920Y-8906984D01*
X4701920Y-8906984D02*
X4654301Y-8906984D01*
X4654301Y-8906984D02*
X4635253Y-8897460D01*
X4635253Y-8897460D02*
X4625730Y-8887936D01*
X4978111Y-8906984D02*
X4978111Y-8706984D01*
X5063825Y-8906984D02*
X5063825Y-8802222D01*
X5063825Y-8802222D02*
X5054301Y-8783174D01*
X5054301Y-8783174D02*
X5035253Y-8773650D01*
X5035253Y-8773650D02*
X5006682Y-8773650D01*
X5006682Y-8773650D02*
X4987634Y-8783174D01*
X4987634Y-8783174D02*
X4978111Y-8792698D01*
X5187634Y-8906984D02*
X5168587Y-8897460D01*
X5168587Y-8897460D02*
X5159063Y-8887936D01*
X5159063Y-8887936D02*
X5149539Y-8868889D01*
X5149539Y-8868889D02*
X5149539Y-8811746D01*
X5149539Y-8811746D02*
X5159063Y-8792698D01*
X5159063Y-8792698D02*
X5168587Y-8783174D01*
X5168587Y-8783174D02*
X5187634Y-8773650D01*
X5187634Y-8773650D02*
X5216206Y-8773650D01*
X5216206Y-8773650D02*
X5235253Y-8783174D01*
X5235253Y-8783174D02*
X5244777Y-8792698D01*
X5244777Y-8792698D02*
X5254301Y-8811746D01*
X5254301Y-8811746D02*
X5254301Y-8868889D01*
X5254301Y-8868889D02*
X5244777Y-8887936D01*
X5244777Y-8887936D02*
X5235253Y-8897460D01*
X5235253Y-8897460D02*
X5216206Y-8906984D01*
X5216206Y-8906984D02*
X5187634Y-8906984D01*
X5368587Y-8906984D02*
X5349539Y-8897460D01*
X5349539Y-8897460D02*
X5340015Y-8878412D01*
X5340015Y-8878412D02*
X5340015Y-8706984D01*
X5520968Y-8897460D02*
X5501920Y-8906984D01*
X5501920Y-8906984D02*
X5463825Y-8906984D01*
X5463825Y-8906984D02*
X5444777Y-8897460D01*
X5444777Y-8897460D02*
X5435253Y-8878412D01*
X5435253Y-8878412D02*
X5435253Y-8802222D01*
X5435253Y-8802222D02*
X5444777Y-8783174D01*
X5444777Y-8783174D02*
X5463825Y-8773650D01*
X5463825Y-8773650D02*
X5501920Y-8773650D01*
X5501920Y-8773650D02*
X5520968Y-8783174D01*
X5520968Y-8783174D02*
X5530492Y-8802222D01*
X5530492Y-8802222D02*
X5530492Y-8821270D01*
X5530492Y-8821270D02*
X5435253Y-8840317D01*
X5606682Y-8897460D02*
X5625730Y-8906984D01*
X5625730Y-8906984D02*
X5663825Y-8906984D01*
X5663825Y-8906984D02*
X5682872Y-8897460D01*
X5682872Y-8897460D02*
X5692396Y-8878412D01*
X5692396Y-8878412D02*
X5692396Y-8868889D01*
X5692396Y-8868889D02*
X5682872Y-8849841D01*
X5682872Y-8849841D02*
X5663825Y-8840317D01*
X5663825Y-8840317D02*
X5635253Y-8840317D01*
X5635253Y-8840317D02*
X5616206Y-8830793D01*
X5616206Y-8830793D02*
X5606682Y-8811746D01*
X5606682Y-8811746D02*
X5606682Y-8802222D01*
X5606682Y-8802222D02*
X5616206Y-8783174D01*
X5616206Y-8783174D02*
X5635253Y-8773650D01*
X5635253Y-8773650D02*
X5663825Y-8773650D01*
X5663825Y-8773650D02*
X5682872Y-8783174D01*
X5759063Y-8983174D02*
X5768587Y-8973650D01*
X5768587Y-8973650D02*
X5787634Y-8945079D01*
X5787634Y-8945079D02*
X5797158Y-8926031D01*
X5797158Y-8926031D02*
X5806682Y-8897460D01*
X5806682Y-8897460D02*
X5816206Y-8849841D01*
X5816206Y-8849841D02*
X5816206Y-8811746D01*
X5816206Y-8811746D02*
X5806682Y-8764127D01*
X5806682Y-8764127D02*
X5797158Y-8735555D01*
X5797158Y-8735555D02*
X5787634Y-8716508D01*
X5787634Y-8716508D02*
X5768587Y-8687936D01*
X5768587Y-8687936D02*
X5759063Y-8678412D01*
D12*
X984000Y-9079500D02*
G75*
G02*
X892000Y-9079500I-46000J0D01*
G01*
X892000Y-9079500D02*
G75*
G02*
X984000Y-9079500I46000J0D01*
G01*
D11*
X1282872Y-8970984D02*
X1301920Y-8970984D01*
X1301920Y-8970984D02*
X1320967Y-8980508D01*
X1320967Y-8980508D02*
X1330491Y-8990031D01*
X1330491Y-8990031D02*
X1340015Y-9009079D01*
X1340015Y-9009079D02*
X1349539Y-9047174D01*
X1349539Y-9047174D02*
X1349539Y-9094793D01*
X1349539Y-9094793D02*
X1340015Y-9132889D01*
X1340015Y-9132889D02*
X1330491Y-9151936D01*
X1330491Y-9151936D02*
X1320967Y-9161460D01*
X1320967Y-9161460D02*
X1301920Y-9170984D01*
X1301920Y-9170984D02*
X1282872Y-9170984D01*
X1282872Y-9170984D02*
X1263824Y-9161460D01*
X1263824Y-9161460D02*
X1254301Y-9151936D01*
X1254301Y-9151936D02*
X1244777Y-9132889D01*
X1244777Y-9132889D02*
X1235253Y-9094793D01*
X1235253Y-9094793D02*
X1235253Y-9047174D01*
X1235253Y-9047174D02*
X1244777Y-9009079D01*
X1244777Y-9009079D02*
X1254301Y-8990031D01*
X1254301Y-8990031D02*
X1263824Y-8980508D01*
X1263824Y-8980508D02*
X1282872Y-8970984D01*
X1435253Y-9151936D02*
X1444777Y-9161460D01*
X1444777Y-9161460D02*
X1435253Y-9170984D01*
X1435253Y-9170984D02*
X1425729Y-9161460D01*
X1425729Y-9161460D02*
X1435253Y-9151936D01*
X1435253Y-9151936D02*
X1435253Y-9170984D01*
X1540015Y-9170984D02*
X1578110Y-9170984D01*
X1578110Y-9170984D02*
X1597158Y-9161460D01*
X1597158Y-9161460D02*
X1606682Y-9151936D01*
X1606682Y-9151936D02*
X1625729Y-9123365D01*
X1625729Y-9123365D02*
X1635253Y-9085270D01*
X1635253Y-9085270D02*
X1635253Y-9009079D01*
X1635253Y-9009079D02*
X1625729Y-8990031D01*
X1625729Y-8990031D02*
X1616205Y-8980508D01*
X1616205Y-8980508D02*
X1597158Y-8970984D01*
X1597158Y-8970984D02*
X1559062Y-8970984D01*
X1559062Y-8970984D02*
X1540015Y-8980508D01*
X1540015Y-8980508D02*
X1530491Y-8990031D01*
X1530491Y-8990031D02*
X1520967Y-9009079D01*
X1520967Y-9009079D02*
X1520967Y-9056698D01*
X1520967Y-9056698D02*
X1530491Y-9075746D01*
X1530491Y-9075746D02*
X1540015Y-9085270D01*
X1540015Y-9085270D02*
X1559062Y-9094793D01*
X1559062Y-9094793D02*
X1597158Y-9094793D01*
X1597158Y-9094793D02*
X1616205Y-9085270D01*
X1616205Y-9085270D02*
X1625729Y-9075746D01*
X1625729Y-9075746D02*
X1635253Y-9056698D01*
X1711443Y-8990031D02*
X1720967Y-8980508D01*
X1720967Y-8980508D02*
X1740015Y-8970984D01*
X1740015Y-8970984D02*
X1787634Y-8970984D01*
X1787634Y-8970984D02*
X1806682Y-8980508D01*
X1806682Y-8980508D02*
X1816205Y-8990031D01*
X1816205Y-8990031D02*
X1825729Y-9009079D01*
X1825729Y-9009079D02*
X1825729Y-9028127D01*
X1825729Y-9028127D02*
X1816205Y-9056698D01*
X1816205Y-9056698D02*
X1701920Y-9170984D01*
X1701920Y-9170984D02*
X1825729Y-9170984D01*
X1949539Y-8970984D02*
X1968586Y-8970984D01*
X1968586Y-8970984D02*
X1987634Y-8980508D01*
X1987634Y-8980508D02*
X1997158Y-8990031D01*
X1997158Y-8990031D02*
X2006682Y-9009079D01*
X2006682Y-9009079D02*
X2016205Y-9047174D01*
X2016205Y-9047174D02*
X2016205Y-9094793D01*
X2016205Y-9094793D02*
X2006682Y-9132889D01*
X2006682Y-9132889D02*
X1997158Y-9151936D01*
X1997158Y-9151936D02*
X1987634Y-9161460D01*
X1987634Y-9161460D02*
X1968586Y-9170984D01*
X1968586Y-9170984D02*
X1949539Y-9170984D01*
X1949539Y-9170984D02*
X1930491Y-9161460D01*
X1930491Y-9161460D02*
X1920967Y-9151936D01*
X1920967Y-9151936D02*
X1911443Y-9132889D01*
X1911443Y-9132889D02*
X1901920Y-9094793D01*
X1901920Y-9094793D02*
X1901920Y-9047174D01*
X1901920Y-9047174D02*
X1911443Y-9009079D01*
X1911443Y-9009079D02*
X1920967Y-8990031D01*
X1920967Y-8990031D02*
X1930491Y-8980508D01*
X1930491Y-8980508D02*
X1949539Y-8970984D01*
X2101920Y-9170984D02*
X2101920Y-9037650D01*
X2101920Y-9056698D02*
X2111444Y-9047174D01*
X2111444Y-9047174D02*
X2130491Y-9037650D01*
X2130491Y-9037650D02*
X2159063Y-9037650D01*
X2159063Y-9037650D02*
X2178110Y-9047174D01*
X2178110Y-9047174D02*
X2187634Y-9066222D01*
X2187634Y-9066222D02*
X2187634Y-9170984D01*
X2187634Y-9066222D02*
X2197158Y-9047174D01*
X2197158Y-9047174D02*
X2216205Y-9037650D01*
X2216205Y-9037650D02*
X2244777Y-9037650D01*
X2244777Y-9037650D02*
X2263825Y-9047174D01*
X2263825Y-9047174D02*
X2273348Y-9066222D01*
X2273348Y-9066222D02*
X2273348Y-9170984D01*
X2368586Y-9170984D02*
X2368586Y-9037650D01*
X2368586Y-9056698D02*
X2378110Y-9047174D01*
X2378110Y-9047174D02*
X2397158Y-9037650D01*
X2397158Y-9037650D02*
X2425729Y-9037650D01*
X2425729Y-9037650D02*
X2444777Y-9047174D01*
X2444777Y-9047174D02*
X2454301Y-9066222D01*
X2454301Y-9066222D02*
X2454301Y-9170984D01*
X2454301Y-9066222D02*
X2463825Y-9047174D01*
X2463825Y-9047174D02*
X2482872Y-9037650D01*
X2482872Y-9037650D02*
X2511444Y-9037650D01*
X2511444Y-9037650D02*
X2530491Y-9047174D01*
X2530491Y-9047174D02*
X2540015Y-9066222D01*
X2540015Y-9066222D02*
X2540015Y-9170984D01*
X2930491Y-8961460D02*
X2759063Y-9218603D01*
X3187634Y-8970984D02*
X3206682Y-8970984D01*
X3206682Y-8970984D02*
X3225729Y-8980508D01*
X3225729Y-8980508D02*
X3235253Y-8990031D01*
X3235253Y-8990031D02*
X3244777Y-9009079D01*
X3244777Y-9009079D02*
X3254301Y-9047174D01*
X3254301Y-9047174D02*
X3254301Y-9094793D01*
X3254301Y-9094793D02*
X3244777Y-9132889D01*
X3244777Y-9132889D02*
X3235253Y-9151936D01*
X3235253Y-9151936D02*
X3225729Y-9161460D01*
X3225729Y-9161460D02*
X3206682Y-9170984D01*
X3206682Y-9170984D02*
X3187634Y-9170984D01*
X3187634Y-9170984D02*
X3168586Y-9161460D01*
X3168586Y-9161460D02*
X3159063Y-9151936D01*
X3159063Y-9151936D02*
X3149539Y-9132889D01*
X3149539Y-9132889D02*
X3140015Y-9094793D01*
X3140015Y-9094793D02*
X3140015Y-9047174D01*
X3140015Y-9047174D02*
X3149539Y-9009079D01*
X3149539Y-9009079D02*
X3159063Y-8990031D01*
X3159063Y-8990031D02*
X3168586Y-8980508D01*
X3168586Y-8980508D02*
X3187634Y-8970984D01*
X3340015Y-9151936D02*
X3349539Y-9161460D01*
X3349539Y-9161460D02*
X3340015Y-9170984D01*
X3340015Y-9170984D02*
X3330491Y-9161460D01*
X3330491Y-9161460D02*
X3340015Y-9151936D01*
X3340015Y-9151936D02*
X3340015Y-9170984D01*
X3473348Y-8970984D02*
X3492396Y-8970984D01*
X3492396Y-8970984D02*
X3511444Y-8980508D01*
X3511444Y-8980508D02*
X3520967Y-8990031D01*
X3520967Y-8990031D02*
X3530491Y-9009079D01*
X3530491Y-9009079D02*
X3540015Y-9047174D01*
X3540015Y-9047174D02*
X3540015Y-9094793D01*
X3540015Y-9094793D02*
X3530491Y-9132889D01*
X3530491Y-9132889D02*
X3520967Y-9151936D01*
X3520967Y-9151936D02*
X3511444Y-9161460D01*
X3511444Y-9161460D02*
X3492396Y-9170984D01*
X3492396Y-9170984D02*
X3473348Y-9170984D01*
X3473348Y-9170984D02*
X3454301Y-9161460D01*
X3454301Y-9161460D02*
X3444777Y-9151936D01*
X3444777Y-9151936D02*
X3435253Y-9132889D01*
X3435253Y-9132889D02*
X3425729Y-9094793D01*
X3425729Y-9094793D02*
X3425729Y-9047174D01*
X3425729Y-9047174D02*
X3435253Y-9009079D01*
X3435253Y-9009079D02*
X3444777Y-8990031D01*
X3444777Y-8990031D02*
X3454301Y-8980508D01*
X3454301Y-8980508D02*
X3473348Y-8970984D01*
X3606682Y-8970984D02*
X3730491Y-8970984D01*
X3730491Y-8970984D02*
X3663825Y-9047174D01*
X3663825Y-9047174D02*
X3692396Y-9047174D01*
X3692396Y-9047174D02*
X3711444Y-9056698D01*
X3711444Y-9056698D02*
X3720967Y-9066222D01*
X3720967Y-9066222D02*
X3730491Y-9085270D01*
X3730491Y-9085270D02*
X3730491Y-9132889D01*
X3730491Y-9132889D02*
X3720967Y-9151936D01*
X3720967Y-9151936D02*
X3711444Y-9161460D01*
X3711444Y-9161460D02*
X3692396Y-9170984D01*
X3692396Y-9170984D02*
X3635253Y-9170984D01*
X3635253Y-9170984D02*
X3616206Y-9161460D01*
X3616206Y-9161460D02*
X3606682Y-9151936D01*
X3901920Y-8970984D02*
X3863825Y-8970984D01*
X3863825Y-8970984D02*
X3844777Y-8980508D01*
X3844777Y-8980508D02*
X3835253Y-8990031D01*
X3835253Y-8990031D02*
X3816206Y-9018603D01*
X3816206Y-9018603D02*
X3806682Y-9056698D01*
X3806682Y-9056698D02*
X3806682Y-9132889D01*
X3806682Y-9132889D02*
X3816206Y-9151936D01*
X3816206Y-9151936D02*
X3825729Y-9161460D01*
X3825729Y-9161460D02*
X3844777Y-9170984D01*
X3844777Y-9170984D02*
X3882872Y-9170984D01*
X3882872Y-9170984D02*
X3901920Y-9161460D01*
X3901920Y-9161460D02*
X3911444Y-9151936D01*
X3911444Y-9151936D02*
X3920967Y-9132889D01*
X3920967Y-9132889D02*
X3920967Y-9085270D01*
X3920967Y-9085270D02*
X3911444Y-9066222D01*
X3911444Y-9066222D02*
X3901920Y-9056698D01*
X3901920Y-9056698D02*
X3882872Y-9047174D01*
X3882872Y-9047174D02*
X3844777Y-9047174D01*
X3844777Y-9047174D02*
X3825729Y-9056698D01*
X3825729Y-9056698D02*
X3816206Y-9066222D01*
X3816206Y-9066222D02*
X3806682Y-9085270D01*
X3997158Y-8990031D02*
X4006682Y-8980508D01*
X4006682Y-8980508D02*
X4025729Y-8970984D01*
X4025729Y-8970984D02*
X4073348Y-8970984D01*
X4073348Y-8970984D02*
X4092396Y-8980508D01*
X4092396Y-8980508D02*
X4101920Y-8990031D01*
X4101920Y-8990031D02*
X4111444Y-9009079D01*
X4111444Y-9009079D02*
X4111444Y-9028127D01*
X4111444Y-9028127D02*
X4101920Y-9056698D01*
X4101920Y-9056698D02*
X3987634Y-9170984D01*
X3987634Y-9170984D02*
X4111444Y-9170984D01*
X4187634Y-8970984D02*
X4187634Y-9009079D01*
X4263825Y-8970984D02*
X4263825Y-9009079D01*
X4559063Y-9247174D02*
X4549539Y-9237650D01*
X4549539Y-9237650D02*
X4530491Y-9209079D01*
X4530491Y-9209079D02*
X4520968Y-9190031D01*
X4520968Y-9190031D02*
X4511444Y-9161460D01*
X4511444Y-9161460D02*
X4501920Y-9113841D01*
X4501920Y-9113841D02*
X4501920Y-9075746D01*
X4501920Y-9075746D02*
X4511444Y-9028127D01*
X4511444Y-9028127D02*
X4520968Y-8999555D01*
X4520968Y-8999555D02*
X4530491Y-8980508D01*
X4530491Y-8980508D02*
X4549539Y-8951936D01*
X4549539Y-8951936D02*
X4559063Y-8942412D01*
X4720968Y-9037650D02*
X4720968Y-9170984D01*
X4673349Y-8961460D02*
X4625730Y-9104317D01*
X4625730Y-9104317D02*
X4749539Y-9104317D01*
X4978111Y-9170984D02*
X4978111Y-8970984D01*
X5063825Y-9170984D02*
X5063825Y-9066222D01*
X5063825Y-9066222D02*
X5054301Y-9047174D01*
X5054301Y-9047174D02*
X5035253Y-9037650D01*
X5035253Y-9037650D02*
X5006682Y-9037650D01*
X5006682Y-9037650D02*
X4987634Y-9047174D01*
X4987634Y-9047174D02*
X4978111Y-9056698D01*
X5187634Y-9170984D02*
X5168587Y-9161460D01*
X5168587Y-9161460D02*
X5159063Y-9151936D01*
X5159063Y-9151936D02*
X5149539Y-9132889D01*
X5149539Y-9132889D02*
X5149539Y-9075746D01*
X5149539Y-9075746D02*
X5159063Y-9056698D01*
X5159063Y-9056698D02*
X5168587Y-9047174D01*
X5168587Y-9047174D02*
X5187634Y-9037650D01*
X5187634Y-9037650D02*
X5216206Y-9037650D01*
X5216206Y-9037650D02*
X5235253Y-9047174D01*
X5235253Y-9047174D02*
X5244777Y-9056698D01*
X5244777Y-9056698D02*
X5254301Y-9075746D01*
X5254301Y-9075746D02*
X5254301Y-9132889D01*
X5254301Y-9132889D02*
X5244777Y-9151936D01*
X5244777Y-9151936D02*
X5235253Y-9161460D01*
X5235253Y-9161460D02*
X5216206Y-9170984D01*
X5216206Y-9170984D02*
X5187634Y-9170984D01*
X5368587Y-9170984D02*
X5349539Y-9161460D01*
X5349539Y-9161460D02*
X5340015Y-9142412D01*
X5340015Y-9142412D02*
X5340015Y-8970984D01*
X5520968Y-9161460D02*
X5501920Y-9170984D01*
X5501920Y-9170984D02*
X5463825Y-9170984D01*
X5463825Y-9170984D02*
X5444777Y-9161460D01*
X5444777Y-9161460D02*
X5435253Y-9142412D01*
X5435253Y-9142412D02*
X5435253Y-9066222D01*
X5435253Y-9066222D02*
X5444777Y-9047174D01*
X5444777Y-9047174D02*
X5463825Y-9037650D01*
X5463825Y-9037650D02*
X5501920Y-9037650D01*
X5501920Y-9037650D02*
X5520968Y-9047174D01*
X5520968Y-9047174D02*
X5530492Y-9066222D01*
X5530492Y-9066222D02*
X5530492Y-9085270D01*
X5530492Y-9085270D02*
X5435253Y-9104317D01*
X5606682Y-9161460D02*
X5625730Y-9170984D01*
X5625730Y-9170984D02*
X5663825Y-9170984D01*
X5663825Y-9170984D02*
X5682872Y-9161460D01*
X5682872Y-9161460D02*
X5692396Y-9142412D01*
X5692396Y-9142412D02*
X5692396Y-9132889D01*
X5692396Y-9132889D02*
X5682872Y-9113841D01*
X5682872Y-9113841D02*
X5663825Y-9104317D01*
X5663825Y-9104317D02*
X5635253Y-9104317D01*
X5635253Y-9104317D02*
X5616206Y-9094793D01*
X5616206Y-9094793D02*
X5606682Y-9075746D01*
X5606682Y-9075746D02*
X5606682Y-9066222D01*
X5606682Y-9066222D02*
X5616206Y-9047174D01*
X5616206Y-9047174D02*
X5635253Y-9037650D01*
X5635253Y-9037650D02*
X5663825Y-9037650D01*
X5663825Y-9037650D02*
X5682872Y-9047174D01*
X5759063Y-9247174D02*
X5768587Y-9237650D01*
X5768587Y-9237650D02*
X5787634Y-9209079D01*
X5787634Y-9209079D02*
X5797158Y-9190031D01*
X5797158Y-9190031D02*
X5806682Y-9161460D01*
X5806682Y-9161460D02*
X5816206Y-9113841D01*
X5816206Y-9113841D02*
X5816206Y-9075746D01*
X5816206Y-9075746D02*
X5806682Y-9028127D01*
X5806682Y-9028127D02*
X5797158Y-8999555D01*
X5797158Y-8999555D02*
X5787634Y-8980508D01*
X5787634Y-8980508D02*
X5768587Y-8951936D01*
X5768587Y-8951936D02*
X5759063Y-8942412D01*
X884000Y-9243500D02*
X884000Y-9443500D01*
X784000Y-9343500D02*
X984000Y-9343500D01*
X1235253Y-9254031D02*
X1244777Y-9244508D01*
X1244777Y-9244508D02*
X1263824Y-9234984D01*
X1263824Y-9234984D02*
X1311444Y-9234984D01*
X1311444Y-9234984D02*
X1330491Y-9244508D01*
X1330491Y-9244508D02*
X1340015Y-9254031D01*
X1340015Y-9254031D02*
X1349539Y-9273079D01*
X1349539Y-9273079D02*
X1349539Y-9292127D01*
X1349539Y-9292127D02*
X1340015Y-9320698D01*
X1340015Y-9320698D02*
X1225729Y-9434984D01*
X1225729Y-9434984D02*
X1349539Y-9434984D01*
X1435253Y-9415936D02*
X1444777Y-9425460D01*
X1444777Y-9425460D02*
X1435253Y-9434984D01*
X1435253Y-9434984D02*
X1425729Y-9425460D01*
X1425729Y-9425460D02*
X1435253Y-9415936D01*
X1435253Y-9415936D02*
X1435253Y-9434984D01*
X1511443Y-9234984D02*
X1635253Y-9234984D01*
X1635253Y-9234984D02*
X1568586Y-9311174D01*
X1568586Y-9311174D02*
X1597158Y-9311174D01*
X1597158Y-9311174D02*
X1616205Y-9320698D01*
X1616205Y-9320698D02*
X1625729Y-9330222D01*
X1625729Y-9330222D02*
X1635253Y-9349270D01*
X1635253Y-9349270D02*
X1635253Y-9396889D01*
X1635253Y-9396889D02*
X1625729Y-9415936D01*
X1625729Y-9415936D02*
X1616205Y-9425460D01*
X1616205Y-9425460D02*
X1597158Y-9434984D01*
X1597158Y-9434984D02*
X1540015Y-9434984D01*
X1540015Y-9434984D02*
X1520967Y-9425460D01*
X1520967Y-9425460D02*
X1511443Y-9415936D01*
X1759062Y-9234984D02*
X1778110Y-9234984D01*
X1778110Y-9234984D02*
X1797158Y-9244508D01*
X1797158Y-9244508D02*
X1806682Y-9254031D01*
X1806682Y-9254031D02*
X1816205Y-9273079D01*
X1816205Y-9273079D02*
X1825729Y-9311174D01*
X1825729Y-9311174D02*
X1825729Y-9358793D01*
X1825729Y-9358793D02*
X1816205Y-9396889D01*
X1816205Y-9396889D02*
X1806682Y-9415936D01*
X1806682Y-9415936D02*
X1797158Y-9425460D01*
X1797158Y-9425460D02*
X1778110Y-9434984D01*
X1778110Y-9434984D02*
X1759062Y-9434984D01*
X1759062Y-9434984D02*
X1740015Y-9425460D01*
X1740015Y-9425460D02*
X1730491Y-9415936D01*
X1730491Y-9415936D02*
X1720967Y-9396889D01*
X1720967Y-9396889D02*
X1711443Y-9358793D01*
X1711443Y-9358793D02*
X1711443Y-9311174D01*
X1711443Y-9311174D02*
X1720967Y-9273079D01*
X1720967Y-9273079D02*
X1730491Y-9254031D01*
X1730491Y-9254031D02*
X1740015Y-9244508D01*
X1740015Y-9244508D02*
X1759062Y-9234984D01*
X1949539Y-9234984D02*
X1968586Y-9234984D01*
X1968586Y-9234984D02*
X1987634Y-9244508D01*
X1987634Y-9244508D02*
X1997158Y-9254031D01*
X1997158Y-9254031D02*
X2006682Y-9273079D01*
X2006682Y-9273079D02*
X2016205Y-9311174D01*
X2016205Y-9311174D02*
X2016205Y-9358793D01*
X2016205Y-9358793D02*
X2006682Y-9396889D01*
X2006682Y-9396889D02*
X1997158Y-9415936D01*
X1997158Y-9415936D02*
X1987634Y-9425460D01*
X1987634Y-9425460D02*
X1968586Y-9434984D01*
X1968586Y-9434984D02*
X1949539Y-9434984D01*
X1949539Y-9434984D02*
X1930491Y-9425460D01*
X1930491Y-9425460D02*
X1920967Y-9415936D01*
X1920967Y-9415936D02*
X1911443Y-9396889D01*
X1911443Y-9396889D02*
X1901920Y-9358793D01*
X1901920Y-9358793D02*
X1901920Y-9311174D01*
X1901920Y-9311174D02*
X1911443Y-9273079D01*
X1911443Y-9273079D02*
X1920967Y-9254031D01*
X1920967Y-9254031D02*
X1930491Y-9244508D01*
X1930491Y-9244508D02*
X1949539Y-9234984D01*
X2101920Y-9434984D02*
X2101920Y-9301650D01*
X2101920Y-9320698D02*
X2111444Y-9311174D01*
X2111444Y-9311174D02*
X2130491Y-9301650D01*
X2130491Y-9301650D02*
X2159063Y-9301650D01*
X2159063Y-9301650D02*
X2178110Y-9311174D01*
X2178110Y-9311174D02*
X2187634Y-9330222D01*
X2187634Y-9330222D02*
X2187634Y-9434984D01*
X2187634Y-9330222D02*
X2197158Y-9311174D01*
X2197158Y-9311174D02*
X2216205Y-9301650D01*
X2216205Y-9301650D02*
X2244777Y-9301650D01*
X2244777Y-9301650D02*
X2263825Y-9311174D01*
X2263825Y-9311174D02*
X2273348Y-9330222D01*
X2273348Y-9330222D02*
X2273348Y-9434984D01*
X2368586Y-9434984D02*
X2368586Y-9301650D01*
X2368586Y-9320698D02*
X2378110Y-9311174D01*
X2378110Y-9311174D02*
X2397158Y-9301650D01*
X2397158Y-9301650D02*
X2425729Y-9301650D01*
X2425729Y-9301650D02*
X2444777Y-9311174D01*
X2444777Y-9311174D02*
X2454301Y-9330222D01*
X2454301Y-9330222D02*
X2454301Y-9434984D01*
X2454301Y-9330222D02*
X2463825Y-9311174D01*
X2463825Y-9311174D02*
X2482872Y-9301650D01*
X2482872Y-9301650D02*
X2511444Y-9301650D01*
X2511444Y-9301650D02*
X2530491Y-9311174D01*
X2530491Y-9311174D02*
X2540015Y-9330222D01*
X2540015Y-9330222D02*
X2540015Y-9434984D01*
X2930491Y-9225460D02*
X2759063Y-9482603D01*
X3187634Y-9234984D02*
X3206682Y-9234984D01*
X3206682Y-9234984D02*
X3225729Y-9244508D01*
X3225729Y-9244508D02*
X3235253Y-9254031D01*
X3235253Y-9254031D02*
X3244777Y-9273079D01*
X3244777Y-9273079D02*
X3254301Y-9311174D01*
X3254301Y-9311174D02*
X3254301Y-9358793D01*
X3254301Y-9358793D02*
X3244777Y-9396889D01*
X3244777Y-9396889D02*
X3235253Y-9415936D01*
X3235253Y-9415936D02*
X3225729Y-9425460D01*
X3225729Y-9425460D02*
X3206682Y-9434984D01*
X3206682Y-9434984D02*
X3187634Y-9434984D01*
X3187634Y-9434984D02*
X3168586Y-9425460D01*
X3168586Y-9425460D02*
X3159063Y-9415936D01*
X3159063Y-9415936D02*
X3149539Y-9396889D01*
X3149539Y-9396889D02*
X3140015Y-9358793D01*
X3140015Y-9358793D02*
X3140015Y-9311174D01*
X3140015Y-9311174D02*
X3149539Y-9273079D01*
X3149539Y-9273079D02*
X3159063Y-9254031D01*
X3159063Y-9254031D02*
X3168586Y-9244508D01*
X3168586Y-9244508D02*
X3187634Y-9234984D01*
X3340015Y-9415936D02*
X3349539Y-9425460D01*
X3349539Y-9425460D02*
X3340015Y-9434984D01*
X3340015Y-9434984D02*
X3330491Y-9425460D01*
X3330491Y-9425460D02*
X3340015Y-9415936D01*
X3340015Y-9415936D02*
X3340015Y-9434984D01*
X3473348Y-9234984D02*
X3492396Y-9234984D01*
X3492396Y-9234984D02*
X3511444Y-9244508D01*
X3511444Y-9244508D02*
X3520967Y-9254031D01*
X3520967Y-9254031D02*
X3530491Y-9273079D01*
X3530491Y-9273079D02*
X3540015Y-9311174D01*
X3540015Y-9311174D02*
X3540015Y-9358793D01*
X3540015Y-9358793D02*
X3530491Y-9396889D01*
X3530491Y-9396889D02*
X3520967Y-9415936D01*
X3520967Y-9415936D02*
X3511444Y-9425460D01*
X3511444Y-9425460D02*
X3492396Y-9434984D01*
X3492396Y-9434984D02*
X3473348Y-9434984D01*
X3473348Y-9434984D02*
X3454301Y-9425460D01*
X3454301Y-9425460D02*
X3444777Y-9415936D01*
X3444777Y-9415936D02*
X3435253Y-9396889D01*
X3435253Y-9396889D02*
X3425729Y-9358793D01*
X3425729Y-9358793D02*
X3425729Y-9311174D01*
X3425729Y-9311174D02*
X3435253Y-9273079D01*
X3435253Y-9273079D02*
X3444777Y-9254031D01*
X3444777Y-9254031D02*
X3454301Y-9244508D01*
X3454301Y-9244508D02*
X3473348Y-9234984D01*
X3635253Y-9434984D02*
X3673348Y-9434984D01*
X3673348Y-9434984D02*
X3692396Y-9425460D01*
X3692396Y-9425460D02*
X3701920Y-9415936D01*
X3701920Y-9415936D02*
X3720967Y-9387365D01*
X3720967Y-9387365D02*
X3730491Y-9349270D01*
X3730491Y-9349270D02*
X3730491Y-9273079D01*
X3730491Y-9273079D02*
X3720967Y-9254031D01*
X3720967Y-9254031D02*
X3711444Y-9244508D01*
X3711444Y-9244508D02*
X3692396Y-9234984D01*
X3692396Y-9234984D02*
X3654301Y-9234984D01*
X3654301Y-9234984D02*
X3635253Y-9244508D01*
X3635253Y-9244508D02*
X3625729Y-9254031D01*
X3625729Y-9254031D02*
X3616206Y-9273079D01*
X3616206Y-9273079D02*
X3616206Y-9320698D01*
X3616206Y-9320698D02*
X3625729Y-9339746D01*
X3625729Y-9339746D02*
X3635253Y-9349270D01*
X3635253Y-9349270D02*
X3654301Y-9358793D01*
X3654301Y-9358793D02*
X3692396Y-9358793D01*
X3692396Y-9358793D02*
X3711444Y-9349270D01*
X3711444Y-9349270D02*
X3720967Y-9339746D01*
X3720967Y-9339746D02*
X3730491Y-9320698D01*
X3854301Y-9234984D02*
X3873348Y-9234984D01*
X3873348Y-9234984D02*
X3892396Y-9244508D01*
X3892396Y-9244508D02*
X3901920Y-9254031D01*
X3901920Y-9254031D02*
X3911444Y-9273079D01*
X3911444Y-9273079D02*
X3920967Y-9311174D01*
X3920967Y-9311174D02*
X3920967Y-9358793D01*
X3920967Y-9358793D02*
X3911444Y-9396889D01*
X3911444Y-9396889D02*
X3901920Y-9415936D01*
X3901920Y-9415936D02*
X3892396Y-9425460D01*
X3892396Y-9425460D02*
X3873348Y-9434984D01*
X3873348Y-9434984D02*
X3854301Y-9434984D01*
X3854301Y-9434984D02*
X3835253Y-9425460D01*
X3835253Y-9425460D02*
X3825729Y-9415936D01*
X3825729Y-9415936D02*
X3816206Y-9396889D01*
X3816206Y-9396889D02*
X3806682Y-9358793D01*
X3806682Y-9358793D02*
X3806682Y-9311174D01*
X3806682Y-9311174D02*
X3816206Y-9273079D01*
X3816206Y-9273079D02*
X3825729Y-9254031D01*
X3825729Y-9254031D02*
X3835253Y-9244508D01*
X3835253Y-9244508D02*
X3854301Y-9234984D01*
X4092396Y-9234984D02*
X4054301Y-9234984D01*
X4054301Y-9234984D02*
X4035253Y-9244508D01*
X4035253Y-9244508D02*
X4025729Y-9254031D01*
X4025729Y-9254031D02*
X4006682Y-9282603D01*
X4006682Y-9282603D02*
X3997158Y-9320698D01*
X3997158Y-9320698D02*
X3997158Y-9396889D01*
X3997158Y-9396889D02*
X4006682Y-9415936D01*
X4006682Y-9415936D02*
X4016206Y-9425460D01*
X4016206Y-9425460D02*
X4035253Y-9434984D01*
X4035253Y-9434984D02*
X4073348Y-9434984D01*
X4073348Y-9434984D02*
X4092396Y-9425460D01*
X4092396Y-9425460D02*
X4101920Y-9415936D01*
X4101920Y-9415936D02*
X4111444Y-9396889D01*
X4111444Y-9396889D02*
X4111444Y-9349270D01*
X4111444Y-9349270D02*
X4101920Y-9330222D01*
X4101920Y-9330222D02*
X4092396Y-9320698D01*
X4092396Y-9320698D02*
X4073348Y-9311174D01*
X4073348Y-9311174D02*
X4035253Y-9311174D01*
X4035253Y-9311174D02*
X4016206Y-9320698D01*
X4016206Y-9320698D02*
X4006682Y-9330222D01*
X4006682Y-9330222D02*
X3997158Y-9349270D01*
X4187634Y-9234984D02*
X4187634Y-9273079D01*
X4263825Y-9234984D02*
X4263825Y-9273079D01*
X4559063Y-9511174D02*
X4549539Y-9501650D01*
X4549539Y-9501650D02*
X4530491Y-9473079D01*
X4530491Y-9473079D02*
X4520968Y-9454031D01*
X4520968Y-9454031D02*
X4511444Y-9425460D01*
X4511444Y-9425460D02*
X4501920Y-9377841D01*
X4501920Y-9377841D02*
X4501920Y-9339746D01*
X4501920Y-9339746D02*
X4511444Y-9292127D01*
X4511444Y-9292127D02*
X4520968Y-9263555D01*
X4520968Y-9263555D02*
X4530491Y-9244508D01*
X4530491Y-9244508D02*
X4549539Y-9215936D01*
X4549539Y-9215936D02*
X4559063Y-9206412D01*
X4625730Y-9254031D02*
X4635253Y-9244508D01*
X4635253Y-9244508D02*
X4654301Y-9234984D01*
X4654301Y-9234984D02*
X4701920Y-9234984D01*
X4701920Y-9234984D02*
X4720968Y-9244508D01*
X4720968Y-9244508D02*
X4730491Y-9254031D01*
X4730491Y-9254031D02*
X4740015Y-9273079D01*
X4740015Y-9273079D02*
X4740015Y-9292127D01*
X4740015Y-9292127D02*
X4730491Y-9320698D01*
X4730491Y-9320698D02*
X4616206Y-9434984D01*
X4616206Y-9434984D02*
X4740015Y-9434984D01*
X4978111Y-9434984D02*
X4978111Y-9234984D01*
X5063825Y-9434984D02*
X5063825Y-9330222D01*
X5063825Y-9330222D02*
X5054301Y-9311174D01*
X5054301Y-9311174D02*
X5035253Y-9301650D01*
X5035253Y-9301650D02*
X5006682Y-9301650D01*
X5006682Y-9301650D02*
X4987634Y-9311174D01*
X4987634Y-9311174D02*
X4978111Y-9320698D01*
X5187634Y-9434984D02*
X5168587Y-9425460D01*
X5168587Y-9425460D02*
X5159063Y-9415936D01*
X5159063Y-9415936D02*
X5149539Y-9396889D01*
X5149539Y-9396889D02*
X5149539Y-9339746D01*
X5149539Y-9339746D02*
X5159063Y-9320698D01*
X5159063Y-9320698D02*
X5168587Y-9311174D01*
X5168587Y-9311174D02*
X5187634Y-9301650D01*
X5187634Y-9301650D02*
X5216206Y-9301650D01*
X5216206Y-9301650D02*
X5235253Y-9311174D01*
X5235253Y-9311174D02*
X5244777Y-9320698D01*
X5244777Y-9320698D02*
X5254301Y-9339746D01*
X5254301Y-9339746D02*
X5254301Y-9396889D01*
X5254301Y-9396889D02*
X5244777Y-9415936D01*
X5244777Y-9415936D02*
X5235253Y-9425460D01*
X5235253Y-9425460D02*
X5216206Y-9434984D01*
X5216206Y-9434984D02*
X5187634Y-9434984D01*
X5368587Y-9434984D02*
X5349539Y-9425460D01*
X5349539Y-9425460D02*
X5340015Y-9406412D01*
X5340015Y-9406412D02*
X5340015Y-9234984D01*
X5520968Y-9425460D02*
X5501920Y-9434984D01*
X5501920Y-9434984D02*
X5463825Y-9434984D01*
X5463825Y-9434984D02*
X5444777Y-9425460D01*
X5444777Y-9425460D02*
X5435253Y-9406412D01*
X5435253Y-9406412D02*
X5435253Y-9330222D01*
X5435253Y-9330222D02*
X5444777Y-9311174D01*
X5444777Y-9311174D02*
X5463825Y-9301650D01*
X5463825Y-9301650D02*
X5501920Y-9301650D01*
X5501920Y-9301650D02*
X5520968Y-9311174D01*
X5520968Y-9311174D02*
X5530492Y-9330222D01*
X5530492Y-9330222D02*
X5530492Y-9349270D01*
X5530492Y-9349270D02*
X5435253Y-9368317D01*
X5606682Y-9425460D02*
X5625730Y-9434984D01*
X5625730Y-9434984D02*
X5663825Y-9434984D01*
X5663825Y-9434984D02*
X5682872Y-9425460D01*
X5682872Y-9425460D02*
X5692396Y-9406412D01*
X5692396Y-9406412D02*
X5692396Y-9396889D01*
X5692396Y-9396889D02*
X5682872Y-9377841D01*
X5682872Y-9377841D02*
X5663825Y-9368317D01*
X5663825Y-9368317D02*
X5635253Y-9368317D01*
X5635253Y-9368317D02*
X5616206Y-9358793D01*
X5616206Y-9358793D02*
X5606682Y-9339746D01*
X5606682Y-9339746D02*
X5606682Y-9330222D01*
X5606682Y-9330222D02*
X5616206Y-9311174D01*
X5616206Y-9311174D02*
X5635253Y-9301650D01*
X5635253Y-9301650D02*
X5663825Y-9301650D01*
X5663825Y-9301650D02*
X5682872Y-9311174D01*
X5759063Y-9511174D02*
X5768587Y-9501650D01*
X5768587Y-9501650D02*
X5787634Y-9473079D01*
X5787634Y-9473079D02*
X5797158Y-9454031D01*
X5797158Y-9454031D02*
X5806682Y-9425460D01*
X5806682Y-9425460D02*
X5816206Y-9377841D01*
X5816206Y-9377841D02*
X5816206Y-9339746D01*
X5816206Y-9339746D02*
X5806682Y-9292127D01*
X5806682Y-9292127D02*
X5797158Y-9263555D01*
X5797158Y-9263555D02*
X5787634Y-9244508D01*
X5787634Y-9244508D02*
X5768587Y-9215936D01*
X5768587Y-9215936D02*
X5759063Y-9206412D01*
M02*
